G04 #@! TF.GenerationSoftware,KiCad,Pcbnew,9.0.2-9.0.2-0~ubuntu22.04.1*
G04 #@! TF.CreationDate,2025-07-06T23:19:01+01:00*
G04 #@! TF.ProjectId,ggroohauga-console,6767726f-6f68-4617-9567-612d636f6e73,rev?*
G04 #@! TF.SameCoordinates,Original*
G04 #@! TF.FileFunction,Legend,Top*
G04 #@! TF.FilePolarity,Positive*
%FSLAX46Y46*%
G04 Gerber Fmt 4.6, Leading zero omitted, Abs format (unit mm)*
G04 Created by KiCad (PCBNEW 9.0.2-9.0.2-0~ubuntu22.04.1) date 2025-07-06 23:19:01*
%MOMM*%
%LPD*%
G01*
G04 APERTURE LIST*
G04 Aperture macros list*
%AMRoundRect*
0 Rectangle with rounded corners*
0 $1 Rounding radius*
0 $2 $3 $4 $5 $6 $7 $8 $9 X,Y pos of 4 corners*
0 Add a 4 corners polygon primitive as box body*
4,1,4,$2,$3,$4,$5,$6,$7,$8,$9,$2,$3,0*
0 Add four circle primitives for the rounded corners*
1,1,$1+$1,$2,$3*
1,1,$1+$1,$4,$5*
1,1,$1+$1,$6,$7*
1,1,$1+$1,$8,$9*
0 Add four rect primitives between the rounded corners*
20,1,$1+$1,$2,$3,$4,$5,0*
20,1,$1+$1,$4,$5,$6,$7,0*
20,1,$1+$1,$6,$7,$8,$9,0*
20,1,$1+$1,$8,$9,$2,$3,0*%
G04 Aperture macros list end*
%ADD10C,0.150000*%
%ADD11C,0.120000*%
%ADD12C,0.127000*%
%ADD13C,0.200000*%
%ADD14RoundRect,0.150000X-0.587500X-0.150000X0.587500X-0.150000X0.587500X0.150000X-0.587500X0.150000X0*%
%ADD15C,1.200000*%
%ADD16O,2.200000X1.200000*%
%ADD17O,1.200000X2.200000*%
%ADD18R,1.700000X1.700000*%
%ADD19C,1.700000*%
%ADD20C,4.470000*%
%ADD21RoundRect,0.102000X-0.862500X0.862500X-0.862500X-0.862500X0.862500X-0.862500X0.862500X0.862500X0*%
%ADD22C,1.929000*%
G04 APERTURE END LIST*
D10*
X73366476Y-62765080D02*
X73318857Y-62812700D01*
X73318857Y-62812700D02*
X73176000Y-62860319D01*
X73176000Y-62860319D02*
X73080762Y-62860319D01*
X73080762Y-62860319D02*
X72937905Y-62812700D01*
X72937905Y-62812700D02*
X72842667Y-62717461D01*
X72842667Y-62717461D02*
X72795048Y-62622223D01*
X72795048Y-62622223D02*
X72747429Y-62431747D01*
X72747429Y-62431747D02*
X72747429Y-62288890D01*
X72747429Y-62288890D02*
X72795048Y-62098414D01*
X72795048Y-62098414D02*
X72842667Y-62003176D01*
X72842667Y-62003176D02*
X72937905Y-61907938D01*
X72937905Y-61907938D02*
X73080762Y-61860319D01*
X73080762Y-61860319D02*
X73176000Y-61860319D01*
X73176000Y-61860319D02*
X73318857Y-61907938D01*
X73318857Y-61907938D02*
X73366476Y-61955557D01*
X73795048Y-62479366D02*
X74556953Y-62479366D01*
X75699809Y-62955557D02*
X75604571Y-62907938D01*
X75604571Y-62907938D02*
X75509333Y-62812700D01*
X75509333Y-62812700D02*
X75366476Y-62669842D01*
X75366476Y-62669842D02*
X75271238Y-62622223D01*
X75271238Y-62622223D02*
X75176000Y-62622223D01*
X75223619Y-62860319D02*
X75128381Y-62812700D01*
X75128381Y-62812700D02*
X75033143Y-62717461D01*
X75033143Y-62717461D02*
X74985524Y-62526985D01*
X74985524Y-62526985D02*
X74985524Y-62193652D01*
X74985524Y-62193652D02*
X75033143Y-62003176D01*
X75033143Y-62003176D02*
X75128381Y-61907938D01*
X75128381Y-61907938D02*
X75223619Y-61860319D01*
X75223619Y-61860319D02*
X75414095Y-61860319D01*
X75414095Y-61860319D02*
X75509333Y-61907938D01*
X75509333Y-61907938D02*
X75604571Y-62003176D01*
X75604571Y-62003176D02*
X75652190Y-62193652D01*
X75652190Y-62193652D02*
X75652190Y-62526985D01*
X75652190Y-62526985D02*
X75604571Y-62717461D01*
X75604571Y-62717461D02*
X75509333Y-62812700D01*
X75509333Y-62812700D02*
X75414095Y-62860319D01*
X75414095Y-62860319D02*
X75223619Y-62860319D01*
X76604571Y-62860319D02*
X76033143Y-62860319D01*
X76318857Y-62860319D02*
X76318857Y-61860319D01*
X76318857Y-61860319D02*
X76223619Y-62003176D01*
X76223619Y-62003176D02*
X76128381Y-62098414D01*
X76128381Y-62098414D02*
X76033143Y-62146033D01*
X135980600Y-74781824D02*
X136028219Y-74638967D01*
X136028219Y-74638967D02*
X136028219Y-74400872D01*
X136028219Y-74400872D02*
X135980600Y-74305634D01*
X135980600Y-74305634D02*
X135932980Y-74258015D01*
X135932980Y-74258015D02*
X135837742Y-74210396D01*
X135837742Y-74210396D02*
X135742504Y-74210396D01*
X135742504Y-74210396D02*
X135647266Y-74258015D01*
X135647266Y-74258015D02*
X135599647Y-74305634D01*
X135599647Y-74305634D02*
X135552028Y-74400872D01*
X135552028Y-74400872D02*
X135504409Y-74591348D01*
X135504409Y-74591348D02*
X135456790Y-74686586D01*
X135456790Y-74686586D02*
X135409171Y-74734205D01*
X135409171Y-74734205D02*
X135313933Y-74781824D01*
X135313933Y-74781824D02*
X135218695Y-74781824D01*
X135218695Y-74781824D02*
X135123457Y-74734205D01*
X135123457Y-74734205D02*
X135075838Y-74686586D01*
X135075838Y-74686586D02*
X135028219Y-74591348D01*
X135028219Y-74591348D02*
X135028219Y-74353253D01*
X135028219Y-74353253D02*
X135075838Y-74210396D01*
X135647266Y-73781824D02*
X135647266Y-73019920D01*
X135028219Y-72258015D02*
X135742504Y-72258015D01*
X135742504Y-72258015D02*
X135885361Y-72305634D01*
X135885361Y-72305634D02*
X135980600Y-72400872D01*
X135980600Y-72400872D02*
X136028219Y-72543729D01*
X136028219Y-72543729D02*
X136028219Y-72638967D01*
X136028219Y-71258015D02*
X136028219Y-71829443D01*
X136028219Y-71543729D02*
X135028219Y-71543729D01*
X135028219Y-71543729D02*
X135171076Y-71638967D01*
X135171076Y-71638967D02*
X135266314Y-71734205D01*
X135266314Y-71734205D02*
X135313933Y-71829443D01*
X138516257Y-80189024D02*
X138992447Y-80189024D01*
X138421019Y-80474739D02*
X138754352Y-79474739D01*
X138754352Y-79474739D02*
X139087685Y-80474739D01*
X139849590Y-79808072D02*
X139849590Y-80474739D01*
X139421019Y-79808072D02*
X139421019Y-80331881D01*
X139421019Y-80331881D02*
X139468638Y-80427120D01*
X139468638Y-80427120D02*
X139563876Y-80474739D01*
X139563876Y-80474739D02*
X139706733Y-80474739D01*
X139706733Y-80474739D02*
X139801971Y-80427120D01*
X139801971Y-80427120D02*
X139849590Y-80379500D01*
X140230543Y-80474739D02*
X140754352Y-79808072D01*
X140230543Y-79808072D02*
X140754352Y-80474739D01*
X141897210Y-80474739D02*
X141897210Y-79474739D01*
X142373400Y-79808072D02*
X142373400Y-80474739D01*
X142373400Y-79903310D02*
X142421019Y-79855691D01*
X142421019Y-79855691D02*
X142516257Y-79808072D01*
X142516257Y-79808072D02*
X142659114Y-79808072D01*
X142659114Y-79808072D02*
X142754352Y-79855691D01*
X142754352Y-79855691D02*
X142801971Y-79950929D01*
X142801971Y-79950929D02*
X142801971Y-80474739D01*
X143278162Y-79808072D02*
X143278162Y-80808072D01*
X143278162Y-79855691D02*
X143373400Y-79808072D01*
X143373400Y-79808072D02*
X143563876Y-79808072D01*
X143563876Y-79808072D02*
X143659114Y-79855691D01*
X143659114Y-79855691D02*
X143706733Y-79903310D01*
X143706733Y-79903310D02*
X143754352Y-79998548D01*
X143754352Y-79998548D02*
X143754352Y-80284262D01*
X143754352Y-80284262D02*
X143706733Y-80379500D01*
X143706733Y-80379500D02*
X143659114Y-80427120D01*
X143659114Y-80427120D02*
X143563876Y-80474739D01*
X143563876Y-80474739D02*
X143373400Y-80474739D01*
X143373400Y-80474739D02*
X143278162Y-80427120D01*
X144611495Y-79808072D02*
X144611495Y-80474739D01*
X144182924Y-79808072D02*
X144182924Y-80331881D01*
X144182924Y-80331881D02*
X144230543Y-80427120D01*
X144230543Y-80427120D02*
X144325781Y-80474739D01*
X144325781Y-80474739D02*
X144468638Y-80474739D01*
X144468638Y-80474739D02*
X144563876Y-80427120D01*
X144563876Y-80427120D02*
X144611495Y-80379500D01*
X144944829Y-79808072D02*
X145325781Y-79808072D01*
X145087686Y-79474739D02*
X145087686Y-80331881D01*
X145087686Y-80331881D02*
X145135305Y-80427120D01*
X145135305Y-80427120D02*
X145230543Y-80474739D01*
X145230543Y-80474739D02*
X145325781Y-80474739D01*
X79171200Y-56348094D02*
X79218819Y-56205237D01*
X79218819Y-56205237D02*
X79218819Y-55967142D01*
X79218819Y-55967142D02*
X79171200Y-55871904D01*
X79171200Y-55871904D02*
X79123580Y-55824285D01*
X79123580Y-55824285D02*
X79028342Y-55776666D01*
X79028342Y-55776666D02*
X78933104Y-55776666D01*
X78933104Y-55776666D02*
X78837866Y-55824285D01*
X78837866Y-55824285D02*
X78790247Y-55871904D01*
X78790247Y-55871904D02*
X78742628Y-55967142D01*
X78742628Y-55967142D02*
X78695009Y-56157618D01*
X78695009Y-56157618D02*
X78647390Y-56252856D01*
X78647390Y-56252856D02*
X78599771Y-56300475D01*
X78599771Y-56300475D02*
X78504533Y-56348094D01*
X78504533Y-56348094D02*
X78409295Y-56348094D01*
X78409295Y-56348094D02*
X78314057Y-56300475D01*
X78314057Y-56300475D02*
X78266438Y-56252856D01*
X78266438Y-56252856D02*
X78218819Y-56157618D01*
X78218819Y-56157618D02*
X78218819Y-55919523D01*
X78218819Y-55919523D02*
X78266438Y-55776666D01*
X78218819Y-55443332D02*
X78218819Y-54824285D01*
X78218819Y-54824285D02*
X78599771Y-55157618D01*
X78599771Y-55157618D02*
X78599771Y-55014761D01*
X78599771Y-55014761D02*
X78647390Y-54919523D01*
X78647390Y-54919523D02*
X78695009Y-54871904D01*
X78695009Y-54871904D02*
X78790247Y-54824285D01*
X78790247Y-54824285D02*
X79028342Y-54824285D01*
X79028342Y-54824285D02*
X79123580Y-54871904D01*
X79123580Y-54871904D02*
X79171200Y-54919523D01*
X79171200Y-54919523D02*
X79218819Y-55014761D01*
X79218819Y-55014761D02*
X79218819Y-55300475D01*
X79218819Y-55300475D02*
X79171200Y-55395713D01*
X79171200Y-55395713D02*
X79123580Y-55443332D01*
X79218819Y-53824285D02*
X78742628Y-54157618D01*
X79218819Y-54395713D02*
X78218819Y-54395713D01*
X78218819Y-54395713D02*
X78218819Y-54014761D01*
X78218819Y-54014761D02*
X78266438Y-53919523D01*
X78266438Y-53919523D02*
X78314057Y-53871904D01*
X78314057Y-53871904D02*
X78409295Y-53824285D01*
X78409295Y-53824285D02*
X78552152Y-53824285D01*
X78552152Y-53824285D02*
X78647390Y-53871904D01*
X78647390Y-53871904D02*
X78695009Y-53919523D01*
X78695009Y-53919523D02*
X78742628Y-54014761D01*
X78742628Y-54014761D02*
X78742628Y-54395713D01*
X79218819Y-52871904D02*
X79218819Y-53443332D01*
X79218819Y-53157618D02*
X78218819Y-53157618D01*
X78218819Y-53157618D02*
X78361676Y-53252856D01*
X78361676Y-53252856D02*
X78456914Y-53348094D01*
X78456914Y-53348094D02*
X78504533Y-53443332D01*
X72874180Y-55080866D02*
X72921800Y-55128485D01*
X72921800Y-55128485D02*
X72969419Y-55271342D01*
X72969419Y-55271342D02*
X72969419Y-55366580D01*
X72969419Y-55366580D02*
X72921800Y-55509437D01*
X72921800Y-55509437D02*
X72826561Y-55604675D01*
X72826561Y-55604675D02*
X72731323Y-55652294D01*
X72731323Y-55652294D02*
X72540847Y-55699913D01*
X72540847Y-55699913D02*
X72397990Y-55699913D01*
X72397990Y-55699913D02*
X72207514Y-55652294D01*
X72207514Y-55652294D02*
X72112276Y-55604675D01*
X72112276Y-55604675D02*
X72017038Y-55509437D01*
X72017038Y-55509437D02*
X71969419Y-55366580D01*
X71969419Y-55366580D02*
X71969419Y-55271342D01*
X71969419Y-55271342D02*
X72017038Y-55128485D01*
X72017038Y-55128485D02*
X72064657Y-55080866D01*
X72588466Y-54652294D02*
X72588466Y-53890390D01*
X71969419Y-53128485D02*
X72683704Y-53128485D01*
X72683704Y-53128485D02*
X72826561Y-53176104D01*
X72826561Y-53176104D02*
X72921800Y-53271342D01*
X72921800Y-53271342D02*
X72969419Y-53414199D01*
X72969419Y-53414199D02*
X72969419Y-53509437D01*
X72969419Y-52128485D02*
X72969419Y-52699913D01*
X72969419Y-52414199D02*
X71969419Y-52414199D01*
X71969419Y-52414199D02*
X72112276Y-52509437D01*
X72112276Y-52509437D02*
X72207514Y-52604675D01*
X72207514Y-52604675D02*
X72255133Y-52699913D01*
X79171200Y-79112856D02*
X79218819Y-78969999D01*
X79218819Y-78969999D02*
X79218819Y-78731904D01*
X79218819Y-78731904D02*
X79171200Y-78636666D01*
X79171200Y-78636666D02*
X79123580Y-78589047D01*
X79123580Y-78589047D02*
X79028342Y-78541428D01*
X79028342Y-78541428D02*
X78933104Y-78541428D01*
X78933104Y-78541428D02*
X78837866Y-78589047D01*
X78837866Y-78589047D02*
X78790247Y-78636666D01*
X78790247Y-78636666D02*
X78742628Y-78731904D01*
X78742628Y-78731904D02*
X78695009Y-78922380D01*
X78695009Y-78922380D02*
X78647390Y-79017618D01*
X78647390Y-79017618D02*
X78599771Y-79065237D01*
X78599771Y-79065237D02*
X78504533Y-79112856D01*
X78504533Y-79112856D02*
X78409295Y-79112856D01*
X78409295Y-79112856D02*
X78314057Y-79065237D01*
X78314057Y-79065237D02*
X78266438Y-79017618D01*
X78266438Y-79017618D02*
X78218819Y-78922380D01*
X78218819Y-78922380D02*
X78218819Y-78684285D01*
X78218819Y-78684285D02*
X78266438Y-78541428D01*
X78218819Y-78208094D02*
X78218819Y-77589047D01*
X78218819Y-77589047D02*
X78599771Y-77922380D01*
X78599771Y-77922380D02*
X78599771Y-77779523D01*
X78599771Y-77779523D02*
X78647390Y-77684285D01*
X78647390Y-77684285D02*
X78695009Y-77636666D01*
X78695009Y-77636666D02*
X78790247Y-77589047D01*
X78790247Y-77589047D02*
X79028342Y-77589047D01*
X79028342Y-77589047D02*
X79123580Y-77636666D01*
X79123580Y-77636666D02*
X79171200Y-77684285D01*
X79171200Y-77684285D02*
X79218819Y-77779523D01*
X79218819Y-77779523D02*
X79218819Y-78065237D01*
X79218819Y-78065237D02*
X79171200Y-78160475D01*
X79171200Y-78160475D02*
X79123580Y-78208094D01*
X79218819Y-76684285D02*
X79218819Y-77160475D01*
X79218819Y-77160475D02*
X78218819Y-77160475D01*
X79218819Y-75827142D02*
X79218819Y-76398570D01*
X79218819Y-76112856D02*
X78218819Y-76112856D01*
X78218819Y-76112856D02*
X78361676Y-76208094D01*
X78361676Y-76208094D02*
X78456914Y-76303332D01*
X78456914Y-76303332D02*
X78504533Y-76398570D01*
X135980600Y-60867704D02*
X136028219Y-60724847D01*
X136028219Y-60724847D02*
X136028219Y-60486752D01*
X136028219Y-60486752D02*
X135980600Y-60391514D01*
X135980600Y-60391514D02*
X135932980Y-60343895D01*
X135932980Y-60343895D02*
X135837742Y-60296276D01*
X135837742Y-60296276D02*
X135742504Y-60296276D01*
X135742504Y-60296276D02*
X135647266Y-60343895D01*
X135647266Y-60343895D02*
X135599647Y-60391514D01*
X135599647Y-60391514D02*
X135552028Y-60486752D01*
X135552028Y-60486752D02*
X135504409Y-60677228D01*
X135504409Y-60677228D02*
X135456790Y-60772466D01*
X135456790Y-60772466D02*
X135409171Y-60820085D01*
X135409171Y-60820085D02*
X135313933Y-60867704D01*
X135313933Y-60867704D02*
X135218695Y-60867704D01*
X135218695Y-60867704D02*
X135123457Y-60820085D01*
X135123457Y-60820085D02*
X135075838Y-60772466D01*
X135075838Y-60772466D02*
X135028219Y-60677228D01*
X135028219Y-60677228D02*
X135028219Y-60439133D01*
X135028219Y-60439133D02*
X135075838Y-60296276D01*
X135647266Y-59867704D02*
X135647266Y-59105800D01*
X135028219Y-58343895D02*
X135742504Y-58343895D01*
X135742504Y-58343895D02*
X135885361Y-58391514D01*
X135885361Y-58391514D02*
X135980600Y-58486752D01*
X135980600Y-58486752D02*
X136028219Y-58629609D01*
X136028219Y-58629609D02*
X136028219Y-58724847D01*
X135123457Y-57915323D02*
X135075838Y-57867704D01*
X135075838Y-57867704D02*
X135028219Y-57772466D01*
X135028219Y-57772466D02*
X135028219Y-57534371D01*
X135028219Y-57534371D02*
X135075838Y-57439133D01*
X135075838Y-57439133D02*
X135123457Y-57391514D01*
X135123457Y-57391514D02*
X135218695Y-57343895D01*
X135218695Y-57343895D02*
X135313933Y-57343895D01*
X135313933Y-57343895D02*
X135456790Y-57391514D01*
X135456790Y-57391514D02*
X136028219Y-57962942D01*
X136028219Y-57962942D02*
X136028219Y-57343895D01*
X146135304Y-51650980D02*
X146135304Y-52650980D01*
X146135304Y-52174790D02*
X145563876Y-52174790D01*
X145563876Y-51650980D02*
X145563876Y-52650980D01*
X144706733Y-51698600D02*
X144801971Y-51650980D01*
X144801971Y-51650980D02*
X144992447Y-51650980D01*
X144992447Y-51650980D02*
X145087685Y-51698600D01*
X145087685Y-51698600D02*
X145135304Y-51793838D01*
X145135304Y-51793838D02*
X145135304Y-52174790D01*
X145135304Y-52174790D02*
X145087685Y-52270028D01*
X145087685Y-52270028D02*
X144992447Y-52317647D01*
X144992447Y-52317647D02*
X144801971Y-52317647D01*
X144801971Y-52317647D02*
X144706733Y-52270028D01*
X144706733Y-52270028D02*
X144659114Y-52174790D01*
X144659114Y-52174790D02*
X144659114Y-52079552D01*
X144659114Y-52079552D02*
X145135304Y-51984314D01*
X143801971Y-51650980D02*
X143801971Y-52174790D01*
X143801971Y-52174790D02*
X143849590Y-52270028D01*
X143849590Y-52270028D02*
X143944828Y-52317647D01*
X143944828Y-52317647D02*
X144135304Y-52317647D01*
X144135304Y-52317647D02*
X144230542Y-52270028D01*
X143801971Y-51698600D02*
X143897209Y-51650980D01*
X143897209Y-51650980D02*
X144135304Y-51650980D01*
X144135304Y-51650980D02*
X144230542Y-51698600D01*
X144230542Y-51698600D02*
X144278161Y-51793838D01*
X144278161Y-51793838D02*
X144278161Y-51889076D01*
X144278161Y-51889076D02*
X144230542Y-51984314D01*
X144230542Y-51984314D02*
X144135304Y-52031933D01*
X144135304Y-52031933D02*
X143897209Y-52031933D01*
X143897209Y-52031933D02*
X143801971Y-52079552D01*
X142897209Y-51650980D02*
X142897209Y-52650980D01*
X142897209Y-51698600D02*
X142992447Y-51650980D01*
X142992447Y-51650980D02*
X143182923Y-51650980D01*
X143182923Y-51650980D02*
X143278161Y-51698600D01*
X143278161Y-51698600D02*
X143325780Y-51746219D01*
X143325780Y-51746219D02*
X143373399Y-51841457D01*
X143373399Y-51841457D02*
X143373399Y-52127171D01*
X143373399Y-52127171D02*
X143325780Y-52222409D01*
X143325780Y-52222409D02*
X143278161Y-52270028D01*
X143278161Y-52270028D02*
X143182923Y-52317647D01*
X143182923Y-52317647D02*
X142992447Y-52317647D01*
X142992447Y-52317647D02*
X142897209Y-52270028D01*
X142421018Y-52317647D02*
X142421018Y-51317647D01*
X142421018Y-52270028D02*
X142325780Y-52317647D01*
X142325780Y-52317647D02*
X142135304Y-52317647D01*
X142135304Y-52317647D02*
X142040066Y-52270028D01*
X142040066Y-52270028D02*
X141992447Y-52222409D01*
X141992447Y-52222409D02*
X141944828Y-52127171D01*
X141944828Y-52127171D02*
X141944828Y-51841457D01*
X141944828Y-51841457D02*
X141992447Y-51746219D01*
X141992447Y-51746219D02*
X142040066Y-51698600D01*
X142040066Y-51698600D02*
X142135304Y-51650980D01*
X142135304Y-51650980D02*
X142325780Y-51650980D01*
X142325780Y-51650980D02*
X142421018Y-51698600D01*
X141516256Y-51650980D02*
X141516256Y-52650980D01*
X141087685Y-51650980D02*
X141087685Y-52174790D01*
X141087685Y-52174790D02*
X141135304Y-52270028D01*
X141135304Y-52270028D02*
X141230542Y-52317647D01*
X141230542Y-52317647D02*
X141373399Y-52317647D01*
X141373399Y-52317647D02*
X141468637Y-52270028D01*
X141468637Y-52270028D02*
X141516256Y-52222409D01*
X140468637Y-51650980D02*
X140563875Y-51698600D01*
X140563875Y-51698600D02*
X140611494Y-51746219D01*
X140611494Y-51746219D02*
X140659113Y-51841457D01*
X140659113Y-51841457D02*
X140659113Y-52127171D01*
X140659113Y-52127171D02*
X140611494Y-52222409D01*
X140611494Y-52222409D02*
X140563875Y-52270028D01*
X140563875Y-52270028D02*
X140468637Y-52317647D01*
X140468637Y-52317647D02*
X140325780Y-52317647D01*
X140325780Y-52317647D02*
X140230542Y-52270028D01*
X140230542Y-52270028D02*
X140182923Y-52222409D01*
X140182923Y-52222409D02*
X140135304Y-52127171D01*
X140135304Y-52127171D02*
X140135304Y-51841457D01*
X140135304Y-51841457D02*
X140182923Y-51746219D01*
X140182923Y-51746219D02*
X140230542Y-51698600D01*
X140230542Y-51698600D02*
X140325780Y-51650980D01*
X140325780Y-51650980D02*
X140468637Y-51650980D01*
X139706732Y-52317647D02*
X139706732Y-51650980D01*
X139706732Y-52222409D02*
X139659113Y-52270028D01*
X139659113Y-52270028D02*
X139563875Y-52317647D01*
X139563875Y-52317647D02*
X139421018Y-52317647D01*
X139421018Y-52317647D02*
X139325780Y-52270028D01*
X139325780Y-52270028D02*
X139278161Y-52174790D01*
X139278161Y-52174790D02*
X139278161Y-51650980D01*
X138421018Y-51698600D02*
X138516256Y-51650980D01*
X138516256Y-51650980D02*
X138706732Y-51650980D01*
X138706732Y-51650980D02*
X138801970Y-51698600D01*
X138801970Y-51698600D02*
X138849589Y-51793838D01*
X138849589Y-51793838D02*
X138849589Y-52174790D01*
X138849589Y-52174790D02*
X138801970Y-52270028D01*
X138801970Y-52270028D02*
X138706732Y-52317647D01*
X138706732Y-52317647D02*
X138516256Y-52317647D01*
X138516256Y-52317647D02*
X138421018Y-52270028D01*
X138421018Y-52270028D02*
X138373399Y-52174790D01*
X138373399Y-52174790D02*
X138373399Y-52079552D01*
X138373399Y-52079552D02*
X138849589Y-51984314D01*
X137992446Y-51698600D02*
X137897208Y-51650980D01*
X137897208Y-51650980D02*
X137706732Y-51650980D01*
X137706732Y-51650980D02*
X137611494Y-51698600D01*
X137611494Y-51698600D02*
X137563875Y-51793838D01*
X137563875Y-51793838D02*
X137563875Y-51841457D01*
X137563875Y-51841457D02*
X137611494Y-51936695D01*
X137611494Y-51936695D02*
X137706732Y-51984314D01*
X137706732Y-51984314D02*
X137849589Y-51984314D01*
X137849589Y-51984314D02*
X137944827Y-52031933D01*
X137944827Y-52031933D02*
X137992446Y-52127171D01*
X137992446Y-52127171D02*
X137992446Y-52174790D01*
X137992446Y-52174790D02*
X137944827Y-52270028D01*
X137944827Y-52270028D02*
X137849589Y-52317647D01*
X137849589Y-52317647D02*
X137706732Y-52317647D01*
X137706732Y-52317647D02*
X137611494Y-52270028D01*
D11*
X74676000Y-63972000D02*
X74026000Y-63972000D01*
X74676000Y-63972000D02*
X75326000Y-63972000D01*
X74676000Y-67092000D02*
X74026000Y-67092000D01*
X74676000Y-67092000D02*
X75326000Y-67092000D01*
X73513500Y-64022000D02*
X73273500Y-63692000D01*
X73753500Y-63692000D01*
X73513500Y-64022000D01*
G36*
X73513500Y-64022000D02*
G01*
X73273500Y-63692000D01*
X73753500Y-63692000D01*
X73513500Y-64022000D01*
G37*
X136673400Y-67019920D02*
X147673400Y-67019920D01*
X136673400Y-79019920D02*
X136673400Y-67019920D01*
X147673400Y-79019920D02*
X136673400Y-79019920D01*
X80204000Y-53280000D02*
X81534000Y-53280000D01*
X80204000Y-54610000D02*
X80204000Y-53280000D01*
X82804000Y-53280000D02*
X131124000Y-53280000D01*
X82804000Y-55940000D02*
X82804000Y-53280000D01*
X82804000Y-55940000D02*
X131124000Y-55940000D01*
X131124000Y-55940000D02*
X131124000Y-53280000D01*
D12*
X53949600Y-50584200D02*
X70049600Y-50584200D01*
X53949600Y-81394200D02*
X70049600Y-81394200D01*
X70049600Y-50584200D02*
X70049600Y-81394200D01*
D13*
X70729600Y-61659200D02*
G75*
G02*
X70529600Y-61659200I-100000J0D01*
G01*
X70529600Y-61659200D02*
G75*
G02*
X70729600Y-61659200I100000J0D01*
G01*
D11*
X80204000Y-76140000D02*
X81534000Y-76140000D01*
X80204000Y-77470000D02*
X80204000Y-76140000D01*
X82804000Y-76140000D02*
X131124000Y-76140000D01*
X82804000Y-78800000D02*
X82804000Y-76140000D01*
X82804000Y-78800000D02*
X131124000Y-78800000D01*
X131124000Y-78800000D02*
X131124000Y-76140000D01*
X136673400Y-53105800D02*
X147673400Y-53105800D01*
X136673400Y-65105800D02*
X136673400Y-53105800D01*
X147673400Y-65105800D02*
X136673400Y-65105800D01*
%LPC*%
D14*
X73738500Y-64582000D03*
X73738500Y-66482000D03*
X75613500Y-65532000D03*
D15*
X144373400Y-78019920D03*
X146873400Y-78019920D03*
X139373400Y-73019920D03*
X144373400Y-68019920D03*
X146873400Y-68019920D03*
D16*
X139373400Y-78019920D03*
D17*
X144373400Y-73019920D03*
D16*
X139373400Y-68019920D03*
D18*
X81534000Y-54610000D03*
D19*
X84074000Y-54610000D03*
X86614000Y-54610000D03*
X89154000Y-54610000D03*
X91694000Y-54610000D03*
X94234000Y-54610000D03*
X96774000Y-54610000D03*
X99314000Y-54610000D03*
X101854000Y-54610000D03*
X104394000Y-54610000D03*
X106934000Y-54610000D03*
X109474000Y-54610000D03*
X112014000Y-54610000D03*
X114554000Y-54610000D03*
X117094000Y-54610000D03*
X119634000Y-54610000D03*
X122174000Y-54610000D03*
X124714000Y-54610000D03*
X127254000Y-54610000D03*
X129794000Y-54610000D03*
D20*
X65379600Y-53494200D03*
X65379600Y-78484200D03*
D21*
X67919600Y-61659200D03*
D22*
X67919600Y-63949200D03*
X67919600Y-66239200D03*
X67919600Y-68529200D03*
X67919600Y-70819200D03*
X65379600Y-60514200D03*
X65379600Y-62804200D03*
X65379600Y-65094200D03*
X65379600Y-67384200D03*
X65379600Y-69674200D03*
X62839600Y-61659200D03*
X62839600Y-63949200D03*
X62839600Y-66239200D03*
X62839600Y-68529200D03*
X62839600Y-70819200D03*
D18*
X81534000Y-77470000D03*
D19*
X84074000Y-77470000D03*
X86614000Y-77470000D03*
X89154000Y-77470000D03*
X91694000Y-77470000D03*
X94234000Y-77470000D03*
X96774000Y-77470000D03*
X99314000Y-77470000D03*
X101854000Y-77470000D03*
X104394000Y-77470000D03*
X106934000Y-77470000D03*
X109474000Y-77470000D03*
X112014000Y-77470000D03*
X114554000Y-77470000D03*
X117094000Y-77470000D03*
X119634000Y-77470000D03*
X122174000Y-77470000D03*
X124714000Y-77470000D03*
X127254000Y-77470000D03*
X129794000Y-77470000D03*
D15*
X144373400Y-64105800D03*
X146873400Y-64105800D03*
X139373400Y-59105800D03*
X144373400Y-54105800D03*
X146873400Y-54105800D03*
D16*
X139373400Y-64105800D03*
D17*
X144373400Y-59105800D03*
D16*
X139373400Y-54105800D03*
%LPD*%
M02*
