%TF.GenerationSoftware,KiCad,Pcbnew,9.0.2-9.0.2-0~ubuntu22.04.1*%
%TF.CreationDate,2025-07-06T23:19:03+01:00*%
%TF.ProjectId,ggroohauga-console,6767726f-6f68-4617-9567-612d636f6e73,rev?*%
%TF.SameCoordinates,Original*%
%TF.FileFunction,Drillmap*%
%TF.FilePolarity,Positive*%
%FSLAX45Y45*%
G04 Gerber Fmt 4.5, Leading zero omitted, Abs format (unit mm)*
G04 Created by KiCad (PCBNEW 9.0.2-9.0.2-0~ubuntu22.04.1) date 2025-07-06 23:19:03*
%MOMM*%
%LPD*%
G01*
G04 APERTURE LIST*
%ADD10C,0.025400*%
%ADD11C,0.200000*%
%ADD12C,0.120000*%
G04 APERTURE END LIST*
D10*
X5387340Y-5048920D02*
X14887340Y-5048920D01*
X14887340Y-8148920D01*
X5387340Y-8148920D01*
X5387340Y-5048920D01*
X14747340Y-7121992D02*
X14747340Y-7481992D01*
X14787340Y-7081992D02*
X14887340Y-7081992D01*
X14787340Y-7521992D02*
X14887340Y-7521992D01*
X14887340Y-7081992D02*
X14887340Y-7521992D01*
X14747340Y-7121992D02*
G75*
G02*
X14787340Y-7081992I40000J0D01*
G01*
X14787340Y-7521992D02*
G75*
G02*
X14747340Y-7481992I0J40000D01*
G01*
X14747340Y-5730580D02*
X14747340Y-6090580D01*
X14787340Y-5690580D02*
X14887340Y-5690580D01*
X14787340Y-6130580D02*
X14887340Y-6130580D01*
X14887340Y-5690580D02*
X14887340Y-6130580D01*
X14747340Y-5730580D02*
G75*
G02*
X14787340Y-5690580I40000J0D01*
G01*
X14787340Y-6130580D02*
G75*
G02*
X14747340Y-6090580I0J40000D01*
G01*
D11*
D12*
X13877340Y-5850580D02*
X13997340Y-5970580D01*
X13997340Y-5850580D02*
X13877340Y-5970580D01*
X13877340Y-7241992D02*
X13997340Y-7361992D01*
X13997340Y-7241992D02*
X13877340Y-7361992D01*
X14377340Y-5350580D02*
X14497340Y-5470580D01*
X14497340Y-5350580D02*
X14377340Y-5470580D01*
X14377340Y-6350580D02*
X14497340Y-6470580D01*
X14497340Y-6350580D02*
X14377340Y-6470580D01*
X14377340Y-6741992D02*
X14497340Y-6861992D01*
X14497340Y-6741992D02*
X14377340Y-6861992D01*
X14377340Y-7741992D02*
X14497340Y-7861992D01*
X14497340Y-7741992D02*
X14377340Y-7861992D01*
X14627340Y-5350580D02*
X14747340Y-5470580D01*
X14747340Y-5350580D02*
X14627340Y-5470580D01*
X14627340Y-6350580D02*
X14747340Y-6470580D01*
X14747340Y-6350580D02*
X14627340Y-6470580D01*
X14627340Y-6741992D02*
X14747340Y-6861992D01*
X14747340Y-6741992D02*
X14627340Y-6861992D01*
X14627340Y-7741992D02*
X14747340Y-7861992D01*
X14747340Y-7741992D02*
X14627340Y-7861992D01*
D11*
X5646847Y-8461674D02*
X5646847Y-8261674D01*
X5646847Y-8261674D02*
X5694466Y-8261674D01*
X5694466Y-8261674D02*
X5723037Y-8271198D01*
X5723037Y-8271198D02*
X5742085Y-8290245D01*
X5742085Y-8290245D02*
X5751609Y-8309293D01*
X5751609Y-8309293D02*
X5761132Y-8347388D01*
X5761132Y-8347388D02*
X5761132Y-8375959D01*
X5761132Y-8375959D02*
X5751609Y-8414055D01*
X5751609Y-8414055D02*
X5742085Y-8433102D01*
X5742085Y-8433102D02*
X5723037Y-8452150D01*
X5723037Y-8452150D02*
X5694466Y-8461674D01*
X5694466Y-8461674D02*
X5646847Y-8461674D01*
X5846847Y-8461674D02*
X5846847Y-8328340D01*
X5846847Y-8366436D02*
X5856371Y-8347388D01*
X5856371Y-8347388D02*
X5865894Y-8337864D01*
X5865894Y-8337864D02*
X5884942Y-8328340D01*
X5884942Y-8328340D02*
X5903990Y-8328340D01*
X5970656Y-8461674D02*
X5970656Y-8328340D01*
X5970656Y-8261674D02*
X5961132Y-8271198D01*
X5961132Y-8271198D02*
X5970656Y-8280721D01*
X5970656Y-8280721D02*
X5980180Y-8271198D01*
X5980180Y-8271198D02*
X5970656Y-8261674D01*
X5970656Y-8261674D02*
X5970656Y-8280721D01*
X6094466Y-8461674D02*
X6075418Y-8452150D01*
X6075418Y-8452150D02*
X6065894Y-8433102D01*
X6065894Y-8433102D02*
X6065894Y-8261674D01*
X6199228Y-8461674D02*
X6180180Y-8452150D01*
X6180180Y-8452150D02*
X6170656Y-8433102D01*
X6170656Y-8433102D02*
X6170656Y-8261674D01*
X6427799Y-8461674D02*
X6427799Y-8261674D01*
X6427799Y-8261674D02*
X6494466Y-8404531D01*
X6494466Y-8404531D02*
X6561132Y-8261674D01*
X6561132Y-8261674D02*
X6561132Y-8461674D01*
X6742085Y-8461674D02*
X6742085Y-8356912D01*
X6742085Y-8356912D02*
X6732561Y-8337864D01*
X6732561Y-8337864D02*
X6713513Y-8328340D01*
X6713513Y-8328340D02*
X6675418Y-8328340D01*
X6675418Y-8328340D02*
X6656371Y-8337864D01*
X6742085Y-8452150D02*
X6723037Y-8461674D01*
X6723037Y-8461674D02*
X6675418Y-8461674D01*
X6675418Y-8461674D02*
X6656371Y-8452150D01*
X6656371Y-8452150D02*
X6646847Y-8433102D01*
X6646847Y-8433102D02*
X6646847Y-8414055D01*
X6646847Y-8414055D02*
X6656371Y-8395007D01*
X6656371Y-8395007D02*
X6675418Y-8385483D01*
X6675418Y-8385483D02*
X6723037Y-8385483D01*
X6723037Y-8385483D02*
X6742085Y-8375959D01*
X6837323Y-8328340D02*
X6837323Y-8528340D01*
X6837323Y-8337864D02*
X6856371Y-8328340D01*
X6856371Y-8328340D02*
X6894466Y-8328340D01*
X6894466Y-8328340D02*
X6913513Y-8337864D01*
X6913513Y-8337864D02*
X6923037Y-8347388D01*
X6923037Y-8347388D02*
X6932561Y-8366436D01*
X6932561Y-8366436D02*
X6932561Y-8423579D01*
X6932561Y-8423579D02*
X6923037Y-8442626D01*
X6923037Y-8442626D02*
X6913513Y-8452150D01*
X6913513Y-8452150D02*
X6894466Y-8461674D01*
X6894466Y-8461674D02*
X6856371Y-8461674D01*
X6856371Y-8461674D02*
X6837323Y-8452150D01*
X7018275Y-8442626D02*
X7027799Y-8452150D01*
X7027799Y-8452150D02*
X7018275Y-8461674D01*
X7018275Y-8461674D02*
X7008752Y-8452150D01*
X7008752Y-8452150D02*
X7018275Y-8442626D01*
X7018275Y-8442626D02*
X7018275Y-8461674D01*
X7018275Y-8337864D02*
X7027799Y-8347388D01*
X7027799Y-8347388D02*
X7018275Y-8356912D01*
X7018275Y-8356912D02*
X7008752Y-8347388D01*
X7008752Y-8347388D02*
X7018275Y-8337864D01*
X7018275Y-8337864D02*
X7018275Y-8356912D01*
D12*
X5266070Y-8730190D02*
X5386070Y-8850190D01*
X5386070Y-8730190D02*
X5266070Y-8850190D01*
D11*
X5751609Y-8881674D02*
X5637323Y-8881674D01*
X5694466Y-8881674D02*
X5694466Y-8681674D01*
X5694466Y-8681674D02*
X5675418Y-8710245D01*
X5675418Y-8710245D02*
X5656371Y-8729293D01*
X5656371Y-8729293D02*
X5637323Y-8738817D01*
X5837323Y-8862626D02*
X5846847Y-8872150D01*
X5846847Y-8872150D02*
X5837323Y-8881674D01*
X5837323Y-8881674D02*
X5827799Y-8872150D01*
X5827799Y-8872150D02*
X5837323Y-8862626D01*
X5837323Y-8862626D02*
X5837323Y-8881674D01*
X5923037Y-8700721D02*
X5932561Y-8691198D01*
X5932561Y-8691198D02*
X5951609Y-8681674D01*
X5951609Y-8681674D02*
X5999228Y-8681674D01*
X5999228Y-8681674D02*
X6018275Y-8691198D01*
X6018275Y-8691198D02*
X6027799Y-8700721D01*
X6027799Y-8700721D02*
X6037323Y-8719769D01*
X6037323Y-8719769D02*
X6037323Y-8738817D01*
X6037323Y-8738817D02*
X6027799Y-8767388D01*
X6027799Y-8767388D02*
X5913513Y-8881674D01*
X5913513Y-8881674D02*
X6037323Y-8881674D01*
X6161132Y-8681674D02*
X6180180Y-8681674D01*
X6180180Y-8681674D02*
X6199228Y-8691198D01*
X6199228Y-8691198D02*
X6208752Y-8700721D01*
X6208752Y-8700721D02*
X6218275Y-8719769D01*
X6218275Y-8719769D02*
X6227799Y-8757864D01*
X6227799Y-8757864D02*
X6227799Y-8805483D01*
X6227799Y-8805483D02*
X6218275Y-8843579D01*
X6218275Y-8843579D02*
X6208752Y-8862626D01*
X6208752Y-8862626D02*
X6199228Y-8872150D01*
X6199228Y-8872150D02*
X6180180Y-8881674D01*
X6180180Y-8881674D02*
X6161132Y-8881674D01*
X6161132Y-8881674D02*
X6142085Y-8872150D01*
X6142085Y-8872150D02*
X6132561Y-8862626D01*
X6132561Y-8862626D02*
X6123037Y-8843579D01*
X6123037Y-8843579D02*
X6113513Y-8805483D01*
X6113513Y-8805483D02*
X6113513Y-8757864D01*
X6113513Y-8757864D02*
X6123037Y-8719769D01*
X6123037Y-8719769D02*
X6132561Y-8700721D01*
X6132561Y-8700721D02*
X6142085Y-8691198D01*
X6142085Y-8691198D02*
X6161132Y-8681674D01*
X6351609Y-8681674D02*
X6370656Y-8681674D01*
X6370656Y-8681674D02*
X6389704Y-8691198D01*
X6389704Y-8691198D02*
X6399228Y-8700721D01*
X6399228Y-8700721D02*
X6408752Y-8719769D01*
X6408752Y-8719769D02*
X6418275Y-8757864D01*
X6418275Y-8757864D02*
X6418275Y-8805483D01*
X6418275Y-8805483D02*
X6408752Y-8843579D01*
X6408752Y-8843579D02*
X6399228Y-8862626D01*
X6399228Y-8862626D02*
X6389704Y-8872150D01*
X6389704Y-8872150D02*
X6370656Y-8881674D01*
X6370656Y-8881674D02*
X6351609Y-8881674D01*
X6351609Y-8881674D02*
X6332561Y-8872150D01*
X6332561Y-8872150D02*
X6323037Y-8862626D01*
X6323037Y-8862626D02*
X6313513Y-8843579D01*
X6313513Y-8843579D02*
X6303990Y-8805483D01*
X6303990Y-8805483D02*
X6303990Y-8757864D01*
X6303990Y-8757864D02*
X6313513Y-8719769D01*
X6313513Y-8719769D02*
X6323037Y-8700721D01*
X6323037Y-8700721D02*
X6332561Y-8691198D01*
X6332561Y-8691198D02*
X6351609Y-8681674D01*
X6503990Y-8881674D02*
X6503990Y-8748340D01*
X6503990Y-8767388D02*
X6513513Y-8757864D01*
X6513513Y-8757864D02*
X6532561Y-8748340D01*
X6532561Y-8748340D02*
X6561133Y-8748340D01*
X6561133Y-8748340D02*
X6580180Y-8757864D01*
X6580180Y-8757864D02*
X6589704Y-8776912D01*
X6589704Y-8776912D02*
X6589704Y-8881674D01*
X6589704Y-8776912D02*
X6599228Y-8757864D01*
X6599228Y-8757864D02*
X6618275Y-8748340D01*
X6618275Y-8748340D02*
X6646847Y-8748340D01*
X6646847Y-8748340D02*
X6665894Y-8757864D01*
X6665894Y-8757864D02*
X6675418Y-8776912D01*
X6675418Y-8776912D02*
X6675418Y-8881674D01*
X6770656Y-8881674D02*
X6770656Y-8748340D01*
X6770656Y-8767388D02*
X6780180Y-8757864D01*
X6780180Y-8757864D02*
X6799228Y-8748340D01*
X6799228Y-8748340D02*
X6827799Y-8748340D01*
X6827799Y-8748340D02*
X6846847Y-8757864D01*
X6846847Y-8757864D02*
X6856371Y-8776912D01*
X6856371Y-8776912D02*
X6856371Y-8881674D01*
X6856371Y-8776912D02*
X6865894Y-8757864D01*
X6865894Y-8757864D02*
X6884942Y-8748340D01*
X6884942Y-8748340D02*
X6913513Y-8748340D01*
X6913513Y-8748340D02*
X6932561Y-8757864D01*
X6932561Y-8757864D02*
X6942085Y-8776912D01*
X6942085Y-8776912D02*
X6942085Y-8881674D01*
X7332561Y-8672150D02*
X7161133Y-8929293D01*
X7589704Y-8681674D02*
X7608752Y-8681674D01*
X7608752Y-8681674D02*
X7627799Y-8691198D01*
X7627799Y-8691198D02*
X7637323Y-8700721D01*
X7637323Y-8700721D02*
X7646847Y-8719769D01*
X7646847Y-8719769D02*
X7656371Y-8757864D01*
X7656371Y-8757864D02*
X7656371Y-8805483D01*
X7656371Y-8805483D02*
X7646847Y-8843579D01*
X7646847Y-8843579D02*
X7637323Y-8862626D01*
X7637323Y-8862626D02*
X7627799Y-8872150D01*
X7627799Y-8872150D02*
X7608752Y-8881674D01*
X7608752Y-8881674D02*
X7589704Y-8881674D01*
X7589704Y-8881674D02*
X7570656Y-8872150D01*
X7570656Y-8872150D02*
X7561133Y-8862626D01*
X7561133Y-8862626D02*
X7551609Y-8843579D01*
X7551609Y-8843579D02*
X7542085Y-8805483D01*
X7542085Y-8805483D02*
X7542085Y-8757864D01*
X7542085Y-8757864D02*
X7551609Y-8719769D01*
X7551609Y-8719769D02*
X7561133Y-8700721D01*
X7561133Y-8700721D02*
X7570656Y-8691198D01*
X7570656Y-8691198D02*
X7589704Y-8681674D01*
X7742085Y-8862626D02*
X7751609Y-8872150D01*
X7751609Y-8872150D02*
X7742085Y-8881674D01*
X7742085Y-8881674D02*
X7732561Y-8872150D01*
X7732561Y-8872150D02*
X7742085Y-8862626D01*
X7742085Y-8862626D02*
X7742085Y-8881674D01*
X7875418Y-8681674D02*
X7894466Y-8681674D01*
X7894466Y-8681674D02*
X7913514Y-8691198D01*
X7913514Y-8691198D02*
X7923037Y-8700721D01*
X7923037Y-8700721D02*
X7932561Y-8719769D01*
X7932561Y-8719769D02*
X7942085Y-8757864D01*
X7942085Y-8757864D02*
X7942085Y-8805483D01*
X7942085Y-8805483D02*
X7932561Y-8843579D01*
X7932561Y-8843579D02*
X7923037Y-8862626D01*
X7923037Y-8862626D02*
X7913514Y-8872150D01*
X7913514Y-8872150D02*
X7894466Y-8881674D01*
X7894466Y-8881674D02*
X7875418Y-8881674D01*
X7875418Y-8881674D02*
X7856371Y-8872150D01*
X7856371Y-8872150D02*
X7846847Y-8862626D01*
X7846847Y-8862626D02*
X7837323Y-8843579D01*
X7837323Y-8843579D02*
X7827799Y-8805483D01*
X7827799Y-8805483D02*
X7827799Y-8757864D01*
X7827799Y-8757864D02*
X7837323Y-8719769D01*
X7837323Y-8719769D02*
X7846847Y-8700721D01*
X7846847Y-8700721D02*
X7856371Y-8691198D01*
X7856371Y-8691198D02*
X7875418Y-8681674D01*
X8113514Y-8748340D02*
X8113514Y-8881674D01*
X8065895Y-8672150D02*
X8018276Y-8815007D01*
X8018276Y-8815007D02*
X8142085Y-8815007D01*
X8199228Y-8681674D02*
X8332561Y-8681674D01*
X8332561Y-8681674D02*
X8246847Y-8881674D01*
X8399228Y-8700721D02*
X8408752Y-8691198D01*
X8408752Y-8691198D02*
X8427799Y-8681674D01*
X8427799Y-8681674D02*
X8475419Y-8681674D01*
X8475419Y-8681674D02*
X8494466Y-8691198D01*
X8494466Y-8691198D02*
X8503990Y-8700721D01*
X8503990Y-8700721D02*
X8513514Y-8719769D01*
X8513514Y-8719769D02*
X8513514Y-8738817D01*
X8513514Y-8738817D02*
X8503990Y-8767388D01*
X8503990Y-8767388D02*
X8389704Y-8881674D01*
X8389704Y-8881674D02*
X8513514Y-8881674D01*
X8589704Y-8681674D02*
X8589704Y-8719769D01*
X8665895Y-8681674D02*
X8665895Y-8719769D01*
X8961133Y-8957864D02*
X8951609Y-8948340D01*
X8951609Y-8948340D02*
X8932561Y-8919769D01*
X8932561Y-8919769D02*
X8923038Y-8900721D01*
X8923038Y-8900721D02*
X8913514Y-8872150D01*
X8913514Y-8872150D02*
X8903990Y-8824531D01*
X8903990Y-8824531D02*
X8903990Y-8786436D01*
X8903990Y-8786436D02*
X8913514Y-8738817D01*
X8913514Y-8738817D02*
X8923038Y-8710245D01*
X8923038Y-8710245D02*
X8932561Y-8691198D01*
X8932561Y-8691198D02*
X8951609Y-8662626D01*
X8951609Y-8662626D02*
X8961133Y-8653102D01*
X9142085Y-8881674D02*
X9027800Y-8881674D01*
X9084942Y-8881674D02*
X9084942Y-8681674D01*
X9084942Y-8681674D02*
X9065895Y-8710245D01*
X9065895Y-8710245D02*
X9046847Y-8729293D01*
X9046847Y-8729293D02*
X9027800Y-8738817D01*
X9265895Y-8681674D02*
X9284942Y-8681674D01*
X9284942Y-8681674D02*
X9303990Y-8691198D01*
X9303990Y-8691198D02*
X9313514Y-8700721D01*
X9313514Y-8700721D02*
X9323038Y-8719769D01*
X9323038Y-8719769D02*
X9332561Y-8757864D01*
X9332561Y-8757864D02*
X9332561Y-8805483D01*
X9332561Y-8805483D02*
X9323038Y-8843579D01*
X9323038Y-8843579D02*
X9313514Y-8862626D01*
X9313514Y-8862626D02*
X9303990Y-8872150D01*
X9303990Y-8872150D02*
X9284942Y-8881674D01*
X9284942Y-8881674D02*
X9265895Y-8881674D01*
X9265895Y-8881674D02*
X9246847Y-8872150D01*
X9246847Y-8872150D02*
X9237323Y-8862626D01*
X9237323Y-8862626D02*
X9227800Y-8843579D01*
X9227800Y-8843579D02*
X9218276Y-8805483D01*
X9218276Y-8805483D02*
X9218276Y-8757864D01*
X9218276Y-8757864D02*
X9227800Y-8719769D01*
X9227800Y-8719769D02*
X9237323Y-8700721D01*
X9237323Y-8700721D02*
X9246847Y-8691198D01*
X9246847Y-8691198D02*
X9265895Y-8681674D01*
X9570657Y-8881674D02*
X9570657Y-8681674D01*
X9656371Y-8881674D02*
X9656371Y-8776912D01*
X9656371Y-8776912D02*
X9646847Y-8757864D01*
X9646847Y-8757864D02*
X9627800Y-8748340D01*
X9627800Y-8748340D02*
X9599228Y-8748340D01*
X9599228Y-8748340D02*
X9580181Y-8757864D01*
X9580181Y-8757864D02*
X9570657Y-8767388D01*
X9780181Y-8881674D02*
X9761133Y-8872150D01*
X9761133Y-8872150D02*
X9751609Y-8862626D01*
X9751609Y-8862626D02*
X9742085Y-8843579D01*
X9742085Y-8843579D02*
X9742085Y-8786436D01*
X9742085Y-8786436D02*
X9751609Y-8767388D01*
X9751609Y-8767388D02*
X9761133Y-8757864D01*
X9761133Y-8757864D02*
X9780181Y-8748340D01*
X9780181Y-8748340D02*
X9808752Y-8748340D01*
X9808752Y-8748340D02*
X9827800Y-8757864D01*
X9827800Y-8757864D02*
X9837323Y-8767388D01*
X9837323Y-8767388D02*
X9846847Y-8786436D01*
X9846847Y-8786436D02*
X9846847Y-8843579D01*
X9846847Y-8843579D02*
X9837323Y-8862626D01*
X9837323Y-8862626D02*
X9827800Y-8872150D01*
X9827800Y-8872150D02*
X9808752Y-8881674D01*
X9808752Y-8881674D02*
X9780181Y-8881674D01*
X9961133Y-8881674D02*
X9942085Y-8872150D01*
X9942085Y-8872150D02*
X9932562Y-8853102D01*
X9932562Y-8853102D02*
X9932562Y-8681674D01*
X10113514Y-8872150D02*
X10094466Y-8881674D01*
X10094466Y-8881674D02*
X10056371Y-8881674D01*
X10056371Y-8881674D02*
X10037323Y-8872150D01*
X10037323Y-8872150D02*
X10027800Y-8853102D01*
X10027800Y-8853102D02*
X10027800Y-8776912D01*
X10027800Y-8776912D02*
X10037323Y-8757864D01*
X10037323Y-8757864D02*
X10056371Y-8748340D01*
X10056371Y-8748340D02*
X10094466Y-8748340D01*
X10094466Y-8748340D02*
X10113514Y-8757864D01*
X10113514Y-8757864D02*
X10123038Y-8776912D01*
X10123038Y-8776912D02*
X10123038Y-8795960D01*
X10123038Y-8795960D02*
X10027800Y-8815007D01*
X10199228Y-8872150D02*
X10218276Y-8881674D01*
X10218276Y-8881674D02*
X10256371Y-8881674D01*
X10256371Y-8881674D02*
X10275419Y-8872150D01*
X10275419Y-8872150D02*
X10284943Y-8853102D01*
X10284943Y-8853102D02*
X10284943Y-8843579D01*
X10284943Y-8843579D02*
X10275419Y-8824531D01*
X10275419Y-8824531D02*
X10256371Y-8815007D01*
X10256371Y-8815007D02*
X10227800Y-8815007D01*
X10227800Y-8815007D02*
X10208752Y-8805483D01*
X10208752Y-8805483D02*
X10199228Y-8786436D01*
X10199228Y-8786436D02*
X10199228Y-8776912D01*
X10199228Y-8776912D02*
X10208752Y-8757864D01*
X10208752Y-8757864D02*
X10227800Y-8748340D01*
X10227800Y-8748340D02*
X10256371Y-8748340D01*
X10256371Y-8748340D02*
X10275419Y-8757864D01*
X10351609Y-8957864D02*
X10361133Y-8948340D01*
X10361133Y-8948340D02*
X10380181Y-8919769D01*
X10380181Y-8919769D02*
X10389704Y-8900721D01*
X10389704Y-8900721D02*
X10399228Y-8872150D01*
X10399228Y-8872150D02*
X10408752Y-8824531D01*
X10408752Y-8824531D02*
X10408752Y-8786436D01*
X10408752Y-8786436D02*
X10399228Y-8738817D01*
X10399228Y-8738817D02*
X10389704Y-8710245D01*
X10389704Y-8710245D02*
X10380181Y-8691198D01*
X10380181Y-8691198D02*
X10361133Y-8662626D01*
X10361133Y-8662626D02*
X10351609Y-8653102D01*
X10713514Y-8957864D02*
X10703990Y-8948340D01*
X10703990Y-8948340D02*
X10684943Y-8919769D01*
X10684943Y-8919769D02*
X10675419Y-8900721D01*
X10675419Y-8900721D02*
X10665895Y-8872150D01*
X10665895Y-8872150D02*
X10656371Y-8824531D01*
X10656371Y-8824531D02*
X10656371Y-8786436D01*
X10656371Y-8786436D02*
X10665895Y-8738817D01*
X10665895Y-8738817D02*
X10675419Y-8710245D01*
X10675419Y-8710245D02*
X10684943Y-8691198D01*
X10684943Y-8691198D02*
X10703990Y-8662626D01*
X10703990Y-8662626D02*
X10713514Y-8653102D01*
X10789704Y-8748340D02*
X10789704Y-8881674D01*
X10789704Y-8767388D02*
X10799228Y-8757864D01*
X10799228Y-8757864D02*
X10818276Y-8748340D01*
X10818276Y-8748340D02*
X10846847Y-8748340D01*
X10846847Y-8748340D02*
X10865895Y-8757864D01*
X10865895Y-8757864D02*
X10875419Y-8776912D01*
X10875419Y-8776912D02*
X10875419Y-8881674D01*
X10999228Y-8881674D02*
X10980181Y-8872150D01*
X10980181Y-8872150D02*
X10970657Y-8862626D01*
X10970657Y-8862626D02*
X10961133Y-8843579D01*
X10961133Y-8843579D02*
X10961133Y-8786436D01*
X10961133Y-8786436D02*
X10970657Y-8767388D01*
X10970657Y-8767388D02*
X10980181Y-8757864D01*
X10980181Y-8757864D02*
X10999228Y-8748340D01*
X10999228Y-8748340D02*
X11027800Y-8748340D01*
X11027800Y-8748340D02*
X11046847Y-8757864D01*
X11046847Y-8757864D02*
X11056371Y-8767388D01*
X11056371Y-8767388D02*
X11065895Y-8786436D01*
X11065895Y-8786436D02*
X11065895Y-8843579D01*
X11065895Y-8843579D02*
X11056371Y-8862626D01*
X11056371Y-8862626D02*
X11046847Y-8872150D01*
X11046847Y-8872150D02*
X11027800Y-8881674D01*
X11027800Y-8881674D02*
X10999228Y-8881674D01*
X11123038Y-8748340D02*
X11199228Y-8748340D01*
X11151609Y-8681674D02*
X11151609Y-8853102D01*
X11151609Y-8853102D02*
X11161133Y-8872150D01*
X11161133Y-8872150D02*
X11180181Y-8881674D01*
X11180181Y-8881674D02*
X11199228Y-8881674D01*
X11418276Y-8748340D02*
X11418276Y-8948340D01*
X11418276Y-8757864D02*
X11437323Y-8748340D01*
X11437323Y-8748340D02*
X11475419Y-8748340D01*
X11475419Y-8748340D02*
X11494466Y-8757864D01*
X11494466Y-8757864D02*
X11503990Y-8767388D01*
X11503990Y-8767388D02*
X11513514Y-8786436D01*
X11513514Y-8786436D02*
X11513514Y-8843579D01*
X11513514Y-8843579D02*
X11503990Y-8862626D01*
X11503990Y-8862626D02*
X11494466Y-8872150D01*
X11494466Y-8872150D02*
X11475419Y-8881674D01*
X11475419Y-8881674D02*
X11437323Y-8881674D01*
X11437323Y-8881674D02*
X11418276Y-8872150D01*
X11627800Y-8881674D02*
X11608752Y-8872150D01*
X11608752Y-8872150D02*
X11599228Y-8853102D01*
X11599228Y-8853102D02*
X11599228Y-8681674D01*
X11789704Y-8881674D02*
X11789704Y-8776912D01*
X11789704Y-8776912D02*
X11780181Y-8757864D01*
X11780181Y-8757864D02*
X11761133Y-8748340D01*
X11761133Y-8748340D02*
X11723038Y-8748340D01*
X11723038Y-8748340D02*
X11703990Y-8757864D01*
X11789704Y-8872150D02*
X11770657Y-8881674D01*
X11770657Y-8881674D02*
X11723038Y-8881674D01*
X11723038Y-8881674D02*
X11703990Y-8872150D01*
X11703990Y-8872150D02*
X11694466Y-8853102D01*
X11694466Y-8853102D02*
X11694466Y-8834055D01*
X11694466Y-8834055D02*
X11703990Y-8815007D01*
X11703990Y-8815007D02*
X11723038Y-8805483D01*
X11723038Y-8805483D02*
X11770657Y-8805483D01*
X11770657Y-8805483D02*
X11789704Y-8795960D01*
X11856371Y-8748340D02*
X11932562Y-8748340D01*
X11884943Y-8681674D02*
X11884943Y-8853102D01*
X11884943Y-8853102D02*
X11894466Y-8872150D01*
X11894466Y-8872150D02*
X11913514Y-8881674D01*
X11913514Y-8881674D02*
X11932562Y-8881674D01*
X12075419Y-8872150D02*
X12056371Y-8881674D01*
X12056371Y-8881674D02*
X12018276Y-8881674D01*
X12018276Y-8881674D02*
X11999228Y-8872150D01*
X11999228Y-8872150D02*
X11989704Y-8853102D01*
X11989704Y-8853102D02*
X11989704Y-8776912D01*
X11989704Y-8776912D02*
X11999228Y-8757864D01*
X11999228Y-8757864D02*
X12018276Y-8748340D01*
X12018276Y-8748340D02*
X12056371Y-8748340D01*
X12056371Y-8748340D02*
X12075419Y-8757864D01*
X12075419Y-8757864D02*
X12084943Y-8776912D01*
X12084943Y-8776912D02*
X12084943Y-8795960D01*
X12084943Y-8795960D02*
X11989704Y-8815007D01*
X12256371Y-8881674D02*
X12256371Y-8681674D01*
X12256371Y-8872150D02*
X12237324Y-8881674D01*
X12237324Y-8881674D02*
X12199228Y-8881674D01*
X12199228Y-8881674D02*
X12180181Y-8872150D01*
X12180181Y-8872150D02*
X12170657Y-8862626D01*
X12170657Y-8862626D02*
X12161133Y-8843579D01*
X12161133Y-8843579D02*
X12161133Y-8786436D01*
X12161133Y-8786436D02*
X12170657Y-8767388D01*
X12170657Y-8767388D02*
X12180181Y-8757864D01*
X12180181Y-8757864D02*
X12199228Y-8748340D01*
X12199228Y-8748340D02*
X12237324Y-8748340D01*
X12237324Y-8748340D02*
X12256371Y-8757864D01*
X12332562Y-8957864D02*
X12342085Y-8948340D01*
X12342085Y-8948340D02*
X12361133Y-8919769D01*
X12361133Y-8919769D02*
X12370657Y-8900721D01*
X12370657Y-8900721D02*
X12380181Y-8872150D01*
X12380181Y-8872150D02*
X12389704Y-8824531D01*
X12389704Y-8824531D02*
X12389704Y-8786436D01*
X12389704Y-8786436D02*
X12380181Y-8738817D01*
X12380181Y-8738817D02*
X12370657Y-8710245D01*
X12370657Y-8710245D02*
X12361133Y-8691198D01*
X12361133Y-8691198D02*
X12342085Y-8662626D01*
X12342085Y-8662626D02*
X12332562Y-8653102D01*
M02*
