M48
; DRILL file {KiCad 9.0.2-9.0.2-0~ubuntu22.04.1} date 2025-07-06T23:19:03+0100
; FORMAT={-:-/ absolute / metric / decimal}
; #@! TF.CreationDate,2025-07-06T23:19:03+01:00
; #@! TF.GenerationSoftware,Kicad,Pcbnew,9.0.2-9.0.2-0~ubuntu22.04.1
; #@! TF.FileFunction,Plated,1,2,PTH
FMAT,2
METRIC
; #@! TA.AperFunction,Plated,PTH,ComponentDrill
T1C0.400
; #@! TA.AperFunction,Plated,PTH,ViaDrill
T2C0.750
; #@! TA.AperFunction,Plated,PTH,ComponentDrill
T3C1.000
; #@! TA.AperFunction,Plated,PTH,ComponentDrill
T4C1.150
; #@! TA.AperFunction,Plated,PTH,ComponentDrill
T5C3.250
%
G90
G05
T2
X127.0Y-61.659
X127.0Y-64.106
X127.0Y-68.02
X127.0Y-70.819
T3
X81.534Y-54.61
X81.534Y-77.47
X84.074Y-54.61
X84.074Y-77.47
X86.614Y-54.61
X86.614Y-77.47
X89.154Y-54.61
X89.154Y-77.47
X91.694Y-54.61
X91.694Y-77.47
X94.234Y-54.61
X94.234Y-77.47
X96.774Y-54.61
X96.774Y-77.47
X99.314Y-54.61
X99.314Y-77.47
X101.854Y-54.61
X101.854Y-77.47
X104.394Y-54.61
X104.394Y-77.47
X106.934Y-54.61
X106.934Y-77.47
X109.474Y-54.61
X109.474Y-77.47
X112.014Y-54.61
X112.014Y-77.47
X114.554Y-54.61
X114.554Y-77.47
X117.094Y-54.61
X117.094Y-77.47
X119.634Y-54.61
X119.634Y-77.47
X122.174Y-54.61
X122.174Y-77.47
X124.714Y-54.61
X124.714Y-77.47
X127.254Y-54.61
X127.254Y-77.47
X129.794Y-54.61
X129.794Y-77.47
T4
X62.84Y-61.659
X62.84Y-63.949
X62.84Y-66.239
X62.84Y-68.529
X62.84Y-70.819
X65.38Y-60.514
X65.38Y-62.804
X65.38Y-65.094
X65.38Y-67.384
X65.38Y-69.674
X67.92Y-61.659
X67.92Y-63.949
X67.92Y-66.239
X67.92Y-68.529
X67.92Y-70.819
T5
X65.38Y-53.494
X65.38Y-78.484
T1
X139.873Y-54.106G85X138.873Y-54.106
G05
X138.873Y-64.106G85X139.873Y-64.106
G05
X139.873Y-68.02G85X138.873Y-68.02
G05
X138.873Y-78.02G85X139.873Y-78.02
G05
X144.373Y-59.606G85X144.373Y-58.606
G05
X144.373Y-73.52G85X144.373Y-72.52
G05
M30
