G04 #@! TF.GenerationSoftware,KiCad,Pcbnew,8.0.9-8.0.9-0~ubuntu20.04.1*
G04 #@! TF.CreationDate,2025-04-23T19:07:45+01:00*
G04 #@! TF.ProjectId,ggroohauga-bridge,6767726f-6f68-4617-9567-612d62726964,rev?*
G04 #@! TF.SameCoordinates,Original*
G04 #@! TF.FileFunction,Soldermask,Bot*
G04 #@! TF.FilePolarity,Negative*
%FSLAX46Y46*%
G04 Gerber Fmt 4.6, Leading zero omitted, Abs format (unit mm)*
G04 Created by KiCad (PCBNEW 8.0.9-8.0.9-0~ubuntu20.04.1) date 2025-04-23 19:07:45*
%MOMM*%
%LPD*%
G01*
G04 APERTURE LIST*
G04 Aperture macros list*
%AMRoundRect*
0 Rectangle with rounded corners*
0 $1 Rounding radius*
0 $2 $3 $4 $5 $6 $7 $8 $9 X,Y pos of 4 corners*
0 Add a 4 corners polygon primitive as box body*
4,1,4,$2,$3,$4,$5,$6,$7,$8,$9,$2,$3,0*
0 Add four circle primitives for the rounded corners*
1,1,$1+$1,$2,$3*
1,1,$1+$1,$4,$5*
1,1,$1+$1,$6,$7*
1,1,$1+$1,$8,$9*
0 Add four rect primitives between the rounded corners*
20,1,$1+$1,$2,$3,$4,$5,0*
20,1,$1+$1,$4,$5,$6,$7,0*
20,1,$1+$1,$6,$7,$8,$9,0*
20,1,$1+$1,$8,$9,$2,$3,0*%
G04 Aperture macros list end*
%ADD10R,1.700000X1.700000*%
%ADD11O,1.700000X1.700000*%
%ADD12C,4.470000*%
%ADD13RoundRect,0.102000X-0.862500X0.862500X-0.862500X-0.862500X0.862500X-0.862500X0.862500X0.862500X0*%
%ADD14C,1.929000*%
G04 APERTURE END LIST*
D10*
X81534000Y-54610000D03*
D11*
X84074000Y-54610000D03*
X86614000Y-54610000D03*
X89154000Y-54610000D03*
X91694000Y-54610000D03*
X94234000Y-54610000D03*
X96774000Y-54610000D03*
X99314000Y-54610000D03*
X101854000Y-54610000D03*
X104394000Y-54610000D03*
X106934000Y-54610000D03*
X109474000Y-54610000D03*
X112014000Y-54610000D03*
X114554000Y-54610000D03*
X117094000Y-54610000D03*
X119634000Y-54610000D03*
X122174000Y-54610000D03*
X124714000Y-54610000D03*
X127254000Y-54610000D03*
X129794000Y-54610000D03*
D10*
X81534000Y-77470000D03*
D11*
X84074000Y-77470000D03*
X86614000Y-77470000D03*
X89154000Y-77470000D03*
X91694000Y-77470000D03*
X94234000Y-77470000D03*
X96774000Y-77470000D03*
X99314000Y-77470000D03*
X101854000Y-77470000D03*
X104394000Y-77470000D03*
X106934000Y-77470000D03*
X109474000Y-77470000D03*
X112014000Y-77470000D03*
X114554000Y-77470000D03*
X117094000Y-77470000D03*
X119634000Y-77470000D03*
X122174000Y-77470000D03*
X124714000Y-77470000D03*
X127254000Y-77470000D03*
X129794000Y-77470000D03*
D12*
X65379600Y-53494200D03*
X65379600Y-78484200D03*
D13*
X67919600Y-70319200D03*
D14*
X67919600Y-68029200D03*
X67919600Y-65739200D03*
X67919600Y-63449200D03*
X67919600Y-61159200D03*
X65379600Y-71464200D03*
X65379600Y-69174200D03*
X65379600Y-66884200D03*
X65379600Y-64594200D03*
X65379600Y-62304200D03*
X62839600Y-70319200D03*
X62839600Y-68029200D03*
X62839600Y-65739200D03*
X62839600Y-63449200D03*
X62839600Y-61159200D03*
D12*
X143967200Y-53494200D03*
X143967200Y-78484200D03*
D13*
X141427200Y-61659200D03*
D14*
X141427200Y-63949200D03*
X141427200Y-66239200D03*
X141427200Y-68529200D03*
X141427200Y-70819200D03*
X143967200Y-60514200D03*
X143967200Y-62804200D03*
X143967200Y-65094200D03*
X143967200Y-67384200D03*
X143967200Y-69674200D03*
X146507200Y-61659200D03*
X146507200Y-63949200D03*
X146507200Y-66239200D03*
X146507200Y-68529200D03*
X146507200Y-70819200D03*
M02*
