G04 #@! TF.GenerationSoftware,KiCad,Pcbnew,9.0.2-9.0.2-0~ubuntu22.04.1*
G04 #@! TF.CreationDate,2025-07-06T23:18:15+01:00*
G04 #@! TF.ProjectId,ggroohauga-amplifier,6767726f-6f68-4617-9567-612d616d706c,rev?*
G04 #@! TF.SameCoordinates,Original*
G04 #@! TF.FileFunction,Legend,Top*
G04 #@! TF.FilePolarity,Positive*
%FSLAX46Y46*%
G04 Gerber Fmt 4.6, Leading zero omitted, Abs format (unit mm)*
G04 Created by KiCad (PCBNEW 9.0.2-9.0.2-0~ubuntu22.04.1) date 2025-07-06 23:18:15*
%MOMM*%
%LPD*%
G01*
G04 APERTURE LIST*
G04 Aperture macros list*
%AMRoundRect*
0 Rectangle with rounded corners*
0 $1 Rounding radius*
0 $2 $3 $4 $5 $6 $7 $8 $9 X,Y pos of 4 corners*
0 Add a 4 corners polygon primitive as box body*
4,1,4,$2,$3,$4,$5,$6,$7,$8,$9,$2,$3,0*
0 Add four circle primitives for the rounded corners*
1,1,$1+$1,$2,$3*
1,1,$1+$1,$4,$5*
1,1,$1+$1,$6,$7*
1,1,$1+$1,$8,$9*
0 Add four rect primitives between the rounded corners*
20,1,$1+$1,$2,$3,$4,$5,0*
20,1,$1+$1,$4,$5,$6,$7,0*
20,1,$1+$1,$6,$7,$8,$9,0*
20,1,$1+$1,$8,$9,$2,$3,0*%
G04 Aperture macros list end*
%ADD10C,0.150000*%
%ADD11C,0.120000*%
%ADD12C,0.127000*%
%ADD13C,0.200000*%
%ADD14RoundRect,0.250000X0.450000X-0.350000X0.450000X0.350000X-0.450000X0.350000X-0.450000X-0.350000X0*%
%ADD15R,1.700000X1.700000*%
%ADD16C,1.700000*%
%ADD17C,1.200000*%
%ADD18O,2.200000X1.200000*%
%ADD19O,1.200000X2.200000*%
%ADD20RoundRect,0.250000X0.337500X0.475000X-0.337500X0.475000X-0.337500X-0.475000X0.337500X-0.475000X0*%
%ADD21RoundRect,0.250000X0.350000X0.450000X-0.350000X0.450000X-0.350000X-0.450000X0.350000X-0.450000X0*%
%ADD22RoundRect,0.250000X-0.337500X-0.475000X0.337500X-0.475000X0.337500X0.475000X-0.337500X0.475000X0*%
%ADD23RoundRect,0.150000X-0.875000X-0.150000X0.875000X-0.150000X0.875000X0.150000X-0.875000X0.150000X0*%
%ADD24C,4.470000*%
%ADD25RoundRect,0.102000X-0.862500X0.862500X-0.862500X-0.862500X0.862500X-0.862500X0.862500X0.862500X0*%
%ADD26C,1.929000*%
G04 APERTURE END LIST*
D10*
X77640104Y-62777332D02*
X77640104Y-62301142D01*
X77925819Y-62872570D02*
X76925819Y-62539237D01*
X76925819Y-62539237D02*
X77925819Y-62205904D01*
X77544866Y-61872570D02*
X77544866Y-61110666D01*
X77925819Y-60063047D02*
X77449628Y-60396380D01*
X77925819Y-60634475D02*
X76925819Y-60634475D01*
X76925819Y-60634475D02*
X76925819Y-60253523D01*
X76925819Y-60253523D02*
X76973438Y-60158285D01*
X76973438Y-60158285D02*
X77021057Y-60110666D01*
X77021057Y-60110666D02*
X77116295Y-60063047D01*
X77116295Y-60063047D02*
X77259152Y-60063047D01*
X77259152Y-60063047D02*
X77354390Y-60110666D01*
X77354390Y-60110666D02*
X77402009Y-60158285D01*
X77402009Y-60158285D02*
X77449628Y-60253523D01*
X77449628Y-60253523D02*
X77449628Y-60634475D01*
X77021057Y-59682094D02*
X76973438Y-59634475D01*
X76973438Y-59634475D02*
X76925819Y-59539237D01*
X76925819Y-59539237D02*
X76925819Y-59301142D01*
X76925819Y-59301142D02*
X76973438Y-59205904D01*
X76973438Y-59205904D02*
X77021057Y-59158285D01*
X77021057Y-59158285D02*
X77116295Y-59110666D01*
X77116295Y-59110666D02*
X77211533Y-59110666D01*
X77211533Y-59110666D02*
X77354390Y-59158285D01*
X77354390Y-59158285D02*
X77925819Y-59729713D01*
X77925819Y-59729713D02*
X77925819Y-59110666D01*
X79171200Y-56348094D02*
X79218819Y-56205237D01*
X79218819Y-56205237D02*
X79218819Y-55967142D01*
X79218819Y-55967142D02*
X79171200Y-55871904D01*
X79171200Y-55871904D02*
X79123580Y-55824285D01*
X79123580Y-55824285D02*
X79028342Y-55776666D01*
X79028342Y-55776666D02*
X78933104Y-55776666D01*
X78933104Y-55776666D02*
X78837866Y-55824285D01*
X78837866Y-55824285D02*
X78790247Y-55871904D01*
X78790247Y-55871904D02*
X78742628Y-55967142D01*
X78742628Y-55967142D02*
X78695009Y-56157618D01*
X78695009Y-56157618D02*
X78647390Y-56252856D01*
X78647390Y-56252856D02*
X78599771Y-56300475D01*
X78599771Y-56300475D02*
X78504533Y-56348094D01*
X78504533Y-56348094D02*
X78409295Y-56348094D01*
X78409295Y-56348094D02*
X78314057Y-56300475D01*
X78314057Y-56300475D02*
X78266438Y-56252856D01*
X78266438Y-56252856D02*
X78218819Y-56157618D01*
X78218819Y-56157618D02*
X78218819Y-55919523D01*
X78218819Y-55919523D02*
X78266438Y-55776666D01*
X78218819Y-55443332D02*
X78218819Y-54824285D01*
X78218819Y-54824285D02*
X78599771Y-55157618D01*
X78599771Y-55157618D02*
X78599771Y-55014761D01*
X78599771Y-55014761D02*
X78647390Y-54919523D01*
X78647390Y-54919523D02*
X78695009Y-54871904D01*
X78695009Y-54871904D02*
X78790247Y-54824285D01*
X78790247Y-54824285D02*
X79028342Y-54824285D01*
X79028342Y-54824285D02*
X79123580Y-54871904D01*
X79123580Y-54871904D02*
X79171200Y-54919523D01*
X79171200Y-54919523D02*
X79218819Y-55014761D01*
X79218819Y-55014761D02*
X79218819Y-55300475D01*
X79218819Y-55300475D02*
X79171200Y-55395713D01*
X79171200Y-55395713D02*
X79123580Y-55443332D01*
X79218819Y-53824285D02*
X78742628Y-54157618D01*
X79218819Y-54395713D02*
X78218819Y-54395713D01*
X78218819Y-54395713D02*
X78218819Y-54014761D01*
X78218819Y-54014761D02*
X78266438Y-53919523D01*
X78266438Y-53919523D02*
X78314057Y-53871904D01*
X78314057Y-53871904D02*
X78409295Y-53824285D01*
X78409295Y-53824285D02*
X78552152Y-53824285D01*
X78552152Y-53824285D02*
X78647390Y-53871904D01*
X78647390Y-53871904D02*
X78695009Y-53919523D01*
X78695009Y-53919523D02*
X78742628Y-54014761D01*
X78742628Y-54014761D02*
X78742628Y-54395713D01*
X79218819Y-52871904D02*
X79218819Y-53443332D01*
X79218819Y-53157618D02*
X78218819Y-53157618D01*
X78218819Y-53157618D02*
X78361676Y-53252856D01*
X78361676Y-53252856D02*
X78456914Y-53348094D01*
X78456914Y-53348094D02*
X78504533Y-53443332D01*
X135980600Y-60867704D02*
X136028219Y-60724847D01*
X136028219Y-60724847D02*
X136028219Y-60486752D01*
X136028219Y-60486752D02*
X135980600Y-60391514D01*
X135980600Y-60391514D02*
X135932980Y-60343895D01*
X135932980Y-60343895D02*
X135837742Y-60296276D01*
X135837742Y-60296276D02*
X135742504Y-60296276D01*
X135742504Y-60296276D02*
X135647266Y-60343895D01*
X135647266Y-60343895D02*
X135599647Y-60391514D01*
X135599647Y-60391514D02*
X135552028Y-60486752D01*
X135552028Y-60486752D02*
X135504409Y-60677228D01*
X135504409Y-60677228D02*
X135456790Y-60772466D01*
X135456790Y-60772466D02*
X135409171Y-60820085D01*
X135409171Y-60820085D02*
X135313933Y-60867704D01*
X135313933Y-60867704D02*
X135218695Y-60867704D01*
X135218695Y-60867704D02*
X135123457Y-60820085D01*
X135123457Y-60820085D02*
X135075838Y-60772466D01*
X135075838Y-60772466D02*
X135028219Y-60677228D01*
X135028219Y-60677228D02*
X135028219Y-60439133D01*
X135028219Y-60439133D02*
X135075838Y-60296276D01*
X135647266Y-59867704D02*
X135647266Y-59105800D01*
X135028219Y-58343895D02*
X135742504Y-58343895D01*
X135742504Y-58343895D02*
X135885361Y-58391514D01*
X135885361Y-58391514D02*
X135980600Y-58486752D01*
X135980600Y-58486752D02*
X136028219Y-58629609D01*
X136028219Y-58629609D02*
X136028219Y-58724847D01*
X135123457Y-57915323D02*
X135075838Y-57867704D01*
X135075838Y-57867704D02*
X135028219Y-57772466D01*
X135028219Y-57772466D02*
X135028219Y-57534371D01*
X135028219Y-57534371D02*
X135075838Y-57439133D01*
X135075838Y-57439133D02*
X135123457Y-57391514D01*
X135123457Y-57391514D02*
X135218695Y-57343895D01*
X135218695Y-57343895D02*
X135313933Y-57343895D01*
X135313933Y-57343895D02*
X135456790Y-57391514D01*
X135456790Y-57391514D02*
X136028219Y-57962942D01*
X136028219Y-57962942D02*
X136028219Y-57343895D01*
X146135304Y-51650980D02*
X146135304Y-52650980D01*
X146135304Y-52174790D02*
X145563876Y-52174790D01*
X145563876Y-51650980D02*
X145563876Y-52650980D01*
X144706733Y-51698600D02*
X144801971Y-51650980D01*
X144801971Y-51650980D02*
X144992447Y-51650980D01*
X144992447Y-51650980D02*
X145087685Y-51698600D01*
X145087685Y-51698600D02*
X145135304Y-51793838D01*
X145135304Y-51793838D02*
X145135304Y-52174790D01*
X145135304Y-52174790D02*
X145087685Y-52270028D01*
X145087685Y-52270028D02*
X144992447Y-52317647D01*
X144992447Y-52317647D02*
X144801971Y-52317647D01*
X144801971Y-52317647D02*
X144706733Y-52270028D01*
X144706733Y-52270028D02*
X144659114Y-52174790D01*
X144659114Y-52174790D02*
X144659114Y-52079552D01*
X144659114Y-52079552D02*
X145135304Y-51984314D01*
X143801971Y-51650980D02*
X143801971Y-52174790D01*
X143801971Y-52174790D02*
X143849590Y-52270028D01*
X143849590Y-52270028D02*
X143944828Y-52317647D01*
X143944828Y-52317647D02*
X144135304Y-52317647D01*
X144135304Y-52317647D02*
X144230542Y-52270028D01*
X143801971Y-51698600D02*
X143897209Y-51650980D01*
X143897209Y-51650980D02*
X144135304Y-51650980D01*
X144135304Y-51650980D02*
X144230542Y-51698600D01*
X144230542Y-51698600D02*
X144278161Y-51793838D01*
X144278161Y-51793838D02*
X144278161Y-51889076D01*
X144278161Y-51889076D02*
X144230542Y-51984314D01*
X144230542Y-51984314D02*
X144135304Y-52031933D01*
X144135304Y-52031933D02*
X143897209Y-52031933D01*
X143897209Y-52031933D02*
X143801971Y-52079552D01*
X142897209Y-51650980D02*
X142897209Y-52650980D01*
X142897209Y-51698600D02*
X142992447Y-51650980D01*
X142992447Y-51650980D02*
X143182923Y-51650980D01*
X143182923Y-51650980D02*
X143278161Y-51698600D01*
X143278161Y-51698600D02*
X143325780Y-51746219D01*
X143325780Y-51746219D02*
X143373399Y-51841457D01*
X143373399Y-51841457D02*
X143373399Y-52127171D01*
X143373399Y-52127171D02*
X143325780Y-52222409D01*
X143325780Y-52222409D02*
X143278161Y-52270028D01*
X143278161Y-52270028D02*
X143182923Y-52317647D01*
X143182923Y-52317647D02*
X142992447Y-52317647D01*
X142992447Y-52317647D02*
X142897209Y-52270028D01*
X142421018Y-52317647D02*
X142421018Y-51317647D01*
X142421018Y-52270028D02*
X142325780Y-52317647D01*
X142325780Y-52317647D02*
X142135304Y-52317647D01*
X142135304Y-52317647D02*
X142040066Y-52270028D01*
X142040066Y-52270028D02*
X141992447Y-52222409D01*
X141992447Y-52222409D02*
X141944828Y-52127171D01*
X141944828Y-52127171D02*
X141944828Y-51841457D01*
X141944828Y-51841457D02*
X141992447Y-51746219D01*
X141992447Y-51746219D02*
X142040066Y-51698600D01*
X142040066Y-51698600D02*
X142135304Y-51650980D01*
X142135304Y-51650980D02*
X142325780Y-51650980D01*
X142325780Y-51650980D02*
X142421018Y-51698600D01*
X141516256Y-51650980D02*
X141516256Y-52650980D01*
X141087685Y-51650980D02*
X141087685Y-52174790D01*
X141087685Y-52174790D02*
X141135304Y-52270028D01*
X141135304Y-52270028D02*
X141230542Y-52317647D01*
X141230542Y-52317647D02*
X141373399Y-52317647D01*
X141373399Y-52317647D02*
X141468637Y-52270028D01*
X141468637Y-52270028D02*
X141516256Y-52222409D01*
X140468637Y-51650980D02*
X140563875Y-51698600D01*
X140563875Y-51698600D02*
X140611494Y-51746219D01*
X140611494Y-51746219D02*
X140659113Y-51841457D01*
X140659113Y-51841457D02*
X140659113Y-52127171D01*
X140659113Y-52127171D02*
X140611494Y-52222409D01*
X140611494Y-52222409D02*
X140563875Y-52270028D01*
X140563875Y-52270028D02*
X140468637Y-52317647D01*
X140468637Y-52317647D02*
X140325780Y-52317647D01*
X140325780Y-52317647D02*
X140230542Y-52270028D01*
X140230542Y-52270028D02*
X140182923Y-52222409D01*
X140182923Y-52222409D02*
X140135304Y-52127171D01*
X140135304Y-52127171D02*
X140135304Y-51841457D01*
X140135304Y-51841457D02*
X140182923Y-51746219D01*
X140182923Y-51746219D02*
X140230542Y-51698600D01*
X140230542Y-51698600D02*
X140325780Y-51650980D01*
X140325780Y-51650980D02*
X140468637Y-51650980D01*
X139706732Y-52317647D02*
X139706732Y-51650980D01*
X139706732Y-52222409D02*
X139659113Y-52270028D01*
X139659113Y-52270028D02*
X139563875Y-52317647D01*
X139563875Y-52317647D02*
X139421018Y-52317647D01*
X139421018Y-52317647D02*
X139325780Y-52270028D01*
X139325780Y-52270028D02*
X139278161Y-52174790D01*
X139278161Y-52174790D02*
X139278161Y-51650980D01*
X138421018Y-51698600D02*
X138516256Y-51650980D01*
X138516256Y-51650980D02*
X138706732Y-51650980D01*
X138706732Y-51650980D02*
X138801970Y-51698600D01*
X138801970Y-51698600D02*
X138849589Y-51793838D01*
X138849589Y-51793838D02*
X138849589Y-52174790D01*
X138849589Y-52174790D02*
X138801970Y-52270028D01*
X138801970Y-52270028D02*
X138706732Y-52317647D01*
X138706732Y-52317647D02*
X138516256Y-52317647D01*
X138516256Y-52317647D02*
X138421018Y-52270028D01*
X138421018Y-52270028D02*
X138373399Y-52174790D01*
X138373399Y-52174790D02*
X138373399Y-52079552D01*
X138373399Y-52079552D02*
X138849589Y-51984314D01*
X137992446Y-51698600D02*
X137897208Y-51650980D01*
X137897208Y-51650980D02*
X137706732Y-51650980D01*
X137706732Y-51650980D02*
X137611494Y-51698600D01*
X137611494Y-51698600D02*
X137563875Y-51793838D01*
X137563875Y-51793838D02*
X137563875Y-51841457D01*
X137563875Y-51841457D02*
X137611494Y-51936695D01*
X137611494Y-51936695D02*
X137706732Y-51984314D01*
X137706732Y-51984314D02*
X137849589Y-51984314D01*
X137849589Y-51984314D02*
X137944827Y-52031933D01*
X137944827Y-52031933D02*
X137992446Y-52127171D01*
X137992446Y-52127171D02*
X137992446Y-52174790D01*
X137992446Y-52174790D02*
X137944827Y-52270028D01*
X137944827Y-52270028D02*
X137849589Y-52317647D01*
X137849589Y-52317647D02*
X137706732Y-52317647D01*
X137706732Y-52317647D02*
X137611494Y-52270028D01*
X86558667Y-57925104D02*
X87034857Y-57925104D01*
X86463429Y-58210819D02*
X86796762Y-57210819D01*
X86796762Y-57210819D02*
X87130095Y-58210819D01*
X87463429Y-57829866D02*
X88225334Y-57829866D01*
X89272952Y-58115580D02*
X89225333Y-58163200D01*
X89225333Y-58163200D02*
X89082476Y-58210819D01*
X89082476Y-58210819D02*
X88987238Y-58210819D01*
X88987238Y-58210819D02*
X88844381Y-58163200D01*
X88844381Y-58163200D02*
X88749143Y-58067961D01*
X88749143Y-58067961D02*
X88701524Y-57972723D01*
X88701524Y-57972723D02*
X88653905Y-57782247D01*
X88653905Y-57782247D02*
X88653905Y-57639390D01*
X88653905Y-57639390D02*
X88701524Y-57448914D01*
X88701524Y-57448914D02*
X88749143Y-57353676D01*
X88749143Y-57353676D02*
X88844381Y-57258438D01*
X88844381Y-57258438D02*
X88987238Y-57210819D01*
X88987238Y-57210819D02*
X89082476Y-57210819D01*
X89082476Y-57210819D02*
X89225333Y-57258438D01*
X89225333Y-57258438D02*
X89272952Y-57306057D01*
X90225333Y-58210819D02*
X89653905Y-58210819D01*
X89939619Y-58210819D02*
X89939619Y-57210819D01*
X89939619Y-57210819D02*
X89844381Y-57353676D01*
X89844381Y-57353676D02*
X89749143Y-57448914D01*
X89749143Y-57448914D02*
X89653905Y-57496533D01*
X79171200Y-79112856D02*
X79218819Y-78969999D01*
X79218819Y-78969999D02*
X79218819Y-78731904D01*
X79218819Y-78731904D02*
X79171200Y-78636666D01*
X79171200Y-78636666D02*
X79123580Y-78589047D01*
X79123580Y-78589047D02*
X79028342Y-78541428D01*
X79028342Y-78541428D02*
X78933104Y-78541428D01*
X78933104Y-78541428D02*
X78837866Y-78589047D01*
X78837866Y-78589047D02*
X78790247Y-78636666D01*
X78790247Y-78636666D02*
X78742628Y-78731904D01*
X78742628Y-78731904D02*
X78695009Y-78922380D01*
X78695009Y-78922380D02*
X78647390Y-79017618D01*
X78647390Y-79017618D02*
X78599771Y-79065237D01*
X78599771Y-79065237D02*
X78504533Y-79112856D01*
X78504533Y-79112856D02*
X78409295Y-79112856D01*
X78409295Y-79112856D02*
X78314057Y-79065237D01*
X78314057Y-79065237D02*
X78266438Y-79017618D01*
X78266438Y-79017618D02*
X78218819Y-78922380D01*
X78218819Y-78922380D02*
X78218819Y-78684285D01*
X78218819Y-78684285D02*
X78266438Y-78541428D01*
X78218819Y-78208094D02*
X78218819Y-77589047D01*
X78218819Y-77589047D02*
X78599771Y-77922380D01*
X78599771Y-77922380D02*
X78599771Y-77779523D01*
X78599771Y-77779523D02*
X78647390Y-77684285D01*
X78647390Y-77684285D02*
X78695009Y-77636666D01*
X78695009Y-77636666D02*
X78790247Y-77589047D01*
X78790247Y-77589047D02*
X79028342Y-77589047D01*
X79028342Y-77589047D02*
X79123580Y-77636666D01*
X79123580Y-77636666D02*
X79171200Y-77684285D01*
X79171200Y-77684285D02*
X79218819Y-77779523D01*
X79218819Y-77779523D02*
X79218819Y-78065237D01*
X79218819Y-78065237D02*
X79171200Y-78160475D01*
X79171200Y-78160475D02*
X79123580Y-78208094D01*
X79218819Y-76684285D02*
X79218819Y-77160475D01*
X79218819Y-77160475D02*
X78218819Y-77160475D01*
X79218819Y-75827142D02*
X79218819Y-76398570D01*
X79218819Y-76112856D02*
X78218819Y-76112856D01*
X78218819Y-76112856D02*
X78361676Y-76208094D01*
X78361676Y-76208094D02*
X78456914Y-76303332D01*
X78456914Y-76303332D02*
X78504533Y-76398570D01*
X72018267Y-77384104D02*
X72494457Y-77384104D01*
X71923029Y-77669819D02*
X72256362Y-76669819D01*
X72256362Y-76669819D02*
X72589695Y-77669819D01*
X72923029Y-77288866D02*
X73684934Y-77288866D01*
X74732552Y-77669819D02*
X74399219Y-77193628D01*
X74161124Y-77669819D02*
X74161124Y-76669819D01*
X74161124Y-76669819D02*
X74542076Y-76669819D01*
X74542076Y-76669819D02*
X74637314Y-76717438D01*
X74637314Y-76717438D02*
X74684933Y-76765057D01*
X74684933Y-76765057D02*
X74732552Y-76860295D01*
X74732552Y-76860295D02*
X74732552Y-77003152D01*
X74732552Y-77003152D02*
X74684933Y-77098390D01*
X74684933Y-77098390D02*
X74637314Y-77146009D01*
X74637314Y-77146009D02*
X74542076Y-77193628D01*
X74542076Y-77193628D02*
X74161124Y-77193628D01*
X75684933Y-77669819D02*
X75113505Y-77669819D01*
X75399219Y-77669819D02*
X75399219Y-76669819D01*
X75399219Y-76669819D02*
X75303981Y-76812676D01*
X75303981Y-76812676D02*
X75208743Y-76907914D01*
X75208743Y-76907914D02*
X75113505Y-76955533D01*
X97734667Y-57925104D02*
X98210857Y-57925104D01*
X97639429Y-58210819D02*
X97972762Y-57210819D01*
X97972762Y-57210819D02*
X98306095Y-58210819D01*
X98639429Y-57829866D02*
X99401334Y-57829866D01*
X100448952Y-58115580D02*
X100401333Y-58163200D01*
X100401333Y-58163200D02*
X100258476Y-58210819D01*
X100258476Y-58210819D02*
X100163238Y-58210819D01*
X100163238Y-58210819D02*
X100020381Y-58163200D01*
X100020381Y-58163200D02*
X99925143Y-58067961D01*
X99925143Y-58067961D02*
X99877524Y-57972723D01*
X99877524Y-57972723D02*
X99829905Y-57782247D01*
X99829905Y-57782247D02*
X99829905Y-57639390D01*
X99829905Y-57639390D02*
X99877524Y-57448914D01*
X99877524Y-57448914D02*
X99925143Y-57353676D01*
X99925143Y-57353676D02*
X100020381Y-57258438D01*
X100020381Y-57258438D02*
X100163238Y-57210819D01*
X100163238Y-57210819D02*
X100258476Y-57210819D01*
X100258476Y-57210819D02*
X100401333Y-57258438D01*
X100401333Y-57258438D02*
X100448952Y-57306057D01*
X100829905Y-57306057D02*
X100877524Y-57258438D01*
X100877524Y-57258438D02*
X100972762Y-57210819D01*
X100972762Y-57210819D02*
X101210857Y-57210819D01*
X101210857Y-57210819D02*
X101306095Y-57258438D01*
X101306095Y-57258438D02*
X101353714Y-57306057D01*
X101353714Y-57306057D02*
X101401333Y-57401295D01*
X101401333Y-57401295D02*
X101401333Y-57496533D01*
X101401333Y-57496533D02*
X101353714Y-57639390D01*
X101353714Y-57639390D02*
X100782286Y-58210819D01*
X100782286Y-58210819D02*
X101401333Y-58210819D01*
X80815104Y-68365332D02*
X80815104Y-67889142D01*
X81100819Y-68460570D02*
X80100819Y-68127237D01*
X80100819Y-68127237D02*
X81100819Y-67793904D01*
X80719866Y-67460570D02*
X80719866Y-66698666D01*
X81100819Y-65651047D02*
X80624628Y-65984380D01*
X81100819Y-66222475D02*
X80100819Y-66222475D01*
X80100819Y-66222475D02*
X80100819Y-65841523D01*
X80100819Y-65841523D02*
X80148438Y-65746285D01*
X80148438Y-65746285D02*
X80196057Y-65698666D01*
X80196057Y-65698666D02*
X80291295Y-65651047D01*
X80291295Y-65651047D02*
X80434152Y-65651047D01*
X80434152Y-65651047D02*
X80529390Y-65698666D01*
X80529390Y-65698666D02*
X80577009Y-65746285D01*
X80577009Y-65746285D02*
X80624628Y-65841523D01*
X80624628Y-65841523D02*
X80624628Y-66222475D01*
X80100819Y-65317713D02*
X80100819Y-64698666D01*
X80100819Y-64698666D02*
X80481771Y-65031999D01*
X80481771Y-65031999D02*
X80481771Y-64889142D01*
X80481771Y-64889142D02*
X80529390Y-64793904D01*
X80529390Y-64793904D02*
X80577009Y-64746285D01*
X80577009Y-64746285D02*
X80672247Y-64698666D01*
X80672247Y-64698666D02*
X80910342Y-64698666D01*
X80910342Y-64698666D02*
X81005580Y-64746285D01*
X81005580Y-64746285D02*
X81053200Y-64793904D01*
X81053200Y-64793904D02*
X81100819Y-64889142D01*
X81100819Y-64889142D02*
X81100819Y-65174856D01*
X81100819Y-65174856D02*
X81053200Y-65270094D01*
X81053200Y-65270094D02*
X81005580Y-65317713D01*
X92122857Y-59982104D02*
X92599047Y-59982104D01*
X92027619Y-60267819D02*
X92360952Y-59267819D01*
X92360952Y-59267819D02*
X92694285Y-60267819D01*
X93027619Y-59886866D02*
X93789524Y-59886866D01*
X94265714Y-59267819D02*
X94265714Y-60077342D01*
X94265714Y-60077342D02*
X94313333Y-60172580D01*
X94313333Y-60172580D02*
X94360952Y-60220200D01*
X94360952Y-60220200D02*
X94456190Y-60267819D01*
X94456190Y-60267819D02*
X94646666Y-60267819D01*
X94646666Y-60267819D02*
X94741904Y-60220200D01*
X94741904Y-60220200D02*
X94789523Y-60172580D01*
X94789523Y-60172580D02*
X94837142Y-60077342D01*
X94837142Y-60077342D02*
X94837142Y-59267819D01*
X95837142Y-60267819D02*
X95265714Y-60267819D01*
X95551428Y-60267819D02*
X95551428Y-59267819D01*
X95551428Y-59267819D02*
X95456190Y-59410676D01*
X95456190Y-59410676D02*
X95360952Y-59505914D01*
X95360952Y-59505914D02*
X95265714Y-59553533D01*
X72933704Y-55878485D02*
X72933704Y-55402295D01*
X73219419Y-55973723D02*
X72219419Y-55640390D01*
X72219419Y-55640390D02*
X73219419Y-55307057D01*
X72838466Y-54973723D02*
X72838466Y-54211819D01*
X72219419Y-53449914D02*
X72933704Y-53449914D01*
X72933704Y-53449914D02*
X73076561Y-53497533D01*
X73076561Y-53497533D02*
X73171800Y-53592771D01*
X73171800Y-53592771D02*
X73219419Y-53735628D01*
X73219419Y-53735628D02*
X73219419Y-53830866D01*
X73219419Y-52449914D02*
X73219419Y-53021342D01*
X73219419Y-52735628D02*
X72219419Y-52735628D01*
X72219419Y-52735628D02*
X72362276Y-52830866D01*
X72362276Y-52830866D02*
X72457514Y-52926104D01*
X72457514Y-52926104D02*
X72505133Y-53021342D01*
X135980600Y-74781824D02*
X136028219Y-74638967D01*
X136028219Y-74638967D02*
X136028219Y-74400872D01*
X136028219Y-74400872D02*
X135980600Y-74305634D01*
X135980600Y-74305634D02*
X135932980Y-74258015D01*
X135932980Y-74258015D02*
X135837742Y-74210396D01*
X135837742Y-74210396D02*
X135742504Y-74210396D01*
X135742504Y-74210396D02*
X135647266Y-74258015D01*
X135647266Y-74258015D02*
X135599647Y-74305634D01*
X135599647Y-74305634D02*
X135552028Y-74400872D01*
X135552028Y-74400872D02*
X135504409Y-74591348D01*
X135504409Y-74591348D02*
X135456790Y-74686586D01*
X135456790Y-74686586D02*
X135409171Y-74734205D01*
X135409171Y-74734205D02*
X135313933Y-74781824D01*
X135313933Y-74781824D02*
X135218695Y-74781824D01*
X135218695Y-74781824D02*
X135123457Y-74734205D01*
X135123457Y-74734205D02*
X135075838Y-74686586D01*
X135075838Y-74686586D02*
X135028219Y-74591348D01*
X135028219Y-74591348D02*
X135028219Y-74353253D01*
X135028219Y-74353253D02*
X135075838Y-74210396D01*
X135647266Y-73781824D02*
X135647266Y-73019920D01*
X135028219Y-72258015D02*
X135742504Y-72258015D01*
X135742504Y-72258015D02*
X135885361Y-72305634D01*
X135885361Y-72305634D02*
X135980600Y-72400872D01*
X135980600Y-72400872D02*
X136028219Y-72543729D01*
X136028219Y-72543729D02*
X136028219Y-72638967D01*
X136028219Y-71258015D02*
X136028219Y-71829443D01*
X136028219Y-71543729D02*
X135028219Y-71543729D01*
X135028219Y-71543729D02*
X135171076Y-71638967D01*
X135171076Y-71638967D02*
X135266314Y-71734205D01*
X135266314Y-71734205D02*
X135313933Y-71829443D01*
X138516257Y-80189024D02*
X138992447Y-80189024D01*
X138421019Y-80474739D02*
X138754352Y-79474739D01*
X138754352Y-79474739D02*
X139087685Y-80474739D01*
X139849590Y-79808072D02*
X139849590Y-80474739D01*
X139421019Y-79808072D02*
X139421019Y-80331881D01*
X139421019Y-80331881D02*
X139468638Y-80427120D01*
X139468638Y-80427120D02*
X139563876Y-80474739D01*
X139563876Y-80474739D02*
X139706733Y-80474739D01*
X139706733Y-80474739D02*
X139801971Y-80427120D01*
X139801971Y-80427120D02*
X139849590Y-80379500D01*
X140230543Y-80474739D02*
X140754352Y-79808072D01*
X140230543Y-79808072D02*
X140754352Y-80474739D01*
X141897210Y-80474739D02*
X141897210Y-79474739D01*
X142373400Y-79808072D02*
X142373400Y-80474739D01*
X142373400Y-79903310D02*
X142421019Y-79855691D01*
X142421019Y-79855691D02*
X142516257Y-79808072D01*
X142516257Y-79808072D02*
X142659114Y-79808072D01*
X142659114Y-79808072D02*
X142754352Y-79855691D01*
X142754352Y-79855691D02*
X142801971Y-79950929D01*
X142801971Y-79950929D02*
X142801971Y-80474739D01*
X143278162Y-79808072D02*
X143278162Y-80808072D01*
X143278162Y-79855691D02*
X143373400Y-79808072D01*
X143373400Y-79808072D02*
X143563876Y-79808072D01*
X143563876Y-79808072D02*
X143659114Y-79855691D01*
X143659114Y-79855691D02*
X143706733Y-79903310D01*
X143706733Y-79903310D02*
X143754352Y-79998548D01*
X143754352Y-79998548D02*
X143754352Y-80284262D01*
X143754352Y-80284262D02*
X143706733Y-80379500D01*
X143706733Y-80379500D02*
X143659114Y-80427120D01*
X143659114Y-80427120D02*
X143563876Y-80474739D01*
X143563876Y-80474739D02*
X143373400Y-80474739D01*
X143373400Y-80474739D02*
X143278162Y-80427120D01*
X144611495Y-79808072D02*
X144611495Y-80474739D01*
X144182924Y-79808072D02*
X144182924Y-80331881D01*
X144182924Y-80331881D02*
X144230543Y-80427120D01*
X144230543Y-80427120D02*
X144325781Y-80474739D01*
X144325781Y-80474739D02*
X144468638Y-80474739D01*
X144468638Y-80474739D02*
X144563876Y-80427120D01*
X144563876Y-80427120D02*
X144611495Y-80379500D01*
X144944829Y-79808072D02*
X145325781Y-79808072D01*
X145087686Y-79474739D02*
X145087686Y-80331881D01*
X145087686Y-80331881D02*
X145135305Y-80427120D01*
X145135305Y-80427120D02*
X145230543Y-80474739D01*
X145230543Y-80474739D02*
X145325781Y-80474739D01*
D11*
X78386000Y-61171064D02*
X78386000Y-60716936D01*
X79856000Y-61171064D02*
X79856000Y-60716936D01*
X80204000Y-53280000D02*
X81534000Y-53280000D01*
X80204000Y-54610000D02*
X80204000Y-53280000D01*
X82804000Y-53280000D02*
X131124000Y-53280000D01*
X82804000Y-55940000D02*
X82804000Y-53280000D01*
X82804000Y-55940000D02*
X131124000Y-55940000D01*
X131124000Y-55940000D02*
X131124000Y-53280000D01*
X136673400Y-53105800D02*
X147673400Y-53105800D01*
X136673400Y-65105800D02*
X136673400Y-53105800D01*
X147673400Y-65105800D02*
X136673400Y-65105800D01*
X88653252Y-58701000D02*
X88130748Y-58701000D01*
X88653252Y-60171000D02*
X88130748Y-60171000D01*
X80204000Y-76140000D02*
X81534000Y-76140000D01*
X80204000Y-77470000D02*
X80204000Y-76140000D01*
X82804000Y-76140000D02*
X131124000Y-76140000D01*
X82804000Y-78800000D02*
X82804000Y-76140000D01*
X82804000Y-78800000D02*
X131124000Y-78800000D01*
X131124000Y-78800000D02*
X131124000Y-76140000D01*
X74078664Y-74830000D02*
X73624536Y-74830000D01*
X74078664Y-76300000D02*
X73624536Y-76300000D01*
X99306748Y-58701000D02*
X99829252Y-58701000D01*
X99306748Y-60171000D02*
X99829252Y-60171000D01*
X81561000Y-66759064D02*
X81561000Y-66304936D01*
X83031000Y-66759064D02*
X83031000Y-66304936D01*
X90120000Y-60653000D02*
X90120000Y-60908000D01*
X90120000Y-71173000D02*
X90120000Y-70918000D01*
X93980000Y-60653000D02*
X90120000Y-60653000D01*
X93980000Y-60653000D02*
X97840000Y-60653000D01*
X93980000Y-71173000D02*
X90120000Y-71173000D01*
X93980000Y-71173000D02*
X97840000Y-71173000D01*
X97840000Y-60653000D02*
X97840000Y-60908000D01*
X97840000Y-71173000D02*
X97840000Y-70918000D01*
X89267500Y-60908000D02*
X88927500Y-60438000D01*
X89607500Y-60438000D01*
X89267500Y-60908000D01*
G36*
X89267500Y-60908000D02*
G01*
X88927500Y-60438000D01*
X89607500Y-60438000D01*
X89267500Y-60908000D01*
G37*
D12*
X53949600Y-50584200D02*
X70049600Y-50584200D01*
X70049600Y-50584200D02*
X70049600Y-81394200D01*
X70049600Y-81394200D02*
X53949600Y-81394200D01*
D13*
X70729600Y-70349200D02*
G75*
G02*
X70529600Y-70349200I-100000J0D01*
G01*
X70529600Y-70349200D02*
G75*
G02*
X70729600Y-70349200I100000J0D01*
G01*
D11*
X136673400Y-67019920D02*
X147673400Y-67019920D01*
X136673400Y-79019920D02*
X136673400Y-67019920D01*
X147673400Y-79019920D02*
X136673400Y-79019920D01*
%LPC*%
D14*
X79121000Y-61944000D03*
X79121000Y-59944000D03*
D15*
X81534000Y-54610000D03*
D16*
X84074000Y-54610000D03*
X86614000Y-54610000D03*
X89154000Y-54610000D03*
X91694000Y-54610000D03*
X94234000Y-54610000D03*
X96774000Y-54610000D03*
X99314000Y-54610000D03*
X101854000Y-54610000D03*
X104394000Y-54610000D03*
X106934000Y-54610000D03*
X109474000Y-54610000D03*
X112014000Y-54610000D03*
X114554000Y-54610000D03*
X117094000Y-54610000D03*
X119634000Y-54610000D03*
X122174000Y-54610000D03*
X124714000Y-54610000D03*
X127254000Y-54610000D03*
X129794000Y-54610000D03*
D17*
X144373400Y-64105800D03*
X146873400Y-64105800D03*
X139373400Y-59105800D03*
X144373400Y-54105800D03*
X146873400Y-54105800D03*
D18*
X139373400Y-64105800D03*
D19*
X144373400Y-59105800D03*
D18*
X139373400Y-54105800D03*
D20*
X89429500Y-59436000D03*
X87354500Y-59436000D03*
D15*
X81534000Y-77470000D03*
D16*
X84074000Y-77470000D03*
X86614000Y-77470000D03*
X89154000Y-77470000D03*
X91694000Y-77470000D03*
X94234000Y-77470000D03*
X96774000Y-77470000D03*
X99314000Y-77470000D03*
X101854000Y-77470000D03*
X104394000Y-77470000D03*
X106934000Y-77470000D03*
X109474000Y-77470000D03*
X112014000Y-77470000D03*
X114554000Y-77470000D03*
X117094000Y-77470000D03*
X119634000Y-77470000D03*
X122174000Y-77470000D03*
X124714000Y-77470000D03*
X127254000Y-77470000D03*
X129794000Y-77470000D03*
D21*
X74851600Y-75565000D03*
X72851600Y-75565000D03*
D22*
X98530500Y-59436000D03*
X100605500Y-59436000D03*
D14*
X82296000Y-67532000D03*
X82296000Y-65532000D03*
D23*
X89330000Y-61468000D03*
X89330000Y-62738000D03*
X89330000Y-64008000D03*
X89330000Y-65278000D03*
X89330000Y-66548000D03*
X89330000Y-67818000D03*
X89330000Y-69088000D03*
X89330000Y-70358000D03*
X98630000Y-70358000D03*
X98630000Y-69088000D03*
X98630000Y-67818000D03*
X98630000Y-66548000D03*
X98630000Y-65278000D03*
X98630000Y-64008000D03*
X98630000Y-62738000D03*
X98630000Y-61468000D03*
D24*
X65379600Y-53494200D03*
X65379600Y-78484200D03*
D25*
X67919600Y-70319200D03*
D26*
X67919600Y-68029200D03*
X67919600Y-65739200D03*
X67919600Y-63449200D03*
X67919600Y-61159200D03*
X65379600Y-71464200D03*
X65379600Y-69174200D03*
X65379600Y-66884200D03*
X65379600Y-64594200D03*
X65379600Y-62304200D03*
X62839600Y-70319200D03*
X62839600Y-68029200D03*
X62839600Y-65739200D03*
X62839600Y-63449200D03*
X62839600Y-61159200D03*
D17*
X144373400Y-78019920D03*
X146873400Y-78019920D03*
X139373400Y-73019920D03*
X144373400Y-68019920D03*
X146873400Y-68019920D03*
D18*
X139373400Y-78019920D03*
D19*
X144373400Y-73019920D03*
D18*
X139373400Y-68019920D03*
%LPD*%
M02*
