G04 #@! TF.GenerationSoftware,KiCad,Pcbnew,8.0.9-8.0.9-0~ubuntu20.04.1*
G04 #@! TF.CreationDate,2025-03-28T22:04:46+00:00*
G04 #@! TF.ProjectId,ggroohauga-bridge,6767726f-6f68-4617-9567-612d62726964,rev?*
G04 #@! TF.SameCoordinates,Original*
G04 #@! TF.FileFunction,Copper,L1,Top*
G04 #@! TF.FilePolarity,Positive*
%FSLAX46Y46*%
G04 Gerber Fmt 4.6, Leading zero omitted, Abs format (unit mm)*
G04 Created by KiCad (PCBNEW 8.0.9-8.0.9-0~ubuntu20.04.1) date 2025-03-28 22:04:46*
%MOMM*%
%LPD*%
G01*
G04 APERTURE LIST*
G04 Aperture macros list*
%AMRoundRect*
0 Rectangle with rounded corners*
0 $1 Rounding radius*
0 $2 $3 $4 $5 $6 $7 $8 $9 X,Y pos of 4 corners*
0 Add a 4 corners polygon primitive as box body*
4,1,4,$2,$3,$4,$5,$6,$7,$8,$9,$2,$3,0*
0 Add four circle primitives for the rounded corners*
1,1,$1+$1,$2,$3*
1,1,$1+$1,$4,$5*
1,1,$1+$1,$6,$7*
1,1,$1+$1,$8,$9*
0 Add four rect primitives between the rounded corners*
20,1,$1+$1,$2,$3,$4,$5,0*
20,1,$1+$1,$4,$5,$6,$7,0*
20,1,$1+$1,$6,$7,$8,$9,0*
20,1,$1+$1,$8,$9,$2,$3,0*%
G04 Aperture macros list end*
G04 #@! TA.AperFunction,ComponentPad*
%ADD10R,1.700000X1.700000*%
G04 #@! TD*
G04 #@! TA.AperFunction,ComponentPad*
%ADD11O,1.700000X1.700000*%
G04 #@! TD*
G04 #@! TA.AperFunction,SMDPad,CuDef*
%ADD12RoundRect,0.150000X-0.150000X0.587500X-0.150000X-0.587500X0.150000X-0.587500X0.150000X0.587500X0*%
G04 #@! TD*
G04 #@! TA.AperFunction,SMDPad,CuDef*
%ADD13RoundRect,0.250000X0.350000X0.450000X-0.350000X0.450000X-0.350000X-0.450000X0.350000X-0.450000X0*%
G04 #@! TD*
G04 #@! TA.AperFunction,ComponentPad*
%ADD14R,1.725000X1.725000*%
G04 #@! TD*
G04 #@! TA.AperFunction,ComponentPad*
%ADD15C,1.725000*%
G04 #@! TD*
G04 #@! TA.AperFunction,ComponentPad*
%ADD16C,4.266000*%
G04 #@! TD*
G04 #@! TA.AperFunction,ViaPad*
%ADD17C,0.600000*%
G04 #@! TD*
G04 #@! TA.AperFunction,Conductor*
%ADD18C,0.200000*%
G04 #@! TD*
G04 APERTURE END LIST*
D10*
X81534000Y-54610000D03*
D11*
X84074000Y-54610000D03*
X86614000Y-54610000D03*
X89154000Y-54610000D03*
X91694000Y-54610000D03*
X94234000Y-54610000D03*
X96774000Y-54610000D03*
X99314000Y-54610000D03*
X101854000Y-54610000D03*
X104394000Y-54610000D03*
X106934000Y-54610000D03*
X109474000Y-54610000D03*
X112014000Y-54610000D03*
X114554000Y-54610000D03*
X117094000Y-54610000D03*
X119634000Y-54610000D03*
X122174000Y-54610000D03*
X124714000Y-54610000D03*
X127254000Y-54610000D03*
X129794000Y-54610000D03*
D12*
X125918000Y-60452000D03*
X124018000Y-60452000D03*
X124968000Y-62327000D03*
D10*
X81534000Y-77470000D03*
D11*
X84074000Y-77470000D03*
X86614000Y-77470000D03*
X89154000Y-77470000D03*
X91694000Y-77470000D03*
X94234000Y-77470000D03*
X96774000Y-77470000D03*
X99314000Y-77470000D03*
X101854000Y-77470000D03*
X104394000Y-77470000D03*
X106934000Y-77470000D03*
X109474000Y-77470000D03*
X112014000Y-77470000D03*
X114554000Y-77470000D03*
X117094000Y-77470000D03*
X119634000Y-77470000D03*
X122174000Y-77470000D03*
X124714000Y-77470000D03*
X127254000Y-77470000D03*
X129794000Y-77470000D03*
D13*
X82280000Y-64770000D03*
X80280000Y-64770000D03*
D14*
X67919600Y-70319200D03*
D15*
X67919600Y-68029200D03*
X67919600Y-65739200D03*
X67919600Y-63449200D03*
X67919600Y-61159200D03*
X65379600Y-71464200D03*
X65379600Y-69174200D03*
X65379600Y-66884200D03*
X65379600Y-64594200D03*
X65379600Y-62304200D03*
X62839600Y-70319200D03*
X62839600Y-68029200D03*
X62839600Y-65739200D03*
X62839600Y-63449200D03*
X62839600Y-61159200D03*
D16*
X65379600Y-53494200D03*
X65379600Y-78484200D03*
D14*
X141427200Y-61659200D03*
D15*
X141427200Y-63949200D03*
X141427200Y-66239200D03*
X141427200Y-68529200D03*
X141427200Y-70819200D03*
X143967200Y-60514200D03*
X143967200Y-62804200D03*
X143967200Y-65094200D03*
X143967200Y-67384200D03*
X143967200Y-69674200D03*
X146507200Y-61659200D03*
X146507200Y-63949200D03*
X146507200Y-66239200D03*
X146507200Y-68529200D03*
X146507200Y-70819200D03*
D16*
X143967200Y-53494200D03*
X143967200Y-78484200D03*
D17*
X114300000Y-72136000D03*
X82804000Y-72136000D03*
X123952000Y-57912000D03*
D18*
X119380000Y-58420000D02*
X67310000Y-58420000D01*
X66757100Y-58972900D02*
X66757100Y-65506700D01*
X119634000Y-58166000D02*
X119380000Y-58420000D01*
X66757100Y-65506700D02*
X65379600Y-66884200D01*
X119634000Y-54610000D02*
X119634000Y-58166000D01*
X67310000Y-58420000D02*
X66757100Y-58972900D01*
X111760000Y-57150000D02*
X63500000Y-57150000D01*
X112014000Y-54610000D02*
X111760000Y-54610000D01*
X112014000Y-54610000D02*
X112014000Y-56896000D01*
X63500000Y-57150000D02*
X62839600Y-57810400D01*
X62839600Y-57810400D02*
X62839600Y-61159200D01*
X112014000Y-56896000D02*
X111760000Y-57150000D01*
X80280000Y-64770000D02*
X77470000Y-64770000D01*
X62839600Y-72999600D02*
X62839600Y-70319200D01*
X77470000Y-64770000D02*
X68580000Y-73660000D01*
X63500000Y-73660000D02*
X62839600Y-72999600D01*
X68580000Y-73660000D02*
X63500000Y-73660000D01*
X62848250Y-68035000D02*
X62848250Y-67961750D01*
X65388250Y-71470000D02*
X65120000Y-71470000D01*
X65120000Y-71470000D02*
X64770000Y-71120000D01*
X109220000Y-64770000D02*
X82280000Y-64770000D01*
X109474000Y-77470000D02*
X109474000Y-65024000D01*
X109474000Y-65024000D02*
X109220000Y-64770000D01*
X94996000Y-80264000D02*
X134620000Y-80264000D01*
X134620000Y-80264000D02*
X139700000Y-75184000D01*
X149225000Y-67005200D02*
X148459000Y-66239200D01*
X149225000Y-72771000D02*
X149225000Y-67005200D01*
X148459000Y-66239200D02*
X146507200Y-66239200D01*
X146812000Y-75184000D02*
X149225000Y-72771000D01*
X94234000Y-77470000D02*
X94234000Y-79502000D01*
X94234000Y-79502000D02*
X94996000Y-80264000D01*
X139700000Y-75184000D02*
X146812000Y-75184000D01*
X145567400Y-74168000D02*
X138176000Y-74168000D01*
X138176000Y-74168000D02*
X132588000Y-79756000D01*
X104648000Y-79756000D02*
X104394000Y-79502000D01*
X104394000Y-79502000D02*
X104394000Y-77470000D01*
X132588000Y-79756000D02*
X104648000Y-79756000D01*
X146507200Y-73228200D02*
X146507200Y-70819200D01*
X145567400Y-74168000D02*
X146507200Y-73228200D01*
X124968000Y-72136000D02*
X124968000Y-62327000D01*
X82804000Y-76200000D02*
X84074000Y-77470000D01*
X81534000Y-77470000D02*
X82804000Y-76200000D01*
X82804000Y-72136000D02*
X82804000Y-76200000D01*
X114300000Y-72136000D02*
X124968000Y-72136000D01*
X124018000Y-57978000D02*
X123952000Y-57912000D01*
X124018000Y-60452000D02*
X124018000Y-57978000D01*
X124018000Y-60452000D02*
X123952000Y-60452000D01*
X143865600Y-66954400D02*
X143764000Y-67056000D01*
X143865600Y-66882400D02*
X143865600Y-66954400D01*
X144995759Y-58928000D02*
X146507200Y-60439441D01*
X132080000Y-60452000D02*
X133604000Y-58928000D01*
X125918000Y-60452000D02*
X132080000Y-60452000D01*
X146507200Y-60439441D02*
X146507200Y-61659200D01*
X133604000Y-58928000D02*
X144995759Y-58928000D01*
G04 #@! TA.AperFunction,Conductor*
G36*
X64045335Y-51015385D02*
G01*
X64091090Y-51068189D01*
X64101034Y-51137347D01*
X64072009Y-51200903D01*
X64042445Y-51225817D01*
X63881157Y-51323317D01*
X63881153Y-51323320D01*
X63702354Y-51463399D01*
X63702354Y-51463400D01*
X64421003Y-52182049D01*
X64320983Y-52254719D01*
X64140119Y-52435583D01*
X64067449Y-52535603D01*
X63348800Y-51816954D01*
X63348799Y-51816954D01*
X63208720Y-51995753D01*
X63208717Y-51995757D01*
X63043936Y-52268341D01*
X63043931Y-52268351D01*
X62913199Y-52558826D01*
X62913195Y-52558837D01*
X62818436Y-52862930D01*
X62761019Y-53176251D01*
X62741787Y-53494200D01*
X62761019Y-53812148D01*
X62818436Y-54125469D01*
X62913195Y-54429562D01*
X62913199Y-54429573D01*
X63043931Y-54720048D01*
X63043936Y-54720058D01*
X63208716Y-54992640D01*
X63208726Y-54992655D01*
X63348799Y-55171444D01*
X63348800Y-55171444D01*
X64067449Y-54452795D01*
X64140119Y-54552817D01*
X64320983Y-54733681D01*
X64421003Y-54806349D01*
X63702354Y-55524998D01*
X63702354Y-55524999D01*
X63881153Y-55665079D01*
X63881160Y-55665084D01*
X64153741Y-55829863D01*
X64153751Y-55829868D01*
X64444226Y-55960600D01*
X64444237Y-55960604D01*
X64748330Y-56055363D01*
X65061651Y-56112780D01*
X65379600Y-56132012D01*
X65697548Y-56112780D01*
X66010869Y-56055363D01*
X66314962Y-55960604D01*
X66314973Y-55960600D01*
X66605448Y-55829868D01*
X66605458Y-55829863D01*
X66878039Y-55665084D01*
X66878046Y-55665079D01*
X67056844Y-55524999D01*
X67056844Y-55524998D01*
X66338196Y-54806350D01*
X66438217Y-54733681D01*
X66619081Y-54552817D01*
X66691750Y-54452796D01*
X67410398Y-55171444D01*
X67410399Y-55171444D01*
X67550479Y-54992646D01*
X67550484Y-54992639D01*
X67715263Y-54720058D01*
X67715268Y-54720048D01*
X67846000Y-54429573D01*
X67846004Y-54429562D01*
X67940763Y-54125469D01*
X67998180Y-53812148D01*
X68017412Y-53494200D01*
X67998180Y-53176251D01*
X67940763Y-52862930D01*
X67846004Y-52558837D01*
X67846000Y-52558826D01*
X67715268Y-52268351D01*
X67715263Y-52268341D01*
X67550484Y-51995760D01*
X67550479Y-51995753D01*
X67410398Y-51816954D01*
X66691749Y-52535602D01*
X66619081Y-52435583D01*
X66438217Y-52254719D01*
X66338195Y-52182049D01*
X67056844Y-51463400D01*
X67056844Y-51463399D01*
X66878055Y-51323326D01*
X66878040Y-51323316D01*
X66716755Y-51225817D01*
X66669567Y-51174290D01*
X66657728Y-51105430D01*
X66684996Y-51041102D01*
X66742715Y-51001727D01*
X66780904Y-50995700D01*
X142565896Y-50995700D01*
X142632935Y-51015385D01*
X142678690Y-51068189D01*
X142688634Y-51137347D01*
X142659609Y-51200903D01*
X142630045Y-51225817D01*
X142468757Y-51323317D01*
X142468753Y-51323320D01*
X142289954Y-51463399D01*
X142289954Y-51463400D01*
X143008603Y-52182049D01*
X142908583Y-52254719D01*
X142727719Y-52435583D01*
X142655049Y-52535603D01*
X141936400Y-51816954D01*
X141936399Y-51816954D01*
X141796320Y-51995753D01*
X141796317Y-51995757D01*
X141631536Y-52268341D01*
X141631531Y-52268351D01*
X141500799Y-52558826D01*
X141500795Y-52558837D01*
X141406036Y-52862930D01*
X141348619Y-53176251D01*
X141329387Y-53494200D01*
X141348619Y-53812148D01*
X141406036Y-54125469D01*
X141500795Y-54429562D01*
X141500799Y-54429573D01*
X141631531Y-54720048D01*
X141631536Y-54720058D01*
X141796316Y-54992640D01*
X141796326Y-54992655D01*
X141936400Y-55171444D01*
X142655048Y-54452795D01*
X142727719Y-54552817D01*
X142908583Y-54733681D01*
X143008603Y-54806349D01*
X142289954Y-55524998D01*
X142289954Y-55524999D01*
X142468753Y-55665079D01*
X142468760Y-55665084D01*
X142741341Y-55829863D01*
X142741351Y-55829868D01*
X143031826Y-55960600D01*
X143031837Y-55960604D01*
X143335930Y-56055363D01*
X143649251Y-56112780D01*
X143967200Y-56132012D01*
X144285148Y-56112780D01*
X144598469Y-56055363D01*
X144902562Y-55960604D01*
X144902573Y-55960600D01*
X145193048Y-55829868D01*
X145193058Y-55829863D01*
X145465639Y-55665084D01*
X145465646Y-55665079D01*
X145644444Y-55524999D01*
X145644444Y-55524998D01*
X144925796Y-54806350D01*
X145025817Y-54733681D01*
X145206681Y-54552817D01*
X145279350Y-54452796D01*
X145997998Y-55171444D01*
X145997999Y-55171444D01*
X146138079Y-54992646D01*
X146138084Y-54992639D01*
X146302863Y-54720058D01*
X146302868Y-54720048D01*
X146433600Y-54429573D01*
X146433604Y-54429562D01*
X146528363Y-54125469D01*
X146585780Y-53812148D01*
X146605012Y-53494200D01*
X146585780Y-53176251D01*
X146528363Y-52862930D01*
X146433604Y-52558837D01*
X146433600Y-52558826D01*
X146302868Y-52268351D01*
X146302863Y-52268341D01*
X146138084Y-51995760D01*
X146138079Y-51995753D01*
X145997998Y-51816954D01*
X145279349Y-52535602D01*
X145206681Y-52435583D01*
X145025817Y-52254719D01*
X144925795Y-52182049D01*
X145644444Y-51463400D01*
X145644444Y-51463399D01*
X145465655Y-51323326D01*
X145465640Y-51323316D01*
X145304355Y-51225817D01*
X145257167Y-51174290D01*
X145245328Y-51105430D01*
X145272596Y-51041102D01*
X145330315Y-51001727D01*
X145368504Y-50995700D01*
X154848900Y-50995700D01*
X154915939Y-51015385D01*
X154961694Y-51068189D01*
X154972900Y-51119700D01*
X154972900Y-80858700D01*
X154953215Y-80925739D01*
X154900411Y-80971494D01*
X154848900Y-80982700D01*
X145368504Y-80982700D01*
X145301465Y-80963015D01*
X145255710Y-80910211D01*
X145245766Y-80841053D01*
X145274791Y-80777497D01*
X145304355Y-80752583D01*
X145465639Y-80655084D01*
X145465646Y-80655079D01*
X145644444Y-80514999D01*
X145644444Y-80514998D01*
X144925796Y-79796350D01*
X145025817Y-79723681D01*
X145206681Y-79542817D01*
X145279350Y-79442796D01*
X145997998Y-80161444D01*
X145997999Y-80161444D01*
X146138079Y-79982646D01*
X146138084Y-79982639D01*
X146302863Y-79710058D01*
X146302868Y-79710048D01*
X146433600Y-79419573D01*
X146433604Y-79419562D01*
X146528363Y-79115469D01*
X146585780Y-78802148D01*
X146605012Y-78484200D01*
X146585780Y-78166251D01*
X146528363Y-77852930D01*
X146433604Y-77548837D01*
X146433600Y-77548826D01*
X146302868Y-77258351D01*
X146302863Y-77258341D01*
X146138084Y-76985760D01*
X146138079Y-76985753D01*
X145997998Y-76806954D01*
X145279349Y-77525602D01*
X145206681Y-77425583D01*
X145025817Y-77244719D01*
X144925795Y-77172049D01*
X145644444Y-76453400D01*
X145644444Y-76453399D01*
X145465655Y-76313326D01*
X145465640Y-76313316D01*
X145193058Y-76148536D01*
X145193048Y-76148531D01*
X144910965Y-76021576D01*
X144857910Y-75976111D01*
X144837858Y-75909181D01*
X144857174Y-75842035D01*
X144909726Y-75795990D01*
X144961856Y-75784500D01*
X146725331Y-75784500D01*
X146725347Y-75784501D01*
X146732943Y-75784501D01*
X146891054Y-75784501D01*
X146891057Y-75784501D01*
X147043785Y-75743577D01*
X147093904Y-75714639D01*
X147180716Y-75664520D01*
X147292520Y-75552716D01*
X147292520Y-75552714D01*
X147302728Y-75542507D01*
X147302730Y-75542504D01*
X149583506Y-73261728D01*
X149583511Y-73261724D01*
X149593714Y-73251520D01*
X149593716Y-73251520D01*
X149705520Y-73139716D01*
X149784577Y-73002784D01*
X149814534Y-72890981D01*
X149825500Y-72850058D01*
X149825500Y-72691943D01*
X149825500Y-67094260D01*
X149825501Y-67094247D01*
X149825501Y-66926144D01*
X149825501Y-66926143D01*
X149784577Y-66773416D01*
X149718571Y-66659089D01*
X149705524Y-66636490D01*
X149705518Y-66636482D01*
X148946590Y-65877555D01*
X148946588Y-65877552D01*
X148827717Y-65758681D01*
X148827709Y-65758675D01*
X148706431Y-65688656D01*
X148706428Y-65688655D01*
X148690785Y-65679623D01*
X148538057Y-65638699D01*
X148379943Y-65638699D01*
X148372347Y-65638699D01*
X148372331Y-65638700D01*
X147810090Y-65638700D01*
X147743051Y-65619015D01*
X147706281Y-65582521D01*
X147586484Y-65399157D01*
X147433501Y-65232975D01*
X147433498Y-65232972D01*
X147433495Y-65232970D01*
X147380925Y-65192052D01*
X147340113Y-65135343D01*
X147336438Y-65065570D01*
X147371070Y-65004887D01*
X147380925Y-64996347D01*
X147433498Y-64955428D01*
X147586485Y-64789241D01*
X147710031Y-64600139D01*
X147800767Y-64393282D01*
X147856218Y-64174311D01*
X147864508Y-64074261D01*
X147874871Y-63949205D01*
X147874871Y-63949194D01*
X147862435Y-63799126D01*
X147856218Y-63724089D01*
X147800767Y-63505118D01*
X147710031Y-63298261D01*
X147609405Y-63144241D01*
X147586484Y-63109157D01*
X147433501Y-62942975D01*
X147433498Y-62942972D01*
X147380925Y-62902052D01*
X147340113Y-62845343D01*
X147336438Y-62775570D01*
X147371070Y-62714887D01*
X147380920Y-62706350D01*
X147433498Y-62665428D01*
X147586485Y-62499241D01*
X147710031Y-62310139D01*
X147800767Y-62103282D01*
X147856218Y-61884311D01*
X147870688Y-61709685D01*
X147874871Y-61659205D01*
X147874871Y-61659194D01*
X147859888Y-61478379D01*
X147856218Y-61434089D01*
X147800767Y-61215118D01*
X147710031Y-61008261D01*
X147661572Y-60934089D01*
X147586484Y-60819157D01*
X147433501Y-60652975D01*
X147433498Y-60652972D01*
X147352463Y-60589900D01*
X147255245Y-60514232D01*
X147255244Y-60514231D01*
X147255241Y-60514229D01*
X147255239Y-60514228D01*
X147172681Y-60469549D01*
X147123091Y-60420329D01*
X147109712Y-60368318D01*
X147108761Y-60368444D01*
X147107729Y-60360609D01*
X147107700Y-60360495D01*
X147107700Y-60360386D01*
X147107700Y-60360384D01*
X147066777Y-60207657D01*
X147035205Y-60152972D01*
X146987724Y-60070731D01*
X146987721Y-60070727D01*
X146987720Y-60070725D01*
X146875916Y-59958921D01*
X146875915Y-59958920D01*
X146871585Y-59954590D01*
X146871574Y-59954580D01*
X145483349Y-58566355D01*
X145483347Y-58566352D01*
X145364476Y-58447481D01*
X145364475Y-58447480D01*
X145277663Y-58397360D01*
X145277663Y-58397359D01*
X145277659Y-58397358D01*
X145227544Y-58368423D01*
X145074816Y-58327499D01*
X144916702Y-58327499D01*
X144909106Y-58327499D01*
X144909090Y-58327500D01*
X133524940Y-58327500D01*
X133484019Y-58338464D01*
X133484019Y-58338465D01*
X133446751Y-58348451D01*
X133372214Y-58368423D01*
X133372209Y-58368426D01*
X133235290Y-58447475D01*
X133235282Y-58447481D01*
X133123478Y-58559286D01*
X131867584Y-59815181D01*
X131806261Y-59848666D01*
X131779903Y-59851500D01*
X126834722Y-59851500D01*
X126767683Y-59831815D01*
X126721928Y-59779011D01*
X126715646Y-59762095D01*
X126669745Y-59604106D01*
X126669744Y-59604103D01*
X126669744Y-59604102D01*
X126586081Y-59462635D01*
X126586079Y-59462633D01*
X126586076Y-59462629D01*
X126469870Y-59346423D01*
X126469862Y-59346417D01*
X126391681Y-59300181D01*
X126328398Y-59262756D01*
X126328397Y-59262755D01*
X126328396Y-59262755D01*
X126328393Y-59262754D01*
X126170573Y-59216902D01*
X126170567Y-59216901D01*
X126133701Y-59214000D01*
X126133694Y-59214000D01*
X125702306Y-59214000D01*
X125702298Y-59214000D01*
X125665432Y-59216901D01*
X125665426Y-59216902D01*
X125507606Y-59262754D01*
X125507603Y-59262755D01*
X125366137Y-59346417D01*
X125366129Y-59346423D01*
X125249923Y-59462629D01*
X125249917Y-59462637D01*
X125166255Y-59604103D01*
X125166254Y-59604106D01*
X125120402Y-59761926D01*
X125120401Y-59761932D01*
X125117500Y-59798798D01*
X125117500Y-60965000D01*
X125097815Y-61032039D01*
X125045011Y-61077794D01*
X124993500Y-61089000D01*
X124942500Y-61089000D01*
X124875461Y-61069315D01*
X124829706Y-61016511D01*
X124818500Y-60965000D01*
X124818500Y-59798813D01*
X124818499Y-59798798D01*
X124815598Y-59761932D01*
X124815597Y-59761926D01*
X124769745Y-59604106D01*
X124769744Y-59604103D01*
X124769744Y-59604102D01*
X124686081Y-59462635D01*
X124686079Y-59462633D01*
X124686076Y-59462629D01*
X124654819Y-59431372D01*
X124621334Y-59370049D01*
X124618500Y-59343691D01*
X124618500Y-58391603D01*
X124637507Y-58325630D01*
X124677788Y-58261524D01*
X124683550Y-58245057D01*
X124737368Y-58091255D01*
X124740987Y-58059135D01*
X124757565Y-57912003D01*
X124757565Y-57911996D01*
X124737369Y-57732750D01*
X124737368Y-57732745D01*
X124695921Y-57614297D01*
X124677789Y-57562478D01*
X124650291Y-57518716D01*
X124638582Y-57500080D01*
X124581816Y-57409738D01*
X124454262Y-57282184D01*
X124426462Y-57264716D01*
X124301523Y-57186211D01*
X124131254Y-57126631D01*
X124131249Y-57126630D01*
X123952004Y-57106435D01*
X123951996Y-57106435D01*
X123772750Y-57126630D01*
X123772745Y-57126631D01*
X123602476Y-57186211D01*
X123449737Y-57282184D01*
X123322184Y-57409737D01*
X123226211Y-57562476D01*
X123166631Y-57732745D01*
X123166630Y-57732750D01*
X123146435Y-57911996D01*
X123146435Y-57912003D01*
X123166630Y-58091249D01*
X123166631Y-58091254D01*
X123226211Y-58261523D01*
X123322184Y-58414262D01*
X123381181Y-58473259D01*
X123414666Y-58534582D01*
X123417500Y-58560940D01*
X123417500Y-59343691D01*
X123397815Y-59410730D01*
X123381181Y-59431372D01*
X123349923Y-59462629D01*
X123349917Y-59462637D01*
X123266255Y-59604103D01*
X123266254Y-59604106D01*
X123220402Y-59761926D01*
X123220401Y-59761932D01*
X123217500Y-59798798D01*
X123217500Y-61105201D01*
X123220401Y-61142067D01*
X123220402Y-61142073D01*
X123266254Y-61299893D01*
X123266255Y-61299896D01*
X123266256Y-61299898D01*
X123279309Y-61321969D01*
X123349917Y-61441362D01*
X123349923Y-61441370D01*
X123466129Y-61557576D01*
X123466133Y-61557579D01*
X123466135Y-61557581D01*
X123607602Y-61641244D01*
X123626024Y-61646596D01*
X123765426Y-61687097D01*
X123765429Y-61687097D01*
X123765431Y-61687098D01*
X123802306Y-61690000D01*
X124043500Y-61690000D01*
X124110539Y-61709685D01*
X124156294Y-61762489D01*
X124167500Y-61814000D01*
X124167500Y-62980201D01*
X124170401Y-63017067D01*
X124170402Y-63017073D01*
X124216254Y-63174893D01*
X124216255Y-63174896D01*
X124299917Y-63316362D01*
X124299923Y-63316370D01*
X124331180Y-63347626D01*
X124364666Y-63408948D01*
X124367500Y-63435308D01*
X124367500Y-71411500D01*
X124347815Y-71478539D01*
X124295011Y-71524294D01*
X124243500Y-71535500D01*
X114882412Y-71535500D01*
X114815373Y-71515815D01*
X114805097Y-71508445D01*
X114802263Y-71506185D01*
X114802262Y-71506184D01*
X114744895Y-71470138D01*
X114649523Y-71410211D01*
X114479254Y-71350631D01*
X114479249Y-71350630D01*
X114300004Y-71330435D01*
X114299996Y-71330435D01*
X114120750Y-71350630D01*
X114120745Y-71350631D01*
X113950476Y-71410211D01*
X113797737Y-71506184D01*
X113670184Y-71633737D01*
X113574211Y-71786476D01*
X113514631Y-71956745D01*
X113514630Y-71956750D01*
X113494435Y-72135996D01*
X113494435Y-72136003D01*
X113514630Y-72315249D01*
X113514631Y-72315254D01*
X113574211Y-72485523D01*
X113656525Y-72616524D01*
X113670184Y-72638262D01*
X113797738Y-72765816D01*
X113835485Y-72789534D01*
X113938554Y-72854297D01*
X113950478Y-72861789D01*
X114033887Y-72890975D01*
X114120745Y-72921368D01*
X114120750Y-72921369D01*
X114299996Y-72941565D01*
X114300000Y-72941565D01*
X114300004Y-72941565D01*
X114479249Y-72921369D01*
X114479252Y-72921368D01*
X114479255Y-72921368D01*
X114649522Y-72861789D01*
X114802262Y-72765816D01*
X114802267Y-72765810D01*
X114805097Y-72763555D01*
X114807275Y-72762665D01*
X114808158Y-72762111D01*
X114808255Y-72762265D01*
X114869783Y-72737145D01*
X114882412Y-72736500D01*
X125047055Y-72736500D01*
X125047057Y-72736500D01*
X125199784Y-72695577D01*
X125336716Y-72616520D01*
X125448520Y-72504716D01*
X125527577Y-72367784D01*
X125568500Y-72215057D01*
X125568500Y-63435308D01*
X125588185Y-63368269D01*
X125604820Y-63347626D01*
X125636076Y-63316370D01*
X125636081Y-63316365D01*
X125719744Y-63174898D01*
X125765598Y-63017069D01*
X125768500Y-62980194D01*
X125768500Y-61814000D01*
X125788185Y-61746961D01*
X125840989Y-61701206D01*
X125892500Y-61690000D01*
X126133686Y-61690000D01*
X126133694Y-61690000D01*
X126170569Y-61687098D01*
X126170571Y-61687097D01*
X126170573Y-61687097D01*
X126212191Y-61675005D01*
X126328398Y-61641244D01*
X126469865Y-61557581D01*
X126586081Y-61441365D01*
X126669744Y-61299898D01*
X126710612Y-61159230D01*
X126715646Y-61141905D01*
X126753252Y-61083019D01*
X126816725Y-61053813D01*
X126834722Y-61052500D01*
X131993331Y-61052500D01*
X131993347Y-61052501D01*
X132000943Y-61052501D01*
X132159054Y-61052501D01*
X132159057Y-61052501D01*
X132311785Y-61011577D01*
X132369285Y-60978379D01*
X132448716Y-60932520D01*
X132560520Y-60820716D01*
X132560520Y-60820714D01*
X132570724Y-60810511D01*
X132570727Y-60810506D01*
X133816416Y-59564819D01*
X133877739Y-59531334D01*
X133904097Y-59528500D01*
X142754544Y-59528500D01*
X142821583Y-59548185D01*
X142867338Y-59600989D01*
X142877282Y-59670147D01*
X142858353Y-59720322D01*
X142764808Y-59863502D01*
X142674105Y-60070284D01*
X142674105Y-60070285D01*
X142630403Y-60242857D01*
X142594864Y-60303012D01*
X142532443Y-60334404D01*
X142466866Y-60328598D01*
X142397185Y-60302609D01*
X142397183Y-60302608D01*
X142337583Y-60296201D01*
X142337581Y-60296200D01*
X142337573Y-60296200D01*
X142337564Y-60296200D01*
X140516829Y-60296200D01*
X140516823Y-60296201D01*
X140457216Y-60302608D01*
X140322371Y-60352902D01*
X140322364Y-60352906D01*
X140207155Y-60439152D01*
X140207152Y-60439155D01*
X140120906Y-60554364D01*
X140120902Y-60554371D01*
X140070608Y-60689217D01*
X140064201Y-60748816D01*
X140064200Y-60748835D01*
X140064200Y-62569570D01*
X140064201Y-62569576D01*
X140070608Y-62629183D01*
X140120902Y-62764028D01*
X140120906Y-62764035D01*
X140207152Y-62879244D01*
X140207155Y-62879247D01*
X140309437Y-62955816D01*
X140351308Y-63011750D01*
X140356292Y-63081441D01*
X140338935Y-63122903D01*
X140224368Y-63298261D01*
X140133633Y-63505117D01*
X140078181Y-63724092D01*
X140059529Y-63949194D01*
X140059529Y-63949205D01*
X140078181Y-64174307D01*
X140078181Y-64174310D01*
X140078182Y-64174311D01*
X140133633Y-64393282D01*
X140224368Y-64600138D01*
X140347915Y-64789242D01*
X140500898Y-64955424D01*
X140500903Y-64955429D01*
X140553474Y-64996347D01*
X140594287Y-65053058D01*
X140597960Y-65122831D01*
X140563329Y-65183514D01*
X140553474Y-65192053D01*
X140500903Y-65232970D01*
X140500898Y-65232975D01*
X140347915Y-65399157D01*
X140224368Y-65588261D01*
X140133633Y-65795117D01*
X140078181Y-66014092D01*
X140059529Y-66239194D01*
X140059529Y-66239205D01*
X140078181Y-66464307D01*
X140078181Y-66464310D01*
X140078182Y-66464311D01*
X140133633Y-66683282D01*
X140224368Y-66890138D01*
X140347915Y-67079242D01*
X140500898Y-67245424D01*
X140500903Y-67245429D01*
X140553474Y-67286347D01*
X140594287Y-67343058D01*
X140597960Y-67412831D01*
X140563329Y-67473514D01*
X140553474Y-67482053D01*
X140500903Y-67522970D01*
X140500898Y-67522975D01*
X140347915Y-67689157D01*
X140224368Y-67878261D01*
X140133633Y-68085117D01*
X140078181Y-68304092D01*
X140059529Y-68529194D01*
X140059529Y-68529205D01*
X140078181Y-68754307D01*
X140078181Y-68754310D01*
X140078182Y-68754311D01*
X140131953Y-68966649D01*
X140133633Y-68973282D01*
X140224368Y-69180138D01*
X140347915Y-69369242D01*
X140500898Y-69535424D01*
X140500903Y-69535429D01*
X140553474Y-69576347D01*
X140594287Y-69633058D01*
X140597960Y-69702831D01*
X140563329Y-69763514D01*
X140553474Y-69772053D01*
X140500903Y-69812970D01*
X140500898Y-69812975D01*
X140347915Y-69979157D01*
X140224368Y-70168261D01*
X140133633Y-70375117D01*
X140078181Y-70594092D01*
X140059529Y-70819194D01*
X140059529Y-70819205D01*
X140078181Y-71044307D01*
X140133633Y-71263282D01*
X140224368Y-71470138D01*
X140347915Y-71659242D01*
X140500898Y-71825424D01*
X140500902Y-71825428D01*
X140679155Y-71964168D01*
X140877813Y-72071677D01*
X140988750Y-72109761D01*
X141091453Y-72145020D01*
X141091455Y-72145020D01*
X141091457Y-72145021D01*
X141314259Y-72182200D01*
X141314260Y-72182200D01*
X141540140Y-72182200D01*
X141540141Y-72182200D01*
X141762943Y-72145021D01*
X141976587Y-72071677D01*
X142175245Y-71964168D01*
X142353498Y-71825428D01*
X142506485Y-71659241D01*
X142630031Y-71470139D01*
X142720767Y-71263282D01*
X142776218Y-71044311D01*
X142794871Y-70819200D01*
X142794868Y-70819169D01*
X142787726Y-70732970D01*
X142801807Y-70664534D01*
X142850652Y-70614575D01*
X142918753Y-70598954D01*
X142984488Y-70622631D01*
X143002529Y-70638744D01*
X143040902Y-70680428D01*
X143219155Y-70819168D01*
X143417813Y-70926677D01*
X143528750Y-70964761D01*
X143631453Y-71000020D01*
X143631455Y-71000020D01*
X143631457Y-71000021D01*
X143854259Y-71037200D01*
X143854260Y-71037200D01*
X144080140Y-71037200D01*
X144080141Y-71037200D01*
X144302943Y-71000021D01*
X144516587Y-70926677D01*
X144715245Y-70819168D01*
X144893498Y-70680428D01*
X144931869Y-70638745D01*
X144991754Y-70602757D01*
X145061592Y-70604857D01*
X145119208Y-70644380D01*
X145146310Y-70708780D01*
X145146674Y-70732969D01*
X145139530Y-70819194D01*
X145139529Y-70819204D01*
X145139529Y-70819205D01*
X145158181Y-71044307D01*
X145213633Y-71263282D01*
X145304368Y-71470138D01*
X145427915Y-71659242D01*
X145580898Y-71825424D01*
X145580902Y-71825428D01*
X145687143Y-71908119D01*
X145759152Y-71964166D01*
X145759156Y-71964169D01*
X145841717Y-72008848D01*
X145891308Y-72058067D01*
X145906700Y-72117903D01*
X145906700Y-72928103D01*
X145887015Y-72995142D01*
X145870381Y-73015784D01*
X145354984Y-73531181D01*
X145293661Y-73564666D01*
X145267303Y-73567500D01*
X138096940Y-73567500D01*
X138056019Y-73578464D01*
X138056019Y-73578465D01*
X138018751Y-73588451D01*
X137944214Y-73608423D01*
X137944209Y-73608426D01*
X137807290Y-73687475D01*
X137807282Y-73687481D01*
X137695478Y-73799286D01*
X132375584Y-79119181D01*
X132314261Y-79152666D01*
X132287903Y-79155500D01*
X105118500Y-79155500D01*
X105051461Y-79135815D01*
X105005706Y-79083011D01*
X104994500Y-79031500D01*
X104994500Y-78759090D01*
X105014185Y-78692051D01*
X105066101Y-78646706D01*
X105071830Y-78644035D01*
X105265401Y-78508495D01*
X105432495Y-78341401D01*
X105546891Y-78178026D01*
X105562425Y-78155842D01*
X105617002Y-78112217D01*
X105686500Y-78105023D01*
X105748855Y-78136546D01*
X105765575Y-78155842D01*
X105895500Y-78341395D01*
X105895505Y-78341401D01*
X106062599Y-78508495D01*
X106159384Y-78576265D01*
X106256165Y-78644032D01*
X106256167Y-78644033D01*
X106256170Y-78644035D01*
X106470337Y-78743903D01*
X106698592Y-78805063D01*
X106875034Y-78820500D01*
X106933999Y-78825659D01*
X106934000Y-78825659D01*
X106934001Y-78825659D01*
X106992966Y-78820500D01*
X107169408Y-78805063D01*
X107397663Y-78743903D01*
X107611830Y-78644035D01*
X107805401Y-78508495D01*
X107972495Y-78341401D01*
X108086891Y-78178026D01*
X108102425Y-78155842D01*
X108157002Y-78112217D01*
X108226500Y-78105023D01*
X108288855Y-78136546D01*
X108305575Y-78155842D01*
X108435500Y-78341395D01*
X108435505Y-78341401D01*
X108602599Y-78508495D01*
X108699384Y-78576265D01*
X108796165Y-78644032D01*
X108796167Y-78644033D01*
X108796170Y-78644035D01*
X109010337Y-78743903D01*
X109238592Y-78805063D01*
X109415034Y-78820500D01*
X109473999Y-78825659D01*
X109474000Y-78825659D01*
X109474001Y-78825659D01*
X109532966Y-78820500D01*
X109709408Y-78805063D01*
X109937663Y-78743903D01*
X110151830Y-78644035D01*
X110345401Y-78508495D01*
X110512495Y-78341401D01*
X110626891Y-78178026D01*
X110642425Y-78155842D01*
X110697002Y-78112217D01*
X110766500Y-78105023D01*
X110828855Y-78136546D01*
X110845575Y-78155842D01*
X110975500Y-78341395D01*
X110975505Y-78341401D01*
X111142599Y-78508495D01*
X111239384Y-78576265D01*
X111336165Y-78644032D01*
X111336167Y-78644033D01*
X111336170Y-78644035D01*
X111550337Y-78743903D01*
X111778592Y-78805063D01*
X111955034Y-78820500D01*
X112013999Y-78825659D01*
X112014000Y-78825659D01*
X112014001Y-78825659D01*
X112072966Y-78820500D01*
X112249408Y-78805063D01*
X112477663Y-78743903D01*
X112691830Y-78644035D01*
X112885401Y-78508495D01*
X113052495Y-78341401D01*
X113166891Y-78178026D01*
X113182425Y-78155842D01*
X113237002Y-78112217D01*
X113306500Y-78105023D01*
X113368855Y-78136546D01*
X113385575Y-78155842D01*
X113515500Y-78341395D01*
X113515505Y-78341401D01*
X113682599Y-78508495D01*
X113779384Y-78576265D01*
X113876165Y-78644032D01*
X113876167Y-78644033D01*
X113876170Y-78644035D01*
X114090337Y-78743903D01*
X114318592Y-78805063D01*
X114495034Y-78820500D01*
X114553999Y-78825659D01*
X114554000Y-78825659D01*
X114554001Y-78825659D01*
X114612966Y-78820500D01*
X114789408Y-78805063D01*
X115017663Y-78743903D01*
X115231830Y-78644035D01*
X115425401Y-78508495D01*
X115592495Y-78341401D01*
X115706891Y-78178026D01*
X115722425Y-78155842D01*
X115777002Y-78112217D01*
X115846500Y-78105023D01*
X115908855Y-78136546D01*
X115925575Y-78155842D01*
X116055500Y-78341395D01*
X116055505Y-78341401D01*
X116222599Y-78508495D01*
X116319384Y-78576265D01*
X116416165Y-78644032D01*
X116416167Y-78644033D01*
X116416170Y-78644035D01*
X116630337Y-78743903D01*
X116858592Y-78805063D01*
X117035034Y-78820500D01*
X117093999Y-78825659D01*
X117094000Y-78825659D01*
X117094001Y-78825659D01*
X117152966Y-78820500D01*
X117329408Y-78805063D01*
X117557663Y-78743903D01*
X117771830Y-78644035D01*
X117965401Y-78508495D01*
X118132495Y-78341401D01*
X118246891Y-78178026D01*
X118262425Y-78155842D01*
X118317002Y-78112217D01*
X118386500Y-78105023D01*
X118448855Y-78136546D01*
X118465575Y-78155842D01*
X118595500Y-78341395D01*
X118595505Y-78341401D01*
X118762599Y-78508495D01*
X118859384Y-78576265D01*
X118956165Y-78644032D01*
X118956167Y-78644033D01*
X118956170Y-78644035D01*
X119170337Y-78743903D01*
X119398592Y-78805063D01*
X119575034Y-78820500D01*
X119633999Y-78825659D01*
X119634000Y-78825659D01*
X119634001Y-78825659D01*
X119692966Y-78820500D01*
X119869408Y-78805063D01*
X120097663Y-78743903D01*
X120311830Y-78644035D01*
X120505401Y-78508495D01*
X120672495Y-78341401D01*
X120786891Y-78178026D01*
X120802425Y-78155842D01*
X120857002Y-78112217D01*
X120926500Y-78105023D01*
X120988855Y-78136546D01*
X121005575Y-78155842D01*
X121135500Y-78341395D01*
X121135505Y-78341401D01*
X121302599Y-78508495D01*
X121399384Y-78576265D01*
X121496165Y-78644032D01*
X121496167Y-78644033D01*
X121496170Y-78644035D01*
X121710337Y-78743903D01*
X121938592Y-78805063D01*
X122115034Y-78820500D01*
X122173999Y-78825659D01*
X122174000Y-78825659D01*
X122174001Y-78825659D01*
X122232966Y-78820500D01*
X122409408Y-78805063D01*
X122637663Y-78743903D01*
X122851830Y-78644035D01*
X123045401Y-78508495D01*
X123212495Y-78341401D01*
X123326891Y-78178026D01*
X123342425Y-78155842D01*
X123397002Y-78112217D01*
X123466500Y-78105023D01*
X123528855Y-78136546D01*
X123545575Y-78155842D01*
X123675500Y-78341395D01*
X123675505Y-78341401D01*
X123842599Y-78508495D01*
X123939384Y-78576265D01*
X124036165Y-78644032D01*
X124036167Y-78644033D01*
X124036170Y-78644035D01*
X124250337Y-78743903D01*
X124478592Y-78805063D01*
X124655034Y-78820500D01*
X124713999Y-78825659D01*
X124714000Y-78825659D01*
X124714001Y-78825659D01*
X124772966Y-78820500D01*
X124949408Y-78805063D01*
X125177663Y-78743903D01*
X125391830Y-78644035D01*
X125585401Y-78508495D01*
X125752495Y-78341401D01*
X125866891Y-78178026D01*
X125882425Y-78155842D01*
X125937002Y-78112217D01*
X126006500Y-78105023D01*
X126068855Y-78136546D01*
X126085575Y-78155842D01*
X126215500Y-78341395D01*
X126215505Y-78341401D01*
X126382599Y-78508495D01*
X126479384Y-78576265D01*
X126576165Y-78644032D01*
X126576167Y-78644033D01*
X126576170Y-78644035D01*
X126790337Y-78743903D01*
X127018592Y-78805063D01*
X127195034Y-78820500D01*
X127253999Y-78825659D01*
X127254000Y-78825659D01*
X127254001Y-78825659D01*
X127312966Y-78820500D01*
X127489408Y-78805063D01*
X127717663Y-78743903D01*
X127931830Y-78644035D01*
X128125401Y-78508495D01*
X128292495Y-78341401D01*
X128406891Y-78178026D01*
X128422425Y-78155842D01*
X128477002Y-78112217D01*
X128546500Y-78105023D01*
X128608855Y-78136546D01*
X128625575Y-78155842D01*
X128755500Y-78341395D01*
X128755505Y-78341401D01*
X128922599Y-78508495D01*
X129019384Y-78576265D01*
X129116165Y-78644032D01*
X129116167Y-78644033D01*
X129116170Y-78644035D01*
X129330337Y-78743903D01*
X129558592Y-78805063D01*
X129735034Y-78820500D01*
X129793999Y-78825659D01*
X129794000Y-78825659D01*
X129794001Y-78825659D01*
X129852966Y-78820500D01*
X130029408Y-78805063D01*
X130257663Y-78743903D01*
X130471830Y-78644035D01*
X130665401Y-78508495D01*
X130832495Y-78341401D01*
X130968035Y-78147830D01*
X131067903Y-77933663D01*
X131129063Y-77705408D01*
X131149659Y-77470000D01*
X131129063Y-77234592D01*
X131067903Y-77006337D01*
X130968035Y-76792171D01*
X130962425Y-76784158D01*
X130832494Y-76598597D01*
X130665402Y-76431506D01*
X130665395Y-76431501D01*
X130471834Y-76295967D01*
X130471830Y-76295965D01*
X130466085Y-76293286D01*
X130257663Y-76196097D01*
X130257659Y-76196096D01*
X130257655Y-76196094D01*
X130029413Y-76134938D01*
X130029403Y-76134936D01*
X129794001Y-76114341D01*
X129793999Y-76114341D01*
X129558596Y-76134936D01*
X129558586Y-76134938D01*
X129330344Y-76196094D01*
X129330335Y-76196098D01*
X129116171Y-76295964D01*
X129116169Y-76295965D01*
X128922597Y-76431505D01*
X128755505Y-76598597D01*
X128625575Y-76784158D01*
X128570998Y-76827783D01*
X128501500Y-76834977D01*
X128439145Y-76803454D01*
X128422425Y-76784158D01*
X128292494Y-76598597D01*
X128125402Y-76431506D01*
X128125395Y-76431501D01*
X127931834Y-76295967D01*
X127931830Y-76295965D01*
X127926085Y-76293286D01*
X127717663Y-76196097D01*
X127717659Y-76196096D01*
X127717655Y-76196094D01*
X127489413Y-76134938D01*
X127489403Y-76134936D01*
X127254001Y-76114341D01*
X127253999Y-76114341D01*
X127018596Y-76134936D01*
X127018586Y-76134938D01*
X126790344Y-76196094D01*
X126790335Y-76196098D01*
X126576171Y-76295964D01*
X126576169Y-76295965D01*
X126382597Y-76431505D01*
X126215505Y-76598597D01*
X126085575Y-76784158D01*
X126030998Y-76827783D01*
X125961500Y-76834977D01*
X125899145Y-76803454D01*
X125882425Y-76784158D01*
X125752494Y-76598597D01*
X125585402Y-76431506D01*
X125585395Y-76431501D01*
X125391834Y-76295967D01*
X125391830Y-76295965D01*
X125386085Y-76293286D01*
X125177663Y-76196097D01*
X125177659Y-76196096D01*
X125177655Y-76196094D01*
X124949413Y-76134938D01*
X124949403Y-76134936D01*
X124714001Y-76114341D01*
X124713999Y-76114341D01*
X124478596Y-76134936D01*
X124478586Y-76134938D01*
X124250344Y-76196094D01*
X124250335Y-76196098D01*
X124036171Y-76295964D01*
X124036169Y-76295965D01*
X123842597Y-76431505D01*
X123675505Y-76598597D01*
X123545575Y-76784158D01*
X123490998Y-76827783D01*
X123421500Y-76834977D01*
X123359145Y-76803454D01*
X123342425Y-76784158D01*
X123212494Y-76598597D01*
X123045402Y-76431506D01*
X123045395Y-76431501D01*
X122851834Y-76295967D01*
X122851830Y-76295965D01*
X122846085Y-76293286D01*
X122637663Y-76196097D01*
X122637659Y-76196096D01*
X122637655Y-76196094D01*
X122409413Y-76134938D01*
X122409403Y-76134936D01*
X122174001Y-76114341D01*
X122173999Y-76114341D01*
X121938596Y-76134936D01*
X121938586Y-76134938D01*
X121710344Y-76196094D01*
X121710335Y-76196098D01*
X121496171Y-76295964D01*
X121496169Y-76295965D01*
X121302597Y-76431505D01*
X121135505Y-76598597D01*
X121005575Y-76784158D01*
X120950998Y-76827783D01*
X120881500Y-76834977D01*
X120819145Y-76803454D01*
X120802425Y-76784158D01*
X120672494Y-76598597D01*
X120505402Y-76431506D01*
X120505395Y-76431501D01*
X120311834Y-76295967D01*
X120311830Y-76295965D01*
X120306085Y-76293286D01*
X120097663Y-76196097D01*
X120097659Y-76196096D01*
X120097655Y-76196094D01*
X119869413Y-76134938D01*
X119869403Y-76134936D01*
X119634001Y-76114341D01*
X119633999Y-76114341D01*
X119398596Y-76134936D01*
X119398586Y-76134938D01*
X119170344Y-76196094D01*
X119170335Y-76196098D01*
X118956171Y-76295964D01*
X118956169Y-76295965D01*
X118762597Y-76431505D01*
X118595505Y-76598597D01*
X118465575Y-76784158D01*
X118410998Y-76827783D01*
X118341500Y-76834977D01*
X118279145Y-76803454D01*
X118262425Y-76784158D01*
X118132494Y-76598597D01*
X117965402Y-76431506D01*
X117965395Y-76431501D01*
X117771834Y-76295967D01*
X117771830Y-76295965D01*
X117766085Y-76293286D01*
X117557663Y-76196097D01*
X117557659Y-76196096D01*
X117557655Y-76196094D01*
X117329413Y-76134938D01*
X117329403Y-76134936D01*
X117094001Y-76114341D01*
X117093999Y-76114341D01*
X116858596Y-76134936D01*
X116858586Y-76134938D01*
X116630344Y-76196094D01*
X116630335Y-76196098D01*
X116416171Y-76295964D01*
X116416169Y-76295965D01*
X116222597Y-76431505D01*
X116055505Y-76598597D01*
X115925575Y-76784158D01*
X115870998Y-76827783D01*
X115801500Y-76834977D01*
X115739145Y-76803454D01*
X115722425Y-76784158D01*
X115592494Y-76598597D01*
X115425402Y-76431506D01*
X115425395Y-76431501D01*
X115231834Y-76295967D01*
X115231830Y-76295965D01*
X115226085Y-76293286D01*
X115017663Y-76196097D01*
X115017659Y-76196096D01*
X115017655Y-76196094D01*
X114789413Y-76134938D01*
X114789403Y-76134936D01*
X114554001Y-76114341D01*
X114553999Y-76114341D01*
X114318596Y-76134936D01*
X114318586Y-76134938D01*
X114090344Y-76196094D01*
X114090335Y-76196098D01*
X113876171Y-76295964D01*
X113876169Y-76295965D01*
X113682597Y-76431505D01*
X113515505Y-76598597D01*
X113385575Y-76784158D01*
X113330998Y-76827783D01*
X113261500Y-76834977D01*
X113199145Y-76803454D01*
X113182425Y-76784158D01*
X113052494Y-76598597D01*
X112885402Y-76431506D01*
X112885395Y-76431501D01*
X112691834Y-76295967D01*
X112691830Y-76295965D01*
X112686085Y-76293286D01*
X112477663Y-76196097D01*
X112477659Y-76196096D01*
X112477655Y-76196094D01*
X112249413Y-76134938D01*
X112249403Y-76134936D01*
X112014001Y-76114341D01*
X112013999Y-76114341D01*
X111778596Y-76134936D01*
X111778586Y-76134938D01*
X111550344Y-76196094D01*
X111550335Y-76196098D01*
X111336171Y-76295964D01*
X111336169Y-76295965D01*
X111142597Y-76431505D01*
X110975505Y-76598597D01*
X110845575Y-76784158D01*
X110790998Y-76827783D01*
X110721500Y-76834977D01*
X110659145Y-76803454D01*
X110642425Y-76784158D01*
X110512494Y-76598597D01*
X110345402Y-76431506D01*
X110345395Y-76431501D01*
X110151831Y-76295965D01*
X110151826Y-76295962D01*
X110146091Y-76293288D01*
X110093653Y-76247113D01*
X110074500Y-76180908D01*
X110074500Y-64944944D01*
X110074499Y-64944938D01*
X110067510Y-64918854D01*
X110033577Y-64792215D01*
X109999373Y-64732972D01*
X109999373Y-64732971D01*
X109954524Y-64655290D01*
X109954521Y-64655286D01*
X109954520Y-64655284D01*
X109842716Y-64543480D01*
X109842715Y-64543479D01*
X109838385Y-64539149D01*
X109838374Y-64539139D01*
X109707590Y-64408355D01*
X109707588Y-64408352D01*
X109588717Y-64289481D01*
X109588716Y-64289480D01*
X109501904Y-64239360D01*
X109501904Y-64239359D01*
X109501900Y-64239358D01*
X109451785Y-64210423D01*
X109299057Y-64169499D01*
X109140943Y-64169499D01*
X109133347Y-64169499D01*
X109133331Y-64169500D01*
X83460301Y-64169500D01*
X83393262Y-64149815D01*
X83347507Y-64097011D01*
X83342595Y-64084504D01*
X83314814Y-64000666D01*
X83222712Y-63851344D01*
X83098656Y-63727288D01*
X82949334Y-63635186D01*
X82782797Y-63580001D01*
X82782795Y-63580000D01*
X82680010Y-63569500D01*
X81879998Y-63569500D01*
X81879980Y-63569501D01*
X81777203Y-63580000D01*
X81777200Y-63580001D01*
X81610668Y-63635185D01*
X81610663Y-63635187D01*
X81461342Y-63727289D01*
X81367681Y-63820951D01*
X81306358Y-63854436D01*
X81236666Y-63849452D01*
X81192319Y-63820951D01*
X81098657Y-63727289D01*
X81098656Y-63727288D01*
X80949334Y-63635186D01*
X80782797Y-63580001D01*
X80782795Y-63580000D01*
X80680010Y-63569500D01*
X79879998Y-63569500D01*
X79879980Y-63569501D01*
X79777203Y-63580000D01*
X79777200Y-63580001D01*
X79610668Y-63635185D01*
X79610663Y-63635187D01*
X79461342Y-63727289D01*
X79337289Y-63851342D01*
X79245187Y-64000663D01*
X79245185Y-64000668D01*
X79217405Y-64084504D01*
X79177632Y-64141949D01*
X79113116Y-64168772D01*
X79099699Y-64169500D01*
X77556670Y-64169500D01*
X77556654Y-64169499D01*
X77549058Y-64169499D01*
X77390943Y-64169499D01*
X77314579Y-64189961D01*
X77238214Y-64210423D01*
X77238209Y-64210426D01*
X77101290Y-64289475D01*
X77101282Y-64289481D01*
X68367584Y-73023181D01*
X68306261Y-73056666D01*
X68279903Y-73059500D01*
X65593865Y-73059500D01*
X65526826Y-73039815D01*
X65481071Y-72987011D01*
X65471127Y-72917853D01*
X65500152Y-72854297D01*
X65558930Y-72816523D01*
X65573456Y-72813191D01*
X65715222Y-72789534D01*
X65928781Y-72716219D01*
X65928787Y-72716217D01*
X66127372Y-72608747D01*
X66127375Y-72608745D01*
X66151676Y-72589830D01*
X65570246Y-72008400D01*
X65601542Y-72000015D01*
X65732658Y-71924315D01*
X65839715Y-71817258D01*
X65915415Y-71686142D01*
X65923800Y-71654846D01*
X66503693Y-72234740D01*
X66581987Y-72114904D01*
X66581992Y-72114896D01*
X66672692Y-71908119D01*
X66716395Y-71735543D01*
X66751935Y-71675387D01*
X66814355Y-71643995D01*
X66879934Y-71649801D01*
X66949617Y-71675791D01*
X66949616Y-71675791D01*
X66956544Y-71676535D01*
X67009227Y-71682200D01*
X68829972Y-71682199D01*
X68889583Y-71675791D01*
X69024431Y-71625496D01*
X69139646Y-71539246D01*
X69225896Y-71424031D01*
X69276191Y-71289183D01*
X69282600Y-71229573D01*
X69282599Y-69408828D01*
X69276191Y-69349217D01*
X69225896Y-69214369D01*
X69225895Y-69214368D01*
X69225893Y-69214364D01*
X69139647Y-69099155D01*
X69037361Y-69022583D01*
X68995491Y-68966649D01*
X68990507Y-68896958D01*
X69007863Y-68855497D01*
X69122431Y-68680139D01*
X69213167Y-68473282D01*
X69268618Y-68254311D01*
X69286779Y-68035139D01*
X69287271Y-68029205D01*
X69287271Y-68029194D01*
X69274764Y-67878261D01*
X69268618Y-67804089D01*
X69213167Y-67585118D01*
X69122431Y-67378261D01*
X69089778Y-67328282D01*
X68998884Y-67189157D01*
X68845901Y-67022975D01*
X68845898Y-67022972D01*
X68845895Y-67022970D01*
X68793325Y-66982052D01*
X68752513Y-66925343D01*
X68748838Y-66855570D01*
X68783470Y-66794887D01*
X68793325Y-66786347D01*
X68845898Y-66745428D01*
X68998885Y-66579241D01*
X69122431Y-66390139D01*
X69213167Y-66183282D01*
X69268618Y-65964311D01*
X69285657Y-65758680D01*
X69287271Y-65739205D01*
X69287271Y-65739194D01*
X69270710Y-65539334D01*
X69268618Y-65514089D01*
X69213167Y-65295118D01*
X69122431Y-65088261D01*
X69011753Y-64918855D01*
X68998884Y-64899157D01*
X68845899Y-64732973D01*
X68845898Y-64732972D01*
X68793325Y-64692052D01*
X68752513Y-64635343D01*
X68748838Y-64565570D01*
X68783470Y-64504887D01*
X68793325Y-64496347D01*
X68845898Y-64455428D01*
X68998885Y-64289241D01*
X69122431Y-64100139D01*
X69213167Y-63893282D01*
X69268618Y-63674311D01*
X69286779Y-63455139D01*
X69287271Y-63449205D01*
X69287271Y-63449194D01*
X69274764Y-63298261D01*
X69268618Y-63224089D01*
X69213167Y-63005118D01*
X69122431Y-62798261D01*
X69035645Y-62665424D01*
X68998884Y-62609157D01*
X68845901Y-62442975D01*
X68845898Y-62442972D01*
X68845895Y-62442970D01*
X68793325Y-62402052D01*
X68752513Y-62345343D01*
X68748838Y-62275570D01*
X68783470Y-62214887D01*
X68793325Y-62206347D01*
X68845898Y-62165428D01*
X68998885Y-61999241D01*
X69122431Y-61810139D01*
X69213167Y-61603282D01*
X69268618Y-61384311D01*
X69285401Y-61181768D01*
X69287271Y-61159205D01*
X69287271Y-61159194D01*
X69268618Y-60934092D01*
X69268618Y-60934089D01*
X69213167Y-60715118D01*
X69122431Y-60508261D01*
X69068102Y-60425104D01*
X68998884Y-60319157D01*
X68845901Y-60152975D01*
X68845898Y-60152972D01*
X68740235Y-60070731D01*
X68667645Y-60014232D01*
X68667643Y-60014231D01*
X68667642Y-60014230D01*
X68468987Y-59906723D01*
X68468979Y-59906720D01*
X68255346Y-59833379D01*
X68088241Y-59805494D01*
X68032541Y-59796200D01*
X67806659Y-59796200D01*
X67750958Y-59805494D01*
X67583854Y-59833379D01*
X67521861Y-59854661D01*
X67452063Y-59857810D01*
X67391642Y-59822723D01*
X67359782Y-59760540D01*
X67357600Y-59737379D01*
X67357600Y-59272997D01*
X67377285Y-59205958D01*
X67393914Y-59185321D01*
X67522418Y-59056817D01*
X67583740Y-59023334D01*
X67610098Y-59020500D01*
X119293331Y-59020500D01*
X119293347Y-59020501D01*
X119300943Y-59020501D01*
X119459054Y-59020501D01*
X119459057Y-59020501D01*
X119611785Y-58979577D01*
X119661904Y-58950639D01*
X119748716Y-58900520D01*
X119860520Y-58788716D01*
X119860520Y-58788714D01*
X119870728Y-58778507D01*
X119870730Y-58778504D01*
X119992506Y-58656728D01*
X119992511Y-58656724D01*
X120002714Y-58646520D01*
X120002716Y-58646520D01*
X120114520Y-58534716D01*
X120186004Y-58410901D01*
X120193577Y-58397785D01*
X120234500Y-58245058D01*
X120234500Y-58086943D01*
X120234500Y-55899090D01*
X120254185Y-55832051D01*
X120306101Y-55786706D01*
X120311830Y-55784035D01*
X120505401Y-55648495D01*
X120672495Y-55481401D01*
X120802425Y-55295842D01*
X120857002Y-55252217D01*
X120926500Y-55245023D01*
X120988855Y-55276546D01*
X121005575Y-55295842D01*
X121135500Y-55481395D01*
X121135505Y-55481401D01*
X121302599Y-55648495D01*
X121326291Y-55665084D01*
X121496165Y-55784032D01*
X121496167Y-55784033D01*
X121496170Y-55784035D01*
X121710337Y-55883903D01*
X121938592Y-55945063D01*
X122126918Y-55961539D01*
X122173999Y-55965659D01*
X122174000Y-55965659D01*
X122174001Y-55965659D01*
X122213234Y-55962226D01*
X122409408Y-55945063D01*
X122637663Y-55883903D01*
X122851830Y-55784035D01*
X123045401Y-55648495D01*
X123212495Y-55481401D01*
X123342425Y-55295842D01*
X123397002Y-55252217D01*
X123466500Y-55245023D01*
X123528855Y-55276546D01*
X123545575Y-55295842D01*
X123675500Y-55481395D01*
X123675505Y-55481401D01*
X123842599Y-55648495D01*
X123866291Y-55665084D01*
X124036165Y-55784032D01*
X124036167Y-55784033D01*
X124036170Y-55784035D01*
X124250337Y-55883903D01*
X124478592Y-55945063D01*
X124666918Y-55961539D01*
X124713999Y-55965659D01*
X124714000Y-55965659D01*
X124714001Y-55965659D01*
X124753234Y-55962226D01*
X124949408Y-55945063D01*
X125177663Y-55883903D01*
X125391830Y-55784035D01*
X125585401Y-55648495D01*
X125752495Y-55481401D01*
X125882425Y-55295842D01*
X125937002Y-55252217D01*
X126006500Y-55245023D01*
X126068855Y-55276546D01*
X126085575Y-55295842D01*
X126215500Y-55481395D01*
X126215505Y-55481401D01*
X126382599Y-55648495D01*
X126406291Y-55665084D01*
X126576165Y-55784032D01*
X126576167Y-55784033D01*
X126576170Y-55784035D01*
X126790337Y-55883903D01*
X127018592Y-55945063D01*
X127206918Y-55961539D01*
X127253999Y-55965659D01*
X127254000Y-55965659D01*
X127254001Y-55965659D01*
X127293234Y-55962226D01*
X127489408Y-55945063D01*
X127717663Y-55883903D01*
X127931830Y-55784035D01*
X128125401Y-55648495D01*
X128292495Y-55481401D01*
X128422425Y-55295842D01*
X128477002Y-55252217D01*
X128546500Y-55245023D01*
X128608855Y-55276546D01*
X128625575Y-55295842D01*
X128755500Y-55481395D01*
X128755505Y-55481401D01*
X128922599Y-55648495D01*
X128946291Y-55665084D01*
X129116165Y-55784032D01*
X129116167Y-55784033D01*
X129116170Y-55784035D01*
X129330337Y-55883903D01*
X129558592Y-55945063D01*
X129746918Y-55961539D01*
X129793999Y-55965659D01*
X129794000Y-55965659D01*
X129794001Y-55965659D01*
X129833234Y-55962226D01*
X130029408Y-55945063D01*
X130257663Y-55883903D01*
X130471830Y-55784035D01*
X130665401Y-55648495D01*
X130832495Y-55481401D01*
X130968035Y-55287830D01*
X131067903Y-55073663D01*
X131129063Y-54845408D01*
X131149659Y-54610000D01*
X131129063Y-54374592D01*
X131067903Y-54146337D01*
X130968035Y-53932171D01*
X130962425Y-53924158D01*
X130832494Y-53738597D01*
X130665402Y-53571506D01*
X130665395Y-53571501D01*
X130471834Y-53435967D01*
X130471830Y-53435965D01*
X130400727Y-53402809D01*
X130257663Y-53336097D01*
X130257659Y-53336096D01*
X130257655Y-53336094D01*
X130029413Y-53274938D01*
X130029403Y-53274936D01*
X129794001Y-53254341D01*
X129793999Y-53254341D01*
X129558596Y-53274936D01*
X129558586Y-53274938D01*
X129330344Y-53336094D01*
X129330335Y-53336098D01*
X129116171Y-53435964D01*
X129116169Y-53435965D01*
X128922597Y-53571505D01*
X128755505Y-53738597D01*
X128625575Y-53924158D01*
X128570998Y-53967783D01*
X128501500Y-53974977D01*
X128439145Y-53943454D01*
X128422425Y-53924158D01*
X128292494Y-53738597D01*
X128125402Y-53571506D01*
X128125395Y-53571501D01*
X127931834Y-53435967D01*
X127931830Y-53435965D01*
X127860727Y-53402809D01*
X127717663Y-53336097D01*
X127717659Y-53336096D01*
X127717655Y-53336094D01*
X127489413Y-53274938D01*
X127489403Y-53274936D01*
X127254001Y-53254341D01*
X127253999Y-53254341D01*
X127018596Y-53274936D01*
X127018586Y-53274938D01*
X126790344Y-53336094D01*
X126790335Y-53336098D01*
X126576171Y-53435964D01*
X126576169Y-53435965D01*
X126382597Y-53571505D01*
X126215505Y-53738597D01*
X126085575Y-53924158D01*
X126030998Y-53967783D01*
X125961500Y-53974977D01*
X125899145Y-53943454D01*
X125882425Y-53924158D01*
X125752494Y-53738597D01*
X125585402Y-53571506D01*
X125585395Y-53571501D01*
X125391834Y-53435967D01*
X125391830Y-53435965D01*
X125320727Y-53402809D01*
X125177663Y-53336097D01*
X125177659Y-53336096D01*
X125177655Y-53336094D01*
X124949413Y-53274938D01*
X124949403Y-53274936D01*
X124714001Y-53254341D01*
X124713999Y-53254341D01*
X124478596Y-53274936D01*
X124478586Y-53274938D01*
X124250344Y-53336094D01*
X124250335Y-53336098D01*
X124036171Y-53435964D01*
X124036169Y-53435965D01*
X123842597Y-53571505D01*
X123675505Y-53738597D01*
X123545575Y-53924158D01*
X123490998Y-53967783D01*
X123421500Y-53974977D01*
X123359145Y-53943454D01*
X123342425Y-53924158D01*
X123212494Y-53738597D01*
X123045402Y-53571506D01*
X123045395Y-53571501D01*
X122851834Y-53435967D01*
X122851830Y-53435965D01*
X122780727Y-53402809D01*
X122637663Y-53336097D01*
X122637659Y-53336096D01*
X122637655Y-53336094D01*
X122409413Y-53274938D01*
X122409403Y-53274936D01*
X122174001Y-53254341D01*
X122173999Y-53254341D01*
X121938596Y-53274936D01*
X121938586Y-53274938D01*
X121710344Y-53336094D01*
X121710335Y-53336098D01*
X121496171Y-53435964D01*
X121496169Y-53435965D01*
X121302597Y-53571505D01*
X121135505Y-53738597D01*
X121005575Y-53924158D01*
X120950998Y-53967783D01*
X120881500Y-53974977D01*
X120819145Y-53943454D01*
X120802425Y-53924158D01*
X120672494Y-53738597D01*
X120505402Y-53571506D01*
X120505395Y-53571501D01*
X120311834Y-53435967D01*
X120311830Y-53435965D01*
X120240727Y-53402809D01*
X120097663Y-53336097D01*
X120097659Y-53336096D01*
X120097655Y-53336094D01*
X119869413Y-53274938D01*
X119869403Y-53274936D01*
X119634001Y-53254341D01*
X119633999Y-53254341D01*
X119398596Y-53274936D01*
X119398586Y-53274938D01*
X119170344Y-53336094D01*
X119170335Y-53336098D01*
X118956171Y-53435964D01*
X118956169Y-53435965D01*
X118762597Y-53571505D01*
X118595505Y-53738597D01*
X118465575Y-53924158D01*
X118410998Y-53967783D01*
X118341500Y-53974977D01*
X118279145Y-53943454D01*
X118262425Y-53924158D01*
X118132494Y-53738597D01*
X117965402Y-53571506D01*
X117965395Y-53571501D01*
X117771834Y-53435967D01*
X117771830Y-53435965D01*
X117700727Y-53402809D01*
X117557663Y-53336097D01*
X117557659Y-53336096D01*
X117557655Y-53336094D01*
X117329413Y-53274938D01*
X117329403Y-53274936D01*
X117094001Y-53254341D01*
X117093999Y-53254341D01*
X116858596Y-53274936D01*
X116858586Y-53274938D01*
X116630344Y-53336094D01*
X116630335Y-53336098D01*
X116416171Y-53435964D01*
X116416169Y-53435965D01*
X116222597Y-53571505D01*
X116055505Y-53738597D01*
X115925575Y-53924158D01*
X115870998Y-53967783D01*
X115801500Y-53974977D01*
X115739145Y-53943454D01*
X115722425Y-53924158D01*
X115592494Y-53738597D01*
X115425402Y-53571506D01*
X115425395Y-53571501D01*
X115231834Y-53435967D01*
X115231830Y-53435965D01*
X115160727Y-53402809D01*
X115017663Y-53336097D01*
X115017659Y-53336096D01*
X115017655Y-53336094D01*
X114789413Y-53274938D01*
X114789403Y-53274936D01*
X114554001Y-53254341D01*
X114553999Y-53254341D01*
X114318596Y-53274936D01*
X114318586Y-53274938D01*
X114090344Y-53336094D01*
X114090335Y-53336098D01*
X113876171Y-53435964D01*
X113876169Y-53435965D01*
X113682597Y-53571505D01*
X113515505Y-53738597D01*
X113385575Y-53924158D01*
X113330998Y-53967783D01*
X113261500Y-53974977D01*
X113199145Y-53943454D01*
X113182425Y-53924158D01*
X113052494Y-53738597D01*
X112885402Y-53571506D01*
X112885395Y-53571501D01*
X112691834Y-53435967D01*
X112691830Y-53435965D01*
X112620727Y-53402809D01*
X112477663Y-53336097D01*
X112477659Y-53336096D01*
X112477655Y-53336094D01*
X112249413Y-53274938D01*
X112249403Y-53274936D01*
X112014001Y-53254341D01*
X112013999Y-53254341D01*
X111778596Y-53274936D01*
X111778586Y-53274938D01*
X111550344Y-53336094D01*
X111550335Y-53336098D01*
X111336171Y-53435964D01*
X111336169Y-53435965D01*
X111142597Y-53571505D01*
X110975505Y-53738597D01*
X110845575Y-53924158D01*
X110790998Y-53967783D01*
X110721500Y-53974977D01*
X110659145Y-53943454D01*
X110642425Y-53924158D01*
X110512494Y-53738597D01*
X110345402Y-53571506D01*
X110345395Y-53571501D01*
X110151834Y-53435967D01*
X110151830Y-53435965D01*
X110080727Y-53402809D01*
X109937663Y-53336097D01*
X109937659Y-53336096D01*
X109937655Y-53336094D01*
X109709413Y-53274938D01*
X109709403Y-53274936D01*
X109474001Y-53254341D01*
X109473999Y-53254341D01*
X109238596Y-53274936D01*
X109238586Y-53274938D01*
X109010344Y-53336094D01*
X109010335Y-53336098D01*
X108796171Y-53435964D01*
X108796169Y-53435965D01*
X108602597Y-53571505D01*
X108435505Y-53738597D01*
X108305575Y-53924158D01*
X108250998Y-53967783D01*
X108181500Y-53974977D01*
X108119145Y-53943454D01*
X108102425Y-53924158D01*
X107972494Y-53738597D01*
X107805402Y-53571506D01*
X107805395Y-53571501D01*
X107611834Y-53435967D01*
X107611830Y-53435965D01*
X107540727Y-53402809D01*
X107397663Y-53336097D01*
X107397659Y-53336096D01*
X107397655Y-53336094D01*
X107169413Y-53274938D01*
X107169403Y-53274936D01*
X106934001Y-53254341D01*
X106933999Y-53254341D01*
X106698596Y-53274936D01*
X106698586Y-53274938D01*
X106470344Y-53336094D01*
X106470335Y-53336098D01*
X106256171Y-53435964D01*
X106256169Y-53435965D01*
X106062597Y-53571505D01*
X105895505Y-53738597D01*
X105765575Y-53924158D01*
X105710998Y-53967783D01*
X105641500Y-53974977D01*
X105579145Y-53943454D01*
X105562425Y-53924158D01*
X105432494Y-53738597D01*
X105265402Y-53571506D01*
X105265395Y-53571501D01*
X105071834Y-53435967D01*
X105071830Y-53435965D01*
X105000727Y-53402809D01*
X104857663Y-53336097D01*
X104857659Y-53336096D01*
X104857655Y-53336094D01*
X104629413Y-53274938D01*
X104629403Y-53274936D01*
X104394001Y-53254341D01*
X104393999Y-53254341D01*
X104158596Y-53274936D01*
X104158586Y-53274938D01*
X103930344Y-53336094D01*
X103930335Y-53336098D01*
X103716171Y-53435964D01*
X103716169Y-53435965D01*
X103522597Y-53571505D01*
X103355505Y-53738597D01*
X103225575Y-53924158D01*
X103170998Y-53967783D01*
X103101500Y-53974977D01*
X103039145Y-53943454D01*
X103022425Y-53924158D01*
X102892494Y-53738597D01*
X102725402Y-53571506D01*
X102725395Y-53571501D01*
X102531834Y-53435967D01*
X102531830Y-53435965D01*
X102460727Y-53402809D01*
X102317663Y-53336097D01*
X102317659Y-53336096D01*
X102317655Y-53336094D01*
X102089413Y-53274938D01*
X102089403Y-53274936D01*
X101854001Y-53254341D01*
X101853999Y-53254341D01*
X101618596Y-53274936D01*
X101618586Y-53274938D01*
X101390344Y-53336094D01*
X101390335Y-53336098D01*
X101176171Y-53435964D01*
X101176169Y-53435965D01*
X100982597Y-53571505D01*
X100815505Y-53738597D01*
X100685575Y-53924158D01*
X100630998Y-53967783D01*
X100561500Y-53974977D01*
X100499145Y-53943454D01*
X100482425Y-53924158D01*
X100352494Y-53738597D01*
X100185402Y-53571506D01*
X100185395Y-53571501D01*
X99991834Y-53435967D01*
X99991830Y-53435965D01*
X99920727Y-53402809D01*
X99777663Y-53336097D01*
X99777659Y-53336096D01*
X99777655Y-53336094D01*
X99549413Y-53274938D01*
X99549403Y-53274936D01*
X99314001Y-53254341D01*
X99313999Y-53254341D01*
X99078596Y-53274936D01*
X99078586Y-53274938D01*
X98850344Y-53336094D01*
X98850335Y-53336098D01*
X98636171Y-53435964D01*
X98636169Y-53435965D01*
X98442597Y-53571505D01*
X98275505Y-53738597D01*
X98145575Y-53924158D01*
X98090998Y-53967783D01*
X98021500Y-53974977D01*
X97959145Y-53943454D01*
X97942425Y-53924158D01*
X97812494Y-53738597D01*
X97645402Y-53571506D01*
X97645395Y-53571501D01*
X97451834Y-53435967D01*
X97451830Y-53435965D01*
X97380727Y-53402809D01*
X97237663Y-53336097D01*
X97237659Y-53336096D01*
X97237655Y-53336094D01*
X97009413Y-53274938D01*
X97009403Y-53274936D01*
X96774001Y-53254341D01*
X96773999Y-53254341D01*
X96538596Y-53274936D01*
X96538586Y-53274938D01*
X96310344Y-53336094D01*
X96310335Y-53336098D01*
X96096171Y-53435964D01*
X96096169Y-53435965D01*
X95902597Y-53571505D01*
X95735505Y-53738597D01*
X95605575Y-53924158D01*
X95550998Y-53967783D01*
X95481500Y-53974977D01*
X95419145Y-53943454D01*
X95402425Y-53924158D01*
X95272494Y-53738597D01*
X95105402Y-53571506D01*
X95105395Y-53571501D01*
X94911834Y-53435967D01*
X94911830Y-53435965D01*
X94840727Y-53402809D01*
X94697663Y-53336097D01*
X94697659Y-53336096D01*
X94697655Y-53336094D01*
X94469413Y-53274938D01*
X94469403Y-53274936D01*
X94234001Y-53254341D01*
X94233999Y-53254341D01*
X93998596Y-53274936D01*
X93998586Y-53274938D01*
X93770344Y-53336094D01*
X93770335Y-53336098D01*
X93556171Y-53435964D01*
X93556169Y-53435965D01*
X93362597Y-53571505D01*
X93195505Y-53738597D01*
X93065575Y-53924158D01*
X93010998Y-53967783D01*
X92941500Y-53974977D01*
X92879145Y-53943454D01*
X92862425Y-53924158D01*
X92732494Y-53738597D01*
X92565402Y-53571506D01*
X92565395Y-53571501D01*
X92371834Y-53435967D01*
X92371830Y-53435965D01*
X92300727Y-53402809D01*
X92157663Y-53336097D01*
X92157659Y-53336096D01*
X92157655Y-53336094D01*
X91929413Y-53274938D01*
X91929403Y-53274936D01*
X91694001Y-53254341D01*
X91693999Y-53254341D01*
X91458596Y-53274936D01*
X91458586Y-53274938D01*
X91230344Y-53336094D01*
X91230335Y-53336098D01*
X91016171Y-53435964D01*
X91016169Y-53435965D01*
X90822597Y-53571505D01*
X90655505Y-53738597D01*
X90525575Y-53924158D01*
X90470998Y-53967783D01*
X90401500Y-53974977D01*
X90339145Y-53943454D01*
X90322425Y-53924158D01*
X90192494Y-53738597D01*
X90025402Y-53571506D01*
X90025395Y-53571501D01*
X89831834Y-53435967D01*
X89831830Y-53435965D01*
X89760727Y-53402809D01*
X89617663Y-53336097D01*
X89617659Y-53336096D01*
X89617655Y-53336094D01*
X89389413Y-53274938D01*
X89389403Y-53274936D01*
X89154001Y-53254341D01*
X89153999Y-53254341D01*
X88918596Y-53274936D01*
X88918586Y-53274938D01*
X88690344Y-53336094D01*
X88690335Y-53336098D01*
X88476171Y-53435964D01*
X88476169Y-53435965D01*
X88282597Y-53571505D01*
X88115505Y-53738597D01*
X87985575Y-53924158D01*
X87930998Y-53967783D01*
X87861500Y-53974977D01*
X87799145Y-53943454D01*
X87782425Y-53924158D01*
X87652494Y-53738597D01*
X87485402Y-53571506D01*
X87485395Y-53571501D01*
X87291834Y-53435967D01*
X87291830Y-53435965D01*
X87220727Y-53402809D01*
X87077663Y-53336097D01*
X87077659Y-53336096D01*
X87077655Y-53336094D01*
X86849413Y-53274938D01*
X86849403Y-53274936D01*
X86614001Y-53254341D01*
X86613999Y-53254341D01*
X86378596Y-53274936D01*
X86378586Y-53274938D01*
X86150344Y-53336094D01*
X86150335Y-53336098D01*
X85936171Y-53435964D01*
X85936169Y-53435965D01*
X85742597Y-53571505D01*
X85575505Y-53738597D01*
X85445575Y-53924158D01*
X85390998Y-53967783D01*
X85321500Y-53974977D01*
X85259145Y-53943454D01*
X85242425Y-53924158D01*
X85112494Y-53738597D01*
X84945402Y-53571506D01*
X84945395Y-53571501D01*
X84751834Y-53435967D01*
X84751830Y-53435965D01*
X84680727Y-53402809D01*
X84537663Y-53336097D01*
X84537659Y-53336096D01*
X84537655Y-53336094D01*
X84309413Y-53274938D01*
X84309403Y-53274936D01*
X84074001Y-53254341D01*
X84073999Y-53254341D01*
X83838596Y-53274936D01*
X83838586Y-53274938D01*
X83610344Y-53336094D01*
X83610335Y-53336098D01*
X83396171Y-53435964D01*
X83396169Y-53435965D01*
X83202600Y-53571503D01*
X83080284Y-53693819D01*
X83018961Y-53727303D01*
X82949269Y-53722319D01*
X82893336Y-53680447D01*
X82876421Y-53649470D01*
X82827354Y-53517913D01*
X82827350Y-53517906D01*
X82741190Y-53402812D01*
X82741187Y-53402809D01*
X82626093Y-53316649D01*
X82626086Y-53316645D01*
X82491379Y-53266403D01*
X82491372Y-53266401D01*
X82431844Y-53260000D01*
X81784000Y-53260000D01*
X81784000Y-54176988D01*
X81726993Y-54144075D01*
X81599826Y-54110000D01*
X81468174Y-54110000D01*
X81341007Y-54144075D01*
X81284000Y-54176988D01*
X81284000Y-53260000D01*
X80636155Y-53260000D01*
X80576627Y-53266401D01*
X80576620Y-53266403D01*
X80441913Y-53316645D01*
X80441906Y-53316649D01*
X80326812Y-53402809D01*
X80326809Y-53402812D01*
X80240649Y-53517906D01*
X80240645Y-53517913D01*
X80190403Y-53652620D01*
X80190401Y-53652627D01*
X80184000Y-53712155D01*
X80184000Y-54360000D01*
X81100988Y-54360000D01*
X81068075Y-54417007D01*
X81034000Y-54544174D01*
X81034000Y-54675826D01*
X81068075Y-54802993D01*
X81100988Y-54860000D01*
X80184000Y-54860000D01*
X80184000Y-55507844D01*
X80190401Y-55567372D01*
X80190403Y-55567379D01*
X80240645Y-55702086D01*
X80240649Y-55702093D01*
X80326809Y-55817187D01*
X80326812Y-55817190D01*
X80441906Y-55903350D01*
X80441913Y-55903354D01*
X80576620Y-55953596D01*
X80576627Y-55953598D01*
X80636155Y-55959999D01*
X80636172Y-55960000D01*
X81284000Y-55960000D01*
X81284000Y-55043012D01*
X81341007Y-55075925D01*
X81468174Y-55110000D01*
X81599826Y-55110000D01*
X81726993Y-55075925D01*
X81784000Y-55043012D01*
X81784000Y-55960000D01*
X82431828Y-55960000D01*
X82431844Y-55959999D01*
X82491372Y-55953598D01*
X82491379Y-55953596D01*
X82626086Y-55903354D01*
X82626093Y-55903350D01*
X82741187Y-55817190D01*
X82741190Y-55817187D01*
X82827350Y-55702093D01*
X82827354Y-55702086D01*
X82876422Y-55570529D01*
X82918293Y-55514595D01*
X82983757Y-55490178D01*
X83052030Y-55505030D01*
X83080285Y-55526181D01*
X83202599Y-55648495D01*
X83226291Y-55665084D01*
X83396165Y-55784032D01*
X83396167Y-55784033D01*
X83396170Y-55784035D01*
X83610337Y-55883903D01*
X83838592Y-55945063D01*
X84026918Y-55961539D01*
X84073999Y-55965659D01*
X84074000Y-55965659D01*
X84074001Y-55965659D01*
X84113234Y-55962226D01*
X84309408Y-55945063D01*
X84537663Y-55883903D01*
X84751830Y-55784035D01*
X84945401Y-55648495D01*
X85112495Y-55481401D01*
X85242425Y-55295842D01*
X85297002Y-55252217D01*
X85366500Y-55245023D01*
X85428855Y-55276546D01*
X85445575Y-55295842D01*
X85575500Y-55481395D01*
X85575505Y-55481401D01*
X85742599Y-55648495D01*
X85766291Y-55665084D01*
X85936165Y-55784032D01*
X85936167Y-55784033D01*
X85936170Y-55784035D01*
X86150337Y-55883903D01*
X86378592Y-55945063D01*
X86566918Y-55961539D01*
X86613999Y-55965659D01*
X86614000Y-55965659D01*
X86614001Y-55965659D01*
X86653234Y-55962226D01*
X86849408Y-55945063D01*
X87077663Y-55883903D01*
X87291830Y-55784035D01*
X87485401Y-55648495D01*
X87652495Y-55481401D01*
X87782425Y-55295842D01*
X87837002Y-55252217D01*
X87906500Y-55245023D01*
X87968855Y-55276546D01*
X87985575Y-55295842D01*
X88115500Y-55481395D01*
X88115505Y-55481401D01*
X88282599Y-55648495D01*
X88306291Y-55665084D01*
X88476165Y-55784032D01*
X88476167Y-55784033D01*
X88476170Y-55784035D01*
X88690337Y-55883903D01*
X88918592Y-55945063D01*
X89106918Y-55961539D01*
X89153999Y-55965659D01*
X89154000Y-55965659D01*
X89154001Y-55965659D01*
X89193234Y-55962226D01*
X89389408Y-55945063D01*
X89617663Y-55883903D01*
X89831830Y-55784035D01*
X90025401Y-55648495D01*
X90192495Y-55481401D01*
X90322425Y-55295842D01*
X90377002Y-55252217D01*
X90446500Y-55245023D01*
X90508855Y-55276546D01*
X90525575Y-55295842D01*
X90655500Y-55481395D01*
X90655505Y-55481401D01*
X90822599Y-55648495D01*
X90846291Y-55665084D01*
X91016165Y-55784032D01*
X91016167Y-55784033D01*
X91016170Y-55784035D01*
X91230337Y-55883903D01*
X91458592Y-55945063D01*
X91646918Y-55961539D01*
X91693999Y-55965659D01*
X91694000Y-55965659D01*
X91694001Y-55965659D01*
X91733234Y-55962226D01*
X91929408Y-55945063D01*
X92157663Y-55883903D01*
X92371830Y-55784035D01*
X92565401Y-55648495D01*
X92732495Y-55481401D01*
X92862425Y-55295842D01*
X92917002Y-55252217D01*
X92986500Y-55245023D01*
X93048855Y-55276546D01*
X93065575Y-55295842D01*
X93195500Y-55481395D01*
X93195505Y-55481401D01*
X93362599Y-55648495D01*
X93386291Y-55665084D01*
X93556165Y-55784032D01*
X93556167Y-55784033D01*
X93556170Y-55784035D01*
X93770337Y-55883903D01*
X93998592Y-55945063D01*
X94186918Y-55961539D01*
X94233999Y-55965659D01*
X94234000Y-55965659D01*
X94234001Y-55965659D01*
X94273234Y-55962226D01*
X94469408Y-55945063D01*
X94697663Y-55883903D01*
X94911830Y-55784035D01*
X95105401Y-55648495D01*
X95272495Y-55481401D01*
X95402425Y-55295842D01*
X95457002Y-55252217D01*
X95526500Y-55245023D01*
X95588855Y-55276546D01*
X95605575Y-55295842D01*
X95735500Y-55481395D01*
X95735505Y-55481401D01*
X95902599Y-55648495D01*
X95926291Y-55665084D01*
X96096165Y-55784032D01*
X96096167Y-55784033D01*
X96096170Y-55784035D01*
X96310337Y-55883903D01*
X96538592Y-55945063D01*
X96726918Y-55961539D01*
X96773999Y-55965659D01*
X96774000Y-55965659D01*
X96774001Y-55965659D01*
X96813234Y-55962226D01*
X97009408Y-55945063D01*
X97237663Y-55883903D01*
X97451830Y-55784035D01*
X97645401Y-55648495D01*
X97812495Y-55481401D01*
X97942425Y-55295842D01*
X97997002Y-55252217D01*
X98066500Y-55245023D01*
X98128855Y-55276546D01*
X98145575Y-55295842D01*
X98275500Y-55481395D01*
X98275505Y-55481401D01*
X98442599Y-55648495D01*
X98466291Y-55665084D01*
X98636165Y-55784032D01*
X98636167Y-55784033D01*
X98636170Y-55784035D01*
X98850337Y-55883903D01*
X99078592Y-55945063D01*
X99266918Y-55961539D01*
X99313999Y-55965659D01*
X99314000Y-55965659D01*
X99314001Y-55965659D01*
X99353234Y-55962226D01*
X99549408Y-55945063D01*
X99777663Y-55883903D01*
X99991830Y-55784035D01*
X100185401Y-55648495D01*
X100352495Y-55481401D01*
X100482425Y-55295842D01*
X100537002Y-55252217D01*
X100606500Y-55245023D01*
X100668855Y-55276546D01*
X100685575Y-55295842D01*
X100815500Y-55481395D01*
X100815505Y-55481401D01*
X100982599Y-55648495D01*
X101006291Y-55665084D01*
X101176165Y-55784032D01*
X101176167Y-55784033D01*
X101176170Y-55784035D01*
X101390337Y-55883903D01*
X101618592Y-55945063D01*
X101806918Y-55961539D01*
X101853999Y-55965659D01*
X101854000Y-55965659D01*
X101854001Y-55965659D01*
X101893234Y-55962226D01*
X102089408Y-55945063D01*
X102317663Y-55883903D01*
X102531830Y-55784035D01*
X102725401Y-55648495D01*
X102892495Y-55481401D01*
X103022425Y-55295842D01*
X103077002Y-55252217D01*
X103146500Y-55245023D01*
X103208855Y-55276546D01*
X103225575Y-55295842D01*
X103355500Y-55481395D01*
X103355505Y-55481401D01*
X103522599Y-55648495D01*
X103546291Y-55665084D01*
X103716165Y-55784032D01*
X103716167Y-55784033D01*
X103716170Y-55784035D01*
X103930337Y-55883903D01*
X104158592Y-55945063D01*
X104346918Y-55961539D01*
X104393999Y-55965659D01*
X104394000Y-55965659D01*
X104394001Y-55965659D01*
X104433234Y-55962226D01*
X104629408Y-55945063D01*
X104857663Y-55883903D01*
X105071830Y-55784035D01*
X105265401Y-55648495D01*
X105432495Y-55481401D01*
X105562425Y-55295842D01*
X105617002Y-55252217D01*
X105686500Y-55245023D01*
X105748855Y-55276546D01*
X105765575Y-55295842D01*
X105895500Y-55481395D01*
X105895505Y-55481401D01*
X106062599Y-55648495D01*
X106086291Y-55665084D01*
X106256165Y-55784032D01*
X106256167Y-55784033D01*
X106256170Y-55784035D01*
X106470337Y-55883903D01*
X106698592Y-55945063D01*
X106886918Y-55961539D01*
X106933999Y-55965659D01*
X106934000Y-55965659D01*
X106934001Y-55965659D01*
X106973234Y-55962226D01*
X107169408Y-55945063D01*
X107397663Y-55883903D01*
X107611830Y-55784035D01*
X107805401Y-55648495D01*
X107972495Y-55481401D01*
X108102425Y-55295842D01*
X108157002Y-55252217D01*
X108226500Y-55245023D01*
X108288855Y-55276546D01*
X108305575Y-55295842D01*
X108435500Y-55481395D01*
X108435505Y-55481401D01*
X108602599Y-55648495D01*
X108626291Y-55665084D01*
X108796165Y-55784032D01*
X108796167Y-55784033D01*
X108796170Y-55784035D01*
X109010337Y-55883903D01*
X109238592Y-55945063D01*
X109426918Y-55961539D01*
X109473999Y-55965659D01*
X109474000Y-55965659D01*
X109474001Y-55965659D01*
X109513234Y-55962226D01*
X109709408Y-55945063D01*
X109937663Y-55883903D01*
X110151830Y-55784035D01*
X110345401Y-55648495D01*
X110512495Y-55481401D01*
X110642425Y-55295842D01*
X110697002Y-55252217D01*
X110766500Y-55245023D01*
X110828855Y-55276546D01*
X110845575Y-55295842D01*
X110975500Y-55481395D01*
X110975505Y-55481401D01*
X111142599Y-55648495D01*
X111166291Y-55665084D01*
X111336165Y-55784032D01*
X111336167Y-55784033D01*
X111336170Y-55784035D01*
X111341898Y-55786706D01*
X111394339Y-55832872D01*
X111413500Y-55899090D01*
X111413500Y-56425500D01*
X111393815Y-56492539D01*
X111341011Y-56538294D01*
X111289500Y-56549500D01*
X63586670Y-56549500D01*
X63586654Y-56549499D01*
X63579058Y-56549499D01*
X63420943Y-56549499D01*
X63344579Y-56569961D01*
X63268214Y-56590423D01*
X63268209Y-56590426D01*
X63131290Y-56669475D01*
X63131282Y-56669481D01*
X62359081Y-57441682D01*
X62359080Y-57441684D01*
X62314606Y-57518716D01*
X62280023Y-57578615D01*
X62239099Y-57731343D01*
X62239099Y-57731345D01*
X62239099Y-57899446D01*
X62239100Y-57899459D01*
X62239100Y-59860495D01*
X62219415Y-59927534D01*
X62174119Y-59969549D01*
X62091560Y-60014228D01*
X62091558Y-60014229D01*
X61913301Y-60152972D01*
X61913298Y-60152975D01*
X61760315Y-60319157D01*
X61636768Y-60508261D01*
X61546033Y-60715117D01*
X61490581Y-60934092D01*
X61471929Y-61159194D01*
X61471929Y-61159205D01*
X61490581Y-61384307D01*
X61546033Y-61603282D01*
X61636768Y-61810138D01*
X61760315Y-61999242D01*
X61913298Y-62165424D01*
X61913303Y-62165429D01*
X61965874Y-62206347D01*
X62006687Y-62263058D01*
X62010360Y-62332831D01*
X61975729Y-62393514D01*
X61965874Y-62402053D01*
X61913303Y-62442970D01*
X61913298Y-62442975D01*
X61760315Y-62609157D01*
X61636768Y-62798261D01*
X61546033Y-63005117D01*
X61490581Y-63224092D01*
X61471929Y-63449194D01*
X61471929Y-63449205D01*
X61490581Y-63674307D01*
X61546033Y-63893282D01*
X61636768Y-64100138D01*
X61760315Y-64289242D01*
X61913298Y-64455424D01*
X61913303Y-64455429D01*
X61965874Y-64496347D01*
X62006687Y-64553058D01*
X62010360Y-64622831D01*
X61975729Y-64683514D01*
X61965874Y-64692053D01*
X61913303Y-64732970D01*
X61913303Y-64732971D01*
X61760315Y-64899157D01*
X61636768Y-65088261D01*
X61546033Y-65295117D01*
X61490581Y-65514092D01*
X61471929Y-65739194D01*
X61471929Y-65739205D01*
X61490581Y-65964307D01*
X61546033Y-66183282D01*
X61636768Y-66390138D01*
X61760315Y-66579242D01*
X61913298Y-66745424D01*
X61913303Y-66745429D01*
X61965874Y-66786347D01*
X62006687Y-66843058D01*
X62010360Y-66912831D01*
X61975729Y-66973514D01*
X61965874Y-66982053D01*
X61913303Y-67022970D01*
X61913298Y-67022975D01*
X61760315Y-67189157D01*
X61636768Y-67378261D01*
X61546033Y-67585117D01*
X61490581Y-67804092D01*
X61471929Y-68029194D01*
X61471929Y-68029205D01*
X61490581Y-68254307D01*
X61546033Y-68473282D01*
X61636768Y-68680138D01*
X61760315Y-68869242D01*
X61913298Y-69035424D01*
X61913303Y-69035429D01*
X61965874Y-69076347D01*
X62006687Y-69133058D01*
X62010360Y-69202831D01*
X61975729Y-69263514D01*
X61965874Y-69272053D01*
X61913303Y-69312970D01*
X61913298Y-69312975D01*
X61760315Y-69479157D01*
X61636768Y-69668261D01*
X61546033Y-69875117D01*
X61490581Y-70094092D01*
X61471929Y-70319194D01*
X61471929Y-70319205D01*
X61490581Y-70544307D01*
X61546033Y-70763282D01*
X61636768Y-70970138D01*
X61760315Y-71159242D01*
X61913298Y-71325424D01*
X61913302Y-71325428D01*
X61994337Y-71388500D01*
X62091552Y-71464166D01*
X62091556Y-71464169D01*
X62174117Y-71508848D01*
X62223708Y-71558067D01*
X62239100Y-71617903D01*
X62239100Y-72912930D01*
X62239099Y-72912948D01*
X62239099Y-73078654D01*
X62239098Y-73078654D01*
X62280024Y-73231387D01*
X62291647Y-73251518D01*
X62291648Y-73251520D01*
X62359077Y-73368312D01*
X62359081Y-73368317D01*
X62477949Y-73487185D01*
X62477954Y-73487189D01*
X63131284Y-74140520D01*
X63131286Y-74140521D01*
X63131290Y-74140524D01*
X63268209Y-74219573D01*
X63268216Y-74219577D01*
X63420943Y-74260501D01*
X63420945Y-74260501D01*
X63586654Y-74260501D01*
X63586670Y-74260500D01*
X68493331Y-74260500D01*
X68493347Y-74260501D01*
X68500943Y-74260501D01*
X68659054Y-74260501D01*
X68659057Y-74260501D01*
X68811785Y-74219577D01*
X68861904Y-74190639D01*
X68948716Y-74140520D01*
X69060520Y-74028716D01*
X69060520Y-74028714D01*
X69070728Y-74018507D01*
X69070729Y-74018504D01*
X77682417Y-65406819D01*
X77743740Y-65373334D01*
X77770098Y-65370500D01*
X79099699Y-65370500D01*
X79166738Y-65390185D01*
X79212493Y-65442989D01*
X79217403Y-65455492D01*
X79245186Y-65539334D01*
X79337288Y-65688656D01*
X79461344Y-65812712D01*
X79610666Y-65904814D01*
X79777203Y-65959999D01*
X79879991Y-65970500D01*
X80680008Y-65970499D01*
X80680016Y-65970498D01*
X80680019Y-65970498D01*
X80740624Y-65964307D01*
X80782797Y-65959999D01*
X80949334Y-65904814D01*
X81098656Y-65812712D01*
X81192319Y-65719049D01*
X81253642Y-65685564D01*
X81323334Y-65690548D01*
X81367681Y-65719049D01*
X81461344Y-65812712D01*
X81610666Y-65904814D01*
X81777203Y-65959999D01*
X81879991Y-65970500D01*
X82680008Y-65970499D01*
X82680016Y-65970498D01*
X82680019Y-65970498D01*
X82740624Y-65964307D01*
X82782797Y-65959999D01*
X82949334Y-65904814D01*
X83098656Y-65812712D01*
X83222712Y-65688656D01*
X83314814Y-65539334D01*
X83342595Y-65455495D01*
X83382368Y-65398051D01*
X83446884Y-65371228D01*
X83460301Y-65370500D01*
X108749500Y-65370500D01*
X108816539Y-65390185D01*
X108862294Y-65442989D01*
X108873500Y-65494500D01*
X108873500Y-76180908D01*
X108853815Y-76247947D01*
X108801914Y-76293286D01*
X108796173Y-76295963D01*
X108796169Y-76295965D01*
X108602597Y-76431505D01*
X108435505Y-76598597D01*
X108305575Y-76784158D01*
X108250998Y-76827783D01*
X108181500Y-76834977D01*
X108119145Y-76803454D01*
X108102425Y-76784158D01*
X107972494Y-76598597D01*
X107805402Y-76431506D01*
X107805395Y-76431501D01*
X107611834Y-76295967D01*
X107611830Y-76295965D01*
X107606085Y-76293286D01*
X107397663Y-76196097D01*
X107397659Y-76196096D01*
X107397655Y-76196094D01*
X107169413Y-76134938D01*
X107169403Y-76134936D01*
X106934001Y-76114341D01*
X106933999Y-76114341D01*
X106698596Y-76134936D01*
X106698586Y-76134938D01*
X106470344Y-76196094D01*
X106470335Y-76196098D01*
X106256171Y-76295964D01*
X106256169Y-76295965D01*
X106062597Y-76431505D01*
X105895505Y-76598597D01*
X105765575Y-76784158D01*
X105710998Y-76827783D01*
X105641500Y-76834977D01*
X105579145Y-76803454D01*
X105562425Y-76784158D01*
X105432494Y-76598597D01*
X105265402Y-76431506D01*
X105265395Y-76431501D01*
X105071834Y-76295967D01*
X105071830Y-76295965D01*
X105066085Y-76293286D01*
X104857663Y-76196097D01*
X104857659Y-76196096D01*
X104857655Y-76196094D01*
X104629413Y-76134938D01*
X104629403Y-76134936D01*
X104394001Y-76114341D01*
X104393999Y-76114341D01*
X104158596Y-76134936D01*
X104158586Y-76134938D01*
X103930344Y-76196094D01*
X103930335Y-76196098D01*
X103716171Y-76295964D01*
X103716169Y-76295965D01*
X103522597Y-76431505D01*
X103355505Y-76598597D01*
X103225575Y-76784158D01*
X103170998Y-76827783D01*
X103101500Y-76834977D01*
X103039145Y-76803454D01*
X103022425Y-76784158D01*
X102892494Y-76598597D01*
X102725402Y-76431506D01*
X102725395Y-76431501D01*
X102531834Y-76295967D01*
X102531830Y-76295965D01*
X102526085Y-76293286D01*
X102317663Y-76196097D01*
X102317659Y-76196096D01*
X102317655Y-76196094D01*
X102089413Y-76134938D01*
X102089403Y-76134936D01*
X101854001Y-76114341D01*
X101853999Y-76114341D01*
X101618596Y-76134936D01*
X101618586Y-76134938D01*
X101390344Y-76196094D01*
X101390335Y-76196098D01*
X101176171Y-76295964D01*
X101176169Y-76295965D01*
X100982597Y-76431505D01*
X100815505Y-76598597D01*
X100685575Y-76784158D01*
X100630998Y-76827783D01*
X100561500Y-76834977D01*
X100499145Y-76803454D01*
X100482425Y-76784158D01*
X100352494Y-76598597D01*
X100185402Y-76431506D01*
X100185395Y-76431501D01*
X99991834Y-76295967D01*
X99991830Y-76295965D01*
X99986085Y-76293286D01*
X99777663Y-76196097D01*
X99777659Y-76196096D01*
X99777655Y-76196094D01*
X99549413Y-76134938D01*
X99549403Y-76134936D01*
X99314001Y-76114341D01*
X99313999Y-76114341D01*
X99078596Y-76134936D01*
X99078586Y-76134938D01*
X98850344Y-76196094D01*
X98850335Y-76196098D01*
X98636171Y-76295964D01*
X98636169Y-76295965D01*
X98442597Y-76431505D01*
X98275505Y-76598597D01*
X98145575Y-76784158D01*
X98090998Y-76827783D01*
X98021500Y-76834977D01*
X97959145Y-76803454D01*
X97942425Y-76784158D01*
X97812494Y-76598597D01*
X97645402Y-76431506D01*
X97645395Y-76431501D01*
X97451834Y-76295967D01*
X97451830Y-76295965D01*
X97446085Y-76293286D01*
X97237663Y-76196097D01*
X97237659Y-76196096D01*
X97237655Y-76196094D01*
X97009413Y-76134938D01*
X97009403Y-76134936D01*
X96774001Y-76114341D01*
X96773999Y-76114341D01*
X96538596Y-76134936D01*
X96538586Y-76134938D01*
X96310344Y-76196094D01*
X96310335Y-76196098D01*
X96096171Y-76295964D01*
X96096169Y-76295965D01*
X95902597Y-76431505D01*
X95735505Y-76598597D01*
X95605575Y-76784158D01*
X95550998Y-76827783D01*
X95481500Y-76834977D01*
X95419145Y-76803454D01*
X95402425Y-76784158D01*
X95272494Y-76598597D01*
X95105402Y-76431506D01*
X95105395Y-76431501D01*
X94911834Y-76295967D01*
X94911830Y-76295965D01*
X94906085Y-76293286D01*
X94697663Y-76196097D01*
X94697659Y-76196096D01*
X94697655Y-76196094D01*
X94469413Y-76134938D01*
X94469403Y-76134936D01*
X94234001Y-76114341D01*
X94233999Y-76114341D01*
X93998596Y-76134936D01*
X93998586Y-76134938D01*
X93770344Y-76196094D01*
X93770335Y-76196098D01*
X93556171Y-76295964D01*
X93556169Y-76295965D01*
X93362597Y-76431505D01*
X93195505Y-76598597D01*
X93065575Y-76784158D01*
X93010998Y-76827783D01*
X92941500Y-76834977D01*
X92879145Y-76803454D01*
X92862425Y-76784158D01*
X92732494Y-76598597D01*
X92565402Y-76431506D01*
X92565395Y-76431501D01*
X92371834Y-76295967D01*
X92371830Y-76295965D01*
X92366085Y-76293286D01*
X92157663Y-76196097D01*
X92157659Y-76196096D01*
X92157655Y-76196094D01*
X91929413Y-76134938D01*
X91929403Y-76134936D01*
X91694001Y-76114341D01*
X91693999Y-76114341D01*
X91458596Y-76134936D01*
X91458586Y-76134938D01*
X91230344Y-76196094D01*
X91230335Y-76196098D01*
X91016171Y-76295964D01*
X91016169Y-76295965D01*
X90822597Y-76431505D01*
X90655505Y-76598597D01*
X90525575Y-76784158D01*
X90470998Y-76827783D01*
X90401500Y-76834977D01*
X90339145Y-76803454D01*
X90322425Y-76784158D01*
X90192494Y-76598597D01*
X90025402Y-76431506D01*
X90025395Y-76431501D01*
X89831834Y-76295967D01*
X89831830Y-76295965D01*
X89826085Y-76293286D01*
X89617663Y-76196097D01*
X89617659Y-76196096D01*
X89617655Y-76196094D01*
X89389413Y-76134938D01*
X89389403Y-76134936D01*
X89154001Y-76114341D01*
X89153999Y-76114341D01*
X88918596Y-76134936D01*
X88918586Y-76134938D01*
X88690344Y-76196094D01*
X88690335Y-76196098D01*
X88476171Y-76295964D01*
X88476169Y-76295965D01*
X88282597Y-76431505D01*
X88115505Y-76598597D01*
X87985575Y-76784158D01*
X87930998Y-76827783D01*
X87861500Y-76834977D01*
X87799145Y-76803454D01*
X87782425Y-76784158D01*
X87652494Y-76598597D01*
X87485402Y-76431506D01*
X87485395Y-76431501D01*
X87291834Y-76295967D01*
X87291830Y-76295965D01*
X87286085Y-76293286D01*
X87077663Y-76196097D01*
X87077659Y-76196096D01*
X87077655Y-76196094D01*
X86849413Y-76134938D01*
X86849403Y-76134936D01*
X86614001Y-76114341D01*
X86613999Y-76114341D01*
X86378596Y-76134936D01*
X86378586Y-76134938D01*
X86150344Y-76196094D01*
X86150335Y-76196098D01*
X85936171Y-76295964D01*
X85936169Y-76295965D01*
X85742597Y-76431505D01*
X85575505Y-76598597D01*
X85445575Y-76784158D01*
X85390998Y-76827783D01*
X85321500Y-76834977D01*
X85259145Y-76803454D01*
X85242425Y-76784158D01*
X85112494Y-76598597D01*
X84945402Y-76431506D01*
X84945395Y-76431501D01*
X84751834Y-76295967D01*
X84751830Y-76295965D01*
X84746085Y-76293286D01*
X84537663Y-76196097D01*
X84537659Y-76196096D01*
X84537655Y-76196094D01*
X84309413Y-76134938D01*
X84309403Y-76134936D01*
X84074001Y-76114341D01*
X84073999Y-76114341D01*
X83838596Y-76134936D01*
X83838583Y-76134939D01*
X83710241Y-76169327D01*
X83640392Y-76167664D01*
X83590468Y-76137233D01*
X83440819Y-75987584D01*
X83407334Y-75926261D01*
X83404500Y-75899903D01*
X83404500Y-72718412D01*
X83424185Y-72651373D01*
X83431555Y-72641097D01*
X83433810Y-72638267D01*
X83433816Y-72638262D01*
X83529789Y-72485522D01*
X83589368Y-72315255D01*
X83598440Y-72234740D01*
X83609565Y-72136003D01*
X83609565Y-72135996D01*
X83589369Y-71956750D01*
X83589368Y-71956745D01*
X83529788Y-71786476D01*
X83468678Y-71689221D01*
X83433816Y-71633738D01*
X83306262Y-71506184D01*
X83153523Y-71410211D01*
X82983254Y-71350631D01*
X82983249Y-71350630D01*
X82804004Y-71330435D01*
X82803996Y-71330435D01*
X82624750Y-71350630D01*
X82624745Y-71350631D01*
X82454476Y-71410211D01*
X82301737Y-71506184D01*
X82174184Y-71633737D01*
X82078211Y-71786476D01*
X82018631Y-71956745D01*
X82018630Y-71956750D01*
X81998435Y-72135996D01*
X81998435Y-72136003D01*
X82018630Y-72315249D01*
X82018631Y-72315254D01*
X82078211Y-72485523D01*
X82124119Y-72558584D01*
X82160521Y-72616518D01*
X82174185Y-72638263D01*
X82176445Y-72641097D01*
X82177334Y-72643275D01*
X82177889Y-72644158D01*
X82177734Y-72644255D01*
X82202855Y-72705783D01*
X82203500Y-72718412D01*
X82203500Y-75899901D01*
X82183815Y-75966940D01*
X82167181Y-75987582D01*
X82071582Y-76083181D01*
X82010259Y-76116666D01*
X81983901Y-76119500D01*
X80636129Y-76119500D01*
X80636123Y-76119501D01*
X80576516Y-76125908D01*
X80441671Y-76176202D01*
X80441664Y-76176206D01*
X80326455Y-76262452D01*
X80326452Y-76262455D01*
X80240206Y-76377664D01*
X80240202Y-76377671D01*
X80189908Y-76512517D01*
X80183501Y-76572116D01*
X80183500Y-76572135D01*
X80183500Y-78367870D01*
X80183501Y-78367876D01*
X80189908Y-78427483D01*
X80240202Y-78562328D01*
X80240206Y-78562335D01*
X80326452Y-78677544D01*
X80326455Y-78677547D01*
X80441664Y-78763793D01*
X80441671Y-78763797D01*
X80576517Y-78814091D01*
X80576516Y-78814091D01*
X80583444Y-78814835D01*
X80636127Y-78820500D01*
X82431872Y-78820499D01*
X82491483Y-78814091D01*
X82626331Y-78763796D01*
X82741546Y-78677546D01*
X82827796Y-78562331D01*
X82876810Y-78430916D01*
X82918681Y-78374984D01*
X82984145Y-78350566D01*
X83052418Y-78365417D01*
X83080673Y-78386569D01*
X83202599Y-78508495D01*
X83299384Y-78576265D01*
X83396165Y-78644032D01*
X83396167Y-78644033D01*
X83396170Y-78644035D01*
X83610337Y-78743903D01*
X83838592Y-78805063D01*
X84015034Y-78820500D01*
X84073999Y-78825659D01*
X84074000Y-78825659D01*
X84074001Y-78825659D01*
X84132966Y-78820500D01*
X84309408Y-78805063D01*
X84537663Y-78743903D01*
X84751830Y-78644035D01*
X84945401Y-78508495D01*
X85112495Y-78341401D01*
X85226891Y-78178026D01*
X85242425Y-78155842D01*
X85297002Y-78112217D01*
X85366500Y-78105023D01*
X85428855Y-78136546D01*
X85445575Y-78155842D01*
X85575500Y-78341395D01*
X85575505Y-78341401D01*
X85742599Y-78508495D01*
X85839384Y-78576265D01*
X85936165Y-78644032D01*
X85936167Y-78644033D01*
X85936170Y-78644035D01*
X86150337Y-78743903D01*
X86378592Y-78805063D01*
X86555034Y-78820500D01*
X86613999Y-78825659D01*
X86614000Y-78825659D01*
X86614001Y-78825659D01*
X86672966Y-78820500D01*
X86849408Y-78805063D01*
X87077663Y-78743903D01*
X87291830Y-78644035D01*
X87485401Y-78508495D01*
X87652495Y-78341401D01*
X87766891Y-78178026D01*
X87782425Y-78155842D01*
X87837002Y-78112217D01*
X87906500Y-78105023D01*
X87968855Y-78136546D01*
X87985575Y-78155842D01*
X88115500Y-78341395D01*
X88115505Y-78341401D01*
X88282599Y-78508495D01*
X88379384Y-78576265D01*
X88476165Y-78644032D01*
X88476167Y-78644033D01*
X88476170Y-78644035D01*
X88690337Y-78743903D01*
X88918592Y-78805063D01*
X89095034Y-78820500D01*
X89153999Y-78825659D01*
X89154000Y-78825659D01*
X89154001Y-78825659D01*
X89212966Y-78820500D01*
X89389408Y-78805063D01*
X89617663Y-78743903D01*
X89831830Y-78644035D01*
X90025401Y-78508495D01*
X90192495Y-78341401D01*
X90306891Y-78178026D01*
X90322425Y-78155842D01*
X90377002Y-78112217D01*
X90446500Y-78105023D01*
X90508855Y-78136546D01*
X90525575Y-78155842D01*
X90655500Y-78341395D01*
X90655505Y-78341401D01*
X90822599Y-78508495D01*
X90919384Y-78576265D01*
X91016165Y-78644032D01*
X91016167Y-78644033D01*
X91016170Y-78644035D01*
X91230337Y-78743903D01*
X91458592Y-78805063D01*
X91635034Y-78820500D01*
X91693999Y-78825659D01*
X91694000Y-78825659D01*
X91694001Y-78825659D01*
X91752966Y-78820500D01*
X91929408Y-78805063D01*
X92157663Y-78743903D01*
X92371830Y-78644035D01*
X92565401Y-78508495D01*
X92732495Y-78341401D01*
X92846891Y-78178026D01*
X92862425Y-78155842D01*
X92917002Y-78112217D01*
X92986500Y-78105023D01*
X93048855Y-78136546D01*
X93065575Y-78155842D01*
X93195500Y-78341395D01*
X93195505Y-78341401D01*
X93362599Y-78508495D01*
X93459384Y-78576265D01*
X93556165Y-78644032D01*
X93556167Y-78644033D01*
X93556170Y-78644035D01*
X93561898Y-78646706D01*
X93614339Y-78692872D01*
X93633500Y-78759090D01*
X93633500Y-79415330D01*
X93633499Y-79415348D01*
X93633499Y-79581054D01*
X93633498Y-79581054D01*
X93674423Y-79733784D01*
X93674424Y-79733788D01*
X93703114Y-79783481D01*
X93703115Y-79783481D01*
X93753477Y-79870712D01*
X93753481Y-79870717D01*
X93872349Y-79989585D01*
X93872354Y-79989589D01*
X94627284Y-80744520D01*
X94627285Y-80744521D01*
X94627287Y-80744522D01*
X94639049Y-80751313D01*
X94687265Y-80801880D01*
X94700487Y-80870487D01*
X94674519Y-80935352D01*
X94617605Y-80975880D01*
X94577049Y-80982700D01*
X66780904Y-80982700D01*
X66713865Y-80963015D01*
X66668110Y-80910211D01*
X66658166Y-80841053D01*
X66687191Y-80777497D01*
X66716755Y-80752583D01*
X66878039Y-80655084D01*
X66878046Y-80655079D01*
X67056844Y-80514999D01*
X67056844Y-80514998D01*
X66338196Y-79796350D01*
X66438217Y-79723681D01*
X66619081Y-79542817D01*
X66691750Y-79442796D01*
X67410398Y-80161444D01*
X67410399Y-80161444D01*
X67550479Y-79982646D01*
X67550484Y-79982639D01*
X67715263Y-79710058D01*
X67715268Y-79710048D01*
X67846000Y-79419573D01*
X67846004Y-79419562D01*
X67940763Y-79115469D01*
X67998180Y-78802148D01*
X68017412Y-78484200D01*
X67998180Y-78166251D01*
X67940763Y-77852930D01*
X67846004Y-77548837D01*
X67846000Y-77548826D01*
X67715268Y-77258351D01*
X67715263Y-77258341D01*
X67550484Y-76985760D01*
X67550479Y-76985753D01*
X67410398Y-76806954D01*
X66691749Y-77525602D01*
X66619081Y-77425583D01*
X66438217Y-77244719D01*
X66338195Y-77172049D01*
X67056844Y-76453400D01*
X67056844Y-76453399D01*
X66878055Y-76313326D01*
X66878040Y-76313316D01*
X66605458Y-76148536D01*
X66605448Y-76148531D01*
X66314973Y-76017799D01*
X66314962Y-76017795D01*
X66010869Y-75923036D01*
X65697548Y-75865619D01*
X65379600Y-75846387D01*
X65061651Y-75865619D01*
X64748330Y-75923036D01*
X64444237Y-76017795D01*
X64444226Y-76017799D01*
X64153751Y-76148531D01*
X64153741Y-76148536D01*
X63881157Y-76313317D01*
X63881153Y-76313320D01*
X63702354Y-76453399D01*
X63702354Y-76453400D01*
X64421003Y-77172049D01*
X64320983Y-77244719D01*
X64140119Y-77425583D01*
X64067449Y-77525603D01*
X63348800Y-76806954D01*
X63348799Y-76806954D01*
X63208720Y-76985753D01*
X63208717Y-76985757D01*
X63043936Y-77258341D01*
X63043931Y-77258351D01*
X62913199Y-77548826D01*
X62913195Y-77548837D01*
X62818436Y-77852930D01*
X62761019Y-78166251D01*
X62741787Y-78484200D01*
X62761019Y-78802148D01*
X62818436Y-79115469D01*
X62913195Y-79419562D01*
X62913199Y-79419573D01*
X63043931Y-79710048D01*
X63043936Y-79710058D01*
X63208716Y-79982640D01*
X63208726Y-79982655D01*
X63348799Y-80161444D01*
X63348800Y-80161444D01*
X64067449Y-79442795D01*
X64140119Y-79542817D01*
X64320983Y-79723681D01*
X64421003Y-79796349D01*
X63702354Y-80514998D01*
X63702354Y-80514999D01*
X63881153Y-80655079D01*
X63881160Y-80655084D01*
X64042445Y-80752583D01*
X64089633Y-80804110D01*
X64101472Y-80872970D01*
X64074204Y-80937298D01*
X64016485Y-80976673D01*
X63978296Y-80982700D01*
X54497900Y-80982700D01*
X54430861Y-80963015D01*
X54385106Y-80910211D01*
X54373900Y-80858700D01*
X54373900Y-51119700D01*
X54393585Y-51052661D01*
X54446389Y-51006906D01*
X54497900Y-50995700D01*
X63978296Y-50995700D01*
X64045335Y-51015385D01*
G37*
G04 #@! TD.AperFunction*
G04 #@! TA.AperFunction,Conductor*
G36*
X143039583Y-75804185D02*
G01*
X143085338Y-75856989D01*
X143095282Y-75926147D01*
X143066257Y-75989703D01*
X143023435Y-76021576D01*
X142741351Y-76148531D01*
X142741341Y-76148536D01*
X142468757Y-76313317D01*
X142468753Y-76313320D01*
X142289954Y-76453399D01*
X142289954Y-76453400D01*
X143008603Y-77172049D01*
X142908583Y-77244719D01*
X142727719Y-77425583D01*
X142655049Y-77525603D01*
X141936400Y-76806954D01*
X141936399Y-76806954D01*
X141796320Y-76985753D01*
X141796317Y-76985757D01*
X141631536Y-77258341D01*
X141631531Y-77258351D01*
X141500799Y-77548826D01*
X141500795Y-77548837D01*
X141406036Y-77852930D01*
X141348619Y-78166251D01*
X141329387Y-78484200D01*
X141348619Y-78802148D01*
X141406036Y-79115469D01*
X141500795Y-79419562D01*
X141500799Y-79419573D01*
X141631531Y-79710048D01*
X141631536Y-79710058D01*
X141796316Y-79982640D01*
X141796326Y-79982655D01*
X141936400Y-80161444D01*
X142655048Y-79442795D01*
X142727719Y-79542817D01*
X142908583Y-79723681D01*
X143008603Y-79796349D01*
X142289954Y-80514998D01*
X142289954Y-80514999D01*
X142468753Y-80655079D01*
X142468760Y-80655084D01*
X142630045Y-80752583D01*
X142677233Y-80804110D01*
X142689072Y-80872970D01*
X142661804Y-80937298D01*
X142604085Y-80976673D01*
X142565896Y-80982700D01*
X135038949Y-80982700D01*
X134971910Y-80963015D01*
X134926155Y-80910211D01*
X134916211Y-80841053D01*
X134945236Y-80777497D01*
X134976951Y-80751312D01*
X134988716Y-80744520D01*
X135100520Y-80632716D01*
X135100520Y-80632714D01*
X135110728Y-80622507D01*
X135110729Y-80622504D01*
X139912416Y-75820819D01*
X139973739Y-75787334D01*
X140000097Y-75784500D01*
X142972544Y-75784500D01*
X143039583Y-75804185D01*
G37*
G04 #@! TD.AperFunction*
G04 #@! TA.AperFunction,Conductor*
G36*
X63934544Y-71249259D02*
G01*
X63992160Y-71288783D01*
X64019261Y-71353182D01*
X64019625Y-71377371D01*
X64012430Y-71464204D01*
X64012430Y-71464206D01*
X64031074Y-71689221D01*
X64031076Y-71689229D01*
X64086507Y-71908120D01*
X64177208Y-72114897D01*
X64255505Y-72234740D01*
X64835399Y-71654846D01*
X64843785Y-71686142D01*
X64919485Y-71817258D01*
X65026542Y-71924315D01*
X65157658Y-72000015D01*
X65188953Y-72008400D01*
X64607523Y-72589829D01*
X64631829Y-72608748D01*
X64830412Y-72716217D01*
X64830418Y-72716219D01*
X65043977Y-72789534D01*
X65185744Y-72813191D01*
X65248630Y-72843641D01*
X65285069Y-72903256D01*
X65283494Y-72973108D01*
X65244405Y-73031020D01*
X65180211Y-73058604D01*
X65165335Y-73059500D01*
X63800098Y-73059500D01*
X63733059Y-73039815D01*
X63712417Y-73023181D01*
X63476419Y-72787183D01*
X63442934Y-72725860D01*
X63440100Y-72699502D01*
X63440100Y-71617903D01*
X63459785Y-71550864D01*
X63505083Y-71508848D01*
X63561090Y-71478539D01*
X63587645Y-71464168D01*
X63765898Y-71325428D01*
X63804819Y-71283147D01*
X63864705Y-71247158D01*
X63934544Y-71249259D01*
G37*
G04 #@! TD.AperFunction*
G04 #@! TA.AperFunction,Conductor*
G36*
X64396888Y-70122631D02*
G01*
X64414929Y-70138744D01*
X64453302Y-70180428D01*
X64453306Y-70180431D01*
X64453308Y-70180433D01*
X64558124Y-70262015D01*
X64598937Y-70318725D01*
X64600754Y-70331800D01*
X65188953Y-70919999D01*
X65157658Y-70928385D01*
X65026542Y-71004085D01*
X64919485Y-71111142D01*
X64843785Y-71242258D01*
X64835399Y-71273552D01*
X64221776Y-70659929D01*
X64188291Y-70598606D01*
X64189126Y-70549597D01*
X64187774Y-70549372D01*
X64188618Y-70544309D01*
X64207271Y-70319205D01*
X64207271Y-70319194D01*
X64200126Y-70232970D01*
X64214207Y-70164534D01*
X64263052Y-70114575D01*
X64331153Y-70098954D01*
X64396888Y-70122631D01*
G37*
G04 #@! TD.AperFunction*
G04 #@! TA.AperFunction,Conductor*
G36*
X66471095Y-70108004D02*
G01*
X66528711Y-70147527D01*
X66555813Y-70211927D01*
X66556600Y-70225877D01*
X66556600Y-70589390D01*
X66536915Y-70656429D01*
X66520281Y-70677071D01*
X65923800Y-71273552D01*
X65915415Y-71242258D01*
X65839715Y-71111142D01*
X65732658Y-71004085D01*
X65601542Y-70928385D01*
X65570246Y-70919999D01*
X66162534Y-70327711D01*
X66168968Y-70299421D01*
X66201072Y-70262017D01*
X66305898Y-70180428D01*
X66341372Y-70141892D01*
X66401257Y-70105904D01*
X66471095Y-70108004D01*
G37*
G04 #@! TD.AperFunction*
G04 #@! TA.AperFunction,Conductor*
G36*
X145125023Y-61318470D02*
G01*
X145158508Y-61379793D01*
X145157683Y-61428804D01*
X145159026Y-61429028D01*
X145158181Y-61434090D01*
X145140573Y-61646596D01*
X145139529Y-61659200D01*
X145141168Y-61678980D01*
X145146674Y-61745430D01*
X145132592Y-61813866D01*
X145083746Y-61863825D01*
X145015645Y-61879445D01*
X144949910Y-61855767D01*
X144931868Y-61839653D01*
X144908129Y-61813866D01*
X144893498Y-61797972D01*
X144893497Y-61797971D01*
X144893496Y-61797970D01*
X144788673Y-61716383D01*
X144747860Y-61659673D01*
X144746042Y-61646596D01*
X144157846Y-61058400D01*
X144189142Y-61050015D01*
X144320258Y-60974315D01*
X144427315Y-60867258D01*
X144503015Y-60736142D01*
X144511400Y-60704847D01*
X145125023Y-61318470D01*
G37*
G04 #@! TD.AperFunction*
G04 #@! TA.AperFunction,Conductor*
G36*
X143431385Y-60736142D02*
G01*
X143507085Y-60867258D01*
X143614142Y-60974315D01*
X143745258Y-61050015D01*
X143776552Y-61058400D01*
X143184264Y-61650687D01*
X143177831Y-61678980D01*
X143145724Y-61716385D01*
X143040908Y-61797966D01*
X143040904Y-61797970D01*
X143040902Y-61797971D01*
X143040902Y-61797972D01*
X143026271Y-61813866D01*
X143005428Y-61836507D01*
X142945541Y-61872497D01*
X142875703Y-61870396D01*
X142818087Y-61830871D01*
X142790986Y-61766472D01*
X142790199Y-61752523D01*
X142790199Y-61389008D01*
X142809884Y-61321969D01*
X142826518Y-61301327D01*
X143422999Y-60704845D01*
X143431385Y-60736142D01*
G37*
G04 #@! TD.AperFunction*
M02*
