G04 #@! TF.GenerationSoftware,KiCad,Pcbnew,8.0.9-8.0.9-0~ubuntu20.04.1*
G04 #@! TF.CreationDate,2025-06-05T20:47:59+01:00*
G04 #@! TF.ProjectId,ggroohauga-console,6767726f-6f68-4617-9567-612d636f6e73,rev?*
G04 #@! TF.SameCoordinates,Original*
G04 #@! TF.FileFunction,Legend,Top*
G04 #@! TF.FilePolarity,Positive*
%FSLAX46Y46*%
G04 Gerber Fmt 4.6, Leading zero omitted, Abs format (unit mm)*
G04 Created by KiCad (PCBNEW 8.0.9-8.0.9-0~ubuntu20.04.1) date 2025-06-05 20:47:59*
%MOMM*%
%LPD*%
G01*
G04 APERTURE LIST*
G04 Aperture macros list*
%AMRoundRect*
0 Rectangle with rounded corners*
0 $1 Rounding radius*
0 $2 $3 $4 $5 $6 $7 $8 $9 X,Y pos of 4 corners*
0 Add a 4 corners polygon primitive as box body*
4,1,4,$2,$3,$4,$5,$6,$7,$8,$9,$2,$3,0*
0 Add four circle primitives for the rounded corners*
1,1,$1+$1,$2,$3*
1,1,$1+$1,$4,$5*
1,1,$1+$1,$6,$7*
1,1,$1+$1,$8,$9*
0 Add four rect primitives between the rounded corners*
20,1,$1+$1,$2,$3,$4,$5,0*
20,1,$1+$1,$4,$5,$6,$7,0*
20,1,$1+$1,$6,$7,$8,$9,0*
20,1,$1+$1,$8,$9,$2,$3,0*%
G04 Aperture macros list end*
%ADD10C,0.150000*%
%ADD11C,0.120000*%
%ADD12C,0.127000*%
%ADD13C,0.200000*%
%ADD14RoundRect,0.150000X-0.587500X-0.150000X0.587500X-0.150000X0.587500X0.150000X-0.587500X0.150000X0*%
%ADD15R,1.700000X1.700000*%
%ADD16O,1.700000X1.700000*%
%ADD17C,4.470000*%
%ADD18RoundRect,0.102000X-0.862500X0.862500X-0.862500X-0.862500X0.862500X-0.862500X0.862500X0.862500X0*%
%ADD19C,1.929000*%
G04 APERTURE END LIST*
D10*
X73366476Y-62765080D02*
X73318857Y-62812700D01*
X73318857Y-62812700D02*
X73176000Y-62860319D01*
X73176000Y-62860319D02*
X73080762Y-62860319D01*
X73080762Y-62860319D02*
X72937905Y-62812700D01*
X72937905Y-62812700D02*
X72842667Y-62717461D01*
X72842667Y-62717461D02*
X72795048Y-62622223D01*
X72795048Y-62622223D02*
X72747429Y-62431747D01*
X72747429Y-62431747D02*
X72747429Y-62288890D01*
X72747429Y-62288890D02*
X72795048Y-62098414D01*
X72795048Y-62098414D02*
X72842667Y-62003176D01*
X72842667Y-62003176D02*
X72937905Y-61907938D01*
X72937905Y-61907938D02*
X73080762Y-61860319D01*
X73080762Y-61860319D02*
X73176000Y-61860319D01*
X73176000Y-61860319D02*
X73318857Y-61907938D01*
X73318857Y-61907938D02*
X73366476Y-61955557D01*
X73795048Y-62479366D02*
X74556953Y-62479366D01*
X75699809Y-62955557D02*
X75604571Y-62907938D01*
X75604571Y-62907938D02*
X75509333Y-62812700D01*
X75509333Y-62812700D02*
X75366476Y-62669842D01*
X75366476Y-62669842D02*
X75271238Y-62622223D01*
X75271238Y-62622223D02*
X75176000Y-62622223D01*
X75223619Y-62860319D02*
X75128381Y-62812700D01*
X75128381Y-62812700D02*
X75033143Y-62717461D01*
X75033143Y-62717461D02*
X74985524Y-62526985D01*
X74985524Y-62526985D02*
X74985524Y-62193652D01*
X74985524Y-62193652D02*
X75033143Y-62003176D01*
X75033143Y-62003176D02*
X75128381Y-61907938D01*
X75128381Y-61907938D02*
X75223619Y-61860319D01*
X75223619Y-61860319D02*
X75414095Y-61860319D01*
X75414095Y-61860319D02*
X75509333Y-61907938D01*
X75509333Y-61907938D02*
X75604571Y-62003176D01*
X75604571Y-62003176D02*
X75652190Y-62193652D01*
X75652190Y-62193652D02*
X75652190Y-62526985D01*
X75652190Y-62526985D02*
X75604571Y-62717461D01*
X75604571Y-62717461D02*
X75509333Y-62812700D01*
X75509333Y-62812700D02*
X75414095Y-62860319D01*
X75414095Y-62860319D02*
X75223619Y-62860319D01*
X76604571Y-62860319D02*
X76033143Y-62860319D01*
X76318857Y-62860319D02*
X76318857Y-61860319D01*
X76318857Y-61860319D02*
X76223619Y-62003176D01*
X76223619Y-62003176D02*
X76128381Y-62098414D01*
X76128381Y-62098414D02*
X76033143Y-62146033D01*
X79171200Y-56348094D02*
X79218819Y-56205237D01*
X79218819Y-56205237D02*
X79218819Y-55967142D01*
X79218819Y-55967142D02*
X79171200Y-55871904D01*
X79171200Y-55871904D02*
X79123580Y-55824285D01*
X79123580Y-55824285D02*
X79028342Y-55776666D01*
X79028342Y-55776666D02*
X78933104Y-55776666D01*
X78933104Y-55776666D02*
X78837866Y-55824285D01*
X78837866Y-55824285D02*
X78790247Y-55871904D01*
X78790247Y-55871904D02*
X78742628Y-55967142D01*
X78742628Y-55967142D02*
X78695009Y-56157618D01*
X78695009Y-56157618D02*
X78647390Y-56252856D01*
X78647390Y-56252856D02*
X78599771Y-56300475D01*
X78599771Y-56300475D02*
X78504533Y-56348094D01*
X78504533Y-56348094D02*
X78409295Y-56348094D01*
X78409295Y-56348094D02*
X78314057Y-56300475D01*
X78314057Y-56300475D02*
X78266438Y-56252856D01*
X78266438Y-56252856D02*
X78218819Y-56157618D01*
X78218819Y-56157618D02*
X78218819Y-55919523D01*
X78218819Y-55919523D02*
X78266438Y-55776666D01*
X78218819Y-55443332D02*
X78218819Y-54824285D01*
X78218819Y-54824285D02*
X78599771Y-55157618D01*
X78599771Y-55157618D02*
X78599771Y-55014761D01*
X78599771Y-55014761D02*
X78647390Y-54919523D01*
X78647390Y-54919523D02*
X78695009Y-54871904D01*
X78695009Y-54871904D02*
X78790247Y-54824285D01*
X78790247Y-54824285D02*
X79028342Y-54824285D01*
X79028342Y-54824285D02*
X79123580Y-54871904D01*
X79123580Y-54871904D02*
X79171200Y-54919523D01*
X79171200Y-54919523D02*
X79218819Y-55014761D01*
X79218819Y-55014761D02*
X79218819Y-55300475D01*
X79218819Y-55300475D02*
X79171200Y-55395713D01*
X79171200Y-55395713D02*
X79123580Y-55443332D01*
X79218819Y-53824285D02*
X78742628Y-54157618D01*
X79218819Y-54395713D02*
X78218819Y-54395713D01*
X78218819Y-54395713D02*
X78218819Y-54014761D01*
X78218819Y-54014761D02*
X78266438Y-53919523D01*
X78266438Y-53919523D02*
X78314057Y-53871904D01*
X78314057Y-53871904D02*
X78409295Y-53824285D01*
X78409295Y-53824285D02*
X78552152Y-53824285D01*
X78552152Y-53824285D02*
X78647390Y-53871904D01*
X78647390Y-53871904D02*
X78695009Y-53919523D01*
X78695009Y-53919523D02*
X78742628Y-54014761D01*
X78742628Y-54014761D02*
X78742628Y-54395713D01*
X79218819Y-52871904D02*
X79218819Y-53443332D01*
X79218819Y-53157618D02*
X78218819Y-53157618D01*
X78218819Y-53157618D02*
X78361676Y-53252856D01*
X78361676Y-53252856D02*
X78456914Y-53348094D01*
X78456914Y-53348094D02*
X78504533Y-53443332D01*
X72874180Y-55080866D02*
X72921800Y-55128485D01*
X72921800Y-55128485D02*
X72969419Y-55271342D01*
X72969419Y-55271342D02*
X72969419Y-55366580D01*
X72969419Y-55366580D02*
X72921800Y-55509437D01*
X72921800Y-55509437D02*
X72826561Y-55604675D01*
X72826561Y-55604675D02*
X72731323Y-55652294D01*
X72731323Y-55652294D02*
X72540847Y-55699913D01*
X72540847Y-55699913D02*
X72397990Y-55699913D01*
X72397990Y-55699913D02*
X72207514Y-55652294D01*
X72207514Y-55652294D02*
X72112276Y-55604675D01*
X72112276Y-55604675D02*
X72017038Y-55509437D01*
X72017038Y-55509437D02*
X71969419Y-55366580D01*
X71969419Y-55366580D02*
X71969419Y-55271342D01*
X71969419Y-55271342D02*
X72017038Y-55128485D01*
X72017038Y-55128485D02*
X72064657Y-55080866D01*
X72588466Y-54652294D02*
X72588466Y-53890390D01*
X71969419Y-53128485D02*
X72683704Y-53128485D01*
X72683704Y-53128485D02*
X72826561Y-53176104D01*
X72826561Y-53176104D02*
X72921800Y-53271342D01*
X72921800Y-53271342D02*
X72969419Y-53414199D01*
X72969419Y-53414199D02*
X72969419Y-53509437D01*
X72969419Y-52128485D02*
X72969419Y-52699913D01*
X72969419Y-52414199D02*
X71969419Y-52414199D01*
X71969419Y-52414199D02*
X72112276Y-52509437D01*
X72112276Y-52509437D02*
X72207514Y-52604675D01*
X72207514Y-52604675D02*
X72255133Y-52699913D01*
X79171200Y-79112856D02*
X79218819Y-78969999D01*
X79218819Y-78969999D02*
X79218819Y-78731904D01*
X79218819Y-78731904D02*
X79171200Y-78636666D01*
X79171200Y-78636666D02*
X79123580Y-78589047D01*
X79123580Y-78589047D02*
X79028342Y-78541428D01*
X79028342Y-78541428D02*
X78933104Y-78541428D01*
X78933104Y-78541428D02*
X78837866Y-78589047D01*
X78837866Y-78589047D02*
X78790247Y-78636666D01*
X78790247Y-78636666D02*
X78742628Y-78731904D01*
X78742628Y-78731904D02*
X78695009Y-78922380D01*
X78695009Y-78922380D02*
X78647390Y-79017618D01*
X78647390Y-79017618D02*
X78599771Y-79065237D01*
X78599771Y-79065237D02*
X78504533Y-79112856D01*
X78504533Y-79112856D02*
X78409295Y-79112856D01*
X78409295Y-79112856D02*
X78314057Y-79065237D01*
X78314057Y-79065237D02*
X78266438Y-79017618D01*
X78266438Y-79017618D02*
X78218819Y-78922380D01*
X78218819Y-78922380D02*
X78218819Y-78684285D01*
X78218819Y-78684285D02*
X78266438Y-78541428D01*
X78218819Y-78208094D02*
X78218819Y-77589047D01*
X78218819Y-77589047D02*
X78599771Y-77922380D01*
X78599771Y-77922380D02*
X78599771Y-77779523D01*
X78599771Y-77779523D02*
X78647390Y-77684285D01*
X78647390Y-77684285D02*
X78695009Y-77636666D01*
X78695009Y-77636666D02*
X78790247Y-77589047D01*
X78790247Y-77589047D02*
X79028342Y-77589047D01*
X79028342Y-77589047D02*
X79123580Y-77636666D01*
X79123580Y-77636666D02*
X79171200Y-77684285D01*
X79171200Y-77684285D02*
X79218819Y-77779523D01*
X79218819Y-77779523D02*
X79218819Y-78065237D01*
X79218819Y-78065237D02*
X79171200Y-78160475D01*
X79171200Y-78160475D02*
X79123580Y-78208094D01*
X79218819Y-76684285D02*
X79218819Y-77160475D01*
X79218819Y-77160475D02*
X78218819Y-77160475D01*
X79218819Y-75827142D02*
X79218819Y-76398570D01*
X79218819Y-76112856D02*
X78218819Y-76112856D01*
X78218819Y-76112856D02*
X78361676Y-76208094D01*
X78361676Y-76208094D02*
X78456914Y-76303332D01*
X78456914Y-76303332D02*
X78504533Y-76398570D01*
D11*
X74676000Y-63972000D02*
X74026000Y-63972000D01*
X74676000Y-63972000D02*
X75326000Y-63972000D01*
X74676000Y-67092000D02*
X74026000Y-67092000D01*
X74676000Y-67092000D02*
X75326000Y-67092000D01*
X73513500Y-64022000D02*
X73273500Y-63692000D01*
X73753500Y-63692000D01*
X73513500Y-64022000D01*
G36*
X73513500Y-64022000D02*
G01*
X73273500Y-63692000D01*
X73753500Y-63692000D01*
X73513500Y-64022000D01*
G37*
X80204000Y-53280000D02*
X81534000Y-53280000D01*
X80204000Y-54610000D02*
X80204000Y-53280000D01*
X82804000Y-53280000D02*
X131124000Y-53280000D01*
X82804000Y-55940000D02*
X82804000Y-53280000D01*
X82804000Y-55940000D02*
X131124000Y-55940000D01*
X131124000Y-55940000D02*
X131124000Y-53280000D01*
D12*
X53949600Y-50584200D02*
X70049600Y-50584200D01*
X53949600Y-81394200D02*
X70049600Y-81394200D01*
X70049600Y-50584200D02*
X70049600Y-81394200D01*
D13*
X70729600Y-61659200D02*
G75*
G02*
X70529600Y-61659200I-100000J0D01*
G01*
X70529600Y-61659200D02*
G75*
G02*
X70729600Y-61659200I100000J0D01*
G01*
D11*
X80204000Y-76140000D02*
X81534000Y-76140000D01*
X80204000Y-77470000D02*
X80204000Y-76140000D01*
X82804000Y-76140000D02*
X131124000Y-76140000D01*
X82804000Y-78800000D02*
X82804000Y-76140000D01*
X82804000Y-78800000D02*
X131124000Y-78800000D01*
X131124000Y-78800000D02*
X131124000Y-76140000D01*
%LPC*%
D14*
X73738500Y-64582000D03*
X73738500Y-66482000D03*
X75613500Y-65532000D03*
D15*
X81534000Y-54610000D03*
D16*
X84074000Y-54610000D03*
X86614000Y-54610000D03*
X89154000Y-54610000D03*
X91694000Y-54610000D03*
X94234000Y-54610000D03*
X96774000Y-54610000D03*
X99314000Y-54610000D03*
X101854000Y-54610000D03*
X104394000Y-54610000D03*
X106934000Y-54610000D03*
X109474000Y-54610000D03*
X112014000Y-54610000D03*
X114554000Y-54610000D03*
X117094000Y-54610000D03*
X119634000Y-54610000D03*
X122174000Y-54610000D03*
X124714000Y-54610000D03*
X127254000Y-54610000D03*
X129794000Y-54610000D03*
D17*
X65379600Y-53494200D03*
X65379600Y-78484200D03*
D18*
X67919600Y-61659200D03*
D19*
X67919600Y-63949200D03*
X67919600Y-66239200D03*
X67919600Y-68529200D03*
X67919600Y-70819200D03*
X65379600Y-60514200D03*
X65379600Y-62804200D03*
X65379600Y-65094200D03*
X65379600Y-67384200D03*
X65379600Y-69674200D03*
X62839600Y-61659200D03*
X62839600Y-63949200D03*
X62839600Y-66239200D03*
X62839600Y-68529200D03*
X62839600Y-70819200D03*
D15*
X81534000Y-77470000D03*
D16*
X84074000Y-77470000D03*
X86614000Y-77470000D03*
X89154000Y-77470000D03*
X91694000Y-77470000D03*
X94234000Y-77470000D03*
X96774000Y-77470000D03*
X99314000Y-77470000D03*
X101854000Y-77470000D03*
X104394000Y-77470000D03*
X106934000Y-77470000D03*
X109474000Y-77470000D03*
X112014000Y-77470000D03*
X114554000Y-77470000D03*
X117094000Y-77470000D03*
X119634000Y-77470000D03*
X122174000Y-77470000D03*
X124714000Y-77470000D03*
X127254000Y-77470000D03*
X129794000Y-77470000D03*
%LPD*%
M02*
