G04 #@! TF.GenerationSoftware,KiCad,Pcbnew,9.0.2-9.0.2-0~ubuntu22.04.1*
G04 #@! TF.CreationDate,2025-07-06T23:18:15+01:00*
G04 #@! TF.ProjectId,ggroohauga-amplifier,6767726f-6f68-4617-9567-612d616d706c,rev?*
G04 #@! TF.SameCoordinates,Original*
G04 #@! TF.FileFunction,Copper,L2,Bot*
G04 #@! TF.FilePolarity,Positive*
%FSLAX46Y46*%
G04 Gerber Fmt 4.6, Leading zero omitted, Abs format (unit mm)*
G04 Created by KiCad (PCBNEW 9.0.2-9.0.2-0~ubuntu22.04.1) date 2025-07-06 23:18:15*
%MOMM*%
%LPD*%
G01*
G04 APERTURE LIST*
G04 #@! TA.AperFunction,ComponentPad*
%ADD10R,1.700000X1.700000*%
G04 #@! TD*
G04 #@! TA.AperFunction,ComponentPad*
%ADD11C,1.700000*%
G04 #@! TD*
G04 #@! TA.AperFunction,ComponentPad*
%ADD12O,2.200000X1.200000*%
G04 #@! TD*
G04 #@! TA.AperFunction,ComponentPad*
%ADD13O,1.200000X2.200000*%
G04 #@! TD*
G04 #@! TA.AperFunction,ComponentPad*
%ADD14C,4.266000*%
G04 #@! TD*
G04 #@! TA.AperFunction,ComponentPad*
%ADD15R,1.725000X1.725000*%
G04 #@! TD*
G04 #@! TA.AperFunction,ComponentPad*
%ADD16C,1.725000*%
G04 #@! TD*
G04 #@! TA.AperFunction,ViaPad*
%ADD17C,1.500000*%
G04 #@! TD*
G04 #@! TA.AperFunction,ViaPad*
%ADD18C,0.600000*%
G04 #@! TD*
G04 #@! TA.AperFunction,Conductor*
%ADD19C,0.500000*%
G04 #@! TD*
G04 #@! TA.AperFunction,Conductor*
%ADD20C,0.200000*%
G04 #@! TD*
G04 APERTURE END LIST*
D10*
X81534000Y-54610000D03*
D11*
X84074000Y-54610000D03*
X86614000Y-54610000D03*
X89154000Y-54610000D03*
X91694000Y-54610000D03*
X94234000Y-54610000D03*
X96774000Y-54610000D03*
X99314000Y-54610000D03*
X101854000Y-54610000D03*
X104394000Y-54610000D03*
X106934000Y-54610000D03*
X109474000Y-54610000D03*
X112014000Y-54610000D03*
X114554000Y-54610000D03*
X117094000Y-54610000D03*
X119634000Y-54610000D03*
X122174000Y-54610000D03*
X124714000Y-54610000D03*
X127254000Y-54610000D03*
X129794000Y-54610000D03*
D12*
X139373400Y-64105800D03*
D13*
X144373400Y-59105800D03*
D12*
X139373400Y-54105800D03*
D10*
X81534000Y-77470000D03*
D11*
X84074000Y-77470000D03*
X86614000Y-77470000D03*
X89154000Y-77470000D03*
X91694000Y-77470000D03*
X94234000Y-77470000D03*
X96774000Y-77470000D03*
X99314000Y-77470000D03*
X101854000Y-77470000D03*
X104394000Y-77470000D03*
X106934000Y-77470000D03*
X109474000Y-77470000D03*
X112014000Y-77470000D03*
X114554000Y-77470000D03*
X117094000Y-77470000D03*
X119634000Y-77470000D03*
X122174000Y-77470000D03*
X124714000Y-77470000D03*
X127254000Y-77470000D03*
X129794000Y-77470000D03*
D14*
X65379600Y-53494200D03*
X65379600Y-78484200D03*
D15*
X67919600Y-70319200D03*
D16*
X67919600Y-68029200D03*
X67919600Y-65739200D03*
X67919600Y-63449200D03*
X67919600Y-61159200D03*
X65379600Y-71464200D03*
X65379600Y-69174200D03*
X65379600Y-66884200D03*
X65379600Y-64594200D03*
X65379600Y-62304200D03*
X62839600Y-70319200D03*
X62839600Y-68029200D03*
X62839600Y-65739200D03*
X62839600Y-63449200D03*
X62839600Y-61159200D03*
D12*
X139373400Y-78019920D03*
D13*
X144373400Y-73019920D03*
D12*
X139373400Y-68019920D03*
D17*
X117475000Y-60960000D03*
X127000000Y-68019920D03*
D18*
X70692600Y-73914000D03*
D17*
X115570000Y-60960000D03*
X127000000Y-69850000D03*
X127000000Y-66040000D03*
X119380000Y-60960000D03*
X123190000Y-60960000D03*
X127000000Y-62230000D03*
X121285000Y-60960000D03*
X127000000Y-64105800D03*
D18*
X89027000Y-72644000D03*
X98806000Y-72644000D03*
D19*
X117475000Y-59690000D02*
X116205000Y-58420000D01*
X117475000Y-60960000D02*
X117475000Y-59690000D01*
X127000000Y-68019920D02*
X139373400Y-68019920D01*
X70658800Y-58420000D02*
X67919600Y-61159200D01*
X116205000Y-58420000D02*
X70658800Y-58420000D01*
D20*
X61514800Y-65739200D02*
X62839600Y-65739200D01*
X70692600Y-73914000D02*
X63246000Y-73914000D01*
X60706000Y-71374000D02*
X60706000Y-66548000D01*
X60706000Y-66548000D02*
X61514800Y-65739200D01*
X60706000Y-71374000D02*
X63246000Y-73914000D01*
D19*
X127000000Y-69850000D02*
X127254000Y-69850000D01*
X115570000Y-62230000D02*
X114350800Y-63449200D01*
X127254000Y-69850000D02*
X135423920Y-78019920D01*
X135423920Y-78019920D02*
X139373400Y-78019920D01*
X115570000Y-60960000D02*
X115570000Y-62230000D01*
X114350800Y-63449200D02*
X67919600Y-63449200D01*
X119380000Y-60960000D02*
X119380000Y-62230000D01*
X142795000Y-66040000D02*
X142795000Y-60684048D01*
X142795152Y-60684048D02*
X144373400Y-59105800D01*
X119380000Y-62230000D02*
X115870800Y-65739200D01*
X115870800Y-65739200D02*
X67919600Y-65739200D01*
X142795000Y-66040000D02*
X142795000Y-71441672D01*
X142795152Y-71441672D02*
X144373400Y-73019920D01*
X142795000Y-71441672D02*
X142795152Y-71441672D01*
X127000000Y-66040000D02*
X142795000Y-66040000D01*
X142795000Y-60684048D02*
X142795152Y-60684048D01*
X123190000Y-62230000D02*
X117390800Y-68029200D01*
X123190000Y-60960000D02*
X123190000Y-62230000D01*
X127000000Y-62230000D02*
X135124200Y-54105800D01*
X135124200Y-54105800D02*
X139373400Y-54105800D01*
X117390800Y-68029200D02*
X67919600Y-68029200D01*
X121285000Y-59690000D02*
X122555000Y-58420000D01*
X118084863Y-70319200D02*
X67919600Y-70319200D01*
X121285000Y-60960000D02*
X121285000Y-59690000D01*
X122555000Y-58420000D02*
X123825000Y-58420000D01*
X127000000Y-64105800D02*
X139373400Y-64105800D01*
X123825000Y-58420000D02*
X125095000Y-59690000D01*
X125095000Y-63309063D02*
X118084863Y-70319200D01*
X125095000Y-59690000D02*
X125095000Y-63309063D01*
G04 #@! TA.AperFunction,Conductor*
G36*
X64326856Y-70103897D02*
G01*
X64344247Y-70101397D01*
X64360699Y-70108910D01*
X64378592Y-70111561D01*
X64401517Y-70127551D01*
X64407803Y-70130422D01*
X64408202Y-70130769D01*
X64411328Y-70133501D01*
X64491665Y-70213838D01*
X64560314Y-70263714D01*
X64564516Y-70267387D01*
X64580403Y-70292342D01*
X64598466Y-70315766D01*
X64599415Y-70322204D01*
X64602039Y-70326326D01*
X64602010Y-70333056D01*
X65188953Y-70919999D01*
X65157658Y-70928385D01*
X65026542Y-71004085D01*
X64919485Y-71111142D01*
X64843785Y-71242258D01*
X64835399Y-71273553D01*
X64217977Y-70656131D01*
X64184492Y-70594808D01*
X64183185Y-70549051D01*
X64202600Y-70426474D01*
X64202600Y-70224135D01*
X64207695Y-70206780D01*
X64207773Y-70188693D01*
X64217335Y-70173952D01*
X64222285Y-70157096D01*
X64235953Y-70145251D01*
X64245798Y-70130077D01*
X64261811Y-70122846D01*
X64275089Y-70111341D01*
X64292990Y-70108766D01*
X64309476Y-70101323D01*
X64326856Y-70103897D01*
G37*
G04 #@! TD.AperFunction*
G04 #@! TA.AperFunction,Conductor*
G36*
X66445078Y-70105746D02*
G01*
X66475934Y-70107953D01*
X66479374Y-70110528D01*
X66483631Y-70111122D01*
X66507101Y-70131285D01*
X66531867Y-70149825D01*
X66533368Y-70153851D01*
X66536629Y-70156652D01*
X66545472Y-70186303D01*
X66556284Y-70215289D01*
X66556578Y-70223538D01*
X66556599Y-70223607D01*
X66556583Y-70223662D01*
X66556600Y-70224135D01*
X66556600Y-70589390D01*
X66536915Y-70656429D01*
X66520281Y-70677071D01*
X65923800Y-71273552D01*
X65915415Y-71242258D01*
X65839715Y-71111142D01*
X65732658Y-71004085D01*
X65601542Y-70928385D01*
X65570246Y-70919999D01*
X66161415Y-70328829D01*
X66167029Y-70302107D01*
X66170729Y-70297461D01*
X66171684Y-70294158D01*
X66182635Y-70282512D01*
X66194683Y-70267387D01*
X66198880Y-70263718D01*
X66267535Y-70213838D01*
X66347864Y-70133508D01*
X66350999Y-70130769D01*
X66379089Y-70117795D01*
X66406242Y-70102969D01*
X66410528Y-70103275D01*
X66414431Y-70101473D01*
X66445078Y-70105746D01*
G37*
G04 #@! TD.AperFunction*
G04 #@! TA.AperFunction,Conductor*
G36*
X64053163Y-51009385D02*
G01*
X64098918Y-51062189D01*
X64108862Y-51131347D01*
X64079837Y-51194903D01*
X64052096Y-51218694D01*
X63853559Y-51343443D01*
X63702701Y-51463747D01*
X64421003Y-52182049D01*
X64320983Y-52254719D01*
X64140119Y-52435583D01*
X64067449Y-52535603D01*
X63349147Y-51817301D01*
X63228843Y-51968159D01*
X63071501Y-52218566D01*
X62943194Y-52484999D01*
X62845517Y-52764146D01*
X62779711Y-53052461D01*
X62779708Y-53052475D01*
X62746600Y-53346327D01*
X62746600Y-53642072D01*
X62779708Y-53935924D01*
X62779711Y-53935938D01*
X62845517Y-54224253D01*
X62943194Y-54503400D01*
X63071501Y-54769833D01*
X63228842Y-55020240D01*
X63349148Y-55171097D01*
X64067449Y-54452795D01*
X64140119Y-54552817D01*
X64320983Y-54733681D01*
X64421002Y-54806349D01*
X63702701Y-55524650D01*
X63853559Y-55644957D01*
X64103966Y-55802298D01*
X64370399Y-55930605D01*
X64649546Y-56028282D01*
X64937861Y-56094088D01*
X64937875Y-56094091D01*
X65231727Y-56127199D01*
X65231731Y-56127200D01*
X65527469Y-56127200D01*
X65527472Y-56127199D01*
X65821324Y-56094091D01*
X65821338Y-56094088D01*
X66109653Y-56028282D01*
X66388800Y-55930605D01*
X66655233Y-55802298D01*
X66905641Y-55644956D01*
X67056496Y-55524651D01*
X67056497Y-55524650D01*
X66338196Y-54806350D01*
X66438217Y-54733681D01*
X66619081Y-54552817D01*
X66691750Y-54452796D01*
X67410050Y-55171097D01*
X67410051Y-55171096D01*
X67530356Y-55020241D01*
X67687696Y-54769837D01*
X67694919Y-54754838D01*
X67694920Y-54754836D01*
X67816005Y-54503400D01*
X67913682Y-54224253D01*
X67979488Y-53935938D01*
X67979491Y-53935924D01*
X68004704Y-53712155D01*
X80184000Y-53712155D01*
X80184000Y-54360000D01*
X81100988Y-54360000D01*
X81068075Y-54417007D01*
X81034000Y-54544174D01*
X81034000Y-54675826D01*
X81068075Y-54802993D01*
X81100988Y-54860000D01*
X80184000Y-54860000D01*
X80184000Y-55507844D01*
X80190401Y-55567372D01*
X80190403Y-55567379D01*
X80240645Y-55702086D01*
X80240649Y-55702093D01*
X80326809Y-55817187D01*
X80326812Y-55817190D01*
X80441906Y-55903350D01*
X80441913Y-55903354D01*
X80576620Y-55953596D01*
X80576627Y-55953598D01*
X80636155Y-55959999D01*
X80636172Y-55960000D01*
X81284000Y-55960000D01*
X81284000Y-55043012D01*
X81341007Y-55075925D01*
X81468174Y-55110000D01*
X81599826Y-55110000D01*
X81726993Y-55075925D01*
X81784000Y-55043012D01*
X81784000Y-55960000D01*
X82431828Y-55960000D01*
X82431844Y-55959999D01*
X82491372Y-55953598D01*
X82491379Y-55953596D01*
X82626086Y-55903354D01*
X82626093Y-55903350D01*
X82741187Y-55817190D01*
X82741190Y-55817187D01*
X82827350Y-55702093D01*
X82827354Y-55702086D01*
X82876422Y-55570529D01*
X82918293Y-55514595D01*
X82983757Y-55490178D01*
X83052030Y-55505030D01*
X83080285Y-55526181D01*
X83194213Y-55640109D01*
X83366179Y-55765048D01*
X83366181Y-55765049D01*
X83366184Y-55765051D01*
X83555588Y-55861557D01*
X83757757Y-55927246D01*
X83967713Y-55960500D01*
X83967714Y-55960500D01*
X84180286Y-55960500D01*
X84180287Y-55960500D01*
X84390243Y-55927246D01*
X84592412Y-55861557D01*
X84781816Y-55765051D01*
X84868471Y-55702093D01*
X84953786Y-55640109D01*
X84953788Y-55640106D01*
X84953792Y-55640104D01*
X85104104Y-55489792D01*
X85104106Y-55489788D01*
X85104109Y-55489786D01*
X85229048Y-55317820D01*
X85229047Y-55317820D01*
X85229051Y-55317816D01*
X85233514Y-55309054D01*
X85281488Y-55258259D01*
X85349308Y-55241463D01*
X85415444Y-55263999D01*
X85454486Y-55309056D01*
X85458951Y-55317820D01*
X85583890Y-55489786D01*
X85734213Y-55640109D01*
X85906179Y-55765048D01*
X85906181Y-55765049D01*
X85906184Y-55765051D01*
X86095588Y-55861557D01*
X86297757Y-55927246D01*
X86507713Y-55960500D01*
X86507714Y-55960500D01*
X86720286Y-55960500D01*
X86720287Y-55960500D01*
X86930243Y-55927246D01*
X87132412Y-55861557D01*
X87321816Y-55765051D01*
X87408471Y-55702093D01*
X87493786Y-55640109D01*
X87493788Y-55640106D01*
X87493792Y-55640104D01*
X87644104Y-55489792D01*
X87644106Y-55489788D01*
X87644109Y-55489786D01*
X87769048Y-55317820D01*
X87769047Y-55317820D01*
X87769051Y-55317816D01*
X87773514Y-55309054D01*
X87821488Y-55258259D01*
X87889308Y-55241463D01*
X87955444Y-55263999D01*
X87994486Y-55309056D01*
X87998951Y-55317820D01*
X88123890Y-55489786D01*
X88274213Y-55640109D01*
X88446179Y-55765048D01*
X88446181Y-55765049D01*
X88446184Y-55765051D01*
X88635588Y-55861557D01*
X88837757Y-55927246D01*
X89047713Y-55960500D01*
X89047714Y-55960500D01*
X89260286Y-55960500D01*
X89260287Y-55960500D01*
X89470243Y-55927246D01*
X89672412Y-55861557D01*
X89861816Y-55765051D01*
X89948471Y-55702093D01*
X90033786Y-55640109D01*
X90033788Y-55640106D01*
X90033792Y-55640104D01*
X90184104Y-55489792D01*
X90184106Y-55489788D01*
X90184109Y-55489786D01*
X90309048Y-55317820D01*
X90309047Y-55317820D01*
X90309051Y-55317816D01*
X90313514Y-55309054D01*
X90361488Y-55258259D01*
X90429308Y-55241463D01*
X90495444Y-55263999D01*
X90534486Y-55309056D01*
X90538951Y-55317820D01*
X90663890Y-55489786D01*
X90814213Y-55640109D01*
X90986179Y-55765048D01*
X90986181Y-55765049D01*
X90986184Y-55765051D01*
X91175588Y-55861557D01*
X91377757Y-55927246D01*
X91587713Y-55960500D01*
X91587714Y-55960500D01*
X91800286Y-55960500D01*
X91800287Y-55960500D01*
X92010243Y-55927246D01*
X92212412Y-55861557D01*
X92401816Y-55765051D01*
X92488471Y-55702093D01*
X92573786Y-55640109D01*
X92573788Y-55640106D01*
X92573792Y-55640104D01*
X92724104Y-55489792D01*
X92724106Y-55489788D01*
X92724109Y-55489786D01*
X92849048Y-55317820D01*
X92849047Y-55317820D01*
X92849051Y-55317816D01*
X92853514Y-55309054D01*
X92901488Y-55258259D01*
X92969308Y-55241463D01*
X93035444Y-55263999D01*
X93074486Y-55309056D01*
X93078951Y-55317820D01*
X93203890Y-55489786D01*
X93354213Y-55640109D01*
X93526179Y-55765048D01*
X93526181Y-55765049D01*
X93526184Y-55765051D01*
X93715588Y-55861557D01*
X93917757Y-55927246D01*
X94127713Y-55960500D01*
X94127714Y-55960500D01*
X94340286Y-55960500D01*
X94340287Y-55960500D01*
X94550243Y-55927246D01*
X94752412Y-55861557D01*
X94941816Y-55765051D01*
X95028471Y-55702093D01*
X95113786Y-55640109D01*
X95113788Y-55640106D01*
X95113792Y-55640104D01*
X95264104Y-55489792D01*
X95264106Y-55489788D01*
X95264109Y-55489786D01*
X95389048Y-55317820D01*
X95389047Y-55317820D01*
X95389051Y-55317816D01*
X95393514Y-55309054D01*
X95441488Y-55258259D01*
X95509308Y-55241463D01*
X95575444Y-55263999D01*
X95614486Y-55309056D01*
X95618951Y-55317820D01*
X95743890Y-55489786D01*
X95894213Y-55640109D01*
X96066179Y-55765048D01*
X96066181Y-55765049D01*
X96066184Y-55765051D01*
X96255588Y-55861557D01*
X96457757Y-55927246D01*
X96667713Y-55960500D01*
X96667714Y-55960500D01*
X96880286Y-55960500D01*
X96880287Y-55960500D01*
X97090243Y-55927246D01*
X97292412Y-55861557D01*
X97481816Y-55765051D01*
X97568471Y-55702093D01*
X97653786Y-55640109D01*
X97653788Y-55640106D01*
X97653792Y-55640104D01*
X97804104Y-55489792D01*
X97804106Y-55489788D01*
X97804109Y-55489786D01*
X97929048Y-55317820D01*
X97929047Y-55317820D01*
X97929051Y-55317816D01*
X97933514Y-55309054D01*
X97981488Y-55258259D01*
X98049308Y-55241463D01*
X98115444Y-55263999D01*
X98154486Y-55309056D01*
X98158951Y-55317820D01*
X98283890Y-55489786D01*
X98434213Y-55640109D01*
X98606179Y-55765048D01*
X98606181Y-55765049D01*
X98606184Y-55765051D01*
X98795588Y-55861557D01*
X98997757Y-55927246D01*
X99207713Y-55960500D01*
X99207714Y-55960500D01*
X99420286Y-55960500D01*
X99420287Y-55960500D01*
X99630243Y-55927246D01*
X99832412Y-55861557D01*
X100021816Y-55765051D01*
X100108471Y-55702093D01*
X100193786Y-55640109D01*
X100193788Y-55640106D01*
X100193792Y-55640104D01*
X100344104Y-55489792D01*
X100344106Y-55489788D01*
X100344109Y-55489786D01*
X100469048Y-55317820D01*
X100469047Y-55317820D01*
X100469051Y-55317816D01*
X100473514Y-55309054D01*
X100521488Y-55258259D01*
X100589308Y-55241463D01*
X100655444Y-55263999D01*
X100694486Y-55309056D01*
X100698951Y-55317820D01*
X100823890Y-55489786D01*
X100974213Y-55640109D01*
X101146179Y-55765048D01*
X101146181Y-55765049D01*
X101146184Y-55765051D01*
X101335588Y-55861557D01*
X101537757Y-55927246D01*
X101747713Y-55960500D01*
X101747714Y-55960500D01*
X101960286Y-55960500D01*
X101960287Y-55960500D01*
X102170243Y-55927246D01*
X102372412Y-55861557D01*
X102561816Y-55765051D01*
X102648471Y-55702093D01*
X102733786Y-55640109D01*
X102733788Y-55640106D01*
X102733792Y-55640104D01*
X102884104Y-55489792D01*
X102884106Y-55489788D01*
X102884109Y-55489786D01*
X103009048Y-55317820D01*
X103009047Y-55317820D01*
X103009051Y-55317816D01*
X103013514Y-55309054D01*
X103061488Y-55258259D01*
X103129308Y-55241463D01*
X103195444Y-55263999D01*
X103234486Y-55309056D01*
X103238951Y-55317820D01*
X103363890Y-55489786D01*
X103514213Y-55640109D01*
X103686179Y-55765048D01*
X103686181Y-55765049D01*
X103686184Y-55765051D01*
X103875588Y-55861557D01*
X104077757Y-55927246D01*
X104287713Y-55960500D01*
X104287714Y-55960500D01*
X104500286Y-55960500D01*
X104500287Y-55960500D01*
X104710243Y-55927246D01*
X104912412Y-55861557D01*
X105101816Y-55765051D01*
X105188471Y-55702093D01*
X105273786Y-55640109D01*
X105273788Y-55640106D01*
X105273792Y-55640104D01*
X105424104Y-55489792D01*
X105424106Y-55489788D01*
X105424109Y-55489786D01*
X105549048Y-55317820D01*
X105549047Y-55317820D01*
X105549051Y-55317816D01*
X105553514Y-55309054D01*
X105601488Y-55258259D01*
X105669308Y-55241463D01*
X105735444Y-55263999D01*
X105774486Y-55309056D01*
X105778951Y-55317820D01*
X105903890Y-55489786D01*
X106054213Y-55640109D01*
X106226179Y-55765048D01*
X106226181Y-55765049D01*
X106226184Y-55765051D01*
X106415588Y-55861557D01*
X106617757Y-55927246D01*
X106827713Y-55960500D01*
X106827714Y-55960500D01*
X107040286Y-55960500D01*
X107040287Y-55960500D01*
X107250243Y-55927246D01*
X107452412Y-55861557D01*
X107641816Y-55765051D01*
X107728471Y-55702093D01*
X107813786Y-55640109D01*
X107813788Y-55640106D01*
X107813792Y-55640104D01*
X107964104Y-55489792D01*
X107964106Y-55489788D01*
X107964109Y-55489786D01*
X108089048Y-55317820D01*
X108089047Y-55317820D01*
X108089051Y-55317816D01*
X108093514Y-55309054D01*
X108141488Y-55258259D01*
X108209308Y-55241463D01*
X108275444Y-55263999D01*
X108314486Y-55309056D01*
X108318951Y-55317820D01*
X108443890Y-55489786D01*
X108594213Y-55640109D01*
X108766179Y-55765048D01*
X108766181Y-55765049D01*
X108766184Y-55765051D01*
X108955588Y-55861557D01*
X109157757Y-55927246D01*
X109367713Y-55960500D01*
X109367714Y-55960500D01*
X109580286Y-55960500D01*
X109580287Y-55960500D01*
X109790243Y-55927246D01*
X109992412Y-55861557D01*
X110181816Y-55765051D01*
X110268471Y-55702093D01*
X110353786Y-55640109D01*
X110353788Y-55640106D01*
X110353792Y-55640104D01*
X110504104Y-55489792D01*
X110504106Y-55489788D01*
X110504109Y-55489786D01*
X110629048Y-55317820D01*
X110629047Y-55317820D01*
X110629051Y-55317816D01*
X110633514Y-55309054D01*
X110681488Y-55258259D01*
X110749308Y-55241463D01*
X110815444Y-55263999D01*
X110854486Y-55309056D01*
X110858951Y-55317820D01*
X110983890Y-55489786D01*
X111134213Y-55640109D01*
X111306179Y-55765048D01*
X111306181Y-55765049D01*
X111306184Y-55765051D01*
X111495588Y-55861557D01*
X111697757Y-55927246D01*
X111907713Y-55960500D01*
X111907714Y-55960500D01*
X112120286Y-55960500D01*
X112120287Y-55960500D01*
X112330243Y-55927246D01*
X112532412Y-55861557D01*
X112721816Y-55765051D01*
X112808471Y-55702093D01*
X112893786Y-55640109D01*
X112893788Y-55640106D01*
X112893792Y-55640104D01*
X113044104Y-55489792D01*
X113044106Y-55489788D01*
X113044109Y-55489786D01*
X113169048Y-55317820D01*
X113169047Y-55317820D01*
X113169051Y-55317816D01*
X113173514Y-55309054D01*
X113221488Y-55258259D01*
X113289308Y-55241463D01*
X113355444Y-55263999D01*
X113394486Y-55309056D01*
X113398951Y-55317820D01*
X113523890Y-55489786D01*
X113674213Y-55640109D01*
X113846179Y-55765048D01*
X113846181Y-55765049D01*
X113846184Y-55765051D01*
X114035588Y-55861557D01*
X114237757Y-55927246D01*
X114447713Y-55960500D01*
X114447714Y-55960500D01*
X114660286Y-55960500D01*
X114660287Y-55960500D01*
X114870243Y-55927246D01*
X115072412Y-55861557D01*
X115261816Y-55765051D01*
X115348471Y-55702093D01*
X115433786Y-55640109D01*
X115433788Y-55640106D01*
X115433792Y-55640104D01*
X115584104Y-55489792D01*
X115584106Y-55489788D01*
X115584109Y-55489786D01*
X115709048Y-55317820D01*
X115709047Y-55317820D01*
X115709051Y-55317816D01*
X115713514Y-55309054D01*
X115761488Y-55258259D01*
X115829308Y-55241463D01*
X115895444Y-55263999D01*
X115934486Y-55309056D01*
X115938951Y-55317820D01*
X116063890Y-55489786D01*
X116214213Y-55640109D01*
X116386179Y-55765048D01*
X116386181Y-55765049D01*
X116386184Y-55765051D01*
X116575588Y-55861557D01*
X116777757Y-55927246D01*
X116987713Y-55960500D01*
X116987714Y-55960500D01*
X117200286Y-55960500D01*
X117200287Y-55960500D01*
X117410243Y-55927246D01*
X117612412Y-55861557D01*
X117801816Y-55765051D01*
X117888471Y-55702093D01*
X117973786Y-55640109D01*
X117973788Y-55640106D01*
X117973792Y-55640104D01*
X118124104Y-55489792D01*
X118124106Y-55489788D01*
X118124109Y-55489786D01*
X118209890Y-55371717D01*
X118249051Y-55317816D01*
X118253793Y-55308508D01*
X118301763Y-55257711D01*
X118369583Y-55240911D01*
X118435719Y-55263445D01*
X118474763Y-55308500D01*
X118479373Y-55317547D01*
X118518728Y-55371716D01*
X119151037Y-54739408D01*
X119168075Y-54802993D01*
X119233901Y-54917007D01*
X119326993Y-55010099D01*
X119441007Y-55075925D01*
X119504590Y-55092962D01*
X118872282Y-55725269D01*
X118872282Y-55725270D01*
X118926449Y-55764624D01*
X119115782Y-55861095D01*
X119317870Y-55926757D01*
X119527754Y-55960000D01*
X119740246Y-55960000D01*
X119950127Y-55926757D01*
X119950130Y-55926757D01*
X120152217Y-55861095D01*
X120341554Y-55764622D01*
X120395716Y-55725270D01*
X120395717Y-55725270D01*
X119763408Y-55092962D01*
X119826993Y-55075925D01*
X119941007Y-55010099D01*
X120034099Y-54917007D01*
X120099925Y-54802993D01*
X120116962Y-54739409D01*
X120749270Y-55371717D01*
X120749270Y-55371716D01*
X120788622Y-55317555D01*
X120793232Y-55308507D01*
X120841205Y-55257709D01*
X120909025Y-55240912D01*
X120975161Y-55263447D01*
X121014204Y-55308504D01*
X121018949Y-55317817D01*
X121143890Y-55489786D01*
X121294213Y-55640109D01*
X121466179Y-55765048D01*
X121466181Y-55765049D01*
X121466184Y-55765051D01*
X121655588Y-55861557D01*
X121857757Y-55927246D01*
X122067713Y-55960500D01*
X122067714Y-55960500D01*
X122280286Y-55960500D01*
X122280287Y-55960500D01*
X122490243Y-55927246D01*
X122692412Y-55861557D01*
X122881816Y-55765051D01*
X122968471Y-55702093D01*
X123053786Y-55640109D01*
X123053788Y-55640106D01*
X123053792Y-55640104D01*
X123204104Y-55489792D01*
X123204106Y-55489788D01*
X123204109Y-55489786D01*
X123329048Y-55317820D01*
X123329047Y-55317820D01*
X123329051Y-55317816D01*
X123333514Y-55309054D01*
X123381488Y-55258259D01*
X123449308Y-55241463D01*
X123515444Y-55263999D01*
X123554486Y-55309056D01*
X123558951Y-55317820D01*
X123683890Y-55489786D01*
X123834213Y-55640109D01*
X124006179Y-55765048D01*
X124006181Y-55765049D01*
X124006184Y-55765051D01*
X124195588Y-55861557D01*
X124397757Y-55927246D01*
X124607713Y-55960500D01*
X124607714Y-55960500D01*
X124820286Y-55960500D01*
X124820287Y-55960500D01*
X125030243Y-55927246D01*
X125232412Y-55861557D01*
X125421816Y-55765051D01*
X125508471Y-55702093D01*
X125593786Y-55640109D01*
X125593788Y-55640106D01*
X125593792Y-55640104D01*
X125744104Y-55489792D01*
X125744106Y-55489788D01*
X125744109Y-55489786D01*
X125869048Y-55317820D01*
X125869047Y-55317820D01*
X125869051Y-55317816D01*
X125873514Y-55309054D01*
X125921488Y-55258259D01*
X125989308Y-55241463D01*
X126055444Y-55263999D01*
X126094486Y-55309056D01*
X126098951Y-55317820D01*
X126223890Y-55489786D01*
X126374213Y-55640109D01*
X126546179Y-55765048D01*
X126546181Y-55765049D01*
X126546184Y-55765051D01*
X126735588Y-55861557D01*
X126937757Y-55927246D01*
X127147713Y-55960500D01*
X127147714Y-55960500D01*
X127360286Y-55960500D01*
X127360287Y-55960500D01*
X127570243Y-55927246D01*
X127772412Y-55861557D01*
X127961816Y-55765051D01*
X128048471Y-55702093D01*
X128133786Y-55640109D01*
X128133788Y-55640106D01*
X128133792Y-55640104D01*
X128284104Y-55489792D01*
X128284106Y-55489788D01*
X128284109Y-55489786D01*
X128409048Y-55317820D01*
X128409047Y-55317820D01*
X128409051Y-55317816D01*
X128413514Y-55309054D01*
X128461488Y-55258259D01*
X128529308Y-55241463D01*
X128595444Y-55263999D01*
X128634486Y-55309056D01*
X128638951Y-55317820D01*
X128763890Y-55489786D01*
X128914213Y-55640109D01*
X129086179Y-55765048D01*
X129086181Y-55765049D01*
X129086184Y-55765051D01*
X129275588Y-55861557D01*
X129477757Y-55927246D01*
X129687713Y-55960500D01*
X129687714Y-55960500D01*
X129900286Y-55960500D01*
X129900287Y-55960500D01*
X130110243Y-55927246D01*
X130312412Y-55861557D01*
X130501816Y-55765051D01*
X130588471Y-55702093D01*
X130673786Y-55640109D01*
X130673788Y-55640106D01*
X130673792Y-55640104D01*
X130824104Y-55489792D01*
X130824106Y-55489788D01*
X130824109Y-55489786D01*
X130949048Y-55317820D01*
X130949047Y-55317820D01*
X130949051Y-55317816D01*
X131045557Y-55128412D01*
X131111246Y-54926243D01*
X131144500Y-54716287D01*
X131144500Y-54503713D01*
X131111246Y-54293757D01*
X131045557Y-54091588D01*
X130949051Y-53902184D01*
X130949049Y-53902181D01*
X130949048Y-53902179D01*
X130824109Y-53730213D01*
X130673786Y-53579890D01*
X130501820Y-53454951D01*
X130312414Y-53358444D01*
X130312413Y-53358443D01*
X130312412Y-53358443D01*
X130110243Y-53292754D01*
X130110241Y-53292753D01*
X130110240Y-53292753D01*
X129948957Y-53267208D01*
X129900287Y-53259500D01*
X129687713Y-53259500D01*
X129639042Y-53267208D01*
X129477760Y-53292753D01*
X129275585Y-53358444D01*
X129086179Y-53454951D01*
X128914213Y-53579890D01*
X128763890Y-53730213D01*
X128638949Y-53902182D01*
X128634484Y-53910946D01*
X128586509Y-53961742D01*
X128518688Y-53978536D01*
X128452553Y-53955998D01*
X128413516Y-53910946D01*
X128409050Y-53902182D01*
X128284109Y-53730213D01*
X128133786Y-53579890D01*
X127961820Y-53454951D01*
X127772414Y-53358444D01*
X127772413Y-53358443D01*
X127772412Y-53358443D01*
X127570243Y-53292754D01*
X127570241Y-53292753D01*
X127570240Y-53292753D01*
X127408957Y-53267208D01*
X127360287Y-53259500D01*
X127147713Y-53259500D01*
X127099042Y-53267208D01*
X126937760Y-53292753D01*
X126735585Y-53358444D01*
X126546179Y-53454951D01*
X126374213Y-53579890D01*
X126223890Y-53730213D01*
X126098949Y-53902182D01*
X126094484Y-53910946D01*
X126046509Y-53961742D01*
X125978688Y-53978536D01*
X125912553Y-53955998D01*
X125873516Y-53910946D01*
X125869050Y-53902182D01*
X125744109Y-53730213D01*
X125593786Y-53579890D01*
X125421820Y-53454951D01*
X125232414Y-53358444D01*
X125232413Y-53358443D01*
X125232412Y-53358443D01*
X125030243Y-53292754D01*
X125030241Y-53292753D01*
X125030240Y-53292753D01*
X124868957Y-53267208D01*
X124820287Y-53259500D01*
X124607713Y-53259500D01*
X124559042Y-53267208D01*
X124397760Y-53292753D01*
X124195585Y-53358444D01*
X124006179Y-53454951D01*
X123834213Y-53579890D01*
X123683890Y-53730213D01*
X123558949Y-53902182D01*
X123554484Y-53910946D01*
X123506509Y-53961742D01*
X123438688Y-53978536D01*
X123372553Y-53955998D01*
X123333516Y-53910946D01*
X123329050Y-53902182D01*
X123204109Y-53730213D01*
X123053786Y-53579890D01*
X122881820Y-53454951D01*
X122692414Y-53358444D01*
X122692413Y-53358443D01*
X122692412Y-53358443D01*
X122490243Y-53292754D01*
X122490241Y-53292753D01*
X122490240Y-53292753D01*
X122328957Y-53267208D01*
X122280287Y-53259500D01*
X122067713Y-53259500D01*
X122019042Y-53267208D01*
X121857760Y-53292753D01*
X121655585Y-53358444D01*
X121466179Y-53454951D01*
X121294213Y-53579890D01*
X121143890Y-53730213D01*
X121018949Y-53902182D01*
X121014202Y-53911499D01*
X120966227Y-53962293D01*
X120898405Y-53979087D01*
X120832271Y-53956548D01*
X120793234Y-53911495D01*
X120788626Y-53902452D01*
X120749270Y-53848282D01*
X120749269Y-53848282D01*
X120116962Y-54480590D01*
X120099925Y-54417007D01*
X120034099Y-54302993D01*
X119941007Y-54209901D01*
X119826993Y-54144075D01*
X119763409Y-54127037D01*
X120395716Y-53494728D01*
X120341550Y-53455375D01*
X120152217Y-53358904D01*
X119950129Y-53293242D01*
X119740246Y-53260000D01*
X119527754Y-53260000D01*
X119317872Y-53293242D01*
X119317869Y-53293242D01*
X119115782Y-53358904D01*
X118926439Y-53455380D01*
X118872282Y-53494727D01*
X118872282Y-53494728D01*
X119504591Y-54127037D01*
X119441007Y-54144075D01*
X119326993Y-54209901D01*
X119233901Y-54302993D01*
X119168075Y-54417007D01*
X119151037Y-54480591D01*
X118518728Y-53848282D01*
X118518727Y-53848282D01*
X118479380Y-53902440D01*
X118479376Y-53902446D01*
X118474760Y-53911505D01*
X118426781Y-53962297D01*
X118358959Y-53979087D01*
X118292826Y-53956543D01*
X118253794Y-53911493D01*
X118249051Y-53902184D01*
X118249049Y-53902181D01*
X118249048Y-53902179D01*
X118124109Y-53730213D01*
X117973786Y-53579890D01*
X117801820Y-53454951D01*
X117612414Y-53358444D01*
X117612413Y-53358443D01*
X117612412Y-53358443D01*
X117410243Y-53292754D01*
X117410241Y-53292753D01*
X117410240Y-53292753D01*
X117248957Y-53267208D01*
X117200287Y-53259500D01*
X116987713Y-53259500D01*
X116939042Y-53267208D01*
X116777760Y-53292753D01*
X116575585Y-53358444D01*
X116386179Y-53454951D01*
X116214213Y-53579890D01*
X116063890Y-53730213D01*
X115938949Y-53902182D01*
X115934484Y-53910946D01*
X115886509Y-53961742D01*
X115818688Y-53978536D01*
X115752553Y-53955998D01*
X115713516Y-53910946D01*
X115709050Y-53902182D01*
X115584109Y-53730213D01*
X115433786Y-53579890D01*
X115261820Y-53454951D01*
X115072414Y-53358444D01*
X115072413Y-53358443D01*
X115072412Y-53358443D01*
X114870243Y-53292754D01*
X114870241Y-53292753D01*
X114870240Y-53292753D01*
X114708957Y-53267208D01*
X114660287Y-53259500D01*
X114447713Y-53259500D01*
X114399042Y-53267208D01*
X114237760Y-53292753D01*
X114035585Y-53358444D01*
X113846179Y-53454951D01*
X113674213Y-53579890D01*
X113523890Y-53730213D01*
X113398949Y-53902182D01*
X113394484Y-53910946D01*
X113346509Y-53961742D01*
X113278688Y-53978536D01*
X113212553Y-53955998D01*
X113173516Y-53910946D01*
X113169050Y-53902182D01*
X113044109Y-53730213D01*
X112893786Y-53579890D01*
X112721820Y-53454951D01*
X112532414Y-53358444D01*
X112532413Y-53358443D01*
X112532412Y-53358443D01*
X112330243Y-53292754D01*
X112330241Y-53292753D01*
X112330240Y-53292753D01*
X112168957Y-53267208D01*
X112120287Y-53259500D01*
X111907713Y-53259500D01*
X111859042Y-53267208D01*
X111697760Y-53292753D01*
X111495585Y-53358444D01*
X111306179Y-53454951D01*
X111134213Y-53579890D01*
X110983890Y-53730213D01*
X110858949Y-53902182D01*
X110854484Y-53910946D01*
X110806509Y-53961742D01*
X110738688Y-53978536D01*
X110672553Y-53955998D01*
X110633516Y-53910946D01*
X110629050Y-53902182D01*
X110504109Y-53730213D01*
X110353786Y-53579890D01*
X110181820Y-53454951D01*
X109992414Y-53358444D01*
X109992413Y-53358443D01*
X109992412Y-53358443D01*
X109790243Y-53292754D01*
X109790241Y-53292753D01*
X109790240Y-53292753D01*
X109628957Y-53267208D01*
X109580287Y-53259500D01*
X109367713Y-53259500D01*
X109319042Y-53267208D01*
X109157760Y-53292753D01*
X108955585Y-53358444D01*
X108766179Y-53454951D01*
X108594213Y-53579890D01*
X108443890Y-53730213D01*
X108318949Y-53902182D01*
X108314484Y-53910946D01*
X108266509Y-53961742D01*
X108198688Y-53978536D01*
X108132553Y-53955998D01*
X108093516Y-53910946D01*
X108089050Y-53902182D01*
X107964109Y-53730213D01*
X107813786Y-53579890D01*
X107641820Y-53454951D01*
X107452414Y-53358444D01*
X107452413Y-53358443D01*
X107452412Y-53358443D01*
X107250243Y-53292754D01*
X107250241Y-53292753D01*
X107250240Y-53292753D01*
X107088957Y-53267208D01*
X107040287Y-53259500D01*
X106827713Y-53259500D01*
X106779042Y-53267208D01*
X106617760Y-53292753D01*
X106415585Y-53358444D01*
X106226179Y-53454951D01*
X106054213Y-53579890D01*
X105903890Y-53730213D01*
X105778949Y-53902182D01*
X105774484Y-53910946D01*
X105726509Y-53961742D01*
X105658688Y-53978536D01*
X105592553Y-53955998D01*
X105553516Y-53910946D01*
X105549050Y-53902182D01*
X105424109Y-53730213D01*
X105273786Y-53579890D01*
X105101820Y-53454951D01*
X104912414Y-53358444D01*
X104912413Y-53358443D01*
X104912412Y-53358443D01*
X104710243Y-53292754D01*
X104710241Y-53292753D01*
X104710240Y-53292753D01*
X104548957Y-53267208D01*
X104500287Y-53259500D01*
X104287713Y-53259500D01*
X104239042Y-53267208D01*
X104077760Y-53292753D01*
X103875585Y-53358444D01*
X103686179Y-53454951D01*
X103514213Y-53579890D01*
X103363890Y-53730213D01*
X103238949Y-53902182D01*
X103234484Y-53910946D01*
X103186509Y-53961742D01*
X103118688Y-53978536D01*
X103052553Y-53955998D01*
X103013516Y-53910946D01*
X103009050Y-53902182D01*
X102884109Y-53730213D01*
X102733786Y-53579890D01*
X102561820Y-53454951D01*
X102372414Y-53358444D01*
X102372413Y-53358443D01*
X102372412Y-53358443D01*
X102170243Y-53292754D01*
X102170241Y-53292753D01*
X102170240Y-53292753D01*
X102008957Y-53267208D01*
X101960287Y-53259500D01*
X101747713Y-53259500D01*
X101699042Y-53267208D01*
X101537760Y-53292753D01*
X101335585Y-53358444D01*
X101146179Y-53454951D01*
X100974213Y-53579890D01*
X100823890Y-53730213D01*
X100698949Y-53902182D01*
X100694484Y-53910946D01*
X100646509Y-53961742D01*
X100578688Y-53978536D01*
X100512553Y-53955998D01*
X100473516Y-53910946D01*
X100469050Y-53902182D01*
X100344109Y-53730213D01*
X100193786Y-53579890D01*
X100021820Y-53454951D01*
X99832414Y-53358444D01*
X99832413Y-53358443D01*
X99832412Y-53358443D01*
X99630243Y-53292754D01*
X99630241Y-53292753D01*
X99630240Y-53292753D01*
X99468957Y-53267208D01*
X99420287Y-53259500D01*
X99207713Y-53259500D01*
X99159042Y-53267208D01*
X98997760Y-53292753D01*
X98795585Y-53358444D01*
X98606179Y-53454951D01*
X98434213Y-53579890D01*
X98283890Y-53730213D01*
X98158949Y-53902182D01*
X98154484Y-53910946D01*
X98106509Y-53961742D01*
X98038688Y-53978536D01*
X97972553Y-53955998D01*
X97933516Y-53910946D01*
X97929050Y-53902182D01*
X97804109Y-53730213D01*
X97653786Y-53579890D01*
X97481820Y-53454951D01*
X97292414Y-53358444D01*
X97292413Y-53358443D01*
X97292412Y-53358443D01*
X97090243Y-53292754D01*
X97090241Y-53292753D01*
X97090240Y-53292753D01*
X96928957Y-53267208D01*
X96880287Y-53259500D01*
X96667713Y-53259500D01*
X96619042Y-53267208D01*
X96457760Y-53292753D01*
X96255585Y-53358444D01*
X96066179Y-53454951D01*
X95894213Y-53579890D01*
X95743890Y-53730213D01*
X95618949Y-53902182D01*
X95614484Y-53910946D01*
X95566509Y-53961742D01*
X95498688Y-53978536D01*
X95432553Y-53955998D01*
X95393516Y-53910946D01*
X95389050Y-53902182D01*
X95264109Y-53730213D01*
X95113786Y-53579890D01*
X94941820Y-53454951D01*
X94752414Y-53358444D01*
X94752413Y-53358443D01*
X94752412Y-53358443D01*
X94550243Y-53292754D01*
X94550241Y-53292753D01*
X94550240Y-53292753D01*
X94388957Y-53267208D01*
X94340287Y-53259500D01*
X94127713Y-53259500D01*
X94079042Y-53267208D01*
X93917760Y-53292753D01*
X93715585Y-53358444D01*
X93526179Y-53454951D01*
X93354213Y-53579890D01*
X93203890Y-53730213D01*
X93078949Y-53902182D01*
X93074484Y-53910946D01*
X93026509Y-53961742D01*
X92958688Y-53978536D01*
X92892553Y-53955998D01*
X92853516Y-53910946D01*
X92849050Y-53902182D01*
X92724109Y-53730213D01*
X92573786Y-53579890D01*
X92401820Y-53454951D01*
X92212414Y-53358444D01*
X92212413Y-53358443D01*
X92212412Y-53358443D01*
X92010243Y-53292754D01*
X92010241Y-53292753D01*
X92010240Y-53292753D01*
X91848957Y-53267208D01*
X91800287Y-53259500D01*
X91587713Y-53259500D01*
X91539042Y-53267208D01*
X91377760Y-53292753D01*
X91175585Y-53358444D01*
X90986179Y-53454951D01*
X90814213Y-53579890D01*
X90663890Y-53730213D01*
X90538949Y-53902182D01*
X90534484Y-53910946D01*
X90486509Y-53961742D01*
X90418688Y-53978536D01*
X90352553Y-53955998D01*
X90313516Y-53910946D01*
X90309050Y-53902182D01*
X90184109Y-53730213D01*
X90033786Y-53579890D01*
X89861820Y-53454951D01*
X89672414Y-53358444D01*
X89672413Y-53358443D01*
X89672412Y-53358443D01*
X89470243Y-53292754D01*
X89470241Y-53292753D01*
X89470240Y-53292753D01*
X89308957Y-53267208D01*
X89260287Y-53259500D01*
X89047713Y-53259500D01*
X88999042Y-53267208D01*
X88837760Y-53292753D01*
X88635585Y-53358444D01*
X88446179Y-53454951D01*
X88274213Y-53579890D01*
X88123890Y-53730213D01*
X87998949Y-53902182D01*
X87994484Y-53910946D01*
X87946509Y-53961742D01*
X87878688Y-53978536D01*
X87812553Y-53955998D01*
X87773516Y-53910946D01*
X87769050Y-53902182D01*
X87644109Y-53730213D01*
X87493786Y-53579890D01*
X87321820Y-53454951D01*
X87132414Y-53358444D01*
X87132413Y-53358443D01*
X87132412Y-53358443D01*
X86930243Y-53292754D01*
X86930241Y-53292753D01*
X86930240Y-53292753D01*
X86768957Y-53267208D01*
X86720287Y-53259500D01*
X86507713Y-53259500D01*
X86459042Y-53267208D01*
X86297760Y-53292753D01*
X86095585Y-53358444D01*
X85906179Y-53454951D01*
X85734213Y-53579890D01*
X85583890Y-53730213D01*
X85458949Y-53902182D01*
X85454484Y-53910946D01*
X85406509Y-53961742D01*
X85338688Y-53978536D01*
X85272553Y-53955998D01*
X85233516Y-53910946D01*
X85229050Y-53902182D01*
X85104109Y-53730213D01*
X84953786Y-53579890D01*
X84781820Y-53454951D01*
X84592414Y-53358444D01*
X84592413Y-53358443D01*
X84592412Y-53358443D01*
X84390243Y-53292754D01*
X84390241Y-53292753D01*
X84390240Y-53292753D01*
X84228957Y-53267208D01*
X84180287Y-53259500D01*
X83967713Y-53259500D01*
X83919042Y-53267208D01*
X83757760Y-53292753D01*
X83555585Y-53358444D01*
X83366179Y-53454951D01*
X83194215Y-53579889D01*
X83080285Y-53693819D01*
X83018962Y-53727303D01*
X82949270Y-53722319D01*
X82893337Y-53680447D01*
X82876422Y-53649470D01*
X82827354Y-53517913D01*
X82827350Y-53517906D01*
X82741190Y-53402812D01*
X82741187Y-53402809D01*
X82626093Y-53316649D01*
X82626086Y-53316645D01*
X82491379Y-53266403D01*
X82491372Y-53266401D01*
X82431844Y-53260000D01*
X81784000Y-53260000D01*
X81784000Y-54176988D01*
X81726993Y-54144075D01*
X81599826Y-54110000D01*
X81468174Y-54110000D01*
X81341007Y-54144075D01*
X81284000Y-54176988D01*
X81284000Y-53260000D01*
X80636155Y-53260000D01*
X80576627Y-53266401D01*
X80576620Y-53266403D01*
X80441913Y-53316645D01*
X80441906Y-53316649D01*
X80326812Y-53402809D01*
X80326809Y-53402812D01*
X80240649Y-53517906D01*
X80240645Y-53517913D01*
X80190403Y-53652620D01*
X80190401Y-53652627D01*
X80184000Y-53712155D01*
X68004704Y-53712155D01*
X68006640Y-53694968D01*
X68012599Y-53642072D01*
X68012600Y-53642068D01*
X68012600Y-53346331D01*
X68012599Y-53346327D01*
X67979491Y-53052475D01*
X67979488Y-53052461D01*
X67913682Y-52764146D01*
X67816005Y-52484999D01*
X67687698Y-52218566D01*
X67530357Y-51968159D01*
X67410050Y-51817301D01*
X66691749Y-52535602D01*
X66619081Y-52435583D01*
X66438217Y-52254719D01*
X66338196Y-52182049D01*
X67056497Y-51463748D01*
X66905640Y-51343442D01*
X66707104Y-51218694D01*
X66660813Y-51166359D01*
X66650165Y-51097306D01*
X66678540Y-51033457D01*
X66736930Y-50995085D01*
X66773076Y-50989700D01*
X148248900Y-50989700D01*
X148315939Y-51009385D01*
X148361694Y-51062189D01*
X148372900Y-51113700D01*
X148372900Y-56281300D01*
X148353215Y-56348339D01*
X148300411Y-56394094D01*
X148248900Y-56405300D01*
X147784706Y-56405300D01*
X147610741Y-56439903D01*
X147610732Y-56439906D01*
X147446859Y-56507783D01*
X147446846Y-56507790D01*
X147299365Y-56606335D01*
X147299361Y-56606338D01*
X147173938Y-56731761D01*
X147173935Y-56731765D01*
X147075390Y-56879246D01*
X147075383Y-56879259D01*
X147007506Y-57043132D01*
X147007503Y-57043141D01*
X146972900Y-57217104D01*
X146972900Y-60994495D01*
X147007503Y-61168458D01*
X147007506Y-61168467D01*
X147075383Y-61332340D01*
X147075390Y-61332353D01*
X147173935Y-61479834D01*
X147173938Y-61479838D01*
X147299361Y-61605261D01*
X147299365Y-61605264D01*
X147446846Y-61703809D01*
X147446859Y-61703816D01*
X147562461Y-61751699D01*
X147610734Y-61771694D01*
X147610736Y-61771694D01*
X147610741Y-61771696D01*
X147784704Y-61806299D01*
X147784707Y-61806300D01*
X147784709Y-61806300D01*
X147807508Y-61806300D01*
X148248900Y-61806300D01*
X148315939Y-61825985D01*
X148361694Y-61878789D01*
X148372900Y-61930300D01*
X148372900Y-70195420D01*
X148353215Y-70262459D01*
X148300411Y-70308214D01*
X148248900Y-70319420D01*
X147924782Y-70319420D01*
X147924714Y-70319400D01*
X147873400Y-70319400D01*
X147784706Y-70319400D01*
X147784704Y-70319400D01*
X147610730Y-70354006D01*
X147610723Y-70354008D01*
X147446845Y-70421892D01*
X147446837Y-70421896D01*
X147299348Y-70520450D01*
X147173919Y-70645885D01*
X147075374Y-70793379D01*
X147075372Y-70793383D01*
X147007496Y-70957267D01*
X147007493Y-70957276D01*
X146972896Y-71131244D01*
X146972896Y-71131246D01*
X146972900Y-71219896D01*
X146972900Y-74746445D01*
X146972898Y-74754045D01*
X146972897Y-74754053D01*
X146972897Y-74764928D01*
X146972897Y-74768583D01*
X146972878Y-74768647D01*
X146972883Y-74908636D01*
X146972883Y-74908637D01*
X147007495Y-75082601D01*
X147007497Y-75082610D01*
X147075381Y-75246477D01*
X147075385Y-75246485D01*
X147173931Y-75393961D01*
X147173939Y-75393971D01*
X147299360Y-75519387D01*
X147299367Y-75519392D01*
X147446848Y-75617932D01*
X147446853Y-75617935D01*
X147446856Y-75617937D01*
X147610736Y-75685816D01*
X147784709Y-75720420D01*
X147807508Y-75720420D01*
X148248900Y-75720420D01*
X148315939Y-75740105D01*
X148361694Y-75792909D01*
X148372900Y-75844420D01*
X148372900Y-80864700D01*
X148353215Y-80931739D01*
X148300411Y-80977494D01*
X148248900Y-80988700D01*
X66773076Y-80988700D01*
X66706037Y-80969015D01*
X66660282Y-80916211D01*
X66650338Y-80847053D01*
X66679363Y-80783497D01*
X66707104Y-80759706D01*
X66905641Y-80634956D01*
X67056496Y-80514651D01*
X67056497Y-80514650D01*
X66338196Y-79796350D01*
X66438217Y-79723681D01*
X66619081Y-79542817D01*
X66691750Y-79442796D01*
X67410050Y-80161097D01*
X67410051Y-80161096D01*
X67530356Y-80010241D01*
X67687698Y-79759833D01*
X67816005Y-79493400D01*
X67913682Y-79214253D01*
X67979488Y-78925938D01*
X67979491Y-78925924D01*
X68012599Y-78632072D01*
X68012600Y-78632068D01*
X68012600Y-78336331D01*
X68012599Y-78336327D01*
X67979491Y-78042475D01*
X67979488Y-78042461D01*
X67913682Y-77754146D01*
X67816005Y-77474999D01*
X67687698Y-77208566D01*
X67530357Y-76958159D01*
X67410050Y-76807301D01*
X66691749Y-77525602D01*
X66619081Y-77425583D01*
X66438217Y-77244719D01*
X66338196Y-77172049D01*
X66938111Y-76572135D01*
X80183500Y-76572135D01*
X80183500Y-78367870D01*
X80183501Y-78367876D01*
X80189908Y-78427483D01*
X80240202Y-78562328D01*
X80240206Y-78562335D01*
X80326452Y-78677544D01*
X80326455Y-78677547D01*
X80441664Y-78763793D01*
X80441671Y-78763797D01*
X80576517Y-78814091D01*
X80576516Y-78814091D01*
X80583444Y-78814835D01*
X80636127Y-78820500D01*
X82431872Y-78820499D01*
X82491483Y-78814091D01*
X82626331Y-78763796D01*
X82741546Y-78677546D01*
X82827796Y-78562331D01*
X82876810Y-78430916D01*
X82918681Y-78374984D01*
X82984145Y-78350566D01*
X83052418Y-78365417D01*
X83080673Y-78386569D01*
X83194213Y-78500109D01*
X83366179Y-78625048D01*
X83366181Y-78625049D01*
X83366184Y-78625051D01*
X83555588Y-78721557D01*
X83757757Y-78787246D01*
X83967713Y-78820500D01*
X83967714Y-78820500D01*
X84180286Y-78820500D01*
X84180287Y-78820500D01*
X84390243Y-78787246D01*
X84592412Y-78721557D01*
X84781816Y-78625051D01*
X84868138Y-78562335D01*
X84953786Y-78500109D01*
X84953788Y-78500106D01*
X84953792Y-78500104D01*
X85104104Y-78349792D01*
X85104106Y-78349788D01*
X85104109Y-78349786D01*
X85229048Y-78177820D01*
X85229047Y-78177820D01*
X85229051Y-78177816D01*
X85233514Y-78169054D01*
X85281488Y-78118259D01*
X85349308Y-78101463D01*
X85415444Y-78123999D01*
X85454486Y-78169056D01*
X85458951Y-78177820D01*
X85583890Y-78349786D01*
X85734213Y-78500109D01*
X85906179Y-78625048D01*
X85906181Y-78625049D01*
X85906184Y-78625051D01*
X86095588Y-78721557D01*
X86297757Y-78787246D01*
X86507713Y-78820500D01*
X86507714Y-78820500D01*
X86720286Y-78820500D01*
X86720287Y-78820500D01*
X86930243Y-78787246D01*
X87132412Y-78721557D01*
X87321816Y-78625051D01*
X87408138Y-78562335D01*
X87493786Y-78500109D01*
X87493788Y-78500106D01*
X87493792Y-78500104D01*
X87644104Y-78349792D01*
X87644106Y-78349788D01*
X87644109Y-78349786D01*
X87769048Y-78177820D01*
X87769047Y-78177820D01*
X87769051Y-78177816D01*
X87773514Y-78169054D01*
X87821488Y-78118259D01*
X87889308Y-78101463D01*
X87955444Y-78123999D01*
X87994486Y-78169056D01*
X87998951Y-78177820D01*
X88123890Y-78349786D01*
X88274213Y-78500109D01*
X88446179Y-78625048D01*
X88446181Y-78625049D01*
X88446184Y-78625051D01*
X88635588Y-78721557D01*
X88837757Y-78787246D01*
X89047713Y-78820500D01*
X89047714Y-78820500D01*
X89260286Y-78820500D01*
X89260287Y-78820500D01*
X89470243Y-78787246D01*
X89672412Y-78721557D01*
X89861816Y-78625051D01*
X89948138Y-78562335D01*
X90033786Y-78500109D01*
X90033788Y-78500106D01*
X90033792Y-78500104D01*
X90184104Y-78349792D01*
X90184106Y-78349788D01*
X90184109Y-78349786D01*
X90309048Y-78177820D01*
X90309047Y-78177820D01*
X90309051Y-78177816D01*
X90313514Y-78169054D01*
X90361488Y-78118259D01*
X90429308Y-78101463D01*
X90495444Y-78123999D01*
X90534486Y-78169056D01*
X90538951Y-78177820D01*
X90663890Y-78349786D01*
X90814213Y-78500109D01*
X90986179Y-78625048D01*
X90986181Y-78625049D01*
X90986184Y-78625051D01*
X91175588Y-78721557D01*
X91377757Y-78787246D01*
X91587713Y-78820500D01*
X91587714Y-78820500D01*
X91800286Y-78820500D01*
X91800287Y-78820500D01*
X92010243Y-78787246D01*
X92212412Y-78721557D01*
X92401816Y-78625051D01*
X92488138Y-78562335D01*
X92573786Y-78500109D01*
X92573788Y-78500106D01*
X92573792Y-78500104D01*
X92724104Y-78349792D01*
X92724106Y-78349788D01*
X92724109Y-78349786D01*
X92849048Y-78177820D01*
X92849047Y-78177820D01*
X92849051Y-78177816D01*
X92853514Y-78169054D01*
X92901488Y-78118259D01*
X92969308Y-78101463D01*
X93035444Y-78123999D01*
X93074486Y-78169056D01*
X93078951Y-78177820D01*
X93203890Y-78349786D01*
X93354213Y-78500109D01*
X93526179Y-78625048D01*
X93526181Y-78625049D01*
X93526184Y-78625051D01*
X93715588Y-78721557D01*
X93917757Y-78787246D01*
X94127713Y-78820500D01*
X94127714Y-78820500D01*
X94340286Y-78820500D01*
X94340287Y-78820500D01*
X94550243Y-78787246D01*
X94752412Y-78721557D01*
X94941816Y-78625051D01*
X95028138Y-78562335D01*
X95113786Y-78500109D01*
X95113788Y-78500106D01*
X95113792Y-78500104D01*
X95264104Y-78349792D01*
X95264106Y-78349788D01*
X95264109Y-78349786D01*
X95349890Y-78231717D01*
X95389051Y-78177816D01*
X95393793Y-78168508D01*
X95441763Y-78117711D01*
X95509583Y-78100911D01*
X95575719Y-78123445D01*
X95614763Y-78168500D01*
X95619373Y-78177547D01*
X95658728Y-78231716D01*
X96291037Y-77599408D01*
X96308075Y-77662993D01*
X96373901Y-77777007D01*
X96466993Y-77870099D01*
X96581007Y-77935925D01*
X96644590Y-77952962D01*
X96012282Y-78585269D01*
X96012282Y-78585270D01*
X96066449Y-78624624D01*
X96255782Y-78721095D01*
X96457870Y-78786757D01*
X96667754Y-78820000D01*
X96880246Y-78820000D01*
X97090127Y-78786757D01*
X97090130Y-78786757D01*
X97292217Y-78721095D01*
X97481554Y-78624622D01*
X97535716Y-78585270D01*
X97535717Y-78585270D01*
X96903408Y-77952962D01*
X96966993Y-77935925D01*
X97081007Y-77870099D01*
X97174099Y-77777007D01*
X97239925Y-77662993D01*
X97256962Y-77599408D01*
X97889270Y-78231717D01*
X97889270Y-78231716D01*
X97928622Y-78177554D01*
X97933514Y-78167954D01*
X97981488Y-78117157D01*
X98049308Y-78100361D01*
X98115444Y-78122897D01*
X98154486Y-78167954D01*
X98159375Y-78177550D01*
X98198728Y-78231716D01*
X98831037Y-77599408D01*
X98848075Y-77662993D01*
X98913901Y-77777007D01*
X99006993Y-77870099D01*
X99121007Y-77935925D01*
X99184590Y-77952962D01*
X98552282Y-78585269D01*
X98552282Y-78585270D01*
X98606449Y-78624624D01*
X98795782Y-78721095D01*
X98997870Y-78786757D01*
X99207754Y-78820000D01*
X99420246Y-78820000D01*
X99630127Y-78786757D01*
X99630130Y-78786757D01*
X99832217Y-78721095D01*
X100021554Y-78624622D01*
X100075716Y-78585270D01*
X100075717Y-78585270D01*
X99443408Y-77952962D01*
X99506993Y-77935925D01*
X99621007Y-77870099D01*
X99714099Y-77777007D01*
X99779925Y-77662993D01*
X99796962Y-77599408D01*
X100429270Y-78231717D01*
X100429270Y-78231716D01*
X100468622Y-78177554D01*
X100473514Y-78167954D01*
X100521488Y-78117157D01*
X100589308Y-78100361D01*
X100655444Y-78122897D01*
X100694486Y-78167954D01*
X100699375Y-78177550D01*
X100738728Y-78231716D01*
X101371037Y-77599408D01*
X101388075Y-77662993D01*
X101453901Y-77777007D01*
X101546993Y-77870099D01*
X101661007Y-77935925D01*
X101724590Y-77952962D01*
X101092282Y-78585269D01*
X101092282Y-78585270D01*
X101146449Y-78624624D01*
X101335782Y-78721095D01*
X101537870Y-78786757D01*
X101747754Y-78820000D01*
X101960246Y-78820000D01*
X102170127Y-78786757D01*
X102170130Y-78786757D01*
X102372217Y-78721095D01*
X102561554Y-78624622D01*
X102615716Y-78585270D01*
X102615717Y-78585270D01*
X101983408Y-77952962D01*
X102046993Y-77935925D01*
X102161007Y-77870099D01*
X102254099Y-77777007D01*
X102319925Y-77662993D01*
X102336962Y-77599409D01*
X102969270Y-78231717D01*
X102969270Y-78231716D01*
X103008622Y-78177555D01*
X103013232Y-78168507D01*
X103061205Y-78117709D01*
X103129025Y-78100912D01*
X103195161Y-78123447D01*
X103234204Y-78168504D01*
X103238949Y-78177817D01*
X103363890Y-78349786D01*
X103514213Y-78500109D01*
X103686179Y-78625048D01*
X103686181Y-78625049D01*
X103686184Y-78625051D01*
X103875588Y-78721557D01*
X104077757Y-78787246D01*
X104287713Y-78820500D01*
X104287714Y-78820500D01*
X104500286Y-78820500D01*
X104500287Y-78820500D01*
X104710243Y-78787246D01*
X104912412Y-78721557D01*
X105101816Y-78625051D01*
X105188138Y-78562335D01*
X105273786Y-78500109D01*
X105273788Y-78500106D01*
X105273792Y-78500104D01*
X105424104Y-78349792D01*
X105424106Y-78349788D01*
X105424109Y-78349786D01*
X105509890Y-78231717D01*
X105549051Y-78177816D01*
X105553793Y-78168508D01*
X105601763Y-78117711D01*
X105669583Y-78100911D01*
X105735719Y-78123445D01*
X105774763Y-78168500D01*
X105779373Y-78177547D01*
X105818728Y-78231716D01*
X106451037Y-77599408D01*
X106468075Y-77662993D01*
X106533901Y-77777007D01*
X106626993Y-77870099D01*
X106741007Y-77935925D01*
X106804590Y-77952962D01*
X106172282Y-78585269D01*
X106172282Y-78585270D01*
X106226449Y-78624624D01*
X106415782Y-78721095D01*
X106617870Y-78786757D01*
X106827754Y-78820000D01*
X107040246Y-78820000D01*
X107250127Y-78786757D01*
X107250130Y-78786757D01*
X107452217Y-78721095D01*
X107641554Y-78624622D01*
X107695716Y-78585270D01*
X107695717Y-78585270D01*
X107063408Y-77952962D01*
X107126993Y-77935925D01*
X107241007Y-77870099D01*
X107334099Y-77777007D01*
X107399925Y-77662993D01*
X107416962Y-77599408D01*
X108049270Y-78231717D01*
X108049270Y-78231716D01*
X108088622Y-78177555D01*
X108093232Y-78168507D01*
X108141205Y-78117709D01*
X108209025Y-78100912D01*
X108275161Y-78123447D01*
X108314204Y-78168504D01*
X108318949Y-78177817D01*
X108443890Y-78349786D01*
X108594213Y-78500109D01*
X108766179Y-78625048D01*
X108766181Y-78625049D01*
X108766184Y-78625051D01*
X108955588Y-78721557D01*
X109157757Y-78787246D01*
X109367713Y-78820500D01*
X109367714Y-78820500D01*
X109580286Y-78820500D01*
X109580287Y-78820500D01*
X109790243Y-78787246D01*
X109992412Y-78721557D01*
X110181816Y-78625051D01*
X110268138Y-78562335D01*
X110353786Y-78500109D01*
X110353788Y-78500106D01*
X110353792Y-78500104D01*
X110504104Y-78349792D01*
X110504106Y-78349788D01*
X110504109Y-78349786D01*
X110629048Y-78177820D01*
X110629047Y-78177820D01*
X110629051Y-78177816D01*
X110633514Y-78169054D01*
X110681488Y-78118259D01*
X110749308Y-78101463D01*
X110815444Y-78123999D01*
X110854486Y-78169056D01*
X110858951Y-78177820D01*
X110983890Y-78349786D01*
X111134213Y-78500109D01*
X111306179Y-78625048D01*
X111306181Y-78625049D01*
X111306184Y-78625051D01*
X111495588Y-78721557D01*
X111697757Y-78787246D01*
X111907713Y-78820500D01*
X111907714Y-78820500D01*
X112120286Y-78820500D01*
X112120287Y-78820500D01*
X112330243Y-78787246D01*
X112532412Y-78721557D01*
X112721816Y-78625051D01*
X112808138Y-78562335D01*
X112893786Y-78500109D01*
X112893788Y-78500106D01*
X112893792Y-78500104D01*
X113044104Y-78349792D01*
X113044106Y-78349788D01*
X113044109Y-78349786D01*
X113169048Y-78177820D01*
X113169047Y-78177820D01*
X113169051Y-78177816D01*
X113173514Y-78169054D01*
X113221488Y-78118259D01*
X113289308Y-78101463D01*
X113355444Y-78123999D01*
X113394486Y-78169056D01*
X113398951Y-78177820D01*
X113523890Y-78349786D01*
X113674213Y-78500109D01*
X113846179Y-78625048D01*
X113846181Y-78625049D01*
X113846184Y-78625051D01*
X114035588Y-78721557D01*
X114237757Y-78787246D01*
X114447713Y-78820500D01*
X114447714Y-78820500D01*
X114660286Y-78820500D01*
X114660287Y-78820500D01*
X114870243Y-78787246D01*
X115072412Y-78721557D01*
X115261816Y-78625051D01*
X115348138Y-78562335D01*
X115433786Y-78500109D01*
X115433788Y-78500106D01*
X115433792Y-78500104D01*
X115584104Y-78349792D01*
X115584106Y-78349788D01*
X115584109Y-78349786D01*
X115709048Y-78177820D01*
X115709047Y-78177820D01*
X115709051Y-78177816D01*
X115713514Y-78169054D01*
X115761488Y-78118259D01*
X115829308Y-78101463D01*
X115895444Y-78123999D01*
X115934486Y-78169056D01*
X115938951Y-78177820D01*
X116063890Y-78349786D01*
X116214213Y-78500109D01*
X116386179Y-78625048D01*
X116386181Y-78625049D01*
X116386184Y-78625051D01*
X116575588Y-78721557D01*
X116777757Y-78787246D01*
X116987713Y-78820500D01*
X116987714Y-78820500D01*
X117200286Y-78820500D01*
X117200287Y-78820500D01*
X117410243Y-78787246D01*
X117612412Y-78721557D01*
X117801816Y-78625051D01*
X117888138Y-78562335D01*
X117973786Y-78500109D01*
X117973788Y-78500106D01*
X117973792Y-78500104D01*
X118124104Y-78349792D01*
X118124106Y-78349788D01*
X118124109Y-78349786D01*
X118249048Y-78177820D01*
X118249047Y-78177820D01*
X118249051Y-78177816D01*
X118253514Y-78169054D01*
X118301488Y-78118259D01*
X118369308Y-78101463D01*
X118435444Y-78123999D01*
X118474486Y-78169056D01*
X118478951Y-78177820D01*
X118603890Y-78349786D01*
X118754213Y-78500109D01*
X118926179Y-78625048D01*
X118926181Y-78625049D01*
X118926184Y-78625051D01*
X119115588Y-78721557D01*
X119317757Y-78787246D01*
X119527713Y-78820500D01*
X119527714Y-78820500D01*
X119740286Y-78820500D01*
X119740287Y-78820500D01*
X119950243Y-78787246D01*
X120152412Y-78721557D01*
X120341816Y-78625051D01*
X120428138Y-78562335D01*
X120513786Y-78500109D01*
X120513788Y-78500106D01*
X120513792Y-78500104D01*
X120664104Y-78349792D01*
X120664106Y-78349788D01*
X120664109Y-78349786D01*
X120749890Y-78231717D01*
X120789051Y-78177816D01*
X120793793Y-78168508D01*
X120841763Y-78117711D01*
X120909583Y-78100911D01*
X120975719Y-78123445D01*
X121014763Y-78168500D01*
X121019373Y-78177547D01*
X121058728Y-78231716D01*
X121691037Y-77599408D01*
X121708075Y-77662993D01*
X121773901Y-77777007D01*
X121866993Y-77870099D01*
X121981007Y-77935925D01*
X122044590Y-77952962D01*
X121412282Y-78585269D01*
X121412282Y-78585270D01*
X121466449Y-78624624D01*
X121655782Y-78721095D01*
X121857870Y-78786757D01*
X122067754Y-78820000D01*
X122280246Y-78820000D01*
X122490127Y-78786757D01*
X122490130Y-78786757D01*
X122692217Y-78721095D01*
X122881554Y-78624622D01*
X122935716Y-78585270D01*
X122935717Y-78585270D01*
X122303408Y-77952962D01*
X122366993Y-77935925D01*
X122481007Y-77870099D01*
X122574099Y-77777007D01*
X122639925Y-77662993D01*
X122656962Y-77599409D01*
X123289270Y-78231717D01*
X123289270Y-78231716D01*
X123328622Y-78177554D01*
X123333514Y-78167954D01*
X123381488Y-78117157D01*
X123449308Y-78100361D01*
X123515444Y-78122897D01*
X123554486Y-78167954D01*
X123559375Y-78177550D01*
X123598728Y-78231716D01*
X124231037Y-77599408D01*
X124248075Y-77662993D01*
X124313901Y-77777007D01*
X124406993Y-77870099D01*
X124521007Y-77935925D01*
X124584590Y-77952962D01*
X123952282Y-78585269D01*
X123952282Y-78585270D01*
X124006449Y-78624624D01*
X124195782Y-78721095D01*
X124397870Y-78786757D01*
X124607754Y-78820000D01*
X124820246Y-78820000D01*
X125030127Y-78786757D01*
X125030130Y-78786757D01*
X125232217Y-78721095D01*
X125421554Y-78624622D01*
X125475716Y-78585270D01*
X125475717Y-78585270D01*
X124843408Y-77952962D01*
X124906993Y-77935925D01*
X125021007Y-77870099D01*
X125114099Y-77777007D01*
X125179925Y-77662993D01*
X125196962Y-77599408D01*
X125829270Y-78231717D01*
X125829270Y-78231716D01*
X125868622Y-78177555D01*
X125873232Y-78168507D01*
X125921205Y-78117709D01*
X125989025Y-78100912D01*
X126055161Y-78123447D01*
X126094204Y-78168504D01*
X126098949Y-78177817D01*
X126223890Y-78349786D01*
X126374213Y-78500109D01*
X126546179Y-78625048D01*
X126546181Y-78625049D01*
X126546184Y-78625051D01*
X126735588Y-78721557D01*
X126937757Y-78787246D01*
X127147713Y-78820500D01*
X127147714Y-78820500D01*
X127360286Y-78820500D01*
X127360287Y-78820500D01*
X127570243Y-78787246D01*
X127772412Y-78721557D01*
X127961816Y-78625051D01*
X128048138Y-78562335D01*
X128133786Y-78500109D01*
X128133788Y-78500106D01*
X128133792Y-78500104D01*
X128284104Y-78349792D01*
X128284106Y-78349788D01*
X128284109Y-78349786D01*
X128409048Y-78177820D01*
X128409047Y-78177820D01*
X128409051Y-78177816D01*
X128413514Y-78169054D01*
X128461488Y-78118259D01*
X128529308Y-78101463D01*
X128595444Y-78123999D01*
X128634486Y-78169056D01*
X128638951Y-78177820D01*
X128763890Y-78349786D01*
X128914213Y-78500109D01*
X129086179Y-78625048D01*
X129086181Y-78625049D01*
X129086184Y-78625051D01*
X129275588Y-78721557D01*
X129477757Y-78787246D01*
X129687713Y-78820500D01*
X129687714Y-78820500D01*
X129900286Y-78820500D01*
X129900287Y-78820500D01*
X130110243Y-78787246D01*
X130312412Y-78721557D01*
X130501816Y-78625051D01*
X130588138Y-78562335D01*
X130673786Y-78500109D01*
X130673788Y-78500106D01*
X130673792Y-78500104D01*
X130824104Y-78349792D01*
X130824106Y-78349788D01*
X130824109Y-78349786D01*
X130949048Y-78177820D01*
X130949047Y-78177820D01*
X130949051Y-78177816D01*
X131045557Y-77988412D01*
X131111246Y-77786243D01*
X131144500Y-77576287D01*
X131144500Y-77363713D01*
X131111246Y-77153757D01*
X131045557Y-76951588D01*
X130949051Y-76762184D01*
X130949049Y-76762181D01*
X130949048Y-76762179D01*
X130824109Y-76590213D01*
X130673786Y-76439890D01*
X130501820Y-76314951D01*
X130312414Y-76218444D01*
X130312413Y-76218443D01*
X130312412Y-76218443D01*
X130110243Y-76152754D01*
X130110241Y-76152753D01*
X130110240Y-76152753D01*
X129948957Y-76127208D01*
X129900287Y-76119500D01*
X129687713Y-76119500D01*
X129639042Y-76127208D01*
X129477760Y-76152753D01*
X129275585Y-76218444D01*
X129086179Y-76314951D01*
X128914213Y-76439890D01*
X128763890Y-76590213D01*
X128638949Y-76762182D01*
X128634484Y-76770946D01*
X128586509Y-76821742D01*
X128518688Y-76838536D01*
X128452553Y-76815998D01*
X128413516Y-76770946D01*
X128409050Y-76762182D01*
X128284109Y-76590213D01*
X128133786Y-76439890D01*
X127961820Y-76314951D01*
X127772414Y-76218444D01*
X127772413Y-76218443D01*
X127772412Y-76218443D01*
X127570243Y-76152754D01*
X127570241Y-76152753D01*
X127570240Y-76152753D01*
X127408957Y-76127208D01*
X127360287Y-76119500D01*
X127147713Y-76119500D01*
X127099042Y-76127208D01*
X126937760Y-76152753D01*
X126735585Y-76218444D01*
X126546179Y-76314951D01*
X126374213Y-76439890D01*
X126223890Y-76590213D01*
X126098949Y-76762182D01*
X126094202Y-76771499D01*
X126046227Y-76822293D01*
X125978405Y-76839087D01*
X125912271Y-76816548D01*
X125873234Y-76771495D01*
X125868626Y-76762452D01*
X125829270Y-76708282D01*
X125196962Y-77340590D01*
X125179925Y-77277007D01*
X125114099Y-77162993D01*
X125021007Y-77069901D01*
X124906993Y-77004075D01*
X124843409Y-76987037D01*
X125475716Y-76354728D01*
X125421550Y-76315375D01*
X125232217Y-76218904D01*
X125030129Y-76153242D01*
X124820246Y-76120000D01*
X124607754Y-76120000D01*
X124397872Y-76153242D01*
X124397869Y-76153242D01*
X124195782Y-76218904D01*
X124006439Y-76315380D01*
X123952282Y-76354727D01*
X123952282Y-76354728D01*
X124584591Y-76987037D01*
X124521007Y-77004075D01*
X124406993Y-77069901D01*
X124313901Y-77162993D01*
X124248075Y-77277007D01*
X124231037Y-77340591D01*
X123598728Y-76708282D01*
X123598727Y-76708282D01*
X123559380Y-76762440D01*
X123554483Y-76772051D01*
X123506506Y-76822845D01*
X123438684Y-76839638D01*
X123372550Y-76817098D01*
X123333516Y-76772048D01*
X123328626Y-76762452D01*
X123289270Y-76708282D01*
X122656962Y-77340590D01*
X122639925Y-77277007D01*
X122574099Y-77162993D01*
X122481007Y-77069901D01*
X122366993Y-77004075D01*
X122303409Y-76987037D01*
X122935716Y-76354728D01*
X122881550Y-76315375D01*
X122692217Y-76218904D01*
X122490129Y-76153242D01*
X122280246Y-76120000D01*
X122067754Y-76120000D01*
X121857872Y-76153242D01*
X121857869Y-76153242D01*
X121655782Y-76218904D01*
X121466439Y-76315380D01*
X121412282Y-76354727D01*
X121412282Y-76354728D01*
X122044591Y-76987037D01*
X121981007Y-77004075D01*
X121866993Y-77069901D01*
X121773901Y-77162993D01*
X121708075Y-77277007D01*
X121691037Y-77340591D01*
X121058728Y-76708282D01*
X121058727Y-76708282D01*
X121019380Y-76762440D01*
X121019376Y-76762446D01*
X121014760Y-76771505D01*
X120966781Y-76822297D01*
X120898959Y-76839087D01*
X120832826Y-76816543D01*
X120793794Y-76771493D01*
X120789051Y-76762184D01*
X120789049Y-76762181D01*
X120789048Y-76762179D01*
X120664109Y-76590213D01*
X120513786Y-76439890D01*
X120341820Y-76314951D01*
X120152414Y-76218444D01*
X120152413Y-76218443D01*
X120152412Y-76218443D01*
X119950243Y-76152754D01*
X119950241Y-76152753D01*
X119950240Y-76152753D01*
X119788957Y-76127208D01*
X119740287Y-76119500D01*
X119527713Y-76119500D01*
X119479042Y-76127208D01*
X119317760Y-76152753D01*
X119115585Y-76218444D01*
X118926179Y-76314951D01*
X118754213Y-76439890D01*
X118603890Y-76590213D01*
X118478949Y-76762182D01*
X118474484Y-76770946D01*
X118426509Y-76821742D01*
X118358688Y-76838536D01*
X118292553Y-76815998D01*
X118253516Y-76770946D01*
X118249050Y-76762182D01*
X118124109Y-76590213D01*
X117973786Y-76439890D01*
X117801820Y-76314951D01*
X117612414Y-76218444D01*
X117612413Y-76218443D01*
X117612412Y-76218443D01*
X117410243Y-76152754D01*
X117410241Y-76152753D01*
X117410240Y-76152753D01*
X117248957Y-76127208D01*
X117200287Y-76119500D01*
X116987713Y-76119500D01*
X116939042Y-76127208D01*
X116777760Y-76152753D01*
X116575585Y-76218444D01*
X116386179Y-76314951D01*
X116214213Y-76439890D01*
X116063890Y-76590213D01*
X115938949Y-76762182D01*
X115934484Y-76770946D01*
X115886509Y-76821742D01*
X115818688Y-76838536D01*
X115752553Y-76815998D01*
X115713516Y-76770946D01*
X115709050Y-76762182D01*
X115584109Y-76590213D01*
X115433786Y-76439890D01*
X115261820Y-76314951D01*
X115072414Y-76218444D01*
X115072413Y-76218443D01*
X115072412Y-76218443D01*
X114870243Y-76152754D01*
X114870241Y-76152753D01*
X114870240Y-76152753D01*
X114708957Y-76127208D01*
X114660287Y-76119500D01*
X114447713Y-76119500D01*
X114399042Y-76127208D01*
X114237760Y-76152753D01*
X114035585Y-76218444D01*
X113846179Y-76314951D01*
X113674213Y-76439890D01*
X113523890Y-76590213D01*
X113398949Y-76762182D01*
X113394484Y-76770946D01*
X113346509Y-76821742D01*
X113278688Y-76838536D01*
X113212553Y-76815998D01*
X113173516Y-76770946D01*
X113169050Y-76762182D01*
X113044109Y-76590213D01*
X112893786Y-76439890D01*
X112721820Y-76314951D01*
X112532414Y-76218444D01*
X112532413Y-76218443D01*
X112532412Y-76218443D01*
X112330243Y-76152754D01*
X112330241Y-76152753D01*
X112330240Y-76152753D01*
X112168957Y-76127208D01*
X112120287Y-76119500D01*
X111907713Y-76119500D01*
X111859042Y-76127208D01*
X111697760Y-76152753D01*
X111495585Y-76218444D01*
X111306179Y-76314951D01*
X111134213Y-76439890D01*
X110983890Y-76590213D01*
X110858949Y-76762182D01*
X110854484Y-76770946D01*
X110806509Y-76821742D01*
X110738688Y-76838536D01*
X110672553Y-76815998D01*
X110633516Y-76770946D01*
X110629050Y-76762182D01*
X110504109Y-76590213D01*
X110353786Y-76439890D01*
X110181820Y-76314951D01*
X109992414Y-76218444D01*
X109992413Y-76218443D01*
X109992412Y-76218443D01*
X109790243Y-76152754D01*
X109790241Y-76152753D01*
X109790240Y-76152753D01*
X109628957Y-76127208D01*
X109580287Y-76119500D01*
X109367713Y-76119500D01*
X109319042Y-76127208D01*
X109157760Y-76152753D01*
X108955585Y-76218444D01*
X108766179Y-76314951D01*
X108594213Y-76439890D01*
X108443890Y-76590213D01*
X108318949Y-76762182D01*
X108314202Y-76771499D01*
X108266227Y-76822293D01*
X108198405Y-76839087D01*
X108132271Y-76816548D01*
X108093234Y-76771495D01*
X108088626Y-76762452D01*
X108049270Y-76708282D01*
X108049269Y-76708282D01*
X107416962Y-77340590D01*
X107399925Y-77277007D01*
X107334099Y-77162993D01*
X107241007Y-77069901D01*
X107126993Y-77004075D01*
X107063409Y-76987037D01*
X107695716Y-76354728D01*
X107641550Y-76315375D01*
X107452217Y-76218904D01*
X107250129Y-76153242D01*
X107040246Y-76120000D01*
X106827754Y-76120000D01*
X106617872Y-76153242D01*
X106617869Y-76153242D01*
X106415782Y-76218904D01*
X106226439Y-76315380D01*
X106172282Y-76354727D01*
X106172282Y-76354728D01*
X106804591Y-76987037D01*
X106741007Y-77004075D01*
X106626993Y-77069901D01*
X106533901Y-77162993D01*
X106468075Y-77277007D01*
X106451037Y-77340591D01*
X105818728Y-76708282D01*
X105818727Y-76708282D01*
X105779380Y-76762440D01*
X105779376Y-76762446D01*
X105774760Y-76771505D01*
X105726781Y-76822297D01*
X105658959Y-76839087D01*
X105592826Y-76816543D01*
X105553794Y-76771493D01*
X105549051Y-76762184D01*
X105549049Y-76762181D01*
X105549048Y-76762179D01*
X105424109Y-76590213D01*
X105273786Y-76439890D01*
X105101820Y-76314951D01*
X104912414Y-76218444D01*
X104912413Y-76218443D01*
X104912412Y-76218443D01*
X104710243Y-76152754D01*
X104710241Y-76152753D01*
X104710240Y-76152753D01*
X104548957Y-76127208D01*
X104500287Y-76119500D01*
X104287713Y-76119500D01*
X104239042Y-76127208D01*
X104077760Y-76152753D01*
X103875585Y-76218444D01*
X103686179Y-76314951D01*
X103514213Y-76439890D01*
X103363890Y-76590213D01*
X103238949Y-76762182D01*
X103234202Y-76771499D01*
X103186227Y-76822293D01*
X103118405Y-76839087D01*
X103052271Y-76816548D01*
X103013234Y-76771495D01*
X103008626Y-76762452D01*
X102969270Y-76708282D01*
X102969269Y-76708282D01*
X102336962Y-77340590D01*
X102319925Y-77277007D01*
X102254099Y-77162993D01*
X102161007Y-77069901D01*
X102046993Y-77004075D01*
X101983409Y-76987037D01*
X102615716Y-76354728D01*
X102561550Y-76315375D01*
X102372217Y-76218904D01*
X102170129Y-76153242D01*
X101960246Y-76120000D01*
X101747754Y-76120000D01*
X101537872Y-76153242D01*
X101537869Y-76153242D01*
X101335782Y-76218904D01*
X101146439Y-76315380D01*
X101092282Y-76354727D01*
X101092282Y-76354728D01*
X101724591Y-76987037D01*
X101661007Y-77004075D01*
X101546993Y-77069901D01*
X101453901Y-77162993D01*
X101388075Y-77277007D01*
X101371037Y-77340591D01*
X100738728Y-76708282D01*
X100738727Y-76708282D01*
X100699380Y-76762440D01*
X100694483Y-76772051D01*
X100646506Y-76822845D01*
X100578684Y-76839638D01*
X100512550Y-76817098D01*
X100473516Y-76772048D01*
X100468626Y-76762452D01*
X100429270Y-76708282D01*
X100429269Y-76708282D01*
X99796962Y-77340590D01*
X99779925Y-77277007D01*
X99714099Y-77162993D01*
X99621007Y-77069901D01*
X99506993Y-77004075D01*
X99443409Y-76987037D01*
X100075716Y-76354728D01*
X100021550Y-76315375D01*
X99832217Y-76218904D01*
X99630129Y-76153242D01*
X99420246Y-76120000D01*
X99207754Y-76120000D01*
X98997872Y-76153242D01*
X98997869Y-76153242D01*
X98795782Y-76218904D01*
X98606439Y-76315380D01*
X98552282Y-76354727D01*
X98552282Y-76354728D01*
X99184591Y-76987037D01*
X99121007Y-77004075D01*
X99006993Y-77069901D01*
X98913901Y-77162993D01*
X98848075Y-77277007D01*
X98831037Y-77340591D01*
X98198728Y-76708282D01*
X98198727Y-76708282D01*
X98159380Y-76762440D01*
X98154483Y-76772051D01*
X98106506Y-76822845D01*
X98038684Y-76839638D01*
X97972550Y-76817098D01*
X97933516Y-76772048D01*
X97928626Y-76762452D01*
X97889270Y-76708282D01*
X97889269Y-76708282D01*
X97256962Y-77340590D01*
X97239925Y-77277007D01*
X97174099Y-77162993D01*
X97081007Y-77069901D01*
X96966993Y-77004075D01*
X96903409Y-76987037D01*
X97535716Y-76354728D01*
X97481550Y-76315375D01*
X97292217Y-76218904D01*
X97090129Y-76153242D01*
X96880246Y-76120000D01*
X96667754Y-76120000D01*
X96457872Y-76153242D01*
X96457869Y-76153242D01*
X96255782Y-76218904D01*
X96066439Y-76315380D01*
X96012282Y-76354727D01*
X96012282Y-76354728D01*
X96644591Y-76987037D01*
X96581007Y-77004075D01*
X96466993Y-77069901D01*
X96373901Y-77162993D01*
X96308075Y-77277007D01*
X96291037Y-77340591D01*
X95658728Y-76708282D01*
X95658727Y-76708282D01*
X95619380Y-76762440D01*
X95619376Y-76762446D01*
X95614760Y-76771505D01*
X95566781Y-76822297D01*
X95498959Y-76839087D01*
X95432826Y-76816543D01*
X95393794Y-76771493D01*
X95389051Y-76762184D01*
X95389049Y-76762181D01*
X95389048Y-76762179D01*
X95264109Y-76590213D01*
X95113786Y-76439890D01*
X94941820Y-76314951D01*
X94752414Y-76218444D01*
X94752413Y-76218443D01*
X94752412Y-76218443D01*
X94550243Y-76152754D01*
X94550241Y-76152753D01*
X94550240Y-76152753D01*
X94388957Y-76127208D01*
X94340287Y-76119500D01*
X94127713Y-76119500D01*
X94079042Y-76127208D01*
X93917760Y-76152753D01*
X93715585Y-76218444D01*
X93526179Y-76314951D01*
X93354213Y-76439890D01*
X93203890Y-76590213D01*
X93078949Y-76762182D01*
X93074484Y-76770946D01*
X93026509Y-76821742D01*
X92958688Y-76838536D01*
X92892553Y-76815998D01*
X92853516Y-76770946D01*
X92849050Y-76762182D01*
X92724109Y-76590213D01*
X92573786Y-76439890D01*
X92401820Y-76314951D01*
X92212414Y-76218444D01*
X92212413Y-76218443D01*
X92212412Y-76218443D01*
X92010243Y-76152754D01*
X92010241Y-76152753D01*
X92010240Y-76152753D01*
X91848957Y-76127208D01*
X91800287Y-76119500D01*
X91587713Y-76119500D01*
X91539042Y-76127208D01*
X91377760Y-76152753D01*
X91175585Y-76218444D01*
X90986179Y-76314951D01*
X90814213Y-76439890D01*
X90663890Y-76590213D01*
X90538949Y-76762182D01*
X90534484Y-76770946D01*
X90486509Y-76821742D01*
X90418688Y-76838536D01*
X90352553Y-76815998D01*
X90313516Y-76770946D01*
X90309050Y-76762182D01*
X90184109Y-76590213D01*
X90033786Y-76439890D01*
X89861820Y-76314951D01*
X89672414Y-76218444D01*
X89672413Y-76218443D01*
X89672412Y-76218443D01*
X89470243Y-76152754D01*
X89470241Y-76152753D01*
X89470240Y-76152753D01*
X89308957Y-76127208D01*
X89260287Y-76119500D01*
X89047713Y-76119500D01*
X88999042Y-76127208D01*
X88837760Y-76152753D01*
X88635585Y-76218444D01*
X88446179Y-76314951D01*
X88274213Y-76439890D01*
X88123890Y-76590213D01*
X87998949Y-76762182D01*
X87994484Y-76770946D01*
X87946509Y-76821742D01*
X87878688Y-76838536D01*
X87812553Y-76815998D01*
X87773516Y-76770946D01*
X87769050Y-76762182D01*
X87644109Y-76590213D01*
X87493786Y-76439890D01*
X87321820Y-76314951D01*
X87132414Y-76218444D01*
X87132413Y-76218443D01*
X87132412Y-76218443D01*
X86930243Y-76152754D01*
X86930241Y-76152753D01*
X86930240Y-76152753D01*
X86768957Y-76127208D01*
X86720287Y-76119500D01*
X86507713Y-76119500D01*
X86459042Y-76127208D01*
X86297760Y-76152753D01*
X86095585Y-76218444D01*
X85906179Y-76314951D01*
X85734213Y-76439890D01*
X85583890Y-76590213D01*
X85458949Y-76762182D01*
X85454484Y-76770946D01*
X85406509Y-76821742D01*
X85338688Y-76838536D01*
X85272553Y-76815998D01*
X85233516Y-76770946D01*
X85229050Y-76762182D01*
X85104109Y-76590213D01*
X84953786Y-76439890D01*
X84781820Y-76314951D01*
X84592414Y-76218444D01*
X84592413Y-76218443D01*
X84592412Y-76218443D01*
X84390243Y-76152754D01*
X84390241Y-76152753D01*
X84390240Y-76152753D01*
X84228957Y-76127208D01*
X84180287Y-76119500D01*
X83967713Y-76119500D01*
X83919042Y-76127208D01*
X83757760Y-76152753D01*
X83555585Y-76218444D01*
X83366179Y-76314951D01*
X83194215Y-76439889D01*
X83080673Y-76553431D01*
X83019350Y-76586915D01*
X82949658Y-76581931D01*
X82893725Y-76540059D01*
X82876810Y-76509082D01*
X82827797Y-76377671D01*
X82827793Y-76377664D01*
X82741547Y-76262455D01*
X82741544Y-76262452D01*
X82626335Y-76176206D01*
X82626328Y-76176202D01*
X82491482Y-76125908D01*
X82491483Y-76125908D01*
X82431883Y-76119501D01*
X82431881Y-76119500D01*
X82431873Y-76119500D01*
X82431864Y-76119500D01*
X80636129Y-76119500D01*
X80636123Y-76119501D01*
X80576516Y-76125908D01*
X80441671Y-76176202D01*
X80441664Y-76176206D01*
X80326455Y-76262452D01*
X80326452Y-76262455D01*
X80240206Y-76377664D01*
X80240202Y-76377671D01*
X80189908Y-76512517D01*
X80183501Y-76572116D01*
X80183500Y-76572135D01*
X66938111Y-76572135D01*
X67029121Y-76481125D01*
X67056497Y-76453748D01*
X66905640Y-76333442D01*
X66655233Y-76176101D01*
X66388800Y-76047794D01*
X66109653Y-75950117D01*
X65821338Y-75884311D01*
X65821324Y-75884308D01*
X65527472Y-75851200D01*
X65231727Y-75851200D01*
X64937875Y-75884308D01*
X64937861Y-75884311D01*
X64649546Y-75950117D01*
X64370399Y-76047794D01*
X64103966Y-76176101D01*
X63853559Y-76333443D01*
X63702701Y-76453747D01*
X64421003Y-77172049D01*
X64320983Y-77244719D01*
X64140119Y-77425583D01*
X64067449Y-77525603D01*
X63349147Y-76807301D01*
X63228843Y-76958159D01*
X63071501Y-77208566D01*
X62943194Y-77474999D01*
X62845517Y-77754146D01*
X62779711Y-78042461D01*
X62779708Y-78042475D01*
X62746600Y-78336327D01*
X62746600Y-78632072D01*
X62779708Y-78925924D01*
X62779711Y-78925938D01*
X62845517Y-79214253D01*
X62943194Y-79493400D01*
X63071501Y-79759833D01*
X63228842Y-80010240D01*
X63349148Y-80161097D01*
X64067449Y-79442795D01*
X64140119Y-79542817D01*
X64320983Y-79723681D01*
X64421002Y-79796349D01*
X63702701Y-80514650D01*
X63853559Y-80634957D01*
X64052096Y-80759706D01*
X64098387Y-80812041D01*
X64109035Y-80881094D01*
X64080660Y-80944943D01*
X64022270Y-80983315D01*
X63986124Y-80988700D01*
X54497900Y-80988700D01*
X54430861Y-80969015D01*
X54385106Y-80916211D01*
X54373900Y-80864700D01*
X54373900Y-71453054D01*
X60105498Y-71453054D01*
X60146424Y-71605789D01*
X60146425Y-71605790D01*
X60169988Y-71646601D01*
X60171165Y-71648639D01*
X60225479Y-71742714D01*
X60225481Y-71742717D01*
X60344349Y-71861585D01*
X60344355Y-71861590D01*
X62761139Y-74278374D01*
X62761149Y-74278385D01*
X62765479Y-74282715D01*
X62765480Y-74282716D01*
X62877284Y-74394520D01*
X62877286Y-74394521D01*
X62877290Y-74394524D01*
X62992693Y-74461151D01*
X63014216Y-74473577D01*
X63126019Y-74503534D01*
X63166942Y-74514500D01*
X63166943Y-74514500D01*
X70112834Y-74514500D01*
X70179873Y-74534185D01*
X70181725Y-74535398D01*
X70313414Y-74623390D01*
X70313427Y-74623397D01*
X70459098Y-74683735D01*
X70459103Y-74683737D01*
X70613753Y-74714499D01*
X70613756Y-74714500D01*
X70613758Y-74714500D01*
X70771444Y-74714500D01*
X70771445Y-74714499D01*
X70926097Y-74683737D01*
X71071779Y-74623394D01*
X71202889Y-74535789D01*
X71314389Y-74424289D01*
X71401994Y-74293179D01*
X71462337Y-74147497D01*
X71493100Y-73992842D01*
X71493100Y-73835158D01*
X71493100Y-73835155D01*
X71493099Y-73835153D01*
X71480860Y-73773623D01*
X71462337Y-73680503D01*
X71413286Y-73562082D01*
X71401997Y-73534827D01*
X71401990Y-73534814D01*
X71314389Y-73403711D01*
X71314386Y-73403707D01*
X71202892Y-73292213D01*
X71202888Y-73292210D01*
X71071785Y-73204609D01*
X71071772Y-73204602D01*
X70926101Y-73144264D01*
X70926089Y-73144261D01*
X70771445Y-73113500D01*
X70771442Y-73113500D01*
X70613758Y-73113500D01*
X70613755Y-73113500D01*
X70459110Y-73144261D01*
X70459098Y-73144264D01*
X70313427Y-73204602D01*
X70313414Y-73204609D01*
X70181725Y-73292602D01*
X70115047Y-73313480D01*
X70112834Y-73313500D01*
X63546097Y-73313500D01*
X63479058Y-73293815D01*
X63458416Y-73277181D01*
X61342819Y-71161584D01*
X61309334Y-71100261D01*
X61306500Y-71073903D01*
X61306500Y-70794471D01*
X61326185Y-70727432D01*
X61378989Y-70681677D01*
X61448147Y-70671733D01*
X61511703Y-70700758D01*
X61548431Y-70756152D01*
X61576459Y-70842415D01*
X61661280Y-71008882D01*
X61673858Y-71033568D01*
X61799962Y-71207135D01*
X61951665Y-71358838D01*
X62125232Y-71484942D01*
X62178764Y-71512218D01*
X62316384Y-71582340D01*
X62316386Y-71582340D01*
X62316389Y-71582342D01*
X62425760Y-71617878D01*
X62520429Y-71648639D01*
X62732325Y-71682200D01*
X62732330Y-71682200D01*
X62946875Y-71682200D01*
X63158770Y-71648639D01*
X63165042Y-71646601D01*
X63362811Y-71582342D01*
X63553968Y-71484942D01*
X63727535Y-71358838D01*
X63805419Y-71280954D01*
X63866742Y-71247469D01*
X63936434Y-71252453D01*
X63992367Y-71294325D01*
X64016784Y-71359789D01*
X64017100Y-71368635D01*
X64017100Y-71571436D01*
X64050648Y-71783249D01*
X64116923Y-71987220D01*
X64214288Y-72178310D01*
X64255378Y-72234865D01*
X64255379Y-72234866D01*
X64835399Y-71654846D01*
X64843785Y-71686142D01*
X64919485Y-71817258D01*
X65026542Y-71924315D01*
X65157658Y-72000015D01*
X65188952Y-72008400D01*
X64608932Y-72588419D01*
X64665493Y-72629513D01*
X64856579Y-72726876D01*
X65060550Y-72793151D01*
X65272364Y-72826700D01*
X65486836Y-72826700D01*
X65698649Y-72793151D01*
X65902620Y-72726876D01*
X66093705Y-72629514D01*
X66150265Y-72588419D01*
X66150266Y-72588419D01*
X65570246Y-72008400D01*
X65601542Y-72000015D01*
X65732658Y-71924315D01*
X65839715Y-71817258D01*
X65915415Y-71686142D01*
X65923800Y-71654847D01*
X66503819Y-72234866D01*
X66503819Y-72234865D01*
X66544914Y-72178305D01*
X66642276Y-71987220D01*
X66708550Y-71783253D01*
X66714344Y-71746669D01*
X66744272Y-71683533D01*
X66803583Y-71646601D01*
X66873446Y-71647597D01*
X66880151Y-71649882D01*
X66949617Y-71675791D01*
X66949616Y-71675791D01*
X66956544Y-71676535D01*
X67009227Y-71682200D01*
X68829972Y-71682199D01*
X68889583Y-71675791D01*
X69024431Y-71625496D01*
X69139646Y-71539246D01*
X69225896Y-71424031D01*
X69276191Y-71289183D01*
X69282600Y-71229573D01*
X69282600Y-71193700D01*
X69302285Y-71126661D01*
X69355089Y-71080906D01*
X69406600Y-71069700D01*
X118158783Y-71069700D01*
X118256325Y-71050296D01*
X118303776Y-71040858D01*
X118440358Y-70984284D01*
X118489592Y-70951386D01*
X118563279Y-70902152D01*
X125537819Y-63927612D01*
X125599142Y-63894127D01*
X125668834Y-63899111D01*
X125724767Y-63940983D01*
X125749184Y-64006447D01*
X125749500Y-64015293D01*
X125749500Y-64204222D01*
X125780290Y-64398626D01*
X125841117Y-64585829D01*
X125930476Y-64761205D01*
X126046172Y-64920446D01*
X126046174Y-64920448D01*
X126110945Y-64985219D01*
X126144430Y-65046542D01*
X126139446Y-65116234D01*
X126110945Y-65160581D01*
X126046174Y-65225351D01*
X126046174Y-65225352D01*
X126046172Y-65225354D01*
X126012003Y-65272383D01*
X125930476Y-65384594D01*
X125841117Y-65559970D01*
X125780290Y-65747173D01*
X125749500Y-65941577D01*
X125749500Y-66138422D01*
X125780290Y-66332826D01*
X125841117Y-66520029D01*
X125895691Y-66627135D01*
X125930476Y-66695405D01*
X126046172Y-66854646D01*
X126046174Y-66854648D01*
X126133805Y-66942279D01*
X126167290Y-67003602D01*
X126162306Y-67073294D01*
X126133805Y-67117641D01*
X126046174Y-67205271D01*
X126046174Y-67205272D01*
X126046172Y-67205274D01*
X126019212Y-67242381D01*
X125930476Y-67364514D01*
X125841117Y-67539890D01*
X125780290Y-67727093D01*
X125749500Y-67921497D01*
X125749500Y-68118342D01*
X125780290Y-68312746D01*
X125841117Y-68499949D01*
X125918076Y-68650989D01*
X125930476Y-68675325D01*
X126046172Y-68834566D01*
X126046174Y-68834568D01*
X126058885Y-68847279D01*
X126092370Y-68908602D01*
X126087386Y-68978294D01*
X126058885Y-69022641D01*
X126046174Y-69035351D01*
X126046174Y-69035352D01*
X126046172Y-69035354D01*
X126018179Y-69073883D01*
X125930476Y-69194594D01*
X125841117Y-69369970D01*
X125780290Y-69557173D01*
X125749500Y-69751577D01*
X125749500Y-69948422D01*
X125780290Y-70142826D01*
X125841117Y-70330029D01*
X125895796Y-70437342D01*
X125930476Y-70505405D01*
X126046172Y-70664646D01*
X126185354Y-70803828D01*
X126344595Y-70919524D01*
X126407128Y-70951386D01*
X126519970Y-71008882D01*
X126519972Y-71008882D01*
X126519975Y-71008884D01*
X126595944Y-71033568D01*
X126707173Y-71069709D01*
X126901578Y-71100500D01*
X126901583Y-71100500D01*
X127098422Y-71100500D01*
X127206422Y-71083393D01*
X127292826Y-71069709D01*
X127310762Y-71063880D01*
X127380601Y-71061884D01*
X127436762Y-71094130D01*
X134840969Y-78498336D01*
X134945504Y-78602871D01*
X134945507Y-78602873D01*
X134945508Y-78602874D01*
X135068423Y-78685003D01*
X135068426Y-78685005D01*
X135118683Y-78705822D01*
X135118687Y-78705823D01*
X135125000Y-78708438D01*
X135205008Y-78741579D01*
X135316702Y-78763796D01*
X135339228Y-78768276D01*
X135350001Y-78770420D01*
X135350002Y-78770420D01*
X135350003Y-78770420D01*
X135497838Y-78770420D01*
X138016196Y-78770420D01*
X138083235Y-78790105D01*
X138103877Y-78806739D01*
X138156472Y-78859334D01*
X138296612Y-78961152D01*
X138450955Y-79039793D01*
X138615699Y-79093322D01*
X138786789Y-79120420D01*
X138786790Y-79120420D01*
X139960010Y-79120420D01*
X139960011Y-79120420D01*
X140131101Y-79093322D01*
X140295845Y-79039793D01*
X140450188Y-78961152D01*
X140590328Y-78859334D01*
X140712814Y-78736848D01*
X140814632Y-78596708D01*
X140893273Y-78442365D01*
X140946802Y-78277621D01*
X140973900Y-78106531D01*
X140973900Y-77936148D01*
X143522900Y-77936148D01*
X143522900Y-78103691D01*
X143555582Y-78267994D01*
X143555584Y-78268002D01*
X143619695Y-78422780D01*
X143712773Y-78562082D01*
X143831237Y-78680546D01*
X143922580Y-78741579D01*
X143970537Y-78773623D01*
X143970538Y-78773623D01*
X143970539Y-78773624D01*
X144005601Y-78788147D01*
X144125318Y-78837736D01*
X144260987Y-78864722D01*
X144289628Y-78870419D01*
X144289632Y-78870420D01*
X144289633Y-78870420D01*
X144457168Y-78870420D01*
X144457169Y-78870419D01*
X144621482Y-78837736D01*
X144776263Y-78773623D01*
X144915562Y-78680546D01*
X145034026Y-78562082D01*
X145127103Y-78422783D01*
X145191216Y-78268002D01*
X145223900Y-78103687D01*
X145223900Y-77936153D01*
X145223899Y-77936148D01*
X146022900Y-77936148D01*
X146022900Y-78103691D01*
X146055582Y-78267994D01*
X146055584Y-78268002D01*
X146119695Y-78422780D01*
X146212773Y-78562082D01*
X146331237Y-78680546D01*
X146422580Y-78741579D01*
X146470537Y-78773623D01*
X146470538Y-78773623D01*
X146470539Y-78773624D01*
X146505601Y-78788147D01*
X146625318Y-78837736D01*
X146760987Y-78864722D01*
X146789628Y-78870419D01*
X146789632Y-78870420D01*
X146789633Y-78870420D01*
X146957168Y-78870420D01*
X146957169Y-78870419D01*
X147121482Y-78837736D01*
X147276263Y-78773623D01*
X147415562Y-78680546D01*
X147534026Y-78562082D01*
X147627103Y-78422783D01*
X147691216Y-78268002D01*
X147723900Y-78103687D01*
X147723900Y-77936153D01*
X147691216Y-77771838D01*
X147627103Y-77617057D01*
X147572826Y-77535826D01*
X147534026Y-77477757D01*
X147415562Y-77359293D01*
X147276260Y-77266215D01*
X147121482Y-77202104D01*
X147121474Y-77202102D01*
X146957171Y-77169420D01*
X146957167Y-77169420D01*
X146789633Y-77169420D01*
X146789628Y-77169420D01*
X146625325Y-77202102D01*
X146625317Y-77202104D01*
X146470539Y-77266215D01*
X146331237Y-77359293D01*
X146212773Y-77477757D01*
X146119695Y-77617059D01*
X146055584Y-77771837D01*
X146055582Y-77771845D01*
X146022900Y-77936148D01*
X145223899Y-77936148D01*
X145191216Y-77771838D01*
X145127103Y-77617057D01*
X145072826Y-77535826D01*
X145034026Y-77477757D01*
X144915562Y-77359293D01*
X144776260Y-77266215D01*
X144621482Y-77202104D01*
X144621474Y-77202102D01*
X144457171Y-77169420D01*
X144457167Y-77169420D01*
X144289633Y-77169420D01*
X144289628Y-77169420D01*
X144125325Y-77202102D01*
X144125317Y-77202104D01*
X143970539Y-77266215D01*
X143831237Y-77359293D01*
X143712773Y-77477757D01*
X143619695Y-77617059D01*
X143555584Y-77771837D01*
X143555582Y-77771845D01*
X143522900Y-77936148D01*
X140973900Y-77936148D01*
X140973900Y-77933309D01*
X140946802Y-77762219D01*
X140893273Y-77597475D01*
X140814632Y-77443132D01*
X140712814Y-77302992D01*
X140590328Y-77180506D01*
X140450188Y-77078688D01*
X140295845Y-77000047D01*
X140131101Y-76946518D01*
X140131099Y-76946517D01*
X140131098Y-76946517D01*
X139999671Y-76925701D01*
X139960011Y-76919420D01*
X138786789Y-76919420D01*
X138747128Y-76925701D01*
X138615702Y-76946517D01*
X138600095Y-76951588D01*
X138518030Y-76978253D01*
X138450952Y-77000048D01*
X138296611Y-77078688D01*
X138216656Y-77136779D01*
X138156472Y-77180506D01*
X138156470Y-77180508D01*
X138156469Y-77180508D01*
X138103877Y-77233101D01*
X138042554Y-77266586D01*
X138016196Y-77269420D01*
X135786149Y-77269420D01*
X135719110Y-77249735D01*
X135698468Y-77233101D01*
X131483110Y-73017742D01*
X131401516Y-72936148D01*
X138522900Y-72936148D01*
X138522900Y-73103691D01*
X138555582Y-73267994D01*
X138555584Y-73268002D01*
X138619695Y-73422780D01*
X138712773Y-73562082D01*
X138831237Y-73680546D01*
X138923894Y-73742457D01*
X138970537Y-73773623D01*
X139125318Y-73837736D01*
X139289628Y-73870419D01*
X139289632Y-73870420D01*
X139289633Y-73870420D01*
X139457168Y-73870420D01*
X139457169Y-73870419D01*
X139621482Y-73837736D01*
X139776263Y-73773623D01*
X139915562Y-73680546D01*
X140034026Y-73562082D01*
X140127103Y-73422783D01*
X140191216Y-73268002D01*
X140223900Y-73103687D01*
X140223900Y-72936153D01*
X140191216Y-72771838D01*
X140132263Y-72629514D01*
X140127104Y-72617059D01*
X140107967Y-72588419D01*
X140095937Y-72570414D01*
X140034026Y-72477757D01*
X139915562Y-72359293D01*
X139776260Y-72266215D01*
X139621482Y-72202104D01*
X139621474Y-72202102D01*
X139457171Y-72169420D01*
X139457167Y-72169420D01*
X139289633Y-72169420D01*
X139289628Y-72169420D01*
X139125325Y-72202102D01*
X139125317Y-72202104D01*
X138970539Y-72266215D01*
X138831237Y-72359293D01*
X138712773Y-72477757D01*
X138619695Y-72617059D01*
X138555584Y-72771837D01*
X138555582Y-72771845D01*
X138522900Y-72936148D01*
X131401516Y-72936148D01*
X128285303Y-69819935D01*
X128251818Y-69758612D01*
X128250511Y-69751652D01*
X128227257Y-69604832D01*
X128219709Y-69557174D01*
X128158884Y-69369975D01*
X128158882Y-69369972D01*
X128158882Y-69369970D01*
X128079599Y-69214369D01*
X128069524Y-69194595D01*
X127953828Y-69035354D01*
X127941115Y-69022641D01*
X127939059Y-69018876D01*
X127935440Y-69016573D01*
X127922459Y-68988476D01*
X127907630Y-68961318D01*
X127907936Y-68957039D01*
X127906137Y-68953145D01*
X127910406Y-68922498D01*
X127912614Y-68891626D01*
X127915353Y-68886986D01*
X127915777Y-68883944D01*
X127925196Y-68870313D01*
X127934728Y-68854169D01*
X127937788Y-68850605D01*
X127953828Y-68834566D01*
X127966259Y-68817455D01*
X127969546Y-68813629D01*
X127994793Y-68797246D01*
X128018628Y-68778868D01*
X128024945Y-68777681D01*
X128028158Y-68775597D01*
X128036234Y-68775561D01*
X128063614Y-68770420D01*
X138016196Y-68770420D01*
X138083235Y-68790105D01*
X138103877Y-68806739D01*
X138156472Y-68859334D01*
X138296612Y-68961152D01*
X138450955Y-69039793D01*
X138615699Y-69093322D01*
X138786789Y-69120420D01*
X138786790Y-69120420D01*
X139960010Y-69120420D01*
X139960011Y-69120420D01*
X140131101Y-69093322D01*
X140295845Y-69039793D01*
X140450188Y-68961152D01*
X140590328Y-68859334D01*
X140712814Y-68736848D01*
X140814632Y-68596708D01*
X140893273Y-68442365D01*
X140946802Y-68277621D01*
X140973900Y-68106531D01*
X140973900Y-67933309D01*
X140946802Y-67762219D01*
X140893273Y-67597475D01*
X140814632Y-67443132D01*
X140712814Y-67302992D01*
X140590328Y-67180506D01*
X140450188Y-67078688D01*
X140344788Y-67024984D01*
X140293993Y-66977011D01*
X140277198Y-66909190D01*
X140299735Y-66843055D01*
X140354450Y-66799603D01*
X140401084Y-66790500D01*
X141920500Y-66790500D01*
X141987539Y-66810185D01*
X142033294Y-66862989D01*
X142044500Y-66914500D01*
X142044500Y-71367754D01*
X142044500Y-71515590D01*
X142044500Y-71515592D01*
X142044499Y-71515592D01*
X142073340Y-71660579D01*
X142073343Y-71660589D01*
X142129912Y-71797160D01*
X142129919Y-71797173D01*
X142212047Y-71920086D01*
X142212048Y-71920087D01*
X142212049Y-71920088D01*
X142316584Y-72024623D01*
X142316586Y-72024624D01*
X142320131Y-72028169D01*
X142321734Y-72029622D01*
X143236581Y-72944469D01*
X143270066Y-73005792D01*
X143272900Y-73032150D01*
X143272900Y-73606530D01*
X143299364Y-73773623D01*
X143299998Y-73777621D01*
X143353527Y-73942365D01*
X143432168Y-74096708D01*
X143533986Y-74236848D01*
X143656472Y-74359334D01*
X143796612Y-74461152D01*
X143950955Y-74539793D01*
X144115699Y-74593322D01*
X144286789Y-74620420D01*
X144286790Y-74620420D01*
X144460010Y-74620420D01*
X144460011Y-74620420D01*
X144631101Y-74593322D01*
X144795845Y-74539793D01*
X144950188Y-74461152D01*
X145090328Y-74359334D01*
X145212814Y-74236848D01*
X145314632Y-74096708D01*
X145393273Y-73942365D01*
X145446802Y-73777621D01*
X145473900Y-73606531D01*
X145473900Y-72433309D01*
X145446802Y-72262219D01*
X145393273Y-72097475D01*
X145314632Y-71943132D01*
X145212814Y-71802992D01*
X145090328Y-71680506D01*
X144950188Y-71578688D01*
X144795845Y-71500047D01*
X144631101Y-71446518D01*
X144631099Y-71446517D01*
X144631098Y-71446517D01*
X144489149Y-71424035D01*
X144460011Y-71419420D01*
X144286789Y-71419420D01*
X144257695Y-71424028D01*
X144115701Y-71446517D01*
X144115697Y-71446518D01*
X143996004Y-71485408D01*
X143926163Y-71487403D01*
X143870006Y-71455158D01*
X143581819Y-71166971D01*
X143548334Y-71105648D01*
X143545500Y-71079290D01*
X143545500Y-68694171D01*
X143565185Y-68627132D01*
X143617989Y-68581377D01*
X143687147Y-68571433D01*
X143750703Y-68600458D01*
X143757181Y-68606490D01*
X143831237Y-68680546D01*
X143923894Y-68742457D01*
X143970537Y-68773623D01*
X143970538Y-68773623D01*
X143970539Y-68773624D01*
X143983199Y-68778868D01*
X144125318Y-68837736D01*
X144289095Y-68870313D01*
X144289628Y-68870419D01*
X144289632Y-68870420D01*
X144289633Y-68870420D01*
X144457168Y-68870420D01*
X144457169Y-68870419D01*
X144621482Y-68837736D01*
X144776263Y-68773623D01*
X144915562Y-68680546D01*
X145034026Y-68562082D01*
X145127103Y-68422783D01*
X145191216Y-68268002D01*
X145223900Y-68103687D01*
X145223900Y-67936153D01*
X145223899Y-67936148D01*
X146022900Y-67936148D01*
X146022900Y-68103691D01*
X146055582Y-68267994D01*
X146055584Y-68268002D01*
X146119695Y-68422780D01*
X146212773Y-68562082D01*
X146331237Y-68680546D01*
X146423894Y-68742457D01*
X146470537Y-68773623D01*
X146470538Y-68773623D01*
X146470539Y-68773624D01*
X146483199Y-68778868D01*
X146625318Y-68837736D01*
X146789095Y-68870313D01*
X146789628Y-68870419D01*
X146789632Y-68870420D01*
X146789633Y-68870420D01*
X146957168Y-68870420D01*
X146957169Y-68870419D01*
X147121482Y-68837736D01*
X147276263Y-68773623D01*
X147415562Y-68680546D01*
X147534026Y-68562082D01*
X147627103Y-68422783D01*
X147691216Y-68268002D01*
X147723900Y-68103687D01*
X147723900Y-67936153D01*
X147691216Y-67771838D01*
X147640716Y-67649922D01*
X147627104Y-67617059D01*
X147614018Y-67597475D01*
X147575545Y-67539895D01*
X147534026Y-67477757D01*
X147415562Y-67359293D01*
X147276260Y-67266215D01*
X147121482Y-67202104D01*
X147121474Y-67202102D01*
X146957171Y-67169420D01*
X146957167Y-67169420D01*
X146789633Y-67169420D01*
X146789628Y-67169420D01*
X146625325Y-67202102D01*
X146625317Y-67202104D01*
X146470539Y-67266215D01*
X146331237Y-67359293D01*
X146212773Y-67477757D01*
X146119695Y-67617059D01*
X146055584Y-67771837D01*
X146055582Y-67771845D01*
X146022900Y-67936148D01*
X145223899Y-67936148D01*
X145191216Y-67771838D01*
X145140716Y-67649922D01*
X145127104Y-67617059D01*
X145114018Y-67597475D01*
X145075545Y-67539895D01*
X145034026Y-67477757D01*
X144915562Y-67359293D01*
X144776260Y-67266215D01*
X144621482Y-67202104D01*
X144621474Y-67202102D01*
X144457171Y-67169420D01*
X144457167Y-67169420D01*
X144289633Y-67169420D01*
X144289628Y-67169420D01*
X144125325Y-67202102D01*
X144125317Y-67202104D01*
X143970539Y-67266215D01*
X143831237Y-67359293D01*
X143831234Y-67359296D01*
X143757181Y-67433350D01*
X143695858Y-67466835D01*
X143626166Y-67461851D01*
X143570233Y-67419979D01*
X143545816Y-67354515D01*
X143545500Y-67345669D01*
X143545500Y-64780051D01*
X143565185Y-64713012D01*
X143617989Y-64667257D01*
X143687147Y-64657313D01*
X143750703Y-64686338D01*
X143757181Y-64692370D01*
X143831237Y-64766426D01*
X143923894Y-64828337D01*
X143970537Y-64859503D01*
X143970538Y-64859503D01*
X143970539Y-64859504D01*
X143999423Y-64871468D01*
X144125318Y-64923616D01*
X144269931Y-64952381D01*
X144289628Y-64956299D01*
X144289632Y-64956300D01*
X144289633Y-64956300D01*
X144457168Y-64956300D01*
X144457169Y-64956299D01*
X144621482Y-64923616D01*
X144776263Y-64859503D01*
X144915562Y-64766426D01*
X145034026Y-64647962D01*
X145127103Y-64508663D01*
X145191216Y-64353882D01*
X145223900Y-64189567D01*
X145223900Y-64022033D01*
X145223899Y-64022028D01*
X146022900Y-64022028D01*
X146022900Y-64189571D01*
X146055582Y-64353874D01*
X146055584Y-64353882D01*
X146119695Y-64508660D01*
X146212773Y-64647962D01*
X146331237Y-64766426D01*
X146423894Y-64828337D01*
X146470537Y-64859503D01*
X146470538Y-64859503D01*
X146470539Y-64859504D01*
X146499423Y-64871468D01*
X146625318Y-64923616D01*
X146769931Y-64952381D01*
X146789628Y-64956299D01*
X146789632Y-64956300D01*
X146789633Y-64956300D01*
X146957168Y-64956300D01*
X146957169Y-64956299D01*
X147121482Y-64923616D01*
X147276263Y-64859503D01*
X147415562Y-64766426D01*
X147534026Y-64647962D01*
X147627103Y-64508663D01*
X147691216Y-64353882D01*
X147723900Y-64189567D01*
X147723900Y-64022033D01*
X147691216Y-63857718D01*
X147627103Y-63702937D01*
X147575545Y-63625775D01*
X147534026Y-63563637D01*
X147415562Y-63445173D01*
X147276260Y-63352095D01*
X147121482Y-63287984D01*
X147121474Y-63287982D01*
X146957171Y-63255300D01*
X146957167Y-63255300D01*
X146789633Y-63255300D01*
X146789628Y-63255300D01*
X146625325Y-63287982D01*
X146625317Y-63287984D01*
X146470539Y-63352095D01*
X146331237Y-63445173D01*
X146212773Y-63563637D01*
X146119695Y-63702939D01*
X146055584Y-63857717D01*
X146055582Y-63857725D01*
X146022900Y-64022028D01*
X145223899Y-64022028D01*
X145191216Y-63857718D01*
X145127103Y-63702937D01*
X145075545Y-63625775D01*
X145034026Y-63563637D01*
X144915562Y-63445173D01*
X144776260Y-63352095D01*
X144621482Y-63287984D01*
X144621474Y-63287982D01*
X144457171Y-63255300D01*
X144457167Y-63255300D01*
X144289633Y-63255300D01*
X144289628Y-63255300D01*
X144125325Y-63287982D01*
X144125317Y-63287984D01*
X143970539Y-63352095D01*
X143831237Y-63445173D01*
X143831234Y-63445176D01*
X143757181Y-63519230D01*
X143695858Y-63552715D01*
X143626166Y-63547731D01*
X143570233Y-63505859D01*
X143545816Y-63440395D01*
X143545500Y-63431549D01*
X143545500Y-61046429D01*
X143565185Y-60979390D01*
X143581815Y-60958752D01*
X143870008Y-60670558D01*
X143931329Y-60637075D01*
X143996002Y-60640309D01*
X144115699Y-60679202D01*
X144286789Y-60706300D01*
X144286790Y-60706300D01*
X144460010Y-60706300D01*
X144460011Y-60706300D01*
X144631101Y-60679202D01*
X144795845Y-60625673D01*
X144950188Y-60547032D01*
X145090328Y-60445214D01*
X145212814Y-60322728D01*
X145314632Y-60182588D01*
X145393273Y-60028245D01*
X145446802Y-59863501D01*
X145473900Y-59692411D01*
X145473900Y-58519189D01*
X145446802Y-58348099D01*
X145393273Y-58183355D01*
X145314632Y-58029012D01*
X145212814Y-57888872D01*
X145090328Y-57766386D01*
X144950188Y-57664568D01*
X144795845Y-57585927D01*
X144631101Y-57532398D01*
X144631099Y-57532397D01*
X144631098Y-57532397D01*
X144499671Y-57511581D01*
X144460011Y-57505300D01*
X144286789Y-57505300D01*
X144247128Y-57511581D01*
X144115702Y-57532397D01*
X143950952Y-57585928D01*
X143796611Y-57664568D01*
X143716656Y-57722659D01*
X143656472Y-57766386D01*
X143656470Y-57766388D01*
X143656469Y-57766388D01*
X143533988Y-57888869D01*
X143533988Y-57888870D01*
X143533986Y-57888872D01*
X143490259Y-57949056D01*
X143432168Y-58029011D01*
X143353528Y-58183352D01*
X143299997Y-58348102D01*
X143272900Y-58519189D01*
X143272900Y-59093569D01*
X143253215Y-59160608D01*
X143236581Y-59181250D01*
X142321701Y-60096129D01*
X142320098Y-60097583D01*
X142212047Y-60205633D01*
X142129919Y-60328546D01*
X142129912Y-60328559D01*
X142073343Y-60465130D01*
X142073340Y-60465140D01*
X142044500Y-60610127D01*
X142044500Y-65165500D01*
X142024815Y-65232539D01*
X141972011Y-65278294D01*
X141920500Y-65289500D01*
X140490815Y-65289500D01*
X140423776Y-65269815D01*
X140378021Y-65217011D01*
X140368077Y-65147853D01*
X140397102Y-65084297D01*
X140434521Y-65055015D01*
X140450186Y-65047033D01*
X140450185Y-65047033D01*
X140450188Y-65047032D01*
X140590328Y-64945214D01*
X140712814Y-64822728D01*
X140814632Y-64682588D01*
X140893273Y-64528245D01*
X140946802Y-64363501D01*
X140973900Y-64192411D01*
X140973900Y-64019189D01*
X140946802Y-63848099D01*
X140893273Y-63683355D01*
X140814632Y-63529012D01*
X140712814Y-63388872D01*
X140590328Y-63266386D01*
X140450188Y-63164568D01*
X140295845Y-63085927D01*
X140131101Y-63032398D01*
X140131099Y-63032397D01*
X140131098Y-63032397D01*
X139999671Y-63011581D01*
X139960011Y-63005300D01*
X138786789Y-63005300D01*
X138747128Y-63011581D01*
X138615702Y-63032397D01*
X138450952Y-63085928D01*
X138296611Y-63164568D01*
X138258669Y-63192135D01*
X138156472Y-63266386D01*
X138156470Y-63266388D01*
X138156469Y-63266388D01*
X138103877Y-63318981D01*
X138042554Y-63352466D01*
X138016196Y-63355300D01*
X128063614Y-63355300D01*
X128031494Y-63345868D01*
X127999116Y-63337206D01*
X127997771Y-63335966D01*
X127996575Y-63335615D01*
X127971891Y-63314744D01*
X127967303Y-63309701D01*
X127953828Y-63291154D01*
X127916178Y-63253504D01*
X127914213Y-63251344D01*
X127900163Y-63222449D01*
X127884770Y-63194258D01*
X127884986Y-63191234D01*
X127883661Y-63188509D01*
X127887462Y-63156611D01*
X127889754Y-63124566D01*
X127891628Y-63121648D01*
X127891929Y-63119130D01*
X127897894Y-63111899D01*
X127918255Y-63080219D01*
X127953828Y-63044646D01*
X128069524Y-62885405D01*
X128158884Y-62710025D01*
X128219709Y-62522826D01*
X128231416Y-62448913D01*
X128250500Y-62328422D01*
X128250500Y-62131584D01*
X128248488Y-62118884D01*
X128247980Y-62115673D01*
X128256934Y-62046380D01*
X128282769Y-62008597D01*
X131269339Y-59022028D01*
X138522900Y-59022028D01*
X138522900Y-59189571D01*
X138555582Y-59353874D01*
X138555584Y-59353882D01*
X138619695Y-59508660D01*
X138712773Y-59647962D01*
X138831237Y-59766426D01*
X138895137Y-59809122D01*
X138970537Y-59859503D01*
X139125318Y-59923616D01*
X139289628Y-59956299D01*
X139289632Y-59956300D01*
X139289633Y-59956300D01*
X139457168Y-59956300D01*
X139457169Y-59956299D01*
X139621482Y-59923616D01*
X139776263Y-59859503D01*
X139915562Y-59766426D01*
X140034026Y-59647962D01*
X140127103Y-59508663D01*
X140191216Y-59353882D01*
X140223900Y-59189567D01*
X140223900Y-59022033D01*
X140191216Y-58857718D01*
X140127103Y-58702937D01*
X140095937Y-58656294D01*
X140034026Y-58563637D01*
X139915562Y-58445173D01*
X139776260Y-58352095D01*
X139621482Y-58287984D01*
X139621474Y-58287982D01*
X139457171Y-58255300D01*
X139457167Y-58255300D01*
X139289633Y-58255300D01*
X139289628Y-58255300D01*
X139125325Y-58287982D01*
X139125317Y-58287984D01*
X138970539Y-58352095D01*
X138831237Y-58445173D01*
X138712773Y-58563637D01*
X138619695Y-58702939D01*
X138555584Y-58857717D01*
X138555582Y-58857725D01*
X138522900Y-59022028D01*
X131269339Y-59022028D01*
X135398749Y-54892619D01*
X135460072Y-54859134D01*
X135486430Y-54856300D01*
X138016196Y-54856300D01*
X138083235Y-54875985D01*
X138103877Y-54892619D01*
X138156472Y-54945214D01*
X138296612Y-55047032D01*
X138450955Y-55125673D01*
X138615699Y-55179202D01*
X138786789Y-55206300D01*
X138786790Y-55206300D01*
X139960010Y-55206300D01*
X139960011Y-55206300D01*
X140131101Y-55179202D01*
X140295845Y-55125673D01*
X140450188Y-55047032D01*
X140590328Y-54945214D01*
X140712814Y-54822728D01*
X140814632Y-54682588D01*
X140893273Y-54528245D01*
X140946802Y-54363501D01*
X140973900Y-54192411D01*
X140973900Y-54022028D01*
X143522900Y-54022028D01*
X143522900Y-54189571D01*
X143555582Y-54353874D01*
X143555584Y-54353882D01*
X143619695Y-54508660D01*
X143712773Y-54647962D01*
X143831237Y-54766426D01*
X143923894Y-54828337D01*
X143970537Y-54859503D01*
X143970538Y-54859503D01*
X143970539Y-54859504D01*
X144005601Y-54874027D01*
X144125318Y-54923616D01*
X144289628Y-54956299D01*
X144289632Y-54956300D01*
X144289633Y-54956300D01*
X144457168Y-54956300D01*
X144457169Y-54956299D01*
X144621482Y-54923616D01*
X144776263Y-54859503D01*
X144915562Y-54766426D01*
X145034026Y-54647962D01*
X145127103Y-54508663D01*
X145191216Y-54353882D01*
X145223900Y-54189567D01*
X145223900Y-54022033D01*
X145223899Y-54022028D01*
X146022900Y-54022028D01*
X146022900Y-54189571D01*
X146055582Y-54353874D01*
X146055584Y-54353882D01*
X146119695Y-54508660D01*
X146212773Y-54647962D01*
X146331237Y-54766426D01*
X146423894Y-54828337D01*
X146470537Y-54859503D01*
X146470538Y-54859503D01*
X146470539Y-54859504D01*
X146505601Y-54874027D01*
X146625318Y-54923616D01*
X146789628Y-54956299D01*
X146789632Y-54956300D01*
X146789633Y-54956300D01*
X146957168Y-54956300D01*
X146957169Y-54956299D01*
X147121482Y-54923616D01*
X147276263Y-54859503D01*
X147415562Y-54766426D01*
X147534026Y-54647962D01*
X147627103Y-54508663D01*
X147691216Y-54353882D01*
X147723900Y-54189567D01*
X147723900Y-54022033D01*
X147691216Y-53857718D01*
X147627103Y-53702937D01*
X147586434Y-53642072D01*
X147534026Y-53563637D01*
X147415562Y-53445173D01*
X147276260Y-53352095D01*
X147121482Y-53287984D01*
X147121474Y-53287982D01*
X146957171Y-53255300D01*
X146957167Y-53255300D01*
X146789633Y-53255300D01*
X146789628Y-53255300D01*
X146625325Y-53287982D01*
X146625317Y-53287984D01*
X146470539Y-53352095D01*
X146331237Y-53445173D01*
X146212773Y-53563637D01*
X146119695Y-53702939D01*
X146055584Y-53857717D01*
X146055582Y-53857725D01*
X146022900Y-54022028D01*
X145223899Y-54022028D01*
X145191216Y-53857718D01*
X145127103Y-53702937D01*
X145086434Y-53642072D01*
X145034026Y-53563637D01*
X144915562Y-53445173D01*
X144776260Y-53352095D01*
X144621482Y-53287984D01*
X144621474Y-53287982D01*
X144457171Y-53255300D01*
X144457167Y-53255300D01*
X144289633Y-53255300D01*
X144289628Y-53255300D01*
X144125325Y-53287982D01*
X144125317Y-53287984D01*
X143970539Y-53352095D01*
X143831237Y-53445173D01*
X143712773Y-53563637D01*
X143619695Y-53702939D01*
X143555584Y-53857717D01*
X143555582Y-53857725D01*
X143522900Y-54022028D01*
X140973900Y-54022028D01*
X140973900Y-54019189D01*
X140946802Y-53848099D01*
X140893273Y-53683355D01*
X140814632Y-53529012D01*
X140712814Y-53388872D01*
X140590328Y-53266386D01*
X140450188Y-53164568D01*
X140295845Y-53085927D01*
X140131101Y-53032398D01*
X140131099Y-53032397D01*
X140131098Y-53032397D01*
X139999671Y-53011581D01*
X139960011Y-53005300D01*
X138786789Y-53005300D01*
X138747128Y-53011581D01*
X138615702Y-53032397D01*
X138450952Y-53085928D01*
X138296611Y-53164568D01*
X138216656Y-53222659D01*
X138156472Y-53266386D01*
X138156470Y-53266388D01*
X138156469Y-53266388D01*
X138103877Y-53318981D01*
X138042554Y-53352466D01*
X138016196Y-53355300D01*
X135050280Y-53355300D01*
X134905292Y-53384140D01*
X134905282Y-53384143D01*
X134768709Y-53440713D01*
X134768704Y-53440716D01*
X134747403Y-53454948D01*
X134747404Y-53454949D01*
X134645779Y-53522851D01*
X127221404Y-60947226D01*
X127160081Y-60980711D01*
X127114329Y-60982019D01*
X127098421Y-60979500D01*
X127098417Y-60979500D01*
X126901583Y-60979500D01*
X126901578Y-60979500D01*
X126707173Y-61010290D01*
X126519970Y-61071117D01*
X126344594Y-61160476D01*
X126333596Y-61168467D01*
X126185354Y-61276172D01*
X126185352Y-61276174D01*
X126185351Y-61276174D01*
X126057181Y-61404345D01*
X125995858Y-61437830D01*
X125926166Y-61432846D01*
X125870233Y-61390974D01*
X125845816Y-61325510D01*
X125845500Y-61316664D01*
X125845500Y-59616079D01*
X125816659Y-59471092D01*
X125816658Y-59471091D01*
X125816658Y-59471087D01*
X125816656Y-59471082D01*
X125760087Y-59334511D01*
X125760080Y-59334498D01*
X125677952Y-59211585D01*
X125626975Y-59160608D01*
X125573416Y-59107049D01*
X125324084Y-58857717D01*
X124303421Y-57837052D01*
X124303420Y-57837051D01*
X124206350Y-57772192D01*
X124180499Y-57754919D01*
X124180495Y-57754916D01*
X124180493Y-57754915D01*
X124180490Y-57754913D01*
X124043917Y-57698343D01*
X124043907Y-57698340D01*
X123898920Y-57669500D01*
X123898918Y-57669500D01*
X122628917Y-57669500D01*
X122481082Y-57669500D01*
X122481080Y-57669500D01*
X122336092Y-57698340D01*
X122336082Y-57698343D01*
X122199511Y-57754912D01*
X122199498Y-57754919D01*
X122076584Y-57837048D01*
X122076580Y-57837051D01*
X120702050Y-59211580D01*
X120702044Y-59211588D01*
X120652812Y-59285268D01*
X120652813Y-59285269D01*
X120619921Y-59334496D01*
X120619914Y-59334508D01*
X120563342Y-59471086D01*
X120563340Y-59471092D01*
X120534500Y-59616079D01*
X120534500Y-59896385D01*
X120525217Y-59927995D01*
X120516992Y-59959910D01*
X120515304Y-59961757D01*
X120514815Y-59963424D01*
X120494781Y-59987339D01*
X120489356Y-59992365D01*
X120470354Y-60006172D01*
X120418538Y-60057987D01*
X120416780Y-60059617D01*
X120387532Y-60074170D01*
X120358856Y-60089829D01*
X120356416Y-60089654D01*
X120354227Y-60090744D01*
X120321743Y-60087174D01*
X120289164Y-60084844D01*
X120286818Y-60083336D01*
X120284776Y-60083112D01*
X120278264Y-60077838D01*
X120244818Y-60056344D01*
X120194648Y-60006174D01*
X120194646Y-60006172D01*
X120035405Y-59890476D01*
X119996092Y-59870445D01*
X119860029Y-59801117D01*
X119672826Y-59740290D01*
X119478422Y-59709500D01*
X119478417Y-59709500D01*
X119281583Y-59709500D01*
X119281578Y-59709500D01*
X119087173Y-59740290D01*
X118899970Y-59801117D01*
X118724594Y-59890476D01*
X118667507Y-59931953D01*
X118565354Y-60006172D01*
X118565352Y-60006174D01*
X118565350Y-60006175D01*
X118515180Y-60056345D01*
X118509326Y-60059541D01*
X118505534Y-60065031D01*
X118479040Y-60076078D01*
X118453857Y-60089829D01*
X118447204Y-60089353D01*
X118441046Y-60091921D01*
X118412789Y-60086891D01*
X118384165Y-60084844D01*
X118377208Y-60080558D01*
X118372257Y-60079677D01*
X118351240Y-60064559D01*
X118343218Y-60059617D01*
X118341486Y-60058012D01*
X118289646Y-60006172D01*
X118270638Y-59992361D01*
X118265218Y-59987339D01*
X118250949Y-59963419D01*
X118233948Y-59941370D01*
X118232179Y-59931953D01*
X118229424Y-59927334D01*
X118229708Y-59918796D01*
X118225500Y-59896385D01*
X118225500Y-59616079D01*
X118196659Y-59471092D01*
X118196658Y-59471091D01*
X118196658Y-59471087D01*
X118196656Y-59471082D01*
X118140087Y-59334511D01*
X118140080Y-59334498D01*
X118057952Y-59211585D01*
X118006975Y-59160608D01*
X117953416Y-59107049D01*
X117704084Y-58857717D01*
X116683421Y-57837052D01*
X116683420Y-57837051D01*
X116586350Y-57772192D01*
X116560499Y-57754919D01*
X116560495Y-57754916D01*
X116560493Y-57754915D01*
X116560490Y-57754913D01*
X116423917Y-57698343D01*
X116423907Y-57698340D01*
X116278920Y-57669500D01*
X116278918Y-57669500D01*
X70584882Y-57669500D01*
X70584880Y-57669500D01*
X70439892Y-57698340D01*
X70439882Y-57698343D01*
X70303309Y-57754913D01*
X70277450Y-57772192D01*
X70180382Y-57837049D01*
X70180381Y-57837050D01*
X68239332Y-59778098D01*
X68178009Y-59811583D01*
X68132253Y-59812890D01*
X68026874Y-59796200D01*
X68026870Y-59796200D01*
X67812330Y-59796200D01*
X67812325Y-59796200D01*
X67600429Y-59829760D01*
X67396384Y-59896059D01*
X67205231Y-59993458D01*
X67114277Y-60059541D01*
X67031665Y-60119562D01*
X67031663Y-60119564D01*
X67031662Y-60119564D01*
X66879964Y-60271262D01*
X66879964Y-60271263D01*
X66879962Y-60271265D01*
X66825805Y-60345805D01*
X66753858Y-60444831D01*
X66656459Y-60635984D01*
X66590160Y-60840029D01*
X66556600Y-61051924D01*
X66556600Y-61254265D01*
X66536915Y-61321304D01*
X66484111Y-61367059D01*
X66414953Y-61377003D01*
X66351397Y-61347978D01*
X66344919Y-61341946D01*
X66267537Y-61264564D01*
X66267535Y-61264562D01*
X66093968Y-61138458D01*
X65902815Y-61041059D01*
X65698770Y-60974760D01*
X65486875Y-60941200D01*
X65486870Y-60941200D01*
X65272330Y-60941200D01*
X65272325Y-60941200D01*
X65060429Y-60974760D01*
X64856384Y-61041059D01*
X64665231Y-61138458D01*
X64623928Y-61168467D01*
X64491665Y-61264562D01*
X64491663Y-61264564D01*
X64491662Y-61264564D01*
X64414281Y-61341946D01*
X64352958Y-61375431D01*
X64283266Y-61370447D01*
X64227333Y-61328575D01*
X64202916Y-61263111D01*
X64202600Y-61254265D01*
X64202600Y-61051924D01*
X64169039Y-60840029D01*
X64113975Y-60670560D01*
X64102742Y-60635989D01*
X64102740Y-60635986D01*
X64102740Y-60635984D01*
X64018864Y-60471370D01*
X64005342Y-60444832D01*
X63879238Y-60271265D01*
X63727535Y-60119562D01*
X63553968Y-59993458D01*
X63521562Y-59976946D01*
X63362815Y-59896059D01*
X63158770Y-59829760D01*
X62946875Y-59796200D01*
X62946870Y-59796200D01*
X62732330Y-59796200D01*
X62732325Y-59796200D01*
X62520429Y-59829760D01*
X62316384Y-59896059D01*
X62125231Y-59993458D01*
X62034277Y-60059541D01*
X61951665Y-60119562D01*
X61951663Y-60119564D01*
X61951662Y-60119564D01*
X61799964Y-60271262D01*
X61799964Y-60271263D01*
X61799962Y-60271265D01*
X61745805Y-60345805D01*
X61673858Y-60444831D01*
X61576459Y-60635984D01*
X61510160Y-60840029D01*
X61476600Y-61051924D01*
X61476600Y-61266475D01*
X61510160Y-61478370D01*
X61576459Y-61682415D01*
X61670525Y-61867027D01*
X61673858Y-61873568D01*
X61799962Y-62047135D01*
X61799964Y-62047137D01*
X61951665Y-62198838D01*
X61958609Y-62203883D01*
X62001274Y-62259214D01*
X62007252Y-62328827D01*
X61974645Y-62390622D01*
X61958609Y-62404517D01*
X61951665Y-62409561D01*
X61799964Y-62561262D01*
X61799964Y-62561263D01*
X61799962Y-62561265D01*
X61754840Y-62623370D01*
X61673858Y-62734831D01*
X61576459Y-62925984D01*
X61510160Y-63130029D01*
X61476600Y-63341924D01*
X61476600Y-63556475D01*
X61510160Y-63768370D01*
X61576459Y-63972415D01*
X61626686Y-64070989D01*
X61673858Y-64163568D01*
X61799962Y-64337135D01*
X61799964Y-64337137D01*
X61951665Y-64488838D01*
X61958609Y-64493883D01*
X62001274Y-64549214D01*
X62007252Y-64618827D01*
X61974645Y-64680622D01*
X61958609Y-64694517D01*
X61951665Y-64699561D01*
X61799964Y-64851262D01*
X61799964Y-64851263D01*
X61799962Y-64851265D01*
X61796304Y-64856300D01*
X61673856Y-65024833D01*
X61650336Y-65070995D01*
X61602362Y-65121790D01*
X61539852Y-65138699D01*
X61435743Y-65138699D01*
X61364671Y-65157743D01*
X61283016Y-65179622D01*
X61236808Y-65206301D01*
X61236807Y-65206300D01*
X61146087Y-65258677D01*
X61146082Y-65258681D01*
X60225481Y-66179282D01*
X60225475Y-66179290D01*
X60179507Y-66258911D01*
X60179507Y-66258912D01*
X60146423Y-66316214D01*
X60146423Y-66316215D01*
X60105499Y-66468943D01*
X60105499Y-66627057D01*
X60105499Y-66627059D01*
X60105500Y-66637053D01*
X60105500Y-71287330D01*
X60105499Y-71287348D01*
X60105499Y-71453054D01*
X60105498Y-71453054D01*
X54373900Y-71453054D01*
X54373900Y-51113700D01*
X54393585Y-51046661D01*
X54446389Y-51000906D01*
X54497900Y-50989700D01*
X63986124Y-50989700D01*
X64053163Y-51009385D01*
G37*
G04 #@! TD.AperFunction*
M02*
