M48
; DRILL file {KiCad 9.0.2-9.0.2-0~ubuntu22.04.1} date 2025-07-06T23:18:42+0100
; FORMAT={-:-/ absolute / metric / decimal}
; #@! TF.CreationDate,2025-07-06T23:18:42+01:00
; #@! TF.GenerationSoftware,Kicad,Pcbnew,9.0.2-9.0.2-0~ubuntu22.04.1
; #@! TF.FileFunction,Plated,1,2,PTH
FMAT,2
METRIC
; #@! TA.AperFunction,Plated,PTH,ViaDrill
T1C0.300
; #@! TA.AperFunction,Plated,PTH,ViaDrill
T2C0.750
; #@! TA.AperFunction,Plated,PTH,ComponentDrill
T3C1.000
; #@! TA.AperFunction,Plated,PTH,ComponentDrill
T4C1.150
; #@! TA.AperFunction,Plated,PTH,ComponentDrill
T5C3.250
%
G90
G05
T1
X70.693Y-73.914
X77.851Y-75.565
X89.027Y-72.644
X98.806Y-72.644
X106.274Y-75.184
X110.744Y-74.422
X124.46Y-57.404
X124.714Y-74.422
T2
X115.57Y-60.96
X117.475Y-60.96
X119.38Y-60.96
X121.285Y-60.96
X123.19Y-60.96
X127.0Y-62.484
X127.0Y-64.516
X127.0Y-66.548
X127.0Y-68.58
X127.0Y-70.612
T3
X81.534Y-54.61
X81.534Y-77.47
X84.074Y-54.61
X84.074Y-77.47
X86.614Y-54.61
X86.614Y-77.47
X89.154Y-54.61
X89.154Y-77.47
X91.694Y-54.61
X91.694Y-77.47
X94.234Y-54.61
X94.234Y-77.47
X96.774Y-54.61
X96.774Y-77.47
X99.314Y-54.61
X99.314Y-77.47
X101.854Y-54.61
X101.854Y-77.47
X104.394Y-54.61
X104.394Y-77.47
X106.934Y-54.61
X106.934Y-77.47
X109.474Y-54.61
X109.474Y-77.47
X112.014Y-54.61
X112.014Y-77.47
X114.554Y-54.61
X114.554Y-77.47
X117.094Y-54.61
X117.094Y-77.47
X119.634Y-54.61
X119.634Y-77.47
X122.174Y-54.61
X122.174Y-77.47
X124.714Y-54.61
X124.714Y-77.47
X127.254Y-54.61
X127.254Y-77.47
X129.794Y-54.61
X129.794Y-77.47
T4
X62.84Y-61.159
X62.84Y-63.449
X62.84Y-65.739
X62.84Y-68.029
X62.84Y-70.319
X65.38Y-62.304
X65.38Y-64.594
X65.38Y-66.884
X65.38Y-69.174
X65.38Y-71.464
X67.92Y-61.159
X67.92Y-63.449
X67.92Y-65.739
X67.92Y-68.029
X67.92Y-70.319
X138.327Y-61.659
X138.327Y-63.949
X138.327Y-66.239
X138.327Y-68.529
X138.327Y-70.819
X140.867Y-60.514
X140.867Y-62.804
X140.867Y-65.094
X140.867Y-67.384
X140.867Y-69.674
X143.407Y-61.659
X143.407Y-63.949
X143.407Y-66.239
X143.407Y-68.529
X143.407Y-70.819
T5
X65.38Y-53.494
X65.38Y-78.484
X140.867Y-53.494
X140.867Y-78.484
M30
