G04 #@! TF.GenerationSoftware,KiCad,Pcbnew,9.0.2-9.0.2-0~ubuntu22.04.1*
G04 #@! TF.CreationDate,2025-07-06T23:18:40+01:00*
G04 #@! TF.ProjectId,ggroohauga-bridge,6767726f-6f68-4617-9567-612d62726964,rev?*
G04 #@! TF.SameCoordinates,Original*
G04 #@! TF.FileFunction,Copper,L1,Top*
G04 #@! TF.FilePolarity,Positive*
%FSLAX46Y46*%
G04 Gerber Fmt 4.6, Leading zero omitted, Abs format (unit mm)*
G04 Created by KiCad (PCBNEW 9.0.2-9.0.2-0~ubuntu22.04.1) date 2025-07-06 23:18:40*
%MOMM*%
%LPD*%
G01*
G04 APERTURE LIST*
G04 Aperture macros list*
%AMRoundRect*
0 Rectangle with rounded corners*
0 $1 Rounding radius*
0 $2 $3 $4 $5 $6 $7 $8 $9 X,Y pos of 4 corners*
0 Add a 4 corners polygon primitive as box body*
4,1,4,$2,$3,$4,$5,$6,$7,$8,$9,$2,$3,0*
0 Add four circle primitives for the rounded corners*
1,1,$1+$1,$2,$3*
1,1,$1+$1,$4,$5*
1,1,$1+$1,$6,$7*
1,1,$1+$1,$8,$9*
0 Add four rect primitives between the rounded corners*
20,1,$1+$1,$2,$3,$4,$5,0*
20,1,$1+$1,$4,$5,$6,$7,0*
20,1,$1+$1,$6,$7,$8,$9,0*
20,1,$1+$1,$8,$9,$2,$3,0*%
G04 Aperture macros list end*
G04 #@! TA.AperFunction,SMDPad,CuDef*
%ADD10RoundRect,0.250000X0.350000X0.450000X-0.350000X0.450000X-0.350000X-0.450000X0.350000X-0.450000X0*%
G04 #@! TD*
G04 #@! TA.AperFunction,ComponentPad*
%ADD11R,1.700000X1.700000*%
G04 #@! TD*
G04 #@! TA.AperFunction,ComponentPad*
%ADD12C,1.700000*%
G04 #@! TD*
G04 #@! TA.AperFunction,SMDPad,CuDef*
%ADD13RoundRect,0.150000X-0.587500X-0.150000X0.587500X-0.150000X0.587500X0.150000X-0.587500X0.150000X0*%
G04 #@! TD*
G04 #@! TA.AperFunction,SMDPad,CuDef*
%ADD14RoundRect,0.150000X-0.875000X-0.150000X0.875000X-0.150000X0.875000X0.150000X-0.875000X0.150000X0*%
G04 #@! TD*
G04 #@! TA.AperFunction,SMDPad,CuDef*
%ADD15RoundRect,0.250000X-0.337500X-0.475000X0.337500X-0.475000X0.337500X0.475000X-0.337500X0.475000X0*%
G04 #@! TD*
G04 #@! TA.AperFunction,SMDPad,CuDef*
%ADD16RoundRect,0.250000X0.450000X-0.350000X0.450000X0.350000X-0.450000X0.350000X-0.450000X-0.350000X0*%
G04 #@! TD*
G04 #@! TA.AperFunction,SMDPad,CuDef*
%ADD17RoundRect,0.250000X0.337500X0.475000X-0.337500X0.475000X-0.337500X-0.475000X0.337500X-0.475000X0*%
G04 #@! TD*
G04 #@! TA.AperFunction,ComponentPad*
%ADD18C,4.266000*%
G04 #@! TD*
G04 #@! TA.AperFunction,ComponentPad*
%ADD19R,1.725000X1.725000*%
G04 #@! TD*
G04 #@! TA.AperFunction,ComponentPad*
%ADD20C,1.725000*%
G04 #@! TD*
G04 #@! TA.AperFunction,ViaPad*
%ADD21C,1.500000*%
G04 #@! TD*
G04 #@! TA.AperFunction,ViaPad*
%ADD22C,0.600000*%
G04 #@! TD*
G04 #@! TA.AperFunction,Conductor*
%ADD23C,0.500000*%
G04 #@! TD*
G04 #@! TA.AperFunction,Conductor*
%ADD24C,0.200000*%
G04 #@! TD*
G04 APERTURE END LIST*
D10*
X74851600Y-75565000D03*
X72851600Y-75565000D03*
D11*
X81534000Y-54610000D03*
D12*
X84074000Y-54610000D03*
X86614000Y-54610000D03*
X89154000Y-54610000D03*
X91694000Y-54610000D03*
X94234000Y-54610000D03*
X96774000Y-54610000D03*
X99314000Y-54610000D03*
X101854000Y-54610000D03*
X104394000Y-54610000D03*
X106934000Y-54610000D03*
X109474000Y-54610000D03*
X112014000Y-54610000D03*
X114554000Y-54610000D03*
X117094000Y-54610000D03*
X119634000Y-54610000D03*
X122174000Y-54610000D03*
X124714000Y-54610000D03*
X127254000Y-54610000D03*
X129794000Y-54610000D03*
D13*
X132491000Y-57404000D03*
X132491000Y-59304000D03*
X134366000Y-58354000D03*
D14*
X89330000Y-61468000D03*
X89330000Y-62738000D03*
X89330000Y-64008000D03*
X89330000Y-65278000D03*
X89330000Y-66548000D03*
X89330000Y-67818000D03*
X89330000Y-69088000D03*
X89330000Y-70358000D03*
X98630000Y-70358000D03*
X98630000Y-69088000D03*
X98630000Y-67818000D03*
X98630000Y-66548000D03*
X98630000Y-65278000D03*
X98630000Y-64008000D03*
X98630000Y-62738000D03*
X98630000Y-61468000D03*
D11*
X81534000Y-77470000D03*
D12*
X84074000Y-77470000D03*
X86614000Y-77470000D03*
X89154000Y-77470000D03*
X91694000Y-77470000D03*
X94234000Y-77470000D03*
X96774000Y-77470000D03*
X99314000Y-77470000D03*
X101854000Y-77470000D03*
X104394000Y-77470000D03*
X106934000Y-77470000D03*
X109474000Y-77470000D03*
X112014000Y-77470000D03*
X114554000Y-77470000D03*
X117094000Y-77470000D03*
X119634000Y-77470000D03*
X122174000Y-77470000D03*
X124714000Y-77470000D03*
X127254000Y-77470000D03*
X129794000Y-77470000D03*
D15*
X98530500Y-59436000D03*
X100605500Y-59436000D03*
D16*
X82296000Y-67532000D03*
X82296000Y-65532000D03*
X79121000Y-61944000D03*
X79121000Y-59944000D03*
D17*
X89429500Y-59436000D03*
X87354500Y-59436000D03*
D18*
X65379600Y-53494200D03*
X65379600Y-78484200D03*
D19*
X67919600Y-70319200D03*
D20*
X67919600Y-68029200D03*
X67919600Y-65739200D03*
X67919600Y-63449200D03*
X67919600Y-61159200D03*
X65379600Y-71464200D03*
X65379600Y-69174200D03*
X65379600Y-66884200D03*
X65379600Y-64594200D03*
X65379600Y-62304200D03*
X62839600Y-70319200D03*
X62839600Y-68029200D03*
X62839600Y-65739200D03*
X62839600Y-63449200D03*
X62839600Y-61159200D03*
D18*
X140867200Y-53494200D03*
X140867200Y-78484200D03*
D19*
X138327200Y-61659200D03*
D20*
X138327200Y-63949200D03*
X138327200Y-66239200D03*
X138327200Y-68529200D03*
X138327200Y-70819200D03*
X140867200Y-60514200D03*
X140867200Y-62804200D03*
X140867200Y-65094200D03*
X140867200Y-67384200D03*
X140867200Y-69674200D03*
X143407200Y-61659200D03*
X143407200Y-63949200D03*
X143407200Y-66239200D03*
X143407200Y-68529200D03*
X143407200Y-70819200D03*
D21*
X127000000Y-68580000D03*
X117475000Y-60960000D03*
D22*
X70692600Y-73914000D03*
D21*
X127000000Y-70612000D03*
X115570000Y-60960000D03*
X123190000Y-60960000D03*
X127000000Y-62484000D03*
X119380000Y-60960000D03*
X127000000Y-66548000D03*
X121285000Y-60960000D03*
X127000000Y-64516000D03*
D22*
X106273600Y-75184000D03*
X77851000Y-75565000D03*
X124714000Y-74422000D03*
X110744000Y-74422000D03*
X124460000Y-57404000D03*
X98806000Y-72644000D03*
X89027000Y-72644000D03*
D23*
X125095000Y-68580000D02*
X117475000Y-60960000D01*
X127000000Y-68580000D02*
X125095000Y-68580000D01*
D24*
X82296000Y-67532000D02*
X82296000Y-69088000D01*
X91440000Y-62553001D02*
X91440000Y-68002999D01*
X91440000Y-68002999D02*
X90354999Y-69088000D01*
X82296000Y-69088000D02*
X82677000Y-69088000D01*
X72851600Y-76200000D02*
X72851600Y-73787000D01*
X82677000Y-69088000D02*
X89330000Y-69088000D01*
X90354999Y-61468000D02*
X91440000Y-62553001D01*
X89330000Y-61468000D02*
X90354999Y-61468000D01*
X77550600Y-69088000D02*
X82677000Y-69088000D01*
X89429500Y-59436000D02*
X89429500Y-61368500D01*
X89234600Y-61468000D02*
X90259599Y-61468000D01*
X72851600Y-75565000D02*
X64977600Y-75565000D01*
X79740000Y-52578000D02*
X89662000Y-52578000D01*
X90424000Y-53340000D02*
X90424000Y-58457500D01*
X62792800Y-73380200D02*
X62792800Y-70319200D01*
X79121000Y-53197000D02*
X79740000Y-52578000D01*
X90424000Y-58457500D02*
X90408000Y-58457500D01*
X72851600Y-73787000D02*
X77550600Y-69088000D01*
X89662000Y-52578000D02*
X90424000Y-53340000D01*
X79121000Y-59944000D02*
X79121000Y-53197000D01*
X90354999Y-69088000D02*
X89330000Y-69088000D01*
X64977600Y-75565000D02*
X62792800Y-73380200D01*
X90408000Y-58457500D02*
X89429500Y-59436000D01*
X82042000Y-65278000D02*
X77497618Y-65278000D01*
X64037800Y-69274200D02*
X62792800Y-68029200D01*
X64037800Y-73101200D02*
X64037800Y-69274200D01*
X64596600Y-73660000D02*
X64037800Y-73101200D01*
X77497618Y-65278000D02*
X69115618Y-73660000D01*
X82804000Y-65278000D02*
X89330000Y-65278000D01*
X69115618Y-73660000D02*
X64596600Y-73660000D01*
X70692600Y-73914000D02*
X78058600Y-66548000D01*
X78058600Y-66548000D02*
X83566000Y-66548000D01*
X89330000Y-66548000D02*
X83566000Y-66548000D01*
X83677000Y-66564000D02*
X83693000Y-66548000D01*
X83566000Y-66548000D02*
X83693000Y-66548000D01*
X82170160Y-63407000D02*
X79806160Y-61043000D01*
X68961000Y-58801000D02*
X65197800Y-58801000D01*
X89330000Y-67818000D02*
X90354999Y-67818000D01*
X90354999Y-67818000D02*
X90932000Y-67240999D01*
X71203000Y-61043000D02*
X68961000Y-58801000D01*
X90932000Y-67240999D02*
X90932000Y-63875032D01*
X90463968Y-63407000D02*
X82170160Y-63407000D01*
X79806160Y-61043000D02*
X71203000Y-61043000D01*
X90932000Y-63875032D02*
X90463968Y-63407000D01*
X65197800Y-58801000D02*
X62839600Y-61159200D01*
X79121000Y-63976000D02*
X79105000Y-63992000D01*
X78105000Y-64008000D02*
X73232600Y-64008000D01*
X79105000Y-63992000D02*
X79121000Y-64008000D01*
X89330000Y-64008000D02*
X78105000Y-64008000D01*
X73232600Y-64008000D02*
X68660600Y-59436000D01*
X79121000Y-61944000D02*
X79121000Y-63976000D01*
X79121000Y-64008000D02*
X78105000Y-64008000D01*
X66577800Y-59740800D02*
X66577800Y-65639200D01*
X68660600Y-59436000D02*
X66882600Y-59436000D01*
X66577800Y-65639200D02*
X65332800Y-66884200D01*
X66882600Y-59436000D02*
X66577800Y-59740800D01*
D23*
X127000000Y-70612000D02*
X125222000Y-70612000D01*
X125222000Y-70612000D02*
X115570000Y-60960000D01*
X127000000Y-62484000D02*
X124714000Y-62484000D01*
X124714000Y-62484000D02*
X123190000Y-60960000D01*
X127000000Y-66548000D02*
X124968000Y-66548000D01*
X124968000Y-66548000D02*
X119380000Y-60960000D01*
X127000000Y-64516000D02*
X124841000Y-64516000D01*
X124841000Y-64516000D02*
X121285000Y-60960000D01*
D24*
X74851600Y-75565000D02*
X77851000Y-75565000D01*
X107188000Y-75184000D02*
X109474000Y-77470000D01*
X106273600Y-75184000D02*
X107188000Y-75184000D01*
X105998600Y-65278000D02*
X98630000Y-65278000D01*
X105998600Y-65278000D02*
X116920600Y-76200000D01*
X116920600Y-76200000D02*
X116920600Y-77470000D01*
X118309600Y-78621000D02*
X119460600Y-77470000D01*
X115769600Y-77946760D02*
X116443840Y-78621000D01*
X105324360Y-66548000D02*
X98630000Y-66548000D01*
X116443840Y-78621000D02*
X118309600Y-78621000D01*
X105324360Y-66548000D02*
X115769600Y-76993240D01*
X115769600Y-76993240D02*
X115769600Y-77946760D01*
X96774000Y-54610000D02*
X99314000Y-57150000D01*
X97383600Y-63398400D02*
X97028000Y-63754000D01*
X102082600Y-63398400D02*
X97383600Y-63398400D01*
X102489000Y-62992000D02*
X102082600Y-63398400D01*
X99314000Y-57150000D02*
X102108000Y-57150000D01*
X102489000Y-57531000D02*
X102489000Y-62992000D01*
X97605001Y-67818000D02*
X98630000Y-67818000D01*
X97028000Y-63754000D02*
X97028000Y-67240999D01*
X97028000Y-67240999D02*
X97605001Y-67818000D01*
X102108000Y-57150000D02*
X102489000Y-57531000D01*
X103966600Y-64008000D02*
X98630000Y-64008000D01*
X103966600Y-64008000D02*
X111586600Y-56388000D01*
X115316000Y-56388000D02*
X117094000Y-54610000D01*
X111586600Y-56388000D02*
X115316000Y-56388000D01*
X82042000Y-75184000D02*
X81534000Y-75692000D01*
X81534000Y-75692000D02*
X81534000Y-77470000D01*
X89154000Y-75184000D02*
X96520000Y-67818000D01*
X82042000Y-75184000D02*
X101600000Y-75184000D01*
X101854000Y-75438000D02*
X101854000Y-77470000D01*
X101854000Y-75438000D02*
X101600000Y-75184000D01*
X102870000Y-74422000D02*
X101854000Y-75438000D01*
X97790000Y-69088000D02*
X96520000Y-67818000D01*
X131572000Y-74422000D02*
X124714000Y-74422000D01*
X132491000Y-59304000D02*
X132491000Y-73503000D01*
X132491000Y-73503000D02*
X131572000Y-74422000D01*
X98530500Y-59436000D02*
X98530500Y-61368500D01*
X110744000Y-74422000D02*
X102870000Y-74422000D01*
X98630000Y-61468000D02*
X97605001Y-61468000D01*
X96520000Y-62553001D02*
X96520000Y-67818000D01*
X97605001Y-61468000D02*
X96520000Y-62553001D01*
X132588000Y-79756000D02*
X138176000Y-74168000D01*
X104648000Y-79756000D02*
X132588000Y-79756000D01*
X104394000Y-77470000D02*
X104394000Y-79502000D01*
X104394000Y-79502000D02*
X104648000Y-79756000D01*
X138176000Y-74168000D02*
X142748000Y-74168000D01*
X143407200Y-73508800D02*
X143407200Y-70819200D01*
X142748000Y-74168000D02*
X143407200Y-73508800D01*
X143407200Y-61659200D02*
X143407200Y-60439441D01*
X143407200Y-60439441D02*
X141321759Y-58354000D01*
X141321759Y-58354000D02*
X134366000Y-58354000D01*
X94996000Y-80264000D02*
X134620000Y-80264000D01*
X145034000Y-72898000D02*
X145034000Y-66802000D01*
X142748000Y-75184000D02*
X145034000Y-72898000D01*
X134620000Y-80264000D02*
X139700000Y-75184000D01*
X94234000Y-77470000D02*
X94234000Y-79502000D01*
X145034000Y-66802000D02*
X144471200Y-66239200D01*
X94234000Y-79502000D02*
X94996000Y-80264000D01*
X139700000Y-75184000D02*
X142748000Y-75184000D01*
X144471200Y-66239200D02*
X143407200Y-66239200D01*
X124460000Y-57404000D02*
X132491000Y-57404000D01*
X89330000Y-62738000D02*
X88305001Y-62738000D01*
X87354500Y-61787499D02*
X87354500Y-59436000D01*
X100605500Y-61787499D02*
X100605500Y-59436000D01*
X98630000Y-62738000D02*
X99654999Y-62738000D01*
X99654999Y-62738000D02*
X100605500Y-61787499D01*
X88305001Y-62738000D02*
X87354500Y-61787499D01*
G04 #@! TA.AperFunction,Conductor*
G36*
X64053163Y-51009385D02*
G01*
X64098918Y-51062189D01*
X64108862Y-51131347D01*
X64079837Y-51194903D01*
X64052096Y-51218694D01*
X63853559Y-51343443D01*
X63702701Y-51463747D01*
X64421003Y-52182049D01*
X64320983Y-52254719D01*
X64140119Y-52435583D01*
X64067449Y-52535603D01*
X63349147Y-51817301D01*
X63228843Y-51968159D01*
X63071501Y-52218566D01*
X62943194Y-52484999D01*
X62845517Y-52764146D01*
X62779711Y-53052461D01*
X62779708Y-53052475D01*
X62746600Y-53346327D01*
X62746600Y-53642072D01*
X62779708Y-53935924D01*
X62779711Y-53935938D01*
X62845517Y-54224253D01*
X62943194Y-54503400D01*
X63071501Y-54769833D01*
X63228842Y-55020240D01*
X63349148Y-55171097D01*
X64067449Y-54452795D01*
X64140119Y-54552817D01*
X64320983Y-54733681D01*
X64421002Y-54806349D01*
X63702701Y-55524650D01*
X63853559Y-55644957D01*
X64103966Y-55802298D01*
X64370399Y-55930605D01*
X64649546Y-56028282D01*
X64937861Y-56094088D01*
X64937875Y-56094091D01*
X65231727Y-56127199D01*
X65231731Y-56127200D01*
X65527469Y-56127200D01*
X65527472Y-56127199D01*
X65821324Y-56094091D01*
X65821338Y-56094088D01*
X66109653Y-56028282D01*
X66388800Y-55930605D01*
X66655233Y-55802298D01*
X66905641Y-55644956D01*
X67056496Y-55524651D01*
X67056497Y-55524650D01*
X66338196Y-54806350D01*
X66438217Y-54733681D01*
X66619081Y-54552817D01*
X66691750Y-54452796D01*
X67410050Y-55171097D01*
X67410051Y-55171096D01*
X67530356Y-55020241D01*
X67687698Y-54769833D01*
X67816005Y-54503400D01*
X67913682Y-54224253D01*
X67979488Y-53935938D01*
X67979491Y-53935924D01*
X68012599Y-53642072D01*
X68012600Y-53642068D01*
X68012600Y-53346331D01*
X68012599Y-53346327D01*
X67979491Y-53052475D01*
X67979488Y-53052461D01*
X67913682Y-52764146D01*
X67816005Y-52484999D01*
X67687698Y-52218566D01*
X67530357Y-51968159D01*
X67410050Y-51817301D01*
X66691749Y-52535602D01*
X66619081Y-52435583D01*
X66438217Y-52254719D01*
X66338196Y-52182049D01*
X67056497Y-51463748D01*
X66905640Y-51343442D01*
X66707104Y-51218694D01*
X66660813Y-51166359D01*
X66650165Y-51097306D01*
X66678540Y-51033457D01*
X66736930Y-50995085D01*
X66773076Y-50989700D01*
X139473724Y-50989700D01*
X139540763Y-51009385D01*
X139586518Y-51062189D01*
X139596462Y-51131347D01*
X139567437Y-51194903D01*
X139539696Y-51218694D01*
X139341159Y-51343443D01*
X139190301Y-51463747D01*
X139908603Y-52182049D01*
X139808583Y-52254719D01*
X139627719Y-52435583D01*
X139555049Y-52535603D01*
X138836747Y-51817301D01*
X138716443Y-51968159D01*
X138559101Y-52218566D01*
X138430794Y-52484999D01*
X138333117Y-52764146D01*
X138267311Y-53052461D01*
X138267308Y-53052475D01*
X138234200Y-53346327D01*
X138234200Y-53642072D01*
X138267308Y-53935924D01*
X138267311Y-53935938D01*
X138333117Y-54224253D01*
X138430794Y-54503400D01*
X138559101Y-54769833D01*
X138716442Y-55020240D01*
X138836748Y-55171097D01*
X139555049Y-54452795D01*
X139627719Y-54552817D01*
X139808583Y-54733681D01*
X139908602Y-54806349D01*
X139190301Y-55524650D01*
X139341159Y-55644957D01*
X139591566Y-55802298D01*
X139857999Y-55930605D01*
X140137146Y-56028282D01*
X140425461Y-56094088D01*
X140425475Y-56094091D01*
X140719327Y-56127199D01*
X140719331Y-56127200D01*
X141015069Y-56127200D01*
X141015072Y-56127199D01*
X141308924Y-56094091D01*
X141308938Y-56094088D01*
X141597253Y-56028282D01*
X141876400Y-55930605D01*
X142142833Y-55802298D01*
X142393241Y-55644956D01*
X142544096Y-55524651D01*
X142544097Y-55524650D01*
X141825796Y-54806350D01*
X141925817Y-54733681D01*
X142106681Y-54552817D01*
X142179349Y-54452796D01*
X142897650Y-55171097D01*
X142897651Y-55171096D01*
X143017956Y-55020241D01*
X143175298Y-54769833D01*
X143303605Y-54503400D01*
X143401282Y-54224253D01*
X143467088Y-53935938D01*
X143467091Y-53935924D01*
X143500199Y-53642072D01*
X143500200Y-53642068D01*
X143500200Y-53346331D01*
X143500199Y-53346327D01*
X143467091Y-53052475D01*
X143467088Y-53052461D01*
X143401282Y-52764146D01*
X143303605Y-52484999D01*
X143175298Y-52218566D01*
X143017957Y-51968159D01*
X142897650Y-51817301D01*
X142179349Y-52535602D01*
X142106681Y-52435583D01*
X141925817Y-52254719D01*
X141825796Y-52182049D01*
X142544097Y-51463748D01*
X142393240Y-51343442D01*
X142194704Y-51218694D01*
X142148413Y-51166359D01*
X142137765Y-51097306D01*
X142166140Y-51033457D01*
X142224530Y-50995085D01*
X142260676Y-50989700D01*
X151748900Y-50989700D01*
X151815939Y-51009385D01*
X151861694Y-51062189D01*
X151872900Y-51113700D01*
X151872900Y-80864700D01*
X151853215Y-80931739D01*
X151800411Y-80977494D01*
X151748900Y-80988700D01*
X142260676Y-80988700D01*
X142193637Y-80969015D01*
X142147882Y-80916211D01*
X142137938Y-80847053D01*
X142166963Y-80783497D01*
X142194704Y-80759706D01*
X142393241Y-80634956D01*
X142544096Y-80514651D01*
X142544097Y-80514650D01*
X141825796Y-79796350D01*
X141925817Y-79723681D01*
X142106681Y-79542817D01*
X142179349Y-79442796D01*
X142897650Y-80161097D01*
X142897651Y-80161096D01*
X143017956Y-80010241D01*
X143175298Y-79759833D01*
X143303605Y-79493400D01*
X143401282Y-79214253D01*
X143467088Y-78925938D01*
X143467091Y-78925924D01*
X143500199Y-78632072D01*
X143500200Y-78632068D01*
X143500200Y-78336331D01*
X143500199Y-78336327D01*
X143467091Y-78042475D01*
X143467088Y-78042461D01*
X143401282Y-77754146D01*
X143303605Y-77474999D01*
X143175298Y-77208566D01*
X143017957Y-76958159D01*
X142897650Y-76807301D01*
X142179349Y-77525602D01*
X142106681Y-77425583D01*
X141925817Y-77244719D01*
X141825795Y-77172049D01*
X142544097Y-76453748D01*
X142393240Y-76333442D01*
X142142833Y-76176101D01*
X141876399Y-76047794D01*
X141876395Y-76047792D01*
X141812806Y-76025542D01*
X141756030Y-75984820D01*
X141730282Y-75919867D01*
X141743738Y-75851306D01*
X141792125Y-75800903D01*
X141853760Y-75784500D01*
X142661331Y-75784500D01*
X142661347Y-75784501D01*
X142668943Y-75784501D01*
X142827054Y-75784501D01*
X142827057Y-75784501D01*
X142979785Y-75743577D01*
X143029904Y-75714639D01*
X143116716Y-75664520D01*
X143228520Y-75552716D01*
X143228520Y-75552714D01*
X143238728Y-75542507D01*
X143238730Y-75542504D01*
X145392506Y-73388728D01*
X145392511Y-73388724D01*
X145402714Y-73378520D01*
X145402716Y-73378520D01*
X145514520Y-73266716D01*
X145551362Y-73202903D01*
X145564885Y-73179481D01*
X145564885Y-73179480D01*
X145567204Y-73175463D01*
X145593577Y-73129785D01*
X145634500Y-72977058D01*
X145634500Y-72818943D01*
X145634500Y-66722943D01*
X145633636Y-66719720D01*
X145623534Y-66682019D01*
X145593577Y-66570216D01*
X145526231Y-66453568D01*
X145514524Y-66433290D01*
X145514521Y-66433286D01*
X145514520Y-66433284D01*
X145402716Y-66321480D01*
X145402715Y-66321479D01*
X145398385Y-66317149D01*
X145398374Y-66317139D01*
X144958790Y-65877555D01*
X144958788Y-65877552D01*
X144839917Y-65758681D01*
X144839916Y-65758680D01*
X144748922Y-65706145D01*
X144702985Y-65679623D01*
X144685148Y-65674843D01*
X144674110Y-65669377D01*
X144657122Y-65653695D01*
X144637386Y-65641665D01*
X144625588Y-65624586D01*
X144622770Y-65621985D01*
X144622154Y-65619615D01*
X144618656Y-65614551D01*
X144572943Y-65524833D01*
X144522683Y-65455657D01*
X144446838Y-65351265D01*
X144295135Y-65199562D01*
X144295134Y-65199561D01*
X144295131Y-65199558D01*
X144288197Y-65194521D01*
X144245529Y-65139193D01*
X144239547Y-65069580D01*
X144272150Y-65007783D01*
X144288197Y-64993879D01*
X144295131Y-64988841D01*
X144295131Y-64988840D01*
X144295135Y-64988838D01*
X144446838Y-64837135D01*
X144572942Y-64663568D01*
X144670342Y-64472411D01*
X144736639Y-64268370D01*
X144743797Y-64223174D01*
X144770200Y-64056475D01*
X144770200Y-63841924D01*
X144736639Y-63630029D01*
X144690687Y-63488604D01*
X144670342Y-63425989D01*
X144670340Y-63425986D01*
X144670340Y-63425984D01*
X144605458Y-63298648D01*
X144572942Y-63234832D01*
X144446838Y-63061265D01*
X144295135Y-62909562D01*
X144295131Y-62909558D01*
X144288197Y-62904521D01*
X144245529Y-62849193D01*
X144239547Y-62779580D01*
X144272150Y-62717783D01*
X144288197Y-62703879D01*
X144295131Y-62698841D01*
X144295131Y-62698840D01*
X144295135Y-62698838D01*
X144446838Y-62547135D01*
X144572942Y-62373568D01*
X144670342Y-62182411D01*
X144736639Y-61978370D01*
X144770200Y-61766475D01*
X144770200Y-61551924D01*
X144736639Y-61340029D01*
X144693284Y-61206597D01*
X144670342Y-61135989D01*
X144670340Y-61135986D01*
X144670340Y-61135984D01*
X144607431Y-61012520D01*
X144572942Y-60944832D01*
X144446838Y-60771265D01*
X144295135Y-60619562D01*
X144205398Y-60554364D01*
X144121566Y-60493456D01*
X144075405Y-60469936D01*
X144024610Y-60421962D01*
X144010086Y-60368269D01*
X144008762Y-60368444D01*
X144007701Y-60360386D01*
X144007701Y-60360384D01*
X143966777Y-60207656D01*
X143930807Y-60145354D01*
X143887720Y-60070725D01*
X143775916Y-59958921D01*
X143775915Y-59958920D01*
X143771585Y-59954590D01*
X143771574Y-59954580D01*
X141809349Y-57992355D01*
X141809347Y-57992352D01*
X141690476Y-57873481D01*
X141690468Y-57873475D01*
X141566902Y-57802135D01*
X141566899Y-57802134D01*
X141553544Y-57794423D01*
X141400816Y-57753499D01*
X141242702Y-57753499D01*
X141235106Y-57753499D01*
X141235090Y-57753500D01*
X135474308Y-57753500D01*
X135407269Y-57733815D01*
X135386626Y-57717180D01*
X135355370Y-57685923D01*
X135355362Y-57685917D01*
X135213896Y-57602255D01*
X135213893Y-57602254D01*
X135056073Y-57556402D01*
X135056067Y-57556401D01*
X135019201Y-57553500D01*
X135019194Y-57553500D01*
X133853000Y-57553500D01*
X133785961Y-57533815D01*
X133740206Y-57481011D01*
X133729000Y-57429500D01*
X133729000Y-57188313D01*
X133728999Y-57188298D01*
X133727598Y-57170498D01*
X133726098Y-57151431D01*
X133695510Y-57046149D01*
X133680245Y-56993606D01*
X133680244Y-56993603D01*
X133680244Y-56993602D01*
X133596581Y-56852135D01*
X133596579Y-56852133D01*
X133596576Y-56852129D01*
X133480370Y-56735923D01*
X133480362Y-56735917D01*
X133338896Y-56652255D01*
X133338893Y-56652254D01*
X133181073Y-56606402D01*
X133181067Y-56606401D01*
X133144201Y-56603500D01*
X133144194Y-56603500D01*
X131837806Y-56603500D01*
X131837798Y-56603500D01*
X131800932Y-56606401D01*
X131800926Y-56606402D01*
X131643106Y-56652254D01*
X131643103Y-56652255D01*
X131501637Y-56735917D01*
X131501629Y-56735923D01*
X131470374Y-56767180D01*
X131409052Y-56800666D01*
X131382692Y-56803500D01*
X125039766Y-56803500D01*
X124972727Y-56783815D01*
X124970875Y-56782602D01*
X124839185Y-56694609D01*
X124839172Y-56694602D01*
X124693501Y-56634264D01*
X124693489Y-56634261D01*
X124538845Y-56603500D01*
X124538842Y-56603500D01*
X124381158Y-56603500D01*
X124381155Y-56603500D01*
X124226510Y-56634261D01*
X124226498Y-56634264D01*
X124080827Y-56694602D01*
X124080814Y-56694609D01*
X123949711Y-56782210D01*
X123949707Y-56782213D01*
X123838213Y-56893707D01*
X123838210Y-56893711D01*
X123750609Y-57024814D01*
X123750602Y-57024827D01*
X123690264Y-57170498D01*
X123690261Y-57170510D01*
X123659500Y-57325153D01*
X123659500Y-57482846D01*
X123690261Y-57637489D01*
X123690264Y-57637501D01*
X123750602Y-57783172D01*
X123750609Y-57783185D01*
X123838210Y-57914288D01*
X123838213Y-57914292D01*
X123949707Y-58025786D01*
X123949711Y-58025789D01*
X124080814Y-58113390D01*
X124080827Y-58113397D01*
X124183066Y-58155745D01*
X124226503Y-58173737D01*
X124322163Y-58192765D01*
X124381153Y-58204499D01*
X124381156Y-58204500D01*
X124381158Y-58204500D01*
X124538844Y-58204500D01*
X124538845Y-58204499D01*
X124693497Y-58173737D01*
X124839179Y-58113394D01*
X124901007Y-58072082D01*
X124970875Y-58025398D01*
X125037553Y-58004520D01*
X125039766Y-58004500D01*
X131382692Y-58004500D01*
X131449731Y-58024185D01*
X131470374Y-58040820D01*
X131501629Y-58072076D01*
X131501633Y-58072079D01*
X131501635Y-58072081D01*
X131643102Y-58155744D01*
X131684724Y-58167836D01*
X131800926Y-58201597D01*
X131800929Y-58201597D01*
X131800931Y-58201598D01*
X131837806Y-58204500D01*
X133004000Y-58204500D01*
X133012685Y-58207050D01*
X133021647Y-58205762D01*
X133045687Y-58216740D01*
X133071039Y-58224185D01*
X133076966Y-58231025D01*
X133085203Y-58234787D01*
X133099492Y-58257021D01*
X133116794Y-58276989D01*
X133119081Y-58287503D01*
X133122977Y-58293565D01*
X133128000Y-58328500D01*
X133128000Y-58379500D01*
X133108315Y-58446539D01*
X133055511Y-58492294D01*
X133004000Y-58503500D01*
X131837798Y-58503500D01*
X131800932Y-58506401D01*
X131800926Y-58506402D01*
X131643106Y-58552254D01*
X131643103Y-58552255D01*
X131501637Y-58635917D01*
X131501629Y-58635923D01*
X131385423Y-58752129D01*
X131385417Y-58752137D01*
X131301755Y-58893603D01*
X131301754Y-58893606D01*
X131255902Y-59051426D01*
X131255901Y-59051432D01*
X131253000Y-59088298D01*
X131253000Y-59519701D01*
X131255901Y-59556567D01*
X131255902Y-59556573D01*
X131301754Y-59714393D01*
X131301755Y-59714396D01*
X131301756Y-59714398D01*
X131317069Y-59740291D01*
X131385417Y-59855862D01*
X131385423Y-59855870D01*
X131501629Y-59972076D01*
X131501633Y-59972079D01*
X131501635Y-59972081D01*
X131643102Y-60055744D01*
X131670827Y-60063799D01*
X131801095Y-60101646D01*
X131859981Y-60139252D01*
X131889187Y-60202725D01*
X131890500Y-60220722D01*
X131890500Y-73202903D01*
X131870815Y-73269942D01*
X131854181Y-73290584D01*
X131359584Y-73785181D01*
X131298261Y-73818666D01*
X131271903Y-73821500D01*
X125293766Y-73821500D01*
X125226727Y-73801815D01*
X125224875Y-73800602D01*
X125093185Y-73712609D01*
X125093172Y-73712602D01*
X124947501Y-73652264D01*
X124947489Y-73652261D01*
X124792845Y-73621500D01*
X124792842Y-73621500D01*
X124635158Y-73621500D01*
X124635155Y-73621500D01*
X124480510Y-73652261D01*
X124480498Y-73652264D01*
X124334827Y-73712602D01*
X124334814Y-73712609D01*
X124203711Y-73800210D01*
X124203707Y-73800213D01*
X124092213Y-73911707D01*
X124092210Y-73911711D01*
X124004609Y-74042814D01*
X124004602Y-74042827D01*
X123944264Y-74188498D01*
X123944261Y-74188510D01*
X123913500Y-74343153D01*
X123913500Y-74500846D01*
X123944261Y-74655489D01*
X123944264Y-74655501D01*
X124004602Y-74801172D01*
X124004609Y-74801185D01*
X124092210Y-74932288D01*
X124092213Y-74932292D01*
X124203707Y-75043786D01*
X124203711Y-75043789D01*
X124334814Y-75131390D01*
X124334827Y-75131397D01*
X124466220Y-75185821D01*
X124480503Y-75191737D01*
X124635153Y-75222499D01*
X124635156Y-75222500D01*
X124635158Y-75222500D01*
X124792844Y-75222500D01*
X124792845Y-75222499D01*
X124947497Y-75191737D01*
X125093179Y-75131394D01*
X125147663Y-75094989D01*
X125224875Y-75043398D01*
X125291553Y-75022520D01*
X125293766Y-75022500D01*
X131485331Y-75022500D01*
X131485347Y-75022501D01*
X131492943Y-75022501D01*
X131651054Y-75022501D01*
X131651057Y-75022501D01*
X131803785Y-74981577D01*
X131870236Y-74943211D01*
X131940716Y-74902520D01*
X132052520Y-74790716D01*
X132052520Y-74790714D01*
X132062724Y-74780511D01*
X132062728Y-74780506D01*
X132849506Y-73993728D01*
X132849511Y-73993724D01*
X132859714Y-73983520D01*
X132859716Y-73983520D01*
X132971520Y-73871716D01*
X133042418Y-73748916D01*
X133042421Y-73748912D01*
X133050576Y-73734786D01*
X133050577Y-73734785D01*
X133091500Y-73582058D01*
X133091500Y-73423943D01*
X133091500Y-60220722D01*
X133111185Y-60153683D01*
X133163989Y-60107928D01*
X133180905Y-60101646D01*
X133250144Y-60081529D01*
X133338898Y-60055744D01*
X133480365Y-59972081D01*
X133596581Y-59855865D01*
X133680244Y-59714398D01*
X133726098Y-59556569D01*
X133729000Y-59519694D01*
X133729000Y-59278500D01*
X133748685Y-59211461D01*
X133801489Y-59165706D01*
X133853000Y-59154500D01*
X135019186Y-59154500D01*
X135019194Y-59154500D01*
X135056069Y-59151598D01*
X135056071Y-59151597D01*
X135056073Y-59151597D01*
X135097691Y-59139505D01*
X135213898Y-59105744D01*
X135355365Y-59022081D01*
X135386626Y-58990820D01*
X135447948Y-58957334D01*
X135474308Y-58954500D01*
X140475416Y-58954500D01*
X140542455Y-58974185D01*
X140588210Y-59026989D01*
X140598154Y-59096147D01*
X140569129Y-59159703D01*
X140513734Y-59196431D01*
X140344179Y-59251523D01*
X140153092Y-59348887D01*
X140096533Y-59389978D01*
X140096533Y-59389979D01*
X140676553Y-59969999D01*
X140645258Y-59978385D01*
X140514142Y-60054085D01*
X140407085Y-60161142D01*
X140331385Y-60292258D01*
X140322999Y-60323552D01*
X139742979Y-59743533D01*
X139742978Y-59743533D01*
X139701887Y-59800092D01*
X139604523Y-59991179D01*
X139538248Y-60195150D01*
X139532454Y-60231733D01*
X139502524Y-60294868D01*
X139443213Y-60331799D01*
X139373350Y-60330801D01*
X139366649Y-60328517D01*
X139297185Y-60302609D01*
X139297183Y-60302608D01*
X139237583Y-60296201D01*
X139237581Y-60296200D01*
X139237573Y-60296200D01*
X139237564Y-60296200D01*
X137416829Y-60296200D01*
X137416823Y-60296201D01*
X137357216Y-60302608D01*
X137222371Y-60352902D01*
X137222364Y-60352906D01*
X137107155Y-60439152D01*
X137107152Y-60439155D01*
X137020906Y-60554364D01*
X137020902Y-60554371D01*
X136970608Y-60689217D01*
X136964201Y-60748816D01*
X136964200Y-60748835D01*
X136964200Y-62569570D01*
X136964201Y-62569576D01*
X136970608Y-62629183D01*
X137020902Y-62764028D01*
X137020906Y-62764035D01*
X137107152Y-62879244D01*
X137107155Y-62879247D01*
X137211804Y-62957588D01*
X137253675Y-63013522D01*
X137258659Y-63083213D01*
X137237811Y-63129739D01*
X137161460Y-63234828D01*
X137064059Y-63425984D01*
X136997760Y-63630029D01*
X136964200Y-63841924D01*
X136964200Y-64056475D01*
X136997760Y-64268370D01*
X137064059Y-64472415D01*
X137138661Y-64618827D01*
X137161458Y-64663568D01*
X137287562Y-64837135D01*
X137287564Y-64837137D01*
X137439265Y-64988838D01*
X137446209Y-64993883D01*
X137488874Y-65049214D01*
X137494852Y-65118827D01*
X137462245Y-65180622D01*
X137446209Y-65194517D01*
X137439265Y-65199561D01*
X137287564Y-65351262D01*
X137287564Y-65351263D01*
X137287562Y-65351265D01*
X137242440Y-65413370D01*
X137161458Y-65524831D01*
X137064059Y-65715984D01*
X136997760Y-65920029D01*
X136964200Y-66131924D01*
X136964200Y-66346475D01*
X136997760Y-66558370D01*
X137064059Y-66762415D01*
X137113568Y-66859580D01*
X137161458Y-66953568D01*
X137287562Y-67127135D01*
X137287564Y-67127137D01*
X137439265Y-67278838D01*
X137446209Y-67283883D01*
X137488874Y-67339214D01*
X137494852Y-67408827D01*
X137462245Y-67470622D01*
X137446209Y-67484517D01*
X137439265Y-67489561D01*
X137287564Y-67641262D01*
X137287564Y-67641263D01*
X137287562Y-67641265D01*
X137242440Y-67703370D01*
X137161458Y-67814831D01*
X137064059Y-68005984D01*
X136997760Y-68210029D01*
X136964200Y-68421924D01*
X136964200Y-68636475D01*
X136997760Y-68848370D01*
X137064059Y-69052415D01*
X137087875Y-69099155D01*
X137161458Y-69243568D01*
X137287562Y-69417135D01*
X137287564Y-69417137D01*
X137439265Y-69568838D01*
X137446209Y-69573883D01*
X137488874Y-69629214D01*
X137494852Y-69698827D01*
X137462245Y-69760622D01*
X137446209Y-69774517D01*
X137439265Y-69779561D01*
X137287564Y-69931262D01*
X137287564Y-69931263D01*
X137287562Y-69931265D01*
X137269159Y-69956595D01*
X137161458Y-70104831D01*
X137064059Y-70295984D01*
X136997760Y-70500029D01*
X136964200Y-70711924D01*
X136964200Y-70926475D01*
X136997760Y-71138370D01*
X137064059Y-71342415D01*
X137137978Y-71487487D01*
X137161458Y-71533568D01*
X137287562Y-71707135D01*
X137439265Y-71858838D01*
X137612832Y-71984942D01*
X137695420Y-72027023D01*
X137803984Y-72082340D01*
X137803986Y-72082340D01*
X137803989Y-72082342D01*
X137892106Y-72110973D01*
X138008029Y-72148639D01*
X138219925Y-72182200D01*
X138219930Y-72182200D01*
X138434475Y-72182200D01*
X138646370Y-72148639D01*
X138850411Y-72082342D01*
X139041568Y-71984942D01*
X139215135Y-71858838D01*
X139366838Y-71707135D01*
X139492942Y-71533568D01*
X139590342Y-71342411D01*
X139656639Y-71138370D01*
X139690200Y-70926475D01*
X139690200Y-70724135D01*
X139709885Y-70657096D01*
X139762689Y-70611341D01*
X139831847Y-70601397D01*
X139895403Y-70630422D01*
X139901881Y-70636454D01*
X139979265Y-70713838D01*
X140152832Y-70839942D01*
X140157686Y-70842415D01*
X140343984Y-70937340D01*
X140343986Y-70937340D01*
X140343989Y-70937342D01*
X140453360Y-70972878D01*
X140548029Y-71003639D01*
X140759925Y-71037200D01*
X140759930Y-71037200D01*
X140974475Y-71037200D01*
X141186370Y-71003639D01*
X141390411Y-70937342D01*
X141581568Y-70839942D01*
X141755135Y-70713838D01*
X141832519Y-70636454D01*
X141893842Y-70602969D01*
X141963534Y-70607953D01*
X142019467Y-70649825D01*
X142043884Y-70715289D01*
X142044200Y-70724135D01*
X142044200Y-70926475D01*
X142077760Y-71138370D01*
X142144059Y-71342415D01*
X142217978Y-71487487D01*
X142241458Y-71533568D01*
X142367562Y-71707135D01*
X142519265Y-71858838D01*
X142692832Y-71984942D01*
X142738995Y-72008463D01*
X142789791Y-72056437D01*
X142806700Y-72118948D01*
X142806700Y-73208702D01*
X142787015Y-73275741D01*
X142770381Y-73296383D01*
X142535584Y-73531181D01*
X142474261Y-73564666D01*
X142447903Y-73567500D01*
X138096940Y-73567500D01*
X138056019Y-73578464D01*
X138056019Y-73578465D01*
X138018751Y-73588451D01*
X137944214Y-73608423D01*
X137944209Y-73608426D01*
X137807290Y-73687475D01*
X137807282Y-73687481D01*
X137695478Y-73799286D01*
X132375584Y-79119181D01*
X132314261Y-79152666D01*
X132287903Y-79155500D01*
X118923696Y-79155500D01*
X118856657Y-79135815D01*
X118810902Y-79083011D01*
X118800958Y-79013853D01*
X118829983Y-78950297D01*
X118836015Y-78943819D01*
X118915112Y-78864722D01*
X119018602Y-78761231D01*
X119079923Y-78727748D01*
X119144597Y-78730982D01*
X119317757Y-78787246D01*
X119527713Y-78820500D01*
X119527714Y-78820500D01*
X119740286Y-78820500D01*
X119740287Y-78820500D01*
X119950243Y-78787246D01*
X120152412Y-78721557D01*
X120341816Y-78625051D01*
X120428138Y-78562335D01*
X120513786Y-78500109D01*
X120513788Y-78500106D01*
X120513792Y-78500104D01*
X120664104Y-78349792D01*
X120664106Y-78349788D01*
X120664109Y-78349786D01*
X120749890Y-78231717D01*
X120789051Y-78177816D01*
X120793793Y-78168508D01*
X120841763Y-78117711D01*
X120909583Y-78100911D01*
X120975719Y-78123445D01*
X121014763Y-78168500D01*
X121019373Y-78177547D01*
X121058728Y-78231716D01*
X121691037Y-77599408D01*
X121708075Y-77662993D01*
X121773901Y-77777007D01*
X121866993Y-77870099D01*
X121981007Y-77935925D01*
X122044590Y-77952962D01*
X121412282Y-78585269D01*
X121412282Y-78585270D01*
X121466449Y-78624624D01*
X121655782Y-78721095D01*
X121857870Y-78786757D01*
X122067754Y-78820000D01*
X122280246Y-78820000D01*
X122490127Y-78786757D01*
X122490130Y-78786757D01*
X122692217Y-78721095D01*
X122881554Y-78624622D01*
X122935716Y-78585270D01*
X122935717Y-78585270D01*
X122303408Y-77952962D01*
X122366993Y-77935925D01*
X122481007Y-77870099D01*
X122574099Y-77777007D01*
X122639925Y-77662993D01*
X122656962Y-77599409D01*
X123289270Y-78231717D01*
X123289270Y-78231716D01*
X123328622Y-78177554D01*
X123333514Y-78167954D01*
X123381488Y-78117157D01*
X123449308Y-78100361D01*
X123515444Y-78122897D01*
X123554486Y-78167954D01*
X123559375Y-78177550D01*
X123598728Y-78231716D01*
X124231037Y-77599408D01*
X124248075Y-77662993D01*
X124313901Y-77777007D01*
X124406993Y-77870099D01*
X124521007Y-77935925D01*
X124584590Y-77952962D01*
X123952282Y-78585269D01*
X123952282Y-78585270D01*
X124006449Y-78624624D01*
X124195782Y-78721095D01*
X124397870Y-78786757D01*
X124607754Y-78820000D01*
X124820246Y-78820000D01*
X125030127Y-78786757D01*
X125030130Y-78786757D01*
X125232217Y-78721095D01*
X125421554Y-78624622D01*
X125475716Y-78585270D01*
X125475717Y-78585270D01*
X124843408Y-77952962D01*
X124906993Y-77935925D01*
X125021007Y-77870099D01*
X125114099Y-77777007D01*
X125179925Y-77662993D01*
X125196962Y-77599408D01*
X125829270Y-78231717D01*
X125829270Y-78231716D01*
X125868622Y-78177555D01*
X125873232Y-78168507D01*
X125921205Y-78117709D01*
X125989025Y-78100912D01*
X126055161Y-78123447D01*
X126094204Y-78168504D01*
X126098949Y-78177817D01*
X126223890Y-78349786D01*
X126374213Y-78500109D01*
X126546179Y-78625048D01*
X126546181Y-78625049D01*
X126546184Y-78625051D01*
X126735588Y-78721557D01*
X126937757Y-78787246D01*
X127147713Y-78820500D01*
X127147714Y-78820500D01*
X127360286Y-78820500D01*
X127360287Y-78820500D01*
X127570243Y-78787246D01*
X127772412Y-78721557D01*
X127961816Y-78625051D01*
X128048138Y-78562335D01*
X128133786Y-78500109D01*
X128133788Y-78500106D01*
X128133792Y-78500104D01*
X128284104Y-78349792D01*
X128284106Y-78349788D01*
X128284109Y-78349786D01*
X128409048Y-78177820D01*
X128409047Y-78177820D01*
X128409051Y-78177816D01*
X128413514Y-78169054D01*
X128461488Y-78118259D01*
X128529308Y-78101463D01*
X128595444Y-78123999D01*
X128634486Y-78169056D01*
X128638951Y-78177820D01*
X128763890Y-78349786D01*
X128914213Y-78500109D01*
X129086179Y-78625048D01*
X129086181Y-78625049D01*
X129086184Y-78625051D01*
X129275588Y-78721557D01*
X129477757Y-78787246D01*
X129687713Y-78820500D01*
X129687714Y-78820500D01*
X129900286Y-78820500D01*
X129900287Y-78820500D01*
X130110243Y-78787246D01*
X130312412Y-78721557D01*
X130501816Y-78625051D01*
X130588138Y-78562335D01*
X130673786Y-78500109D01*
X130673788Y-78500106D01*
X130673792Y-78500104D01*
X130824104Y-78349792D01*
X130824106Y-78349788D01*
X130824109Y-78349786D01*
X130949048Y-78177820D01*
X130949047Y-78177820D01*
X130949051Y-78177816D01*
X131045557Y-77988412D01*
X131111246Y-77786243D01*
X131144500Y-77576287D01*
X131144500Y-77363713D01*
X131111246Y-77153757D01*
X131045557Y-76951588D01*
X130949051Y-76762184D01*
X130949049Y-76762181D01*
X130949048Y-76762179D01*
X130824109Y-76590213D01*
X130673786Y-76439890D01*
X130501820Y-76314951D01*
X130312414Y-76218444D01*
X130312413Y-76218443D01*
X130312412Y-76218443D01*
X130110243Y-76152754D01*
X130110241Y-76152753D01*
X130110240Y-76152753D01*
X129948957Y-76127208D01*
X129900287Y-76119500D01*
X129687713Y-76119500D01*
X129639042Y-76127208D01*
X129477760Y-76152753D01*
X129275585Y-76218444D01*
X129086179Y-76314951D01*
X128914213Y-76439890D01*
X128763890Y-76590213D01*
X128638949Y-76762182D01*
X128634484Y-76770946D01*
X128586509Y-76821742D01*
X128518688Y-76838536D01*
X128452553Y-76815998D01*
X128413516Y-76770946D01*
X128409050Y-76762182D01*
X128284109Y-76590213D01*
X128133786Y-76439890D01*
X127961820Y-76314951D01*
X127772414Y-76218444D01*
X127772413Y-76218443D01*
X127772412Y-76218443D01*
X127570243Y-76152754D01*
X127570241Y-76152753D01*
X127570240Y-76152753D01*
X127408957Y-76127208D01*
X127360287Y-76119500D01*
X127147713Y-76119500D01*
X127099042Y-76127208D01*
X126937760Y-76152753D01*
X126735585Y-76218444D01*
X126546179Y-76314951D01*
X126374213Y-76439890D01*
X126223890Y-76590213D01*
X126098949Y-76762182D01*
X126094202Y-76771499D01*
X126046227Y-76822293D01*
X125978405Y-76839087D01*
X125912271Y-76816548D01*
X125873234Y-76771495D01*
X125868626Y-76762452D01*
X125829270Y-76708282D01*
X125196962Y-77340590D01*
X125179925Y-77277007D01*
X125114099Y-77162993D01*
X125021007Y-77069901D01*
X124906993Y-77004075D01*
X124843409Y-76987037D01*
X125475716Y-76354728D01*
X125421550Y-76315375D01*
X125232217Y-76218904D01*
X125030129Y-76153242D01*
X124820246Y-76120000D01*
X124607754Y-76120000D01*
X124397872Y-76153242D01*
X124397869Y-76153242D01*
X124195782Y-76218904D01*
X124006439Y-76315380D01*
X123952282Y-76354727D01*
X123952282Y-76354728D01*
X124584591Y-76987037D01*
X124521007Y-77004075D01*
X124406993Y-77069901D01*
X124313901Y-77162993D01*
X124248075Y-77277007D01*
X124231037Y-77340591D01*
X123598728Y-76708282D01*
X123598727Y-76708282D01*
X123559380Y-76762440D01*
X123554483Y-76772051D01*
X123506506Y-76822845D01*
X123438684Y-76839638D01*
X123372550Y-76817098D01*
X123333516Y-76772048D01*
X123328626Y-76762452D01*
X123289270Y-76708282D01*
X123289269Y-76708282D01*
X122656962Y-77340590D01*
X122639925Y-77277007D01*
X122574099Y-77162993D01*
X122481007Y-77069901D01*
X122366993Y-77004075D01*
X122303409Y-76987037D01*
X122935716Y-76354728D01*
X122881550Y-76315375D01*
X122692217Y-76218904D01*
X122490129Y-76153242D01*
X122280246Y-76120000D01*
X122067754Y-76120000D01*
X121857872Y-76153242D01*
X121857869Y-76153242D01*
X121655782Y-76218904D01*
X121466439Y-76315380D01*
X121412282Y-76354727D01*
X121412282Y-76354728D01*
X122044591Y-76987037D01*
X121981007Y-77004075D01*
X121866993Y-77069901D01*
X121773901Y-77162993D01*
X121708075Y-77277007D01*
X121691037Y-77340591D01*
X121058728Y-76708282D01*
X121058727Y-76708282D01*
X121019380Y-76762440D01*
X121019376Y-76762446D01*
X121014760Y-76771505D01*
X120966781Y-76822297D01*
X120898959Y-76839087D01*
X120832826Y-76816543D01*
X120793794Y-76771493D01*
X120789051Y-76762184D01*
X120789049Y-76762181D01*
X120789048Y-76762179D01*
X120664109Y-76590213D01*
X120513786Y-76439890D01*
X120341820Y-76314951D01*
X120152414Y-76218444D01*
X120152413Y-76218443D01*
X120152412Y-76218443D01*
X119950243Y-76152754D01*
X119950241Y-76152753D01*
X119950240Y-76152753D01*
X119788957Y-76127208D01*
X119740287Y-76119500D01*
X119527713Y-76119500D01*
X119479042Y-76127208D01*
X119317760Y-76152753D01*
X119115585Y-76218444D01*
X118926179Y-76314951D01*
X118754213Y-76439890D01*
X118603890Y-76590213D01*
X118478949Y-76762182D01*
X118474484Y-76770946D01*
X118426509Y-76821742D01*
X118358688Y-76838536D01*
X118292553Y-76815998D01*
X118253516Y-76770946D01*
X118249050Y-76762182D01*
X118124109Y-76590213D01*
X117973786Y-76439890D01*
X117801820Y-76314951D01*
X117612412Y-76218443D01*
X117604833Y-76215980D01*
X117547159Y-76176540D01*
X117526168Y-76127998D01*
X117523204Y-76128793D01*
X117520848Y-76120000D01*
X117480177Y-75968216D01*
X117471818Y-75953737D01*
X117401124Y-75831290D01*
X117401118Y-75831282D01*
X106486190Y-64916355D01*
X106486188Y-64916352D01*
X106367317Y-64797481D01*
X106367309Y-64797475D01*
X106243743Y-64726135D01*
X106243740Y-64726134D01*
X106230385Y-64718423D01*
X106077657Y-64677499D01*
X105919543Y-64677499D01*
X105911947Y-64677499D01*
X105911931Y-64677500D01*
X104445698Y-64677500D01*
X104424452Y-64671261D01*
X104402366Y-64669682D01*
X104391582Y-64661609D01*
X104378659Y-64657815D01*
X104364160Y-64641082D01*
X104346432Y-64627812D01*
X104341723Y-64615189D01*
X104332904Y-64605011D01*
X104329752Y-64583095D01*
X104322014Y-64562348D01*
X104324877Y-64549185D01*
X104322960Y-64535853D01*
X104332158Y-64515710D01*
X104336865Y-64494075D01*
X104350134Y-64476348D01*
X104351985Y-64472297D01*
X104358001Y-64465834D01*
X104447120Y-64376716D01*
X104447121Y-64376713D01*
X107962257Y-60861577D01*
X114319500Y-60861577D01*
X114319500Y-61058422D01*
X114350290Y-61252826D01*
X114411117Y-61440029D01*
X114468131Y-61551924D01*
X114500476Y-61615405D01*
X114616172Y-61774646D01*
X114755354Y-61913828D01*
X114914595Y-62029524D01*
X114949159Y-62047135D01*
X115089970Y-62118882D01*
X115089972Y-62118882D01*
X115089975Y-62118884D01*
X115190317Y-62151487D01*
X115277173Y-62179709D01*
X115471578Y-62210500D01*
X115471583Y-62210500D01*
X115668414Y-62210500D01*
X115668417Y-62210500D01*
X115684325Y-62207980D01*
X115753616Y-62216934D01*
X115791404Y-62242772D01*
X124743580Y-71194948D01*
X124743584Y-71194951D01*
X124866498Y-71277080D01*
X124866511Y-71277087D01*
X124955097Y-71313780D01*
X125003087Y-71333658D01*
X125003091Y-71333658D01*
X125003092Y-71333659D01*
X125148079Y-71362500D01*
X125148082Y-71362500D01*
X125295917Y-71362500D01*
X125936386Y-71362500D01*
X126003425Y-71382185D01*
X126036702Y-71413612D01*
X126046172Y-71426646D01*
X126185354Y-71565828D01*
X126344595Y-71681524D01*
X126394860Y-71707135D01*
X126519970Y-71770882D01*
X126519972Y-71770882D01*
X126519975Y-71770884D01*
X126558043Y-71783253D01*
X126707173Y-71831709D01*
X126901578Y-71862500D01*
X126901583Y-71862500D01*
X127098422Y-71862500D01*
X127292826Y-71831709D01*
X127337301Y-71817258D01*
X127480025Y-71770884D01*
X127655405Y-71681524D01*
X127814646Y-71565828D01*
X127953828Y-71426646D01*
X128069524Y-71267405D01*
X128158884Y-71092025D01*
X128219709Y-70904826D01*
X128229594Y-70842415D01*
X128250500Y-70710422D01*
X128250500Y-70513577D01*
X128219709Y-70319173D01*
X128188635Y-70223538D01*
X128158884Y-70131975D01*
X128158882Y-70131972D01*
X128158882Y-70131970D01*
X128091655Y-70000030D01*
X128069524Y-69956595D01*
X127953828Y-69797354D01*
X127840155Y-69683681D01*
X127806670Y-69622358D01*
X127811654Y-69552666D01*
X127840155Y-69508319D01*
X127891761Y-69456713D01*
X127953828Y-69394646D01*
X128069524Y-69235405D01*
X128158884Y-69060025D01*
X128219709Y-68872826D01*
X128223537Y-68848659D01*
X128250500Y-68678422D01*
X128250500Y-68481577D01*
X128219709Y-68287173D01*
X128191487Y-68200317D01*
X128158884Y-68099975D01*
X128158882Y-68099972D01*
X128158882Y-68099970D01*
X128110996Y-68005989D01*
X128069524Y-67924595D01*
X127953828Y-67765354D01*
X127840155Y-67651681D01*
X127806670Y-67590358D01*
X127811654Y-67520666D01*
X127840155Y-67476319D01*
X127867616Y-67448858D01*
X127953828Y-67362646D01*
X128069524Y-67203405D01*
X128158884Y-67028025D01*
X128219709Y-66840826D01*
X128228728Y-66783883D01*
X128250500Y-66646422D01*
X128250500Y-66449577D01*
X128219709Y-66255173D01*
X128158882Y-66067970D01*
X128089606Y-65932008D01*
X128069524Y-65892595D01*
X127953828Y-65733354D01*
X127840155Y-65619681D01*
X127806670Y-65558358D01*
X127811654Y-65488666D01*
X127840155Y-65444319D01*
X127871104Y-65413370D01*
X127953828Y-65330646D01*
X128069524Y-65171405D01*
X128158884Y-64996025D01*
X128219709Y-64808826D01*
X128232806Y-64726134D01*
X128250500Y-64614422D01*
X128250500Y-64417577D01*
X128219709Y-64223173D01*
X128158882Y-64035970D01*
X128111743Y-63943455D01*
X128069524Y-63860595D01*
X127953828Y-63701354D01*
X127840155Y-63587681D01*
X127806670Y-63526358D01*
X127811654Y-63456666D01*
X127840155Y-63412319D01*
X127891758Y-63360716D01*
X127953828Y-63298646D01*
X128069524Y-63139405D01*
X128155603Y-62970463D01*
X128158882Y-62964029D01*
X128158882Y-62964028D01*
X128158884Y-62964025D01*
X128219709Y-62776826D01*
X128224690Y-62745378D01*
X128250500Y-62582422D01*
X128250500Y-62385577D01*
X128219709Y-62191173D01*
X128179736Y-62068150D01*
X128158884Y-62003975D01*
X128158882Y-62003972D01*
X128158882Y-62003970D01*
X128094897Y-61878393D01*
X128069524Y-61828595D01*
X127953828Y-61669354D01*
X127814646Y-61530172D01*
X127655405Y-61414476D01*
X127605421Y-61389008D01*
X127480029Y-61325117D01*
X127292826Y-61264290D01*
X127098422Y-61233500D01*
X127098417Y-61233500D01*
X126901583Y-61233500D01*
X126901578Y-61233500D01*
X126707173Y-61264290D01*
X126519970Y-61325117D01*
X126344594Y-61414476D01*
X126261620Y-61474761D01*
X126185354Y-61530172D01*
X126185352Y-61530174D01*
X126185351Y-61530174D01*
X126046171Y-61669354D01*
X126036703Y-61682387D01*
X125981372Y-61725052D01*
X125936386Y-61733500D01*
X125076229Y-61733500D01*
X125009190Y-61713815D01*
X124988548Y-61697181D01*
X124472772Y-61181405D01*
X124439287Y-61120082D01*
X124437980Y-61074325D01*
X124438855Y-61068803D01*
X124440500Y-61058417D01*
X124440500Y-60861583D01*
X124440500Y-60861577D01*
X124409709Y-60667173D01*
X124373056Y-60554369D01*
X124348884Y-60479975D01*
X124348882Y-60479972D01*
X124348882Y-60479970D01*
X124287950Y-60360384D01*
X124259524Y-60304595D01*
X124143828Y-60145354D01*
X124004646Y-60006172D01*
X123845405Y-59890476D01*
X123670029Y-59801117D01*
X123482826Y-59740290D01*
X123288422Y-59709500D01*
X123288417Y-59709500D01*
X123091583Y-59709500D01*
X123091578Y-59709500D01*
X122897173Y-59740290D01*
X122709970Y-59801117D01*
X122534594Y-59890476D01*
X122446364Y-59954580D01*
X122375354Y-60006172D01*
X122375352Y-60006174D01*
X122375351Y-60006174D01*
X122325181Y-60056345D01*
X122263858Y-60089830D01*
X122194166Y-60084846D01*
X122149819Y-60056345D01*
X122099648Y-60006174D01*
X122099646Y-60006172D01*
X121940405Y-59890476D01*
X121765029Y-59801117D01*
X121577826Y-59740290D01*
X121383422Y-59709500D01*
X121383417Y-59709500D01*
X121186583Y-59709500D01*
X121186578Y-59709500D01*
X120992173Y-59740290D01*
X120804970Y-59801117D01*
X120629594Y-59890476D01*
X120541364Y-59954580D01*
X120470354Y-60006172D01*
X120470352Y-60006174D01*
X120470351Y-60006174D01*
X120420181Y-60056345D01*
X120358858Y-60089830D01*
X120289166Y-60084846D01*
X120244819Y-60056345D01*
X120194648Y-60006174D01*
X120194646Y-60006172D01*
X120035405Y-59890476D01*
X119860029Y-59801117D01*
X119672826Y-59740290D01*
X119478422Y-59709500D01*
X119478417Y-59709500D01*
X119281583Y-59709500D01*
X119281578Y-59709500D01*
X119087173Y-59740290D01*
X118899970Y-59801117D01*
X118724594Y-59890476D01*
X118636364Y-59954580D01*
X118565354Y-60006172D01*
X118565352Y-60006174D01*
X118565351Y-60006174D01*
X118515181Y-60056345D01*
X118453858Y-60089830D01*
X118384166Y-60084846D01*
X118339819Y-60056345D01*
X118289648Y-60006174D01*
X118289646Y-60006172D01*
X118130405Y-59890476D01*
X117955029Y-59801117D01*
X117767826Y-59740290D01*
X117573422Y-59709500D01*
X117573417Y-59709500D01*
X117376583Y-59709500D01*
X117376578Y-59709500D01*
X117182173Y-59740290D01*
X116994970Y-59801117D01*
X116819594Y-59890476D01*
X116731364Y-59954580D01*
X116660354Y-60006172D01*
X116660352Y-60006174D01*
X116660351Y-60006174D01*
X116610181Y-60056345D01*
X116548858Y-60089830D01*
X116479166Y-60084846D01*
X116434819Y-60056345D01*
X116384648Y-60006174D01*
X116384646Y-60006172D01*
X116225405Y-59890476D01*
X116050029Y-59801117D01*
X115862826Y-59740290D01*
X115668422Y-59709500D01*
X115668417Y-59709500D01*
X115471583Y-59709500D01*
X115471578Y-59709500D01*
X115277173Y-59740290D01*
X115089970Y-59801117D01*
X114914594Y-59890476D01*
X114826364Y-59954580D01*
X114755354Y-60006172D01*
X114755352Y-60006174D01*
X114755351Y-60006174D01*
X114616174Y-60145351D01*
X114616174Y-60145352D01*
X114616172Y-60145354D01*
X114579993Y-60195150D01*
X114500476Y-60304594D01*
X114411117Y-60479970D01*
X114350290Y-60667173D01*
X114319500Y-60861577D01*
X107962257Y-60861577D01*
X111799016Y-57024819D01*
X111860339Y-56991334D01*
X111886697Y-56988500D01*
X115229331Y-56988500D01*
X115229347Y-56988501D01*
X115236943Y-56988501D01*
X115395054Y-56988501D01*
X115395057Y-56988501D01*
X115547785Y-56947577D01*
X115547787Y-56947575D01*
X115547789Y-56947575D01*
X115547790Y-56947574D01*
X115598640Y-56918216D01*
X115598641Y-56918215D01*
X115684716Y-56868520D01*
X115796520Y-56756716D01*
X115796520Y-56756714D01*
X115806724Y-56746511D01*
X115806728Y-56746506D01*
X116609478Y-55943755D01*
X116670799Y-55910272D01*
X116735473Y-55913506D01*
X116777757Y-55927246D01*
X116987713Y-55960500D01*
X116987714Y-55960500D01*
X117200286Y-55960500D01*
X117200287Y-55960500D01*
X117410243Y-55927246D01*
X117612412Y-55861557D01*
X117801816Y-55765051D01*
X117870691Y-55715011D01*
X117973786Y-55640109D01*
X117973788Y-55640106D01*
X117973792Y-55640104D01*
X118124104Y-55489792D01*
X118124106Y-55489788D01*
X118124109Y-55489786D01*
X118209890Y-55371717D01*
X118249051Y-55317816D01*
X118253793Y-55308508D01*
X118301763Y-55257711D01*
X118369583Y-55240911D01*
X118435719Y-55263445D01*
X118474763Y-55308500D01*
X118479373Y-55317547D01*
X118518728Y-55371716D01*
X119151037Y-54739408D01*
X119168075Y-54802993D01*
X119233901Y-54917007D01*
X119326993Y-55010099D01*
X119441007Y-55075925D01*
X119504590Y-55092962D01*
X118872282Y-55725269D01*
X118872282Y-55725270D01*
X118926449Y-55764624D01*
X119115782Y-55861095D01*
X119317870Y-55926757D01*
X119527754Y-55960000D01*
X119740246Y-55960000D01*
X119950127Y-55926757D01*
X119950130Y-55926757D01*
X120152217Y-55861095D01*
X120341554Y-55764622D01*
X120395716Y-55725270D01*
X120395717Y-55725270D01*
X119763408Y-55092962D01*
X119826993Y-55075925D01*
X119941007Y-55010099D01*
X120034099Y-54917007D01*
X120099925Y-54802993D01*
X120116962Y-54739409D01*
X120749270Y-55371717D01*
X120749270Y-55371716D01*
X120788622Y-55317555D01*
X120793232Y-55308507D01*
X120841205Y-55257709D01*
X120909025Y-55240912D01*
X120975161Y-55263447D01*
X121014204Y-55308504D01*
X121018949Y-55317817D01*
X121143890Y-55489786D01*
X121294213Y-55640109D01*
X121466179Y-55765048D01*
X121466181Y-55765049D01*
X121466184Y-55765051D01*
X121655588Y-55861557D01*
X121857757Y-55927246D01*
X122067713Y-55960500D01*
X122067714Y-55960500D01*
X122280286Y-55960500D01*
X122280287Y-55960500D01*
X122490243Y-55927246D01*
X122692412Y-55861557D01*
X122881816Y-55765051D01*
X122950691Y-55715011D01*
X123053786Y-55640109D01*
X123053788Y-55640106D01*
X123053792Y-55640104D01*
X123204104Y-55489792D01*
X123204106Y-55489788D01*
X123204109Y-55489786D01*
X123329048Y-55317820D01*
X123329047Y-55317820D01*
X123329051Y-55317816D01*
X123333514Y-55309054D01*
X123381488Y-55258259D01*
X123449308Y-55241463D01*
X123515444Y-55263999D01*
X123554486Y-55309056D01*
X123558951Y-55317820D01*
X123683890Y-55489786D01*
X123834213Y-55640109D01*
X124006179Y-55765048D01*
X124006181Y-55765049D01*
X124006184Y-55765051D01*
X124195588Y-55861557D01*
X124397757Y-55927246D01*
X124607713Y-55960500D01*
X124607714Y-55960500D01*
X124820286Y-55960500D01*
X124820287Y-55960500D01*
X125030243Y-55927246D01*
X125232412Y-55861557D01*
X125421816Y-55765051D01*
X125490691Y-55715011D01*
X125593786Y-55640109D01*
X125593788Y-55640106D01*
X125593792Y-55640104D01*
X125744104Y-55489792D01*
X125744106Y-55489788D01*
X125744109Y-55489786D01*
X125869048Y-55317820D01*
X125869047Y-55317820D01*
X125869051Y-55317816D01*
X125873514Y-55309054D01*
X125921488Y-55258259D01*
X125989308Y-55241463D01*
X126055444Y-55263999D01*
X126094486Y-55309056D01*
X126098951Y-55317820D01*
X126223890Y-55489786D01*
X126374213Y-55640109D01*
X126546179Y-55765048D01*
X126546181Y-55765049D01*
X126546184Y-55765051D01*
X126735588Y-55861557D01*
X126937757Y-55927246D01*
X127147713Y-55960500D01*
X127147714Y-55960500D01*
X127360286Y-55960500D01*
X127360287Y-55960500D01*
X127570243Y-55927246D01*
X127772412Y-55861557D01*
X127961816Y-55765051D01*
X128030691Y-55715011D01*
X128133786Y-55640109D01*
X128133788Y-55640106D01*
X128133792Y-55640104D01*
X128284104Y-55489792D01*
X128284106Y-55489788D01*
X128284109Y-55489786D01*
X128409048Y-55317820D01*
X128409047Y-55317820D01*
X128409051Y-55317816D01*
X128413514Y-55309054D01*
X128461488Y-55258259D01*
X128529308Y-55241463D01*
X128595444Y-55263999D01*
X128634486Y-55309056D01*
X128638951Y-55317820D01*
X128763890Y-55489786D01*
X128914213Y-55640109D01*
X129086179Y-55765048D01*
X129086181Y-55765049D01*
X129086184Y-55765051D01*
X129275588Y-55861557D01*
X129477757Y-55927246D01*
X129687713Y-55960500D01*
X129687714Y-55960500D01*
X129900286Y-55960500D01*
X129900287Y-55960500D01*
X130110243Y-55927246D01*
X130312412Y-55861557D01*
X130501816Y-55765051D01*
X130570691Y-55715011D01*
X130673786Y-55640109D01*
X130673788Y-55640106D01*
X130673792Y-55640104D01*
X130824104Y-55489792D01*
X130949051Y-55317816D01*
X131045557Y-55128412D01*
X131111246Y-54926243D01*
X131144500Y-54716287D01*
X131144500Y-54503713D01*
X131111246Y-54293757D01*
X131045557Y-54091588D01*
X130949051Y-53902184D01*
X130949049Y-53902181D01*
X130949048Y-53902179D01*
X130824109Y-53730213D01*
X130673786Y-53579890D01*
X130501817Y-53454949D01*
X130498659Y-53453340D01*
X130498658Y-53453340D01*
X130452964Y-53430058D01*
X130327852Y-53366310D01*
X130312414Y-53358444D01*
X130312413Y-53358443D01*
X130312412Y-53358443D01*
X130110243Y-53292754D01*
X130110241Y-53292753D01*
X130110240Y-53292753D01*
X129948957Y-53267208D01*
X129900287Y-53259500D01*
X129687713Y-53259500D01*
X129639042Y-53267208D01*
X129477760Y-53292753D01*
X129275585Y-53358444D01*
X129086179Y-53454951D01*
X128914213Y-53579890D01*
X128763890Y-53730213D01*
X128638949Y-53902182D01*
X128634484Y-53910946D01*
X128586509Y-53961742D01*
X128518688Y-53978536D01*
X128452553Y-53955998D01*
X128413516Y-53910946D01*
X128409050Y-53902182D01*
X128284109Y-53730213D01*
X128133786Y-53579890D01*
X127961820Y-53454951D01*
X127772414Y-53358444D01*
X127772413Y-53358443D01*
X127772412Y-53358443D01*
X127570243Y-53292754D01*
X127570241Y-53292753D01*
X127570240Y-53292753D01*
X127408957Y-53267208D01*
X127360287Y-53259500D01*
X127147713Y-53259500D01*
X127099042Y-53267208D01*
X126937760Y-53292753D01*
X126735585Y-53358444D01*
X126546179Y-53454951D01*
X126374213Y-53579890D01*
X126223890Y-53730213D01*
X126098949Y-53902182D01*
X126094484Y-53910946D01*
X126046509Y-53961742D01*
X125978688Y-53978536D01*
X125912553Y-53955998D01*
X125873516Y-53910946D01*
X125869050Y-53902182D01*
X125744109Y-53730213D01*
X125593786Y-53579890D01*
X125421820Y-53454951D01*
X125232414Y-53358444D01*
X125232413Y-53358443D01*
X125232412Y-53358443D01*
X125030243Y-53292754D01*
X125030241Y-53292753D01*
X125030240Y-53292753D01*
X124868957Y-53267208D01*
X124820287Y-53259500D01*
X124607713Y-53259500D01*
X124559042Y-53267208D01*
X124397760Y-53292753D01*
X124195585Y-53358444D01*
X124006179Y-53454951D01*
X123834213Y-53579890D01*
X123683890Y-53730213D01*
X123558949Y-53902182D01*
X123554484Y-53910946D01*
X123506509Y-53961742D01*
X123438688Y-53978536D01*
X123372553Y-53955998D01*
X123333516Y-53910946D01*
X123329050Y-53902182D01*
X123204109Y-53730213D01*
X123053786Y-53579890D01*
X122881820Y-53454951D01*
X122692414Y-53358444D01*
X122692413Y-53358443D01*
X122692412Y-53358443D01*
X122490243Y-53292754D01*
X122490241Y-53292753D01*
X122490240Y-53292753D01*
X122328957Y-53267208D01*
X122280287Y-53259500D01*
X122067713Y-53259500D01*
X122019042Y-53267208D01*
X121857760Y-53292753D01*
X121655585Y-53358444D01*
X121466179Y-53454951D01*
X121294213Y-53579890D01*
X121143890Y-53730213D01*
X121018949Y-53902182D01*
X121014202Y-53911499D01*
X120966227Y-53962293D01*
X120898405Y-53979087D01*
X120832271Y-53956548D01*
X120793234Y-53911495D01*
X120788626Y-53902452D01*
X120749270Y-53848282D01*
X120749269Y-53848282D01*
X120116962Y-54480590D01*
X120099925Y-54417007D01*
X120034099Y-54302993D01*
X119941007Y-54209901D01*
X119826993Y-54144075D01*
X119763409Y-54127037D01*
X120395716Y-53494728D01*
X120341550Y-53455375D01*
X120152217Y-53358904D01*
X119950129Y-53293242D01*
X119740246Y-53260000D01*
X119527754Y-53260000D01*
X119317872Y-53293242D01*
X119317869Y-53293242D01*
X119115782Y-53358904D01*
X118926439Y-53455380D01*
X118872282Y-53494727D01*
X118872282Y-53494728D01*
X119504591Y-54127037D01*
X119441007Y-54144075D01*
X119326993Y-54209901D01*
X119233901Y-54302993D01*
X119168075Y-54417007D01*
X119151037Y-54480591D01*
X118518728Y-53848282D01*
X118518727Y-53848282D01*
X118479380Y-53902440D01*
X118479376Y-53902446D01*
X118474760Y-53911505D01*
X118426781Y-53962297D01*
X118358959Y-53979087D01*
X118292826Y-53956543D01*
X118253794Y-53911493D01*
X118249051Y-53902184D01*
X118249049Y-53902181D01*
X118249048Y-53902179D01*
X118124109Y-53730213D01*
X117973786Y-53579890D01*
X117801820Y-53454951D01*
X117612414Y-53358444D01*
X117612413Y-53358443D01*
X117612412Y-53358443D01*
X117410243Y-53292754D01*
X117410241Y-53292753D01*
X117410240Y-53292753D01*
X117248957Y-53267208D01*
X117200287Y-53259500D01*
X116987713Y-53259500D01*
X116939042Y-53267208D01*
X116777760Y-53292753D01*
X116575585Y-53358444D01*
X116386179Y-53454951D01*
X116214213Y-53579890D01*
X116063890Y-53730213D01*
X115938949Y-53902182D01*
X115934484Y-53910946D01*
X115886509Y-53961742D01*
X115818688Y-53978536D01*
X115752553Y-53955998D01*
X115713516Y-53910946D01*
X115709050Y-53902182D01*
X115584109Y-53730213D01*
X115433786Y-53579890D01*
X115261820Y-53454951D01*
X115072414Y-53358444D01*
X115072413Y-53358443D01*
X115072412Y-53358443D01*
X114870243Y-53292754D01*
X114870241Y-53292753D01*
X114870240Y-53292753D01*
X114708957Y-53267208D01*
X114660287Y-53259500D01*
X114447713Y-53259500D01*
X114399042Y-53267208D01*
X114237760Y-53292753D01*
X114035585Y-53358444D01*
X113846179Y-53454951D01*
X113674213Y-53579890D01*
X113523890Y-53730213D01*
X113398949Y-53902182D01*
X113394484Y-53910946D01*
X113346509Y-53961742D01*
X113278688Y-53978536D01*
X113212553Y-53955998D01*
X113173516Y-53910946D01*
X113169050Y-53902182D01*
X113044109Y-53730213D01*
X112893786Y-53579890D01*
X112721820Y-53454951D01*
X112532414Y-53358444D01*
X112532413Y-53358443D01*
X112532412Y-53358443D01*
X112330243Y-53292754D01*
X112330241Y-53292753D01*
X112330240Y-53292753D01*
X112168957Y-53267208D01*
X112120287Y-53259500D01*
X111907713Y-53259500D01*
X111859042Y-53267208D01*
X111697760Y-53292753D01*
X111495585Y-53358444D01*
X111306179Y-53454951D01*
X111134213Y-53579890D01*
X110983890Y-53730213D01*
X110858949Y-53902182D01*
X110854484Y-53910946D01*
X110806509Y-53961742D01*
X110738688Y-53978536D01*
X110672553Y-53955998D01*
X110633516Y-53910946D01*
X110629050Y-53902182D01*
X110504109Y-53730213D01*
X110353786Y-53579890D01*
X110181820Y-53454951D01*
X109992414Y-53358444D01*
X109992413Y-53358443D01*
X109992412Y-53358443D01*
X109790243Y-53292754D01*
X109790241Y-53292753D01*
X109790240Y-53292753D01*
X109628957Y-53267208D01*
X109580287Y-53259500D01*
X109367713Y-53259500D01*
X109319042Y-53267208D01*
X109157760Y-53292753D01*
X108955585Y-53358444D01*
X108766179Y-53454951D01*
X108594213Y-53579890D01*
X108443890Y-53730213D01*
X108318949Y-53902182D01*
X108314484Y-53910946D01*
X108266509Y-53961742D01*
X108198688Y-53978536D01*
X108132553Y-53955998D01*
X108093516Y-53910946D01*
X108089050Y-53902182D01*
X107964109Y-53730213D01*
X107813786Y-53579890D01*
X107641820Y-53454951D01*
X107452414Y-53358444D01*
X107452413Y-53358443D01*
X107452412Y-53358443D01*
X107250243Y-53292754D01*
X107250241Y-53292753D01*
X107250240Y-53292753D01*
X107088957Y-53267208D01*
X107040287Y-53259500D01*
X106827713Y-53259500D01*
X106779042Y-53267208D01*
X106617760Y-53292753D01*
X106415585Y-53358444D01*
X106226179Y-53454951D01*
X106054213Y-53579890D01*
X105903890Y-53730213D01*
X105778949Y-53902182D01*
X105774484Y-53910946D01*
X105726509Y-53961742D01*
X105658688Y-53978536D01*
X105592553Y-53955998D01*
X105553516Y-53910946D01*
X105549050Y-53902182D01*
X105424109Y-53730213D01*
X105273786Y-53579890D01*
X105101820Y-53454951D01*
X104912414Y-53358444D01*
X104912413Y-53358443D01*
X104912412Y-53358443D01*
X104710243Y-53292754D01*
X104710241Y-53292753D01*
X104710240Y-53292753D01*
X104548957Y-53267208D01*
X104500287Y-53259500D01*
X104287713Y-53259500D01*
X104239042Y-53267208D01*
X104077760Y-53292753D01*
X103875585Y-53358444D01*
X103686179Y-53454951D01*
X103514213Y-53579890D01*
X103363890Y-53730213D01*
X103238949Y-53902182D01*
X103234484Y-53910946D01*
X103186509Y-53961742D01*
X103118688Y-53978536D01*
X103052553Y-53955998D01*
X103013516Y-53910946D01*
X103009050Y-53902182D01*
X102884109Y-53730213D01*
X102733786Y-53579890D01*
X102561820Y-53454951D01*
X102372414Y-53358444D01*
X102372413Y-53358443D01*
X102372412Y-53358443D01*
X102170243Y-53292754D01*
X102170241Y-53292753D01*
X102170240Y-53292753D01*
X102008957Y-53267208D01*
X101960287Y-53259500D01*
X101747713Y-53259500D01*
X101699042Y-53267208D01*
X101537760Y-53292753D01*
X101335585Y-53358444D01*
X101146179Y-53454951D01*
X100974213Y-53579890D01*
X100823890Y-53730213D01*
X100698949Y-53902182D01*
X100694484Y-53910946D01*
X100646509Y-53961742D01*
X100578688Y-53978536D01*
X100512553Y-53955998D01*
X100473516Y-53910946D01*
X100469050Y-53902182D01*
X100344109Y-53730213D01*
X100193786Y-53579890D01*
X100021820Y-53454951D01*
X99832414Y-53358444D01*
X99832413Y-53358443D01*
X99832412Y-53358443D01*
X99630243Y-53292754D01*
X99630241Y-53292753D01*
X99630240Y-53292753D01*
X99468957Y-53267208D01*
X99420287Y-53259500D01*
X99207713Y-53259500D01*
X99159042Y-53267208D01*
X98997760Y-53292753D01*
X98795585Y-53358444D01*
X98606179Y-53454951D01*
X98434213Y-53579890D01*
X98283890Y-53730213D01*
X98158949Y-53902182D01*
X98154484Y-53910946D01*
X98106509Y-53961742D01*
X98038688Y-53978536D01*
X97972553Y-53955998D01*
X97933516Y-53910946D01*
X97929050Y-53902182D01*
X97804109Y-53730213D01*
X97653786Y-53579890D01*
X97481820Y-53454951D01*
X97292414Y-53358444D01*
X97292413Y-53358443D01*
X97292412Y-53358443D01*
X97090243Y-53292754D01*
X97090241Y-53292753D01*
X97090240Y-53292753D01*
X96928957Y-53267208D01*
X96880287Y-53259500D01*
X96667713Y-53259500D01*
X96619042Y-53267208D01*
X96457760Y-53292753D01*
X96255585Y-53358444D01*
X96066179Y-53454951D01*
X95894213Y-53579890D01*
X95743890Y-53730213D01*
X95618949Y-53902182D01*
X95614484Y-53910946D01*
X95566509Y-53961742D01*
X95498688Y-53978536D01*
X95432553Y-53955998D01*
X95393516Y-53910946D01*
X95389050Y-53902182D01*
X95264109Y-53730213D01*
X95113786Y-53579890D01*
X94941820Y-53454951D01*
X94752414Y-53358444D01*
X94752413Y-53358443D01*
X94752412Y-53358443D01*
X94550243Y-53292754D01*
X94550241Y-53292753D01*
X94550240Y-53292753D01*
X94388957Y-53267208D01*
X94340287Y-53259500D01*
X94127713Y-53259500D01*
X94079042Y-53267208D01*
X93917760Y-53292753D01*
X93715585Y-53358444D01*
X93526179Y-53454951D01*
X93354213Y-53579890D01*
X93203890Y-53730213D01*
X93078949Y-53902182D01*
X93074484Y-53910946D01*
X93026509Y-53961742D01*
X92958688Y-53978536D01*
X92892553Y-53955998D01*
X92853516Y-53910946D01*
X92849050Y-53902182D01*
X92724109Y-53730213D01*
X92573786Y-53579890D01*
X92401820Y-53454951D01*
X92212414Y-53358444D01*
X92212413Y-53358443D01*
X92212412Y-53358443D01*
X92010243Y-53292754D01*
X92010241Y-53292753D01*
X92010240Y-53292753D01*
X91848957Y-53267208D01*
X91800287Y-53259500D01*
X91587713Y-53259500D01*
X91548202Y-53265757D01*
X91377759Y-53292753D01*
X91184804Y-53355448D01*
X91114963Y-53357443D01*
X91055130Y-53321362D01*
X91028971Y-53268158D01*
X91026604Y-53268793D01*
X91023523Y-53257293D01*
X90983577Y-53108216D01*
X90951387Y-53052461D01*
X90904524Y-52971290D01*
X90904518Y-52971282D01*
X90149590Y-52216355D01*
X90149588Y-52216352D01*
X90030717Y-52097481D01*
X90030716Y-52097480D01*
X89943904Y-52047360D01*
X89943904Y-52047359D01*
X89943900Y-52047358D01*
X89893785Y-52018423D01*
X89741057Y-51977499D01*
X89582943Y-51977499D01*
X89575347Y-51977499D01*
X89575331Y-51977500D01*
X79819057Y-51977500D01*
X79660942Y-51977500D01*
X79508215Y-52018423D01*
X79508214Y-52018423D01*
X79508212Y-52018424D01*
X79508209Y-52018425D01*
X79458096Y-52047359D01*
X79458095Y-52047360D01*
X79414689Y-52072420D01*
X79371285Y-52097479D01*
X79371282Y-52097481D01*
X78640481Y-52828282D01*
X78640479Y-52828285D01*
X78590361Y-52915094D01*
X78590359Y-52915096D01*
X78561425Y-52965209D01*
X78561424Y-52965210D01*
X78559795Y-52971290D01*
X78520499Y-53117943D01*
X78520499Y-53117945D01*
X78520499Y-53286046D01*
X78520500Y-53286059D01*
X78520500Y-58763699D01*
X78500815Y-58830738D01*
X78448011Y-58876493D01*
X78435507Y-58881403D01*
X78402962Y-58892188D01*
X78351668Y-58909185D01*
X78351663Y-58909187D01*
X78202342Y-59001289D01*
X78078289Y-59125342D01*
X77986187Y-59274663D01*
X77986185Y-59274668D01*
X77961592Y-59348887D01*
X77931001Y-59441203D01*
X77931001Y-59441204D01*
X77931000Y-59441204D01*
X77920500Y-59543983D01*
X77920500Y-59543991D01*
X77920500Y-59939200D01*
X77920501Y-60318500D01*
X77900817Y-60385539D01*
X77848013Y-60431294D01*
X77796501Y-60442500D01*
X71503097Y-60442500D01*
X71436058Y-60422815D01*
X71415416Y-60406181D01*
X69448590Y-58439355D01*
X69448588Y-58439352D01*
X69329717Y-58320481D01*
X69329716Y-58320480D01*
X69242904Y-58270360D01*
X69242904Y-58270359D01*
X69242900Y-58270358D01*
X69192785Y-58241423D01*
X69040057Y-58200499D01*
X68881943Y-58200499D01*
X68874347Y-58200499D01*
X68874331Y-58200500D01*
X65118740Y-58200500D01*
X65081421Y-58210499D01*
X65081422Y-58210500D01*
X64966014Y-58241423D01*
X64966009Y-58241426D01*
X64829090Y-58320475D01*
X64829082Y-58320481D01*
X64717278Y-58432286D01*
X63334043Y-59815520D01*
X63272720Y-59849005D01*
X63208045Y-59845771D01*
X63158768Y-59829760D01*
X62946875Y-59796200D01*
X62946870Y-59796200D01*
X62732330Y-59796200D01*
X62732325Y-59796200D01*
X62520429Y-59829760D01*
X62316384Y-59896059D01*
X62125231Y-59993458D01*
X62028556Y-60063697D01*
X61951665Y-60119562D01*
X61951663Y-60119564D01*
X61951662Y-60119564D01*
X61799964Y-60271262D01*
X61799964Y-60271263D01*
X61799962Y-60271265D01*
X61751895Y-60337423D01*
X61673858Y-60444831D01*
X61576459Y-60635984D01*
X61510160Y-60840029D01*
X61476600Y-61051924D01*
X61476600Y-61266475D01*
X61510160Y-61478370D01*
X61576459Y-61682415D01*
X61664489Y-61855181D01*
X61673858Y-61873568D01*
X61799962Y-62047135D01*
X61799964Y-62047137D01*
X61951665Y-62198838D01*
X61958609Y-62203883D01*
X62001274Y-62259214D01*
X62007252Y-62328827D01*
X61974645Y-62390622D01*
X61958609Y-62404517D01*
X61951665Y-62409561D01*
X61799964Y-62561262D01*
X61799964Y-62561263D01*
X61799962Y-62561265D01*
X61784591Y-62582422D01*
X61673858Y-62734831D01*
X61576459Y-62925984D01*
X61510160Y-63130029D01*
X61476600Y-63341924D01*
X61476600Y-63556475D01*
X61510160Y-63768370D01*
X61576459Y-63972415D01*
X61626686Y-64070989D01*
X61673858Y-64163568D01*
X61799962Y-64337135D01*
X61799964Y-64337137D01*
X61951665Y-64488838D01*
X61958609Y-64493883D01*
X62001274Y-64549214D01*
X62007252Y-64618827D01*
X61974645Y-64680622D01*
X61958609Y-64694517D01*
X61951665Y-64699561D01*
X61799964Y-64851262D01*
X61799964Y-64851263D01*
X61799962Y-64851265D01*
X61752671Y-64916355D01*
X61673858Y-65024831D01*
X61576459Y-65215984D01*
X61510160Y-65420029D01*
X61476600Y-65631924D01*
X61476600Y-65846475D01*
X61510160Y-66058370D01*
X61576459Y-66262415D01*
X61626686Y-66360989D01*
X61673858Y-66453568D01*
X61799962Y-66627135D01*
X61799964Y-66627137D01*
X61951665Y-66778838D01*
X61958609Y-66783883D01*
X62001274Y-66839214D01*
X62007252Y-66908827D01*
X61974645Y-66970622D01*
X61958609Y-66984517D01*
X61951665Y-66989561D01*
X61799964Y-67141262D01*
X61799964Y-67141263D01*
X61799962Y-67141265D01*
X61774844Y-67175837D01*
X61673858Y-67314831D01*
X61576459Y-67505984D01*
X61510160Y-67710029D01*
X61476600Y-67921924D01*
X61476600Y-68136475D01*
X61510160Y-68348370D01*
X61576459Y-68552415D01*
X61665118Y-68726415D01*
X61673858Y-68743568D01*
X61799962Y-68917135D01*
X61799964Y-68917137D01*
X61951665Y-69068838D01*
X61958609Y-69073883D01*
X62001274Y-69129214D01*
X62007252Y-69198827D01*
X61974645Y-69260622D01*
X61958609Y-69274517D01*
X61951665Y-69279561D01*
X61799964Y-69431262D01*
X61799964Y-69431263D01*
X61799962Y-69431265D01*
X61781473Y-69456713D01*
X61673858Y-69604831D01*
X61576459Y-69795984D01*
X61510160Y-70000029D01*
X61476600Y-70211924D01*
X61476600Y-70426475D01*
X61510160Y-70638370D01*
X61576459Y-70842415D01*
X61669838Y-71025678D01*
X61673858Y-71033568D01*
X61799962Y-71207135D01*
X61951665Y-71358838D01*
X62096682Y-71464199D01*
X62125238Y-71484946D01*
X62129384Y-71487487D01*
X62128741Y-71488535D01*
X62175387Y-71532585D01*
X62192300Y-71595102D01*
X62192300Y-73293530D01*
X62192299Y-73293548D01*
X62192299Y-73459254D01*
X62192298Y-73459254D01*
X62232269Y-73608423D01*
X62233223Y-73611985D01*
X62238717Y-73621500D01*
X62238718Y-73621501D01*
X62238719Y-73621504D01*
X62312277Y-73748912D01*
X62312281Y-73748917D01*
X62431149Y-73867785D01*
X62431154Y-73867789D01*
X64409419Y-75846055D01*
X64442903Y-75907376D01*
X64437919Y-75977068D01*
X64396047Y-76033001D01*
X64373367Y-76045921D01*
X64373541Y-76046282D01*
X64103966Y-76176101D01*
X63853559Y-76333443D01*
X63702701Y-76453747D01*
X64421003Y-77172049D01*
X64320983Y-77244719D01*
X64140119Y-77425583D01*
X64067449Y-77525603D01*
X63349147Y-76807301D01*
X63228843Y-76958159D01*
X63071501Y-77208566D01*
X62943194Y-77474999D01*
X62845517Y-77754146D01*
X62779711Y-78042461D01*
X62779708Y-78042475D01*
X62746600Y-78336327D01*
X62746600Y-78632072D01*
X62779708Y-78925924D01*
X62779711Y-78925938D01*
X62845517Y-79214253D01*
X62943194Y-79493400D01*
X63071501Y-79759833D01*
X63228842Y-80010240D01*
X63349148Y-80161097D01*
X64067449Y-79442795D01*
X64140119Y-79542817D01*
X64320983Y-79723681D01*
X64421002Y-79796349D01*
X63702701Y-80514650D01*
X63853559Y-80634957D01*
X64052096Y-80759706D01*
X64098387Y-80812041D01*
X64109035Y-80881094D01*
X64080660Y-80944943D01*
X64022270Y-80983315D01*
X63986124Y-80988700D01*
X54497900Y-80988700D01*
X54430861Y-80969015D01*
X54385106Y-80916211D01*
X54373900Y-80864700D01*
X54373900Y-51113700D01*
X54393585Y-51046661D01*
X54446389Y-51000906D01*
X54497900Y-50989700D01*
X63986124Y-50989700D01*
X64053163Y-51009385D01*
G37*
G04 #@! TD.AperFunction*
G04 #@! TA.AperFunction,Conductor*
G36*
X95575444Y-55263999D02*
G01*
X95614486Y-55309056D01*
X95618951Y-55317820D01*
X95743890Y-55489786D01*
X95894213Y-55640109D01*
X96066179Y-55765048D01*
X96066181Y-55765049D01*
X96066184Y-55765051D01*
X96255588Y-55861557D01*
X96457757Y-55927246D01*
X96667713Y-55960500D01*
X96667714Y-55960500D01*
X96880286Y-55960500D01*
X96880287Y-55960500D01*
X97090243Y-55927246D01*
X97132523Y-55913507D01*
X97202362Y-55911511D01*
X97258522Y-55943757D01*
X98829139Y-57514374D01*
X98829149Y-57514385D01*
X98833479Y-57518715D01*
X98833480Y-57518716D01*
X98945284Y-57630520D01*
X98945286Y-57630521D01*
X98945290Y-57630524D01*
X99082209Y-57709573D01*
X99082216Y-57709577D01*
X99194019Y-57739534D01*
X99234942Y-57750500D01*
X99234943Y-57750500D01*
X101764500Y-57750500D01*
X101831539Y-57770185D01*
X101877294Y-57822989D01*
X101888500Y-57874500D01*
X101888500Y-58661528D01*
X101868815Y-58728567D01*
X101816011Y-58774322D01*
X101746853Y-58784266D01*
X101683297Y-58755241D01*
X101646794Y-58700533D01*
X101627357Y-58641878D01*
X101627356Y-58641875D01*
X101535315Y-58492654D01*
X101411345Y-58368684D01*
X101262124Y-58276643D01*
X101262119Y-58276641D01*
X101095697Y-58221494D01*
X101095690Y-58221493D01*
X100992986Y-58211000D01*
X100855500Y-58211000D01*
X100855500Y-60660999D01*
X100992972Y-60660999D01*
X100992986Y-60660998D01*
X101095697Y-60650505D01*
X101262119Y-60595358D01*
X101262124Y-60595356D01*
X101411345Y-60503315D01*
X101535315Y-60379345D01*
X101627356Y-60230124D01*
X101627358Y-60230119D01*
X101646794Y-60171466D01*
X101686566Y-60114021D01*
X101751082Y-60087198D01*
X101819858Y-60099513D01*
X101871058Y-60147056D01*
X101888500Y-60210470D01*
X101888500Y-62673900D01*
X101868815Y-62740939D01*
X101816011Y-62786694D01*
X101764500Y-62797900D01*
X98754000Y-62797900D01*
X98745314Y-62795349D01*
X98736353Y-62796638D01*
X98712312Y-62785659D01*
X98686961Y-62778215D01*
X98681033Y-62771374D01*
X98672797Y-62767613D01*
X98658507Y-62745378D01*
X98641206Y-62725411D01*
X98638918Y-62714896D01*
X98635023Y-62708835D01*
X98630000Y-62673900D01*
X98630000Y-62612000D01*
X98649685Y-62544961D01*
X98702489Y-62499206D01*
X98754000Y-62488000D01*
X100152295Y-62488000D01*
X100152295Y-62487998D01*
X100152100Y-62485513D01*
X100106281Y-62327801D01*
X100022685Y-62186447D01*
X100017900Y-62180278D01*
X100020366Y-62178364D01*
X99993802Y-62129776D01*
X99998749Y-62060082D01*
X100019856Y-62027232D01*
X100018301Y-62026026D01*
X100023077Y-62019868D01*
X100023081Y-62019865D01*
X100106744Y-61878398D01*
X100152598Y-61720569D01*
X100155500Y-61683694D01*
X100155500Y-61252306D01*
X100152598Y-61215431D01*
X100150031Y-61206597D01*
X100112029Y-61075794D01*
X100106744Y-61057602D01*
X100023081Y-60916135D01*
X100023079Y-60916133D01*
X100023076Y-60916129D01*
X99950063Y-60843116D01*
X99916578Y-60781793D01*
X99921562Y-60712101D01*
X99963434Y-60656168D01*
X100028898Y-60631751D01*
X100076749Y-60637729D01*
X100115305Y-60650505D01*
X100115309Y-60650506D01*
X100218019Y-60660999D01*
X100355499Y-60660999D01*
X100355500Y-60660998D01*
X100355500Y-58211000D01*
X100218027Y-58211000D01*
X100218012Y-58211001D01*
X100115302Y-58221494D01*
X99948880Y-58276641D01*
X99948875Y-58276643D01*
X99799654Y-58368684D01*
X99675683Y-58492655D01*
X99675679Y-58492660D01*
X99673826Y-58495665D01*
X99672018Y-58497290D01*
X99671202Y-58498323D01*
X99671025Y-58498183D01*
X99621874Y-58542385D01*
X99552911Y-58553601D01*
X99488831Y-58525752D01*
X99462753Y-58495653D01*
X99462737Y-58495628D01*
X99460712Y-58492344D01*
X99336656Y-58368288D01*
X99187334Y-58276186D01*
X99020797Y-58221001D01*
X99020795Y-58221000D01*
X98918010Y-58210500D01*
X98142998Y-58210500D01*
X98142980Y-58210501D01*
X98040203Y-58221000D01*
X98040200Y-58221001D01*
X97873668Y-58276185D01*
X97873663Y-58276187D01*
X97724342Y-58368289D01*
X97600289Y-58492342D01*
X97508187Y-58641663D01*
X97508185Y-58641668D01*
X97508115Y-58641880D01*
X97453001Y-58808203D01*
X97453001Y-58808204D01*
X97453000Y-58808204D01*
X97442500Y-58910983D01*
X97442500Y-59961001D01*
X97442501Y-59961019D01*
X97453000Y-60063796D01*
X97453001Y-60063799D01*
X97500671Y-60207656D01*
X97508186Y-60230334D01*
X97600096Y-60379345D01*
X97600289Y-60379657D01*
X97689058Y-60468426D01*
X97722543Y-60529749D01*
X97717559Y-60599441D01*
X97675687Y-60655374D01*
X97635972Y-60675183D01*
X97494606Y-60716253D01*
X97494603Y-60716255D01*
X97353137Y-60799917D01*
X97353129Y-60799923D01*
X97236923Y-60916129D01*
X97236916Y-60916138D01*
X97153253Y-61057605D01*
X97152798Y-61058658D01*
X97151511Y-61060551D01*
X97149285Y-61064316D01*
X97149048Y-61064176D01*
X97148760Y-61064600D01*
X97147847Y-61068803D01*
X97126702Y-61097062D01*
X97124501Y-61099264D01*
X97124481Y-61099284D01*
X96039481Y-62184283D01*
X96039479Y-62184285D01*
X96024345Y-62210500D01*
X96007016Y-62240515D01*
X95960423Y-62321216D01*
X95919499Y-62473944D01*
X95919499Y-62473946D01*
X95919499Y-62642047D01*
X95919500Y-62642060D01*
X95919500Y-67517903D01*
X95899815Y-67584942D01*
X95883181Y-67605584D01*
X88941584Y-74547181D01*
X88880261Y-74580666D01*
X88853903Y-74583500D01*
X81962940Y-74583500D01*
X81922019Y-74594464D01*
X81922019Y-74594465D01*
X81884781Y-74604443D01*
X81810214Y-74624423D01*
X81810209Y-74624426D01*
X81673290Y-74703475D01*
X81673282Y-74703481D01*
X81053481Y-75323282D01*
X81053479Y-75323285D01*
X81003361Y-75410094D01*
X81003359Y-75410096D01*
X80974425Y-75460209D01*
X80974424Y-75460210D01*
X80974423Y-75460215D01*
X80933499Y-75612943D01*
X80933499Y-75612945D01*
X80933499Y-75781046D01*
X80933500Y-75781059D01*
X80933500Y-75995500D01*
X80913815Y-76062539D01*
X80861011Y-76108294D01*
X80809501Y-76119500D01*
X80636130Y-76119500D01*
X80636123Y-76119501D01*
X80576516Y-76125908D01*
X80441671Y-76176202D01*
X80441664Y-76176206D01*
X80326455Y-76262452D01*
X80326452Y-76262455D01*
X80240206Y-76377664D01*
X80240202Y-76377671D01*
X80189908Y-76512517D01*
X80183501Y-76572116D01*
X80183500Y-76572135D01*
X80183500Y-78367870D01*
X80183501Y-78367876D01*
X80189908Y-78427483D01*
X80240202Y-78562328D01*
X80240206Y-78562335D01*
X80326452Y-78677544D01*
X80326455Y-78677547D01*
X80441664Y-78763793D01*
X80441671Y-78763797D01*
X80576517Y-78814091D01*
X80576516Y-78814091D01*
X80583444Y-78814835D01*
X80636127Y-78820500D01*
X82431872Y-78820499D01*
X82491483Y-78814091D01*
X82626331Y-78763796D01*
X82741546Y-78677546D01*
X82827796Y-78562331D01*
X82876810Y-78430916D01*
X82918681Y-78374984D01*
X82984145Y-78350566D01*
X83052418Y-78365417D01*
X83080673Y-78386569D01*
X83194213Y-78500109D01*
X83366179Y-78625048D01*
X83366181Y-78625049D01*
X83366184Y-78625051D01*
X83555588Y-78721557D01*
X83757757Y-78787246D01*
X83967713Y-78820500D01*
X83967714Y-78820500D01*
X84180286Y-78820500D01*
X84180287Y-78820500D01*
X84390243Y-78787246D01*
X84592412Y-78721557D01*
X84781816Y-78625051D01*
X84868138Y-78562335D01*
X84953786Y-78500109D01*
X84953788Y-78500106D01*
X84953792Y-78500104D01*
X85104104Y-78349792D01*
X85104106Y-78349788D01*
X85104109Y-78349786D01*
X85229048Y-78177820D01*
X85229047Y-78177820D01*
X85229051Y-78177816D01*
X85233514Y-78169054D01*
X85281488Y-78118259D01*
X85349308Y-78101463D01*
X85415444Y-78123999D01*
X85454486Y-78169056D01*
X85458951Y-78177820D01*
X85583890Y-78349786D01*
X85734213Y-78500109D01*
X85906179Y-78625048D01*
X85906181Y-78625049D01*
X85906184Y-78625051D01*
X86095588Y-78721557D01*
X86297757Y-78787246D01*
X86507713Y-78820500D01*
X86507714Y-78820500D01*
X86720286Y-78820500D01*
X86720287Y-78820500D01*
X86930243Y-78787246D01*
X87132412Y-78721557D01*
X87321816Y-78625051D01*
X87408138Y-78562335D01*
X87493786Y-78500109D01*
X87493788Y-78500106D01*
X87493792Y-78500104D01*
X87644104Y-78349792D01*
X87644106Y-78349788D01*
X87644109Y-78349786D01*
X87769048Y-78177820D01*
X87769047Y-78177820D01*
X87769051Y-78177816D01*
X87773514Y-78169054D01*
X87821488Y-78118259D01*
X87889308Y-78101463D01*
X87955444Y-78123999D01*
X87994486Y-78169056D01*
X87998951Y-78177820D01*
X88123890Y-78349786D01*
X88274213Y-78500109D01*
X88446179Y-78625048D01*
X88446181Y-78625049D01*
X88446184Y-78625051D01*
X88635588Y-78721557D01*
X88837757Y-78787246D01*
X89047713Y-78820500D01*
X89047714Y-78820500D01*
X89260286Y-78820500D01*
X89260287Y-78820500D01*
X89470243Y-78787246D01*
X89672412Y-78721557D01*
X89861816Y-78625051D01*
X89948138Y-78562335D01*
X90033786Y-78500109D01*
X90033788Y-78500106D01*
X90033792Y-78500104D01*
X90184104Y-78349792D01*
X90184106Y-78349788D01*
X90184109Y-78349786D01*
X90309048Y-78177820D01*
X90309047Y-78177820D01*
X90309051Y-78177816D01*
X90313514Y-78169054D01*
X90361488Y-78118259D01*
X90429308Y-78101463D01*
X90495444Y-78123999D01*
X90534486Y-78169056D01*
X90538951Y-78177820D01*
X90663890Y-78349786D01*
X90814213Y-78500109D01*
X90986179Y-78625048D01*
X90986181Y-78625049D01*
X90986184Y-78625051D01*
X91175588Y-78721557D01*
X91377757Y-78787246D01*
X91587713Y-78820500D01*
X91587714Y-78820500D01*
X91800286Y-78820500D01*
X91800287Y-78820500D01*
X92010243Y-78787246D01*
X92212412Y-78721557D01*
X92401816Y-78625051D01*
X92488138Y-78562335D01*
X92573786Y-78500109D01*
X92573788Y-78500106D01*
X92573792Y-78500104D01*
X92724104Y-78349792D01*
X92724106Y-78349788D01*
X92724109Y-78349786D01*
X92849048Y-78177820D01*
X92849047Y-78177820D01*
X92849051Y-78177816D01*
X92853514Y-78169054D01*
X92901488Y-78118259D01*
X92969308Y-78101463D01*
X93035444Y-78123999D01*
X93074486Y-78169056D01*
X93078951Y-78177820D01*
X93203890Y-78349786D01*
X93354213Y-78500109D01*
X93526184Y-78625051D01*
X93526184Y-78625052D01*
X93565793Y-78645233D01*
X93616590Y-78693206D01*
X93633500Y-78755718D01*
X93633500Y-79415330D01*
X93633499Y-79415348D01*
X93633499Y-79581054D01*
X93633498Y-79581054D01*
X93674423Y-79733784D01*
X93674424Y-79733788D01*
X93703114Y-79783481D01*
X93703115Y-79783481D01*
X93753477Y-79870712D01*
X93753481Y-79870717D01*
X93872349Y-79989585D01*
X93872354Y-79989589D01*
X94627284Y-80744520D01*
X94649441Y-80757312D01*
X94697657Y-80807879D01*
X94710881Y-80876486D01*
X94684913Y-80941351D01*
X94627999Y-80981880D01*
X94587442Y-80988700D01*
X66773076Y-80988700D01*
X66706037Y-80969015D01*
X66660282Y-80916211D01*
X66650338Y-80847053D01*
X66679363Y-80783497D01*
X66707104Y-80759706D01*
X66905641Y-80634956D01*
X67056496Y-80514651D01*
X67056497Y-80514650D01*
X66338196Y-79796350D01*
X66438217Y-79723681D01*
X66619081Y-79542817D01*
X66691750Y-79442796D01*
X67410050Y-80161097D01*
X67410051Y-80161096D01*
X67530356Y-80010241D01*
X67687698Y-79759833D01*
X67816005Y-79493400D01*
X67913682Y-79214253D01*
X67979488Y-78925938D01*
X67979491Y-78925924D01*
X68012599Y-78632072D01*
X68012600Y-78632068D01*
X68012600Y-78336331D01*
X68012599Y-78336327D01*
X67979491Y-78042475D01*
X67979488Y-78042461D01*
X67913682Y-77754146D01*
X67816005Y-77474999D01*
X67687698Y-77208566D01*
X67530357Y-76958159D01*
X67410050Y-76807301D01*
X66691749Y-77525602D01*
X66619081Y-77425583D01*
X66438217Y-77244719D01*
X66338196Y-77172049D01*
X67056497Y-76453748D01*
X66972105Y-76386447D01*
X66931965Y-76329258D01*
X66929115Y-76259446D01*
X66964461Y-76199177D01*
X67026780Y-76167584D01*
X67049418Y-76165500D01*
X71671299Y-76165500D01*
X71738338Y-76185185D01*
X71784093Y-76237989D01*
X71789003Y-76250492D01*
X71796924Y-76274394D01*
X71816785Y-76334331D01*
X71816787Y-76334336D01*
X71817035Y-76334738D01*
X71908888Y-76483656D01*
X72032944Y-76607712D01*
X72182266Y-76699814D01*
X72348803Y-76754999D01*
X72451591Y-76765500D01*
X72625593Y-76765499D01*
X72657687Y-76769723D01*
X72772543Y-76800500D01*
X72772545Y-76800500D01*
X72930655Y-76800500D01*
X72930657Y-76800500D01*
X73040953Y-76770946D01*
X73045514Y-76769724D01*
X73077607Y-76765499D01*
X73251602Y-76765499D01*
X73251608Y-76765499D01*
X73354397Y-76754999D01*
X73520934Y-76699814D01*
X73670256Y-76607712D01*
X73763919Y-76514049D01*
X73825242Y-76480564D01*
X73894934Y-76485548D01*
X73939281Y-76514049D01*
X74032944Y-76607712D01*
X74182266Y-76699814D01*
X74348803Y-76754999D01*
X74451591Y-76765500D01*
X75251608Y-76765499D01*
X75251616Y-76765498D01*
X75251619Y-76765498D01*
X75307902Y-76759748D01*
X75354397Y-76754999D01*
X75520934Y-76699814D01*
X75670256Y-76607712D01*
X75794312Y-76483656D01*
X75886414Y-76334334D01*
X75914195Y-76250495D01*
X75953968Y-76193051D01*
X76018484Y-76166228D01*
X76031901Y-76165500D01*
X77271234Y-76165500D01*
X77338273Y-76185185D01*
X77340125Y-76186398D01*
X77471814Y-76274390D01*
X77471827Y-76274397D01*
X77614379Y-76333443D01*
X77617503Y-76334737D01*
X77772153Y-76365499D01*
X77772156Y-76365500D01*
X77772158Y-76365500D01*
X77929844Y-76365500D01*
X77929845Y-76365499D01*
X78084497Y-76334737D01*
X78230179Y-76274394D01*
X78361289Y-76186789D01*
X78472789Y-76075289D01*
X78560394Y-75944179D01*
X78620737Y-75798497D01*
X78651500Y-75643842D01*
X78651500Y-75486158D01*
X78651500Y-75486155D01*
X78651499Y-75486153D01*
X78620738Y-75331510D01*
X78620737Y-75331503D01*
X78592297Y-75262842D01*
X78560397Y-75185827D01*
X78560390Y-75185814D01*
X78472789Y-75054711D01*
X78472786Y-75054707D01*
X78361292Y-74943213D01*
X78361287Y-74943209D01*
X78230185Y-74855609D01*
X78230172Y-74855602D01*
X78084501Y-74795264D01*
X78084489Y-74795261D01*
X77929845Y-74764500D01*
X77929842Y-74764500D01*
X77772158Y-74764500D01*
X77772155Y-74764500D01*
X77617510Y-74795261D01*
X77617498Y-74795264D01*
X77471827Y-74855602D01*
X77471814Y-74855609D01*
X77340125Y-74943602D01*
X77273447Y-74964480D01*
X77271234Y-74964500D01*
X76031901Y-74964500D01*
X75964862Y-74944815D01*
X75919107Y-74892011D01*
X75914195Y-74879504D01*
X75906275Y-74855602D01*
X75886414Y-74795666D01*
X75794312Y-74646344D01*
X75670256Y-74522288D01*
X75577488Y-74465069D01*
X75520936Y-74430187D01*
X75520931Y-74430185D01*
X75519462Y-74429698D01*
X75354397Y-74375001D01*
X75354395Y-74375000D01*
X75251610Y-74364500D01*
X74451598Y-74364500D01*
X74451580Y-74364501D01*
X74348803Y-74375000D01*
X74348800Y-74375001D01*
X74182268Y-74430185D01*
X74182263Y-74430187D01*
X74032942Y-74522289D01*
X73939281Y-74615951D01*
X73877958Y-74649436D01*
X73808266Y-74644452D01*
X73763919Y-74615951D01*
X73670257Y-74522289D01*
X73670256Y-74522288D01*
X73520934Y-74430186D01*
X73520932Y-74430185D01*
X73514787Y-74426395D01*
X73515890Y-74424605D01*
X73510669Y-74420006D01*
X73494897Y-74412804D01*
X73484994Y-74397395D01*
X73471249Y-74385290D01*
X73466365Y-74368407D01*
X73457123Y-74354026D01*
X73452100Y-74319091D01*
X73452100Y-74087097D01*
X73471785Y-74020058D01*
X73488419Y-73999416D01*
X76879835Y-70608001D01*
X87807704Y-70608001D01*
X87807899Y-70610486D01*
X87853718Y-70768198D01*
X87937314Y-70909552D01*
X87937321Y-70909561D01*
X88053438Y-71025678D01*
X88053447Y-71025685D01*
X88194803Y-71109282D01*
X88194806Y-71109283D01*
X88352504Y-71155099D01*
X88352510Y-71155100D01*
X88389350Y-71157999D01*
X88389366Y-71158000D01*
X89080000Y-71158000D01*
X89580000Y-71158000D01*
X90270634Y-71158000D01*
X90270649Y-71157999D01*
X90307489Y-71155100D01*
X90307495Y-71155099D01*
X90465193Y-71109283D01*
X90465196Y-71109282D01*
X90606552Y-71025685D01*
X90606561Y-71025678D01*
X90722678Y-70909561D01*
X90722685Y-70909552D01*
X90806281Y-70768198D01*
X90852100Y-70610486D01*
X90852295Y-70608001D01*
X90852295Y-70608000D01*
X89580000Y-70608000D01*
X89580000Y-71158000D01*
X89080000Y-71158000D01*
X89080000Y-70608000D01*
X87807705Y-70608000D01*
X87807704Y-70608001D01*
X76879835Y-70608001D01*
X77011861Y-70475975D01*
X77763017Y-69724819D01*
X77824340Y-69691334D01*
X77850698Y-69688500D01*
X82216943Y-69688500D01*
X82597943Y-69688500D01*
X87789674Y-69688500D01*
X87856713Y-69708185D01*
X87902468Y-69760989D01*
X87912412Y-69830147D01*
X87896406Y-69875621D01*
X87853718Y-69947801D01*
X87807899Y-70105513D01*
X87807704Y-70107998D01*
X87807705Y-70108000D01*
X90852295Y-70108000D01*
X90852295Y-70107998D01*
X90852100Y-70105513D01*
X90806281Y-69947801D01*
X90722685Y-69806447D01*
X90717900Y-69800278D01*
X90720366Y-69798364D01*
X90693802Y-69749776D01*
X90698749Y-69680082D01*
X90708622Y-69659560D01*
X90716474Y-69646471D01*
X90723081Y-69639865D01*
X90806744Y-69498398D01*
X90808089Y-69493766D01*
X90814665Y-69482806D01*
X90821143Y-69476832D01*
X90833321Y-69458913D01*
X90835519Y-69456716D01*
X90835519Y-69456714D01*
X90845720Y-69446515D01*
X90845727Y-69446505D01*
X91798506Y-68493727D01*
X91798511Y-68493723D01*
X91808714Y-68483519D01*
X91808716Y-68483519D01*
X91920520Y-68371715D01*
X91972867Y-68281047D01*
X91999577Y-68234784D01*
X92040500Y-68082056D01*
X92040500Y-67923942D01*
X92040500Y-62473944D01*
X92013640Y-62373700D01*
X91999577Y-62321216D01*
X91952984Y-62240515D01*
X91924497Y-62191173D01*
X91920522Y-62184288D01*
X91920521Y-62184287D01*
X91920520Y-62184285D01*
X91808716Y-62072481D01*
X91808715Y-62072480D01*
X91804385Y-62068150D01*
X91804374Y-62068140D01*
X90842589Y-61106355D01*
X90835520Y-61099286D01*
X90835519Y-61099284D01*
X90833309Y-61097074D01*
X90833301Y-61097059D01*
X90810955Y-61064175D01*
X90810716Y-61064317D01*
X90808460Y-61060503D01*
X90807189Y-61058632D01*
X90806745Y-61057606D01*
X90806744Y-61057602D01*
X90757488Y-60974315D01*
X90723083Y-60916138D01*
X90723076Y-60916129D01*
X90606870Y-60799923D01*
X90606862Y-60799917D01*
X90520454Y-60748816D01*
X90465398Y-60716256D01*
X90465397Y-60716255D01*
X90465396Y-60716255D01*
X90465393Y-60716254D01*
X90324027Y-60675183D01*
X90265141Y-60637577D01*
X90235935Y-60574104D01*
X90245681Y-60504918D01*
X90270936Y-60468431D01*
X90359712Y-60379656D01*
X90451814Y-60230334D01*
X90506999Y-60063797D01*
X90517500Y-59961009D01*
X90517499Y-59248595D01*
X90537183Y-59181557D01*
X90553813Y-59160920D01*
X90743316Y-58971417D01*
X90768989Y-58951717D01*
X90792716Y-58938020D01*
X90904520Y-58826216D01*
X90983577Y-58689284D01*
X91024500Y-58536557D01*
X91024500Y-55983136D01*
X91044185Y-55916097D01*
X91096989Y-55870342D01*
X91166147Y-55860398D01*
X91186806Y-55865202D01*
X91377757Y-55927246D01*
X91587713Y-55960500D01*
X91587714Y-55960500D01*
X91800286Y-55960500D01*
X91800287Y-55960500D01*
X92010243Y-55927246D01*
X92212412Y-55861557D01*
X92401816Y-55765051D01*
X92470691Y-55715011D01*
X92573786Y-55640109D01*
X92573788Y-55640106D01*
X92573792Y-55640104D01*
X92724104Y-55489792D01*
X92724106Y-55489788D01*
X92724109Y-55489786D01*
X92849048Y-55317820D01*
X92849047Y-55317820D01*
X92849051Y-55317816D01*
X92853514Y-55309054D01*
X92901488Y-55258259D01*
X92969308Y-55241463D01*
X93035444Y-55263999D01*
X93074486Y-55309056D01*
X93078951Y-55317820D01*
X93203890Y-55489786D01*
X93354213Y-55640109D01*
X93526179Y-55765048D01*
X93526181Y-55765049D01*
X93526184Y-55765051D01*
X93715588Y-55861557D01*
X93917757Y-55927246D01*
X94127713Y-55960500D01*
X94127714Y-55960500D01*
X94340286Y-55960500D01*
X94340287Y-55960500D01*
X94550243Y-55927246D01*
X94752412Y-55861557D01*
X94941816Y-55765051D01*
X95010691Y-55715011D01*
X95113786Y-55640109D01*
X95113788Y-55640106D01*
X95113792Y-55640104D01*
X95264104Y-55489792D01*
X95264106Y-55489788D01*
X95264109Y-55489786D01*
X95389048Y-55317820D01*
X95389047Y-55317820D01*
X95389051Y-55317816D01*
X95393514Y-55309054D01*
X95441488Y-55258259D01*
X95509308Y-55241463D01*
X95575444Y-55263999D01*
G37*
G04 #@! TD.AperFunction*
G04 #@! TA.AperFunction,Conductor*
G36*
X138270535Y-77565212D02*
G01*
X138326468Y-77607084D01*
X138350885Y-77672548D01*
X138344243Y-77722347D01*
X138333120Y-77754136D01*
X138333117Y-77754144D01*
X138267311Y-78042461D01*
X138267308Y-78042475D01*
X138234200Y-78336327D01*
X138234200Y-78632072D01*
X138267308Y-78925924D01*
X138267311Y-78925938D01*
X138333117Y-79214253D01*
X138430794Y-79493400D01*
X138559101Y-79759833D01*
X138716442Y-80010240D01*
X138836748Y-80161097D01*
X139555049Y-79442795D01*
X139627719Y-79542817D01*
X139808583Y-79723681D01*
X139908602Y-79796349D01*
X139190301Y-80514650D01*
X139341159Y-80634957D01*
X139539696Y-80759706D01*
X139585987Y-80812041D01*
X139596635Y-80881094D01*
X139568260Y-80944943D01*
X139509870Y-80983315D01*
X139473724Y-80988700D01*
X135028557Y-80988700D01*
X134961518Y-80969015D01*
X134915763Y-80916211D01*
X134905819Y-80847053D01*
X134934844Y-80783497D01*
X134945115Y-80772975D01*
X134954992Y-80763989D01*
X134988716Y-80744520D01*
X135100520Y-80632716D01*
X135100521Y-80632713D01*
X138139523Y-77593711D01*
X138200843Y-77560228D01*
X138270535Y-77565212D01*
G37*
G04 #@! TD.AperFunction*
G04 #@! TA.AperFunction,Conductor*
G36*
X100429270Y-78231717D02*
G01*
X100429270Y-78231716D01*
X100468622Y-78177555D01*
X100473232Y-78168507D01*
X100521205Y-78117709D01*
X100589025Y-78100912D01*
X100655161Y-78123447D01*
X100694204Y-78168504D01*
X100698949Y-78177817D01*
X100823890Y-78349786D01*
X100974213Y-78500109D01*
X101146179Y-78625048D01*
X101146181Y-78625049D01*
X101146184Y-78625051D01*
X101335588Y-78721557D01*
X101537757Y-78787246D01*
X101747713Y-78820500D01*
X101747714Y-78820500D01*
X101960286Y-78820500D01*
X101960287Y-78820500D01*
X102170243Y-78787246D01*
X102372412Y-78721557D01*
X102561816Y-78625051D01*
X102648138Y-78562335D01*
X102733786Y-78500109D01*
X102733788Y-78500106D01*
X102733792Y-78500104D01*
X102884104Y-78349792D01*
X102884106Y-78349788D01*
X102884109Y-78349786D01*
X103009048Y-78177820D01*
X103009047Y-78177820D01*
X103009051Y-78177816D01*
X103013514Y-78169054D01*
X103061488Y-78118259D01*
X103129308Y-78101463D01*
X103195444Y-78123999D01*
X103234486Y-78169056D01*
X103238951Y-78177820D01*
X103363890Y-78349786D01*
X103514213Y-78500109D01*
X103686184Y-78625051D01*
X103686184Y-78625052D01*
X103725793Y-78645233D01*
X103776590Y-78693206D01*
X103793500Y-78755718D01*
X103793500Y-79422939D01*
X103793499Y-79422943D01*
X103793499Y-79493400D01*
X103793499Y-79539501D01*
X103773814Y-79606540D01*
X103721010Y-79652295D01*
X103720996Y-79652296D01*
X103669499Y-79663500D01*
X95296098Y-79663500D01*
X95229059Y-79643815D01*
X95208417Y-79627181D01*
X94870819Y-79289583D01*
X94837334Y-79228260D01*
X94834500Y-79201902D01*
X94834500Y-78755718D01*
X94854185Y-78688679D01*
X94902207Y-78645233D01*
X94941815Y-78625052D01*
X94941815Y-78625051D01*
X94941816Y-78625051D01*
X95083550Y-78522076D01*
X95113786Y-78500109D01*
X95113788Y-78500106D01*
X95113792Y-78500104D01*
X95264104Y-78349792D01*
X95264106Y-78349788D01*
X95264109Y-78349786D01*
X95349890Y-78231717D01*
X95389051Y-78177816D01*
X95393793Y-78168508D01*
X95441763Y-78117711D01*
X95509583Y-78100911D01*
X95575719Y-78123445D01*
X95614763Y-78168500D01*
X95619373Y-78177547D01*
X95658728Y-78231716D01*
X96291037Y-77599408D01*
X96308075Y-77662993D01*
X96373901Y-77777007D01*
X96466993Y-77870099D01*
X96581007Y-77935925D01*
X96644590Y-77952962D01*
X96012282Y-78585269D01*
X96012282Y-78585270D01*
X96066449Y-78624624D01*
X96255782Y-78721095D01*
X96457870Y-78786757D01*
X96667754Y-78820000D01*
X96880246Y-78820000D01*
X97090127Y-78786757D01*
X97090130Y-78786757D01*
X97292217Y-78721095D01*
X97481554Y-78624622D01*
X97535716Y-78585270D01*
X97535717Y-78585270D01*
X96903408Y-77952962D01*
X96966993Y-77935925D01*
X97081007Y-77870099D01*
X97174099Y-77777007D01*
X97239925Y-77662993D01*
X97256962Y-77599408D01*
X97889270Y-78231717D01*
X97889270Y-78231716D01*
X97928622Y-78177554D01*
X97933514Y-78167954D01*
X97981488Y-78117157D01*
X98049308Y-78100361D01*
X98115444Y-78122897D01*
X98154486Y-78167954D01*
X98159375Y-78177550D01*
X98198728Y-78231716D01*
X98831037Y-77599408D01*
X98848075Y-77662993D01*
X98913901Y-77777007D01*
X99006993Y-77870099D01*
X99121007Y-77935925D01*
X99184590Y-77952962D01*
X98552282Y-78585269D01*
X98552282Y-78585270D01*
X98606449Y-78624624D01*
X98795782Y-78721095D01*
X98997870Y-78786757D01*
X99207754Y-78820000D01*
X99420246Y-78820000D01*
X99630127Y-78786757D01*
X99630130Y-78786757D01*
X99832217Y-78721095D01*
X100021554Y-78624622D01*
X100075716Y-78585270D01*
X100075717Y-78585270D01*
X99443408Y-77952962D01*
X99506993Y-77935925D01*
X99621007Y-77870099D01*
X99714099Y-77777007D01*
X99779925Y-77662993D01*
X99796962Y-77599408D01*
X100429270Y-78231717D01*
G37*
G04 #@! TD.AperFunction*
G04 #@! TA.AperFunction,Conductor*
G36*
X108049270Y-78231717D02*
G01*
X108049270Y-78231716D01*
X108088622Y-78177555D01*
X108093232Y-78168507D01*
X108141205Y-78117709D01*
X108209025Y-78100912D01*
X108275161Y-78123447D01*
X108314204Y-78168504D01*
X108318949Y-78177817D01*
X108443890Y-78349786D01*
X108594213Y-78500109D01*
X108766179Y-78625048D01*
X108766181Y-78625049D01*
X108766184Y-78625051D01*
X108955588Y-78721557D01*
X109157757Y-78787246D01*
X109367713Y-78820500D01*
X109367714Y-78820500D01*
X109580286Y-78820500D01*
X109580287Y-78820500D01*
X109790243Y-78787246D01*
X109992412Y-78721557D01*
X110181816Y-78625051D01*
X110268138Y-78562335D01*
X110353786Y-78500109D01*
X110353788Y-78500106D01*
X110353792Y-78500104D01*
X110504104Y-78349792D01*
X110504106Y-78349788D01*
X110504109Y-78349786D01*
X110629048Y-78177820D01*
X110629047Y-78177820D01*
X110629051Y-78177816D01*
X110633514Y-78169054D01*
X110681488Y-78118259D01*
X110749308Y-78101463D01*
X110815444Y-78123999D01*
X110854486Y-78169056D01*
X110858951Y-78177820D01*
X110983890Y-78349786D01*
X111134213Y-78500109D01*
X111306179Y-78625048D01*
X111306181Y-78625049D01*
X111306184Y-78625051D01*
X111495588Y-78721557D01*
X111697757Y-78787246D01*
X111907713Y-78820500D01*
X111907714Y-78820500D01*
X112120286Y-78820500D01*
X112120287Y-78820500D01*
X112330243Y-78787246D01*
X112532412Y-78721557D01*
X112721816Y-78625051D01*
X112808138Y-78562335D01*
X112893786Y-78500109D01*
X112893788Y-78500106D01*
X112893792Y-78500104D01*
X113044104Y-78349792D01*
X113044106Y-78349788D01*
X113044109Y-78349786D01*
X113169048Y-78177820D01*
X113169047Y-78177820D01*
X113169051Y-78177816D01*
X113173514Y-78169054D01*
X113221488Y-78118259D01*
X113289308Y-78101463D01*
X113355444Y-78123999D01*
X113394486Y-78169056D01*
X113398951Y-78177820D01*
X113523890Y-78349786D01*
X113674213Y-78500109D01*
X113846179Y-78625048D01*
X113846181Y-78625049D01*
X113846184Y-78625051D01*
X114035588Y-78721557D01*
X114237757Y-78787246D01*
X114447713Y-78820500D01*
X114447714Y-78820500D01*
X114660286Y-78820500D01*
X114660287Y-78820500D01*
X114870243Y-78787246D01*
X115072412Y-78721557D01*
X115261816Y-78625051D01*
X115371233Y-78545555D01*
X115437038Y-78522076D01*
X115505092Y-78537901D01*
X115531798Y-78558193D01*
X115917424Y-78943819D01*
X115950909Y-79005142D01*
X115945925Y-79074834D01*
X115904053Y-79130767D01*
X115838589Y-79155184D01*
X115829743Y-79155500D01*
X105118500Y-79155500D01*
X105051461Y-79135815D01*
X105005706Y-79083011D01*
X104994500Y-79031500D01*
X104994500Y-78755718D01*
X105014185Y-78688679D01*
X105062207Y-78645233D01*
X105101815Y-78625052D01*
X105101815Y-78625051D01*
X105101816Y-78625051D01*
X105243550Y-78522076D01*
X105273786Y-78500109D01*
X105273788Y-78500106D01*
X105273792Y-78500104D01*
X105424104Y-78349792D01*
X105424106Y-78349788D01*
X105424109Y-78349786D01*
X105509890Y-78231717D01*
X105549051Y-78177816D01*
X105553793Y-78168508D01*
X105601763Y-78117711D01*
X105669583Y-78100911D01*
X105735719Y-78123445D01*
X105774763Y-78168500D01*
X105779373Y-78177547D01*
X105818728Y-78231716D01*
X106451037Y-77599408D01*
X106468075Y-77662993D01*
X106533901Y-77777007D01*
X106626993Y-77870099D01*
X106741007Y-77935925D01*
X106804590Y-77952962D01*
X106172282Y-78585269D01*
X106172282Y-78585270D01*
X106226449Y-78624624D01*
X106415782Y-78721095D01*
X106617870Y-78786757D01*
X106827754Y-78820000D01*
X107040246Y-78820000D01*
X107250127Y-78786757D01*
X107250130Y-78786757D01*
X107452217Y-78721095D01*
X107641554Y-78624622D01*
X107695716Y-78585270D01*
X107695717Y-78585270D01*
X107063408Y-77952962D01*
X107126993Y-77935925D01*
X107241007Y-77870099D01*
X107334099Y-77777007D01*
X107399925Y-77662993D01*
X107416962Y-77599408D01*
X108049270Y-78231717D01*
G37*
G04 #@! TD.AperFunction*
G04 #@! TA.AperFunction,Conductor*
G36*
X89074943Y-75784501D02*
G01*
X89233057Y-75784501D01*
X89233061Y-75784500D01*
X101129500Y-75784500D01*
X101196539Y-75804185D01*
X101242294Y-75856989D01*
X101253500Y-75908500D01*
X101253500Y-76184281D01*
X101233815Y-76251320D01*
X101185795Y-76294765D01*
X101146185Y-76314947D01*
X101146184Y-76314948D01*
X100974213Y-76439890D01*
X100823890Y-76590213D01*
X100698949Y-76762182D01*
X100694202Y-76771499D01*
X100646227Y-76822293D01*
X100578405Y-76839087D01*
X100512271Y-76816548D01*
X100473234Y-76771495D01*
X100468626Y-76762452D01*
X100429270Y-76708282D01*
X99796962Y-77340590D01*
X99779925Y-77277007D01*
X99714099Y-77162993D01*
X99621007Y-77069901D01*
X99506993Y-77004075D01*
X99443409Y-76987037D01*
X100075716Y-76354728D01*
X100021550Y-76315375D01*
X99832217Y-76218904D01*
X99630129Y-76153242D01*
X99420246Y-76120000D01*
X99207754Y-76120000D01*
X98997872Y-76153242D01*
X98997869Y-76153242D01*
X98795782Y-76218904D01*
X98606439Y-76315380D01*
X98552282Y-76354727D01*
X98552282Y-76354728D01*
X99184591Y-76987037D01*
X99121007Y-77004075D01*
X99006993Y-77069901D01*
X98913901Y-77162993D01*
X98848075Y-77277007D01*
X98831037Y-77340591D01*
X98198728Y-76708282D01*
X98198727Y-76708282D01*
X98159380Y-76762440D01*
X98154483Y-76772051D01*
X98106506Y-76822845D01*
X98038684Y-76839638D01*
X97972550Y-76817098D01*
X97933516Y-76772048D01*
X97928626Y-76762452D01*
X97889270Y-76708282D01*
X97889269Y-76708282D01*
X97256962Y-77340590D01*
X97239925Y-77277007D01*
X97174099Y-77162993D01*
X97081007Y-77069901D01*
X96966993Y-77004075D01*
X96903409Y-76987037D01*
X97535716Y-76354728D01*
X97481550Y-76315375D01*
X97292217Y-76218904D01*
X97090129Y-76153242D01*
X96880246Y-76120000D01*
X96667754Y-76120000D01*
X96457872Y-76153242D01*
X96457869Y-76153242D01*
X96255782Y-76218904D01*
X96066439Y-76315380D01*
X96012282Y-76354727D01*
X96012282Y-76354728D01*
X96644591Y-76987037D01*
X96581007Y-77004075D01*
X96466993Y-77069901D01*
X96373901Y-77162993D01*
X96308075Y-77277007D01*
X96291037Y-77340591D01*
X95658728Y-76708282D01*
X95658727Y-76708282D01*
X95619380Y-76762440D01*
X95619376Y-76762446D01*
X95614760Y-76771505D01*
X95566781Y-76822297D01*
X95498959Y-76839087D01*
X95432826Y-76816543D01*
X95393794Y-76771493D01*
X95389051Y-76762184D01*
X95389049Y-76762181D01*
X95389048Y-76762179D01*
X95264109Y-76590213D01*
X95113786Y-76439890D01*
X94941820Y-76314951D01*
X94752414Y-76218444D01*
X94752413Y-76218443D01*
X94752412Y-76218443D01*
X94550243Y-76152754D01*
X94550241Y-76152753D01*
X94550240Y-76152753D01*
X94388957Y-76127208D01*
X94340287Y-76119500D01*
X94127713Y-76119500D01*
X94079042Y-76127208D01*
X93917760Y-76152753D01*
X93715585Y-76218444D01*
X93526179Y-76314951D01*
X93354213Y-76439890D01*
X93203890Y-76590213D01*
X93078949Y-76762182D01*
X93074484Y-76770946D01*
X93026509Y-76821742D01*
X92958688Y-76838536D01*
X92892553Y-76815998D01*
X92853516Y-76770946D01*
X92849050Y-76762182D01*
X92724109Y-76590213D01*
X92573786Y-76439890D01*
X92401820Y-76314951D01*
X92212414Y-76218444D01*
X92212413Y-76218443D01*
X92212412Y-76218443D01*
X92010243Y-76152754D01*
X92010241Y-76152753D01*
X92010240Y-76152753D01*
X91848957Y-76127208D01*
X91800287Y-76119500D01*
X91587713Y-76119500D01*
X91539042Y-76127208D01*
X91377760Y-76152753D01*
X91175585Y-76218444D01*
X90986179Y-76314951D01*
X90814213Y-76439890D01*
X90663890Y-76590213D01*
X90538949Y-76762182D01*
X90534484Y-76770946D01*
X90486509Y-76821742D01*
X90418688Y-76838536D01*
X90352553Y-76815998D01*
X90313516Y-76770946D01*
X90309050Y-76762182D01*
X90184109Y-76590213D01*
X90033786Y-76439890D01*
X89861820Y-76314951D01*
X89672414Y-76218444D01*
X89672413Y-76218443D01*
X89672412Y-76218443D01*
X89470243Y-76152754D01*
X89470241Y-76152753D01*
X89470240Y-76152753D01*
X89308957Y-76127208D01*
X89260287Y-76119500D01*
X89047713Y-76119500D01*
X88999042Y-76127208D01*
X88837760Y-76152753D01*
X88635585Y-76218444D01*
X88446179Y-76314951D01*
X88274213Y-76439890D01*
X88123890Y-76590213D01*
X87998949Y-76762182D01*
X87994484Y-76770946D01*
X87946509Y-76821742D01*
X87878688Y-76838536D01*
X87812553Y-76815998D01*
X87773516Y-76770946D01*
X87769050Y-76762182D01*
X87644109Y-76590213D01*
X87493786Y-76439890D01*
X87321820Y-76314951D01*
X87132414Y-76218444D01*
X87132413Y-76218443D01*
X87132412Y-76218443D01*
X86930243Y-76152754D01*
X86930241Y-76152753D01*
X86930240Y-76152753D01*
X86768957Y-76127208D01*
X86720287Y-76119500D01*
X86507713Y-76119500D01*
X86459042Y-76127208D01*
X86297760Y-76152753D01*
X86095585Y-76218444D01*
X85906179Y-76314951D01*
X85734213Y-76439890D01*
X85583890Y-76590213D01*
X85458949Y-76762182D01*
X85454484Y-76770946D01*
X85406509Y-76821742D01*
X85338688Y-76838536D01*
X85272553Y-76815998D01*
X85233516Y-76770946D01*
X85229050Y-76762182D01*
X85104109Y-76590213D01*
X84953786Y-76439890D01*
X84781820Y-76314951D01*
X84592414Y-76218444D01*
X84592413Y-76218443D01*
X84592412Y-76218443D01*
X84390243Y-76152754D01*
X84390241Y-76152753D01*
X84390240Y-76152753D01*
X84228957Y-76127208D01*
X84180287Y-76119500D01*
X83967713Y-76119500D01*
X83919042Y-76127208D01*
X83757760Y-76152753D01*
X83555585Y-76218444D01*
X83366179Y-76314951D01*
X83194215Y-76439889D01*
X83080673Y-76553431D01*
X83019350Y-76586915D01*
X82949658Y-76581931D01*
X82893725Y-76540059D01*
X82876810Y-76509082D01*
X82827797Y-76377671D01*
X82827793Y-76377664D01*
X82741547Y-76262455D01*
X82741544Y-76262452D01*
X82626335Y-76176206D01*
X82626328Y-76176202D01*
X82491482Y-76125908D01*
X82491483Y-76125908D01*
X82431883Y-76119501D01*
X82431881Y-76119500D01*
X82431873Y-76119500D01*
X82431865Y-76119500D01*
X82258500Y-76119500D01*
X82191461Y-76099815D01*
X82145706Y-76047011D01*
X82134500Y-75995500D01*
X82134500Y-75992097D01*
X82154185Y-75925058D01*
X82170819Y-75904416D01*
X82254416Y-75820819D01*
X82315739Y-75787334D01*
X82342097Y-75784500D01*
X89074939Y-75784500D01*
X89074943Y-75784501D01*
G37*
G04 #@! TD.AperFunction*
G04 #@! TA.AperFunction,Conductor*
G36*
X105416139Y-75042185D02*
G01*
X105461894Y-75094989D01*
X105473100Y-75146500D01*
X105473100Y-75262846D01*
X105503861Y-75417489D01*
X105503864Y-75417501D01*
X105564202Y-75563172D01*
X105564209Y-75563185D01*
X105651810Y-75694288D01*
X105651813Y-75694292D01*
X105763307Y-75805786D01*
X105763311Y-75805789D01*
X105894414Y-75893390D01*
X105894427Y-75893397D01*
X106017042Y-75944185D01*
X106040103Y-75953737D01*
X106194753Y-75984499D01*
X106194756Y-75984500D01*
X106358534Y-75984500D01*
X106358534Y-75987138D01*
X106415914Y-75997968D01*
X106466667Y-76045987D01*
X106483401Y-76113823D01*
X106460805Y-76179938D01*
X106415816Y-76218886D01*
X106226443Y-76315378D01*
X106226440Y-76315380D01*
X106172282Y-76354727D01*
X106172282Y-76354728D01*
X106804591Y-76987037D01*
X106741007Y-77004075D01*
X106626993Y-77069901D01*
X106533901Y-77162993D01*
X106468075Y-77277007D01*
X106451037Y-77340591D01*
X105818728Y-76708282D01*
X105818727Y-76708282D01*
X105779380Y-76762440D01*
X105779376Y-76762446D01*
X105774760Y-76771505D01*
X105726781Y-76822297D01*
X105658959Y-76839087D01*
X105592826Y-76816543D01*
X105553794Y-76771493D01*
X105549051Y-76762184D01*
X105549049Y-76762181D01*
X105549048Y-76762179D01*
X105424109Y-76590213D01*
X105273786Y-76439890D01*
X105101820Y-76314951D01*
X104912414Y-76218444D01*
X104912413Y-76218443D01*
X104912412Y-76218443D01*
X104710243Y-76152754D01*
X104710241Y-76152753D01*
X104710240Y-76152753D01*
X104548957Y-76127208D01*
X104500287Y-76119500D01*
X104287713Y-76119500D01*
X104239042Y-76127208D01*
X104077760Y-76152753D01*
X103875585Y-76218444D01*
X103686179Y-76314951D01*
X103514213Y-76439890D01*
X103363890Y-76590213D01*
X103238949Y-76762182D01*
X103234484Y-76770946D01*
X103186509Y-76821742D01*
X103118688Y-76838536D01*
X103052553Y-76815998D01*
X103013516Y-76770946D01*
X103009050Y-76762182D01*
X102884109Y-76590213D01*
X102733786Y-76439890D01*
X102561815Y-76314948D01*
X102561814Y-76314947D01*
X102522205Y-76294765D01*
X102471409Y-76246791D01*
X102454500Y-76184281D01*
X102454500Y-75738097D01*
X102474185Y-75671058D01*
X102490819Y-75650416D01*
X103082416Y-75058819D01*
X103143739Y-75025334D01*
X103170097Y-75022500D01*
X105349100Y-75022500D01*
X105416139Y-75042185D01*
G37*
G04 #@! TD.AperFunction*
G04 #@! TA.AperFunction,Conductor*
G36*
X105091302Y-67168185D02*
G01*
X105111944Y-67184819D01*
X113987762Y-76060637D01*
X114021247Y-76121960D01*
X114016263Y-76191652D01*
X113974391Y-76247585D01*
X113956376Y-76258803D01*
X113846180Y-76314951D01*
X113674213Y-76439890D01*
X113523890Y-76590213D01*
X113398949Y-76762182D01*
X113394484Y-76770946D01*
X113346509Y-76821742D01*
X113278688Y-76838536D01*
X113212553Y-76815998D01*
X113173516Y-76770946D01*
X113169050Y-76762182D01*
X113044109Y-76590213D01*
X112893786Y-76439890D01*
X112721820Y-76314951D01*
X112532414Y-76218444D01*
X112532413Y-76218443D01*
X112532412Y-76218443D01*
X112330243Y-76152754D01*
X112330241Y-76152753D01*
X112330240Y-76152753D01*
X112168957Y-76127208D01*
X112120287Y-76119500D01*
X111907713Y-76119500D01*
X111859042Y-76127208D01*
X111697760Y-76152753D01*
X111495585Y-76218444D01*
X111306179Y-76314951D01*
X111134213Y-76439890D01*
X110983890Y-76590213D01*
X110858949Y-76762182D01*
X110854484Y-76770946D01*
X110806509Y-76821742D01*
X110738688Y-76838536D01*
X110672553Y-76815998D01*
X110633516Y-76770946D01*
X110629050Y-76762182D01*
X110504109Y-76590213D01*
X110353786Y-76439890D01*
X110181820Y-76314951D01*
X109992414Y-76218444D01*
X109992413Y-76218443D01*
X109992412Y-76218443D01*
X109790243Y-76152754D01*
X109790241Y-76152753D01*
X109790240Y-76152753D01*
X109628957Y-76127208D01*
X109580287Y-76119500D01*
X109367713Y-76119500D01*
X109339006Y-76124046D01*
X109157757Y-76152753D01*
X109115473Y-76166492D01*
X109045632Y-76168486D01*
X108989476Y-76136241D01*
X108087416Y-75234181D01*
X108053931Y-75172858D01*
X108058915Y-75103166D01*
X108100787Y-75047233D01*
X108166251Y-75022816D01*
X108175097Y-75022500D01*
X110164234Y-75022500D01*
X110231273Y-75042185D01*
X110233125Y-75043398D01*
X110364814Y-75131390D01*
X110364827Y-75131397D01*
X110496220Y-75185821D01*
X110510503Y-75191737D01*
X110665153Y-75222499D01*
X110665156Y-75222500D01*
X110665158Y-75222500D01*
X110822844Y-75222500D01*
X110822845Y-75222499D01*
X110977497Y-75191737D01*
X111123179Y-75131394D01*
X111254289Y-75043789D01*
X111365789Y-74932289D01*
X111453394Y-74801179D01*
X111455845Y-74795263D01*
X111489298Y-74714499D01*
X111513737Y-74655497D01*
X111544500Y-74500842D01*
X111544500Y-74343158D01*
X111544500Y-74343155D01*
X111544499Y-74343153D01*
X111513738Y-74188510D01*
X111513737Y-74188503D01*
X111496752Y-74147497D01*
X111453397Y-74042827D01*
X111453390Y-74042814D01*
X111365789Y-73911711D01*
X111365786Y-73911707D01*
X111254292Y-73800213D01*
X111254288Y-73800210D01*
X111123185Y-73712609D01*
X111123172Y-73712602D01*
X110977501Y-73652264D01*
X110977489Y-73652261D01*
X110822845Y-73621500D01*
X110822842Y-73621500D01*
X110665158Y-73621500D01*
X110665155Y-73621500D01*
X110510510Y-73652261D01*
X110510498Y-73652264D01*
X110364827Y-73712602D01*
X110364814Y-73712609D01*
X110233125Y-73800602D01*
X110166447Y-73821480D01*
X110164234Y-73821500D01*
X102956669Y-73821500D01*
X102956653Y-73821499D01*
X102949057Y-73821499D01*
X102790943Y-73821499D01*
X102683587Y-73850265D01*
X102638210Y-73862424D01*
X102638209Y-73862425D01*
X102588096Y-73891359D01*
X102588095Y-73891360D01*
X102553312Y-73911442D01*
X102501285Y-73941479D01*
X102501282Y-73941481D01*
X102389478Y-74053286D01*
X101871805Y-74570958D01*
X101810482Y-74604443D01*
X101752031Y-74603052D01*
X101679057Y-74583499D01*
X101520943Y-74583499D01*
X101513347Y-74583499D01*
X101513331Y-74583500D01*
X90903097Y-74583500D01*
X90836058Y-74563815D01*
X90790303Y-74511011D01*
X90780359Y-74441853D01*
X90809384Y-74378297D01*
X90815416Y-74371819D01*
X94579234Y-70608001D01*
X97107704Y-70608001D01*
X97107899Y-70610486D01*
X97153718Y-70768198D01*
X97237314Y-70909552D01*
X97237321Y-70909561D01*
X97353438Y-71025678D01*
X97353447Y-71025685D01*
X97494803Y-71109282D01*
X97494806Y-71109283D01*
X97652504Y-71155099D01*
X97652510Y-71155100D01*
X97689350Y-71157999D01*
X97689366Y-71158000D01*
X98380000Y-71158000D01*
X98880000Y-71158000D01*
X99570634Y-71158000D01*
X99570649Y-71157999D01*
X99607489Y-71155100D01*
X99607495Y-71155099D01*
X99765193Y-71109283D01*
X99765196Y-71109282D01*
X99906552Y-71025685D01*
X99906561Y-71025678D01*
X100022678Y-70909561D01*
X100022685Y-70909552D01*
X100106281Y-70768198D01*
X100152100Y-70610486D01*
X100152295Y-70608001D01*
X100152295Y-70608000D01*
X98880000Y-70608000D01*
X98880000Y-71158000D01*
X98380000Y-71158000D01*
X98380000Y-70608000D01*
X97107705Y-70608000D01*
X97107704Y-70608001D01*
X94579234Y-70608001D01*
X96432319Y-68754916D01*
X96493642Y-68721431D01*
X96563334Y-68726415D01*
X96607681Y-68754916D01*
X97068181Y-69215416D01*
X97101666Y-69276739D01*
X97104303Y-69301267D01*
X97104309Y-69301267D01*
X97104309Y-69301269D01*
X97104405Y-69301266D01*
X97104463Y-69302758D01*
X97104500Y-69303097D01*
X97104500Y-69303701D01*
X97107401Y-69340567D01*
X97107402Y-69340573D01*
X97153254Y-69498393D01*
X97153255Y-69498396D01*
X97153256Y-69498398D01*
X97185350Y-69552666D01*
X97236917Y-69639862D01*
X97241702Y-69646031D01*
X97239369Y-69647840D01*
X97266210Y-69696995D01*
X97261226Y-69766687D01*
X97240470Y-69799021D01*
X97242097Y-69800283D01*
X97237313Y-69806449D01*
X97153718Y-69947801D01*
X97107899Y-70105513D01*
X97107704Y-70107998D01*
X97107705Y-70108000D01*
X100152295Y-70108000D01*
X100152295Y-70107998D01*
X100152100Y-70105513D01*
X100106281Y-69947801D01*
X100022685Y-69806447D01*
X100017900Y-69800278D01*
X100020366Y-69798364D01*
X99993802Y-69749776D01*
X99998749Y-69680082D01*
X100019856Y-69647232D01*
X100018301Y-69646026D01*
X100023077Y-69639868D01*
X100023081Y-69639865D01*
X100106744Y-69498398D01*
X100149804Y-69350185D01*
X100152597Y-69340573D01*
X100152598Y-69340567D01*
X100155500Y-69303694D01*
X100155500Y-68872306D01*
X100152598Y-68835431D01*
X100106744Y-68677602D01*
X100023081Y-68536135D01*
X100023078Y-68536132D01*
X100018298Y-68529969D01*
X100020750Y-68528066D01*
X99994155Y-68479421D01*
X99999104Y-68409726D01*
X100019940Y-68377304D01*
X100018298Y-68376031D01*
X100023075Y-68369870D01*
X100023081Y-68369865D01*
X100106744Y-68228398D01*
X100144056Y-68099970D01*
X100152597Y-68070573D01*
X100152598Y-68070567D01*
X100155499Y-68033701D01*
X100155500Y-68033694D01*
X100155500Y-67602306D01*
X100152598Y-67565431D01*
X100152182Y-67564000D01*
X100106745Y-67407606D01*
X100106744Y-67407602D01*
X100089927Y-67379166D01*
X100064175Y-67335620D01*
X100046992Y-67267896D01*
X100069152Y-67201634D01*
X100123619Y-67157871D01*
X100170907Y-67148500D01*
X105024263Y-67148500D01*
X105091302Y-67168185D01*
G37*
G04 #@! TD.AperFunction*
G04 #@! TA.AperFunction,Conductor*
G36*
X69487803Y-61112884D02*
G01*
X69494281Y-61118916D01*
X72747739Y-64372374D01*
X72747749Y-64372385D01*
X72752079Y-64376715D01*
X72752080Y-64376716D01*
X72863884Y-64488520D01*
X72863886Y-64488521D01*
X72863890Y-64488524D01*
X72968960Y-64549185D01*
X73000816Y-64567577D01*
X73093834Y-64592501D01*
X73153542Y-64608500D01*
X73153543Y-64608500D01*
X77018520Y-64608500D01*
X77085559Y-64628185D01*
X77131314Y-64680989D01*
X77141258Y-64750147D01*
X77112233Y-64813703D01*
X77106201Y-64820181D01*
X77017098Y-64909284D01*
X77017096Y-64909286D01*
X72957206Y-68969177D01*
X68903202Y-73023181D01*
X68841879Y-73056666D01*
X68815521Y-73059500D01*
X65592561Y-73059500D01*
X65525522Y-73039815D01*
X65479767Y-72987011D01*
X65469823Y-72917853D01*
X65498848Y-72854297D01*
X65557626Y-72816523D01*
X65573163Y-72813027D01*
X65698649Y-72793151D01*
X65902620Y-72726876D01*
X66093705Y-72629514D01*
X66150265Y-72588419D01*
X66150266Y-72588419D01*
X65570247Y-72008400D01*
X65601542Y-72000015D01*
X65732658Y-71924315D01*
X65839715Y-71817258D01*
X65915415Y-71686142D01*
X65923800Y-71654847D01*
X66503819Y-72234866D01*
X66503819Y-72234865D01*
X66544914Y-72178305D01*
X66642276Y-71987220D01*
X66708550Y-71783253D01*
X66714344Y-71746669D01*
X66744272Y-71683533D01*
X66803583Y-71646601D01*
X66873446Y-71647597D01*
X66880151Y-71649882D01*
X66949617Y-71675791D01*
X66949616Y-71675791D01*
X66956544Y-71676535D01*
X67009227Y-71682200D01*
X68829972Y-71682199D01*
X68889583Y-71675791D01*
X69024431Y-71625496D01*
X69139646Y-71539246D01*
X69225896Y-71424031D01*
X69276191Y-71289183D01*
X69282600Y-71229573D01*
X69282599Y-69408828D01*
X69276191Y-69349217D01*
X69267430Y-69325728D01*
X69225897Y-69214371D01*
X69225893Y-69214364D01*
X69139647Y-69099155D01*
X69034994Y-69020811D01*
X68993124Y-68964877D01*
X68988140Y-68895186D01*
X69008986Y-68848661D01*
X69085342Y-68743568D01*
X69182742Y-68552411D01*
X69249039Y-68348370D01*
X69256953Y-68298403D01*
X69282600Y-68136475D01*
X69282600Y-67921924D01*
X69249039Y-67710029D01*
X69206706Y-67579743D01*
X69182742Y-67505989D01*
X69182740Y-67505986D01*
X69182740Y-67505984D01*
X69118122Y-67379166D01*
X69085342Y-67314832D01*
X68959238Y-67141265D01*
X68807535Y-66989562D01*
X68807534Y-66989561D01*
X68807531Y-66989558D01*
X68800597Y-66984521D01*
X68757929Y-66929193D01*
X68751947Y-66859580D01*
X68784550Y-66797783D01*
X68800597Y-66783879D01*
X68807531Y-66778841D01*
X68807531Y-66778840D01*
X68807535Y-66778838D01*
X68959238Y-66627135D01*
X69085342Y-66453568D01*
X69182742Y-66262411D01*
X69249039Y-66058370D01*
X69282600Y-65846475D01*
X69282600Y-65631924D01*
X69249039Y-65420029D01*
X69199154Y-65266500D01*
X69182742Y-65215989D01*
X69182740Y-65215986D01*
X69182740Y-65215984D01*
X69085341Y-65024831D01*
X69062853Y-64993879D01*
X68959238Y-64851265D01*
X68807535Y-64699562D01*
X68807534Y-64699561D01*
X68807531Y-64699558D01*
X68800597Y-64694521D01*
X68757929Y-64639193D01*
X68751947Y-64569580D01*
X68784550Y-64507783D01*
X68800597Y-64493879D01*
X68807531Y-64488841D01*
X68807531Y-64488840D01*
X68807535Y-64488838D01*
X68959238Y-64337135D01*
X69085342Y-64163568D01*
X69182742Y-63972411D01*
X69249039Y-63768370D01*
X69255535Y-63727354D01*
X69282600Y-63556475D01*
X69282600Y-63341924D01*
X69249039Y-63130029D01*
X69199905Y-62978812D01*
X69182742Y-62925989D01*
X69182740Y-62925986D01*
X69182740Y-62925984D01*
X69120687Y-62804200D01*
X69085342Y-62734832D01*
X68959238Y-62561265D01*
X68807535Y-62409562D01*
X68807534Y-62409561D01*
X68807531Y-62409558D01*
X68800597Y-62404521D01*
X68757929Y-62349193D01*
X68751947Y-62279580D01*
X68784550Y-62217783D01*
X68800597Y-62203879D01*
X68807531Y-62198841D01*
X68807531Y-62198840D01*
X68807535Y-62198838D01*
X68959238Y-62047135D01*
X69085342Y-61873568D01*
X69182742Y-61682411D01*
X69249039Y-61478370D01*
X69254926Y-61441200D01*
X69282600Y-61266475D01*
X69282600Y-61206597D01*
X69302285Y-61139558D01*
X69355089Y-61093803D01*
X69424247Y-61083859D01*
X69487803Y-61112884D01*
G37*
G04 #@! TD.AperFunction*
G04 #@! TA.AperFunction,Conductor*
G36*
X66445078Y-70105746D02*
G01*
X66475934Y-70107953D01*
X66479374Y-70110528D01*
X66483631Y-70111122D01*
X66507101Y-70131285D01*
X66531867Y-70149825D01*
X66533368Y-70153851D01*
X66536629Y-70156652D01*
X66545472Y-70186303D01*
X66556284Y-70215289D01*
X66556578Y-70223538D01*
X66556599Y-70223607D01*
X66556583Y-70223662D01*
X66556600Y-70224135D01*
X66556600Y-70589390D01*
X66536915Y-70656429D01*
X66520281Y-70677071D01*
X65923800Y-71273552D01*
X65915415Y-71242258D01*
X65839715Y-71111142D01*
X65732658Y-71004085D01*
X65601542Y-70928385D01*
X65570244Y-70919999D01*
X66161415Y-70328829D01*
X66167029Y-70302107D01*
X66170729Y-70297461D01*
X66171684Y-70294158D01*
X66182635Y-70282512D01*
X66194683Y-70267387D01*
X66198880Y-70263718D01*
X66267535Y-70213838D01*
X66347864Y-70133508D01*
X66350999Y-70130769D01*
X66379089Y-70117795D01*
X66406242Y-70102969D01*
X66410528Y-70103275D01*
X66414431Y-70101473D01*
X66445078Y-70105746D01*
G37*
G04 #@! TD.AperFunction*
G04 #@! TA.AperFunction,Conductor*
G36*
X80320934Y-53198185D02*
G01*
X80366689Y-53250989D01*
X80376633Y-53320147D01*
X80347608Y-53383703D01*
X80328209Y-53401764D01*
X80326812Y-53402809D01*
X80326809Y-53402812D01*
X80240649Y-53517906D01*
X80240645Y-53517913D01*
X80190403Y-53652620D01*
X80190401Y-53652627D01*
X80184000Y-53712155D01*
X80184000Y-54360000D01*
X81100988Y-54360000D01*
X81068075Y-54417007D01*
X81034000Y-54544174D01*
X81034000Y-54675826D01*
X81068075Y-54802993D01*
X81100988Y-54860000D01*
X80184000Y-54860000D01*
X80184000Y-55507844D01*
X80190401Y-55567372D01*
X80190403Y-55567379D01*
X80240645Y-55702086D01*
X80240649Y-55702093D01*
X80326809Y-55817187D01*
X80326812Y-55817190D01*
X80441906Y-55903350D01*
X80441913Y-55903354D01*
X80576620Y-55953596D01*
X80576627Y-55953598D01*
X80636155Y-55959999D01*
X80636172Y-55960000D01*
X81284000Y-55960000D01*
X81284000Y-55043012D01*
X81341007Y-55075925D01*
X81468174Y-55110000D01*
X81599826Y-55110000D01*
X81726993Y-55075925D01*
X81784000Y-55043012D01*
X81784000Y-55960000D01*
X82431828Y-55960000D01*
X82431844Y-55959999D01*
X82491372Y-55953598D01*
X82491379Y-55953596D01*
X82626086Y-55903354D01*
X82626093Y-55903350D01*
X82741187Y-55817190D01*
X82741190Y-55817187D01*
X82827350Y-55702093D01*
X82827354Y-55702086D01*
X82876422Y-55570529D01*
X82918293Y-55514595D01*
X82983757Y-55490178D01*
X83052030Y-55505030D01*
X83080285Y-55526181D01*
X83194213Y-55640109D01*
X83366179Y-55765048D01*
X83366181Y-55765049D01*
X83366184Y-55765051D01*
X83555588Y-55861557D01*
X83757757Y-55927246D01*
X83967713Y-55960500D01*
X83967714Y-55960500D01*
X84180286Y-55960500D01*
X84180287Y-55960500D01*
X84390243Y-55927246D01*
X84592412Y-55861557D01*
X84781816Y-55765051D01*
X84850691Y-55715011D01*
X84953786Y-55640109D01*
X84953788Y-55640106D01*
X84953792Y-55640104D01*
X85104104Y-55489792D01*
X85104106Y-55489788D01*
X85104109Y-55489786D01*
X85229048Y-55317820D01*
X85229047Y-55317820D01*
X85229051Y-55317816D01*
X85233514Y-55309054D01*
X85281488Y-55258259D01*
X85349308Y-55241463D01*
X85415444Y-55263999D01*
X85454486Y-55309056D01*
X85458951Y-55317820D01*
X85583890Y-55489786D01*
X85734213Y-55640109D01*
X85906179Y-55765048D01*
X85906181Y-55765049D01*
X85906184Y-55765051D01*
X86095588Y-55861557D01*
X86297757Y-55927246D01*
X86507713Y-55960500D01*
X86507714Y-55960500D01*
X86720286Y-55960500D01*
X86720287Y-55960500D01*
X86930243Y-55927246D01*
X87132412Y-55861557D01*
X87321816Y-55765051D01*
X87390691Y-55715011D01*
X87493786Y-55640109D01*
X87493788Y-55640106D01*
X87493792Y-55640104D01*
X87644104Y-55489792D01*
X87644106Y-55489788D01*
X87644109Y-55489786D01*
X87769048Y-55317820D01*
X87769047Y-55317820D01*
X87769051Y-55317816D01*
X87773514Y-55309054D01*
X87821488Y-55258259D01*
X87889308Y-55241463D01*
X87955444Y-55263999D01*
X87994486Y-55309056D01*
X87998951Y-55317820D01*
X88123890Y-55489786D01*
X88274213Y-55640109D01*
X88446179Y-55765048D01*
X88446181Y-55765049D01*
X88446184Y-55765051D01*
X88635588Y-55861557D01*
X88837757Y-55927246D01*
X89047713Y-55960500D01*
X89047714Y-55960500D01*
X89260286Y-55960500D01*
X89260287Y-55960500D01*
X89470243Y-55927246D01*
X89661185Y-55865204D01*
X89731023Y-55863210D01*
X89790856Y-55899290D01*
X89821684Y-55961991D01*
X89823500Y-55983136D01*
X89823500Y-58086500D01*
X89803815Y-58153539D01*
X89751011Y-58199294D01*
X89699500Y-58210500D01*
X89041998Y-58210500D01*
X89041980Y-58210501D01*
X88939203Y-58221000D01*
X88939200Y-58221001D01*
X88772668Y-58276185D01*
X88772663Y-58276187D01*
X88623342Y-58368289D01*
X88499288Y-58492343D01*
X88499283Y-58492349D01*
X88497241Y-58495661D01*
X88495247Y-58497453D01*
X88494807Y-58498011D01*
X88494711Y-58497935D01*
X88445291Y-58542383D01*
X88376328Y-58553602D01*
X88312247Y-58525755D01*
X88286168Y-58495656D01*
X88284319Y-58492659D01*
X88284316Y-58492655D01*
X88160345Y-58368684D01*
X88011124Y-58276643D01*
X88011119Y-58276641D01*
X87844697Y-58221494D01*
X87844690Y-58221493D01*
X87741986Y-58211000D01*
X87604500Y-58211000D01*
X87604500Y-60660999D01*
X87741972Y-60660999D01*
X87741986Y-60660998D01*
X87844698Y-60650505D01*
X87883248Y-60637731D01*
X87953077Y-60635328D01*
X88013119Y-60671059D01*
X88044312Y-60733579D01*
X88036753Y-60803038D01*
X88009936Y-60843117D01*
X87936920Y-60916133D01*
X87936917Y-60916137D01*
X87853255Y-61057603D01*
X87853254Y-61057606D01*
X87807402Y-61215426D01*
X87807401Y-61215432D01*
X87804500Y-61252298D01*
X87804500Y-61683701D01*
X87807401Y-61720567D01*
X87807402Y-61720573D01*
X87853254Y-61878393D01*
X87853255Y-61878396D01*
X87936917Y-62019862D01*
X87941702Y-62026031D01*
X87939369Y-62027840D01*
X87966210Y-62076995D01*
X87961226Y-62146687D01*
X87940470Y-62179021D01*
X87942097Y-62180283D01*
X87937313Y-62186449D01*
X87853718Y-62327801D01*
X87807899Y-62485513D01*
X87807704Y-62487998D01*
X87807705Y-62488000D01*
X89206000Y-62488000D01*
X89214685Y-62490550D01*
X89223647Y-62489262D01*
X89247687Y-62500240D01*
X89273039Y-62507685D01*
X89278966Y-62514525D01*
X89287203Y-62518287D01*
X89301492Y-62540521D01*
X89318794Y-62560489D01*
X89321081Y-62571003D01*
X89324977Y-62577065D01*
X89330000Y-62612000D01*
X89330000Y-62682500D01*
X89310315Y-62749539D01*
X89257511Y-62795294D01*
X89206000Y-62806500D01*
X82470257Y-62806500D01*
X82403218Y-62786815D01*
X82382576Y-62770181D01*
X80302408Y-60690013D01*
X80268923Y-60628690D01*
X80272382Y-60563333D01*
X80310999Y-60446797D01*
X80321500Y-60344009D01*
X80321500Y-59960986D01*
X86267001Y-59960986D01*
X86277494Y-60063697D01*
X86332641Y-60230119D01*
X86332643Y-60230124D01*
X86424684Y-60379345D01*
X86548654Y-60503315D01*
X86697875Y-60595356D01*
X86697880Y-60595358D01*
X86864302Y-60650505D01*
X86864309Y-60650506D01*
X86967019Y-60660999D01*
X87104499Y-60660999D01*
X87104500Y-60660998D01*
X87104500Y-59686000D01*
X86267001Y-59686000D01*
X86267001Y-59960986D01*
X80321500Y-59960986D01*
X80321499Y-59543992D01*
X80310999Y-59441203D01*
X80255814Y-59274666D01*
X80163712Y-59125344D01*
X80039656Y-59001288D01*
X79893296Y-58911013D01*
X86267000Y-58911013D01*
X86267000Y-59186000D01*
X87104500Y-59186000D01*
X87104500Y-58211000D01*
X86967027Y-58211000D01*
X86967012Y-58211001D01*
X86864302Y-58221494D01*
X86697880Y-58276641D01*
X86697875Y-58276643D01*
X86548654Y-58368684D01*
X86424684Y-58492654D01*
X86332643Y-58641875D01*
X86332641Y-58641880D01*
X86277494Y-58808302D01*
X86277493Y-58808309D01*
X86267000Y-58911013D01*
X79893296Y-58911013D01*
X79893262Y-58910992D01*
X79890336Y-58909187D01*
X79890331Y-58909185D01*
X79888082Y-58908439D01*
X79806495Y-58881404D01*
X79749051Y-58841632D01*
X79722228Y-58777116D01*
X79721500Y-58763699D01*
X79721500Y-53497097D01*
X79741185Y-53430058D01*
X79757819Y-53409416D01*
X79952416Y-53214819D01*
X80013739Y-53181334D01*
X80040097Y-53178500D01*
X80253895Y-53178500D01*
X80320934Y-53198185D01*
G37*
G04 #@! TD.AperFunction*
G04 #@! TA.AperFunction,Conductor*
G36*
X142028822Y-61322269D02*
G01*
X142062307Y-61383592D01*
X142063614Y-61429348D01*
X142044200Y-61551924D01*
X142044200Y-61754265D01*
X142039104Y-61771619D01*
X142039027Y-61789706D01*
X142029464Y-61804446D01*
X142024515Y-61821304D01*
X142010847Y-61833147D01*
X142001003Y-61848323D01*
X141984987Y-61855554D01*
X141971711Y-61867059D01*
X141953809Y-61869632D01*
X141937324Y-61877077D01*
X141919943Y-61874502D01*
X141902553Y-61877003D01*
X141886100Y-61869489D01*
X141868208Y-61866839D01*
X141845282Y-61850848D01*
X141838997Y-61847978D01*
X141838599Y-61847631D01*
X141835464Y-61844891D01*
X141755135Y-61764562D01*
X141686486Y-61714686D01*
X141682283Y-61711012D01*
X141666396Y-61686060D01*
X141648333Y-61662634D01*
X141647384Y-61656197D01*
X141644759Y-61652074D01*
X141644787Y-61645341D01*
X141057846Y-61058400D01*
X141089142Y-61050015D01*
X141220258Y-60974315D01*
X141327315Y-60867258D01*
X141403015Y-60736142D01*
X141411400Y-60704846D01*
X142028822Y-61322269D01*
G37*
G04 #@! TD.AperFunction*
G04 #@! TA.AperFunction,Conductor*
G36*
X140331385Y-60736142D02*
G01*
X140407085Y-60867258D01*
X140514142Y-60974315D01*
X140645258Y-61050015D01*
X140676553Y-61058400D01*
X140085381Y-61649571D01*
X140079767Y-61676296D01*
X140076069Y-61680938D01*
X140075115Y-61684240D01*
X140064168Y-61695879D01*
X140052116Y-61711012D01*
X140047907Y-61714690D01*
X139979265Y-61764562D01*
X139898928Y-61844898D01*
X139895801Y-61847632D01*
X139867706Y-61860607D01*
X139840557Y-61875432D01*
X139836270Y-61875125D01*
X139832370Y-61876927D01*
X139801731Y-61872655D01*
X139770865Y-61870448D01*
X139767424Y-61867872D01*
X139763169Y-61867279D01*
X139739700Y-61847118D01*
X139714932Y-61828576D01*
X139713430Y-61824550D01*
X139710171Y-61821750D01*
X139701327Y-61792101D01*
X139690515Y-61763112D01*
X139690220Y-61754863D01*
X139690200Y-61754795D01*
X139690215Y-61754739D01*
X139690199Y-61754266D01*
X139690199Y-61389008D01*
X139709884Y-61321969D01*
X139726518Y-61301327D01*
X140322999Y-60704846D01*
X140331385Y-60736142D01*
G37*
G04 #@! TD.AperFunction*
M02*
