M48
; DRILL file {KiCad 8.0.9-8.0.9-0~ubuntu20.04.1} date 2025-06-05T20:47:28+0100
; FORMAT={-:-/ absolute / metric / decimal}
; #@! TF.CreationDate,2025-06-05T20:47:28+01:00
; #@! TF.GenerationSoftware,Kicad,Pcbnew,8.0.9-8.0.9-0~ubuntu20.04.1
; #@! TF.FileFunction,Plated,1,2,PTH
FMAT,2
METRIC
; #@! TA.AperFunction,Plated,PTH,ViaDrill
T1C0.300
; #@! TA.AperFunction,Plated,PTH,ViaDrill
T2C0.750
; #@! TA.AperFunction,Plated,PTH,ComponentDrill
T3C1.000
; #@! TA.AperFunction,Plated,PTH,ComponentDrill
T4C1.150
; #@! TA.AperFunction,Plated,PTH,ComponentDrill
T5C3.250
%
G90
G05
T1
X83.312Y-73.66
X119.634Y-59.436
X119.634Y-74.422
X124.46Y-57.404
X124.46Y-72.644
T2
X94.488Y-61.468
X97.028Y-61.468
X99.568Y-61.468
X102.108Y-61.468
X104.648Y-61.468
X116.84Y-62.484
X116.84Y-64.516
X116.84Y-66.548
X116.84Y-68.58
X116.84Y-70.612
T3
X81.534Y-54.61
X81.534Y-77.47
X84.074Y-54.61
X84.074Y-77.47
X86.614Y-54.61
X86.614Y-77.47
X89.154Y-54.61
X89.154Y-77.47
X91.694Y-54.61
X91.694Y-77.47
X94.234Y-54.61
X94.234Y-77.47
X96.774Y-54.61
X96.774Y-77.47
X99.314Y-54.61
X99.314Y-77.47
X101.854Y-54.61
X101.854Y-77.47
X104.394Y-54.61
X104.394Y-77.47
X106.934Y-54.61
X106.934Y-77.47
X109.474Y-54.61
X109.474Y-77.47
X112.014Y-54.61
X112.014Y-77.47
X114.554Y-54.61
X114.554Y-77.47
X117.094Y-54.61
X117.094Y-77.47
X119.634Y-54.61
X119.634Y-77.47
X122.174Y-54.61
X122.174Y-77.47
X124.714Y-54.61
X124.714Y-77.47
X127.254Y-54.61
X127.254Y-77.47
X129.794Y-54.61
X129.794Y-77.47
T4
X62.84Y-61.159
X62.84Y-63.449
X62.84Y-65.739
X62.84Y-68.029
X62.84Y-70.319
X65.38Y-62.304
X65.38Y-64.594
X65.38Y-66.884
X65.38Y-69.174
X65.38Y-71.464
X67.92Y-61.159
X67.92Y-63.449
X67.92Y-65.739
X67.92Y-68.029
X67.92Y-70.319
X141.427Y-61.659
X141.427Y-63.949
X141.427Y-66.239
X141.427Y-68.529
X141.427Y-70.819
X143.967Y-60.514
X143.967Y-62.804
X143.967Y-65.094
X143.967Y-67.384
X143.967Y-69.674
X146.507Y-61.659
X146.507Y-63.949
X146.507Y-66.239
X146.507Y-68.529
X146.507Y-70.819
T5
X65.38Y-53.494
X65.38Y-78.484
X143.967Y-53.494
X143.967Y-78.484
M30
