G04 #@! TF.GenerationSoftware,KiCad,Pcbnew,9.0.2-9.0.2-0~ubuntu22.04.1*
G04 #@! TF.CreationDate,2025-07-06T23:19:01+01:00*
G04 #@! TF.ProjectId,ggroohauga-console,6767726f-6f68-4617-9567-612d636f6e73,rev?*
G04 #@! TF.SameCoordinates,Original*
G04 #@! TF.FileFunction,Copper,L1,Top*
G04 #@! TF.FilePolarity,Positive*
%FSLAX46Y46*%
G04 Gerber Fmt 4.6, Leading zero omitted, Abs format (unit mm)*
G04 Created by KiCad (PCBNEW 9.0.2-9.0.2-0~ubuntu22.04.1) date 2025-07-06 23:19:01*
%MOMM*%
%LPD*%
G01*
G04 APERTURE LIST*
G04 Aperture macros list*
%AMRoundRect*
0 Rectangle with rounded corners*
0 $1 Rounding radius*
0 $2 $3 $4 $5 $6 $7 $8 $9 X,Y pos of 4 corners*
0 Add a 4 corners polygon primitive as box body*
4,1,4,$2,$3,$4,$5,$6,$7,$8,$9,$2,$3,0*
0 Add four circle primitives for the rounded corners*
1,1,$1+$1,$2,$3*
1,1,$1+$1,$4,$5*
1,1,$1+$1,$6,$7*
1,1,$1+$1,$8,$9*
0 Add four rect primitives between the rounded corners*
20,1,$1+$1,$2,$3,$4,$5,0*
20,1,$1+$1,$4,$5,$6,$7,0*
20,1,$1+$1,$6,$7,$8,$9,0*
20,1,$1+$1,$8,$9,$2,$3,0*%
G04 Aperture macros list end*
G04 #@! TA.AperFunction,SMDPad,CuDef*
%ADD10RoundRect,0.150000X-0.587500X-0.150000X0.587500X-0.150000X0.587500X0.150000X-0.587500X0.150000X0*%
G04 #@! TD*
G04 #@! TA.AperFunction,ComponentPad*
%ADD11O,2.200000X1.200000*%
G04 #@! TD*
G04 #@! TA.AperFunction,ComponentPad*
%ADD12O,1.200000X2.200000*%
G04 #@! TD*
G04 #@! TA.AperFunction,ComponentPad*
%ADD13R,1.700000X1.700000*%
G04 #@! TD*
G04 #@! TA.AperFunction,ComponentPad*
%ADD14C,1.700000*%
G04 #@! TD*
G04 #@! TA.AperFunction,ComponentPad*
%ADD15C,4.266000*%
G04 #@! TD*
G04 #@! TA.AperFunction,ComponentPad*
%ADD16R,1.725000X1.725000*%
G04 #@! TD*
G04 #@! TA.AperFunction,ComponentPad*
%ADD17C,1.725000*%
G04 #@! TD*
G04 #@! TA.AperFunction,ViaPad*
%ADD18C,1.500000*%
G04 #@! TD*
G04 #@! TA.AperFunction,Conductor*
%ADD19C,0.500000*%
G04 #@! TD*
G04 #@! TA.AperFunction,Conductor*
%ADD20C,0.200000*%
G04 #@! TD*
G04 APERTURE END LIST*
D10*
X73738500Y-64582000D03*
X73738500Y-66482000D03*
X75613500Y-65532000D03*
D11*
X139373400Y-78019920D03*
D12*
X144373400Y-73019920D03*
D11*
X139373400Y-68019920D03*
D13*
X81534000Y-54610000D03*
D14*
X84074000Y-54610000D03*
X86614000Y-54610000D03*
X89154000Y-54610000D03*
X91694000Y-54610000D03*
X94234000Y-54610000D03*
X96774000Y-54610000D03*
X99314000Y-54610000D03*
X101854000Y-54610000D03*
X104394000Y-54610000D03*
X106934000Y-54610000D03*
X109474000Y-54610000D03*
X112014000Y-54610000D03*
X114554000Y-54610000D03*
X117094000Y-54610000D03*
X119634000Y-54610000D03*
X122174000Y-54610000D03*
X124714000Y-54610000D03*
X127254000Y-54610000D03*
X129794000Y-54610000D03*
D15*
X65379600Y-53494200D03*
X65379600Y-78484200D03*
D16*
X67919600Y-61659200D03*
D17*
X67919600Y-63949200D03*
X67919600Y-66239200D03*
X67919600Y-68529200D03*
X67919600Y-70819200D03*
X65379600Y-60514200D03*
X65379600Y-62804200D03*
X65379600Y-65094200D03*
X65379600Y-67384200D03*
X65379600Y-69674200D03*
X62839600Y-61659200D03*
X62839600Y-63949200D03*
X62839600Y-66239200D03*
X62839600Y-68529200D03*
X62839600Y-70819200D03*
D13*
X81534000Y-77470000D03*
D14*
X84074000Y-77470000D03*
X86614000Y-77470000D03*
X89154000Y-77470000D03*
X91694000Y-77470000D03*
X94234000Y-77470000D03*
X96774000Y-77470000D03*
X99314000Y-77470000D03*
X101854000Y-77470000D03*
X104394000Y-77470000D03*
X106934000Y-77470000D03*
X109474000Y-77470000D03*
X112014000Y-77470000D03*
X114554000Y-77470000D03*
X117094000Y-77470000D03*
X119634000Y-77470000D03*
X122174000Y-77470000D03*
X124714000Y-77470000D03*
X127254000Y-77470000D03*
X129794000Y-77470000D03*
D11*
X139373400Y-64105800D03*
D12*
X144373400Y-59105800D03*
D11*
X139373400Y-54105800D03*
D18*
X127000000Y-61659200D03*
X127000000Y-64105800D03*
X127000000Y-70819200D03*
X127000000Y-68019920D03*
D19*
X127000000Y-61659200D02*
X127000000Y-64105800D01*
X127000000Y-68019920D02*
X127000000Y-70819200D01*
D20*
X99314000Y-75438000D02*
X99060000Y-75184000D01*
X76642000Y-66482000D02*
X81534000Y-71374000D01*
X99060000Y-75184000D02*
X82042000Y-75184000D01*
X99314000Y-77470000D02*
X99314000Y-75438000D01*
X81534000Y-77470000D02*
X81534000Y-71374000D01*
X73738500Y-66482000D02*
X76642000Y-66482000D01*
X82042000Y-75184000D02*
X81534000Y-75692000D01*
X81534000Y-75692000D02*
X81534000Y-77470000D01*
X75613500Y-65532000D02*
X71628000Y-65532000D01*
X71628000Y-58420000D02*
X71120000Y-57912000D01*
X62839600Y-59080400D02*
X64008000Y-57912000D01*
X71628000Y-65532000D02*
X71628000Y-58420000D01*
X62839600Y-61659200D02*
X62839600Y-59080400D01*
X64008000Y-57912000D02*
X71120000Y-57912000D01*
X73738500Y-64582000D02*
X89342000Y-64582000D01*
X89342000Y-64582000D02*
X99314000Y-54610000D01*
G04 #@! TA.AperFunction,Conductor*
G36*
X98656539Y-75804185D02*
G01*
X98702294Y-75856989D01*
X98713500Y-75908500D01*
X98713500Y-76184281D01*
X98693815Y-76251320D01*
X98645795Y-76294765D01*
X98606185Y-76314947D01*
X98606184Y-76314948D01*
X98434213Y-76439890D01*
X98283890Y-76590213D01*
X98158949Y-76762182D01*
X98154202Y-76771499D01*
X98106227Y-76822293D01*
X98038405Y-76839087D01*
X97972271Y-76816548D01*
X97933234Y-76771495D01*
X97928626Y-76762452D01*
X97889270Y-76708282D01*
X97889269Y-76708282D01*
X97256962Y-77340590D01*
X97239925Y-77277007D01*
X97174099Y-77162993D01*
X97081007Y-77069901D01*
X96966993Y-77004075D01*
X96903409Y-76987037D01*
X97535716Y-76354728D01*
X97481550Y-76315375D01*
X97292217Y-76218904D01*
X97090129Y-76153242D01*
X96880246Y-76120000D01*
X96667754Y-76120000D01*
X96457872Y-76153242D01*
X96457869Y-76153242D01*
X96255782Y-76218904D01*
X96066439Y-76315380D01*
X96012282Y-76354727D01*
X96012282Y-76354728D01*
X96644591Y-76987037D01*
X96581007Y-77004075D01*
X96466993Y-77069901D01*
X96373901Y-77162993D01*
X96308075Y-77277007D01*
X96291037Y-77340591D01*
X95658728Y-76708282D01*
X95658727Y-76708282D01*
X95619380Y-76762440D01*
X95619376Y-76762446D01*
X95614760Y-76771505D01*
X95566781Y-76822297D01*
X95498959Y-76839087D01*
X95432826Y-76816543D01*
X95393794Y-76771493D01*
X95389051Y-76762184D01*
X95389049Y-76762181D01*
X95389048Y-76762179D01*
X95264109Y-76590213D01*
X95113786Y-76439890D01*
X94941820Y-76314951D01*
X94752414Y-76218444D01*
X94752413Y-76218443D01*
X94752412Y-76218443D01*
X94550243Y-76152754D01*
X94550241Y-76152753D01*
X94550240Y-76152753D01*
X94388957Y-76127208D01*
X94340287Y-76119500D01*
X94127713Y-76119500D01*
X94079042Y-76127208D01*
X93917760Y-76152753D01*
X93715585Y-76218444D01*
X93526179Y-76314951D01*
X93354213Y-76439890D01*
X93203890Y-76590213D01*
X93078949Y-76762182D01*
X93074484Y-76770946D01*
X93026509Y-76821742D01*
X92958688Y-76838536D01*
X92892553Y-76815998D01*
X92853516Y-76770946D01*
X92849050Y-76762182D01*
X92724109Y-76590213D01*
X92573786Y-76439890D01*
X92401820Y-76314951D01*
X92212414Y-76218444D01*
X92212413Y-76218443D01*
X92212412Y-76218443D01*
X92010243Y-76152754D01*
X92010241Y-76152753D01*
X92010240Y-76152753D01*
X91848957Y-76127208D01*
X91800287Y-76119500D01*
X91587713Y-76119500D01*
X91539042Y-76127208D01*
X91377760Y-76152753D01*
X91175585Y-76218444D01*
X90986179Y-76314951D01*
X90814213Y-76439890D01*
X90663890Y-76590213D01*
X90538949Y-76762182D01*
X90534484Y-76770946D01*
X90486509Y-76821742D01*
X90418688Y-76838536D01*
X90352553Y-76815998D01*
X90313516Y-76770946D01*
X90309050Y-76762182D01*
X90184109Y-76590213D01*
X90033786Y-76439890D01*
X89861820Y-76314951D01*
X89672414Y-76218444D01*
X89672413Y-76218443D01*
X89672412Y-76218443D01*
X89470243Y-76152754D01*
X89470241Y-76152753D01*
X89470240Y-76152753D01*
X89308957Y-76127208D01*
X89260287Y-76119500D01*
X89047713Y-76119500D01*
X88999042Y-76127208D01*
X88837760Y-76152753D01*
X88635585Y-76218444D01*
X88446179Y-76314951D01*
X88274213Y-76439890D01*
X88123890Y-76590213D01*
X87998949Y-76762182D01*
X87994484Y-76770946D01*
X87946509Y-76821742D01*
X87878688Y-76838536D01*
X87812553Y-76815998D01*
X87773516Y-76770946D01*
X87769050Y-76762182D01*
X87644109Y-76590213D01*
X87493786Y-76439890D01*
X87321820Y-76314951D01*
X87132414Y-76218444D01*
X87132413Y-76218443D01*
X87132412Y-76218443D01*
X86930243Y-76152754D01*
X86930241Y-76152753D01*
X86930240Y-76152753D01*
X86768957Y-76127208D01*
X86720287Y-76119500D01*
X86507713Y-76119500D01*
X86459042Y-76127208D01*
X86297760Y-76152753D01*
X86095585Y-76218444D01*
X85906179Y-76314951D01*
X85734213Y-76439890D01*
X85583890Y-76590213D01*
X85458949Y-76762182D01*
X85454484Y-76770946D01*
X85406509Y-76821742D01*
X85338688Y-76838536D01*
X85272553Y-76815998D01*
X85233516Y-76770946D01*
X85229050Y-76762182D01*
X85104109Y-76590213D01*
X84953786Y-76439890D01*
X84781820Y-76314951D01*
X84592414Y-76218444D01*
X84592413Y-76218443D01*
X84592412Y-76218443D01*
X84390243Y-76152754D01*
X84390241Y-76152753D01*
X84390240Y-76152753D01*
X84228957Y-76127208D01*
X84180287Y-76119500D01*
X83967713Y-76119500D01*
X83919042Y-76127208D01*
X83757760Y-76152753D01*
X83555585Y-76218444D01*
X83366179Y-76314951D01*
X83194215Y-76439889D01*
X83080673Y-76553431D01*
X83019350Y-76586915D01*
X82949658Y-76581931D01*
X82893725Y-76540059D01*
X82876810Y-76509082D01*
X82827797Y-76377671D01*
X82827793Y-76377664D01*
X82741547Y-76262455D01*
X82741544Y-76262452D01*
X82626335Y-76176206D01*
X82626328Y-76176202D01*
X82491482Y-76125908D01*
X82491483Y-76125908D01*
X82431883Y-76119501D01*
X82431881Y-76119500D01*
X82431873Y-76119500D01*
X82431865Y-76119500D01*
X82258500Y-76119500D01*
X82249814Y-76116949D01*
X82240853Y-76118238D01*
X82216812Y-76107259D01*
X82191461Y-76099815D01*
X82185533Y-76092974D01*
X82177297Y-76089213D01*
X82163007Y-76066978D01*
X82145706Y-76047011D01*
X82143418Y-76036496D01*
X82139523Y-76030435D01*
X82134500Y-75995500D01*
X82134500Y-75992097D01*
X82154185Y-75925058D01*
X82170819Y-75904416D01*
X82254416Y-75820819D01*
X82315739Y-75787334D01*
X82342097Y-75784500D01*
X98589500Y-75784500D01*
X98656539Y-75804185D01*
G37*
G04 #@! TD.AperFunction*
G04 #@! TA.AperFunction,Conductor*
G36*
X66520281Y-61301328D02*
G01*
X66553766Y-61362651D01*
X66556600Y-61389009D01*
X66556600Y-61754265D01*
X66551504Y-61771619D01*
X66551427Y-61789706D01*
X66541864Y-61804446D01*
X66536915Y-61821304D01*
X66523247Y-61833147D01*
X66513403Y-61848323D01*
X66497387Y-61855554D01*
X66484111Y-61867059D01*
X66466209Y-61869632D01*
X66449724Y-61877077D01*
X66432343Y-61874502D01*
X66414953Y-61877003D01*
X66398500Y-61869489D01*
X66380608Y-61866839D01*
X66357682Y-61850848D01*
X66351397Y-61847978D01*
X66350999Y-61847631D01*
X66347864Y-61844891D01*
X66267535Y-61764562D01*
X66198886Y-61714686D01*
X66194683Y-61711012D01*
X66178796Y-61686060D01*
X66160733Y-61662634D01*
X66159784Y-61656197D01*
X66157159Y-61652074D01*
X66157187Y-61645341D01*
X65570246Y-61058400D01*
X65601542Y-61050015D01*
X65732658Y-60974315D01*
X65839715Y-60867258D01*
X65915415Y-60736142D01*
X65923800Y-60704847D01*
X66520281Y-61301328D01*
G37*
G04 #@! TD.AperFunction*
G04 #@! TA.AperFunction,Conductor*
G36*
X64843785Y-60736142D02*
G01*
X64919485Y-60867258D01*
X65026542Y-60974315D01*
X65157658Y-61050015D01*
X65188953Y-61058400D01*
X64597781Y-61649571D01*
X64592167Y-61676296D01*
X64588469Y-61680938D01*
X64587515Y-61684240D01*
X64576568Y-61695879D01*
X64564516Y-61711012D01*
X64560307Y-61714690D01*
X64491665Y-61764562D01*
X64411329Y-61844897D01*
X64408202Y-61847631D01*
X64380107Y-61860606D01*
X64352958Y-61875431D01*
X64348671Y-61875124D01*
X64344771Y-61876926D01*
X64314132Y-61872654D01*
X64283266Y-61870447D01*
X64279825Y-61867871D01*
X64275570Y-61867278D01*
X64252101Y-61847117D01*
X64227333Y-61828575D01*
X64225831Y-61824549D01*
X64222572Y-61821749D01*
X64213728Y-61792100D01*
X64202916Y-61763111D01*
X64202621Y-61754862D01*
X64202601Y-61754794D01*
X64202616Y-61754738D01*
X64202600Y-61754265D01*
X64202600Y-61551924D01*
X64183185Y-61429346D01*
X64192139Y-61360053D01*
X64217977Y-61322267D01*
X64835399Y-60704846D01*
X64843785Y-60736142D01*
G37*
G04 #@! TD.AperFunction*
G04 #@! TA.AperFunction,Conductor*
G36*
X64053163Y-51009385D02*
G01*
X64098918Y-51062189D01*
X64108862Y-51131347D01*
X64079837Y-51194903D01*
X64052096Y-51218694D01*
X63853559Y-51343443D01*
X63702701Y-51463747D01*
X64421003Y-52182049D01*
X64320983Y-52254719D01*
X64140119Y-52435583D01*
X64067449Y-52535603D01*
X63349147Y-51817301D01*
X63228843Y-51968159D01*
X63071501Y-52218566D01*
X62943194Y-52484999D01*
X62845517Y-52764146D01*
X62779711Y-53052461D01*
X62779708Y-53052475D01*
X62746600Y-53346327D01*
X62746600Y-53642072D01*
X62779708Y-53935924D01*
X62779711Y-53935938D01*
X62845517Y-54224253D01*
X62943194Y-54503400D01*
X63071501Y-54769833D01*
X63228842Y-55020240D01*
X63349148Y-55171097D01*
X64067449Y-54452795D01*
X64140119Y-54552817D01*
X64320983Y-54733681D01*
X64421002Y-54806349D01*
X63702701Y-55524650D01*
X63853559Y-55644957D01*
X64103966Y-55802298D01*
X64370399Y-55930605D01*
X64649546Y-56028282D01*
X64937861Y-56094088D01*
X64937875Y-56094091D01*
X65231727Y-56127199D01*
X65231731Y-56127200D01*
X65527469Y-56127200D01*
X65527472Y-56127199D01*
X65821324Y-56094091D01*
X65821338Y-56094088D01*
X66109653Y-56028282D01*
X66388800Y-55930605D01*
X66655233Y-55802298D01*
X66905641Y-55644956D01*
X67056496Y-55524651D01*
X67056497Y-55524650D01*
X66338196Y-54806350D01*
X66438217Y-54733681D01*
X66619081Y-54552817D01*
X66691750Y-54452796D01*
X67410050Y-55171097D01*
X67410051Y-55171096D01*
X67530356Y-55020241D01*
X67687696Y-54769837D01*
X67694919Y-54754838D01*
X67694920Y-54754836D01*
X67816005Y-54503400D01*
X67913682Y-54224253D01*
X67979488Y-53935938D01*
X67979491Y-53935924D01*
X68006640Y-53694968D01*
X68012599Y-53642072D01*
X68012600Y-53642068D01*
X68012600Y-53346331D01*
X68012599Y-53346327D01*
X67979491Y-53052475D01*
X67979488Y-53052461D01*
X67913682Y-52764146D01*
X67816005Y-52484999D01*
X67687698Y-52218566D01*
X67530357Y-51968159D01*
X67410050Y-51817301D01*
X66691749Y-52535602D01*
X66619081Y-52435583D01*
X66438217Y-52254719D01*
X66338196Y-52182049D01*
X67056497Y-51463748D01*
X66905640Y-51343442D01*
X66707104Y-51218694D01*
X66660813Y-51166359D01*
X66650165Y-51097306D01*
X66678540Y-51033457D01*
X66736930Y-50995085D01*
X66773076Y-50989700D01*
X148248900Y-50989700D01*
X148315939Y-51009385D01*
X148361694Y-51062189D01*
X148372900Y-51113700D01*
X148372900Y-56281300D01*
X148353215Y-56348339D01*
X148300411Y-56394094D01*
X148248900Y-56405300D01*
X147784706Y-56405300D01*
X147610741Y-56439903D01*
X147610732Y-56439906D01*
X147446859Y-56507783D01*
X147446846Y-56507790D01*
X147299365Y-56606335D01*
X147299361Y-56606338D01*
X147173938Y-56731761D01*
X147173935Y-56731765D01*
X147075390Y-56879246D01*
X147075383Y-56879259D01*
X147007506Y-57043132D01*
X147007503Y-57043141D01*
X146972900Y-57217104D01*
X146972900Y-60994495D01*
X147007503Y-61168458D01*
X147007506Y-61168467D01*
X147075383Y-61332340D01*
X147075390Y-61332353D01*
X147173935Y-61479834D01*
X147173938Y-61479838D01*
X147299361Y-61605261D01*
X147299365Y-61605264D01*
X147446846Y-61703809D01*
X147446859Y-61703816D01*
X147568656Y-61754265D01*
X147610734Y-61771694D01*
X147610736Y-61771694D01*
X147610741Y-61771696D01*
X147784704Y-61806299D01*
X147784707Y-61806300D01*
X147784709Y-61806300D01*
X147807508Y-61806300D01*
X148248900Y-61806300D01*
X148315939Y-61825985D01*
X148361694Y-61878789D01*
X148372900Y-61930300D01*
X148372900Y-70195420D01*
X148353215Y-70262459D01*
X148300411Y-70308214D01*
X148248900Y-70319420D01*
X147924782Y-70319420D01*
X147924714Y-70319400D01*
X147873400Y-70319400D01*
X147784706Y-70319400D01*
X147784704Y-70319400D01*
X147610730Y-70354006D01*
X147610723Y-70354008D01*
X147446845Y-70421892D01*
X147446837Y-70421896D01*
X147348059Y-70487900D01*
X147329909Y-70500029D01*
X147299348Y-70520450D01*
X147173919Y-70645885D01*
X147075374Y-70793379D01*
X147075372Y-70793383D01*
X147007496Y-70957267D01*
X147007493Y-70957276D01*
X146972896Y-71131244D01*
X146972896Y-71131246D01*
X146972900Y-71219896D01*
X146972900Y-74746445D01*
X146972898Y-74754045D01*
X146972897Y-74754053D01*
X146972897Y-74764928D01*
X146972897Y-74768583D01*
X146972878Y-74768647D01*
X146972883Y-74908636D01*
X146972883Y-74908637D01*
X147007495Y-75082601D01*
X147007497Y-75082610D01*
X147075381Y-75246477D01*
X147075385Y-75246485D01*
X147173931Y-75393961D01*
X147173939Y-75393971D01*
X147299360Y-75519387D01*
X147299367Y-75519392D01*
X147446848Y-75617932D01*
X147446853Y-75617935D01*
X147446856Y-75617937D01*
X147610736Y-75685816D01*
X147784709Y-75720420D01*
X147807508Y-75720420D01*
X148248900Y-75720420D01*
X148315939Y-75740105D01*
X148361694Y-75792909D01*
X148372900Y-75844420D01*
X148372900Y-80864700D01*
X148353215Y-80931739D01*
X148300411Y-80977494D01*
X148248900Y-80988700D01*
X66773076Y-80988700D01*
X66706037Y-80969015D01*
X66660282Y-80916211D01*
X66650338Y-80847053D01*
X66679363Y-80783497D01*
X66707104Y-80759706D01*
X66905641Y-80634956D01*
X67056496Y-80514651D01*
X67056497Y-80514650D01*
X66338196Y-79796350D01*
X66438217Y-79723681D01*
X66619081Y-79542817D01*
X66691750Y-79442796D01*
X67410050Y-80161097D01*
X67410051Y-80161096D01*
X67530356Y-80010241D01*
X67687698Y-79759833D01*
X67816005Y-79493400D01*
X67913682Y-79214253D01*
X67979488Y-78925938D01*
X67979491Y-78925924D01*
X68012599Y-78632072D01*
X68012600Y-78632068D01*
X68012600Y-78336331D01*
X68012599Y-78336327D01*
X67979491Y-78042475D01*
X67979488Y-78042461D01*
X67913682Y-77754146D01*
X67816005Y-77474999D01*
X67687698Y-77208566D01*
X67530357Y-76958159D01*
X67410050Y-76807301D01*
X66691749Y-77525602D01*
X66619081Y-77425583D01*
X66438217Y-77244719D01*
X66338196Y-77172049D01*
X67056497Y-76453748D01*
X66905640Y-76333442D01*
X66655233Y-76176101D01*
X66388800Y-76047794D01*
X66109653Y-75950117D01*
X65821338Y-75884311D01*
X65821324Y-75884308D01*
X65527472Y-75851200D01*
X65231727Y-75851200D01*
X64937875Y-75884308D01*
X64937861Y-75884311D01*
X64649546Y-75950117D01*
X64370399Y-76047794D01*
X64103966Y-76176101D01*
X63853559Y-76333443D01*
X63702701Y-76453747D01*
X64421003Y-77172049D01*
X64320983Y-77244719D01*
X64140119Y-77425583D01*
X64067449Y-77525603D01*
X63349147Y-76807301D01*
X63228843Y-76958159D01*
X63071501Y-77208566D01*
X62943194Y-77474999D01*
X62845517Y-77754146D01*
X62779711Y-78042461D01*
X62779708Y-78042475D01*
X62746600Y-78336327D01*
X62746600Y-78632072D01*
X62779708Y-78925924D01*
X62779711Y-78925938D01*
X62845517Y-79214253D01*
X62943194Y-79493400D01*
X63071501Y-79759833D01*
X63228842Y-80010240D01*
X63349148Y-80161097D01*
X64067449Y-79442795D01*
X64140119Y-79542817D01*
X64320983Y-79723681D01*
X64421002Y-79796349D01*
X63702701Y-80514650D01*
X63853559Y-80634957D01*
X64052096Y-80759706D01*
X64098387Y-80812041D01*
X64109035Y-80881094D01*
X64080660Y-80944943D01*
X64022270Y-80983315D01*
X63986124Y-80988700D01*
X54497900Y-80988700D01*
X54430861Y-80969015D01*
X54385106Y-80916211D01*
X54373900Y-80864700D01*
X54373900Y-61551924D01*
X61476600Y-61551924D01*
X61476600Y-61766475D01*
X61510160Y-61978370D01*
X61576459Y-62182415D01*
X61673858Y-62373568D01*
X61799962Y-62547135D01*
X61799964Y-62547137D01*
X61951665Y-62698838D01*
X61958609Y-62703883D01*
X62001274Y-62759214D01*
X62007252Y-62828827D01*
X61974645Y-62890622D01*
X61958609Y-62904517D01*
X61951665Y-62909561D01*
X61799964Y-63061262D01*
X61799964Y-63061263D01*
X61799962Y-63061265D01*
X61781141Y-63087170D01*
X61673858Y-63234831D01*
X61576459Y-63425984D01*
X61510160Y-63630029D01*
X61476600Y-63841924D01*
X61476600Y-64056475D01*
X61510160Y-64268370D01*
X61576459Y-64472415D01*
X61665906Y-64647962D01*
X61673858Y-64663568D01*
X61799962Y-64837135D01*
X61799964Y-64837137D01*
X61951665Y-64988838D01*
X61958609Y-64993883D01*
X62001274Y-65049214D01*
X62007252Y-65118827D01*
X61974645Y-65180622D01*
X61958609Y-65194517D01*
X61951665Y-65199561D01*
X61799964Y-65351262D01*
X61799964Y-65351263D01*
X61799962Y-65351265D01*
X61796304Y-65356300D01*
X61673858Y-65524831D01*
X61576459Y-65715984D01*
X61510160Y-65920029D01*
X61476600Y-66131924D01*
X61476600Y-66346475D01*
X61510160Y-66558370D01*
X61576459Y-66762415D01*
X61670265Y-66946517D01*
X61673858Y-66953568D01*
X61799962Y-67127135D01*
X61799964Y-67127137D01*
X61951665Y-67278838D01*
X61958609Y-67283883D01*
X62001274Y-67339214D01*
X62007252Y-67408827D01*
X61974645Y-67470622D01*
X61958609Y-67484517D01*
X61951665Y-67489561D01*
X61799964Y-67641262D01*
X61799964Y-67641263D01*
X61799962Y-67641265D01*
X61754840Y-67703370D01*
X61673858Y-67814831D01*
X61576459Y-68005984D01*
X61510160Y-68210029D01*
X61476600Y-68421924D01*
X61476600Y-68636475D01*
X61510160Y-68848370D01*
X61576459Y-69052415D01*
X61626686Y-69150989D01*
X61673858Y-69243568D01*
X61799962Y-69417135D01*
X61799964Y-69417137D01*
X61951665Y-69568838D01*
X61958609Y-69573883D01*
X62001274Y-69629214D01*
X62007252Y-69698827D01*
X61974645Y-69760622D01*
X61958609Y-69774517D01*
X61951665Y-69779561D01*
X61799964Y-69931262D01*
X61799964Y-69931263D01*
X61799962Y-69931265D01*
X61754840Y-69993370D01*
X61673858Y-70104831D01*
X61576459Y-70295984D01*
X61510160Y-70500029D01*
X61476600Y-70711924D01*
X61476600Y-70926475D01*
X61510160Y-71138370D01*
X61576459Y-71342415D01*
X61673858Y-71533568D01*
X61799962Y-71707135D01*
X61951665Y-71858838D01*
X62125232Y-71984942D01*
X62215543Y-72030958D01*
X62316384Y-72082340D01*
X62316386Y-72082340D01*
X62316389Y-72082342D01*
X62362964Y-72097475D01*
X62520429Y-72148639D01*
X62732325Y-72182200D01*
X62732330Y-72182200D01*
X62946875Y-72182200D01*
X63158770Y-72148639D01*
X63362811Y-72082342D01*
X63553968Y-71984942D01*
X63727535Y-71858838D01*
X63879238Y-71707135D01*
X64005342Y-71533568D01*
X64102742Y-71342411D01*
X64169039Y-71138370D01*
X64173211Y-71112026D01*
X64202600Y-70926475D01*
X64202600Y-70724135D01*
X64222285Y-70657096D01*
X64275089Y-70611341D01*
X64344247Y-70601397D01*
X64407803Y-70630422D01*
X64414281Y-70636454D01*
X64491665Y-70713838D01*
X64665232Y-70839942D01*
X64755543Y-70885958D01*
X64856384Y-70937340D01*
X64856386Y-70937340D01*
X64856389Y-70937342D01*
X64965760Y-70972878D01*
X65060429Y-71003639D01*
X65272325Y-71037200D01*
X65272330Y-71037200D01*
X65486875Y-71037200D01*
X65698770Y-71003639D01*
X65902811Y-70937342D01*
X66093968Y-70839942D01*
X66267535Y-70713838D01*
X66344919Y-70636454D01*
X66406242Y-70602969D01*
X66475934Y-70607953D01*
X66531867Y-70649825D01*
X66556284Y-70715289D01*
X66556600Y-70724135D01*
X66556600Y-70926475D01*
X66590160Y-71138370D01*
X66656459Y-71342415D01*
X66753858Y-71533568D01*
X66879962Y-71707135D01*
X67031665Y-71858838D01*
X67205232Y-71984942D01*
X67295543Y-72030958D01*
X67396384Y-72082340D01*
X67396386Y-72082340D01*
X67396389Y-72082342D01*
X67442964Y-72097475D01*
X67600429Y-72148639D01*
X67812325Y-72182200D01*
X67812330Y-72182200D01*
X68026875Y-72182200D01*
X68238770Y-72148639D01*
X68442811Y-72082342D01*
X68633968Y-71984942D01*
X68807535Y-71858838D01*
X68959238Y-71707135D01*
X69085342Y-71533568D01*
X69182742Y-71342411D01*
X69249039Y-71138370D01*
X69253211Y-71112026D01*
X69282600Y-70926475D01*
X69282600Y-70711924D01*
X69249039Y-70500029D01*
X69212823Y-70388568D01*
X69182742Y-70295989D01*
X69182740Y-70295986D01*
X69182740Y-70295984D01*
X69085341Y-70104831D01*
X68959238Y-69931265D01*
X68807535Y-69779562D01*
X68807534Y-69779561D01*
X68807531Y-69779558D01*
X68800597Y-69774521D01*
X68757929Y-69719193D01*
X68751947Y-69649580D01*
X68784550Y-69587783D01*
X68800597Y-69573879D01*
X68807531Y-69568841D01*
X68807531Y-69568840D01*
X68807535Y-69568838D01*
X68959238Y-69417135D01*
X69085342Y-69243568D01*
X69182742Y-69052411D01*
X69249039Y-68848370D01*
X69251225Y-68834566D01*
X69282600Y-68636475D01*
X69282600Y-68421924D01*
X69249039Y-68210029D01*
X69182740Y-68005984D01*
X69085341Y-67814831D01*
X68959238Y-67641265D01*
X68807535Y-67489562D01*
X68807534Y-67489561D01*
X68807531Y-67489558D01*
X68800597Y-67484521D01*
X68757929Y-67429193D01*
X68751947Y-67359580D01*
X68784550Y-67297783D01*
X68800597Y-67283879D01*
X68807531Y-67278841D01*
X68807531Y-67278840D01*
X68807535Y-67278838D01*
X68959238Y-67127135D01*
X69085342Y-66953568D01*
X69182742Y-66762411D01*
X69249039Y-66558370D01*
X69282600Y-66346475D01*
X69282600Y-66131924D01*
X69249039Y-65920029D01*
X69205024Y-65784565D01*
X69182742Y-65715989D01*
X69182740Y-65715986D01*
X69182740Y-65715984D01*
X69085341Y-65524831D01*
X68959238Y-65351265D01*
X68807535Y-65199562D01*
X68807534Y-65199561D01*
X68807531Y-65199558D01*
X68800597Y-65194521D01*
X68757929Y-65139193D01*
X68751947Y-65069580D01*
X68784550Y-65007783D01*
X68800597Y-64993879D01*
X68807531Y-64988841D01*
X68807531Y-64988840D01*
X68807535Y-64988838D01*
X68959238Y-64837135D01*
X69085342Y-64663568D01*
X69182742Y-64472411D01*
X69249039Y-64268370D01*
X69282600Y-64056475D01*
X69282600Y-63841924D01*
X69249039Y-63630029D01*
X69190672Y-63450395D01*
X69182742Y-63425989D01*
X69182740Y-63425986D01*
X69182740Y-63425984D01*
X69145091Y-63352095D01*
X69085342Y-63234832D01*
X69075718Y-63221586D01*
X69008988Y-63129739D01*
X68985508Y-63063933D01*
X69001333Y-62995879D01*
X69034992Y-62957589D01*
X69139646Y-62879246D01*
X69225896Y-62764031D01*
X69276191Y-62629183D01*
X69282600Y-62569573D01*
X69282599Y-60748828D01*
X69276191Y-60689217D01*
X69271561Y-60676804D01*
X69225897Y-60554371D01*
X69225893Y-60554364D01*
X69139647Y-60439155D01*
X69139644Y-60439152D01*
X69024435Y-60352906D01*
X69024428Y-60352902D01*
X68889582Y-60302608D01*
X68889583Y-60302608D01*
X68829983Y-60296201D01*
X68829981Y-60296200D01*
X68829973Y-60296200D01*
X68829964Y-60296200D01*
X67009229Y-60296200D01*
X67009223Y-60296201D01*
X66949614Y-60302609D01*
X66880150Y-60328517D01*
X66810458Y-60333501D01*
X66749135Y-60300015D01*
X66715651Y-60238691D01*
X66714344Y-60231731D01*
X66708550Y-60195145D01*
X66642276Y-59991179D01*
X66544913Y-59800093D01*
X66503819Y-59743533D01*
X66503819Y-59743532D01*
X65923800Y-60323552D01*
X65915415Y-60292258D01*
X65839715Y-60161142D01*
X65732658Y-60054085D01*
X65601542Y-59978385D01*
X65570246Y-59969999D01*
X66150266Y-59389979D01*
X66150265Y-59389978D01*
X66093710Y-59348888D01*
X65902620Y-59251523D01*
X65698649Y-59185248D01*
X65486836Y-59151700D01*
X65272364Y-59151700D01*
X65060550Y-59185248D01*
X64856579Y-59251523D01*
X64665492Y-59348887D01*
X64608933Y-59389978D01*
X64608933Y-59389979D01*
X65188953Y-59969999D01*
X65157658Y-59978385D01*
X65026542Y-60054085D01*
X64919485Y-60161142D01*
X64843785Y-60292258D01*
X64835399Y-60323553D01*
X64255379Y-59743533D01*
X64255378Y-59743533D01*
X64214287Y-59800092D01*
X64116923Y-59991179D01*
X64050648Y-60195150D01*
X64017100Y-60406963D01*
X64017100Y-60609765D01*
X63997415Y-60676804D01*
X63944611Y-60722559D01*
X63875453Y-60732503D01*
X63811897Y-60703478D01*
X63805419Y-60697446D01*
X63727537Y-60619564D01*
X63727535Y-60619562D01*
X63553968Y-60493458D01*
X63553964Y-60493455D01*
X63553962Y-60493454D01*
X63507804Y-60469935D01*
X63457009Y-60421961D01*
X63440100Y-60359451D01*
X63440100Y-59380497D01*
X63459785Y-59313458D01*
X63476419Y-59292816D01*
X64220416Y-58548819D01*
X64281739Y-58515334D01*
X64308097Y-58512500D01*
X70819903Y-58512500D01*
X70886942Y-58532185D01*
X70907584Y-58548819D01*
X70991181Y-58632416D01*
X71024666Y-58693739D01*
X71027500Y-58720097D01*
X71027500Y-65611057D01*
X71055617Y-65715989D01*
X71068423Y-65763783D01*
X71068426Y-65763790D01*
X71147475Y-65900709D01*
X71147479Y-65900714D01*
X71147480Y-65900716D01*
X71259284Y-66012520D01*
X71259286Y-66012521D01*
X71259290Y-66012524D01*
X71396209Y-66091573D01*
X71396216Y-66091577D01*
X71548943Y-66132500D01*
X71707057Y-66132500D01*
X72376888Y-66132500D01*
X72443927Y-66152185D01*
X72489682Y-66204989D01*
X72500086Y-66263847D01*
X72500596Y-66263868D01*
X72500504Y-66266210D01*
X72500506Y-66266222D01*
X72500501Y-66266282D01*
X72500500Y-66266313D01*
X72500500Y-66697701D01*
X72503401Y-66734567D01*
X72503402Y-66734573D01*
X72549254Y-66892393D01*
X72549255Y-66892396D01*
X72632917Y-67033862D01*
X72632923Y-67033870D01*
X72749129Y-67150076D01*
X72749133Y-67150079D01*
X72749135Y-67150081D01*
X72890602Y-67233744D01*
X72932224Y-67245836D01*
X73048426Y-67279597D01*
X73048429Y-67279597D01*
X73048431Y-67279598D01*
X73085306Y-67282500D01*
X73085314Y-67282500D01*
X74391686Y-67282500D01*
X74391694Y-67282500D01*
X74428569Y-67279598D01*
X74428571Y-67279597D01*
X74428573Y-67279597D01*
X74474633Y-67266215D01*
X74586398Y-67233744D01*
X74727865Y-67150081D01*
X74759126Y-67118820D01*
X74820448Y-67085334D01*
X74846808Y-67082500D01*
X76341903Y-67082500D01*
X76408942Y-67102185D01*
X76429584Y-67118819D01*
X80897181Y-71586416D01*
X80930666Y-71647739D01*
X80933500Y-71674097D01*
X80933500Y-75612939D01*
X80933499Y-75612943D01*
X80933499Y-75771057D01*
X80933500Y-75771060D01*
X80933500Y-75995500D01*
X80913815Y-76062539D01*
X80861011Y-76108294D01*
X80809501Y-76119500D01*
X80636130Y-76119500D01*
X80636123Y-76119501D01*
X80576516Y-76125908D01*
X80441671Y-76176202D01*
X80441664Y-76176206D01*
X80326455Y-76262452D01*
X80326452Y-76262455D01*
X80240206Y-76377664D01*
X80240202Y-76377671D01*
X80189908Y-76512517D01*
X80183501Y-76572116D01*
X80183500Y-76572135D01*
X80183500Y-78367870D01*
X80183501Y-78367876D01*
X80189908Y-78427483D01*
X80240202Y-78562328D01*
X80240206Y-78562335D01*
X80326452Y-78677544D01*
X80326455Y-78677547D01*
X80441664Y-78763793D01*
X80441671Y-78763797D01*
X80576517Y-78814091D01*
X80576516Y-78814091D01*
X80583444Y-78814835D01*
X80636127Y-78820500D01*
X82431872Y-78820499D01*
X82491483Y-78814091D01*
X82626331Y-78763796D01*
X82741546Y-78677546D01*
X82827796Y-78562331D01*
X82876810Y-78430916D01*
X82918681Y-78374984D01*
X82984145Y-78350566D01*
X83052418Y-78365417D01*
X83080673Y-78386569D01*
X83194213Y-78500109D01*
X83366179Y-78625048D01*
X83366181Y-78625049D01*
X83366184Y-78625051D01*
X83555588Y-78721557D01*
X83757757Y-78787246D01*
X83967713Y-78820500D01*
X83967714Y-78820500D01*
X84180286Y-78820500D01*
X84180287Y-78820500D01*
X84390243Y-78787246D01*
X84592412Y-78721557D01*
X84781816Y-78625051D01*
X84868138Y-78562335D01*
X84953786Y-78500109D01*
X84953788Y-78500106D01*
X84953792Y-78500104D01*
X85104104Y-78349792D01*
X85104106Y-78349788D01*
X85104109Y-78349786D01*
X85229048Y-78177820D01*
X85229047Y-78177820D01*
X85229051Y-78177816D01*
X85233514Y-78169054D01*
X85281488Y-78118259D01*
X85349308Y-78101463D01*
X85415444Y-78123999D01*
X85454486Y-78169056D01*
X85458951Y-78177820D01*
X85583890Y-78349786D01*
X85734213Y-78500109D01*
X85906179Y-78625048D01*
X85906181Y-78625049D01*
X85906184Y-78625051D01*
X86095588Y-78721557D01*
X86297757Y-78787246D01*
X86507713Y-78820500D01*
X86507714Y-78820500D01*
X86720286Y-78820500D01*
X86720287Y-78820500D01*
X86930243Y-78787246D01*
X87132412Y-78721557D01*
X87321816Y-78625051D01*
X87408138Y-78562335D01*
X87493786Y-78500109D01*
X87493788Y-78500106D01*
X87493792Y-78500104D01*
X87644104Y-78349792D01*
X87644106Y-78349788D01*
X87644109Y-78349786D01*
X87769048Y-78177820D01*
X87769047Y-78177820D01*
X87769051Y-78177816D01*
X87773514Y-78169054D01*
X87821488Y-78118259D01*
X87889308Y-78101463D01*
X87955444Y-78123999D01*
X87994486Y-78169056D01*
X87998951Y-78177820D01*
X88123890Y-78349786D01*
X88274213Y-78500109D01*
X88446179Y-78625048D01*
X88446181Y-78625049D01*
X88446184Y-78625051D01*
X88635588Y-78721557D01*
X88837757Y-78787246D01*
X89047713Y-78820500D01*
X89047714Y-78820500D01*
X89260286Y-78820500D01*
X89260287Y-78820500D01*
X89470243Y-78787246D01*
X89672412Y-78721557D01*
X89861816Y-78625051D01*
X89948138Y-78562335D01*
X90033786Y-78500109D01*
X90033788Y-78500106D01*
X90033792Y-78500104D01*
X90184104Y-78349792D01*
X90184106Y-78349788D01*
X90184109Y-78349786D01*
X90309048Y-78177820D01*
X90309047Y-78177820D01*
X90309051Y-78177816D01*
X90313514Y-78169054D01*
X90361488Y-78118259D01*
X90429308Y-78101463D01*
X90495444Y-78123999D01*
X90534486Y-78169056D01*
X90538951Y-78177820D01*
X90663890Y-78349786D01*
X90814213Y-78500109D01*
X90986179Y-78625048D01*
X90986181Y-78625049D01*
X90986184Y-78625051D01*
X91175588Y-78721557D01*
X91377757Y-78787246D01*
X91587713Y-78820500D01*
X91587714Y-78820500D01*
X91800286Y-78820500D01*
X91800287Y-78820500D01*
X92010243Y-78787246D01*
X92212412Y-78721557D01*
X92401816Y-78625051D01*
X92488138Y-78562335D01*
X92573786Y-78500109D01*
X92573788Y-78500106D01*
X92573792Y-78500104D01*
X92724104Y-78349792D01*
X92724106Y-78349788D01*
X92724109Y-78349786D01*
X92849048Y-78177820D01*
X92849047Y-78177820D01*
X92849051Y-78177816D01*
X92853514Y-78169054D01*
X92901488Y-78118259D01*
X92969308Y-78101463D01*
X93035444Y-78123999D01*
X93074486Y-78169056D01*
X93078951Y-78177820D01*
X93203890Y-78349786D01*
X93354213Y-78500109D01*
X93526179Y-78625048D01*
X93526181Y-78625049D01*
X93526184Y-78625051D01*
X93715588Y-78721557D01*
X93917757Y-78787246D01*
X94127713Y-78820500D01*
X94127714Y-78820500D01*
X94340286Y-78820500D01*
X94340287Y-78820500D01*
X94550243Y-78787246D01*
X94752412Y-78721557D01*
X94941816Y-78625051D01*
X95028138Y-78562335D01*
X95113786Y-78500109D01*
X95113788Y-78500106D01*
X95113792Y-78500104D01*
X95264104Y-78349792D01*
X95264106Y-78349788D01*
X95264109Y-78349786D01*
X95349890Y-78231717D01*
X95389051Y-78177816D01*
X95393793Y-78168508D01*
X95441763Y-78117711D01*
X95509583Y-78100911D01*
X95575719Y-78123445D01*
X95614763Y-78168500D01*
X95619373Y-78177547D01*
X95658728Y-78231716D01*
X96291037Y-77599408D01*
X96308075Y-77662993D01*
X96373901Y-77777007D01*
X96466993Y-77870099D01*
X96581007Y-77935925D01*
X96644590Y-77952962D01*
X96012282Y-78585269D01*
X96012282Y-78585270D01*
X96066449Y-78624624D01*
X96255782Y-78721095D01*
X96457870Y-78786757D01*
X96667754Y-78820000D01*
X96880246Y-78820000D01*
X97090127Y-78786757D01*
X97090130Y-78786757D01*
X97292217Y-78721095D01*
X97481554Y-78624622D01*
X97535716Y-78585270D01*
X97535717Y-78585270D01*
X96903408Y-77952962D01*
X96966993Y-77935925D01*
X97081007Y-77870099D01*
X97174099Y-77777007D01*
X97239925Y-77662993D01*
X97256962Y-77599408D01*
X97889270Y-78231717D01*
X97889270Y-78231716D01*
X97928622Y-78177555D01*
X97933232Y-78168507D01*
X97981205Y-78117709D01*
X98049025Y-78100912D01*
X98115161Y-78123447D01*
X98154204Y-78168504D01*
X98158949Y-78177817D01*
X98283890Y-78349786D01*
X98434213Y-78500109D01*
X98606179Y-78625048D01*
X98606181Y-78625049D01*
X98606184Y-78625051D01*
X98795588Y-78721557D01*
X98997757Y-78787246D01*
X99207713Y-78820500D01*
X99207714Y-78820500D01*
X99420286Y-78820500D01*
X99420287Y-78820500D01*
X99630243Y-78787246D01*
X99832412Y-78721557D01*
X100021816Y-78625051D01*
X100108138Y-78562335D01*
X100193786Y-78500109D01*
X100193788Y-78500106D01*
X100193792Y-78500104D01*
X100344104Y-78349792D01*
X100344106Y-78349788D01*
X100344109Y-78349786D01*
X100429890Y-78231717D01*
X100469051Y-78177816D01*
X100473793Y-78168508D01*
X100521763Y-78117711D01*
X100589583Y-78100911D01*
X100655719Y-78123445D01*
X100694763Y-78168500D01*
X100699373Y-78177547D01*
X100738728Y-78231716D01*
X101371037Y-77599408D01*
X101388075Y-77662993D01*
X101453901Y-77777007D01*
X101546993Y-77870099D01*
X101661007Y-77935925D01*
X101724590Y-77952962D01*
X101092282Y-78585269D01*
X101092282Y-78585270D01*
X101146449Y-78624624D01*
X101335782Y-78721095D01*
X101537870Y-78786757D01*
X101747754Y-78820000D01*
X101960246Y-78820000D01*
X102170127Y-78786757D01*
X102170130Y-78786757D01*
X102372217Y-78721095D01*
X102561554Y-78624622D01*
X102615716Y-78585270D01*
X102615717Y-78585270D01*
X101983408Y-77952962D01*
X102046993Y-77935925D01*
X102161007Y-77870099D01*
X102254099Y-77777007D01*
X102319925Y-77662993D01*
X102336962Y-77599409D01*
X102969270Y-78231717D01*
X102969270Y-78231716D01*
X103008622Y-78177555D01*
X103013232Y-78168507D01*
X103061205Y-78117709D01*
X103129025Y-78100912D01*
X103195161Y-78123447D01*
X103234204Y-78168504D01*
X103238949Y-78177817D01*
X103363890Y-78349786D01*
X103514213Y-78500109D01*
X103686179Y-78625048D01*
X103686181Y-78625049D01*
X103686184Y-78625051D01*
X103875588Y-78721557D01*
X104077757Y-78787246D01*
X104287713Y-78820500D01*
X104287714Y-78820500D01*
X104500286Y-78820500D01*
X104500287Y-78820500D01*
X104710243Y-78787246D01*
X104912412Y-78721557D01*
X105101816Y-78625051D01*
X105188138Y-78562335D01*
X105273786Y-78500109D01*
X105273788Y-78500106D01*
X105273792Y-78500104D01*
X105424104Y-78349792D01*
X105424106Y-78349788D01*
X105424109Y-78349786D01*
X105509890Y-78231717D01*
X105549051Y-78177816D01*
X105553793Y-78168508D01*
X105601763Y-78117711D01*
X105669583Y-78100911D01*
X105735719Y-78123445D01*
X105774763Y-78168500D01*
X105779373Y-78177547D01*
X105818728Y-78231716D01*
X106451037Y-77599408D01*
X106468075Y-77662993D01*
X106533901Y-77777007D01*
X106626993Y-77870099D01*
X106741007Y-77935925D01*
X106804590Y-77952962D01*
X106172282Y-78585269D01*
X106172282Y-78585270D01*
X106226449Y-78624624D01*
X106415782Y-78721095D01*
X106617870Y-78786757D01*
X106827754Y-78820000D01*
X107040246Y-78820000D01*
X107250127Y-78786757D01*
X107250130Y-78786757D01*
X107452217Y-78721095D01*
X107641554Y-78624622D01*
X107695716Y-78585270D01*
X107695717Y-78585270D01*
X107063408Y-77952962D01*
X107126993Y-77935925D01*
X107241007Y-77870099D01*
X107334099Y-77777007D01*
X107399925Y-77662993D01*
X107416962Y-77599408D01*
X108049270Y-78231717D01*
X108049270Y-78231716D01*
X108088622Y-78177555D01*
X108093232Y-78168507D01*
X108141205Y-78117709D01*
X108209025Y-78100912D01*
X108275161Y-78123447D01*
X108314204Y-78168504D01*
X108318949Y-78177817D01*
X108443890Y-78349786D01*
X108594213Y-78500109D01*
X108766179Y-78625048D01*
X108766181Y-78625049D01*
X108766184Y-78625051D01*
X108955588Y-78721557D01*
X109157757Y-78787246D01*
X109367713Y-78820500D01*
X109367714Y-78820500D01*
X109580286Y-78820500D01*
X109580287Y-78820500D01*
X109790243Y-78787246D01*
X109992412Y-78721557D01*
X110181816Y-78625051D01*
X110268138Y-78562335D01*
X110353786Y-78500109D01*
X110353788Y-78500106D01*
X110353792Y-78500104D01*
X110504104Y-78349792D01*
X110504106Y-78349788D01*
X110504109Y-78349786D01*
X110629048Y-78177820D01*
X110629047Y-78177820D01*
X110629051Y-78177816D01*
X110633514Y-78169054D01*
X110681488Y-78118259D01*
X110749308Y-78101463D01*
X110815444Y-78123999D01*
X110854486Y-78169056D01*
X110858951Y-78177820D01*
X110983890Y-78349786D01*
X111134213Y-78500109D01*
X111306179Y-78625048D01*
X111306181Y-78625049D01*
X111306184Y-78625051D01*
X111495588Y-78721557D01*
X111697757Y-78787246D01*
X111907713Y-78820500D01*
X111907714Y-78820500D01*
X112120286Y-78820500D01*
X112120287Y-78820500D01*
X112330243Y-78787246D01*
X112532412Y-78721557D01*
X112721816Y-78625051D01*
X112808138Y-78562335D01*
X112893786Y-78500109D01*
X112893788Y-78500106D01*
X112893792Y-78500104D01*
X113044104Y-78349792D01*
X113044106Y-78349788D01*
X113044109Y-78349786D01*
X113169048Y-78177820D01*
X113169047Y-78177820D01*
X113169051Y-78177816D01*
X113173514Y-78169054D01*
X113221488Y-78118259D01*
X113289308Y-78101463D01*
X113355444Y-78123999D01*
X113394486Y-78169056D01*
X113398951Y-78177820D01*
X113523890Y-78349786D01*
X113674213Y-78500109D01*
X113846179Y-78625048D01*
X113846181Y-78625049D01*
X113846184Y-78625051D01*
X114035588Y-78721557D01*
X114237757Y-78787246D01*
X114447713Y-78820500D01*
X114447714Y-78820500D01*
X114660286Y-78820500D01*
X114660287Y-78820500D01*
X114870243Y-78787246D01*
X115072412Y-78721557D01*
X115261816Y-78625051D01*
X115348138Y-78562335D01*
X115433786Y-78500109D01*
X115433788Y-78500106D01*
X115433792Y-78500104D01*
X115584104Y-78349792D01*
X115584106Y-78349788D01*
X115584109Y-78349786D01*
X115709048Y-78177820D01*
X115709047Y-78177820D01*
X115709051Y-78177816D01*
X115713514Y-78169054D01*
X115761488Y-78118259D01*
X115829308Y-78101463D01*
X115895444Y-78123999D01*
X115934486Y-78169056D01*
X115938951Y-78177820D01*
X116063890Y-78349786D01*
X116214213Y-78500109D01*
X116386179Y-78625048D01*
X116386181Y-78625049D01*
X116386184Y-78625051D01*
X116575588Y-78721557D01*
X116777757Y-78787246D01*
X116987713Y-78820500D01*
X116987714Y-78820500D01*
X117200286Y-78820500D01*
X117200287Y-78820500D01*
X117410243Y-78787246D01*
X117612412Y-78721557D01*
X117801816Y-78625051D01*
X117888138Y-78562335D01*
X117973786Y-78500109D01*
X117973788Y-78500106D01*
X117973792Y-78500104D01*
X118124104Y-78349792D01*
X118124106Y-78349788D01*
X118124109Y-78349786D01*
X118249048Y-78177820D01*
X118249047Y-78177820D01*
X118249051Y-78177816D01*
X118253514Y-78169054D01*
X118301488Y-78118259D01*
X118369308Y-78101463D01*
X118435444Y-78123999D01*
X118474486Y-78169056D01*
X118478951Y-78177820D01*
X118603890Y-78349786D01*
X118754213Y-78500109D01*
X118926179Y-78625048D01*
X118926181Y-78625049D01*
X118926184Y-78625051D01*
X119115588Y-78721557D01*
X119317757Y-78787246D01*
X119527713Y-78820500D01*
X119527714Y-78820500D01*
X119740286Y-78820500D01*
X119740287Y-78820500D01*
X119950243Y-78787246D01*
X120152412Y-78721557D01*
X120341816Y-78625051D01*
X120428138Y-78562335D01*
X120513786Y-78500109D01*
X120513788Y-78500106D01*
X120513792Y-78500104D01*
X120664104Y-78349792D01*
X120664106Y-78349788D01*
X120664109Y-78349786D01*
X120749890Y-78231717D01*
X120789051Y-78177816D01*
X120793793Y-78168508D01*
X120841763Y-78117711D01*
X120909583Y-78100911D01*
X120975719Y-78123445D01*
X121014763Y-78168500D01*
X121019373Y-78177547D01*
X121058728Y-78231716D01*
X121691037Y-77599408D01*
X121708075Y-77662993D01*
X121773901Y-77777007D01*
X121866993Y-77870099D01*
X121981007Y-77935925D01*
X122044590Y-77952962D01*
X121412282Y-78585269D01*
X121412282Y-78585270D01*
X121466449Y-78624624D01*
X121655782Y-78721095D01*
X121857870Y-78786757D01*
X122067754Y-78820000D01*
X122280246Y-78820000D01*
X122490127Y-78786757D01*
X122490130Y-78786757D01*
X122692217Y-78721095D01*
X122881554Y-78624622D01*
X122935716Y-78585270D01*
X122935717Y-78585270D01*
X122303408Y-77952962D01*
X122366993Y-77935925D01*
X122481007Y-77870099D01*
X122574099Y-77777007D01*
X122639925Y-77662993D01*
X122656962Y-77599409D01*
X123289270Y-78231717D01*
X123289270Y-78231716D01*
X123328622Y-78177554D01*
X123333514Y-78167954D01*
X123381488Y-78117157D01*
X123449308Y-78100361D01*
X123515444Y-78122897D01*
X123554486Y-78167954D01*
X123559375Y-78177550D01*
X123598728Y-78231716D01*
X124231037Y-77599408D01*
X124248075Y-77662993D01*
X124313901Y-77777007D01*
X124406993Y-77870099D01*
X124521007Y-77935925D01*
X124584590Y-77952962D01*
X123952282Y-78585269D01*
X123952282Y-78585270D01*
X124006449Y-78624624D01*
X124195782Y-78721095D01*
X124397870Y-78786757D01*
X124607754Y-78820000D01*
X124820246Y-78820000D01*
X125030127Y-78786757D01*
X125030130Y-78786757D01*
X125232217Y-78721095D01*
X125421554Y-78624622D01*
X125475716Y-78585270D01*
X125475717Y-78585270D01*
X124843408Y-77952962D01*
X124906993Y-77935925D01*
X125021007Y-77870099D01*
X125114099Y-77777007D01*
X125179925Y-77662993D01*
X125196962Y-77599408D01*
X125829270Y-78231717D01*
X125829270Y-78231716D01*
X125868622Y-78177555D01*
X125873232Y-78168507D01*
X125921205Y-78117709D01*
X125989025Y-78100912D01*
X126055161Y-78123447D01*
X126094204Y-78168504D01*
X126098949Y-78177817D01*
X126223890Y-78349786D01*
X126374213Y-78500109D01*
X126546179Y-78625048D01*
X126546181Y-78625049D01*
X126546184Y-78625051D01*
X126735588Y-78721557D01*
X126937757Y-78787246D01*
X127147713Y-78820500D01*
X127147714Y-78820500D01*
X127360286Y-78820500D01*
X127360287Y-78820500D01*
X127570243Y-78787246D01*
X127772412Y-78721557D01*
X127961816Y-78625051D01*
X128048138Y-78562335D01*
X128133786Y-78500109D01*
X128133788Y-78500106D01*
X128133792Y-78500104D01*
X128284104Y-78349792D01*
X128284106Y-78349788D01*
X128284109Y-78349786D01*
X128409048Y-78177820D01*
X128409047Y-78177820D01*
X128409051Y-78177816D01*
X128413514Y-78169054D01*
X128461488Y-78118259D01*
X128529308Y-78101463D01*
X128595444Y-78123999D01*
X128634486Y-78169056D01*
X128638951Y-78177820D01*
X128763890Y-78349786D01*
X128914213Y-78500109D01*
X129086179Y-78625048D01*
X129086181Y-78625049D01*
X129086184Y-78625051D01*
X129275588Y-78721557D01*
X129477757Y-78787246D01*
X129687713Y-78820500D01*
X129687714Y-78820500D01*
X129900286Y-78820500D01*
X129900287Y-78820500D01*
X130110243Y-78787246D01*
X130312412Y-78721557D01*
X130501816Y-78625051D01*
X130588138Y-78562335D01*
X130673786Y-78500109D01*
X130673788Y-78500106D01*
X130673792Y-78500104D01*
X130824104Y-78349792D01*
X130824106Y-78349788D01*
X130824109Y-78349786D01*
X130949048Y-78177820D01*
X130949047Y-78177820D01*
X130949051Y-78177816D01*
X131045557Y-77988412D01*
X131063461Y-77933309D01*
X137772900Y-77933309D01*
X137772900Y-78106531D01*
X137781077Y-78158159D01*
X137792727Y-78231717D01*
X137799998Y-78277621D01*
X137853527Y-78442365D01*
X137932168Y-78596708D01*
X138033986Y-78736848D01*
X138156472Y-78859334D01*
X138296612Y-78961152D01*
X138450955Y-79039793D01*
X138615699Y-79093322D01*
X138786789Y-79120420D01*
X138786790Y-79120420D01*
X139960010Y-79120420D01*
X139960011Y-79120420D01*
X140131101Y-79093322D01*
X140295845Y-79039793D01*
X140450188Y-78961152D01*
X140590328Y-78859334D01*
X140712814Y-78736848D01*
X140814632Y-78596708D01*
X140893273Y-78442365D01*
X140946802Y-78277621D01*
X140973900Y-78106531D01*
X140973900Y-77936148D01*
X143522900Y-77936148D01*
X143522900Y-78103691D01*
X143555582Y-78267994D01*
X143555584Y-78268002D01*
X143619695Y-78422780D01*
X143712773Y-78562082D01*
X143831237Y-78680546D01*
X143923894Y-78742457D01*
X143970537Y-78773623D01*
X143970538Y-78773623D01*
X143970539Y-78773624D01*
X144005601Y-78788147D01*
X144125318Y-78837736D01*
X144260987Y-78864722D01*
X144289628Y-78870419D01*
X144289632Y-78870420D01*
X144289633Y-78870420D01*
X144457168Y-78870420D01*
X144457169Y-78870419D01*
X144621482Y-78837736D01*
X144776263Y-78773623D01*
X144915562Y-78680546D01*
X145034026Y-78562082D01*
X145127103Y-78422783D01*
X145191216Y-78268002D01*
X145223900Y-78103687D01*
X145223900Y-77936153D01*
X145223899Y-77936148D01*
X146022900Y-77936148D01*
X146022900Y-78103691D01*
X146055582Y-78267994D01*
X146055584Y-78268002D01*
X146119695Y-78422780D01*
X146212773Y-78562082D01*
X146331237Y-78680546D01*
X146423894Y-78742457D01*
X146470537Y-78773623D01*
X146470538Y-78773623D01*
X146470539Y-78773624D01*
X146505601Y-78788147D01*
X146625318Y-78837736D01*
X146760987Y-78864722D01*
X146789628Y-78870419D01*
X146789632Y-78870420D01*
X146789633Y-78870420D01*
X146957168Y-78870420D01*
X146957169Y-78870419D01*
X147121482Y-78837736D01*
X147276263Y-78773623D01*
X147415562Y-78680546D01*
X147534026Y-78562082D01*
X147627103Y-78422783D01*
X147691216Y-78268002D01*
X147723900Y-78103687D01*
X147723900Y-77936153D01*
X147691216Y-77771838D01*
X147627103Y-77617057D01*
X147572826Y-77535826D01*
X147534026Y-77477757D01*
X147415562Y-77359293D01*
X147276260Y-77266215D01*
X147121482Y-77202104D01*
X147121474Y-77202102D01*
X146957171Y-77169420D01*
X146957167Y-77169420D01*
X146789633Y-77169420D01*
X146789628Y-77169420D01*
X146625325Y-77202102D01*
X146625317Y-77202104D01*
X146470539Y-77266215D01*
X146331237Y-77359293D01*
X146212773Y-77477757D01*
X146119695Y-77617059D01*
X146055584Y-77771837D01*
X146055582Y-77771845D01*
X146022900Y-77936148D01*
X145223899Y-77936148D01*
X145191216Y-77771838D01*
X145127103Y-77617057D01*
X145072826Y-77535826D01*
X145034026Y-77477757D01*
X144915562Y-77359293D01*
X144776260Y-77266215D01*
X144621482Y-77202104D01*
X144621474Y-77202102D01*
X144457171Y-77169420D01*
X144457167Y-77169420D01*
X144289633Y-77169420D01*
X144289628Y-77169420D01*
X144125325Y-77202102D01*
X144125317Y-77202104D01*
X143970539Y-77266215D01*
X143831237Y-77359293D01*
X143712773Y-77477757D01*
X143619695Y-77617059D01*
X143555584Y-77771837D01*
X143555582Y-77771845D01*
X143522900Y-77936148D01*
X140973900Y-77936148D01*
X140973900Y-77933309D01*
X140946802Y-77762219D01*
X140893273Y-77597475D01*
X140814632Y-77443132D01*
X140712814Y-77302992D01*
X140590328Y-77180506D01*
X140450188Y-77078688D01*
X140295845Y-77000047D01*
X140131101Y-76946518D01*
X140131099Y-76946517D01*
X140131098Y-76946517D01*
X139999671Y-76925701D01*
X139960011Y-76919420D01*
X138786789Y-76919420D01*
X138747128Y-76925701D01*
X138615702Y-76946517D01*
X138600095Y-76951588D01*
X138518030Y-76978253D01*
X138450952Y-77000048D01*
X138296611Y-77078688D01*
X138216656Y-77136779D01*
X138156472Y-77180506D01*
X138156470Y-77180508D01*
X138156469Y-77180508D01*
X138033988Y-77302989D01*
X138033988Y-77302990D01*
X138033986Y-77302992D01*
X137993081Y-77359293D01*
X137932168Y-77443131D01*
X137853528Y-77597472D01*
X137799997Y-77762222D01*
X137773163Y-77931650D01*
X137772900Y-77933309D01*
X131063461Y-77933309D01*
X131111246Y-77786243D01*
X131144500Y-77576287D01*
X131144500Y-77363713D01*
X131111246Y-77153757D01*
X131045557Y-76951588D01*
X130949051Y-76762184D01*
X130949049Y-76762181D01*
X130949048Y-76762179D01*
X130824109Y-76590213D01*
X130673786Y-76439890D01*
X130501820Y-76314951D01*
X130312414Y-76218444D01*
X130312413Y-76218443D01*
X130312412Y-76218443D01*
X130110243Y-76152754D01*
X130110241Y-76152753D01*
X130110240Y-76152753D01*
X129948957Y-76127208D01*
X129900287Y-76119500D01*
X129687713Y-76119500D01*
X129639042Y-76127208D01*
X129477760Y-76152753D01*
X129275585Y-76218444D01*
X129086179Y-76314951D01*
X128914213Y-76439890D01*
X128763890Y-76590213D01*
X128638949Y-76762182D01*
X128634484Y-76770946D01*
X128586509Y-76821742D01*
X128518688Y-76838536D01*
X128452553Y-76815998D01*
X128413516Y-76770946D01*
X128409050Y-76762182D01*
X128284109Y-76590213D01*
X128133786Y-76439890D01*
X127961820Y-76314951D01*
X127772414Y-76218444D01*
X127772413Y-76218443D01*
X127772412Y-76218443D01*
X127570243Y-76152754D01*
X127570241Y-76152753D01*
X127570240Y-76152753D01*
X127408957Y-76127208D01*
X127360287Y-76119500D01*
X127147713Y-76119500D01*
X127099042Y-76127208D01*
X126937760Y-76152753D01*
X126735585Y-76218444D01*
X126546179Y-76314951D01*
X126374213Y-76439890D01*
X126223890Y-76590213D01*
X126098949Y-76762182D01*
X126094202Y-76771499D01*
X126046227Y-76822293D01*
X125978405Y-76839087D01*
X125912271Y-76816548D01*
X125873234Y-76771495D01*
X125868626Y-76762452D01*
X125829270Y-76708282D01*
X125196962Y-77340590D01*
X125179925Y-77277007D01*
X125114099Y-77162993D01*
X125021007Y-77069901D01*
X124906993Y-77004075D01*
X124843409Y-76987037D01*
X125475716Y-76354728D01*
X125421550Y-76315375D01*
X125232217Y-76218904D01*
X125030129Y-76153242D01*
X124820246Y-76120000D01*
X124607754Y-76120000D01*
X124397872Y-76153242D01*
X124397869Y-76153242D01*
X124195782Y-76218904D01*
X124006439Y-76315380D01*
X123952282Y-76354727D01*
X123952282Y-76354728D01*
X124584591Y-76987037D01*
X124521007Y-77004075D01*
X124406993Y-77069901D01*
X124313901Y-77162993D01*
X124248075Y-77277007D01*
X124231037Y-77340591D01*
X123598728Y-76708282D01*
X123598727Y-76708282D01*
X123559380Y-76762440D01*
X123554483Y-76772051D01*
X123506506Y-76822845D01*
X123438684Y-76839638D01*
X123372550Y-76817098D01*
X123333516Y-76772048D01*
X123328626Y-76762452D01*
X123289270Y-76708282D01*
X122656962Y-77340590D01*
X122639925Y-77277007D01*
X122574099Y-77162993D01*
X122481007Y-77069901D01*
X122366993Y-77004075D01*
X122303409Y-76987037D01*
X122935716Y-76354728D01*
X122881550Y-76315375D01*
X122692217Y-76218904D01*
X122490129Y-76153242D01*
X122280246Y-76120000D01*
X122067754Y-76120000D01*
X121857872Y-76153242D01*
X121857869Y-76153242D01*
X121655782Y-76218904D01*
X121466439Y-76315380D01*
X121412282Y-76354727D01*
X121412282Y-76354728D01*
X122044591Y-76987037D01*
X121981007Y-77004075D01*
X121866993Y-77069901D01*
X121773901Y-77162993D01*
X121708075Y-77277007D01*
X121691037Y-77340591D01*
X121058728Y-76708282D01*
X121058727Y-76708282D01*
X121019380Y-76762440D01*
X121019376Y-76762446D01*
X121014760Y-76771505D01*
X120966781Y-76822297D01*
X120898959Y-76839087D01*
X120832826Y-76816543D01*
X120793794Y-76771493D01*
X120789051Y-76762184D01*
X120789049Y-76762181D01*
X120789048Y-76762179D01*
X120664109Y-76590213D01*
X120513786Y-76439890D01*
X120341820Y-76314951D01*
X120152414Y-76218444D01*
X120152413Y-76218443D01*
X120152412Y-76218443D01*
X119950243Y-76152754D01*
X119950241Y-76152753D01*
X119950240Y-76152753D01*
X119788957Y-76127208D01*
X119740287Y-76119500D01*
X119527713Y-76119500D01*
X119479042Y-76127208D01*
X119317760Y-76152753D01*
X119115585Y-76218444D01*
X118926179Y-76314951D01*
X118754213Y-76439890D01*
X118603890Y-76590213D01*
X118478949Y-76762182D01*
X118474484Y-76770946D01*
X118426509Y-76821742D01*
X118358688Y-76838536D01*
X118292553Y-76815998D01*
X118253516Y-76770946D01*
X118249050Y-76762182D01*
X118124109Y-76590213D01*
X117973786Y-76439890D01*
X117801820Y-76314951D01*
X117612414Y-76218444D01*
X117612413Y-76218443D01*
X117612412Y-76218443D01*
X117410243Y-76152754D01*
X117410241Y-76152753D01*
X117410240Y-76152753D01*
X117248957Y-76127208D01*
X117200287Y-76119500D01*
X116987713Y-76119500D01*
X116939042Y-76127208D01*
X116777760Y-76152753D01*
X116575585Y-76218444D01*
X116386179Y-76314951D01*
X116214213Y-76439890D01*
X116063890Y-76590213D01*
X115938949Y-76762182D01*
X115934484Y-76770946D01*
X115886509Y-76821742D01*
X115818688Y-76838536D01*
X115752553Y-76815998D01*
X115713516Y-76770946D01*
X115709050Y-76762182D01*
X115584109Y-76590213D01*
X115433786Y-76439890D01*
X115261820Y-76314951D01*
X115072414Y-76218444D01*
X115072413Y-76218443D01*
X115072412Y-76218443D01*
X114870243Y-76152754D01*
X114870241Y-76152753D01*
X114870240Y-76152753D01*
X114708957Y-76127208D01*
X114660287Y-76119500D01*
X114447713Y-76119500D01*
X114399042Y-76127208D01*
X114237760Y-76152753D01*
X114035585Y-76218444D01*
X113846179Y-76314951D01*
X113674213Y-76439890D01*
X113523890Y-76590213D01*
X113398949Y-76762182D01*
X113394484Y-76770946D01*
X113346509Y-76821742D01*
X113278688Y-76838536D01*
X113212553Y-76815998D01*
X113173516Y-76770946D01*
X113169050Y-76762182D01*
X113044109Y-76590213D01*
X112893786Y-76439890D01*
X112721820Y-76314951D01*
X112532414Y-76218444D01*
X112532413Y-76218443D01*
X112532412Y-76218443D01*
X112330243Y-76152754D01*
X112330241Y-76152753D01*
X112330240Y-76152753D01*
X112168957Y-76127208D01*
X112120287Y-76119500D01*
X111907713Y-76119500D01*
X111859042Y-76127208D01*
X111697760Y-76152753D01*
X111495585Y-76218444D01*
X111306179Y-76314951D01*
X111134213Y-76439890D01*
X110983890Y-76590213D01*
X110858949Y-76762182D01*
X110854484Y-76770946D01*
X110806509Y-76821742D01*
X110738688Y-76838536D01*
X110672553Y-76815998D01*
X110633516Y-76770946D01*
X110629050Y-76762182D01*
X110504109Y-76590213D01*
X110353786Y-76439890D01*
X110181820Y-76314951D01*
X109992414Y-76218444D01*
X109992413Y-76218443D01*
X109992412Y-76218443D01*
X109790243Y-76152754D01*
X109790241Y-76152753D01*
X109790240Y-76152753D01*
X109628957Y-76127208D01*
X109580287Y-76119500D01*
X109367713Y-76119500D01*
X109319042Y-76127208D01*
X109157760Y-76152753D01*
X108955585Y-76218444D01*
X108766179Y-76314951D01*
X108594213Y-76439890D01*
X108443890Y-76590213D01*
X108318949Y-76762182D01*
X108314202Y-76771499D01*
X108266227Y-76822293D01*
X108198405Y-76839087D01*
X108132271Y-76816548D01*
X108093234Y-76771495D01*
X108088626Y-76762452D01*
X108049270Y-76708282D01*
X108049269Y-76708282D01*
X107416962Y-77340590D01*
X107399925Y-77277007D01*
X107334099Y-77162993D01*
X107241007Y-77069901D01*
X107126993Y-77004075D01*
X107063409Y-76987037D01*
X107695716Y-76354728D01*
X107641550Y-76315375D01*
X107452217Y-76218904D01*
X107250129Y-76153242D01*
X107040246Y-76120000D01*
X106827754Y-76120000D01*
X106617872Y-76153242D01*
X106617869Y-76153242D01*
X106415782Y-76218904D01*
X106226439Y-76315380D01*
X106172282Y-76354727D01*
X106172282Y-76354728D01*
X106804591Y-76987037D01*
X106741007Y-77004075D01*
X106626993Y-77069901D01*
X106533901Y-77162993D01*
X106468075Y-77277007D01*
X106451037Y-77340591D01*
X105818728Y-76708282D01*
X105818727Y-76708282D01*
X105779380Y-76762440D01*
X105779376Y-76762446D01*
X105774760Y-76771505D01*
X105726781Y-76822297D01*
X105658959Y-76839087D01*
X105592826Y-76816543D01*
X105553794Y-76771493D01*
X105549051Y-76762184D01*
X105549049Y-76762181D01*
X105549048Y-76762179D01*
X105424109Y-76590213D01*
X105273786Y-76439890D01*
X105101820Y-76314951D01*
X104912414Y-76218444D01*
X104912413Y-76218443D01*
X104912412Y-76218443D01*
X104710243Y-76152754D01*
X104710241Y-76152753D01*
X104710240Y-76152753D01*
X104548957Y-76127208D01*
X104500287Y-76119500D01*
X104287713Y-76119500D01*
X104239042Y-76127208D01*
X104077760Y-76152753D01*
X103875585Y-76218444D01*
X103686179Y-76314951D01*
X103514213Y-76439890D01*
X103363890Y-76590213D01*
X103238949Y-76762182D01*
X103234202Y-76771499D01*
X103186227Y-76822293D01*
X103118405Y-76839087D01*
X103052271Y-76816548D01*
X103013234Y-76771495D01*
X103008626Y-76762452D01*
X102969270Y-76708282D01*
X102336962Y-77340590D01*
X102319925Y-77277007D01*
X102254099Y-77162993D01*
X102161007Y-77069901D01*
X102046993Y-77004075D01*
X101983409Y-76987037D01*
X102615716Y-76354728D01*
X102561550Y-76315375D01*
X102372217Y-76218904D01*
X102170129Y-76153242D01*
X101960246Y-76120000D01*
X101747754Y-76120000D01*
X101537872Y-76153242D01*
X101537869Y-76153242D01*
X101335782Y-76218904D01*
X101146439Y-76315380D01*
X101092282Y-76354727D01*
X101092282Y-76354728D01*
X101724591Y-76987037D01*
X101661007Y-77004075D01*
X101546993Y-77069901D01*
X101453901Y-77162993D01*
X101388075Y-77277007D01*
X101371037Y-77340591D01*
X100738728Y-76708282D01*
X100738727Y-76708282D01*
X100699380Y-76762440D01*
X100699376Y-76762446D01*
X100694760Y-76771505D01*
X100646781Y-76822297D01*
X100578959Y-76839087D01*
X100512826Y-76816543D01*
X100473794Y-76771493D01*
X100469051Y-76762184D01*
X100469049Y-76762181D01*
X100469048Y-76762179D01*
X100344109Y-76590213D01*
X100193786Y-76439890D01*
X100021815Y-76314948D01*
X100021814Y-76314947D01*
X99982205Y-76294765D01*
X99931409Y-76246791D01*
X99914500Y-76184281D01*
X99914500Y-75358945D01*
X99914500Y-75358943D01*
X99888808Y-75263057D01*
X99873577Y-75206215D01*
X99844639Y-75156095D01*
X99794520Y-75069284D01*
X99682716Y-74957480D01*
X99682715Y-74957479D01*
X99678385Y-74953149D01*
X99678374Y-74953139D01*
X99547590Y-74822355D01*
X99547588Y-74822352D01*
X99428717Y-74703481D01*
X99428716Y-74703480D01*
X99341904Y-74653360D01*
X99341904Y-74653359D01*
X99341900Y-74653358D01*
X99291785Y-74624423D01*
X99139057Y-74583499D01*
X98980943Y-74583499D01*
X98973347Y-74583499D01*
X98973331Y-74583500D01*
X82258500Y-74583500D01*
X82191461Y-74563815D01*
X82145706Y-74511011D01*
X82134500Y-74459500D01*
X82134500Y-72936148D01*
X138522900Y-72936148D01*
X138522900Y-73103691D01*
X138555582Y-73267994D01*
X138555584Y-73268002D01*
X138619695Y-73422780D01*
X138712773Y-73562082D01*
X138831237Y-73680546D01*
X138923894Y-73742457D01*
X138970537Y-73773623D01*
X139125318Y-73837736D01*
X139289628Y-73870419D01*
X139289632Y-73870420D01*
X139289633Y-73870420D01*
X139457168Y-73870420D01*
X139457169Y-73870419D01*
X139621482Y-73837736D01*
X139776263Y-73773623D01*
X139915562Y-73680546D01*
X140034026Y-73562082D01*
X140127103Y-73422783D01*
X140191216Y-73268002D01*
X140223900Y-73103687D01*
X140223900Y-72936153D01*
X140191216Y-72771838D01*
X140127103Y-72617057D01*
X140127101Y-72617054D01*
X140047103Y-72497327D01*
X140034028Y-72477760D01*
X140034023Y-72477754D01*
X139989578Y-72433309D01*
X143272900Y-72433309D01*
X143272900Y-73606530D01*
X143299364Y-73773623D01*
X143299998Y-73777621D01*
X143353527Y-73942365D01*
X143432168Y-74096708D01*
X143533986Y-74236848D01*
X143656472Y-74359334D01*
X143796612Y-74461152D01*
X143950955Y-74539793D01*
X144115699Y-74593322D01*
X144286789Y-74620420D01*
X144286790Y-74620420D01*
X144460010Y-74620420D01*
X144460011Y-74620420D01*
X144631101Y-74593322D01*
X144795845Y-74539793D01*
X144950188Y-74461152D01*
X145090328Y-74359334D01*
X145212814Y-74236848D01*
X145314632Y-74096708D01*
X145393273Y-73942365D01*
X145446802Y-73777621D01*
X145473900Y-73606531D01*
X145473900Y-72433309D01*
X145446802Y-72262219D01*
X145393273Y-72097475D01*
X145314632Y-71943132D01*
X145212814Y-71802992D01*
X145090328Y-71680506D01*
X144950188Y-71578688D01*
X144795845Y-71500047D01*
X144631101Y-71446518D01*
X144631099Y-71446517D01*
X144631098Y-71446517D01*
X144499671Y-71425701D01*
X144460011Y-71419420D01*
X144286789Y-71419420D01*
X144247128Y-71425701D01*
X144115702Y-71446517D01*
X143950952Y-71500048D01*
X143796611Y-71578688D01*
X143720694Y-71633846D01*
X143656472Y-71680506D01*
X143656470Y-71680508D01*
X143656469Y-71680508D01*
X143533988Y-71802989D01*
X143533988Y-71802990D01*
X143533986Y-71802992D01*
X143493414Y-71858835D01*
X143432168Y-71943131D01*
X143353528Y-72097472D01*
X143299997Y-72262222D01*
X143272900Y-72433309D01*
X139989578Y-72433309D01*
X139915562Y-72359293D01*
X139776260Y-72266215D01*
X139621482Y-72202104D01*
X139621474Y-72202102D01*
X139457171Y-72169420D01*
X139457167Y-72169420D01*
X139289633Y-72169420D01*
X139289628Y-72169420D01*
X139125325Y-72202102D01*
X139125317Y-72202104D01*
X138970539Y-72266215D01*
X138831237Y-72359293D01*
X138712773Y-72477757D01*
X138619695Y-72617059D01*
X138555584Y-72771837D01*
X138555582Y-72771845D01*
X138522900Y-72936148D01*
X82134500Y-72936148D01*
X82134500Y-71463060D01*
X82134501Y-71463047D01*
X82134501Y-71294944D01*
X82134501Y-71294943D01*
X82093577Y-71142216D01*
X82032947Y-71037200D01*
X82014524Y-71005290D01*
X82014518Y-71005282D01*
X80576166Y-69566930D01*
X78930733Y-67921497D01*
X125749500Y-67921497D01*
X125749500Y-68118342D01*
X125780290Y-68312746D01*
X125841117Y-68499949D01*
X125910681Y-68636475D01*
X125930476Y-68675325D01*
X126046172Y-68834566D01*
X126185354Y-68973748D01*
X126198385Y-68983215D01*
X126241050Y-69038542D01*
X126249500Y-69083533D01*
X126249500Y-69755585D01*
X126229815Y-69822624D01*
X126198388Y-69855901D01*
X126185356Y-69865369D01*
X126046171Y-70004555D01*
X125930476Y-70163794D01*
X125841117Y-70339170D01*
X125780290Y-70526373D01*
X125749500Y-70720777D01*
X125749500Y-70917622D01*
X125780290Y-71112026D01*
X125841117Y-71299229D01*
X125930476Y-71474605D01*
X126046172Y-71633846D01*
X126185354Y-71773028D01*
X126344595Y-71888724D01*
X126427455Y-71930943D01*
X126519970Y-71978082D01*
X126519972Y-71978082D01*
X126519975Y-71978084D01*
X126620317Y-72010687D01*
X126707173Y-72038909D01*
X126901578Y-72069700D01*
X126901583Y-72069700D01*
X127098422Y-72069700D01*
X127292826Y-72038909D01*
X127480025Y-71978084D01*
X127655405Y-71888724D01*
X127814646Y-71773028D01*
X127953828Y-71633846D01*
X128069524Y-71474605D01*
X128158884Y-71299225D01*
X128219709Y-71112026D01*
X128231560Y-71037200D01*
X128250500Y-70917622D01*
X128250500Y-70720777D01*
X128219709Y-70526373D01*
X128185761Y-70421894D01*
X128158884Y-70339175D01*
X128158882Y-70339172D01*
X128158882Y-70339170D01*
X128086652Y-70197411D01*
X128069524Y-70163795D01*
X127953828Y-70004554D01*
X127814646Y-69865372D01*
X127814645Y-69865371D01*
X127814643Y-69865369D01*
X127801612Y-69855901D01*
X127758948Y-69800570D01*
X127750500Y-69755585D01*
X127750500Y-69083533D01*
X127770185Y-69016494D01*
X127801613Y-68983216D01*
X127814646Y-68973748D01*
X127953828Y-68834566D01*
X128069524Y-68675325D01*
X128158884Y-68499945D01*
X128219709Y-68312746D01*
X128226797Y-68267994D01*
X128250500Y-68118342D01*
X128250500Y-67933309D01*
X137772900Y-67933309D01*
X137772900Y-68106530D01*
X137789292Y-68210030D01*
X137799998Y-68277621D01*
X137853527Y-68442365D01*
X137932168Y-68596708D01*
X138033986Y-68736848D01*
X138156472Y-68859334D01*
X138296612Y-68961152D01*
X138450955Y-69039793D01*
X138615699Y-69093322D01*
X138786789Y-69120420D01*
X138786790Y-69120420D01*
X139960010Y-69120420D01*
X139960011Y-69120420D01*
X140131101Y-69093322D01*
X140295845Y-69039793D01*
X140450188Y-68961152D01*
X140590328Y-68859334D01*
X140712814Y-68736848D01*
X140814632Y-68596708D01*
X140893273Y-68442365D01*
X140946802Y-68277621D01*
X140973900Y-68106531D01*
X140973900Y-67936148D01*
X143522900Y-67936148D01*
X143522900Y-68103691D01*
X143555582Y-68267994D01*
X143555584Y-68268002D01*
X143619695Y-68422780D01*
X143712773Y-68562082D01*
X143831237Y-68680546D01*
X143923894Y-68742457D01*
X143970537Y-68773623D01*
X144125318Y-68837736D01*
X144289628Y-68870419D01*
X144289632Y-68870420D01*
X144289633Y-68870420D01*
X144457168Y-68870420D01*
X144457169Y-68870419D01*
X144621482Y-68837736D01*
X144776263Y-68773623D01*
X144915562Y-68680546D01*
X145034026Y-68562082D01*
X145127103Y-68422783D01*
X145191216Y-68268002D01*
X145223900Y-68103687D01*
X145223900Y-67936153D01*
X145223899Y-67936148D01*
X146022900Y-67936148D01*
X146022900Y-68103691D01*
X146055582Y-68267994D01*
X146055584Y-68268002D01*
X146119695Y-68422780D01*
X146212773Y-68562082D01*
X146331237Y-68680546D01*
X146423894Y-68742457D01*
X146470537Y-68773623D01*
X146625318Y-68837736D01*
X146789628Y-68870419D01*
X146789632Y-68870420D01*
X146789633Y-68870420D01*
X146957168Y-68870420D01*
X146957169Y-68870419D01*
X147121482Y-68837736D01*
X147276263Y-68773623D01*
X147415562Y-68680546D01*
X147534026Y-68562082D01*
X147627103Y-68422783D01*
X147691216Y-68268002D01*
X147723900Y-68103687D01*
X147723900Y-67936153D01*
X147691216Y-67771838D01*
X147627103Y-67617057D01*
X147575545Y-67539895D01*
X147534026Y-67477757D01*
X147415562Y-67359293D01*
X147276260Y-67266215D01*
X147121482Y-67202104D01*
X147121474Y-67202102D01*
X146957171Y-67169420D01*
X146957167Y-67169420D01*
X146789633Y-67169420D01*
X146789628Y-67169420D01*
X146625325Y-67202102D01*
X146625317Y-67202104D01*
X146470539Y-67266215D01*
X146331237Y-67359293D01*
X146212773Y-67477757D01*
X146119695Y-67617059D01*
X146055584Y-67771837D01*
X146055582Y-67771845D01*
X146022900Y-67936148D01*
X145223899Y-67936148D01*
X145191216Y-67771838D01*
X145127103Y-67617057D01*
X145075545Y-67539895D01*
X145034026Y-67477757D01*
X144915562Y-67359293D01*
X144776260Y-67266215D01*
X144621482Y-67202104D01*
X144621474Y-67202102D01*
X144457171Y-67169420D01*
X144457167Y-67169420D01*
X144289633Y-67169420D01*
X144289628Y-67169420D01*
X144125325Y-67202102D01*
X144125317Y-67202104D01*
X143970539Y-67266215D01*
X143831237Y-67359293D01*
X143712773Y-67477757D01*
X143619695Y-67617059D01*
X143555584Y-67771837D01*
X143555582Y-67771845D01*
X143522900Y-67936148D01*
X140973900Y-67936148D01*
X140973900Y-67933309D01*
X140946802Y-67762219D01*
X140893273Y-67597475D01*
X140814632Y-67443132D01*
X140712814Y-67302992D01*
X140590328Y-67180506D01*
X140450188Y-67078688D01*
X140295845Y-67000047D01*
X140131101Y-66946518D01*
X140131099Y-66946517D01*
X140131098Y-66946517D01*
X139999671Y-66925701D01*
X139960011Y-66919420D01*
X138786789Y-66919420D01*
X138747128Y-66925701D01*
X138615702Y-66946517D01*
X138450952Y-67000048D01*
X138296611Y-67078688D01*
X138229929Y-67127136D01*
X138156472Y-67180506D01*
X138156470Y-67180508D01*
X138156469Y-67180508D01*
X138033988Y-67302989D01*
X138033988Y-67302990D01*
X138033986Y-67302992D01*
X138007669Y-67339214D01*
X137932168Y-67443131D01*
X137853528Y-67597472D01*
X137799997Y-67762222D01*
X137772900Y-67933309D01*
X128250500Y-67933309D01*
X128250500Y-67921497D01*
X128219709Y-67727093D01*
X128158882Y-67539890D01*
X128069523Y-67364514D01*
X128065938Y-67359580D01*
X127953828Y-67205274D01*
X127814646Y-67066092D01*
X127655405Y-66950396D01*
X127594611Y-66919420D01*
X127480029Y-66861037D01*
X127292826Y-66800210D01*
X127098422Y-66769420D01*
X127098417Y-66769420D01*
X126901583Y-66769420D01*
X126901578Y-66769420D01*
X126707173Y-66800210D01*
X126519970Y-66861037D01*
X126344594Y-66950396D01*
X126276255Y-67000048D01*
X126185354Y-67066092D01*
X126185352Y-67066094D01*
X126185351Y-67066094D01*
X126046174Y-67205271D01*
X126046174Y-67205272D01*
X126046172Y-67205274D01*
X126001896Y-67266215D01*
X125930476Y-67364514D01*
X125841117Y-67539890D01*
X125780290Y-67727093D01*
X125749500Y-67921497D01*
X78930733Y-67921497D01*
X77129589Y-66120354D01*
X77129588Y-66120352D01*
X77010717Y-66001481D01*
X77010712Y-66001477D01*
X76902120Y-65938782D01*
X76853905Y-65888215D01*
X76840681Y-65819608D01*
X76845042Y-65796806D01*
X76848598Y-65784569D01*
X76851500Y-65747694D01*
X76851500Y-65316306D01*
X76851497Y-65316272D01*
X76851494Y-65316222D01*
X76851496Y-65316212D01*
X76851404Y-65313868D01*
X76851993Y-65313844D01*
X76865862Y-65247845D01*
X76914916Y-65198091D01*
X76975112Y-65182500D01*
X89255331Y-65182500D01*
X89255347Y-65182501D01*
X89262943Y-65182501D01*
X89421054Y-65182501D01*
X89421057Y-65182501D01*
X89573785Y-65141577D01*
X89623904Y-65112639D01*
X89710716Y-65062520D01*
X89822520Y-64950716D01*
X89822520Y-64950714D01*
X89832728Y-64940507D01*
X89832730Y-64940504D01*
X93212457Y-61560777D01*
X125749500Y-61560777D01*
X125749500Y-61757622D01*
X125780290Y-61952026D01*
X125841117Y-62139229D01*
X125913348Y-62280989D01*
X125930476Y-62314605D01*
X126046172Y-62473846D01*
X126185354Y-62613028D01*
X126198385Y-62622495D01*
X126241050Y-62677822D01*
X126249500Y-62722813D01*
X126249500Y-63042185D01*
X126229815Y-63109224D01*
X126198388Y-63142501D01*
X126185356Y-63151969D01*
X126046171Y-63291155D01*
X125930476Y-63450394D01*
X125841117Y-63625770D01*
X125780290Y-63812973D01*
X125749500Y-64007377D01*
X125749500Y-64204222D01*
X125780290Y-64398626D01*
X125841117Y-64585829D01*
X125930476Y-64761205D01*
X126046172Y-64920446D01*
X126185354Y-65059628D01*
X126344595Y-65175324D01*
X126392165Y-65199562D01*
X126519970Y-65264682D01*
X126519972Y-65264682D01*
X126519975Y-65264684D01*
X126620317Y-65297287D01*
X126707173Y-65325509D01*
X126901578Y-65356300D01*
X126901583Y-65356300D01*
X127098422Y-65356300D01*
X127292826Y-65325509D01*
X127321128Y-65316313D01*
X127480025Y-65264684D01*
X127655405Y-65175324D01*
X127814646Y-65059628D01*
X127953828Y-64920446D01*
X128069524Y-64761205D01*
X128158884Y-64585825D01*
X128219709Y-64398626D01*
X128230668Y-64329432D01*
X128250500Y-64204222D01*
X128250500Y-64019189D01*
X137772900Y-64019189D01*
X137772900Y-64192411D01*
X137799998Y-64363501D01*
X137853527Y-64528245D01*
X137932168Y-64682588D01*
X138033986Y-64822728D01*
X138156472Y-64945214D01*
X138296612Y-65047032D01*
X138450955Y-65125673D01*
X138615699Y-65179202D01*
X138786789Y-65206300D01*
X138786790Y-65206300D01*
X139960010Y-65206300D01*
X139960011Y-65206300D01*
X140131101Y-65179202D01*
X140295845Y-65125673D01*
X140450188Y-65047032D01*
X140590328Y-64945214D01*
X140712814Y-64822728D01*
X140814632Y-64682588D01*
X140893273Y-64528245D01*
X140946802Y-64363501D01*
X140973900Y-64192411D01*
X140973900Y-64022028D01*
X143522900Y-64022028D01*
X143522900Y-64189571D01*
X143555582Y-64353874D01*
X143555584Y-64353882D01*
X143619695Y-64508660D01*
X143712773Y-64647962D01*
X143831237Y-64766426D01*
X143923894Y-64828337D01*
X143970537Y-64859503D01*
X144125318Y-64923616D01*
X144261545Y-64950713D01*
X144289628Y-64956299D01*
X144289632Y-64956300D01*
X144289633Y-64956300D01*
X144457168Y-64956300D01*
X144457169Y-64956299D01*
X144621482Y-64923616D01*
X144776263Y-64859503D01*
X144915562Y-64766426D01*
X145034026Y-64647962D01*
X145127103Y-64508663D01*
X145191216Y-64353882D01*
X145223900Y-64189567D01*
X145223900Y-64022033D01*
X145223899Y-64022028D01*
X146022900Y-64022028D01*
X146022900Y-64189571D01*
X146055582Y-64353874D01*
X146055584Y-64353882D01*
X146119695Y-64508660D01*
X146212773Y-64647962D01*
X146331237Y-64766426D01*
X146423894Y-64828337D01*
X146470537Y-64859503D01*
X146625318Y-64923616D01*
X146761545Y-64950713D01*
X146789628Y-64956299D01*
X146789632Y-64956300D01*
X146789633Y-64956300D01*
X146957168Y-64956300D01*
X146957169Y-64956299D01*
X147121482Y-64923616D01*
X147276263Y-64859503D01*
X147415562Y-64766426D01*
X147534026Y-64647962D01*
X147627103Y-64508663D01*
X147691216Y-64353882D01*
X147723900Y-64189567D01*
X147723900Y-64022033D01*
X147691216Y-63857718D01*
X147627103Y-63702937D01*
X147575545Y-63625775D01*
X147534026Y-63563637D01*
X147415562Y-63445173D01*
X147276260Y-63352095D01*
X147121482Y-63287984D01*
X147121474Y-63287982D01*
X146957171Y-63255300D01*
X146957167Y-63255300D01*
X146789633Y-63255300D01*
X146789628Y-63255300D01*
X146625325Y-63287982D01*
X146625317Y-63287984D01*
X146470539Y-63352095D01*
X146331237Y-63445173D01*
X146212773Y-63563637D01*
X146119695Y-63702939D01*
X146055584Y-63857717D01*
X146055582Y-63857725D01*
X146022900Y-64022028D01*
X145223899Y-64022028D01*
X145191216Y-63857718D01*
X145127103Y-63702937D01*
X145075545Y-63625775D01*
X145034026Y-63563637D01*
X144915562Y-63445173D01*
X144776260Y-63352095D01*
X144621482Y-63287984D01*
X144621474Y-63287982D01*
X144457171Y-63255300D01*
X144457167Y-63255300D01*
X144289633Y-63255300D01*
X144289628Y-63255300D01*
X144125325Y-63287982D01*
X144125317Y-63287984D01*
X143970539Y-63352095D01*
X143831237Y-63445173D01*
X143712773Y-63563637D01*
X143619695Y-63702939D01*
X143555584Y-63857717D01*
X143555582Y-63857725D01*
X143522900Y-64022028D01*
X140973900Y-64022028D01*
X140973900Y-64019189D01*
X140946802Y-63848099D01*
X140893273Y-63683355D01*
X140814632Y-63529012D01*
X140712814Y-63388872D01*
X140590328Y-63266386D01*
X140450188Y-63164568D01*
X140295845Y-63085927D01*
X140131101Y-63032398D01*
X140131099Y-63032397D01*
X140131098Y-63032397D01*
X139999671Y-63011581D01*
X139960011Y-63005300D01*
X138786789Y-63005300D01*
X138747128Y-63011581D01*
X138615702Y-63032397D01*
X138450952Y-63085928D01*
X138296611Y-63164568D01*
X138216656Y-63222659D01*
X138156472Y-63266386D01*
X138156470Y-63266388D01*
X138156469Y-63266388D01*
X138033988Y-63388869D01*
X138033988Y-63388870D01*
X138033986Y-63388872D01*
X138007019Y-63425989D01*
X137932168Y-63529011D01*
X137853528Y-63683352D01*
X137799997Y-63848102D01*
X137783985Y-63949200D01*
X137772900Y-64019189D01*
X128250500Y-64019189D01*
X128250500Y-64007377D01*
X128219709Y-63812973D01*
X128177592Y-63683352D01*
X128158884Y-63625775D01*
X128158882Y-63625772D01*
X128158882Y-63625770D01*
X128069523Y-63450394D01*
X127953828Y-63291154D01*
X127814646Y-63151972D01*
X127814645Y-63151971D01*
X127814643Y-63151969D01*
X127801612Y-63142501D01*
X127758948Y-63087170D01*
X127750500Y-63042185D01*
X127750500Y-62722813D01*
X127770185Y-62655774D01*
X127801613Y-62622496D01*
X127814646Y-62613028D01*
X127953828Y-62473846D01*
X128069524Y-62314605D01*
X128158884Y-62139225D01*
X128219709Y-61952026D01*
X128225373Y-61916265D01*
X128250500Y-61757622D01*
X128250500Y-61560777D01*
X128219709Y-61366373D01*
X128158882Y-61179170D01*
X128069523Y-61003794D01*
X128048105Y-60974315D01*
X127953828Y-60844554D01*
X127814646Y-60705372D01*
X127655405Y-60589676D01*
X127586111Y-60554369D01*
X127480029Y-60500317D01*
X127292826Y-60439490D01*
X127098422Y-60408700D01*
X127098417Y-60408700D01*
X126901583Y-60408700D01*
X126901578Y-60408700D01*
X126707173Y-60439490D01*
X126519970Y-60500317D01*
X126344594Y-60589676D01*
X126253741Y-60655685D01*
X126185354Y-60705372D01*
X126185352Y-60705374D01*
X126185351Y-60705374D01*
X126046174Y-60844551D01*
X126046174Y-60844552D01*
X126046172Y-60844554D01*
X126029316Y-60867754D01*
X125930476Y-61003794D01*
X125841117Y-61179170D01*
X125780290Y-61366373D01*
X125749500Y-61560777D01*
X93212457Y-61560777D01*
X95751206Y-59022028D01*
X138522900Y-59022028D01*
X138522900Y-59189571D01*
X138555582Y-59353874D01*
X138555584Y-59353882D01*
X138619695Y-59508660D01*
X138712773Y-59647962D01*
X138831237Y-59766426D01*
X138881624Y-59800093D01*
X138970537Y-59859503D01*
X139125318Y-59923616D01*
X139289628Y-59956299D01*
X139289632Y-59956300D01*
X139289633Y-59956300D01*
X139457168Y-59956300D01*
X139457169Y-59956299D01*
X139621482Y-59923616D01*
X139776263Y-59859503D01*
X139915562Y-59766426D01*
X140034026Y-59647962D01*
X140127103Y-59508663D01*
X140191216Y-59353882D01*
X140223900Y-59189567D01*
X140223900Y-59022033D01*
X140191216Y-58857718D01*
X140127103Y-58702937D01*
X140104250Y-58668735D01*
X140047103Y-58583207D01*
X140034028Y-58563640D01*
X140034023Y-58563634D01*
X139989578Y-58519189D01*
X143272900Y-58519189D01*
X143272900Y-59692410D01*
X143299364Y-59859503D01*
X143299998Y-59863501D01*
X143353527Y-60028245D01*
X143432168Y-60182588D01*
X143533986Y-60322728D01*
X143656472Y-60445214D01*
X143796612Y-60547032D01*
X143950955Y-60625673D01*
X144115699Y-60679202D01*
X144286789Y-60706300D01*
X144286790Y-60706300D01*
X144460010Y-60706300D01*
X144460011Y-60706300D01*
X144631101Y-60679202D01*
X144795845Y-60625673D01*
X144950188Y-60547032D01*
X145090328Y-60445214D01*
X145212814Y-60322728D01*
X145314632Y-60182588D01*
X145393273Y-60028245D01*
X145446802Y-59863501D01*
X145473900Y-59692411D01*
X145473900Y-58519189D01*
X145446802Y-58348099D01*
X145393273Y-58183355D01*
X145314632Y-58029012D01*
X145212814Y-57888872D01*
X145090328Y-57766386D01*
X144950188Y-57664568D01*
X144795845Y-57585927D01*
X144631101Y-57532398D01*
X144631099Y-57532397D01*
X144631098Y-57532397D01*
X144499671Y-57511581D01*
X144460011Y-57505300D01*
X144286789Y-57505300D01*
X144247128Y-57511581D01*
X144115702Y-57532397D01*
X143950952Y-57585928D01*
X143796611Y-57664568D01*
X143716656Y-57722659D01*
X143656472Y-57766386D01*
X143656470Y-57766388D01*
X143656469Y-57766388D01*
X143533988Y-57888869D01*
X143533988Y-57888870D01*
X143533986Y-57888872D01*
X143497217Y-57939480D01*
X143432168Y-58029011D01*
X143353528Y-58183352D01*
X143299997Y-58348102D01*
X143272900Y-58519189D01*
X139989578Y-58519189D01*
X139915562Y-58445173D01*
X139776260Y-58352095D01*
X139621482Y-58287984D01*
X139621474Y-58287982D01*
X139457171Y-58255300D01*
X139457167Y-58255300D01*
X139289633Y-58255300D01*
X139289628Y-58255300D01*
X139125325Y-58287982D01*
X139125317Y-58287984D01*
X138970539Y-58352095D01*
X138831237Y-58445173D01*
X138712773Y-58563637D01*
X138619695Y-58702939D01*
X138555584Y-58857717D01*
X138555582Y-58857725D01*
X138522900Y-59022028D01*
X95751206Y-59022028D01*
X98829478Y-55943755D01*
X98890799Y-55910272D01*
X98955473Y-55913506D01*
X98997757Y-55927246D01*
X99207713Y-55960500D01*
X99207714Y-55960500D01*
X99420286Y-55960500D01*
X99420287Y-55960500D01*
X99630243Y-55927246D01*
X99832412Y-55861557D01*
X100021816Y-55765051D01*
X100108471Y-55702093D01*
X100193786Y-55640109D01*
X100193788Y-55640106D01*
X100193792Y-55640104D01*
X100344104Y-55489792D01*
X100344106Y-55489788D01*
X100344109Y-55489786D01*
X100469048Y-55317820D01*
X100469047Y-55317820D01*
X100469051Y-55317816D01*
X100473514Y-55309054D01*
X100521488Y-55258259D01*
X100589308Y-55241463D01*
X100655444Y-55263999D01*
X100694486Y-55309056D01*
X100698951Y-55317820D01*
X100823890Y-55489786D01*
X100974213Y-55640109D01*
X101146179Y-55765048D01*
X101146181Y-55765049D01*
X101146184Y-55765051D01*
X101335588Y-55861557D01*
X101537757Y-55927246D01*
X101747713Y-55960500D01*
X101747714Y-55960500D01*
X101960286Y-55960500D01*
X101960287Y-55960500D01*
X102170243Y-55927246D01*
X102372412Y-55861557D01*
X102561816Y-55765051D01*
X102648471Y-55702093D01*
X102733786Y-55640109D01*
X102733788Y-55640106D01*
X102733792Y-55640104D01*
X102884104Y-55489792D01*
X102884106Y-55489788D01*
X102884109Y-55489786D01*
X103009048Y-55317820D01*
X103009047Y-55317820D01*
X103009051Y-55317816D01*
X103013514Y-55309054D01*
X103061488Y-55258259D01*
X103129308Y-55241463D01*
X103195444Y-55263999D01*
X103234486Y-55309056D01*
X103238951Y-55317820D01*
X103363890Y-55489786D01*
X103514213Y-55640109D01*
X103686179Y-55765048D01*
X103686181Y-55765049D01*
X103686184Y-55765051D01*
X103875588Y-55861557D01*
X104077757Y-55927246D01*
X104287713Y-55960500D01*
X104287714Y-55960500D01*
X104500286Y-55960500D01*
X104500287Y-55960500D01*
X104710243Y-55927246D01*
X104912412Y-55861557D01*
X105101816Y-55765051D01*
X105188471Y-55702093D01*
X105273786Y-55640109D01*
X105273788Y-55640106D01*
X105273792Y-55640104D01*
X105424104Y-55489792D01*
X105424106Y-55489788D01*
X105424109Y-55489786D01*
X105549048Y-55317820D01*
X105549047Y-55317820D01*
X105549051Y-55317816D01*
X105553514Y-55309054D01*
X105601488Y-55258259D01*
X105669308Y-55241463D01*
X105735444Y-55263999D01*
X105774486Y-55309056D01*
X105778951Y-55317820D01*
X105903890Y-55489786D01*
X106054213Y-55640109D01*
X106226179Y-55765048D01*
X106226181Y-55765049D01*
X106226184Y-55765051D01*
X106415588Y-55861557D01*
X106617757Y-55927246D01*
X106827713Y-55960500D01*
X106827714Y-55960500D01*
X107040286Y-55960500D01*
X107040287Y-55960500D01*
X107250243Y-55927246D01*
X107452412Y-55861557D01*
X107641816Y-55765051D01*
X107728471Y-55702093D01*
X107813786Y-55640109D01*
X107813788Y-55640106D01*
X107813792Y-55640104D01*
X107964104Y-55489792D01*
X107964106Y-55489788D01*
X107964109Y-55489786D01*
X108089048Y-55317820D01*
X108089047Y-55317820D01*
X108089051Y-55317816D01*
X108093514Y-55309054D01*
X108141488Y-55258259D01*
X108209308Y-55241463D01*
X108275444Y-55263999D01*
X108314486Y-55309056D01*
X108318951Y-55317820D01*
X108443890Y-55489786D01*
X108594213Y-55640109D01*
X108766179Y-55765048D01*
X108766181Y-55765049D01*
X108766184Y-55765051D01*
X108955588Y-55861557D01*
X109157757Y-55927246D01*
X109367713Y-55960500D01*
X109367714Y-55960500D01*
X109580286Y-55960500D01*
X109580287Y-55960500D01*
X109790243Y-55927246D01*
X109992412Y-55861557D01*
X110181816Y-55765051D01*
X110268471Y-55702093D01*
X110353786Y-55640109D01*
X110353788Y-55640106D01*
X110353792Y-55640104D01*
X110504104Y-55489792D01*
X110504106Y-55489788D01*
X110504109Y-55489786D01*
X110629048Y-55317820D01*
X110629047Y-55317820D01*
X110629051Y-55317816D01*
X110633514Y-55309054D01*
X110681488Y-55258259D01*
X110749308Y-55241463D01*
X110815444Y-55263999D01*
X110854486Y-55309056D01*
X110858951Y-55317820D01*
X110983890Y-55489786D01*
X111134213Y-55640109D01*
X111306179Y-55765048D01*
X111306181Y-55765049D01*
X111306184Y-55765051D01*
X111495588Y-55861557D01*
X111697757Y-55927246D01*
X111907713Y-55960500D01*
X111907714Y-55960500D01*
X112120286Y-55960500D01*
X112120287Y-55960500D01*
X112330243Y-55927246D01*
X112532412Y-55861557D01*
X112721816Y-55765051D01*
X112808471Y-55702093D01*
X112893786Y-55640109D01*
X112893788Y-55640106D01*
X112893792Y-55640104D01*
X113044104Y-55489792D01*
X113044106Y-55489788D01*
X113044109Y-55489786D01*
X113169048Y-55317820D01*
X113169047Y-55317820D01*
X113169051Y-55317816D01*
X113173514Y-55309054D01*
X113221488Y-55258259D01*
X113289308Y-55241463D01*
X113355444Y-55263999D01*
X113394486Y-55309056D01*
X113398951Y-55317820D01*
X113523890Y-55489786D01*
X113674213Y-55640109D01*
X113846179Y-55765048D01*
X113846181Y-55765049D01*
X113846184Y-55765051D01*
X114035588Y-55861557D01*
X114237757Y-55927246D01*
X114447713Y-55960500D01*
X114447714Y-55960500D01*
X114660286Y-55960500D01*
X114660287Y-55960500D01*
X114870243Y-55927246D01*
X115072412Y-55861557D01*
X115261816Y-55765051D01*
X115348471Y-55702093D01*
X115433786Y-55640109D01*
X115433788Y-55640106D01*
X115433792Y-55640104D01*
X115584104Y-55489792D01*
X115584106Y-55489788D01*
X115584109Y-55489786D01*
X115709048Y-55317820D01*
X115709047Y-55317820D01*
X115709051Y-55317816D01*
X115713514Y-55309054D01*
X115761488Y-55258259D01*
X115829308Y-55241463D01*
X115895444Y-55263999D01*
X115934486Y-55309056D01*
X115938951Y-55317820D01*
X116063890Y-55489786D01*
X116214213Y-55640109D01*
X116386179Y-55765048D01*
X116386181Y-55765049D01*
X116386184Y-55765051D01*
X116575588Y-55861557D01*
X116777757Y-55927246D01*
X116987713Y-55960500D01*
X116987714Y-55960500D01*
X117200286Y-55960500D01*
X117200287Y-55960500D01*
X117410243Y-55927246D01*
X117612412Y-55861557D01*
X117801816Y-55765051D01*
X117888471Y-55702093D01*
X117973786Y-55640109D01*
X117973788Y-55640106D01*
X117973792Y-55640104D01*
X118124104Y-55489792D01*
X118124106Y-55489788D01*
X118124109Y-55489786D01*
X118209890Y-55371717D01*
X118249051Y-55317816D01*
X118253793Y-55308508D01*
X118301763Y-55257711D01*
X118369583Y-55240911D01*
X118435719Y-55263445D01*
X118474763Y-55308500D01*
X118479373Y-55317547D01*
X118518728Y-55371716D01*
X119151037Y-54739408D01*
X119168075Y-54802993D01*
X119233901Y-54917007D01*
X119326993Y-55010099D01*
X119441007Y-55075925D01*
X119504590Y-55092962D01*
X118872282Y-55725269D01*
X118872282Y-55725270D01*
X118926449Y-55764624D01*
X119115782Y-55861095D01*
X119317870Y-55926757D01*
X119527754Y-55960000D01*
X119740246Y-55960000D01*
X119950127Y-55926757D01*
X119950130Y-55926757D01*
X120152217Y-55861095D01*
X120341554Y-55764622D01*
X120395716Y-55725270D01*
X120395717Y-55725270D01*
X119763408Y-55092962D01*
X119826993Y-55075925D01*
X119941007Y-55010099D01*
X120034099Y-54917007D01*
X120099925Y-54802993D01*
X120116962Y-54739409D01*
X120749270Y-55371717D01*
X120749270Y-55371716D01*
X120788622Y-55317555D01*
X120793232Y-55308507D01*
X120841205Y-55257709D01*
X120909025Y-55240912D01*
X120975161Y-55263447D01*
X121014204Y-55308504D01*
X121018949Y-55317817D01*
X121143890Y-55489786D01*
X121294213Y-55640109D01*
X121466179Y-55765048D01*
X121466181Y-55765049D01*
X121466184Y-55765051D01*
X121655588Y-55861557D01*
X121857757Y-55927246D01*
X122067713Y-55960500D01*
X122067714Y-55960500D01*
X122280286Y-55960500D01*
X122280287Y-55960500D01*
X122490243Y-55927246D01*
X122692412Y-55861557D01*
X122881816Y-55765051D01*
X122968471Y-55702093D01*
X123053786Y-55640109D01*
X123053788Y-55640106D01*
X123053792Y-55640104D01*
X123204104Y-55489792D01*
X123204106Y-55489788D01*
X123204109Y-55489786D01*
X123329048Y-55317820D01*
X123329047Y-55317820D01*
X123329051Y-55317816D01*
X123333514Y-55309054D01*
X123381488Y-55258259D01*
X123449308Y-55241463D01*
X123515444Y-55263999D01*
X123554486Y-55309056D01*
X123558951Y-55317820D01*
X123683890Y-55489786D01*
X123834213Y-55640109D01*
X124006179Y-55765048D01*
X124006181Y-55765049D01*
X124006184Y-55765051D01*
X124195588Y-55861557D01*
X124397757Y-55927246D01*
X124607713Y-55960500D01*
X124607714Y-55960500D01*
X124820286Y-55960500D01*
X124820287Y-55960500D01*
X125030243Y-55927246D01*
X125232412Y-55861557D01*
X125421816Y-55765051D01*
X125508471Y-55702093D01*
X125593786Y-55640109D01*
X125593788Y-55640106D01*
X125593792Y-55640104D01*
X125744104Y-55489792D01*
X125744106Y-55489788D01*
X125744109Y-55489786D01*
X125869048Y-55317820D01*
X125869047Y-55317820D01*
X125869051Y-55317816D01*
X125873514Y-55309054D01*
X125921488Y-55258259D01*
X125989308Y-55241463D01*
X126055444Y-55263999D01*
X126094486Y-55309056D01*
X126098951Y-55317820D01*
X126223890Y-55489786D01*
X126374213Y-55640109D01*
X126546179Y-55765048D01*
X126546181Y-55765049D01*
X126546184Y-55765051D01*
X126735588Y-55861557D01*
X126937757Y-55927246D01*
X127147713Y-55960500D01*
X127147714Y-55960500D01*
X127360286Y-55960500D01*
X127360287Y-55960500D01*
X127570243Y-55927246D01*
X127772412Y-55861557D01*
X127961816Y-55765051D01*
X128048471Y-55702093D01*
X128133786Y-55640109D01*
X128133788Y-55640106D01*
X128133792Y-55640104D01*
X128284104Y-55489792D01*
X128284106Y-55489788D01*
X128284109Y-55489786D01*
X128409048Y-55317820D01*
X128409047Y-55317820D01*
X128409051Y-55317816D01*
X128413514Y-55309054D01*
X128461488Y-55258259D01*
X128529308Y-55241463D01*
X128595444Y-55263999D01*
X128634486Y-55309056D01*
X128638951Y-55317820D01*
X128763890Y-55489786D01*
X128914213Y-55640109D01*
X129086179Y-55765048D01*
X129086181Y-55765049D01*
X129086184Y-55765051D01*
X129275588Y-55861557D01*
X129477757Y-55927246D01*
X129687713Y-55960500D01*
X129687714Y-55960500D01*
X129900286Y-55960500D01*
X129900287Y-55960500D01*
X130110243Y-55927246D01*
X130312412Y-55861557D01*
X130501816Y-55765051D01*
X130588471Y-55702093D01*
X130673786Y-55640109D01*
X130673788Y-55640106D01*
X130673792Y-55640104D01*
X130824104Y-55489792D01*
X130824106Y-55489788D01*
X130824109Y-55489786D01*
X130949048Y-55317820D01*
X130949047Y-55317820D01*
X130949051Y-55317816D01*
X131045557Y-55128412D01*
X131111246Y-54926243D01*
X131144500Y-54716287D01*
X131144500Y-54503713D01*
X131111246Y-54293757D01*
X131045557Y-54091588D01*
X131045555Y-54091585D01*
X131045555Y-54091583D01*
X131034870Y-54070613D01*
X131034869Y-54070612D01*
X131010117Y-54022033D01*
X131008668Y-54019189D01*
X137772900Y-54019189D01*
X137772900Y-54192410D01*
X137788951Y-54293757D01*
X137799998Y-54363501D01*
X137853527Y-54528245D01*
X137932168Y-54682588D01*
X138033986Y-54822728D01*
X138156472Y-54945214D01*
X138296612Y-55047032D01*
X138450955Y-55125673D01*
X138615699Y-55179202D01*
X138786789Y-55206300D01*
X138786790Y-55206300D01*
X139960010Y-55206300D01*
X139960011Y-55206300D01*
X140131101Y-55179202D01*
X140295845Y-55125673D01*
X140450188Y-55047032D01*
X140590328Y-54945214D01*
X140712814Y-54822728D01*
X140814632Y-54682588D01*
X140893273Y-54528245D01*
X140946802Y-54363501D01*
X140973900Y-54192411D01*
X140973900Y-54022028D01*
X143522900Y-54022028D01*
X143522900Y-54189571D01*
X143555582Y-54353874D01*
X143555584Y-54353882D01*
X143619695Y-54508660D01*
X143712773Y-54647962D01*
X143831237Y-54766426D01*
X143923894Y-54828337D01*
X143970537Y-54859503D01*
X143970538Y-54859503D01*
X143970539Y-54859504D01*
X144005601Y-54874027D01*
X144125318Y-54923616D01*
X144289628Y-54956299D01*
X144289632Y-54956300D01*
X144289633Y-54956300D01*
X144457168Y-54956300D01*
X144457169Y-54956299D01*
X144621482Y-54923616D01*
X144776263Y-54859503D01*
X144915562Y-54766426D01*
X145034026Y-54647962D01*
X145127103Y-54508663D01*
X145191216Y-54353882D01*
X145223900Y-54189567D01*
X145223900Y-54022033D01*
X145223899Y-54022028D01*
X146022900Y-54022028D01*
X146022900Y-54189571D01*
X146055582Y-54353874D01*
X146055584Y-54353882D01*
X146119695Y-54508660D01*
X146212773Y-54647962D01*
X146331237Y-54766426D01*
X146423894Y-54828337D01*
X146470537Y-54859503D01*
X146470538Y-54859503D01*
X146470539Y-54859504D01*
X146505601Y-54874027D01*
X146625318Y-54923616D01*
X146789628Y-54956299D01*
X146789632Y-54956300D01*
X146789633Y-54956300D01*
X146957168Y-54956300D01*
X146957169Y-54956299D01*
X147121482Y-54923616D01*
X147276263Y-54859503D01*
X147415562Y-54766426D01*
X147534026Y-54647962D01*
X147627103Y-54508663D01*
X147691216Y-54353882D01*
X147723900Y-54189567D01*
X147723900Y-54022033D01*
X147691216Y-53857718D01*
X147627103Y-53702937D01*
X147586434Y-53642072D01*
X147534026Y-53563637D01*
X147415562Y-53445173D01*
X147276260Y-53352095D01*
X147121482Y-53287984D01*
X147121474Y-53287982D01*
X146957171Y-53255300D01*
X146957167Y-53255300D01*
X146789633Y-53255300D01*
X146789628Y-53255300D01*
X146625325Y-53287982D01*
X146625317Y-53287984D01*
X146470539Y-53352095D01*
X146331237Y-53445173D01*
X146212773Y-53563637D01*
X146119695Y-53702939D01*
X146055584Y-53857717D01*
X146055582Y-53857725D01*
X146022900Y-54022028D01*
X145223899Y-54022028D01*
X145191216Y-53857718D01*
X145127103Y-53702937D01*
X145086434Y-53642072D01*
X145034026Y-53563637D01*
X144915562Y-53445173D01*
X144776260Y-53352095D01*
X144621482Y-53287984D01*
X144621474Y-53287982D01*
X144457171Y-53255300D01*
X144457167Y-53255300D01*
X144289633Y-53255300D01*
X144289628Y-53255300D01*
X144125325Y-53287982D01*
X144125317Y-53287984D01*
X143970539Y-53352095D01*
X143831237Y-53445173D01*
X143712773Y-53563637D01*
X143619695Y-53702939D01*
X143555584Y-53857717D01*
X143555582Y-53857725D01*
X143522900Y-54022028D01*
X140973900Y-54022028D01*
X140973900Y-54019189D01*
X140946802Y-53848099D01*
X140893273Y-53683355D01*
X140814632Y-53529012D01*
X140712814Y-53388872D01*
X140590328Y-53266386D01*
X140450188Y-53164568D01*
X140295845Y-53085927D01*
X140131101Y-53032398D01*
X140131099Y-53032397D01*
X140131098Y-53032397D01*
X139999671Y-53011581D01*
X139960011Y-53005300D01*
X138786789Y-53005300D01*
X138747128Y-53011581D01*
X138615702Y-53032397D01*
X138450952Y-53085928D01*
X138296611Y-53164568D01*
X138216656Y-53222659D01*
X138156472Y-53266386D01*
X138156470Y-53266388D01*
X138156469Y-53266388D01*
X138033988Y-53388869D01*
X138033988Y-53388870D01*
X138033986Y-53388872D01*
X138023858Y-53402812D01*
X137932168Y-53529011D01*
X137853528Y-53683352D01*
X137799997Y-53848102D01*
X137772900Y-54019189D01*
X131008668Y-54019189D01*
X130949051Y-53902184D01*
X130949049Y-53902181D01*
X130949048Y-53902179D01*
X130824109Y-53730213D01*
X130673786Y-53579890D01*
X130501820Y-53454951D01*
X130312414Y-53358444D01*
X130312413Y-53358443D01*
X130312412Y-53358443D01*
X130110243Y-53292754D01*
X130110241Y-53292753D01*
X130110240Y-53292753D01*
X129948957Y-53267208D01*
X129900287Y-53259500D01*
X129687713Y-53259500D01*
X129639042Y-53267208D01*
X129477760Y-53292753D01*
X129275585Y-53358444D01*
X129086179Y-53454951D01*
X128914213Y-53579890D01*
X128763890Y-53730213D01*
X128638949Y-53902182D01*
X128634484Y-53910946D01*
X128586509Y-53961742D01*
X128518688Y-53978536D01*
X128452553Y-53955998D01*
X128413516Y-53910946D01*
X128409050Y-53902182D01*
X128284109Y-53730213D01*
X128133786Y-53579890D01*
X127961820Y-53454951D01*
X127772414Y-53358444D01*
X127772413Y-53358443D01*
X127772412Y-53358443D01*
X127570243Y-53292754D01*
X127570241Y-53292753D01*
X127570240Y-53292753D01*
X127408957Y-53267208D01*
X127360287Y-53259500D01*
X127147713Y-53259500D01*
X127099042Y-53267208D01*
X126937760Y-53292753D01*
X126735585Y-53358444D01*
X126546179Y-53454951D01*
X126374213Y-53579890D01*
X126223890Y-53730213D01*
X126098949Y-53902182D01*
X126094484Y-53910946D01*
X126046509Y-53961742D01*
X125978688Y-53978536D01*
X125912553Y-53955998D01*
X125873516Y-53910946D01*
X125869050Y-53902182D01*
X125744109Y-53730213D01*
X125593786Y-53579890D01*
X125421820Y-53454951D01*
X125232414Y-53358444D01*
X125232413Y-53358443D01*
X125232412Y-53358443D01*
X125030243Y-53292754D01*
X125030241Y-53292753D01*
X125030240Y-53292753D01*
X124868957Y-53267208D01*
X124820287Y-53259500D01*
X124607713Y-53259500D01*
X124559042Y-53267208D01*
X124397760Y-53292753D01*
X124195585Y-53358444D01*
X124006179Y-53454951D01*
X123834213Y-53579890D01*
X123683890Y-53730213D01*
X123558949Y-53902182D01*
X123554484Y-53910946D01*
X123506509Y-53961742D01*
X123438688Y-53978536D01*
X123372553Y-53955998D01*
X123333516Y-53910946D01*
X123329050Y-53902182D01*
X123204109Y-53730213D01*
X123053786Y-53579890D01*
X122881820Y-53454951D01*
X122692414Y-53358444D01*
X122692413Y-53358443D01*
X122692412Y-53358443D01*
X122490243Y-53292754D01*
X122490241Y-53292753D01*
X122490240Y-53292753D01*
X122328957Y-53267208D01*
X122280287Y-53259500D01*
X122067713Y-53259500D01*
X122019042Y-53267208D01*
X121857760Y-53292753D01*
X121655585Y-53358444D01*
X121466179Y-53454951D01*
X121294213Y-53579890D01*
X121143890Y-53730213D01*
X121018949Y-53902182D01*
X121014202Y-53911499D01*
X120966227Y-53962293D01*
X120898405Y-53979087D01*
X120832271Y-53956548D01*
X120793234Y-53911495D01*
X120788626Y-53902452D01*
X120749270Y-53848282D01*
X120749269Y-53848282D01*
X120116962Y-54480590D01*
X120099925Y-54417007D01*
X120034099Y-54302993D01*
X119941007Y-54209901D01*
X119826993Y-54144075D01*
X119763409Y-54127037D01*
X120395716Y-53494728D01*
X120341550Y-53455375D01*
X120152217Y-53358904D01*
X119950129Y-53293242D01*
X119740246Y-53260000D01*
X119527754Y-53260000D01*
X119317872Y-53293242D01*
X119317869Y-53293242D01*
X119115782Y-53358904D01*
X118926439Y-53455380D01*
X118872282Y-53494727D01*
X118872282Y-53494728D01*
X119504591Y-54127037D01*
X119441007Y-54144075D01*
X119326993Y-54209901D01*
X119233901Y-54302993D01*
X119168075Y-54417007D01*
X119151037Y-54480591D01*
X118518728Y-53848282D01*
X118518727Y-53848282D01*
X118479380Y-53902440D01*
X118479376Y-53902446D01*
X118474760Y-53911505D01*
X118426781Y-53962297D01*
X118358959Y-53979087D01*
X118292826Y-53956543D01*
X118253794Y-53911493D01*
X118249051Y-53902184D01*
X118249049Y-53902181D01*
X118249048Y-53902179D01*
X118124109Y-53730213D01*
X117973786Y-53579890D01*
X117801820Y-53454951D01*
X117612414Y-53358444D01*
X117612413Y-53358443D01*
X117612412Y-53358443D01*
X117410243Y-53292754D01*
X117410241Y-53292753D01*
X117410240Y-53292753D01*
X117248957Y-53267208D01*
X117200287Y-53259500D01*
X116987713Y-53259500D01*
X116939042Y-53267208D01*
X116777760Y-53292753D01*
X116575585Y-53358444D01*
X116386179Y-53454951D01*
X116214213Y-53579890D01*
X116063890Y-53730213D01*
X115938949Y-53902182D01*
X115934484Y-53910946D01*
X115886509Y-53961742D01*
X115818688Y-53978536D01*
X115752553Y-53955998D01*
X115713516Y-53910946D01*
X115709050Y-53902182D01*
X115584109Y-53730213D01*
X115433786Y-53579890D01*
X115261820Y-53454951D01*
X115072414Y-53358444D01*
X115072413Y-53358443D01*
X115072412Y-53358443D01*
X114870243Y-53292754D01*
X114870241Y-53292753D01*
X114870240Y-53292753D01*
X114708957Y-53267208D01*
X114660287Y-53259500D01*
X114447713Y-53259500D01*
X114399042Y-53267208D01*
X114237760Y-53292753D01*
X114035585Y-53358444D01*
X113846179Y-53454951D01*
X113674213Y-53579890D01*
X113523890Y-53730213D01*
X113398949Y-53902182D01*
X113394484Y-53910946D01*
X113346509Y-53961742D01*
X113278688Y-53978536D01*
X113212553Y-53955998D01*
X113173516Y-53910946D01*
X113169050Y-53902182D01*
X113044109Y-53730213D01*
X112893786Y-53579890D01*
X112721820Y-53454951D01*
X112532414Y-53358444D01*
X112532413Y-53358443D01*
X112532412Y-53358443D01*
X112330243Y-53292754D01*
X112330241Y-53292753D01*
X112330240Y-53292753D01*
X112168957Y-53267208D01*
X112120287Y-53259500D01*
X111907713Y-53259500D01*
X111859042Y-53267208D01*
X111697760Y-53292753D01*
X111495585Y-53358444D01*
X111306179Y-53454951D01*
X111134213Y-53579890D01*
X110983890Y-53730213D01*
X110858949Y-53902182D01*
X110854484Y-53910946D01*
X110806509Y-53961742D01*
X110738688Y-53978536D01*
X110672553Y-53955998D01*
X110633516Y-53910946D01*
X110629050Y-53902182D01*
X110504109Y-53730213D01*
X110353786Y-53579890D01*
X110181820Y-53454951D01*
X109992414Y-53358444D01*
X109992413Y-53358443D01*
X109992412Y-53358443D01*
X109790243Y-53292754D01*
X109790241Y-53292753D01*
X109790240Y-53292753D01*
X109628957Y-53267208D01*
X109580287Y-53259500D01*
X109367713Y-53259500D01*
X109319042Y-53267208D01*
X109157760Y-53292753D01*
X108955585Y-53358444D01*
X108766179Y-53454951D01*
X108594213Y-53579890D01*
X108443890Y-53730213D01*
X108318949Y-53902182D01*
X108314484Y-53910946D01*
X108266509Y-53961742D01*
X108198688Y-53978536D01*
X108132553Y-53955998D01*
X108093516Y-53910946D01*
X108089050Y-53902182D01*
X107964109Y-53730213D01*
X107813786Y-53579890D01*
X107641820Y-53454951D01*
X107452414Y-53358444D01*
X107452413Y-53358443D01*
X107452412Y-53358443D01*
X107250243Y-53292754D01*
X107250241Y-53292753D01*
X107250240Y-53292753D01*
X107088957Y-53267208D01*
X107040287Y-53259500D01*
X106827713Y-53259500D01*
X106779042Y-53267208D01*
X106617760Y-53292753D01*
X106415585Y-53358444D01*
X106226179Y-53454951D01*
X106054213Y-53579890D01*
X105903890Y-53730213D01*
X105778949Y-53902182D01*
X105774484Y-53910946D01*
X105726509Y-53961742D01*
X105658688Y-53978536D01*
X105592553Y-53955998D01*
X105553516Y-53910946D01*
X105549050Y-53902182D01*
X105424109Y-53730213D01*
X105273786Y-53579890D01*
X105101820Y-53454951D01*
X104912414Y-53358444D01*
X104912413Y-53358443D01*
X104912412Y-53358443D01*
X104710243Y-53292754D01*
X104710241Y-53292753D01*
X104710240Y-53292753D01*
X104548957Y-53267208D01*
X104500287Y-53259500D01*
X104287713Y-53259500D01*
X104239042Y-53267208D01*
X104077760Y-53292753D01*
X103875585Y-53358444D01*
X103686179Y-53454951D01*
X103514213Y-53579890D01*
X103363890Y-53730213D01*
X103238949Y-53902182D01*
X103234484Y-53910946D01*
X103186509Y-53961742D01*
X103118688Y-53978536D01*
X103052553Y-53955998D01*
X103013516Y-53910946D01*
X103009050Y-53902182D01*
X102884109Y-53730213D01*
X102733786Y-53579890D01*
X102561820Y-53454951D01*
X102372414Y-53358444D01*
X102372413Y-53358443D01*
X102372412Y-53358443D01*
X102170243Y-53292754D01*
X102170241Y-53292753D01*
X102170240Y-53292753D01*
X102008957Y-53267208D01*
X101960287Y-53259500D01*
X101747713Y-53259500D01*
X101699042Y-53267208D01*
X101537760Y-53292753D01*
X101335585Y-53358444D01*
X101146179Y-53454951D01*
X100974213Y-53579890D01*
X100823890Y-53730213D01*
X100698949Y-53902182D01*
X100694484Y-53910946D01*
X100646509Y-53961742D01*
X100578688Y-53978536D01*
X100512553Y-53955998D01*
X100473516Y-53910946D01*
X100469050Y-53902182D01*
X100344109Y-53730213D01*
X100193786Y-53579890D01*
X100021820Y-53454951D01*
X99832414Y-53358444D01*
X99832413Y-53358443D01*
X99832412Y-53358443D01*
X99630243Y-53292754D01*
X99630241Y-53292753D01*
X99630240Y-53292753D01*
X99468957Y-53267208D01*
X99420287Y-53259500D01*
X99207713Y-53259500D01*
X99159042Y-53267208D01*
X98997760Y-53292753D01*
X98795585Y-53358444D01*
X98606179Y-53454951D01*
X98434213Y-53579890D01*
X98283890Y-53730213D01*
X98158949Y-53902182D01*
X98154484Y-53910946D01*
X98106509Y-53961742D01*
X98038688Y-53978536D01*
X97972553Y-53955998D01*
X97933516Y-53910946D01*
X97929050Y-53902182D01*
X97804109Y-53730213D01*
X97653786Y-53579890D01*
X97481820Y-53454951D01*
X97292414Y-53358444D01*
X97292413Y-53358443D01*
X97292412Y-53358443D01*
X97090243Y-53292754D01*
X97090241Y-53292753D01*
X97090240Y-53292753D01*
X96928957Y-53267208D01*
X96880287Y-53259500D01*
X96667713Y-53259500D01*
X96619042Y-53267208D01*
X96457760Y-53292753D01*
X96255585Y-53358444D01*
X96066179Y-53454951D01*
X95894213Y-53579890D01*
X95743890Y-53730213D01*
X95618949Y-53902182D01*
X95614484Y-53910946D01*
X95566509Y-53961742D01*
X95498688Y-53978536D01*
X95432553Y-53955998D01*
X95393516Y-53910946D01*
X95389050Y-53902182D01*
X95264109Y-53730213D01*
X95113786Y-53579890D01*
X94941820Y-53454951D01*
X94752414Y-53358444D01*
X94752413Y-53358443D01*
X94752412Y-53358443D01*
X94550243Y-53292754D01*
X94550241Y-53292753D01*
X94550240Y-53292753D01*
X94388957Y-53267208D01*
X94340287Y-53259500D01*
X94127713Y-53259500D01*
X94079042Y-53267208D01*
X93917760Y-53292753D01*
X93715585Y-53358444D01*
X93526179Y-53454951D01*
X93354213Y-53579890D01*
X93203890Y-53730213D01*
X93078949Y-53902182D01*
X93074484Y-53910946D01*
X93026509Y-53961742D01*
X92958688Y-53978536D01*
X92892553Y-53955998D01*
X92853516Y-53910946D01*
X92849050Y-53902182D01*
X92724109Y-53730213D01*
X92573786Y-53579890D01*
X92401820Y-53454951D01*
X92212414Y-53358444D01*
X92212413Y-53358443D01*
X92212412Y-53358443D01*
X92010243Y-53292754D01*
X92010241Y-53292753D01*
X92010240Y-53292753D01*
X91848957Y-53267208D01*
X91800287Y-53259500D01*
X91587713Y-53259500D01*
X91539042Y-53267208D01*
X91377760Y-53292753D01*
X91175585Y-53358444D01*
X90986179Y-53454951D01*
X90814213Y-53579890D01*
X90663890Y-53730213D01*
X90538949Y-53902182D01*
X90534484Y-53910946D01*
X90486509Y-53961742D01*
X90418688Y-53978536D01*
X90352553Y-53955998D01*
X90313516Y-53910946D01*
X90309050Y-53902182D01*
X90184109Y-53730213D01*
X90033786Y-53579890D01*
X89861820Y-53454951D01*
X89672414Y-53358444D01*
X89672413Y-53358443D01*
X89672412Y-53358443D01*
X89470243Y-53292754D01*
X89470241Y-53292753D01*
X89470240Y-53292753D01*
X89308957Y-53267208D01*
X89260287Y-53259500D01*
X89047713Y-53259500D01*
X88999042Y-53267208D01*
X88837760Y-53292753D01*
X88635585Y-53358444D01*
X88446179Y-53454951D01*
X88274213Y-53579890D01*
X88123890Y-53730213D01*
X87998949Y-53902182D01*
X87994484Y-53910946D01*
X87946509Y-53961742D01*
X87878688Y-53978536D01*
X87812553Y-53955998D01*
X87773516Y-53910946D01*
X87769050Y-53902182D01*
X87644109Y-53730213D01*
X87493786Y-53579890D01*
X87321820Y-53454951D01*
X87132414Y-53358444D01*
X87132413Y-53358443D01*
X87132412Y-53358443D01*
X86930243Y-53292754D01*
X86930241Y-53292753D01*
X86930240Y-53292753D01*
X86768957Y-53267208D01*
X86720287Y-53259500D01*
X86507713Y-53259500D01*
X86459042Y-53267208D01*
X86297760Y-53292753D01*
X86095585Y-53358444D01*
X85906179Y-53454951D01*
X85734213Y-53579890D01*
X85583890Y-53730213D01*
X85458949Y-53902182D01*
X85454484Y-53910946D01*
X85406509Y-53961742D01*
X85338688Y-53978536D01*
X85272553Y-53955998D01*
X85233516Y-53910946D01*
X85229050Y-53902182D01*
X85104109Y-53730213D01*
X84953786Y-53579890D01*
X84781820Y-53454951D01*
X84592414Y-53358444D01*
X84592413Y-53358443D01*
X84592412Y-53358443D01*
X84390243Y-53292754D01*
X84390241Y-53292753D01*
X84390240Y-53292753D01*
X84228957Y-53267208D01*
X84180287Y-53259500D01*
X83967713Y-53259500D01*
X83919042Y-53267208D01*
X83757760Y-53292753D01*
X83555585Y-53358444D01*
X83366179Y-53454951D01*
X83194215Y-53579889D01*
X83080285Y-53693819D01*
X83018962Y-53727303D01*
X82949270Y-53722319D01*
X82893337Y-53680447D01*
X82876422Y-53649470D01*
X82827354Y-53517913D01*
X82827350Y-53517906D01*
X82741190Y-53402812D01*
X82741187Y-53402809D01*
X82626093Y-53316649D01*
X82626086Y-53316645D01*
X82491379Y-53266403D01*
X82491372Y-53266401D01*
X82431844Y-53260000D01*
X81784000Y-53260000D01*
X81784000Y-54176988D01*
X81726993Y-54144075D01*
X81599826Y-54110000D01*
X81468174Y-54110000D01*
X81341007Y-54144075D01*
X81284000Y-54176988D01*
X81284000Y-53260000D01*
X80636155Y-53260000D01*
X80576627Y-53266401D01*
X80576620Y-53266403D01*
X80441913Y-53316645D01*
X80441906Y-53316649D01*
X80326812Y-53402809D01*
X80326809Y-53402812D01*
X80240649Y-53517906D01*
X80240645Y-53517913D01*
X80190403Y-53652620D01*
X80190401Y-53652627D01*
X80184000Y-53712155D01*
X80184000Y-54360000D01*
X81100988Y-54360000D01*
X81068075Y-54417007D01*
X81034000Y-54544174D01*
X81034000Y-54675826D01*
X81068075Y-54802993D01*
X81100988Y-54860000D01*
X80184000Y-54860000D01*
X80184000Y-55507844D01*
X80190401Y-55567372D01*
X80190403Y-55567379D01*
X80240645Y-55702086D01*
X80240649Y-55702093D01*
X80326809Y-55817187D01*
X80326812Y-55817190D01*
X80441906Y-55903350D01*
X80441913Y-55903354D01*
X80576620Y-55953596D01*
X80576627Y-55953598D01*
X80636155Y-55959999D01*
X80636172Y-55960000D01*
X81284000Y-55960000D01*
X81284000Y-55043012D01*
X81341007Y-55075925D01*
X81468174Y-55110000D01*
X81599826Y-55110000D01*
X81726993Y-55075925D01*
X81784000Y-55043012D01*
X81784000Y-55960000D01*
X82431828Y-55960000D01*
X82431844Y-55959999D01*
X82491372Y-55953598D01*
X82491379Y-55953596D01*
X82626086Y-55903354D01*
X82626093Y-55903350D01*
X82741187Y-55817190D01*
X82741190Y-55817187D01*
X82827350Y-55702093D01*
X82827354Y-55702086D01*
X82876422Y-55570529D01*
X82918293Y-55514595D01*
X82983757Y-55490178D01*
X83052030Y-55505030D01*
X83080285Y-55526181D01*
X83194213Y-55640109D01*
X83366179Y-55765048D01*
X83366181Y-55765049D01*
X83366184Y-55765051D01*
X83555588Y-55861557D01*
X83757757Y-55927246D01*
X83967713Y-55960500D01*
X83967714Y-55960500D01*
X84180286Y-55960500D01*
X84180287Y-55960500D01*
X84390243Y-55927246D01*
X84592412Y-55861557D01*
X84781816Y-55765051D01*
X84868471Y-55702093D01*
X84953786Y-55640109D01*
X84953788Y-55640106D01*
X84953792Y-55640104D01*
X85104104Y-55489792D01*
X85104106Y-55489788D01*
X85104109Y-55489786D01*
X85229048Y-55317820D01*
X85229047Y-55317820D01*
X85229051Y-55317816D01*
X85233514Y-55309054D01*
X85281488Y-55258259D01*
X85349308Y-55241463D01*
X85415444Y-55263999D01*
X85454486Y-55309056D01*
X85458951Y-55317820D01*
X85583890Y-55489786D01*
X85734213Y-55640109D01*
X85906179Y-55765048D01*
X85906181Y-55765049D01*
X85906184Y-55765051D01*
X86095588Y-55861557D01*
X86297757Y-55927246D01*
X86507713Y-55960500D01*
X86507714Y-55960500D01*
X86720286Y-55960500D01*
X86720287Y-55960500D01*
X86930243Y-55927246D01*
X87132412Y-55861557D01*
X87321816Y-55765051D01*
X87408471Y-55702093D01*
X87493786Y-55640109D01*
X87493788Y-55640106D01*
X87493792Y-55640104D01*
X87644104Y-55489792D01*
X87644106Y-55489788D01*
X87644109Y-55489786D01*
X87769048Y-55317820D01*
X87769047Y-55317820D01*
X87769051Y-55317816D01*
X87773514Y-55309054D01*
X87821488Y-55258259D01*
X87889308Y-55241463D01*
X87955444Y-55263999D01*
X87994486Y-55309056D01*
X87998951Y-55317820D01*
X88123890Y-55489786D01*
X88274213Y-55640109D01*
X88446179Y-55765048D01*
X88446181Y-55765049D01*
X88446184Y-55765051D01*
X88635588Y-55861557D01*
X88837757Y-55927246D01*
X89047713Y-55960500D01*
X89047714Y-55960500D01*
X89260286Y-55960500D01*
X89260287Y-55960500D01*
X89470243Y-55927246D01*
X89672412Y-55861557D01*
X89861816Y-55765051D01*
X89948471Y-55702093D01*
X90033786Y-55640109D01*
X90033788Y-55640106D01*
X90033792Y-55640104D01*
X90184104Y-55489792D01*
X90184106Y-55489788D01*
X90184109Y-55489786D01*
X90309048Y-55317820D01*
X90309047Y-55317820D01*
X90309051Y-55317816D01*
X90313514Y-55309054D01*
X90361488Y-55258259D01*
X90429308Y-55241463D01*
X90495444Y-55263999D01*
X90534486Y-55309056D01*
X90538951Y-55317820D01*
X90663890Y-55489786D01*
X90814213Y-55640109D01*
X90986179Y-55765048D01*
X90986181Y-55765049D01*
X90986184Y-55765051D01*
X91175588Y-55861557D01*
X91377757Y-55927246D01*
X91587713Y-55960500D01*
X91587714Y-55960500D01*
X91800286Y-55960500D01*
X91800287Y-55960500D01*
X92010243Y-55927246D01*
X92212412Y-55861557D01*
X92401816Y-55765051D01*
X92488471Y-55702093D01*
X92573786Y-55640109D01*
X92573788Y-55640106D01*
X92573792Y-55640104D01*
X92724104Y-55489792D01*
X92724106Y-55489788D01*
X92724109Y-55489786D01*
X92849048Y-55317820D01*
X92849047Y-55317820D01*
X92849051Y-55317816D01*
X92853514Y-55309054D01*
X92901488Y-55258259D01*
X92969308Y-55241463D01*
X93035444Y-55263999D01*
X93074486Y-55309056D01*
X93078951Y-55317820D01*
X93203890Y-55489786D01*
X93354213Y-55640109D01*
X93526179Y-55765048D01*
X93526181Y-55765049D01*
X93526184Y-55765051D01*
X93715588Y-55861557D01*
X93917757Y-55927246D01*
X94127713Y-55960500D01*
X94127714Y-55960500D01*
X94340286Y-55960500D01*
X94340287Y-55960500D01*
X94550243Y-55927246D01*
X94752412Y-55861557D01*
X94941816Y-55765051D01*
X95028471Y-55702093D01*
X95113786Y-55640109D01*
X95113788Y-55640106D01*
X95113792Y-55640104D01*
X95264104Y-55489792D01*
X95264106Y-55489788D01*
X95264109Y-55489786D01*
X95389048Y-55317820D01*
X95389047Y-55317820D01*
X95389051Y-55317816D01*
X95393514Y-55309054D01*
X95441488Y-55258259D01*
X95509308Y-55241463D01*
X95575444Y-55263999D01*
X95614486Y-55309056D01*
X95618951Y-55317820D01*
X95743890Y-55489786D01*
X95894213Y-55640109D01*
X96066179Y-55765048D01*
X96066181Y-55765049D01*
X96066184Y-55765051D01*
X96255588Y-55861557D01*
X96457757Y-55927246D01*
X96667713Y-55960500D01*
X96667714Y-55960500D01*
X96814901Y-55960500D01*
X96881940Y-55980185D01*
X96927695Y-56032989D01*
X96937639Y-56102147D01*
X96908614Y-56165703D01*
X96902582Y-56172181D01*
X89129584Y-63945181D01*
X89068261Y-63978666D01*
X89041903Y-63981500D01*
X74846808Y-63981500D01*
X74779769Y-63961815D01*
X74759126Y-63945180D01*
X74727870Y-63913923D01*
X74727862Y-63913917D01*
X74606138Y-63841930D01*
X74586398Y-63830256D01*
X74586397Y-63830255D01*
X74586396Y-63830255D01*
X74586393Y-63830254D01*
X74428573Y-63784402D01*
X74428567Y-63784401D01*
X74391701Y-63781500D01*
X74391694Y-63781500D01*
X73085306Y-63781500D01*
X73085298Y-63781500D01*
X73048432Y-63784401D01*
X73048426Y-63784402D01*
X72890606Y-63830254D01*
X72890603Y-63830255D01*
X72749137Y-63913917D01*
X72749129Y-63913923D01*
X72632923Y-64030129D01*
X72632917Y-64030137D01*
X72549255Y-64171603D01*
X72549254Y-64171606D01*
X72503402Y-64329426D01*
X72503401Y-64329432D01*
X72500500Y-64366298D01*
X72500500Y-64797686D01*
X72500501Y-64797717D01*
X72500506Y-64797778D01*
X72500503Y-64797787D01*
X72500596Y-64800132D01*
X72500006Y-64800155D01*
X72486138Y-64866155D01*
X72437084Y-64915909D01*
X72376888Y-64931500D01*
X72352500Y-64931500D01*
X72285461Y-64911815D01*
X72239706Y-64859011D01*
X72228500Y-64807500D01*
X72228500Y-58340945D01*
X72228500Y-58340943D01*
X72187577Y-58188216D01*
X72184769Y-58183352D01*
X72108524Y-58051290D01*
X72108521Y-58051286D01*
X72108520Y-58051284D01*
X71996716Y-57939480D01*
X71996715Y-57939479D01*
X71992385Y-57935149D01*
X71992374Y-57935139D01*
X71607590Y-57550355D01*
X71607588Y-57550352D01*
X71488717Y-57431481D01*
X71488716Y-57431480D01*
X71401904Y-57381360D01*
X71401904Y-57381359D01*
X71401900Y-57381358D01*
X71351785Y-57352423D01*
X71199057Y-57311499D01*
X71040943Y-57311499D01*
X71033347Y-57311499D01*
X71033331Y-57311500D01*
X64087057Y-57311500D01*
X63928943Y-57311500D01*
X63776215Y-57352423D01*
X63776214Y-57352423D01*
X63776212Y-57352424D01*
X63776209Y-57352425D01*
X63726096Y-57381359D01*
X63726095Y-57381360D01*
X63682897Y-57406300D01*
X63639285Y-57431479D01*
X63639282Y-57431481D01*
X62359081Y-58711682D01*
X62359079Y-58711685D01*
X62336843Y-58750200D01*
X62314606Y-58788716D01*
X62280023Y-58848615D01*
X62239099Y-59001343D01*
X62239099Y-59001345D01*
X62239099Y-59169446D01*
X62239100Y-59169459D01*
X62239100Y-60359451D01*
X62219415Y-60426490D01*
X62171396Y-60469935D01*
X62125237Y-60493454D01*
X62125235Y-60493455D01*
X62021091Y-60569120D01*
X61951665Y-60619562D01*
X61951663Y-60619564D01*
X61951662Y-60619564D01*
X61799964Y-60771262D01*
X61799964Y-60771263D01*
X61799962Y-60771265D01*
X61775234Y-60805300D01*
X61673858Y-60944831D01*
X61576459Y-61135984D01*
X61510160Y-61340029D01*
X61476600Y-61551924D01*
X54373900Y-61551924D01*
X54373900Y-51113700D01*
X54393585Y-51046661D01*
X54446389Y-51000906D01*
X54497900Y-50989700D01*
X63986124Y-50989700D01*
X64053163Y-51009385D01*
G37*
G04 #@! TD.AperFunction*
M02*
