%TF.GenerationSoftware,KiCad,Pcbnew,8.0.9-8.0.9-0~ubuntu20.04.1*%
%TF.CreationDate,2025-04-23T19:07:49+01:00*%
%TF.ProjectId,ggroohauga-bridge,6767726f-6f68-4617-9567-612d62726964,rev?*%
%TF.SameCoordinates,Original*%
%TF.FileFunction,Drillmap*%
%TF.FilePolarity,Positive*%
%FSLAX45Y45*%
G04 Gerber Fmt 4.5, Leading zero omitted, Abs format (unit mm)*
G04 Created by KiCad (PCBNEW 8.0.9-8.0.9-0~ubuntu20.04.1) date 2025-04-23 19:07:49*
%MOMM*%
%LPD*%
G01*
G04 APERTURE LIST*
%ADD10C,0.025400*%
%ADD11C,0.200000*%
%ADD12C,0.100000*%
%ADD13C,0.115000*%
%ADD14C,0.325000*%
G04 APERTURE END LIST*
D10*
X5387340Y-5049520D02*
X15547340Y-5049520D01*
X15547340Y-8148320D01*
X5387340Y-8148320D01*
X5387340Y-5049520D01*
D11*
D12*
X8316200Y-7351000D02*
X8346200Y-7381000D01*
X8346200Y-7351000D02*
X8316200Y-7381000D01*
X11948400Y-5928600D02*
X11978400Y-5958600D01*
X11978400Y-5928600D02*
X11948400Y-5958600D01*
X11948400Y-7427200D02*
X11978400Y-7457200D01*
X11978400Y-7427200D02*
X11948400Y-7457200D01*
X12431000Y-5725400D02*
X12461000Y-5755400D01*
X12461000Y-5725400D02*
X12431000Y-5755400D01*
X12431000Y-7249400D02*
X12461000Y-7279400D01*
X12461000Y-7249400D02*
X12431000Y-7279400D01*
X9486300Y-6146800D02*
G75*
G02*
X9411300Y-6146800I-37500J0D01*
G01*
X9411300Y-6146800D02*
G75*
G02*
X9486300Y-6146800I37500J0D01*
G01*
X9740300Y-6146800D02*
G75*
G02*
X9665300Y-6146800I-37500J0D01*
G01*
X9665300Y-6146800D02*
G75*
G02*
X9740300Y-6146800I37500J0D01*
G01*
X9994300Y-6146800D02*
G75*
G02*
X9919300Y-6146800I-37500J0D01*
G01*
X9919300Y-6146800D02*
G75*
G02*
X9994300Y-6146800I37500J0D01*
G01*
X10248300Y-6146800D02*
G75*
G02*
X10173300Y-6146800I-37500J0D01*
G01*
X10173300Y-6146800D02*
G75*
G02*
X10248300Y-6146800I37500J0D01*
G01*
X10502300Y-6146800D02*
G75*
G02*
X10427300Y-6146800I-37500J0D01*
G01*
X10427300Y-6146800D02*
G75*
G02*
X10502300Y-6146800I37500J0D01*
G01*
X11721500Y-6248400D02*
G75*
G02*
X11646500Y-6248400I-37500J0D01*
G01*
X11646500Y-6248400D02*
G75*
G02*
X11721500Y-6248400I37500J0D01*
G01*
X11721500Y-6451600D02*
G75*
G02*
X11646500Y-6451600I-37500J0D01*
G01*
X11646500Y-6451600D02*
G75*
G02*
X11721500Y-6451600I37500J0D01*
G01*
X11721500Y-6654800D02*
G75*
G02*
X11646500Y-6654800I-37500J0D01*
G01*
X11646500Y-6654800D02*
G75*
G02*
X11721500Y-6654800I37500J0D01*
G01*
X11721500Y-6858000D02*
G75*
G02*
X11646500Y-6858000I-37500J0D01*
G01*
X11646500Y-6858000D02*
G75*
G02*
X11721500Y-6858000I37500J0D01*
G01*
X11721500Y-7061200D02*
G75*
G02*
X11646500Y-7061200I-37500J0D01*
G01*
X11646500Y-7061200D02*
G75*
G02*
X11721500Y-7061200I37500J0D01*
G01*
X8153400Y-5411000D02*
X8153400Y-5511000D01*
X8103400Y-5461000D02*
X8203400Y-5461000D01*
X8153400Y-7697000D02*
X8153400Y-7797000D01*
X8103400Y-7747000D02*
X8203400Y-7747000D01*
X8407400Y-5411000D02*
X8407400Y-5511000D01*
X8357400Y-5461000D02*
X8457400Y-5461000D01*
X8407400Y-7697000D02*
X8407400Y-7797000D01*
X8357400Y-7747000D02*
X8457400Y-7747000D01*
X8661400Y-5411000D02*
X8661400Y-5511000D01*
X8611400Y-5461000D02*
X8711400Y-5461000D01*
X8661400Y-7697000D02*
X8661400Y-7797000D01*
X8611400Y-7747000D02*
X8711400Y-7747000D01*
X8915400Y-5411000D02*
X8915400Y-5511000D01*
X8865400Y-5461000D02*
X8965400Y-5461000D01*
X8915400Y-7697000D02*
X8915400Y-7797000D01*
X8865400Y-7747000D02*
X8965400Y-7747000D01*
X9169400Y-5411000D02*
X9169400Y-5511000D01*
X9119400Y-5461000D02*
X9219400Y-5461000D01*
X9169400Y-7697000D02*
X9169400Y-7797000D01*
X9119400Y-7747000D02*
X9219400Y-7747000D01*
X9423400Y-5411000D02*
X9423400Y-5511000D01*
X9373400Y-5461000D02*
X9473400Y-5461000D01*
X9423400Y-7697000D02*
X9423400Y-7797000D01*
X9373400Y-7747000D02*
X9473400Y-7747000D01*
X9677400Y-5411000D02*
X9677400Y-5511000D01*
X9627400Y-5461000D02*
X9727400Y-5461000D01*
X9677400Y-7697000D02*
X9677400Y-7797000D01*
X9627400Y-7747000D02*
X9727400Y-7747000D01*
X9931400Y-5411000D02*
X9931400Y-5511000D01*
X9881400Y-5461000D02*
X9981400Y-5461000D01*
X9931400Y-7697000D02*
X9931400Y-7797000D01*
X9881400Y-7747000D02*
X9981400Y-7747000D01*
X10185400Y-5411000D02*
X10185400Y-5511000D01*
X10135400Y-5461000D02*
X10235400Y-5461000D01*
X10185400Y-7697000D02*
X10185400Y-7797000D01*
X10135400Y-7747000D02*
X10235400Y-7747000D01*
X10439400Y-5411000D02*
X10439400Y-5511000D01*
X10389400Y-5461000D02*
X10489400Y-5461000D01*
X10439400Y-7697000D02*
X10439400Y-7797000D01*
X10389400Y-7747000D02*
X10489400Y-7747000D01*
X10693400Y-5411000D02*
X10693400Y-5511000D01*
X10643400Y-5461000D02*
X10743400Y-5461000D01*
X10693400Y-7697000D02*
X10693400Y-7797000D01*
X10643400Y-7747000D02*
X10743400Y-7747000D01*
X10947400Y-5411000D02*
X10947400Y-5511000D01*
X10897400Y-5461000D02*
X10997400Y-5461000D01*
X10947400Y-7697000D02*
X10947400Y-7797000D01*
X10897400Y-7747000D02*
X10997400Y-7747000D01*
X11201400Y-5411000D02*
X11201400Y-5511000D01*
X11151400Y-5461000D02*
X11251400Y-5461000D01*
X11201400Y-7697000D02*
X11201400Y-7797000D01*
X11151400Y-7747000D02*
X11251400Y-7747000D01*
X11455400Y-5411000D02*
X11455400Y-5511000D01*
X11405400Y-5461000D02*
X11505400Y-5461000D01*
X11455400Y-7697000D02*
X11455400Y-7797000D01*
X11405400Y-7747000D02*
X11505400Y-7747000D01*
X11709400Y-5411000D02*
X11709400Y-5511000D01*
X11659400Y-5461000D02*
X11759400Y-5461000D01*
X11709400Y-7697000D02*
X11709400Y-7797000D01*
X11659400Y-7747000D02*
X11759400Y-7747000D01*
X11963400Y-5411000D02*
X11963400Y-5511000D01*
X11913400Y-5461000D02*
X12013400Y-5461000D01*
X11963400Y-7697000D02*
X11963400Y-7797000D01*
X11913400Y-7747000D02*
X12013400Y-7747000D01*
X12217400Y-5411000D02*
X12217400Y-5511000D01*
X12167400Y-5461000D02*
X12267400Y-5461000D01*
X12217400Y-7697000D02*
X12217400Y-7797000D01*
X12167400Y-7747000D02*
X12267400Y-7747000D01*
X12471400Y-5411000D02*
X12471400Y-5511000D01*
X12421400Y-5461000D02*
X12521400Y-5461000D01*
X12471400Y-7697000D02*
X12471400Y-7797000D01*
X12421400Y-7747000D02*
X12521400Y-7747000D01*
X12725400Y-5411000D02*
X12725400Y-5511000D01*
X12675400Y-5461000D02*
X12775400Y-5461000D01*
X12725400Y-7697000D02*
X12725400Y-7797000D01*
X12675400Y-7747000D02*
X12775400Y-7747000D01*
X12979400Y-5411000D02*
X12979400Y-5511000D01*
X12929400Y-5461000D02*
X13029400Y-5461000D01*
X12979400Y-7697000D02*
X12979400Y-7797000D01*
X12929400Y-7747000D02*
X13029400Y-7747000D01*
D13*
X6324619Y-6156579D02*
X6324619Y-6075261D01*
X6243301Y-6075261D01*
X6243301Y-6156579D01*
X6324619Y-6156579D01*
X6324619Y-6385579D02*
X6324619Y-6304261D01*
X6243301Y-6304261D01*
X6243301Y-6385579D01*
X6324619Y-6385579D01*
X6324619Y-6614579D02*
X6324619Y-6533261D01*
X6243301Y-6533261D01*
X6243301Y-6614579D01*
X6324619Y-6614579D01*
X6324619Y-6843579D02*
X6324619Y-6762261D01*
X6243301Y-6762261D01*
X6243301Y-6843579D01*
X6324619Y-6843579D01*
X6324619Y-7072579D02*
X6324619Y-6991261D01*
X6243301Y-6991261D01*
X6243301Y-7072579D01*
X6324619Y-7072579D01*
X6578619Y-6271079D02*
X6578619Y-6189761D01*
X6497301Y-6189761D01*
X6497301Y-6271079D01*
X6578619Y-6271079D01*
X6578619Y-6500079D02*
X6578619Y-6418761D01*
X6497301Y-6418761D01*
X6497301Y-6500079D01*
X6578619Y-6500079D01*
X6578619Y-6729079D02*
X6578619Y-6647761D01*
X6497301Y-6647761D01*
X6497301Y-6729079D01*
X6578619Y-6729079D01*
X6578619Y-6958079D02*
X6578619Y-6876761D01*
X6497301Y-6876761D01*
X6497301Y-6958079D01*
X6578619Y-6958079D01*
X6578619Y-7187079D02*
X6578619Y-7105761D01*
X6497301Y-7105761D01*
X6497301Y-7187079D01*
X6578619Y-7187079D01*
X6832619Y-6156579D02*
X6832619Y-6075261D01*
X6751301Y-6075261D01*
X6751301Y-6156579D01*
X6832619Y-6156579D01*
X6832619Y-6385579D02*
X6832619Y-6304261D01*
X6751301Y-6304261D01*
X6751301Y-6385579D01*
X6832619Y-6385579D01*
X6832619Y-6614579D02*
X6832619Y-6533261D01*
X6751301Y-6533261D01*
X6751301Y-6614579D01*
X6832619Y-6614579D01*
X6832619Y-6843579D02*
X6832619Y-6762261D01*
X6751301Y-6762261D01*
X6751301Y-6843579D01*
X6832619Y-6843579D01*
X6832619Y-7072579D02*
X6832619Y-6991261D01*
X6751301Y-6991261D01*
X6751301Y-7072579D01*
X6832619Y-7072579D01*
X14183379Y-6206579D02*
X14183379Y-6125261D01*
X14102061Y-6125261D01*
X14102061Y-6206579D01*
X14183379Y-6206579D01*
X14183379Y-6435579D02*
X14183379Y-6354261D01*
X14102061Y-6354261D01*
X14102061Y-6435579D01*
X14183379Y-6435579D01*
X14183379Y-6664579D02*
X14183379Y-6583261D01*
X14102061Y-6583261D01*
X14102061Y-6664579D01*
X14183379Y-6664579D01*
X14183379Y-6893579D02*
X14183379Y-6812261D01*
X14102061Y-6812261D01*
X14102061Y-6893579D01*
X14183379Y-6893579D01*
X14183379Y-7122579D02*
X14183379Y-7041261D01*
X14102061Y-7041261D01*
X14102061Y-7122579D01*
X14183379Y-7122579D01*
X14437379Y-6092079D02*
X14437379Y-6010761D01*
X14356061Y-6010761D01*
X14356061Y-6092079D01*
X14437379Y-6092079D01*
X14437379Y-6321079D02*
X14437379Y-6239761D01*
X14356061Y-6239761D01*
X14356061Y-6321079D01*
X14437379Y-6321079D01*
X14437379Y-6550079D02*
X14437379Y-6468761D01*
X14356061Y-6468761D01*
X14356061Y-6550079D01*
X14437379Y-6550079D01*
X14437379Y-6779079D02*
X14437379Y-6697761D01*
X14356061Y-6697761D01*
X14356061Y-6779079D01*
X14437379Y-6779079D01*
X14437379Y-7008079D02*
X14437379Y-6926761D01*
X14356061Y-6926761D01*
X14356061Y-7008079D01*
X14437379Y-7008079D01*
X14691379Y-6206579D02*
X14691379Y-6125261D01*
X14610061Y-6125261D01*
X14610061Y-6206579D01*
X14691379Y-6206579D01*
X14691379Y-6435579D02*
X14691379Y-6354261D01*
X14610061Y-6354261D01*
X14610061Y-6435579D01*
X14691379Y-6435579D01*
X14691379Y-6664579D02*
X14691379Y-6583261D01*
X14610061Y-6583261D01*
X14610061Y-6664579D01*
X14691379Y-6664579D01*
X14691379Y-6893579D02*
X14691379Y-6812261D01*
X14610061Y-6812261D01*
X14610061Y-6893579D01*
X14691379Y-6893579D01*
X14691379Y-7122579D02*
X14691379Y-7041261D01*
X14610061Y-7041261D01*
X14610061Y-7122579D01*
X14691379Y-7122579D01*
D14*
X6537960Y-5511920D02*
X6700460Y-5349420D01*
X6537960Y-5186920D01*
X6375460Y-5349420D01*
X6537960Y-5511920D01*
X6537960Y-8010920D02*
X6700460Y-7848420D01*
X6537960Y-7685920D01*
X6375460Y-7848420D01*
X6537960Y-8010920D01*
X14396720Y-5511920D02*
X14559220Y-5349420D01*
X14396720Y-5186920D01*
X14234220Y-5349420D01*
X14396720Y-5511920D01*
X14396720Y-8010920D02*
X14559220Y-7848420D01*
X14396720Y-7685920D01*
X14234220Y-7848420D01*
X14396720Y-8010920D01*
D11*
X5646847Y-8461074D02*
X5646847Y-8261074D01*
X5646847Y-8261074D02*
X5694466Y-8261074D01*
X5694466Y-8261074D02*
X5723037Y-8270598D01*
X5723037Y-8270598D02*
X5742085Y-8289645D01*
X5742085Y-8289645D02*
X5751609Y-8308693D01*
X5751609Y-8308693D02*
X5761132Y-8346788D01*
X5761132Y-8346788D02*
X5761132Y-8375359D01*
X5761132Y-8375359D02*
X5751609Y-8413455D01*
X5751609Y-8413455D02*
X5742085Y-8432502D01*
X5742085Y-8432502D02*
X5723037Y-8451550D01*
X5723037Y-8451550D02*
X5694466Y-8461074D01*
X5694466Y-8461074D02*
X5646847Y-8461074D01*
X5846847Y-8461074D02*
X5846847Y-8327740D01*
X5846847Y-8365836D02*
X5856371Y-8346788D01*
X5856371Y-8346788D02*
X5865894Y-8337264D01*
X5865894Y-8337264D02*
X5884942Y-8327740D01*
X5884942Y-8327740D02*
X5903990Y-8327740D01*
X5970656Y-8461074D02*
X5970656Y-8327740D01*
X5970656Y-8261074D02*
X5961132Y-8270598D01*
X5961132Y-8270598D02*
X5970656Y-8280121D01*
X5970656Y-8280121D02*
X5980180Y-8270598D01*
X5980180Y-8270598D02*
X5970656Y-8261074D01*
X5970656Y-8261074D02*
X5970656Y-8280121D01*
X6094466Y-8461074D02*
X6075418Y-8451550D01*
X6075418Y-8451550D02*
X6065894Y-8432502D01*
X6065894Y-8432502D02*
X6065894Y-8261074D01*
X6199228Y-8461074D02*
X6180180Y-8451550D01*
X6180180Y-8451550D02*
X6170656Y-8432502D01*
X6170656Y-8432502D02*
X6170656Y-8261074D01*
X6427799Y-8461074D02*
X6427799Y-8261074D01*
X6427799Y-8261074D02*
X6494466Y-8403931D01*
X6494466Y-8403931D02*
X6561132Y-8261074D01*
X6561132Y-8261074D02*
X6561132Y-8461074D01*
X6742085Y-8461074D02*
X6742085Y-8356312D01*
X6742085Y-8356312D02*
X6732561Y-8337264D01*
X6732561Y-8337264D02*
X6713513Y-8327740D01*
X6713513Y-8327740D02*
X6675418Y-8327740D01*
X6675418Y-8327740D02*
X6656371Y-8337264D01*
X6742085Y-8451550D02*
X6723037Y-8461074D01*
X6723037Y-8461074D02*
X6675418Y-8461074D01*
X6675418Y-8461074D02*
X6656371Y-8451550D01*
X6656371Y-8451550D02*
X6646847Y-8432502D01*
X6646847Y-8432502D02*
X6646847Y-8413455D01*
X6646847Y-8413455D02*
X6656371Y-8394407D01*
X6656371Y-8394407D02*
X6675418Y-8384883D01*
X6675418Y-8384883D02*
X6723037Y-8384883D01*
X6723037Y-8384883D02*
X6742085Y-8375359D01*
X6837323Y-8327740D02*
X6837323Y-8527740D01*
X6837323Y-8337264D02*
X6856371Y-8327740D01*
X6856371Y-8327740D02*
X6894466Y-8327740D01*
X6894466Y-8327740D02*
X6913513Y-8337264D01*
X6913513Y-8337264D02*
X6923037Y-8346788D01*
X6923037Y-8346788D02*
X6932561Y-8365836D01*
X6932561Y-8365836D02*
X6932561Y-8422979D01*
X6932561Y-8422979D02*
X6923037Y-8442026D01*
X6923037Y-8442026D02*
X6913513Y-8451550D01*
X6913513Y-8451550D02*
X6894466Y-8461074D01*
X6894466Y-8461074D02*
X6856371Y-8461074D01*
X6856371Y-8461074D02*
X6837323Y-8451550D01*
X7018275Y-8442026D02*
X7027799Y-8451550D01*
X7027799Y-8451550D02*
X7018275Y-8461074D01*
X7018275Y-8461074D02*
X7008752Y-8451550D01*
X7008752Y-8451550D02*
X7018275Y-8442026D01*
X7018275Y-8442026D02*
X7018275Y-8461074D01*
X7018275Y-8337264D02*
X7027799Y-8346788D01*
X7027799Y-8346788D02*
X7018275Y-8356312D01*
X7018275Y-8356312D02*
X7008752Y-8346788D01*
X7008752Y-8346788D02*
X7018275Y-8337264D01*
X7018275Y-8337264D02*
X7018275Y-8356312D01*
D12*
X5356070Y-8774590D02*
X5386070Y-8804590D01*
X5386070Y-8774590D02*
X5356070Y-8804590D01*
D11*
X5684942Y-8681074D02*
X5703990Y-8681074D01*
X5703990Y-8681074D02*
X5723037Y-8690598D01*
X5723037Y-8690598D02*
X5732561Y-8700121D01*
X5732561Y-8700121D02*
X5742085Y-8719169D01*
X5742085Y-8719169D02*
X5751609Y-8757264D01*
X5751609Y-8757264D02*
X5751609Y-8804883D01*
X5751609Y-8804883D02*
X5742085Y-8842979D01*
X5742085Y-8842979D02*
X5732561Y-8862026D01*
X5732561Y-8862026D02*
X5723037Y-8871550D01*
X5723037Y-8871550D02*
X5703990Y-8881074D01*
X5703990Y-8881074D02*
X5684942Y-8881074D01*
X5684942Y-8881074D02*
X5665894Y-8871550D01*
X5665894Y-8871550D02*
X5656371Y-8862026D01*
X5656371Y-8862026D02*
X5646847Y-8842979D01*
X5646847Y-8842979D02*
X5637323Y-8804883D01*
X5637323Y-8804883D02*
X5637323Y-8757264D01*
X5637323Y-8757264D02*
X5646847Y-8719169D01*
X5646847Y-8719169D02*
X5656371Y-8700121D01*
X5656371Y-8700121D02*
X5665894Y-8690598D01*
X5665894Y-8690598D02*
X5684942Y-8681074D01*
X5837323Y-8862026D02*
X5846847Y-8871550D01*
X5846847Y-8871550D02*
X5837323Y-8881074D01*
X5837323Y-8881074D02*
X5827799Y-8871550D01*
X5827799Y-8871550D02*
X5837323Y-8862026D01*
X5837323Y-8862026D02*
X5837323Y-8881074D01*
X5913513Y-8681074D02*
X6037323Y-8681074D01*
X6037323Y-8681074D02*
X5970656Y-8757264D01*
X5970656Y-8757264D02*
X5999228Y-8757264D01*
X5999228Y-8757264D02*
X6018275Y-8766788D01*
X6018275Y-8766788D02*
X6027799Y-8776312D01*
X6027799Y-8776312D02*
X6037323Y-8795360D01*
X6037323Y-8795360D02*
X6037323Y-8842979D01*
X6037323Y-8842979D02*
X6027799Y-8862026D01*
X6027799Y-8862026D02*
X6018275Y-8871550D01*
X6018275Y-8871550D02*
X5999228Y-8881074D01*
X5999228Y-8881074D02*
X5942085Y-8881074D01*
X5942085Y-8881074D02*
X5923037Y-8871550D01*
X5923037Y-8871550D02*
X5913513Y-8862026D01*
X6161132Y-8681074D02*
X6180180Y-8681074D01*
X6180180Y-8681074D02*
X6199228Y-8690598D01*
X6199228Y-8690598D02*
X6208752Y-8700121D01*
X6208752Y-8700121D02*
X6218275Y-8719169D01*
X6218275Y-8719169D02*
X6227799Y-8757264D01*
X6227799Y-8757264D02*
X6227799Y-8804883D01*
X6227799Y-8804883D02*
X6218275Y-8842979D01*
X6218275Y-8842979D02*
X6208752Y-8862026D01*
X6208752Y-8862026D02*
X6199228Y-8871550D01*
X6199228Y-8871550D02*
X6180180Y-8881074D01*
X6180180Y-8881074D02*
X6161132Y-8881074D01*
X6161132Y-8881074D02*
X6142085Y-8871550D01*
X6142085Y-8871550D02*
X6132561Y-8862026D01*
X6132561Y-8862026D02*
X6123037Y-8842979D01*
X6123037Y-8842979D02*
X6113513Y-8804883D01*
X6113513Y-8804883D02*
X6113513Y-8757264D01*
X6113513Y-8757264D02*
X6123037Y-8719169D01*
X6123037Y-8719169D02*
X6132561Y-8700121D01*
X6132561Y-8700121D02*
X6142085Y-8690598D01*
X6142085Y-8690598D02*
X6161132Y-8681074D01*
X6351609Y-8681074D02*
X6370656Y-8681074D01*
X6370656Y-8681074D02*
X6389704Y-8690598D01*
X6389704Y-8690598D02*
X6399228Y-8700121D01*
X6399228Y-8700121D02*
X6408752Y-8719169D01*
X6408752Y-8719169D02*
X6418275Y-8757264D01*
X6418275Y-8757264D02*
X6418275Y-8804883D01*
X6418275Y-8804883D02*
X6408752Y-8842979D01*
X6408752Y-8842979D02*
X6399228Y-8862026D01*
X6399228Y-8862026D02*
X6389704Y-8871550D01*
X6389704Y-8871550D02*
X6370656Y-8881074D01*
X6370656Y-8881074D02*
X6351609Y-8881074D01*
X6351609Y-8881074D02*
X6332561Y-8871550D01*
X6332561Y-8871550D02*
X6323037Y-8862026D01*
X6323037Y-8862026D02*
X6313513Y-8842979D01*
X6313513Y-8842979D02*
X6303990Y-8804883D01*
X6303990Y-8804883D02*
X6303990Y-8757264D01*
X6303990Y-8757264D02*
X6313513Y-8719169D01*
X6313513Y-8719169D02*
X6323037Y-8700121D01*
X6323037Y-8700121D02*
X6332561Y-8690598D01*
X6332561Y-8690598D02*
X6351609Y-8681074D01*
X6503990Y-8881074D02*
X6503990Y-8747740D01*
X6503990Y-8766788D02*
X6513513Y-8757264D01*
X6513513Y-8757264D02*
X6532561Y-8747740D01*
X6532561Y-8747740D02*
X6561133Y-8747740D01*
X6561133Y-8747740D02*
X6580180Y-8757264D01*
X6580180Y-8757264D02*
X6589704Y-8776312D01*
X6589704Y-8776312D02*
X6589704Y-8881074D01*
X6589704Y-8776312D02*
X6599228Y-8757264D01*
X6599228Y-8757264D02*
X6618275Y-8747740D01*
X6618275Y-8747740D02*
X6646847Y-8747740D01*
X6646847Y-8747740D02*
X6665894Y-8757264D01*
X6665894Y-8757264D02*
X6675418Y-8776312D01*
X6675418Y-8776312D02*
X6675418Y-8881074D01*
X6770656Y-8881074D02*
X6770656Y-8747740D01*
X6770656Y-8766788D02*
X6780180Y-8757264D01*
X6780180Y-8757264D02*
X6799228Y-8747740D01*
X6799228Y-8747740D02*
X6827799Y-8747740D01*
X6827799Y-8747740D02*
X6846847Y-8757264D01*
X6846847Y-8757264D02*
X6856371Y-8776312D01*
X6856371Y-8776312D02*
X6856371Y-8881074D01*
X6856371Y-8776312D02*
X6865894Y-8757264D01*
X6865894Y-8757264D02*
X6884942Y-8747740D01*
X6884942Y-8747740D02*
X6913513Y-8747740D01*
X6913513Y-8747740D02*
X6932561Y-8757264D01*
X6932561Y-8757264D02*
X6942085Y-8776312D01*
X6942085Y-8776312D02*
X6942085Y-8881074D01*
X7332561Y-8671550D02*
X7161133Y-8928693D01*
X7589704Y-8681074D02*
X7608752Y-8681074D01*
X7608752Y-8681074D02*
X7627799Y-8690598D01*
X7627799Y-8690598D02*
X7637323Y-8700121D01*
X7637323Y-8700121D02*
X7646847Y-8719169D01*
X7646847Y-8719169D02*
X7656371Y-8757264D01*
X7656371Y-8757264D02*
X7656371Y-8804883D01*
X7656371Y-8804883D02*
X7646847Y-8842979D01*
X7646847Y-8842979D02*
X7637323Y-8862026D01*
X7637323Y-8862026D02*
X7627799Y-8871550D01*
X7627799Y-8871550D02*
X7608752Y-8881074D01*
X7608752Y-8881074D02*
X7589704Y-8881074D01*
X7589704Y-8881074D02*
X7570656Y-8871550D01*
X7570656Y-8871550D02*
X7561133Y-8862026D01*
X7561133Y-8862026D02*
X7551609Y-8842979D01*
X7551609Y-8842979D02*
X7542085Y-8804883D01*
X7542085Y-8804883D02*
X7542085Y-8757264D01*
X7542085Y-8757264D02*
X7551609Y-8719169D01*
X7551609Y-8719169D02*
X7561133Y-8700121D01*
X7561133Y-8700121D02*
X7570656Y-8690598D01*
X7570656Y-8690598D02*
X7589704Y-8681074D01*
X7742085Y-8862026D02*
X7751609Y-8871550D01*
X7751609Y-8871550D02*
X7742085Y-8881074D01*
X7742085Y-8881074D02*
X7732561Y-8871550D01*
X7732561Y-8871550D02*
X7742085Y-8862026D01*
X7742085Y-8862026D02*
X7742085Y-8881074D01*
X7875418Y-8681074D02*
X7894466Y-8681074D01*
X7894466Y-8681074D02*
X7913514Y-8690598D01*
X7913514Y-8690598D02*
X7923037Y-8700121D01*
X7923037Y-8700121D02*
X7932561Y-8719169D01*
X7932561Y-8719169D02*
X7942085Y-8757264D01*
X7942085Y-8757264D02*
X7942085Y-8804883D01*
X7942085Y-8804883D02*
X7932561Y-8842979D01*
X7932561Y-8842979D02*
X7923037Y-8862026D01*
X7923037Y-8862026D02*
X7913514Y-8871550D01*
X7913514Y-8871550D02*
X7894466Y-8881074D01*
X7894466Y-8881074D02*
X7875418Y-8881074D01*
X7875418Y-8881074D02*
X7856371Y-8871550D01*
X7856371Y-8871550D02*
X7846847Y-8862026D01*
X7846847Y-8862026D02*
X7837323Y-8842979D01*
X7837323Y-8842979D02*
X7827799Y-8804883D01*
X7827799Y-8804883D02*
X7827799Y-8757264D01*
X7827799Y-8757264D02*
X7837323Y-8719169D01*
X7837323Y-8719169D02*
X7846847Y-8700121D01*
X7846847Y-8700121D02*
X7856371Y-8690598D01*
X7856371Y-8690598D02*
X7875418Y-8681074D01*
X8132561Y-8881074D02*
X8018276Y-8881074D01*
X8075418Y-8881074D02*
X8075418Y-8681074D01*
X8075418Y-8681074D02*
X8056371Y-8709645D01*
X8056371Y-8709645D02*
X8037323Y-8728693D01*
X8037323Y-8728693D02*
X8018276Y-8738217D01*
X8323037Y-8881074D02*
X8208752Y-8881074D01*
X8265895Y-8881074D02*
X8265895Y-8681074D01*
X8265895Y-8681074D02*
X8246847Y-8709645D01*
X8246847Y-8709645D02*
X8227799Y-8728693D01*
X8227799Y-8728693D02*
X8208752Y-8738217D01*
X8437323Y-8766788D02*
X8418276Y-8757264D01*
X8418276Y-8757264D02*
X8408752Y-8747740D01*
X8408752Y-8747740D02*
X8399228Y-8728693D01*
X8399228Y-8728693D02*
X8399228Y-8719169D01*
X8399228Y-8719169D02*
X8408752Y-8700121D01*
X8408752Y-8700121D02*
X8418276Y-8690598D01*
X8418276Y-8690598D02*
X8437323Y-8681074D01*
X8437323Y-8681074D02*
X8475419Y-8681074D01*
X8475419Y-8681074D02*
X8494466Y-8690598D01*
X8494466Y-8690598D02*
X8503990Y-8700121D01*
X8503990Y-8700121D02*
X8513514Y-8719169D01*
X8513514Y-8719169D02*
X8513514Y-8728693D01*
X8513514Y-8728693D02*
X8503990Y-8747740D01*
X8503990Y-8747740D02*
X8494466Y-8757264D01*
X8494466Y-8757264D02*
X8475419Y-8766788D01*
X8475419Y-8766788D02*
X8437323Y-8766788D01*
X8437323Y-8766788D02*
X8418276Y-8776312D01*
X8418276Y-8776312D02*
X8408752Y-8785836D01*
X8408752Y-8785836D02*
X8399228Y-8804883D01*
X8399228Y-8804883D02*
X8399228Y-8842979D01*
X8399228Y-8842979D02*
X8408752Y-8862026D01*
X8408752Y-8862026D02*
X8418276Y-8871550D01*
X8418276Y-8871550D02*
X8437323Y-8881074D01*
X8437323Y-8881074D02*
X8475419Y-8881074D01*
X8475419Y-8881074D02*
X8494466Y-8871550D01*
X8494466Y-8871550D02*
X8503990Y-8862026D01*
X8503990Y-8862026D02*
X8513514Y-8842979D01*
X8513514Y-8842979D02*
X8513514Y-8804883D01*
X8513514Y-8804883D02*
X8503990Y-8785836D01*
X8503990Y-8785836D02*
X8494466Y-8776312D01*
X8494466Y-8776312D02*
X8475419Y-8766788D01*
X8589704Y-8681074D02*
X8589704Y-8719169D01*
X8665895Y-8681074D02*
X8665895Y-8719169D01*
X8961133Y-8957264D02*
X8951609Y-8947740D01*
X8951609Y-8947740D02*
X8932561Y-8919169D01*
X8932561Y-8919169D02*
X8923038Y-8900121D01*
X8923038Y-8900121D02*
X8913514Y-8871550D01*
X8913514Y-8871550D02*
X8903990Y-8823931D01*
X8903990Y-8823931D02*
X8903990Y-8785836D01*
X8903990Y-8785836D02*
X8913514Y-8738217D01*
X8913514Y-8738217D02*
X8923038Y-8709645D01*
X8923038Y-8709645D02*
X8932561Y-8690598D01*
X8932561Y-8690598D02*
X8951609Y-8662026D01*
X8951609Y-8662026D02*
X8961133Y-8652502D01*
X9132561Y-8681074D02*
X9037323Y-8681074D01*
X9037323Y-8681074D02*
X9027800Y-8776312D01*
X9027800Y-8776312D02*
X9037323Y-8766788D01*
X9037323Y-8766788D02*
X9056371Y-8757264D01*
X9056371Y-8757264D02*
X9103990Y-8757264D01*
X9103990Y-8757264D02*
X9123038Y-8766788D01*
X9123038Y-8766788D02*
X9132561Y-8776312D01*
X9132561Y-8776312D02*
X9142085Y-8795360D01*
X9142085Y-8795360D02*
X9142085Y-8842979D01*
X9142085Y-8842979D02*
X9132561Y-8862026D01*
X9132561Y-8862026D02*
X9123038Y-8871550D01*
X9123038Y-8871550D02*
X9103990Y-8881074D01*
X9103990Y-8881074D02*
X9056371Y-8881074D01*
X9056371Y-8881074D02*
X9037323Y-8871550D01*
X9037323Y-8871550D02*
X9027800Y-8862026D01*
X9380181Y-8881074D02*
X9380181Y-8681074D01*
X9465895Y-8881074D02*
X9465895Y-8776312D01*
X9465895Y-8776312D02*
X9456371Y-8757264D01*
X9456371Y-8757264D02*
X9437323Y-8747740D01*
X9437323Y-8747740D02*
X9408752Y-8747740D01*
X9408752Y-8747740D02*
X9389704Y-8757264D01*
X9389704Y-8757264D02*
X9380181Y-8766788D01*
X9589704Y-8881074D02*
X9570657Y-8871550D01*
X9570657Y-8871550D02*
X9561133Y-8862026D01*
X9561133Y-8862026D02*
X9551609Y-8842979D01*
X9551609Y-8842979D02*
X9551609Y-8785836D01*
X9551609Y-8785836D02*
X9561133Y-8766788D01*
X9561133Y-8766788D02*
X9570657Y-8757264D01*
X9570657Y-8757264D02*
X9589704Y-8747740D01*
X9589704Y-8747740D02*
X9618276Y-8747740D01*
X9618276Y-8747740D02*
X9637323Y-8757264D01*
X9637323Y-8757264D02*
X9646847Y-8766788D01*
X9646847Y-8766788D02*
X9656371Y-8785836D01*
X9656371Y-8785836D02*
X9656371Y-8842979D01*
X9656371Y-8842979D02*
X9646847Y-8862026D01*
X9646847Y-8862026D02*
X9637323Y-8871550D01*
X9637323Y-8871550D02*
X9618276Y-8881074D01*
X9618276Y-8881074D02*
X9589704Y-8881074D01*
X9770657Y-8881074D02*
X9751609Y-8871550D01*
X9751609Y-8871550D02*
X9742085Y-8852502D01*
X9742085Y-8852502D02*
X9742085Y-8681074D01*
X9923038Y-8871550D02*
X9903990Y-8881074D01*
X9903990Y-8881074D02*
X9865895Y-8881074D01*
X9865895Y-8881074D02*
X9846847Y-8871550D01*
X9846847Y-8871550D02*
X9837323Y-8852502D01*
X9837323Y-8852502D02*
X9837323Y-8776312D01*
X9837323Y-8776312D02*
X9846847Y-8757264D01*
X9846847Y-8757264D02*
X9865895Y-8747740D01*
X9865895Y-8747740D02*
X9903990Y-8747740D01*
X9903990Y-8747740D02*
X9923038Y-8757264D01*
X9923038Y-8757264D02*
X9932562Y-8776312D01*
X9932562Y-8776312D02*
X9932562Y-8795360D01*
X9932562Y-8795360D02*
X9837323Y-8814407D01*
X10008752Y-8871550D02*
X10027800Y-8881074D01*
X10027800Y-8881074D02*
X10065895Y-8881074D01*
X10065895Y-8881074D02*
X10084943Y-8871550D01*
X10084943Y-8871550D02*
X10094466Y-8852502D01*
X10094466Y-8852502D02*
X10094466Y-8842979D01*
X10094466Y-8842979D02*
X10084943Y-8823931D01*
X10084943Y-8823931D02*
X10065895Y-8814407D01*
X10065895Y-8814407D02*
X10037323Y-8814407D01*
X10037323Y-8814407D02*
X10018276Y-8804883D01*
X10018276Y-8804883D02*
X10008752Y-8785836D01*
X10008752Y-8785836D02*
X10008752Y-8776312D01*
X10008752Y-8776312D02*
X10018276Y-8757264D01*
X10018276Y-8757264D02*
X10037323Y-8747740D01*
X10037323Y-8747740D02*
X10065895Y-8747740D01*
X10065895Y-8747740D02*
X10084943Y-8757264D01*
X10161133Y-8957264D02*
X10170657Y-8947740D01*
X10170657Y-8947740D02*
X10189704Y-8919169D01*
X10189704Y-8919169D02*
X10199228Y-8900121D01*
X10199228Y-8900121D02*
X10208752Y-8871550D01*
X10208752Y-8871550D02*
X10218276Y-8823931D01*
X10218276Y-8823931D02*
X10218276Y-8785836D01*
X10218276Y-8785836D02*
X10208752Y-8738217D01*
X10208752Y-8738217D02*
X10199228Y-8709645D01*
X10199228Y-8709645D02*
X10189704Y-8690598D01*
X10189704Y-8690598D02*
X10170657Y-8662026D01*
X10170657Y-8662026D02*
X10161133Y-8652502D01*
D12*
X5386070Y-9053590D02*
G75*
G02*
X5311070Y-9053590I-37500J0D01*
G01*
X5311070Y-9053590D02*
G75*
G02*
X5386070Y-9053590I37500J0D01*
G01*
D11*
X5684942Y-8945074D02*
X5703990Y-8945074D01*
X5703990Y-8945074D02*
X5723037Y-8954598D01*
X5723037Y-8954598D02*
X5732561Y-8964121D01*
X5732561Y-8964121D02*
X5742085Y-8983169D01*
X5742085Y-8983169D02*
X5751609Y-9021264D01*
X5751609Y-9021264D02*
X5751609Y-9068883D01*
X5751609Y-9068883D02*
X5742085Y-9106979D01*
X5742085Y-9106979D02*
X5732561Y-9126026D01*
X5732561Y-9126026D02*
X5723037Y-9135550D01*
X5723037Y-9135550D02*
X5703990Y-9145074D01*
X5703990Y-9145074D02*
X5684942Y-9145074D01*
X5684942Y-9145074D02*
X5665894Y-9135550D01*
X5665894Y-9135550D02*
X5656371Y-9126026D01*
X5656371Y-9126026D02*
X5646847Y-9106979D01*
X5646847Y-9106979D02*
X5637323Y-9068883D01*
X5637323Y-9068883D02*
X5637323Y-9021264D01*
X5637323Y-9021264D02*
X5646847Y-8983169D01*
X5646847Y-8983169D02*
X5656371Y-8964121D01*
X5656371Y-8964121D02*
X5665894Y-8954598D01*
X5665894Y-8954598D02*
X5684942Y-8945074D01*
X5837323Y-9126026D02*
X5846847Y-9135550D01*
X5846847Y-9135550D02*
X5837323Y-9145074D01*
X5837323Y-9145074D02*
X5827799Y-9135550D01*
X5827799Y-9135550D02*
X5837323Y-9126026D01*
X5837323Y-9126026D02*
X5837323Y-9145074D01*
X5913513Y-8945074D02*
X6046847Y-8945074D01*
X6046847Y-8945074D02*
X5961132Y-9145074D01*
X6218275Y-8945074D02*
X6123037Y-8945074D01*
X6123037Y-8945074D02*
X6113513Y-9040312D01*
X6113513Y-9040312D02*
X6123037Y-9030788D01*
X6123037Y-9030788D02*
X6142085Y-9021264D01*
X6142085Y-9021264D02*
X6189704Y-9021264D01*
X6189704Y-9021264D02*
X6208752Y-9030788D01*
X6208752Y-9030788D02*
X6218275Y-9040312D01*
X6218275Y-9040312D02*
X6227799Y-9059360D01*
X6227799Y-9059360D02*
X6227799Y-9106979D01*
X6227799Y-9106979D02*
X6218275Y-9126026D01*
X6218275Y-9126026D02*
X6208752Y-9135550D01*
X6208752Y-9135550D02*
X6189704Y-9145074D01*
X6189704Y-9145074D02*
X6142085Y-9145074D01*
X6142085Y-9145074D02*
X6123037Y-9135550D01*
X6123037Y-9135550D02*
X6113513Y-9126026D01*
X6351609Y-8945074D02*
X6370656Y-8945074D01*
X6370656Y-8945074D02*
X6389704Y-8954598D01*
X6389704Y-8954598D02*
X6399228Y-8964121D01*
X6399228Y-8964121D02*
X6408752Y-8983169D01*
X6408752Y-8983169D02*
X6418275Y-9021264D01*
X6418275Y-9021264D02*
X6418275Y-9068883D01*
X6418275Y-9068883D02*
X6408752Y-9106979D01*
X6408752Y-9106979D02*
X6399228Y-9126026D01*
X6399228Y-9126026D02*
X6389704Y-9135550D01*
X6389704Y-9135550D02*
X6370656Y-9145074D01*
X6370656Y-9145074D02*
X6351609Y-9145074D01*
X6351609Y-9145074D02*
X6332561Y-9135550D01*
X6332561Y-9135550D02*
X6323037Y-9126026D01*
X6323037Y-9126026D02*
X6313513Y-9106979D01*
X6313513Y-9106979D02*
X6303990Y-9068883D01*
X6303990Y-9068883D02*
X6303990Y-9021264D01*
X6303990Y-9021264D02*
X6313513Y-8983169D01*
X6313513Y-8983169D02*
X6323037Y-8964121D01*
X6323037Y-8964121D02*
X6332561Y-8954598D01*
X6332561Y-8954598D02*
X6351609Y-8945074D01*
X6503990Y-9145074D02*
X6503990Y-9011740D01*
X6503990Y-9030788D02*
X6513513Y-9021264D01*
X6513513Y-9021264D02*
X6532561Y-9011740D01*
X6532561Y-9011740D02*
X6561133Y-9011740D01*
X6561133Y-9011740D02*
X6580180Y-9021264D01*
X6580180Y-9021264D02*
X6589704Y-9040312D01*
X6589704Y-9040312D02*
X6589704Y-9145074D01*
X6589704Y-9040312D02*
X6599228Y-9021264D01*
X6599228Y-9021264D02*
X6618275Y-9011740D01*
X6618275Y-9011740D02*
X6646847Y-9011740D01*
X6646847Y-9011740D02*
X6665894Y-9021264D01*
X6665894Y-9021264D02*
X6675418Y-9040312D01*
X6675418Y-9040312D02*
X6675418Y-9145074D01*
X6770656Y-9145074D02*
X6770656Y-9011740D01*
X6770656Y-9030788D02*
X6780180Y-9021264D01*
X6780180Y-9021264D02*
X6799228Y-9011740D01*
X6799228Y-9011740D02*
X6827799Y-9011740D01*
X6827799Y-9011740D02*
X6846847Y-9021264D01*
X6846847Y-9021264D02*
X6856371Y-9040312D01*
X6856371Y-9040312D02*
X6856371Y-9145074D01*
X6856371Y-9040312D02*
X6865894Y-9021264D01*
X6865894Y-9021264D02*
X6884942Y-9011740D01*
X6884942Y-9011740D02*
X6913513Y-9011740D01*
X6913513Y-9011740D02*
X6932561Y-9021264D01*
X6932561Y-9021264D02*
X6942085Y-9040312D01*
X6942085Y-9040312D02*
X6942085Y-9145074D01*
X7332561Y-8935550D02*
X7161133Y-9192693D01*
X7589704Y-8945074D02*
X7608752Y-8945074D01*
X7608752Y-8945074D02*
X7627799Y-8954598D01*
X7627799Y-8954598D02*
X7637323Y-8964121D01*
X7637323Y-8964121D02*
X7646847Y-8983169D01*
X7646847Y-8983169D02*
X7656371Y-9021264D01*
X7656371Y-9021264D02*
X7656371Y-9068883D01*
X7656371Y-9068883D02*
X7646847Y-9106979D01*
X7646847Y-9106979D02*
X7637323Y-9126026D01*
X7637323Y-9126026D02*
X7627799Y-9135550D01*
X7627799Y-9135550D02*
X7608752Y-9145074D01*
X7608752Y-9145074D02*
X7589704Y-9145074D01*
X7589704Y-9145074D02*
X7570656Y-9135550D01*
X7570656Y-9135550D02*
X7561133Y-9126026D01*
X7561133Y-9126026D02*
X7551609Y-9106979D01*
X7551609Y-9106979D02*
X7542085Y-9068883D01*
X7542085Y-9068883D02*
X7542085Y-9021264D01*
X7542085Y-9021264D02*
X7551609Y-8983169D01*
X7551609Y-8983169D02*
X7561133Y-8964121D01*
X7561133Y-8964121D02*
X7570656Y-8954598D01*
X7570656Y-8954598D02*
X7589704Y-8945074D01*
X7742085Y-9126026D02*
X7751609Y-9135550D01*
X7751609Y-9135550D02*
X7742085Y-9145074D01*
X7742085Y-9145074D02*
X7732561Y-9135550D01*
X7732561Y-9135550D02*
X7742085Y-9126026D01*
X7742085Y-9126026D02*
X7742085Y-9145074D01*
X7875418Y-8945074D02*
X7894466Y-8945074D01*
X7894466Y-8945074D02*
X7913514Y-8954598D01*
X7913514Y-8954598D02*
X7923037Y-8964121D01*
X7923037Y-8964121D02*
X7932561Y-8983169D01*
X7932561Y-8983169D02*
X7942085Y-9021264D01*
X7942085Y-9021264D02*
X7942085Y-9068883D01*
X7942085Y-9068883D02*
X7932561Y-9106979D01*
X7932561Y-9106979D02*
X7923037Y-9126026D01*
X7923037Y-9126026D02*
X7913514Y-9135550D01*
X7913514Y-9135550D02*
X7894466Y-9145074D01*
X7894466Y-9145074D02*
X7875418Y-9145074D01*
X7875418Y-9145074D02*
X7856371Y-9135550D01*
X7856371Y-9135550D02*
X7846847Y-9126026D01*
X7846847Y-9126026D02*
X7837323Y-9106979D01*
X7837323Y-9106979D02*
X7827799Y-9068883D01*
X7827799Y-9068883D02*
X7827799Y-9021264D01*
X7827799Y-9021264D02*
X7837323Y-8983169D01*
X7837323Y-8983169D02*
X7846847Y-8964121D01*
X7846847Y-8964121D02*
X7856371Y-8954598D01*
X7856371Y-8954598D02*
X7875418Y-8945074D01*
X8018276Y-8964121D02*
X8027799Y-8954598D01*
X8027799Y-8954598D02*
X8046847Y-8945074D01*
X8046847Y-8945074D02*
X8094466Y-8945074D01*
X8094466Y-8945074D02*
X8113514Y-8954598D01*
X8113514Y-8954598D02*
X8123037Y-8964121D01*
X8123037Y-8964121D02*
X8132561Y-8983169D01*
X8132561Y-8983169D02*
X8132561Y-9002217D01*
X8132561Y-9002217D02*
X8123037Y-9030788D01*
X8123037Y-9030788D02*
X8008752Y-9145074D01*
X8008752Y-9145074D02*
X8132561Y-9145074D01*
X8227799Y-9145074D02*
X8265895Y-9145074D01*
X8265895Y-9145074D02*
X8284942Y-9135550D01*
X8284942Y-9135550D02*
X8294466Y-9126026D01*
X8294466Y-9126026D02*
X8313514Y-9097455D01*
X8313514Y-9097455D02*
X8323037Y-9059360D01*
X8323037Y-9059360D02*
X8323037Y-8983169D01*
X8323037Y-8983169D02*
X8313514Y-8964121D01*
X8313514Y-8964121D02*
X8303990Y-8954598D01*
X8303990Y-8954598D02*
X8284942Y-8945074D01*
X8284942Y-8945074D02*
X8246847Y-8945074D01*
X8246847Y-8945074D02*
X8227799Y-8954598D01*
X8227799Y-8954598D02*
X8218276Y-8964121D01*
X8218276Y-8964121D02*
X8208752Y-8983169D01*
X8208752Y-8983169D02*
X8208752Y-9030788D01*
X8208752Y-9030788D02*
X8218276Y-9049836D01*
X8218276Y-9049836D02*
X8227799Y-9059360D01*
X8227799Y-9059360D02*
X8246847Y-9068883D01*
X8246847Y-9068883D02*
X8284942Y-9068883D01*
X8284942Y-9068883D02*
X8303990Y-9059360D01*
X8303990Y-9059360D02*
X8313514Y-9049836D01*
X8313514Y-9049836D02*
X8323037Y-9030788D01*
X8503990Y-8945074D02*
X8408752Y-8945074D01*
X8408752Y-8945074D02*
X8399228Y-9040312D01*
X8399228Y-9040312D02*
X8408752Y-9030788D01*
X8408752Y-9030788D02*
X8427799Y-9021264D01*
X8427799Y-9021264D02*
X8475419Y-9021264D01*
X8475419Y-9021264D02*
X8494466Y-9030788D01*
X8494466Y-9030788D02*
X8503990Y-9040312D01*
X8503990Y-9040312D02*
X8513514Y-9059360D01*
X8513514Y-9059360D02*
X8513514Y-9106979D01*
X8513514Y-9106979D02*
X8503990Y-9126026D01*
X8503990Y-9126026D02*
X8494466Y-9135550D01*
X8494466Y-9135550D02*
X8475419Y-9145074D01*
X8475419Y-9145074D02*
X8427799Y-9145074D01*
X8427799Y-9145074D02*
X8408752Y-9135550D01*
X8408752Y-9135550D02*
X8399228Y-9126026D01*
X8589704Y-8945074D02*
X8589704Y-8983169D01*
X8665895Y-8945074D02*
X8665895Y-8983169D01*
X8961133Y-9221264D02*
X8951609Y-9211740D01*
X8951609Y-9211740D02*
X8932561Y-9183169D01*
X8932561Y-9183169D02*
X8923038Y-9164121D01*
X8923038Y-9164121D02*
X8913514Y-9135550D01*
X8913514Y-9135550D02*
X8903990Y-9087931D01*
X8903990Y-9087931D02*
X8903990Y-9049836D01*
X8903990Y-9049836D02*
X8913514Y-9002217D01*
X8913514Y-9002217D02*
X8923038Y-8973645D01*
X8923038Y-8973645D02*
X8932561Y-8954598D01*
X8932561Y-8954598D02*
X8951609Y-8926026D01*
X8951609Y-8926026D02*
X8961133Y-8916502D01*
X9142085Y-9145074D02*
X9027800Y-9145074D01*
X9084942Y-9145074D02*
X9084942Y-8945074D01*
X9084942Y-8945074D02*
X9065895Y-8973645D01*
X9065895Y-8973645D02*
X9046847Y-8992693D01*
X9046847Y-8992693D02*
X9027800Y-9002217D01*
X9265895Y-8945074D02*
X9284942Y-8945074D01*
X9284942Y-8945074D02*
X9303990Y-8954598D01*
X9303990Y-8954598D02*
X9313514Y-8964121D01*
X9313514Y-8964121D02*
X9323038Y-8983169D01*
X9323038Y-8983169D02*
X9332561Y-9021264D01*
X9332561Y-9021264D02*
X9332561Y-9068883D01*
X9332561Y-9068883D02*
X9323038Y-9106979D01*
X9323038Y-9106979D02*
X9313514Y-9126026D01*
X9313514Y-9126026D02*
X9303990Y-9135550D01*
X9303990Y-9135550D02*
X9284942Y-9145074D01*
X9284942Y-9145074D02*
X9265895Y-9145074D01*
X9265895Y-9145074D02*
X9246847Y-9135550D01*
X9246847Y-9135550D02*
X9237323Y-9126026D01*
X9237323Y-9126026D02*
X9227800Y-9106979D01*
X9227800Y-9106979D02*
X9218276Y-9068883D01*
X9218276Y-9068883D02*
X9218276Y-9021264D01*
X9218276Y-9021264D02*
X9227800Y-8983169D01*
X9227800Y-8983169D02*
X9237323Y-8964121D01*
X9237323Y-8964121D02*
X9246847Y-8954598D01*
X9246847Y-8954598D02*
X9265895Y-8945074D01*
X9570657Y-9145074D02*
X9570657Y-8945074D01*
X9656371Y-9145074D02*
X9656371Y-9040312D01*
X9656371Y-9040312D02*
X9646847Y-9021264D01*
X9646847Y-9021264D02*
X9627800Y-9011740D01*
X9627800Y-9011740D02*
X9599228Y-9011740D01*
X9599228Y-9011740D02*
X9580181Y-9021264D01*
X9580181Y-9021264D02*
X9570657Y-9030788D01*
X9780181Y-9145074D02*
X9761133Y-9135550D01*
X9761133Y-9135550D02*
X9751609Y-9126026D01*
X9751609Y-9126026D02*
X9742085Y-9106979D01*
X9742085Y-9106979D02*
X9742085Y-9049836D01*
X9742085Y-9049836D02*
X9751609Y-9030788D01*
X9751609Y-9030788D02*
X9761133Y-9021264D01*
X9761133Y-9021264D02*
X9780181Y-9011740D01*
X9780181Y-9011740D02*
X9808752Y-9011740D01*
X9808752Y-9011740D02*
X9827800Y-9021264D01*
X9827800Y-9021264D02*
X9837323Y-9030788D01*
X9837323Y-9030788D02*
X9846847Y-9049836D01*
X9846847Y-9049836D02*
X9846847Y-9106979D01*
X9846847Y-9106979D02*
X9837323Y-9126026D01*
X9837323Y-9126026D02*
X9827800Y-9135550D01*
X9827800Y-9135550D02*
X9808752Y-9145074D01*
X9808752Y-9145074D02*
X9780181Y-9145074D01*
X9961133Y-9145074D02*
X9942085Y-9135550D01*
X9942085Y-9135550D02*
X9932562Y-9116502D01*
X9932562Y-9116502D02*
X9932562Y-8945074D01*
X10113514Y-9135550D02*
X10094466Y-9145074D01*
X10094466Y-9145074D02*
X10056371Y-9145074D01*
X10056371Y-9145074D02*
X10037323Y-9135550D01*
X10037323Y-9135550D02*
X10027800Y-9116502D01*
X10027800Y-9116502D02*
X10027800Y-9040312D01*
X10027800Y-9040312D02*
X10037323Y-9021264D01*
X10037323Y-9021264D02*
X10056371Y-9011740D01*
X10056371Y-9011740D02*
X10094466Y-9011740D01*
X10094466Y-9011740D02*
X10113514Y-9021264D01*
X10113514Y-9021264D02*
X10123038Y-9040312D01*
X10123038Y-9040312D02*
X10123038Y-9059360D01*
X10123038Y-9059360D02*
X10027800Y-9078407D01*
X10199228Y-9135550D02*
X10218276Y-9145074D01*
X10218276Y-9145074D02*
X10256371Y-9145074D01*
X10256371Y-9145074D02*
X10275419Y-9135550D01*
X10275419Y-9135550D02*
X10284943Y-9116502D01*
X10284943Y-9116502D02*
X10284943Y-9106979D01*
X10284943Y-9106979D02*
X10275419Y-9087931D01*
X10275419Y-9087931D02*
X10256371Y-9078407D01*
X10256371Y-9078407D02*
X10227800Y-9078407D01*
X10227800Y-9078407D02*
X10208752Y-9068883D01*
X10208752Y-9068883D02*
X10199228Y-9049836D01*
X10199228Y-9049836D02*
X10199228Y-9040312D01*
X10199228Y-9040312D02*
X10208752Y-9021264D01*
X10208752Y-9021264D02*
X10227800Y-9011740D01*
X10227800Y-9011740D02*
X10256371Y-9011740D01*
X10256371Y-9011740D02*
X10275419Y-9021264D01*
X10351609Y-9221264D02*
X10361133Y-9211740D01*
X10361133Y-9211740D02*
X10380181Y-9183169D01*
X10380181Y-9183169D02*
X10389704Y-9164121D01*
X10389704Y-9164121D02*
X10399228Y-9135550D01*
X10399228Y-9135550D02*
X10408752Y-9087931D01*
X10408752Y-9087931D02*
X10408752Y-9049836D01*
X10408752Y-9049836D02*
X10399228Y-9002217D01*
X10399228Y-9002217D02*
X10389704Y-8973645D01*
X10389704Y-8973645D02*
X10380181Y-8954598D01*
X10380181Y-8954598D02*
X10361133Y-8926026D01*
X10361133Y-8926026D02*
X10351609Y-8916502D01*
D12*
X5336070Y-9267590D02*
X5336070Y-9367590D01*
X5286070Y-9317590D02*
X5386070Y-9317590D01*
D11*
X5751609Y-9409074D02*
X5637323Y-9409074D01*
X5694466Y-9409074D02*
X5694466Y-9209074D01*
X5694466Y-9209074D02*
X5675418Y-9237645D01*
X5675418Y-9237645D02*
X5656371Y-9256693D01*
X5656371Y-9256693D02*
X5637323Y-9266217D01*
X5837323Y-9390026D02*
X5846847Y-9399550D01*
X5846847Y-9399550D02*
X5837323Y-9409074D01*
X5837323Y-9409074D02*
X5827799Y-9399550D01*
X5827799Y-9399550D02*
X5837323Y-9390026D01*
X5837323Y-9390026D02*
X5837323Y-9409074D01*
X5970656Y-9209074D02*
X5989704Y-9209074D01*
X5989704Y-9209074D02*
X6008752Y-9218598D01*
X6008752Y-9218598D02*
X6018275Y-9228121D01*
X6018275Y-9228121D02*
X6027799Y-9247169D01*
X6027799Y-9247169D02*
X6037323Y-9285264D01*
X6037323Y-9285264D02*
X6037323Y-9332883D01*
X6037323Y-9332883D02*
X6027799Y-9370979D01*
X6027799Y-9370979D02*
X6018275Y-9390026D01*
X6018275Y-9390026D02*
X6008752Y-9399550D01*
X6008752Y-9399550D02*
X5989704Y-9409074D01*
X5989704Y-9409074D02*
X5970656Y-9409074D01*
X5970656Y-9409074D02*
X5951609Y-9399550D01*
X5951609Y-9399550D02*
X5942085Y-9390026D01*
X5942085Y-9390026D02*
X5932561Y-9370979D01*
X5932561Y-9370979D02*
X5923037Y-9332883D01*
X5923037Y-9332883D02*
X5923037Y-9285264D01*
X5923037Y-9285264D02*
X5932561Y-9247169D01*
X5932561Y-9247169D02*
X5942085Y-9228121D01*
X5942085Y-9228121D02*
X5951609Y-9218598D01*
X5951609Y-9218598D02*
X5970656Y-9209074D01*
X6161132Y-9209074D02*
X6180180Y-9209074D01*
X6180180Y-9209074D02*
X6199228Y-9218598D01*
X6199228Y-9218598D02*
X6208752Y-9228121D01*
X6208752Y-9228121D02*
X6218275Y-9247169D01*
X6218275Y-9247169D02*
X6227799Y-9285264D01*
X6227799Y-9285264D02*
X6227799Y-9332883D01*
X6227799Y-9332883D02*
X6218275Y-9370979D01*
X6218275Y-9370979D02*
X6208752Y-9390026D01*
X6208752Y-9390026D02*
X6199228Y-9399550D01*
X6199228Y-9399550D02*
X6180180Y-9409074D01*
X6180180Y-9409074D02*
X6161132Y-9409074D01*
X6161132Y-9409074D02*
X6142085Y-9399550D01*
X6142085Y-9399550D02*
X6132561Y-9390026D01*
X6132561Y-9390026D02*
X6123037Y-9370979D01*
X6123037Y-9370979D02*
X6113513Y-9332883D01*
X6113513Y-9332883D02*
X6113513Y-9285264D01*
X6113513Y-9285264D02*
X6123037Y-9247169D01*
X6123037Y-9247169D02*
X6132561Y-9228121D01*
X6132561Y-9228121D02*
X6142085Y-9218598D01*
X6142085Y-9218598D02*
X6161132Y-9209074D01*
X6351609Y-9209074D02*
X6370656Y-9209074D01*
X6370656Y-9209074D02*
X6389704Y-9218598D01*
X6389704Y-9218598D02*
X6399228Y-9228121D01*
X6399228Y-9228121D02*
X6408752Y-9247169D01*
X6408752Y-9247169D02*
X6418275Y-9285264D01*
X6418275Y-9285264D02*
X6418275Y-9332883D01*
X6418275Y-9332883D02*
X6408752Y-9370979D01*
X6408752Y-9370979D02*
X6399228Y-9390026D01*
X6399228Y-9390026D02*
X6389704Y-9399550D01*
X6389704Y-9399550D02*
X6370656Y-9409074D01*
X6370656Y-9409074D02*
X6351609Y-9409074D01*
X6351609Y-9409074D02*
X6332561Y-9399550D01*
X6332561Y-9399550D02*
X6323037Y-9390026D01*
X6323037Y-9390026D02*
X6313513Y-9370979D01*
X6313513Y-9370979D02*
X6303990Y-9332883D01*
X6303990Y-9332883D02*
X6303990Y-9285264D01*
X6303990Y-9285264D02*
X6313513Y-9247169D01*
X6313513Y-9247169D02*
X6323037Y-9228121D01*
X6323037Y-9228121D02*
X6332561Y-9218598D01*
X6332561Y-9218598D02*
X6351609Y-9209074D01*
X6503990Y-9409074D02*
X6503990Y-9275740D01*
X6503990Y-9294788D02*
X6513513Y-9285264D01*
X6513513Y-9285264D02*
X6532561Y-9275740D01*
X6532561Y-9275740D02*
X6561133Y-9275740D01*
X6561133Y-9275740D02*
X6580180Y-9285264D01*
X6580180Y-9285264D02*
X6589704Y-9304312D01*
X6589704Y-9304312D02*
X6589704Y-9409074D01*
X6589704Y-9304312D02*
X6599228Y-9285264D01*
X6599228Y-9285264D02*
X6618275Y-9275740D01*
X6618275Y-9275740D02*
X6646847Y-9275740D01*
X6646847Y-9275740D02*
X6665894Y-9285264D01*
X6665894Y-9285264D02*
X6675418Y-9304312D01*
X6675418Y-9304312D02*
X6675418Y-9409074D01*
X6770656Y-9409074D02*
X6770656Y-9275740D01*
X6770656Y-9294788D02*
X6780180Y-9285264D01*
X6780180Y-9285264D02*
X6799228Y-9275740D01*
X6799228Y-9275740D02*
X6827799Y-9275740D01*
X6827799Y-9275740D02*
X6846847Y-9285264D01*
X6846847Y-9285264D02*
X6856371Y-9304312D01*
X6856371Y-9304312D02*
X6856371Y-9409074D01*
X6856371Y-9304312D02*
X6865894Y-9285264D01*
X6865894Y-9285264D02*
X6884942Y-9275740D01*
X6884942Y-9275740D02*
X6913513Y-9275740D01*
X6913513Y-9275740D02*
X6932561Y-9285264D01*
X6932561Y-9285264D02*
X6942085Y-9304312D01*
X6942085Y-9304312D02*
X6942085Y-9409074D01*
X7332561Y-9199550D02*
X7161133Y-9456693D01*
X7589704Y-9209074D02*
X7608752Y-9209074D01*
X7608752Y-9209074D02*
X7627799Y-9218598D01*
X7627799Y-9218598D02*
X7637323Y-9228121D01*
X7637323Y-9228121D02*
X7646847Y-9247169D01*
X7646847Y-9247169D02*
X7656371Y-9285264D01*
X7656371Y-9285264D02*
X7656371Y-9332883D01*
X7656371Y-9332883D02*
X7646847Y-9370979D01*
X7646847Y-9370979D02*
X7637323Y-9390026D01*
X7637323Y-9390026D02*
X7627799Y-9399550D01*
X7627799Y-9399550D02*
X7608752Y-9409074D01*
X7608752Y-9409074D02*
X7589704Y-9409074D01*
X7589704Y-9409074D02*
X7570656Y-9399550D01*
X7570656Y-9399550D02*
X7561133Y-9390026D01*
X7561133Y-9390026D02*
X7551609Y-9370979D01*
X7551609Y-9370979D02*
X7542085Y-9332883D01*
X7542085Y-9332883D02*
X7542085Y-9285264D01*
X7542085Y-9285264D02*
X7551609Y-9247169D01*
X7551609Y-9247169D02*
X7561133Y-9228121D01*
X7561133Y-9228121D02*
X7570656Y-9218598D01*
X7570656Y-9218598D02*
X7589704Y-9209074D01*
X7742085Y-9390026D02*
X7751609Y-9399550D01*
X7751609Y-9399550D02*
X7742085Y-9409074D01*
X7742085Y-9409074D02*
X7732561Y-9399550D01*
X7732561Y-9399550D02*
X7742085Y-9390026D01*
X7742085Y-9390026D02*
X7742085Y-9409074D01*
X7875418Y-9209074D02*
X7894466Y-9209074D01*
X7894466Y-9209074D02*
X7913514Y-9218598D01*
X7913514Y-9218598D02*
X7923037Y-9228121D01*
X7923037Y-9228121D02*
X7932561Y-9247169D01*
X7932561Y-9247169D02*
X7942085Y-9285264D01*
X7942085Y-9285264D02*
X7942085Y-9332883D01*
X7942085Y-9332883D02*
X7932561Y-9370979D01*
X7932561Y-9370979D02*
X7923037Y-9390026D01*
X7923037Y-9390026D02*
X7913514Y-9399550D01*
X7913514Y-9399550D02*
X7894466Y-9409074D01*
X7894466Y-9409074D02*
X7875418Y-9409074D01*
X7875418Y-9409074D02*
X7856371Y-9399550D01*
X7856371Y-9399550D02*
X7846847Y-9390026D01*
X7846847Y-9390026D02*
X7837323Y-9370979D01*
X7837323Y-9370979D02*
X7827799Y-9332883D01*
X7827799Y-9332883D02*
X7827799Y-9285264D01*
X7827799Y-9285264D02*
X7837323Y-9247169D01*
X7837323Y-9247169D02*
X7846847Y-9228121D01*
X7846847Y-9228121D02*
X7856371Y-9218598D01*
X7856371Y-9218598D02*
X7875418Y-9209074D01*
X8008752Y-9209074D02*
X8132561Y-9209074D01*
X8132561Y-9209074D02*
X8065895Y-9285264D01*
X8065895Y-9285264D02*
X8094466Y-9285264D01*
X8094466Y-9285264D02*
X8113514Y-9294788D01*
X8113514Y-9294788D02*
X8123037Y-9304312D01*
X8123037Y-9304312D02*
X8132561Y-9323360D01*
X8132561Y-9323360D02*
X8132561Y-9370979D01*
X8132561Y-9370979D02*
X8123037Y-9390026D01*
X8123037Y-9390026D02*
X8113514Y-9399550D01*
X8113514Y-9399550D02*
X8094466Y-9409074D01*
X8094466Y-9409074D02*
X8037323Y-9409074D01*
X8037323Y-9409074D02*
X8018276Y-9399550D01*
X8018276Y-9399550D02*
X8008752Y-9390026D01*
X8227799Y-9409074D02*
X8265895Y-9409074D01*
X8265895Y-9409074D02*
X8284942Y-9399550D01*
X8284942Y-9399550D02*
X8294466Y-9390026D01*
X8294466Y-9390026D02*
X8313514Y-9361455D01*
X8313514Y-9361455D02*
X8323037Y-9323360D01*
X8323037Y-9323360D02*
X8323037Y-9247169D01*
X8323037Y-9247169D02*
X8313514Y-9228121D01*
X8313514Y-9228121D02*
X8303990Y-9218598D01*
X8303990Y-9218598D02*
X8284942Y-9209074D01*
X8284942Y-9209074D02*
X8246847Y-9209074D01*
X8246847Y-9209074D02*
X8227799Y-9218598D01*
X8227799Y-9218598D02*
X8218276Y-9228121D01*
X8218276Y-9228121D02*
X8208752Y-9247169D01*
X8208752Y-9247169D02*
X8208752Y-9294788D01*
X8208752Y-9294788D02*
X8218276Y-9313836D01*
X8218276Y-9313836D02*
X8227799Y-9323360D01*
X8227799Y-9323360D02*
X8246847Y-9332883D01*
X8246847Y-9332883D02*
X8284942Y-9332883D01*
X8284942Y-9332883D02*
X8303990Y-9323360D01*
X8303990Y-9323360D02*
X8313514Y-9313836D01*
X8313514Y-9313836D02*
X8323037Y-9294788D01*
X8494466Y-9275740D02*
X8494466Y-9409074D01*
X8446847Y-9199550D02*
X8399228Y-9342407D01*
X8399228Y-9342407D02*
X8523038Y-9342407D01*
X8589704Y-9209074D02*
X8589704Y-9247169D01*
X8665895Y-9209074D02*
X8665895Y-9247169D01*
X8961133Y-9485264D02*
X8951609Y-9475740D01*
X8951609Y-9475740D02*
X8932561Y-9447169D01*
X8932561Y-9447169D02*
X8923038Y-9428121D01*
X8923038Y-9428121D02*
X8913514Y-9399550D01*
X8913514Y-9399550D02*
X8903990Y-9351931D01*
X8903990Y-9351931D02*
X8903990Y-9313836D01*
X8903990Y-9313836D02*
X8913514Y-9266217D01*
X8913514Y-9266217D02*
X8923038Y-9237645D01*
X8923038Y-9237645D02*
X8932561Y-9218598D01*
X8932561Y-9218598D02*
X8951609Y-9190026D01*
X8951609Y-9190026D02*
X8961133Y-9180502D01*
X9123038Y-9275740D02*
X9123038Y-9409074D01*
X9075419Y-9199550D02*
X9027800Y-9342407D01*
X9027800Y-9342407D02*
X9151609Y-9342407D01*
X9265895Y-9209074D02*
X9284942Y-9209074D01*
X9284942Y-9209074D02*
X9303990Y-9218598D01*
X9303990Y-9218598D02*
X9313514Y-9228121D01*
X9313514Y-9228121D02*
X9323038Y-9247169D01*
X9323038Y-9247169D02*
X9332561Y-9285264D01*
X9332561Y-9285264D02*
X9332561Y-9332883D01*
X9332561Y-9332883D02*
X9323038Y-9370979D01*
X9323038Y-9370979D02*
X9313514Y-9390026D01*
X9313514Y-9390026D02*
X9303990Y-9399550D01*
X9303990Y-9399550D02*
X9284942Y-9409074D01*
X9284942Y-9409074D02*
X9265895Y-9409074D01*
X9265895Y-9409074D02*
X9246847Y-9399550D01*
X9246847Y-9399550D02*
X9237323Y-9390026D01*
X9237323Y-9390026D02*
X9227800Y-9370979D01*
X9227800Y-9370979D02*
X9218276Y-9332883D01*
X9218276Y-9332883D02*
X9218276Y-9285264D01*
X9218276Y-9285264D02*
X9227800Y-9247169D01*
X9227800Y-9247169D02*
X9237323Y-9228121D01*
X9237323Y-9228121D02*
X9246847Y-9218598D01*
X9246847Y-9218598D02*
X9265895Y-9209074D01*
X9570657Y-9409074D02*
X9570657Y-9209074D01*
X9656371Y-9409074D02*
X9656371Y-9304312D01*
X9656371Y-9304312D02*
X9646847Y-9285264D01*
X9646847Y-9285264D02*
X9627800Y-9275740D01*
X9627800Y-9275740D02*
X9599228Y-9275740D01*
X9599228Y-9275740D02*
X9580181Y-9285264D01*
X9580181Y-9285264D02*
X9570657Y-9294788D01*
X9780181Y-9409074D02*
X9761133Y-9399550D01*
X9761133Y-9399550D02*
X9751609Y-9390026D01*
X9751609Y-9390026D02*
X9742085Y-9370979D01*
X9742085Y-9370979D02*
X9742085Y-9313836D01*
X9742085Y-9313836D02*
X9751609Y-9294788D01*
X9751609Y-9294788D02*
X9761133Y-9285264D01*
X9761133Y-9285264D02*
X9780181Y-9275740D01*
X9780181Y-9275740D02*
X9808752Y-9275740D01*
X9808752Y-9275740D02*
X9827800Y-9285264D01*
X9827800Y-9285264D02*
X9837323Y-9294788D01*
X9837323Y-9294788D02*
X9846847Y-9313836D01*
X9846847Y-9313836D02*
X9846847Y-9370979D01*
X9846847Y-9370979D02*
X9837323Y-9390026D01*
X9837323Y-9390026D02*
X9827800Y-9399550D01*
X9827800Y-9399550D02*
X9808752Y-9409074D01*
X9808752Y-9409074D02*
X9780181Y-9409074D01*
X9961133Y-9409074D02*
X9942085Y-9399550D01*
X9942085Y-9399550D02*
X9932562Y-9380502D01*
X9932562Y-9380502D02*
X9932562Y-9209074D01*
X10113514Y-9399550D02*
X10094466Y-9409074D01*
X10094466Y-9409074D02*
X10056371Y-9409074D01*
X10056371Y-9409074D02*
X10037323Y-9399550D01*
X10037323Y-9399550D02*
X10027800Y-9380502D01*
X10027800Y-9380502D02*
X10027800Y-9304312D01*
X10027800Y-9304312D02*
X10037323Y-9285264D01*
X10037323Y-9285264D02*
X10056371Y-9275740D01*
X10056371Y-9275740D02*
X10094466Y-9275740D01*
X10094466Y-9275740D02*
X10113514Y-9285264D01*
X10113514Y-9285264D02*
X10123038Y-9304312D01*
X10123038Y-9304312D02*
X10123038Y-9323360D01*
X10123038Y-9323360D02*
X10027800Y-9342407D01*
X10199228Y-9399550D02*
X10218276Y-9409074D01*
X10218276Y-9409074D02*
X10256371Y-9409074D01*
X10256371Y-9409074D02*
X10275419Y-9399550D01*
X10275419Y-9399550D02*
X10284943Y-9380502D01*
X10284943Y-9380502D02*
X10284943Y-9370979D01*
X10284943Y-9370979D02*
X10275419Y-9351931D01*
X10275419Y-9351931D02*
X10256371Y-9342407D01*
X10256371Y-9342407D02*
X10227800Y-9342407D01*
X10227800Y-9342407D02*
X10208752Y-9332883D01*
X10208752Y-9332883D02*
X10199228Y-9313836D01*
X10199228Y-9313836D02*
X10199228Y-9304312D01*
X10199228Y-9304312D02*
X10208752Y-9285264D01*
X10208752Y-9285264D02*
X10227800Y-9275740D01*
X10227800Y-9275740D02*
X10256371Y-9275740D01*
X10256371Y-9275740D02*
X10275419Y-9285264D01*
X10351609Y-9485264D02*
X10361133Y-9475740D01*
X10361133Y-9475740D02*
X10380181Y-9447169D01*
X10380181Y-9447169D02*
X10389704Y-9428121D01*
X10389704Y-9428121D02*
X10399228Y-9399550D01*
X10399228Y-9399550D02*
X10408752Y-9351931D01*
X10408752Y-9351931D02*
X10408752Y-9313836D01*
X10408752Y-9313836D02*
X10399228Y-9266217D01*
X10399228Y-9266217D02*
X10389704Y-9237645D01*
X10389704Y-9237645D02*
X10380181Y-9218598D01*
X10380181Y-9218598D02*
X10361133Y-9190026D01*
X10361133Y-9190026D02*
X10351609Y-9180502D01*
D13*
X5369229Y-9622249D02*
X5369229Y-9540931D01*
X5287911Y-9540931D01*
X5287911Y-9622249D01*
X5369229Y-9622249D01*
D11*
X5751609Y-9673074D02*
X5637323Y-9673074D01*
X5694466Y-9673074D02*
X5694466Y-9473074D01*
X5694466Y-9473074D02*
X5675418Y-9501645D01*
X5675418Y-9501645D02*
X5656371Y-9520693D01*
X5656371Y-9520693D02*
X5637323Y-9530217D01*
X5837323Y-9654026D02*
X5846847Y-9663550D01*
X5846847Y-9663550D02*
X5837323Y-9673074D01*
X5837323Y-9673074D02*
X5827799Y-9663550D01*
X5827799Y-9663550D02*
X5837323Y-9654026D01*
X5837323Y-9654026D02*
X5837323Y-9673074D01*
X6037323Y-9673074D02*
X5923037Y-9673074D01*
X5980180Y-9673074D02*
X5980180Y-9473074D01*
X5980180Y-9473074D02*
X5961132Y-9501645D01*
X5961132Y-9501645D02*
X5942085Y-9520693D01*
X5942085Y-9520693D02*
X5923037Y-9530217D01*
X6218275Y-9473074D02*
X6123037Y-9473074D01*
X6123037Y-9473074D02*
X6113513Y-9568312D01*
X6113513Y-9568312D02*
X6123037Y-9558788D01*
X6123037Y-9558788D02*
X6142085Y-9549264D01*
X6142085Y-9549264D02*
X6189704Y-9549264D01*
X6189704Y-9549264D02*
X6208752Y-9558788D01*
X6208752Y-9558788D02*
X6218275Y-9568312D01*
X6218275Y-9568312D02*
X6227799Y-9587360D01*
X6227799Y-9587360D02*
X6227799Y-9634979D01*
X6227799Y-9634979D02*
X6218275Y-9654026D01*
X6218275Y-9654026D02*
X6208752Y-9663550D01*
X6208752Y-9663550D02*
X6189704Y-9673074D01*
X6189704Y-9673074D02*
X6142085Y-9673074D01*
X6142085Y-9673074D02*
X6123037Y-9663550D01*
X6123037Y-9663550D02*
X6113513Y-9654026D01*
X6351609Y-9473074D02*
X6370656Y-9473074D01*
X6370656Y-9473074D02*
X6389704Y-9482598D01*
X6389704Y-9482598D02*
X6399228Y-9492121D01*
X6399228Y-9492121D02*
X6408752Y-9511169D01*
X6408752Y-9511169D02*
X6418275Y-9549264D01*
X6418275Y-9549264D02*
X6418275Y-9596883D01*
X6418275Y-9596883D02*
X6408752Y-9634979D01*
X6408752Y-9634979D02*
X6399228Y-9654026D01*
X6399228Y-9654026D02*
X6389704Y-9663550D01*
X6389704Y-9663550D02*
X6370656Y-9673074D01*
X6370656Y-9673074D02*
X6351609Y-9673074D01*
X6351609Y-9673074D02*
X6332561Y-9663550D01*
X6332561Y-9663550D02*
X6323037Y-9654026D01*
X6323037Y-9654026D02*
X6313513Y-9634979D01*
X6313513Y-9634979D02*
X6303990Y-9596883D01*
X6303990Y-9596883D02*
X6303990Y-9549264D01*
X6303990Y-9549264D02*
X6313513Y-9511169D01*
X6313513Y-9511169D02*
X6323037Y-9492121D01*
X6323037Y-9492121D02*
X6332561Y-9482598D01*
X6332561Y-9482598D02*
X6351609Y-9473074D01*
X6503990Y-9673074D02*
X6503990Y-9539740D01*
X6503990Y-9558788D02*
X6513513Y-9549264D01*
X6513513Y-9549264D02*
X6532561Y-9539740D01*
X6532561Y-9539740D02*
X6561133Y-9539740D01*
X6561133Y-9539740D02*
X6580180Y-9549264D01*
X6580180Y-9549264D02*
X6589704Y-9568312D01*
X6589704Y-9568312D02*
X6589704Y-9673074D01*
X6589704Y-9568312D02*
X6599228Y-9549264D01*
X6599228Y-9549264D02*
X6618275Y-9539740D01*
X6618275Y-9539740D02*
X6646847Y-9539740D01*
X6646847Y-9539740D02*
X6665894Y-9549264D01*
X6665894Y-9549264D02*
X6675418Y-9568312D01*
X6675418Y-9568312D02*
X6675418Y-9673074D01*
X6770656Y-9673074D02*
X6770656Y-9539740D01*
X6770656Y-9558788D02*
X6780180Y-9549264D01*
X6780180Y-9549264D02*
X6799228Y-9539740D01*
X6799228Y-9539740D02*
X6827799Y-9539740D01*
X6827799Y-9539740D02*
X6846847Y-9549264D01*
X6846847Y-9549264D02*
X6856371Y-9568312D01*
X6856371Y-9568312D02*
X6856371Y-9673074D01*
X6856371Y-9568312D02*
X6865894Y-9549264D01*
X6865894Y-9549264D02*
X6884942Y-9539740D01*
X6884942Y-9539740D02*
X6913513Y-9539740D01*
X6913513Y-9539740D02*
X6932561Y-9549264D01*
X6932561Y-9549264D02*
X6942085Y-9568312D01*
X6942085Y-9568312D02*
X6942085Y-9673074D01*
X7332561Y-9463550D02*
X7161133Y-9720693D01*
X7589704Y-9473074D02*
X7608752Y-9473074D01*
X7608752Y-9473074D02*
X7627799Y-9482598D01*
X7627799Y-9482598D02*
X7637323Y-9492121D01*
X7637323Y-9492121D02*
X7646847Y-9511169D01*
X7646847Y-9511169D02*
X7656371Y-9549264D01*
X7656371Y-9549264D02*
X7656371Y-9596883D01*
X7656371Y-9596883D02*
X7646847Y-9634979D01*
X7646847Y-9634979D02*
X7637323Y-9654026D01*
X7637323Y-9654026D02*
X7627799Y-9663550D01*
X7627799Y-9663550D02*
X7608752Y-9673074D01*
X7608752Y-9673074D02*
X7589704Y-9673074D01*
X7589704Y-9673074D02*
X7570656Y-9663550D01*
X7570656Y-9663550D02*
X7561133Y-9654026D01*
X7561133Y-9654026D02*
X7551609Y-9634979D01*
X7551609Y-9634979D02*
X7542085Y-9596883D01*
X7542085Y-9596883D02*
X7542085Y-9549264D01*
X7542085Y-9549264D02*
X7551609Y-9511169D01*
X7551609Y-9511169D02*
X7561133Y-9492121D01*
X7561133Y-9492121D02*
X7570656Y-9482598D01*
X7570656Y-9482598D02*
X7589704Y-9473074D01*
X7742085Y-9654026D02*
X7751609Y-9663550D01*
X7751609Y-9663550D02*
X7742085Y-9673074D01*
X7742085Y-9673074D02*
X7732561Y-9663550D01*
X7732561Y-9663550D02*
X7742085Y-9654026D01*
X7742085Y-9654026D02*
X7742085Y-9673074D01*
X7875418Y-9473074D02*
X7894466Y-9473074D01*
X7894466Y-9473074D02*
X7913514Y-9482598D01*
X7913514Y-9482598D02*
X7923037Y-9492121D01*
X7923037Y-9492121D02*
X7932561Y-9511169D01*
X7932561Y-9511169D02*
X7942085Y-9549264D01*
X7942085Y-9549264D02*
X7942085Y-9596883D01*
X7942085Y-9596883D02*
X7932561Y-9634979D01*
X7932561Y-9634979D02*
X7923037Y-9654026D01*
X7923037Y-9654026D02*
X7913514Y-9663550D01*
X7913514Y-9663550D02*
X7894466Y-9673074D01*
X7894466Y-9673074D02*
X7875418Y-9673074D01*
X7875418Y-9673074D02*
X7856371Y-9663550D01*
X7856371Y-9663550D02*
X7846847Y-9654026D01*
X7846847Y-9654026D02*
X7837323Y-9634979D01*
X7837323Y-9634979D02*
X7827799Y-9596883D01*
X7827799Y-9596883D02*
X7827799Y-9549264D01*
X7827799Y-9549264D02*
X7837323Y-9511169D01*
X7837323Y-9511169D02*
X7846847Y-9492121D01*
X7846847Y-9492121D02*
X7856371Y-9482598D01*
X7856371Y-9482598D02*
X7875418Y-9473074D01*
X8113514Y-9539740D02*
X8113514Y-9673074D01*
X8065895Y-9463550D02*
X8018276Y-9606407D01*
X8018276Y-9606407D02*
X8142085Y-9606407D01*
X8313514Y-9473074D02*
X8218276Y-9473074D01*
X8218276Y-9473074D02*
X8208752Y-9568312D01*
X8208752Y-9568312D02*
X8218276Y-9558788D01*
X8218276Y-9558788D02*
X8237323Y-9549264D01*
X8237323Y-9549264D02*
X8284942Y-9549264D01*
X8284942Y-9549264D02*
X8303990Y-9558788D01*
X8303990Y-9558788D02*
X8313514Y-9568312D01*
X8313514Y-9568312D02*
X8323037Y-9587360D01*
X8323037Y-9587360D02*
X8323037Y-9634979D01*
X8323037Y-9634979D02*
X8313514Y-9654026D01*
X8313514Y-9654026D02*
X8303990Y-9663550D01*
X8303990Y-9663550D02*
X8284942Y-9673074D01*
X8284942Y-9673074D02*
X8237323Y-9673074D01*
X8237323Y-9673074D02*
X8218276Y-9663550D01*
X8218276Y-9663550D02*
X8208752Y-9654026D01*
X8389704Y-9473074D02*
X8513514Y-9473074D01*
X8513514Y-9473074D02*
X8446847Y-9549264D01*
X8446847Y-9549264D02*
X8475419Y-9549264D01*
X8475419Y-9549264D02*
X8494466Y-9558788D01*
X8494466Y-9558788D02*
X8503990Y-9568312D01*
X8503990Y-9568312D02*
X8513514Y-9587360D01*
X8513514Y-9587360D02*
X8513514Y-9634979D01*
X8513514Y-9634979D02*
X8503990Y-9654026D01*
X8503990Y-9654026D02*
X8494466Y-9663550D01*
X8494466Y-9663550D02*
X8475419Y-9673074D01*
X8475419Y-9673074D02*
X8418276Y-9673074D01*
X8418276Y-9673074D02*
X8399228Y-9663550D01*
X8399228Y-9663550D02*
X8389704Y-9654026D01*
X8589704Y-9473074D02*
X8589704Y-9511169D01*
X8665895Y-9473074D02*
X8665895Y-9511169D01*
X8961133Y-9749264D02*
X8951609Y-9739740D01*
X8951609Y-9739740D02*
X8932561Y-9711169D01*
X8932561Y-9711169D02*
X8923038Y-9692121D01*
X8923038Y-9692121D02*
X8913514Y-9663550D01*
X8913514Y-9663550D02*
X8903990Y-9615931D01*
X8903990Y-9615931D02*
X8903990Y-9577836D01*
X8903990Y-9577836D02*
X8913514Y-9530217D01*
X8913514Y-9530217D02*
X8923038Y-9501645D01*
X8923038Y-9501645D02*
X8932561Y-9482598D01*
X8932561Y-9482598D02*
X8951609Y-9454026D01*
X8951609Y-9454026D02*
X8961133Y-9444502D01*
X9018276Y-9473074D02*
X9142085Y-9473074D01*
X9142085Y-9473074D02*
X9075419Y-9549264D01*
X9075419Y-9549264D02*
X9103990Y-9549264D01*
X9103990Y-9549264D02*
X9123038Y-9558788D01*
X9123038Y-9558788D02*
X9132561Y-9568312D01*
X9132561Y-9568312D02*
X9142085Y-9587360D01*
X9142085Y-9587360D02*
X9142085Y-9634979D01*
X9142085Y-9634979D02*
X9132561Y-9654026D01*
X9132561Y-9654026D02*
X9123038Y-9663550D01*
X9123038Y-9663550D02*
X9103990Y-9673074D01*
X9103990Y-9673074D02*
X9046847Y-9673074D01*
X9046847Y-9673074D02*
X9027800Y-9663550D01*
X9027800Y-9663550D02*
X9018276Y-9654026D01*
X9265895Y-9473074D02*
X9284942Y-9473074D01*
X9284942Y-9473074D02*
X9303990Y-9482598D01*
X9303990Y-9482598D02*
X9313514Y-9492121D01*
X9313514Y-9492121D02*
X9323038Y-9511169D01*
X9323038Y-9511169D02*
X9332561Y-9549264D01*
X9332561Y-9549264D02*
X9332561Y-9596883D01*
X9332561Y-9596883D02*
X9323038Y-9634979D01*
X9323038Y-9634979D02*
X9313514Y-9654026D01*
X9313514Y-9654026D02*
X9303990Y-9663550D01*
X9303990Y-9663550D02*
X9284942Y-9673074D01*
X9284942Y-9673074D02*
X9265895Y-9673074D01*
X9265895Y-9673074D02*
X9246847Y-9663550D01*
X9246847Y-9663550D02*
X9237323Y-9654026D01*
X9237323Y-9654026D02*
X9227800Y-9634979D01*
X9227800Y-9634979D02*
X9218276Y-9596883D01*
X9218276Y-9596883D02*
X9218276Y-9549264D01*
X9218276Y-9549264D02*
X9227800Y-9511169D01*
X9227800Y-9511169D02*
X9237323Y-9492121D01*
X9237323Y-9492121D02*
X9246847Y-9482598D01*
X9246847Y-9482598D02*
X9265895Y-9473074D01*
X9570657Y-9673074D02*
X9570657Y-9473074D01*
X9656371Y-9673074D02*
X9656371Y-9568312D01*
X9656371Y-9568312D02*
X9646847Y-9549264D01*
X9646847Y-9549264D02*
X9627800Y-9539740D01*
X9627800Y-9539740D02*
X9599228Y-9539740D01*
X9599228Y-9539740D02*
X9580181Y-9549264D01*
X9580181Y-9549264D02*
X9570657Y-9558788D01*
X9780181Y-9673074D02*
X9761133Y-9663550D01*
X9761133Y-9663550D02*
X9751609Y-9654026D01*
X9751609Y-9654026D02*
X9742085Y-9634979D01*
X9742085Y-9634979D02*
X9742085Y-9577836D01*
X9742085Y-9577836D02*
X9751609Y-9558788D01*
X9751609Y-9558788D02*
X9761133Y-9549264D01*
X9761133Y-9549264D02*
X9780181Y-9539740D01*
X9780181Y-9539740D02*
X9808752Y-9539740D01*
X9808752Y-9539740D02*
X9827800Y-9549264D01*
X9827800Y-9549264D02*
X9837323Y-9558788D01*
X9837323Y-9558788D02*
X9846847Y-9577836D01*
X9846847Y-9577836D02*
X9846847Y-9634979D01*
X9846847Y-9634979D02*
X9837323Y-9654026D01*
X9837323Y-9654026D02*
X9827800Y-9663550D01*
X9827800Y-9663550D02*
X9808752Y-9673074D01*
X9808752Y-9673074D02*
X9780181Y-9673074D01*
X9961133Y-9673074D02*
X9942085Y-9663550D01*
X9942085Y-9663550D02*
X9932562Y-9644502D01*
X9932562Y-9644502D02*
X9932562Y-9473074D01*
X10113514Y-9663550D02*
X10094466Y-9673074D01*
X10094466Y-9673074D02*
X10056371Y-9673074D01*
X10056371Y-9673074D02*
X10037323Y-9663550D01*
X10037323Y-9663550D02*
X10027800Y-9644502D01*
X10027800Y-9644502D02*
X10027800Y-9568312D01*
X10027800Y-9568312D02*
X10037323Y-9549264D01*
X10037323Y-9549264D02*
X10056371Y-9539740D01*
X10056371Y-9539740D02*
X10094466Y-9539740D01*
X10094466Y-9539740D02*
X10113514Y-9549264D01*
X10113514Y-9549264D02*
X10123038Y-9568312D01*
X10123038Y-9568312D02*
X10123038Y-9587360D01*
X10123038Y-9587360D02*
X10027800Y-9606407D01*
X10199228Y-9663550D02*
X10218276Y-9673074D01*
X10218276Y-9673074D02*
X10256371Y-9673074D01*
X10256371Y-9673074D02*
X10275419Y-9663550D01*
X10275419Y-9663550D02*
X10284943Y-9644502D01*
X10284943Y-9644502D02*
X10284943Y-9634979D01*
X10284943Y-9634979D02*
X10275419Y-9615931D01*
X10275419Y-9615931D02*
X10256371Y-9606407D01*
X10256371Y-9606407D02*
X10227800Y-9606407D01*
X10227800Y-9606407D02*
X10208752Y-9596883D01*
X10208752Y-9596883D02*
X10199228Y-9577836D01*
X10199228Y-9577836D02*
X10199228Y-9568312D01*
X10199228Y-9568312D02*
X10208752Y-9549264D01*
X10208752Y-9549264D02*
X10227800Y-9539740D01*
X10227800Y-9539740D02*
X10256371Y-9539740D01*
X10256371Y-9539740D02*
X10275419Y-9549264D01*
X10351609Y-9749264D02*
X10361133Y-9739740D01*
X10361133Y-9739740D02*
X10380181Y-9711169D01*
X10380181Y-9711169D02*
X10389704Y-9692121D01*
X10389704Y-9692121D02*
X10399228Y-9663550D01*
X10399228Y-9663550D02*
X10408752Y-9615931D01*
X10408752Y-9615931D02*
X10408752Y-9577836D01*
X10408752Y-9577836D02*
X10399228Y-9530217D01*
X10399228Y-9530217D02*
X10389704Y-9501645D01*
X10389704Y-9501645D02*
X10380181Y-9482598D01*
X10380181Y-9482598D02*
X10361133Y-9454026D01*
X10361133Y-9454026D02*
X10351609Y-9444502D01*
X5286070Y-9945590D02*
X5386070Y-9845590D01*
X5286070Y-9745590D01*
X5186070Y-9845590D01*
X5286070Y-9945590D01*
X5627799Y-9737074D02*
X5751609Y-9737074D01*
X5751609Y-9737074D02*
X5684942Y-9813264D01*
X5684942Y-9813264D02*
X5713513Y-9813264D01*
X5713513Y-9813264D02*
X5732561Y-9822788D01*
X5732561Y-9822788D02*
X5742085Y-9832312D01*
X5742085Y-9832312D02*
X5751609Y-9851360D01*
X5751609Y-9851360D02*
X5751609Y-9898979D01*
X5751609Y-9898979D02*
X5742085Y-9918026D01*
X5742085Y-9918026D02*
X5732561Y-9927550D01*
X5732561Y-9927550D02*
X5713513Y-9937074D01*
X5713513Y-9937074D02*
X5656371Y-9937074D01*
X5656371Y-9937074D02*
X5637323Y-9927550D01*
X5637323Y-9927550D02*
X5627799Y-9918026D01*
X5837323Y-9918026D02*
X5846847Y-9927550D01*
X5846847Y-9927550D02*
X5837323Y-9937074D01*
X5837323Y-9937074D02*
X5827799Y-9927550D01*
X5827799Y-9927550D02*
X5837323Y-9918026D01*
X5837323Y-9918026D02*
X5837323Y-9937074D01*
X5923037Y-9756121D02*
X5932561Y-9746598D01*
X5932561Y-9746598D02*
X5951609Y-9737074D01*
X5951609Y-9737074D02*
X5999228Y-9737074D01*
X5999228Y-9737074D02*
X6018275Y-9746598D01*
X6018275Y-9746598D02*
X6027799Y-9756121D01*
X6027799Y-9756121D02*
X6037323Y-9775169D01*
X6037323Y-9775169D02*
X6037323Y-9794217D01*
X6037323Y-9794217D02*
X6027799Y-9822788D01*
X6027799Y-9822788D02*
X5913513Y-9937074D01*
X5913513Y-9937074D02*
X6037323Y-9937074D01*
X6218275Y-9737074D02*
X6123037Y-9737074D01*
X6123037Y-9737074D02*
X6113513Y-9832312D01*
X6113513Y-9832312D02*
X6123037Y-9822788D01*
X6123037Y-9822788D02*
X6142085Y-9813264D01*
X6142085Y-9813264D02*
X6189704Y-9813264D01*
X6189704Y-9813264D02*
X6208752Y-9822788D01*
X6208752Y-9822788D02*
X6218275Y-9832312D01*
X6218275Y-9832312D02*
X6227799Y-9851360D01*
X6227799Y-9851360D02*
X6227799Y-9898979D01*
X6227799Y-9898979D02*
X6218275Y-9918026D01*
X6218275Y-9918026D02*
X6208752Y-9927550D01*
X6208752Y-9927550D02*
X6189704Y-9937074D01*
X6189704Y-9937074D02*
X6142085Y-9937074D01*
X6142085Y-9937074D02*
X6123037Y-9927550D01*
X6123037Y-9927550D02*
X6113513Y-9918026D01*
X6351609Y-9737074D02*
X6370656Y-9737074D01*
X6370656Y-9737074D02*
X6389704Y-9746598D01*
X6389704Y-9746598D02*
X6399228Y-9756121D01*
X6399228Y-9756121D02*
X6408752Y-9775169D01*
X6408752Y-9775169D02*
X6418275Y-9813264D01*
X6418275Y-9813264D02*
X6418275Y-9860883D01*
X6418275Y-9860883D02*
X6408752Y-9898979D01*
X6408752Y-9898979D02*
X6399228Y-9918026D01*
X6399228Y-9918026D02*
X6389704Y-9927550D01*
X6389704Y-9927550D02*
X6370656Y-9937074D01*
X6370656Y-9937074D02*
X6351609Y-9937074D01*
X6351609Y-9937074D02*
X6332561Y-9927550D01*
X6332561Y-9927550D02*
X6323037Y-9918026D01*
X6323037Y-9918026D02*
X6313513Y-9898979D01*
X6313513Y-9898979D02*
X6303990Y-9860883D01*
X6303990Y-9860883D02*
X6303990Y-9813264D01*
X6303990Y-9813264D02*
X6313513Y-9775169D01*
X6313513Y-9775169D02*
X6323037Y-9756121D01*
X6323037Y-9756121D02*
X6332561Y-9746598D01*
X6332561Y-9746598D02*
X6351609Y-9737074D01*
X6503990Y-9937074D02*
X6503990Y-9803740D01*
X6503990Y-9822788D02*
X6513513Y-9813264D01*
X6513513Y-9813264D02*
X6532561Y-9803740D01*
X6532561Y-9803740D02*
X6561133Y-9803740D01*
X6561133Y-9803740D02*
X6580180Y-9813264D01*
X6580180Y-9813264D02*
X6589704Y-9832312D01*
X6589704Y-9832312D02*
X6589704Y-9937074D01*
X6589704Y-9832312D02*
X6599228Y-9813264D01*
X6599228Y-9813264D02*
X6618275Y-9803740D01*
X6618275Y-9803740D02*
X6646847Y-9803740D01*
X6646847Y-9803740D02*
X6665894Y-9813264D01*
X6665894Y-9813264D02*
X6675418Y-9832312D01*
X6675418Y-9832312D02*
X6675418Y-9937074D01*
X6770656Y-9937074D02*
X6770656Y-9803740D01*
X6770656Y-9822788D02*
X6780180Y-9813264D01*
X6780180Y-9813264D02*
X6799228Y-9803740D01*
X6799228Y-9803740D02*
X6827799Y-9803740D01*
X6827799Y-9803740D02*
X6846847Y-9813264D01*
X6846847Y-9813264D02*
X6856371Y-9832312D01*
X6856371Y-9832312D02*
X6856371Y-9937074D01*
X6856371Y-9832312D02*
X6865894Y-9813264D01*
X6865894Y-9813264D02*
X6884942Y-9803740D01*
X6884942Y-9803740D02*
X6913513Y-9803740D01*
X6913513Y-9803740D02*
X6932561Y-9813264D01*
X6932561Y-9813264D02*
X6942085Y-9832312D01*
X6942085Y-9832312D02*
X6942085Y-9937074D01*
X7332561Y-9727550D02*
X7161133Y-9984693D01*
X7589704Y-9737074D02*
X7608752Y-9737074D01*
X7608752Y-9737074D02*
X7627799Y-9746598D01*
X7627799Y-9746598D02*
X7637323Y-9756121D01*
X7637323Y-9756121D02*
X7646847Y-9775169D01*
X7646847Y-9775169D02*
X7656371Y-9813264D01*
X7656371Y-9813264D02*
X7656371Y-9860883D01*
X7656371Y-9860883D02*
X7646847Y-9898979D01*
X7646847Y-9898979D02*
X7637323Y-9918026D01*
X7637323Y-9918026D02*
X7627799Y-9927550D01*
X7627799Y-9927550D02*
X7608752Y-9937074D01*
X7608752Y-9937074D02*
X7589704Y-9937074D01*
X7589704Y-9937074D02*
X7570656Y-9927550D01*
X7570656Y-9927550D02*
X7561133Y-9918026D01*
X7561133Y-9918026D02*
X7551609Y-9898979D01*
X7551609Y-9898979D02*
X7542085Y-9860883D01*
X7542085Y-9860883D02*
X7542085Y-9813264D01*
X7542085Y-9813264D02*
X7551609Y-9775169D01*
X7551609Y-9775169D02*
X7561133Y-9756121D01*
X7561133Y-9756121D02*
X7570656Y-9746598D01*
X7570656Y-9746598D02*
X7589704Y-9737074D01*
X7742085Y-9918026D02*
X7751609Y-9927550D01*
X7751609Y-9927550D02*
X7742085Y-9937074D01*
X7742085Y-9937074D02*
X7732561Y-9927550D01*
X7732561Y-9927550D02*
X7742085Y-9918026D01*
X7742085Y-9918026D02*
X7742085Y-9937074D01*
X7942085Y-9937074D02*
X7827799Y-9937074D01*
X7884942Y-9937074D02*
X7884942Y-9737074D01*
X7884942Y-9737074D02*
X7865895Y-9765645D01*
X7865895Y-9765645D02*
X7846847Y-9784693D01*
X7846847Y-9784693D02*
X7827799Y-9794217D01*
X8018276Y-9756121D02*
X8027799Y-9746598D01*
X8027799Y-9746598D02*
X8046847Y-9737074D01*
X8046847Y-9737074D02*
X8094466Y-9737074D01*
X8094466Y-9737074D02*
X8113514Y-9746598D01*
X8113514Y-9746598D02*
X8123037Y-9756121D01*
X8123037Y-9756121D02*
X8132561Y-9775169D01*
X8132561Y-9775169D02*
X8132561Y-9794217D01*
X8132561Y-9794217D02*
X8123037Y-9822788D01*
X8123037Y-9822788D02*
X8008752Y-9937074D01*
X8008752Y-9937074D02*
X8132561Y-9937074D01*
X8246847Y-9822788D02*
X8227799Y-9813264D01*
X8227799Y-9813264D02*
X8218276Y-9803740D01*
X8218276Y-9803740D02*
X8208752Y-9784693D01*
X8208752Y-9784693D02*
X8208752Y-9775169D01*
X8208752Y-9775169D02*
X8218276Y-9756121D01*
X8218276Y-9756121D02*
X8227799Y-9746598D01*
X8227799Y-9746598D02*
X8246847Y-9737074D01*
X8246847Y-9737074D02*
X8284942Y-9737074D01*
X8284942Y-9737074D02*
X8303990Y-9746598D01*
X8303990Y-9746598D02*
X8313514Y-9756121D01*
X8313514Y-9756121D02*
X8323037Y-9775169D01*
X8323037Y-9775169D02*
X8323037Y-9784693D01*
X8323037Y-9784693D02*
X8313514Y-9803740D01*
X8313514Y-9803740D02*
X8303990Y-9813264D01*
X8303990Y-9813264D02*
X8284942Y-9822788D01*
X8284942Y-9822788D02*
X8246847Y-9822788D01*
X8246847Y-9822788D02*
X8227799Y-9832312D01*
X8227799Y-9832312D02*
X8218276Y-9841836D01*
X8218276Y-9841836D02*
X8208752Y-9860883D01*
X8208752Y-9860883D02*
X8208752Y-9898979D01*
X8208752Y-9898979D02*
X8218276Y-9918026D01*
X8218276Y-9918026D02*
X8227799Y-9927550D01*
X8227799Y-9927550D02*
X8246847Y-9937074D01*
X8246847Y-9937074D02*
X8284942Y-9937074D01*
X8284942Y-9937074D02*
X8303990Y-9927550D01*
X8303990Y-9927550D02*
X8313514Y-9918026D01*
X8313514Y-9918026D02*
X8323037Y-9898979D01*
X8323037Y-9898979D02*
X8323037Y-9860883D01*
X8323037Y-9860883D02*
X8313514Y-9841836D01*
X8313514Y-9841836D02*
X8303990Y-9832312D01*
X8303990Y-9832312D02*
X8284942Y-9822788D01*
X8446847Y-9737074D02*
X8465895Y-9737074D01*
X8465895Y-9737074D02*
X8484942Y-9746598D01*
X8484942Y-9746598D02*
X8494466Y-9756121D01*
X8494466Y-9756121D02*
X8503990Y-9775169D01*
X8503990Y-9775169D02*
X8513514Y-9813264D01*
X8513514Y-9813264D02*
X8513514Y-9860883D01*
X8513514Y-9860883D02*
X8503990Y-9898979D01*
X8503990Y-9898979D02*
X8494466Y-9918026D01*
X8494466Y-9918026D02*
X8484942Y-9927550D01*
X8484942Y-9927550D02*
X8465895Y-9937074D01*
X8465895Y-9937074D02*
X8446847Y-9937074D01*
X8446847Y-9937074D02*
X8427799Y-9927550D01*
X8427799Y-9927550D02*
X8418276Y-9918026D01*
X8418276Y-9918026D02*
X8408752Y-9898979D01*
X8408752Y-9898979D02*
X8399228Y-9860883D01*
X8399228Y-9860883D02*
X8399228Y-9813264D01*
X8399228Y-9813264D02*
X8408752Y-9775169D01*
X8408752Y-9775169D02*
X8418276Y-9756121D01*
X8418276Y-9756121D02*
X8427799Y-9746598D01*
X8427799Y-9746598D02*
X8446847Y-9737074D01*
X8589704Y-9737074D02*
X8589704Y-9775169D01*
X8665895Y-9737074D02*
X8665895Y-9775169D01*
X8961133Y-10013264D02*
X8951609Y-10003740D01*
X8951609Y-10003740D02*
X8932561Y-9975169D01*
X8932561Y-9975169D02*
X8923038Y-9956121D01*
X8923038Y-9956121D02*
X8913514Y-9927550D01*
X8913514Y-9927550D02*
X8903990Y-9879931D01*
X8903990Y-9879931D02*
X8903990Y-9841836D01*
X8903990Y-9841836D02*
X8913514Y-9794217D01*
X8913514Y-9794217D02*
X8923038Y-9765645D01*
X8923038Y-9765645D02*
X8932561Y-9746598D01*
X8932561Y-9746598D02*
X8951609Y-9718026D01*
X8951609Y-9718026D02*
X8961133Y-9708502D01*
X9123038Y-9803740D02*
X9123038Y-9937074D01*
X9075419Y-9727550D02*
X9027800Y-9870407D01*
X9027800Y-9870407D02*
X9151609Y-9870407D01*
X9380181Y-9937074D02*
X9380181Y-9737074D01*
X9465895Y-9937074D02*
X9465895Y-9832312D01*
X9465895Y-9832312D02*
X9456371Y-9813264D01*
X9456371Y-9813264D02*
X9437323Y-9803740D01*
X9437323Y-9803740D02*
X9408752Y-9803740D01*
X9408752Y-9803740D02*
X9389704Y-9813264D01*
X9389704Y-9813264D02*
X9380181Y-9822788D01*
X9589704Y-9937074D02*
X9570657Y-9927550D01*
X9570657Y-9927550D02*
X9561133Y-9918026D01*
X9561133Y-9918026D02*
X9551609Y-9898979D01*
X9551609Y-9898979D02*
X9551609Y-9841836D01*
X9551609Y-9841836D02*
X9561133Y-9822788D01*
X9561133Y-9822788D02*
X9570657Y-9813264D01*
X9570657Y-9813264D02*
X9589704Y-9803740D01*
X9589704Y-9803740D02*
X9618276Y-9803740D01*
X9618276Y-9803740D02*
X9637323Y-9813264D01*
X9637323Y-9813264D02*
X9646847Y-9822788D01*
X9646847Y-9822788D02*
X9656371Y-9841836D01*
X9656371Y-9841836D02*
X9656371Y-9898979D01*
X9656371Y-9898979D02*
X9646847Y-9918026D01*
X9646847Y-9918026D02*
X9637323Y-9927550D01*
X9637323Y-9927550D02*
X9618276Y-9937074D01*
X9618276Y-9937074D02*
X9589704Y-9937074D01*
X9770657Y-9937074D02*
X9751609Y-9927550D01*
X9751609Y-9927550D02*
X9742085Y-9908502D01*
X9742085Y-9908502D02*
X9742085Y-9737074D01*
X9923038Y-9927550D02*
X9903990Y-9937074D01*
X9903990Y-9937074D02*
X9865895Y-9937074D01*
X9865895Y-9937074D02*
X9846847Y-9927550D01*
X9846847Y-9927550D02*
X9837323Y-9908502D01*
X9837323Y-9908502D02*
X9837323Y-9832312D01*
X9837323Y-9832312D02*
X9846847Y-9813264D01*
X9846847Y-9813264D02*
X9865895Y-9803740D01*
X9865895Y-9803740D02*
X9903990Y-9803740D01*
X9903990Y-9803740D02*
X9923038Y-9813264D01*
X9923038Y-9813264D02*
X9932562Y-9832312D01*
X9932562Y-9832312D02*
X9932562Y-9851360D01*
X9932562Y-9851360D02*
X9837323Y-9870407D01*
X10008752Y-9927550D02*
X10027800Y-9937074D01*
X10027800Y-9937074D02*
X10065895Y-9937074D01*
X10065895Y-9937074D02*
X10084943Y-9927550D01*
X10084943Y-9927550D02*
X10094466Y-9908502D01*
X10094466Y-9908502D02*
X10094466Y-9898979D01*
X10094466Y-9898979D02*
X10084943Y-9879931D01*
X10084943Y-9879931D02*
X10065895Y-9870407D01*
X10065895Y-9870407D02*
X10037323Y-9870407D01*
X10037323Y-9870407D02*
X10018276Y-9860883D01*
X10018276Y-9860883D02*
X10008752Y-9841836D01*
X10008752Y-9841836D02*
X10008752Y-9832312D01*
X10008752Y-9832312D02*
X10018276Y-9813264D01*
X10018276Y-9813264D02*
X10037323Y-9803740D01*
X10037323Y-9803740D02*
X10065895Y-9803740D01*
X10065895Y-9803740D02*
X10084943Y-9813264D01*
X10161133Y-10013264D02*
X10170657Y-10003740D01*
X10170657Y-10003740D02*
X10189704Y-9975169D01*
X10189704Y-9975169D02*
X10199228Y-9956121D01*
X10199228Y-9956121D02*
X10208752Y-9927550D01*
X10208752Y-9927550D02*
X10218276Y-9879931D01*
X10218276Y-9879931D02*
X10218276Y-9841836D01*
X10218276Y-9841836D02*
X10208752Y-9794217D01*
X10208752Y-9794217D02*
X10199228Y-9765645D01*
X10199228Y-9765645D02*
X10189704Y-9746598D01*
X10189704Y-9746598D02*
X10170657Y-9718026D01*
X10170657Y-9718026D02*
X10161133Y-9708502D01*
M02*
