G04 #@! TF.GenerationSoftware,KiCad,Pcbnew,9.0.2-9.0.2-0~ubuntu22.04.1*
G04 #@! TF.CreationDate,2025-07-06T23:18:15+01:00*
G04 #@! TF.ProjectId,ggroohauga-amplifier,6767726f-6f68-4617-9567-612d616d706c,rev?*
G04 #@! TF.SameCoordinates,Original*
G04 #@! TF.FileFunction,Soldermask,Top*
G04 #@! TF.FilePolarity,Negative*
%FSLAX46Y46*%
G04 Gerber Fmt 4.6, Leading zero omitted, Abs format (unit mm)*
G04 Created by KiCad (PCBNEW 9.0.2-9.0.2-0~ubuntu22.04.1) date 2025-07-06 23:18:15*
%MOMM*%
%LPD*%
G01*
G04 APERTURE LIST*
G04 Aperture macros list*
%AMRoundRect*
0 Rectangle with rounded corners*
0 $1 Rounding radius*
0 $2 $3 $4 $5 $6 $7 $8 $9 X,Y pos of 4 corners*
0 Add a 4 corners polygon primitive as box body*
4,1,4,$2,$3,$4,$5,$6,$7,$8,$9,$2,$3,0*
0 Add four circle primitives for the rounded corners*
1,1,$1+$1,$2,$3*
1,1,$1+$1,$4,$5*
1,1,$1+$1,$6,$7*
1,1,$1+$1,$8,$9*
0 Add four rect primitives between the rounded corners*
20,1,$1+$1,$2,$3,$4,$5,0*
20,1,$1+$1,$4,$5,$6,$7,0*
20,1,$1+$1,$6,$7,$8,$9,0*
20,1,$1+$1,$8,$9,$2,$3,0*%
G04 Aperture macros list end*
%ADD10RoundRect,0.250000X0.450000X-0.350000X0.450000X0.350000X-0.450000X0.350000X-0.450000X-0.350000X0*%
%ADD11R,1.700000X1.700000*%
%ADD12C,1.700000*%
%ADD13C,1.200000*%
%ADD14O,2.200000X1.200000*%
%ADD15O,1.200000X2.200000*%
%ADD16RoundRect,0.250000X0.337500X0.475000X-0.337500X0.475000X-0.337500X-0.475000X0.337500X-0.475000X0*%
%ADD17RoundRect,0.250000X0.350000X0.450000X-0.350000X0.450000X-0.350000X-0.450000X0.350000X-0.450000X0*%
%ADD18RoundRect,0.250000X-0.337500X-0.475000X0.337500X-0.475000X0.337500X0.475000X-0.337500X0.475000X0*%
%ADD19RoundRect,0.150000X-0.875000X-0.150000X0.875000X-0.150000X0.875000X0.150000X-0.875000X0.150000X0*%
%ADD20C,4.470000*%
%ADD21RoundRect,0.102000X-0.862500X0.862500X-0.862500X-0.862500X0.862500X-0.862500X0.862500X0.862500X0*%
%ADD22C,1.929000*%
G04 APERTURE END LIST*
D10*
X79121000Y-61944000D03*
X79121000Y-59944000D03*
D11*
X81534000Y-54610000D03*
D12*
X84074000Y-54610000D03*
X86614000Y-54610000D03*
X89154000Y-54610000D03*
X91694000Y-54610000D03*
X94234000Y-54610000D03*
X96774000Y-54610000D03*
X99314000Y-54610000D03*
X101854000Y-54610000D03*
X104394000Y-54610000D03*
X106934000Y-54610000D03*
X109474000Y-54610000D03*
X112014000Y-54610000D03*
X114554000Y-54610000D03*
X117094000Y-54610000D03*
X119634000Y-54610000D03*
X122174000Y-54610000D03*
X124714000Y-54610000D03*
X127254000Y-54610000D03*
X129794000Y-54610000D03*
D13*
X144373400Y-64105800D03*
X146873400Y-64105800D03*
X139373400Y-59105800D03*
X144373400Y-54105800D03*
X146873400Y-54105800D03*
D14*
X139373400Y-64105800D03*
D15*
X144373400Y-59105800D03*
D14*
X139373400Y-54105800D03*
D16*
X89429500Y-59436000D03*
X87354500Y-59436000D03*
D11*
X81534000Y-77470000D03*
D12*
X84074000Y-77470000D03*
X86614000Y-77470000D03*
X89154000Y-77470000D03*
X91694000Y-77470000D03*
X94234000Y-77470000D03*
X96774000Y-77470000D03*
X99314000Y-77470000D03*
X101854000Y-77470000D03*
X104394000Y-77470000D03*
X106934000Y-77470000D03*
X109474000Y-77470000D03*
X112014000Y-77470000D03*
X114554000Y-77470000D03*
X117094000Y-77470000D03*
X119634000Y-77470000D03*
X122174000Y-77470000D03*
X124714000Y-77470000D03*
X127254000Y-77470000D03*
X129794000Y-77470000D03*
D17*
X74851600Y-75565000D03*
X72851600Y-75565000D03*
D18*
X98530500Y-59436000D03*
X100605500Y-59436000D03*
D10*
X82296000Y-67532000D03*
X82296000Y-65532000D03*
D19*
X89330000Y-61468000D03*
X89330000Y-62738000D03*
X89330000Y-64008000D03*
X89330000Y-65278000D03*
X89330000Y-66548000D03*
X89330000Y-67818000D03*
X89330000Y-69088000D03*
X89330000Y-70358000D03*
X98630000Y-70358000D03*
X98630000Y-69088000D03*
X98630000Y-67818000D03*
X98630000Y-66548000D03*
X98630000Y-65278000D03*
X98630000Y-64008000D03*
X98630000Y-62738000D03*
X98630000Y-61468000D03*
D20*
X65379600Y-53494200D03*
X65379600Y-78484200D03*
D21*
X67919600Y-70319200D03*
D22*
X67919600Y-68029200D03*
X67919600Y-65739200D03*
X67919600Y-63449200D03*
X67919600Y-61159200D03*
X65379600Y-71464200D03*
X65379600Y-69174200D03*
X65379600Y-66884200D03*
X65379600Y-64594200D03*
X65379600Y-62304200D03*
X62839600Y-70319200D03*
X62839600Y-68029200D03*
X62839600Y-65739200D03*
X62839600Y-63449200D03*
X62839600Y-61159200D03*
D13*
X144373400Y-78019920D03*
X146873400Y-78019920D03*
X139373400Y-73019920D03*
X144373400Y-68019920D03*
X146873400Y-68019920D03*
D14*
X139373400Y-78019920D03*
D15*
X144373400Y-73019920D03*
D14*
X139373400Y-68019920D03*
M02*
