G04 #@! TF.GenerationSoftware,KiCad,Pcbnew,8.0.9-8.0.9-0~ubuntu20.04.1*
G04 #@! TF.CreationDate,2025-03-28T22:04:46+00:00*
G04 #@! TF.ProjectId,ggroohauga-bridge,6767726f-6f68-4617-9567-612d62726964,rev?*
G04 #@! TF.SameCoordinates,Original*
G04 #@! TF.FileFunction,Legend,Top*
G04 #@! TF.FilePolarity,Positive*
%FSLAX46Y46*%
G04 Gerber Fmt 4.6, Leading zero omitted, Abs format (unit mm)*
G04 Created by KiCad (PCBNEW 8.0.9-8.0.9-0~ubuntu20.04.1) date 2025-03-28 22:04:46*
%MOMM*%
%LPD*%
G01*
G04 APERTURE LIST*
G04 Aperture macros list*
%AMRoundRect*
0 Rectangle with rounded corners*
0 $1 Rounding radius*
0 $2 $3 $4 $5 $6 $7 $8 $9 X,Y pos of 4 corners*
0 Add a 4 corners polygon primitive as box body*
4,1,4,$2,$3,$4,$5,$6,$7,$8,$9,$2,$3,0*
0 Add four circle primitives for the rounded corners*
1,1,$1+$1,$2,$3*
1,1,$1+$1,$4,$5*
1,1,$1+$1,$6,$7*
1,1,$1+$1,$8,$9*
0 Add four rect primitives between the rounded corners*
20,1,$1+$1,$2,$3,$4,$5,0*
20,1,$1+$1,$4,$5,$6,$7,0*
20,1,$1+$1,$6,$7,$8,$9,0*
20,1,$1+$1,$8,$9,$2,$3,0*%
G04 Aperture macros list end*
%ADD10C,0.150000*%
%ADD11C,0.120000*%
%ADD12C,0.127000*%
%ADD13C,0.200000*%
%ADD14R,1.700000X1.700000*%
%ADD15O,1.700000X1.700000*%
%ADD16RoundRect,0.150000X-0.150000X0.587500X-0.150000X-0.587500X0.150000X-0.587500X0.150000X0.587500X0*%
%ADD17RoundRect,0.250000X0.350000X0.450000X-0.350000X0.450000X-0.350000X-0.450000X0.350000X-0.450000X0*%
%ADD18RoundRect,0.102000X-0.862500X0.862500X-0.862500X-0.862500X0.862500X-0.862500X0.862500X0.862500X0*%
%ADD19C,1.929000*%
%ADD20C,4.470000*%
G04 APERTURE END LIST*
D10*
X79171200Y-56348094D02*
X79218819Y-56205237D01*
X79218819Y-56205237D02*
X79218819Y-55967142D01*
X79218819Y-55967142D02*
X79171200Y-55871904D01*
X79171200Y-55871904D02*
X79123580Y-55824285D01*
X79123580Y-55824285D02*
X79028342Y-55776666D01*
X79028342Y-55776666D02*
X78933104Y-55776666D01*
X78933104Y-55776666D02*
X78837866Y-55824285D01*
X78837866Y-55824285D02*
X78790247Y-55871904D01*
X78790247Y-55871904D02*
X78742628Y-55967142D01*
X78742628Y-55967142D02*
X78695009Y-56157618D01*
X78695009Y-56157618D02*
X78647390Y-56252856D01*
X78647390Y-56252856D02*
X78599771Y-56300475D01*
X78599771Y-56300475D02*
X78504533Y-56348094D01*
X78504533Y-56348094D02*
X78409295Y-56348094D01*
X78409295Y-56348094D02*
X78314057Y-56300475D01*
X78314057Y-56300475D02*
X78266438Y-56252856D01*
X78266438Y-56252856D02*
X78218819Y-56157618D01*
X78218819Y-56157618D02*
X78218819Y-55919523D01*
X78218819Y-55919523D02*
X78266438Y-55776666D01*
X78218819Y-55443332D02*
X78218819Y-54824285D01*
X78218819Y-54824285D02*
X78599771Y-55157618D01*
X78599771Y-55157618D02*
X78599771Y-55014761D01*
X78599771Y-55014761D02*
X78647390Y-54919523D01*
X78647390Y-54919523D02*
X78695009Y-54871904D01*
X78695009Y-54871904D02*
X78790247Y-54824285D01*
X78790247Y-54824285D02*
X79028342Y-54824285D01*
X79028342Y-54824285D02*
X79123580Y-54871904D01*
X79123580Y-54871904D02*
X79171200Y-54919523D01*
X79171200Y-54919523D02*
X79218819Y-55014761D01*
X79218819Y-55014761D02*
X79218819Y-55300475D01*
X79218819Y-55300475D02*
X79171200Y-55395713D01*
X79171200Y-55395713D02*
X79123580Y-55443332D01*
X79218819Y-53824285D02*
X78742628Y-54157618D01*
X79218819Y-54395713D02*
X78218819Y-54395713D01*
X78218819Y-54395713D02*
X78218819Y-54014761D01*
X78218819Y-54014761D02*
X78266438Y-53919523D01*
X78266438Y-53919523D02*
X78314057Y-53871904D01*
X78314057Y-53871904D02*
X78409295Y-53824285D01*
X78409295Y-53824285D02*
X78552152Y-53824285D01*
X78552152Y-53824285D02*
X78647390Y-53871904D01*
X78647390Y-53871904D02*
X78695009Y-53919523D01*
X78695009Y-53919523D02*
X78742628Y-54014761D01*
X78742628Y-54014761D02*
X78742628Y-54395713D01*
X79218819Y-52871904D02*
X79218819Y-53443332D01*
X79218819Y-53157618D02*
X78218819Y-53157618D01*
X78218819Y-53157618D02*
X78361676Y-53252856D01*
X78361676Y-53252856D02*
X78456914Y-53348094D01*
X78456914Y-53348094D02*
X78504533Y-53443332D01*
X125690476Y-58779580D02*
X125642857Y-58827200D01*
X125642857Y-58827200D02*
X125500000Y-58874819D01*
X125500000Y-58874819D02*
X125404762Y-58874819D01*
X125404762Y-58874819D02*
X125261905Y-58827200D01*
X125261905Y-58827200D02*
X125166667Y-58731961D01*
X125166667Y-58731961D02*
X125119048Y-58636723D01*
X125119048Y-58636723D02*
X125071429Y-58446247D01*
X125071429Y-58446247D02*
X125071429Y-58303390D01*
X125071429Y-58303390D02*
X125119048Y-58112914D01*
X125119048Y-58112914D02*
X125166667Y-58017676D01*
X125166667Y-58017676D02*
X125261905Y-57922438D01*
X125261905Y-57922438D02*
X125404762Y-57874819D01*
X125404762Y-57874819D02*
X125500000Y-57874819D01*
X125500000Y-57874819D02*
X125642857Y-57922438D01*
X125642857Y-57922438D02*
X125690476Y-57970057D01*
X126119048Y-58493866D02*
X126880953Y-58493866D01*
X128023809Y-58970057D02*
X127928571Y-58922438D01*
X127928571Y-58922438D02*
X127833333Y-58827200D01*
X127833333Y-58827200D02*
X127690476Y-58684342D01*
X127690476Y-58684342D02*
X127595238Y-58636723D01*
X127595238Y-58636723D02*
X127500000Y-58636723D01*
X127547619Y-58874819D02*
X127452381Y-58827200D01*
X127452381Y-58827200D02*
X127357143Y-58731961D01*
X127357143Y-58731961D02*
X127309524Y-58541485D01*
X127309524Y-58541485D02*
X127309524Y-58208152D01*
X127309524Y-58208152D02*
X127357143Y-58017676D01*
X127357143Y-58017676D02*
X127452381Y-57922438D01*
X127452381Y-57922438D02*
X127547619Y-57874819D01*
X127547619Y-57874819D02*
X127738095Y-57874819D01*
X127738095Y-57874819D02*
X127833333Y-57922438D01*
X127833333Y-57922438D02*
X127928571Y-58017676D01*
X127928571Y-58017676D02*
X127976190Y-58208152D01*
X127976190Y-58208152D02*
X127976190Y-58541485D01*
X127976190Y-58541485D02*
X127928571Y-58731961D01*
X127928571Y-58731961D02*
X127833333Y-58827200D01*
X127833333Y-58827200D02*
X127738095Y-58874819D01*
X127738095Y-58874819D02*
X127547619Y-58874819D01*
X128928571Y-58874819D02*
X128357143Y-58874819D01*
X128642857Y-58874819D02*
X128642857Y-57874819D01*
X128642857Y-57874819D02*
X128547619Y-58017676D01*
X128547619Y-58017676D02*
X128452381Y-58112914D01*
X128452381Y-58112914D02*
X128357143Y-58160533D01*
X79171200Y-79112856D02*
X79218819Y-78969999D01*
X79218819Y-78969999D02*
X79218819Y-78731904D01*
X79218819Y-78731904D02*
X79171200Y-78636666D01*
X79171200Y-78636666D02*
X79123580Y-78589047D01*
X79123580Y-78589047D02*
X79028342Y-78541428D01*
X79028342Y-78541428D02*
X78933104Y-78541428D01*
X78933104Y-78541428D02*
X78837866Y-78589047D01*
X78837866Y-78589047D02*
X78790247Y-78636666D01*
X78790247Y-78636666D02*
X78742628Y-78731904D01*
X78742628Y-78731904D02*
X78695009Y-78922380D01*
X78695009Y-78922380D02*
X78647390Y-79017618D01*
X78647390Y-79017618D02*
X78599771Y-79065237D01*
X78599771Y-79065237D02*
X78504533Y-79112856D01*
X78504533Y-79112856D02*
X78409295Y-79112856D01*
X78409295Y-79112856D02*
X78314057Y-79065237D01*
X78314057Y-79065237D02*
X78266438Y-79017618D01*
X78266438Y-79017618D02*
X78218819Y-78922380D01*
X78218819Y-78922380D02*
X78218819Y-78684285D01*
X78218819Y-78684285D02*
X78266438Y-78541428D01*
X78218819Y-78208094D02*
X78218819Y-77589047D01*
X78218819Y-77589047D02*
X78599771Y-77922380D01*
X78599771Y-77922380D02*
X78599771Y-77779523D01*
X78599771Y-77779523D02*
X78647390Y-77684285D01*
X78647390Y-77684285D02*
X78695009Y-77636666D01*
X78695009Y-77636666D02*
X78790247Y-77589047D01*
X78790247Y-77589047D02*
X79028342Y-77589047D01*
X79028342Y-77589047D02*
X79123580Y-77636666D01*
X79123580Y-77636666D02*
X79171200Y-77684285D01*
X79171200Y-77684285D02*
X79218819Y-77779523D01*
X79218819Y-77779523D02*
X79218819Y-78065237D01*
X79218819Y-78065237D02*
X79171200Y-78160475D01*
X79171200Y-78160475D02*
X79123580Y-78208094D01*
X79218819Y-76684285D02*
X79218819Y-77160475D01*
X79218819Y-77160475D02*
X78218819Y-77160475D01*
X79218819Y-75827142D02*
X79218819Y-76398570D01*
X79218819Y-76112856D02*
X78218819Y-76112856D01*
X78218819Y-76112856D02*
X78361676Y-76208094D01*
X78361676Y-76208094D02*
X78456914Y-76303332D01*
X78456914Y-76303332D02*
X78504533Y-76398570D01*
X79446667Y-66589104D02*
X79922857Y-66589104D01*
X79351429Y-66874819D02*
X79684762Y-65874819D01*
X79684762Y-65874819D02*
X80018095Y-66874819D01*
X80351429Y-66493866D02*
X81113334Y-66493866D01*
X82160952Y-66874819D02*
X81827619Y-66398628D01*
X81589524Y-66874819D02*
X81589524Y-65874819D01*
X81589524Y-65874819D02*
X81970476Y-65874819D01*
X81970476Y-65874819D02*
X82065714Y-65922438D01*
X82065714Y-65922438D02*
X82113333Y-65970057D01*
X82113333Y-65970057D02*
X82160952Y-66065295D01*
X82160952Y-66065295D02*
X82160952Y-66208152D01*
X82160952Y-66208152D02*
X82113333Y-66303390D01*
X82113333Y-66303390D02*
X82065714Y-66351009D01*
X82065714Y-66351009D02*
X81970476Y-66398628D01*
X81970476Y-66398628D02*
X81589524Y-66398628D01*
X83113333Y-66874819D02*
X82541905Y-66874819D01*
X82827619Y-66874819D02*
X82827619Y-65874819D01*
X82827619Y-65874819D02*
X82732381Y-66017676D01*
X82732381Y-66017676D02*
X82637143Y-66112914D01*
X82637143Y-66112914D02*
X82541905Y-66160533D01*
X72933704Y-55878485D02*
X72933704Y-55402295D01*
X73219419Y-55973723D02*
X72219419Y-55640390D01*
X72219419Y-55640390D02*
X73219419Y-55307057D01*
X72838466Y-54973723D02*
X72838466Y-54211819D01*
X72219419Y-53449914D02*
X72933704Y-53449914D01*
X72933704Y-53449914D02*
X73076561Y-53497533D01*
X73076561Y-53497533D02*
X73171800Y-53592771D01*
X73171800Y-53592771D02*
X73219419Y-53735628D01*
X73219419Y-53735628D02*
X73219419Y-53830866D01*
X73219419Y-52449914D02*
X73219419Y-53021342D01*
X73219419Y-52735628D02*
X72219419Y-52735628D01*
X72219419Y-52735628D02*
X72362276Y-52830866D01*
X72362276Y-52830866D02*
X72457514Y-52926104D01*
X72457514Y-52926104D02*
X72505133Y-53021342D01*
D11*
X80204000Y-53280000D02*
X81534000Y-53280000D01*
X80204000Y-54610000D02*
X80204000Y-53280000D01*
X82804000Y-53280000D02*
X131124000Y-53280000D01*
X82804000Y-55940000D02*
X82804000Y-53280000D01*
X82804000Y-55940000D02*
X131124000Y-55940000D01*
X131124000Y-55940000D02*
X131124000Y-53280000D01*
X123408000Y-61389500D02*
X123408000Y-60739500D01*
X123408000Y-61389500D02*
X123408000Y-62039500D01*
X126528000Y-61389500D02*
X126528000Y-60739500D01*
X126528000Y-61389500D02*
X126528000Y-62039500D01*
X126808000Y-60467000D02*
X126478000Y-60227000D01*
X126808000Y-59987000D01*
X126808000Y-60467000D01*
G36*
X126808000Y-60467000D02*
G01*
X126478000Y-60227000D01*
X126808000Y-59987000D01*
X126808000Y-60467000D01*
G37*
X80204000Y-76140000D02*
X81534000Y-76140000D01*
X80204000Y-77470000D02*
X80204000Y-76140000D01*
X82804000Y-76140000D02*
X131124000Y-76140000D01*
X82804000Y-78800000D02*
X82804000Y-76140000D01*
X82804000Y-78800000D02*
X131124000Y-78800000D01*
X131124000Y-78800000D02*
X131124000Y-76140000D01*
X81507064Y-64035000D02*
X81052936Y-64035000D01*
X81507064Y-65505000D02*
X81052936Y-65505000D01*
D12*
X53949600Y-50584200D02*
X70049600Y-50584200D01*
X70049600Y-50584200D02*
X70049600Y-81394200D01*
X70049600Y-81394200D02*
X53949600Y-81394200D01*
D13*
X70729600Y-70349200D02*
G75*
G02*
X70529600Y-70349200I-100000J0D01*
G01*
X70529600Y-70349200D02*
G75*
G02*
X70729600Y-70349200I100000J0D01*
G01*
%LPC*%
D14*
X81534000Y-54610000D03*
D15*
X84074000Y-54610000D03*
X86614000Y-54610000D03*
X89154000Y-54610000D03*
X91694000Y-54610000D03*
X94234000Y-54610000D03*
X96774000Y-54610000D03*
X99314000Y-54610000D03*
X101854000Y-54610000D03*
X104394000Y-54610000D03*
X106934000Y-54610000D03*
X109474000Y-54610000D03*
X112014000Y-54610000D03*
X114554000Y-54610000D03*
X117094000Y-54610000D03*
X119634000Y-54610000D03*
X122174000Y-54610000D03*
X124714000Y-54610000D03*
X127254000Y-54610000D03*
X129794000Y-54610000D03*
D16*
X125918000Y-60452000D03*
X124018000Y-60452000D03*
X124968000Y-62327000D03*
D14*
X81534000Y-77470000D03*
D15*
X84074000Y-77470000D03*
X86614000Y-77470000D03*
X89154000Y-77470000D03*
X91694000Y-77470000D03*
X94234000Y-77470000D03*
X96774000Y-77470000D03*
X99314000Y-77470000D03*
X101854000Y-77470000D03*
X104394000Y-77470000D03*
X106934000Y-77470000D03*
X109474000Y-77470000D03*
X112014000Y-77470000D03*
X114554000Y-77470000D03*
X117094000Y-77470000D03*
X119634000Y-77470000D03*
X122174000Y-77470000D03*
X124714000Y-77470000D03*
X127254000Y-77470000D03*
X129794000Y-77470000D03*
D17*
X82280000Y-64770000D03*
X80280000Y-64770000D03*
D18*
X67919600Y-70319200D03*
D19*
X67919600Y-68029200D03*
X67919600Y-65739200D03*
X67919600Y-63449200D03*
X67919600Y-61159200D03*
X65379600Y-71464200D03*
X65379600Y-69174200D03*
X65379600Y-66884200D03*
X65379600Y-64594200D03*
X65379600Y-62304200D03*
X62839600Y-70319200D03*
X62839600Y-68029200D03*
X62839600Y-65739200D03*
X62839600Y-63449200D03*
X62839600Y-61159200D03*
D20*
X65379600Y-53494200D03*
X65379600Y-78484200D03*
D18*
X141427200Y-61659200D03*
D19*
X141427200Y-63949200D03*
X141427200Y-66239200D03*
X141427200Y-68529200D03*
X141427200Y-70819200D03*
X143967200Y-60514200D03*
X143967200Y-62804200D03*
X143967200Y-65094200D03*
X143967200Y-67384200D03*
X143967200Y-69674200D03*
X146507200Y-61659200D03*
X146507200Y-63949200D03*
X146507200Y-66239200D03*
X146507200Y-68529200D03*
X146507200Y-70819200D03*
D20*
X143967200Y-53494200D03*
X143967200Y-78484200D03*
%LPD*%
M02*
