%TF.GenerationSoftware,KiCad,Pcbnew,9.0.2-9.0.2-0~ubuntu22.04.1*%
%TF.CreationDate,2025-07-06T23:18:42+01:00*%
%TF.ProjectId,ggroohauga-bridge,6767726f-6f68-4617-9567-612d62726964,rev?*%
%TF.SameCoordinates,Original*%
%TF.FileFunction,Drillmap*%
%TF.FilePolarity,Positive*%
%FSLAX45Y45*%
G04 Gerber Fmt 4.5, Leading zero omitted, Abs format (unit mm)*
G04 Created by KiCad (PCBNEW 9.0.2-9.0.2-0~ubuntu22.04.1) date 2025-07-06 23:18:42*
%MOMM*%
%LPD*%
G01*
G04 APERTURE LIST*
%ADD10C,0.025400*%
%ADD11C,0.200000*%
%ADD12C,0.100000*%
%ADD13C,0.115000*%
%ADD14C,0.325000*%
G04 APERTURE END LIST*
D10*
X5387340Y-5048920D02*
X15237340Y-5048920D01*
X15237340Y-8148920D01*
X5387340Y-8148920D01*
X5387340Y-5048920D01*
D11*
D12*
X7054260Y-7376400D02*
X7084260Y-7406400D01*
X7084260Y-7376400D02*
X7054260Y-7406400D01*
X7770100Y-7541500D02*
X7800100Y-7571500D01*
X7800100Y-7541500D02*
X7770100Y-7571500D01*
X8887700Y-7249400D02*
X8917700Y-7279400D01*
X8917700Y-7249400D02*
X8887700Y-7279400D01*
X9865600Y-7249400D02*
X9895600Y-7279400D01*
X9895600Y-7249400D02*
X9865600Y-7279400D01*
X10612360Y-7503400D02*
X10642360Y-7533400D01*
X10642360Y-7503400D02*
X10612360Y-7533400D01*
X11059400Y-7427200D02*
X11089400Y-7457200D01*
X11089400Y-7427200D02*
X11059400Y-7457200D01*
X12431000Y-5725400D02*
X12461000Y-5755400D01*
X12461000Y-5725400D02*
X12431000Y-5755400D01*
X12456400Y-7427200D02*
X12486400Y-7457200D01*
X12486400Y-7427200D02*
X12456400Y-7457200D01*
X11594500Y-6096000D02*
G75*
G02*
X11519500Y-6096000I-37500J0D01*
G01*
X11519500Y-6096000D02*
G75*
G02*
X11594500Y-6096000I37500J0D01*
G01*
X11785000Y-6096000D02*
G75*
G02*
X11710000Y-6096000I-37500J0D01*
G01*
X11710000Y-6096000D02*
G75*
G02*
X11785000Y-6096000I37500J0D01*
G01*
X11975500Y-6096000D02*
G75*
G02*
X11900500Y-6096000I-37500J0D01*
G01*
X11900500Y-6096000D02*
G75*
G02*
X11975500Y-6096000I37500J0D01*
G01*
X12166000Y-6096000D02*
G75*
G02*
X12091000Y-6096000I-37500J0D01*
G01*
X12091000Y-6096000D02*
G75*
G02*
X12166000Y-6096000I37500J0D01*
G01*
X12356500Y-6096000D02*
G75*
G02*
X12281500Y-6096000I-37500J0D01*
G01*
X12281500Y-6096000D02*
G75*
G02*
X12356500Y-6096000I37500J0D01*
G01*
X12737500Y-6248400D02*
G75*
G02*
X12662500Y-6248400I-37500J0D01*
G01*
X12662500Y-6248400D02*
G75*
G02*
X12737500Y-6248400I37500J0D01*
G01*
X12737500Y-6451600D02*
G75*
G02*
X12662500Y-6451600I-37500J0D01*
G01*
X12662500Y-6451600D02*
G75*
G02*
X12737500Y-6451600I37500J0D01*
G01*
X12737500Y-6654800D02*
G75*
G02*
X12662500Y-6654800I-37500J0D01*
G01*
X12662500Y-6654800D02*
G75*
G02*
X12737500Y-6654800I37500J0D01*
G01*
X12737500Y-6858000D02*
G75*
G02*
X12662500Y-6858000I-37500J0D01*
G01*
X12662500Y-6858000D02*
G75*
G02*
X12737500Y-6858000I37500J0D01*
G01*
X12737500Y-7061200D02*
G75*
G02*
X12662500Y-7061200I-37500J0D01*
G01*
X12662500Y-7061200D02*
G75*
G02*
X12737500Y-7061200I37500J0D01*
G01*
X8153400Y-5411000D02*
X8153400Y-5511000D01*
X8103400Y-5461000D02*
X8203400Y-5461000D01*
X8153400Y-7697000D02*
X8153400Y-7797000D01*
X8103400Y-7747000D02*
X8203400Y-7747000D01*
X8407400Y-5411000D02*
X8407400Y-5511000D01*
X8357400Y-5461000D02*
X8457400Y-5461000D01*
X8407400Y-7697000D02*
X8407400Y-7797000D01*
X8357400Y-7747000D02*
X8457400Y-7747000D01*
X8661400Y-5411000D02*
X8661400Y-5511000D01*
X8611400Y-5461000D02*
X8711400Y-5461000D01*
X8661400Y-7697000D02*
X8661400Y-7797000D01*
X8611400Y-7747000D02*
X8711400Y-7747000D01*
X8915400Y-5411000D02*
X8915400Y-5511000D01*
X8865400Y-5461000D02*
X8965400Y-5461000D01*
X8915400Y-7697000D02*
X8915400Y-7797000D01*
X8865400Y-7747000D02*
X8965400Y-7747000D01*
X9169400Y-5411000D02*
X9169400Y-5511000D01*
X9119400Y-5461000D02*
X9219400Y-5461000D01*
X9169400Y-7697000D02*
X9169400Y-7797000D01*
X9119400Y-7747000D02*
X9219400Y-7747000D01*
X9423400Y-5411000D02*
X9423400Y-5511000D01*
X9373400Y-5461000D02*
X9473400Y-5461000D01*
X9423400Y-7697000D02*
X9423400Y-7797000D01*
X9373400Y-7747000D02*
X9473400Y-7747000D01*
X9677400Y-5411000D02*
X9677400Y-5511000D01*
X9627400Y-5461000D02*
X9727400Y-5461000D01*
X9677400Y-7697000D02*
X9677400Y-7797000D01*
X9627400Y-7747000D02*
X9727400Y-7747000D01*
X9931400Y-5411000D02*
X9931400Y-5511000D01*
X9881400Y-5461000D02*
X9981400Y-5461000D01*
X9931400Y-7697000D02*
X9931400Y-7797000D01*
X9881400Y-7747000D02*
X9981400Y-7747000D01*
X10185400Y-5411000D02*
X10185400Y-5511000D01*
X10135400Y-5461000D02*
X10235400Y-5461000D01*
X10185400Y-7697000D02*
X10185400Y-7797000D01*
X10135400Y-7747000D02*
X10235400Y-7747000D01*
X10439400Y-5411000D02*
X10439400Y-5511000D01*
X10389400Y-5461000D02*
X10489400Y-5461000D01*
X10439400Y-7697000D02*
X10439400Y-7797000D01*
X10389400Y-7747000D02*
X10489400Y-7747000D01*
X10693400Y-5411000D02*
X10693400Y-5511000D01*
X10643400Y-5461000D02*
X10743400Y-5461000D01*
X10693400Y-7697000D02*
X10693400Y-7797000D01*
X10643400Y-7747000D02*
X10743400Y-7747000D01*
X10947400Y-5411000D02*
X10947400Y-5511000D01*
X10897400Y-5461000D02*
X10997400Y-5461000D01*
X10947400Y-7697000D02*
X10947400Y-7797000D01*
X10897400Y-7747000D02*
X10997400Y-7747000D01*
X11201400Y-5411000D02*
X11201400Y-5511000D01*
X11151400Y-5461000D02*
X11251400Y-5461000D01*
X11201400Y-7697000D02*
X11201400Y-7797000D01*
X11151400Y-7747000D02*
X11251400Y-7747000D01*
X11455400Y-5411000D02*
X11455400Y-5511000D01*
X11405400Y-5461000D02*
X11505400Y-5461000D01*
X11455400Y-7697000D02*
X11455400Y-7797000D01*
X11405400Y-7747000D02*
X11505400Y-7747000D01*
X11709400Y-5411000D02*
X11709400Y-5511000D01*
X11659400Y-5461000D02*
X11759400Y-5461000D01*
X11709400Y-7697000D02*
X11709400Y-7797000D01*
X11659400Y-7747000D02*
X11759400Y-7747000D01*
X11963400Y-5411000D02*
X11963400Y-5511000D01*
X11913400Y-5461000D02*
X12013400Y-5461000D01*
X11963400Y-7697000D02*
X11963400Y-7797000D01*
X11913400Y-7747000D02*
X12013400Y-7747000D01*
X12217400Y-5411000D02*
X12217400Y-5511000D01*
X12167400Y-5461000D02*
X12267400Y-5461000D01*
X12217400Y-7697000D02*
X12217400Y-7797000D01*
X12167400Y-7747000D02*
X12267400Y-7747000D01*
X12471400Y-5411000D02*
X12471400Y-5511000D01*
X12421400Y-5461000D02*
X12521400Y-5461000D01*
X12471400Y-7697000D02*
X12471400Y-7797000D01*
X12421400Y-7747000D02*
X12521400Y-7747000D01*
X12725400Y-5411000D02*
X12725400Y-5511000D01*
X12675400Y-5461000D02*
X12775400Y-5461000D01*
X12725400Y-7697000D02*
X12725400Y-7797000D01*
X12675400Y-7747000D02*
X12775400Y-7747000D01*
X12979400Y-5411000D02*
X12979400Y-5511000D01*
X12929400Y-5461000D02*
X13029400Y-5461000D01*
X12979400Y-7697000D02*
X12979400Y-7797000D01*
X12929400Y-7747000D02*
X13029400Y-7747000D01*
D13*
X6324619Y-6156579D02*
X6324619Y-6075261D01*
X6243301Y-6075261D01*
X6243301Y-6156579D01*
X6324619Y-6156579D01*
X6324619Y-6385579D02*
X6324619Y-6304261D01*
X6243301Y-6304261D01*
X6243301Y-6385579D01*
X6324619Y-6385579D01*
X6324619Y-6614579D02*
X6324619Y-6533261D01*
X6243301Y-6533261D01*
X6243301Y-6614579D01*
X6324619Y-6614579D01*
X6324619Y-6843579D02*
X6324619Y-6762261D01*
X6243301Y-6762261D01*
X6243301Y-6843579D01*
X6324619Y-6843579D01*
X6324619Y-7072579D02*
X6324619Y-6991261D01*
X6243301Y-6991261D01*
X6243301Y-7072579D01*
X6324619Y-7072579D01*
X6578619Y-6271079D02*
X6578619Y-6189761D01*
X6497301Y-6189761D01*
X6497301Y-6271079D01*
X6578619Y-6271079D01*
X6578619Y-6500079D02*
X6578619Y-6418761D01*
X6497301Y-6418761D01*
X6497301Y-6500079D01*
X6578619Y-6500079D01*
X6578619Y-6729079D02*
X6578619Y-6647761D01*
X6497301Y-6647761D01*
X6497301Y-6729079D01*
X6578619Y-6729079D01*
X6578619Y-6958079D02*
X6578619Y-6876761D01*
X6497301Y-6876761D01*
X6497301Y-6958079D01*
X6578619Y-6958079D01*
X6578619Y-7187079D02*
X6578619Y-7105761D01*
X6497301Y-7105761D01*
X6497301Y-7187079D01*
X6578619Y-7187079D01*
X6832619Y-6156579D02*
X6832619Y-6075261D01*
X6751301Y-6075261D01*
X6751301Y-6156579D01*
X6832619Y-6156579D01*
X6832619Y-6385579D02*
X6832619Y-6304261D01*
X6751301Y-6304261D01*
X6751301Y-6385579D01*
X6832619Y-6385579D01*
X6832619Y-6614579D02*
X6832619Y-6533261D01*
X6751301Y-6533261D01*
X6751301Y-6614579D01*
X6832619Y-6614579D01*
X6832619Y-6843579D02*
X6832619Y-6762261D01*
X6751301Y-6762261D01*
X6751301Y-6843579D01*
X6832619Y-6843579D01*
X6832619Y-7072579D02*
X6832619Y-6991261D01*
X6751301Y-6991261D01*
X6751301Y-7072579D01*
X6832619Y-7072579D01*
X13873379Y-6206579D02*
X13873379Y-6125261D01*
X13792061Y-6125261D01*
X13792061Y-6206579D01*
X13873379Y-6206579D01*
X13873379Y-6435579D02*
X13873379Y-6354261D01*
X13792061Y-6354261D01*
X13792061Y-6435579D01*
X13873379Y-6435579D01*
X13873379Y-6664579D02*
X13873379Y-6583261D01*
X13792061Y-6583261D01*
X13792061Y-6664579D01*
X13873379Y-6664579D01*
X13873379Y-6893579D02*
X13873379Y-6812261D01*
X13792061Y-6812261D01*
X13792061Y-6893579D01*
X13873379Y-6893579D01*
X13873379Y-7122579D02*
X13873379Y-7041261D01*
X13792061Y-7041261D01*
X13792061Y-7122579D01*
X13873379Y-7122579D01*
X14127379Y-6092079D02*
X14127379Y-6010761D01*
X14046061Y-6010761D01*
X14046061Y-6092079D01*
X14127379Y-6092079D01*
X14127379Y-6321079D02*
X14127379Y-6239761D01*
X14046061Y-6239761D01*
X14046061Y-6321079D01*
X14127379Y-6321079D01*
X14127379Y-6550079D02*
X14127379Y-6468761D01*
X14046061Y-6468761D01*
X14046061Y-6550079D01*
X14127379Y-6550079D01*
X14127379Y-6779079D02*
X14127379Y-6697761D01*
X14046061Y-6697761D01*
X14046061Y-6779079D01*
X14127379Y-6779079D01*
X14127379Y-7008079D02*
X14127379Y-6926761D01*
X14046061Y-6926761D01*
X14046061Y-7008079D01*
X14127379Y-7008079D01*
X14381379Y-6206579D02*
X14381379Y-6125261D01*
X14300061Y-6125261D01*
X14300061Y-6206579D01*
X14381379Y-6206579D01*
X14381379Y-6435579D02*
X14381379Y-6354261D01*
X14300061Y-6354261D01*
X14300061Y-6435579D01*
X14381379Y-6435579D01*
X14381379Y-6664579D02*
X14381379Y-6583261D01*
X14300061Y-6583261D01*
X14300061Y-6664579D01*
X14381379Y-6664579D01*
X14381379Y-6893579D02*
X14381379Y-6812261D01*
X14300061Y-6812261D01*
X14300061Y-6893579D01*
X14381379Y-6893579D01*
X14381379Y-7122579D02*
X14381379Y-7041261D01*
X14300061Y-7041261D01*
X14300061Y-7122579D01*
X14381379Y-7122579D01*
D14*
X6537960Y-5511920D02*
X6700460Y-5349420D01*
X6537960Y-5186920D01*
X6375460Y-5349420D01*
X6537960Y-5511920D01*
X6537960Y-8010920D02*
X6700460Y-7848420D01*
X6537960Y-7685920D01*
X6375460Y-7848420D01*
X6537960Y-8010920D01*
X14086720Y-5511920D02*
X14249220Y-5349420D01*
X14086720Y-5186920D01*
X13924220Y-5349420D01*
X14086720Y-5511920D01*
X14086720Y-8010920D02*
X14249220Y-7848420D01*
X14086720Y-7685920D01*
X13924220Y-7848420D01*
X14086720Y-8010920D01*
D11*
X5646847Y-8461674D02*
X5646847Y-8261674D01*
X5646847Y-8261674D02*
X5694466Y-8261674D01*
X5694466Y-8261674D02*
X5723037Y-8271198D01*
X5723037Y-8271198D02*
X5742085Y-8290245D01*
X5742085Y-8290245D02*
X5751609Y-8309293D01*
X5751609Y-8309293D02*
X5761132Y-8347388D01*
X5761132Y-8347388D02*
X5761132Y-8375959D01*
X5761132Y-8375959D02*
X5751609Y-8414055D01*
X5751609Y-8414055D02*
X5742085Y-8433102D01*
X5742085Y-8433102D02*
X5723037Y-8452150D01*
X5723037Y-8452150D02*
X5694466Y-8461674D01*
X5694466Y-8461674D02*
X5646847Y-8461674D01*
X5846847Y-8461674D02*
X5846847Y-8328340D01*
X5846847Y-8366436D02*
X5856371Y-8347388D01*
X5856371Y-8347388D02*
X5865894Y-8337864D01*
X5865894Y-8337864D02*
X5884942Y-8328340D01*
X5884942Y-8328340D02*
X5903990Y-8328340D01*
X5970656Y-8461674D02*
X5970656Y-8328340D01*
X5970656Y-8261674D02*
X5961132Y-8271198D01*
X5961132Y-8271198D02*
X5970656Y-8280721D01*
X5970656Y-8280721D02*
X5980180Y-8271198D01*
X5980180Y-8271198D02*
X5970656Y-8261674D01*
X5970656Y-8261674D02*
X5970656Y-8280721D01*
X6094466Y-8461674D02*
X6075418Y-8452150D01*
X6075418Y-8452150D02*
X6065894Y-8433102D01*
X6065894Y-8433102D02*
X6065894Y-8261674D01*
X6199228Y-8461674D02*
X6180180Y-8452150D01*
X6180180Y-8452150D02*
X6170656Y-8433102D01*
X6170656Y-8433102D02*
X6170656Y-8261674D01*
X6427799Y-8461674D02*
X6427799Y-8261674D01*
X6427799Y-8261674D02*
X6494466Y-8404531D01*
X6494466Y-8404531D02*
X6561132Y-8261674D01*
X6561132Y-8261674D02*
X6561132Y-8461674D01*
X6742085Y-8461674D02*
X6742085Y-8356912D01*
X6742085Y-8356912D02*
X6732561Y-8337864D01*
X6732561Y-8337864D02*
X6713513Y-8328340D01*
X6713513Y-8328340D02*
X6675418Y-8328340D01*
X6675418Y-8328340D02*
X6656371Y-8337864D01*
X6742085Y-8452150D02*
X6723037Y-8461674D01*
X6723037Y-8461674D02*
X6675418Y-8461674D01*
X6675418Y-8461674D02*
X6656371Y-8452150D01*
X6656371Y-8452150D02*
X6646847Y-8433102D01*
X6646847Y-8433102D02*
X6646847Y-8414055D01*
X6646847Y-8414055D02*
X6656371Y-8395007D01*
X6656371Y-8395007D02*
X6675418Y-8385483D01*
X6675418Y-8385483D02*
X6723037Y-8385483D01*
X6723037Y-8385483D02*
X6742085Y-8375959D01*
X6837323Y-8328340D02*
X6837323Y-8528340D01*
X6837323Y-8337864D02*
X6856371Y-8328340D01*
X6856371Y-8328340D02*
X6894466Y-8328340D01*
X6894466Y-8328340D02*
X6913513Y-8337864D01*
X6913513Y-8337864D02*
X6923037Y-8347388D01*
X6923037Y-8347388D02*
X6932561Y-8366436D01*
X6932561Y-8366436D02*
X6932561Y-8423579D01*
X6932561Y-8423579D02*
X6923037Y-8442626D01*
X6923037Y-8442626D02*
X6913513Y-8452150D01*
X6913513Y-8452150D02*
X6894466Y-8461674D01*
X6894466Y-8461674D02*
X6856371Y-8461674D01*
X6856371Y-8461674D02*
X6837323Y-8452150D01*
X7018275Y-8442626D02*
X7027799Y-8452150D01*
X7027799Y-8452150D02*
X7018275Y-8461674D01*
X7018275Y-8461674D02*
X7008752Y-8452150D01*
X7008752Y-8452150D02*
X7018275Y-8442626D01*
X7018275Y-8442626D02*
X7018275Y-8461674D01*
X7018275Y-8337864D02*
X7027799Y-8347388D01*
X7027799Y-8347388D02*
X7018275Y-8356912D01*
X7018275Y-8356912D02*
X7008752Y-8347388D01*
X7008752Y-8347388D02*
X7018275Y-8337864D01*
X7018275Y-8337864D02*
X7018275Y-8356912D01*
D12*
X5356070Y-8775190D02*
X5386070Y-8805190D01*
X5386070Y-8775190D02*
X5356070Y-8805190D01*
D11*
X5684942Y-8681674D02*
X5703990Y-8681674D01*
X5703990Y-8681674D02*
X5723037Y-8691198D01*
X5723037Y-8691198D02*
X5732561Y-8700721D01*
X5732561Y-8700721D02*
X5742085Y-8719769D01*
X5742085Y-8719769D02*
X5751609Y-8757864D01*
X5751609Y-8757864D02*
X5751609Y-8805483D01*
X5751609Y-8805483D02*
X5742085Y-8843579D01*
X5742085Y-8843579D02*
X5732561Y-8862626D01*
X5732561Y-8862626D02*
X5723037Y-8872150D01*
X5723037Y-8872150D02*
X5703990Y-8881674D01*
X5703990Y-8881674D02*
X5684942Y-8881674D01*
X5684942Y-8881674D02*
X5665894Y-8872150D01*
X5665894Y-8872150D02*
X5656371Y-8862626D01*
X5656371Y-8862626D02*
X5646847Y-8843579D01*
X5646847Y-8843579D02*
X5637323Y-8805483D01*
X5637323Y-8805483D02*
X5637323Y-8757864D01*
X5637323Y-8757864D02*
X5646847Y-8719769D01*
X5646847Y-8719769D02*
X5656371Y-8700721D01*
X5656371Y-8700721D02*
X5665894Y-8691198D01*
X5665894Y-8691198D02*
X5684942Y-8681674D01*
X5837323Y-8862626D02*
X5846847Y-8872150D01*
X5846847Y-8872150D02*
X5837323Y-8881674D01*
X5837323Y-8881674D02*
X5827799Y-8872150D01*
X5827799Y-8872150D02*
X5837323Y-8862626D01*
X5837323Y-8862626D02*
X5837323Y-8881674D01*
X5913513Y-8681674D02*
X6037323Y-8681674D01*
X6037323Y-8681674D02*
X5970656Y-8757864D01*
X5970656Y-8757864D02*
X5999228Y-8757864D01*
X5999228Y-8757864D02*
X6018275Y-8767388D01*
X6018275Y-8767388D02*
X6027799Y-8776912D01*
X6027799Y-8776912D02*
X6037323Y-8795960D01*
X6037323Y-8795960D02*
X6037323Y-8843579D01*
X6037323Y-8843579D02*
X6027799Y-8862626D01*
X6027799Y-8862626D02*
X6018275Y-8872150D01*
X6018275Y-8872150D02*
X5999228Y-8881674D01*
X5999228Y-8881674D02*
X5942085Y-8881674D01*
X5942085Y-8881674D02*
X5923037Y-8872150D01*
X5923037Y-8872150D02*
X5913513Y-8862626D01*
X6161132Y-8681674D02*
X6180180Y-8681674D01*
X6180180Y-8681674D02*
X6199228Y-8691198D01*
X6199228Y-8691198D02*
X6208752Y-8700721D01*
X6208752Y-8700721D02*
X6218275Y-8719769D01*
X6218275Y-8719769D02*
X6227799Y-8757864D01*
X6227799Y-8757864D02*
X6227799Y-8805483D01*
X6227799Y-8805483D02*
X6218275Y-8843579D01*
X6218275Y-8843579D02*
X6208752Y-8862626D01*
X6208752Y-8862626D02*
X6199228Y-8872150D01*
X6199228Y-8872150D02*
X6180180Y-8881674D01*
X6180180Y-8881674D02*
X6161132Y-8881674D01*
X6161132Y-8881674D02*
X6142085Y-8872150D01*
X6142085Y-8872150D02*
X6132561Y-8862626D01*
X6132561Y-8862626D02*
X6123037Y-8843579D01*
X6123037Y-8843579D02*
X6113513Y-8805483D01*
X6113513Y-8805483D02*
X6113513Y-8757864D01*
X6113513Y-8757864D02*
X6123037Y-8719769D01*
X6123037Y-8719769D02*
X6132561Y-8700721D01*
X6132561Y-8700721D02*
X6142085Y-8691198D01*
X6142085Y-8691198D02*
X6161132Y-8681674D01*
X6351609Y-8681674D02*
X6370656Y-8681674D01*
X6370656Y-8681674D02*
X6389704Y-8691198D01*
X6389704Y-8691198D02*
X6399228Y-8700721D01*
X6399228Y-8700721D02*
X6408752Y-8719769D01*
X6408752Y-8719769D02*
X6418275Y-8757864D01*
X6418275Y-8757864D02*
X6418275Y-8805483D01*
X6418275Y-8805483D02*
X6408752Y-8843579D01*
X6408752Y-8843579D02*
X6399228Y-8862626D01*
X6399228Y-8862626D02*
X6389704Y-8872150D01*
X6389704Y-8872150D02*
X6370656Y-8881674D01*
X6370656Y-8881674D02*
X6351609Y-8881674D01*
X6351609Y-8881674D02*
X6332561Y-8872150D01*
X6332561Y-8872150D02*
X6323037Y-8862626D01*
X6323037Y-8862626D02*
X6313513Y-8843579D01*
X6313513Y-8843579D02*
X6303990Y-8805483D01*
X6303990Y-8805483D02*
X6303990Y-8757864D01*
X6303990Y-8757864D02*
X6313513Y-8719769D01*
X6313513Y-8719769D02*
X6323037Y-8700721D01*
X6323037Y-8700721D02*
X6332561Y-8691198D01*
X6332561Y-8691198D02*
X6351609Y-8681674D01*
X6503990Y-8881674D02*
X6503990Y-8748340D01*
X6503990Y-8767388D02*
X6513513Y-8757864D01*
X6513513Y-8757864D02*
X6532561Y-8748340D01*
X6532561Y-8748340D02*
X6561133Y-8748340D01*
X6561133Y-8748340D02*
X6580180Y-8757864D01*
X6580180Y-8757864D02*
X6589704Y-8776912D01*
X6589704Y-8776912D02*
X6589704Y-8881674D01*
X6589704Y-8776912D02*
X6599228Y-8757864D01*
X6599228Y-8757864D02*
X6618275Y-8748340D01*
X6618275Y-8748340D02*
X6646847Y-8748340D01*
X6646847Y-8748340D02*
X6665894Y-8757864D01*
X6665894Y-8757864D02*
X6675418Y-8776912D01*
X6675418Y-8776912D02*
X6675418Y-8881674D01*
X6770656Y-8881674D02*
X6770656Y-8748340D01*
X6770656Y-8767388D02*
X6780180Y-8757864D01*
X6780180Y-8757864D02*
X6799228Y-8748340D01*
X6799228Y-8748340D02*
X6827799Y-8748340D01*
X6827799Y-8748340D02*
X6846847Y-8757864D01*
X6846847Y-8757864D02*
X6856371Y-8776912D01*
X6856371Y-8776912D02*
X6856371Y-8881674D01*
X6856371Y-8776912D02*
X6865894Y-8757864D01*
X6865894Y-8757864D02*
X6884942Y-8748340D01*
X6884942Y-8748340D02*
X6913513Y-8748340D01*
X6913513Y-8748340D02*
X6932561Y-8757864D01*
X6932561Y-8757864D02*
X6942085Y-8776912D01*
X6942085Y-8776912D02*
X6942085Y-8881674D01*
X7332561Y-8672150D02*
X7161133Y-8929293D01*
X7589704Y-8681674D02*
X7608752Y-8681674D01*
X7608752Y-8681674D02*
X7627799Y-8691198D01*
X7627799Y-8691198D02*
X7637323Y-8700721D01*
X7637323Y-8700721D02*
X7646847Y-8719769D01*
X7646847Y-8719769D02*
X7656371Y-8757864D01*
X7656371Y-8757864D02*
X7656371Y-8805483D01*
X7656371Y-8805483D02*
X7646847Y-8843579D01*
X7646847Y-8843579D02*
X7637323Y-8862626D01*
X7637323Y-8862626D02*
X7627799Y-8872150D01*
X7627799Y-8872150D02*
X7608752Y-8881674D01*
X7608752Y-8881674D02*
X7589704Y-8881674D01*
X7589704Y-8881674D02*
X7570656Y-8872150D01*
X7570656Y-8872150D02*
X7561133Y-8862626D01*
X7561133Y-8862626D02*
X7551609Y-8843579D01*
X7551609Y-8843579D02*
X7542085Y-8805483D01*
X7542085Y-8805483D02*
X7542085Y-8757864D01*
X7542085Y-8757864D02*
X7551609Y-8719769D01*
X7551609Y-8719769D02*
X7561133Y-8700721D01*
X7561133Y-8700721D02*
X7570656Y-8691198D01*
X7570656Y-8691198D02*
X7589704Y-8681674D01*
X7742085Y-8862626D02*
X7751609Y-8872150D01*
X7751609Y-8872150D02*
X7742085Y-8881674D01*
X7742085Y-8881674D02*
X7732561Y-8872150D01*
X7732561Y-8872150D02*
X7742085Y-8862626D01*
X7742085Y-8862626D02*
X7742085Y-8881674D01*
X7875418Y-8681674D02*
X7894466Y-8681674D01*
X7894466Y-8681674D02*
X7913514Y-8691198D01*
X7913514Y-8691198D02*
X7923037Y-8700721D01*
X7923037Y-8700721D02*
X7932561Y-8719769D01*
X7932561Y-8719769D02*
X7942085Y-8757864D01*
X7942085Y-8757864D02*
X7942085Y-8805483D01*
X7942085Y-8805483D02*
X7932561Y-8843579D01*
X7932561Y-8843579D02*
X7923037Y-8862626D01*
X7923037Y-8862626D02*
X7913514Y-8872150D01*
X7913514Y-8872150D02*
X7894466Y-8881674D01*
X7894466Y-8881674D02*
X7875418Y-8881674D01*
X7875418Y-8881674D02*
X7856371Y-8872150D01*
X7856371Y-8872150D02*
X7846847Y-8862626D01*
X7846847Y-8862626D02*
X7837323Y-8843579D01*
X7837323Y-8843579D02*
X7827799Y-8805483D01*
X7827799Y-8805483D02*
X7827799Y-8757864D01*
X7827799Y-8757864D02*
X7837323Y-8719769D01*
X7837323Y-8719769D02*
X7846847Y-8700721D01*
X7846847Y-8700721D02*
X7856371Y-8691198D01*
X7856371Y-8691198D02*
X7875418Y-8681674D01*
X8132561Y-8881674D02*
X8018276Y-8881674D01*
X8075418Y-8881674D02*
X8075418Y-8681674D01*
X8075418Y-8681674D02*
X8056371Y-8710245D01*
X8056371Y-8710245D02*
X8037323Y-8729293D01*
X8037323Y-8729293D02*
X8018276Y-8738817D01*
X8323037Y-8881674D02*
X8208752Y-8881674D01*
X8265895Y-8881674D02*
X8265895Y-8681674D01*
X8265895Y-8681674D02*
X8246847Y-8710245D01*
X8246847Y-8710245D02*
X8227799Y-8729293D01*
X8227799Y-8729293D02*
X8208752Y-8738817D01*
X8437323Y-8767388D02*
X8418276Y-8757864D01*
X8418276Y-8757864D02*
X8408752Y-8748340D01*
X8408752Y-8748340D02*
X8399228Y-8729293D01*
X8399228Y-8729293D02*
X8399228Y-8719769D01*
X8399228Y-8719769D02*
X8408752Y-8700721D01*
X8408752Y-8700721D02*
X8418276Y-8691198D01*
X8418276Y-8691198D02*
X8437323Y-8681674D01*
X8437323Y-8681674D02*
X8475419Y-8681674D01*
X8475419Y-8681674D02*
X8494466Y-8691198D01*
X8494466Y-8691198D02*
X8503990Y-8700721D01*
X8503990Y-8700721D02*
X8513514Y-8719769D01*
X8513514Y-8719769D02*
X8513514Y-8729293D01*
X8513514Y-8729293D02*
X8503990Y-8748340D01*
X8503990Y-8748340D02*
X8494466Y-8757864D01*
X8494466Y-8757864D02*
X8475419Y-8767388D01*
X8475419Y-8767388D02*
X8437323Y-8767388D01*
X8437323Y-8767388D02*
X8418276Y-8776912D01*
X8418276Y-8776912D02*
X8408752Y-8786436D01*
X8408752Y-8786436D02*
X8399228Y-8805483D01*
X8399228Y-8805483D02*
X8399228Y-8843579D01*
X8399228Y-8843579D02*
X8408752Y-8862626D01*
X8408752Y-8862626D02*
X8418276Y-8872150D01*
X8418276Y-8872150D02*
X8437323Y-8881674D01*
X8437323Y-8881674D02*
X8475419Y-8881674D01*
X8475419Y-8881674D02*
X8494466Y-8872150D01*
X8494466Y-8872150D02*
X8503990Y-8862626D01*
X8503990Y-8862626D02*
X8513514Y-8843579D01*
X8513514Y-8843579D02*
X8513514Y-8805483D01*
X8513514Y-8805483D02*
X8503990Y-8786436D01*
X8503990Y-8786436D02*
X8494466Y-8776912D01*
X8494466Y-8776912D02*
X8475419Y-8767388D01*
X8589704Y-8681674D02*
X8589704Y-8719769D01*
X8665895Y-8681674D02*
X8665895Y-8719769D01*
X8961133Y-8957864D02*
X8951609Y-8948340D01*
X8951609Y-8948340D02*
X8932561Y-8919769D01*
X8932561Y-8919769D02*
X8923038Y-8900721D01*
X8923038Y-8900721D02*
X8913514Y-8872150D01*
X8913514Y-8872150D02*
X8903990Y-8824531D01*
X8903990Y-8824531D02*
X8903990Y-8786436D01*
X8903990Y-8786436D02*
X8913514Y-8738817D01*
X8913514Y-8738817D02*
X8923038Y-8710245D01*
X8923038Y-8710245D02*
X8932561Y-8691198D01*
X8932561Y-8691198D02*
X8951609Y-8662626D01*
X8951609Y-8662626D02*
X8961133Y-8653102D01*
X9065895Y-8767388D02*
X9046847Y-8757864D01*
X9046847Y-8757864D02*
X9037323Y-8748340D01*
X9037323Y-8748340D02*
X9027800Y-8729293D01*
X9027800Y-8729293D02*
X9027800Y-8719769D01*
X9027800Y-8719769D02*
X9037323Y-8700721D01*
X9037323Y-8700721D02*
X9046847Y-8691198D01*
X9046847Y-8691198D02*
X9065895Y-8681674D01*
X9065895Y-8681674D02*
X9103990Y-8681674D01*
X9103990Y-8681674D02*
X9123038Y-8691198D01*
X9123038Y-8691198D02*
X9132561Y-8700721D01*
X9132561Y-8700721D02*
X9142085Y-8719769D01*
X9142085Y-8719769D02*
X9142085Y-8729293D01*
X9142085Y-8729293D02*
X9132561Y-8748340D01*
X9132561Y-8748340D02*
X9123038Y-8757864D01*
X9123038Y-8757864D02*
X9103990Y-8767388D01*
X9103990Y-8767388D02*
X9065895Y-8767388D01*
X9065895Y-8767388D02*
X9046847Y-8776912D01*
X9046847Y-8776912D02*
X9037323Y-8786436D01*
X9037323Y-8786436D02*
X9027800Y-8805483D01*
X9027800Y-8805483D02*
X9027800Y-8843579D01*
X9027800Y-8843579D02*
X9037323Y-8862626D01*
X9037323Y-8862626D02*
X9046847Y-8872150D01*
X9046847Y-8872150D02*
X9065895Y-8881674D01*
X9065895Y-8881674D02*
X9103990Y-8881674D01*
X9103990Y-8881674D02*
X9123038Y-8872150D01*
X9123038Y-8872150D02*
X9132561Y-8862626D01*
X9132561Y-8862626D02*
X9142085Y-8843579D01*
X9142085Y-8843579D02*
X9142085Y-8805483D01*
X9142085Y-8805483D02*
X9132561Y-8786436D01*
X9132561Y-8786436D02*
X9123038Y-8776912D01*
X9123038Y-8776912D02*
X9103990Y-8767388D01*
X9380181Y-8881674D02*
X9380181Y-8681674D01*
X9465895Y-8881674D02*
X9465895Y-8776912D01*
X9465895Y-8776912D02*
X9456371Y-8757864D01*
X9456371Y-8757864D02*
X9437323Y-8748340D01*
X9437323Y-8748340D02*
X9408752Y-8748340D01*
X9408752Y-8748340D02*
X9389704Y-8757864D01*
X9389704Y-8757864D02*
X9380181Y-8767388D01*
X9589704Y-8881674D02*
X9570657Y-8872150D01*
X9570657Y-8872150D02*
X9561133Y-8862626D01*
X9561133Y-8862626D02*
X9551609Y-8843579D01*
X9551609Y-8843579D02*
X9551609Y-8786436D01*
X9551609Y-8786436D02*
X9561133Y-8767388D01*
X9561133Y-8767388D02*
X9570657Y-8757864D01*
X9570657Y-8757864D02*
X9589704Y-8748340D01*
X9589704Y-8748340D02*
X9618276Y-8748340D01*
X9618276Y-8748340D02*
X9637323Y-8757864D01*
X9637323Y-8757864D02*
X9646847Y-8767388D01*
X9646847Y-8767388D02*
X9656371Y-8786436D01*
X9656371Y-8786436D02*
X9656371Y-8843579D01*
X9656371Y-8843579D02*
X9646847Y-8862626D01*
X9646847Y-8862626D02*
X9637323Y-8872150D01*
X9637323Y-8872150D02*
X9618276Y-8881674D01*
X9618276Y-8881674D02*
X9589704Y-8881674D01*
X9770657Y-8881674D02*
X9751609Y-8872150D01*
X9751609Y-8872150D02*
X9742085Y-8853102D01*
X9742085Y-8853102D02*
X9742085Y-8681674D01*
X9923038Y-8872150D02*
X9903990Y-8881674D01*
X9903990Y-8881674D02*
X9865895Y-8881674D01*
X9865895Y-8881674D02*
X9846847Y-8872150D01*
X9846847Y-8872150D02*
X9837323Y-8853102D01*
X9837323Y-8853102D02*
X9837323Y-8776912D01*
X9837323Y-8776912D02*
X9846847Y-8757864D01*
X9846847Y-8757864D02*
X9865895Y-8748340D01*
X9865895Y-8748340D02*
X9903990Y-8748340D01*
X9903990Y-8748340D02*
X9923038Y-8757864D01*
X9923038Y-8757864D02*
X9932562Y-8776912D01*
X9932562Y-8776912D02*
X9932562Y-8795960D01*
X9932562Y-8795960D02*
X9837323Y-8815007D01*
X10008752Y-8872150D02*
X10027800Y-8881674D01*
X10027800Y-8881674D02*
X10065895Y-8881674D01*
X10065895Y-8881674D02*
X10084943Y-8872150D01*
X10084943Y-8872150D02*
X10094466Y-8853102D01*
X10094466Y-8853102D02*
X10094466Y-8843579D01*
X10094466Y-8843579D02*
X10084943Y-8824531D01*
X10084943Y-8824531D02*
X10065895Y-8815007D01*
X10065895Y-8815007D02*
X10037323Y-8815007D01*
X10037323Y-8815007D02*
X10018276Y-8805483D01*
X10018276Y-8805483D02*
X10008752Y-8786436D01*
X10008752Y-8786436D02*
X10008752Y-8776912D01*
X10008752Y-8776912D02*
X10018276Y-8757864D01*
X10018276Y-8757864D02*
X10037323Y-8748340D01*
X10037323Y-8748340D02*
X10065895Y-8748340D01*
X10065895Y-8748340D02*
X10084943Y-8757864D01*
X10161133Y-8957864D02*
X10170657Y-8948340D01*
X10170657Y-8948340D02*
X10189704Y-8919769D01*
X10189704Y-8919769D02*
X10199228Y-8900721D01*
X10199228Y-8900721D02*
X10208752Y-8872150D01*
X10208752Y-8872150D02*
X10218276Y-8824531D01*
X10218276Y-8824531D02*
X10218276Y-8786436D01*
X10218276Y-8786436D02*
X10208752Y-8738817D01*
X10208752Y-8738817D02*
X10199228Y-8710245D01*
X10199228Y-8710245D02*
X10189704Y-8691198D01*
X10189704Y-8691198D02*
X10170657Y-8662626D01*
X10170657Y-8662626D02*
X10161133Y-8653102D01*
D12*
X5386070Y-9054190D02*
G75*
G02*
X5311070Y-9054190I-37500J0D01*
G01*
X5311070Y-9054190D02*
G75*
G02*
X5386070Y-9054190I37500J0D01*
G01*
D11*
X5684942Y-8945674D02*
X5703990Y-8945674D01*
X5703990Y-8945674D02*
X5723037Y-8955198D01*
X5723037Y-8955198D02*
X5732561Y-8964721D01*
X5732561Y-8964721D02*
X5742085Y-8983769D01*
X5742085Y-8983769D02*
X5751609Y-9021864D01*
X5751609Y-9021864D02*
X5751609Y-9069483D01*
X5751609Y-9069483D02*
X5742085Y-9107579D01*
X5742085Y-9107579D02*
X5732561Y-9126626D01*
X5732561Y-9126626D02*
X5723037Y-9136150D01*
X5723037Y-9136150D02*
X5703990Y-9145674D01*
X5703990Y-9145674D02*
X5684942Y-9145674D01*
X5684942Y-9145674D02*
X5665894Y-9136150D01*
X5665894Y-9136150D02*
X5656371Y-9126626D01*
X5656371Y-9126626D02*
X5646847Y-9107579D01*
X5646847Y-9107579D02*
X5637323Y-9069483D01*
X5637323Y-9069483D02*
X5637323Y-9021864D01*
X5637323Y-9021864D02*
X5646847Y-8983769D01*
X5646847Y-8983769D02*
X5656371Y-8964721D01*
X5656371Y-8964721D02*
X5665894Y-8955198D01*
X5665894Y-8955198D02*
X5684942Y-8945674D01*
X5837323Y-9126626D02*
X5846847Y-9136150D01*
X5846847Y-9136150D02*
X5837323Y-9145674D01*
X5837323Y-9145674D02*
X5827799Y-9136150D01*
X5827799Y-9136150D02*
X5837323Y-9126626D01*
X5837323Y-9126626D02*
X5837323Y-9145674D01*
X5913513Y-8945674D02*
X6046847Y-8945674D01*
X6046847Y-8945674D02*
X5961132Y-9145674D01*
X6218275Y-8945674D02*
X6123037Y-8945674D01*
X6123037Y-8945674D02*
X6113513Y-9040912D01*
X6113513Y-9040912D02*
X6123037Y-9031388D01*
X6123037Y-9031388D02*
X6142085Y-9021864D01*
X6142085Y-9021864D02*
X6189704Y-9021864D01*
X6189704Y-9021864D02*
X6208752Y-9031388D01*
X6208752Y-9031388D02*
X6218275Y-9040912D01*
X6218275Y-9040912D02*
X6227799Y-9059960D01*
X6227799Y-9059960D02*
X6227799Y-9107579D01*
X6227799Y-9107579D02*
X6218275Y-9126626D01*
X6218275Y-9126626D02*
X6208752Y-9136150D01*
X6208752Y-9136150D02*
X6189704Y-9145674D01*
X6189704Y-9145674D02*
X6142085Y-9145674D01*
X6142085Y-9145674D02*
X6123037Y-9136150D01*
X6123037Y-9136150D02*
X6113513Y-9126626D01*
X6351609Y-8945674D02*
X6370656Y-8945674D01*
X6370656Y-8945674D02*
X6389704Y-8955198D01*
X6389704Y-8955198D02*
X6399228Y-8964721D01*
X6399228Y-8964721D02*
X6408752Y-8983769D01*
X6408752Y-8983769D02*
X6418275Y-9021864D01*
X6418275Y-9021864D02*
X6418275Y-9069483D01*
X6418275Y-9069483D02*
X6408752Y-9107579D01*
X6408752Y-9107579D02*
X6399228Y-9126626D01*
X6399228Y-9126626D02*
X6389704Y-9136150D01*
X6389704Y-9136150D02*
X6370656Y-9145674D01*
X6370656Y-9145674D02*
X6351609Y-9145674D01*
X6351609Y-9145674D02*
X6332561Y-9136150D01*
X6332561Y-9136150D02*
X6323037Y-9126626D01*
X6323037Y-9126626D02*
X6313513Y-9107579D01*
X6313513Y-9107579D02*
X6303990Y-9069483D01*
X6303990Y-9069483D02*
X6303990Y-9021864D01*
X6303990Y-9021864D02*
X6313513Y-8983769D01*
X6313513Y-8983769D02*
X6323037Y-8964721D01*
X6323037Y-8964721D02*
X6332561Y-8955198D01*
X6332561Y-8955198D02*
X6351609Y-8945674D01*
X6503990Y-9145674D02*
X6503990Y-9012340D01*
X6503990Y-9031388D02*
X6513513Y-9021864D01*
X6513513Y-9021864D02*
X6532561Y-9012340D01*
X6532561Y-9012340D02*
X6561133Y-9012340D01*
X6561133Y-9012340D02*
X6580180Y-9021864D01*
X6580180Y-9021864D02*
X6589704Y-9040912D01*
X6589704Y-9040912D02*
X6589704Y-9145674D01*
X6589704Y-9040912D02*
X6599228Y-9021864D01*
X6599228Y-9021864D02*
X6618275Y-9012340D01*
X6618275Y-9012340D02*
X6646847Y-9012340D01*
X6646847Y-9012340D02*
X6665894Y-9021864D01*
X6665894Y-9021864D02*
X6675418Y-9040912D01*
X6675418Y-9040912D02*
X6675418Y-9145674D01*
X6770656Y-9145674D02*
X6770656Y-9012340D01*
X6770656Y-9031388D02*
X6780180Y-9021864D01*
X6780180Y-9021864D02*
X6799228Y-9012340D01*
X6799228Y-9012340D02*
X6827799Y-9012340D01*
X6827799Y-9012340D02*
X6846847Y-9021864D01*
X6846847Y-9021864D02*
X6856371Y-9040912D01*
X6856371Y-9040912D02*
X6856371Y-9145674D01*
X6856371Y-9040912D02*
X6865894Y-9021864D01*
X6865894Y-9021864D02*
X6884942Y-9012340D01*
X6884942Y-9012340D02*
X6913513Y-9012340D01*
X6913513Y-9012340D02*
X6932561Y-9021864D01*
X6932561Y-9021864D02*
X6942085Y-9040912D01*
X6942085Y-9040912D02*
X6942085Y-9145674D01*
X7332561Y-8936150D02*
X7161133Y-9193293D01*
X7589704Y-8945674D02*
X7608752Y-8945674D01*
X7608752Y-8945674D02*
X7627799Y-8955198D01*
X7627799Y-8955198D02*
X7637323Y-8964721D01*
X7637323Y-8964721D02*
X7646847Y-8983769D01*
X7646847Y-8983769D02*
X7656371Y-9021864D01*
X7656371Y-9021864D02*
X7656371Y-9069483D01*
X7656371Y-9069483D02*
X7646847Y-9107579D01*
X7646847Y-9107579D02*
X7637323Y-9126626D01*
X7637323Y-9126626D02*
X7627799Y-9136150D01*
X7627799Y-9136150D02*
X7608752Y-9145674D01*
X7608752Y-9145674D02*
X7589704Y-9145674D01*
X7589704Y-9145674D02*
X7570656Y-9136150D01*
X7570656Y-9136150D02*
X7561133Y-9126626D01*
X7561133Y-9126626D02*
X7551609Y-9107579D01*
X7551609Y-9107579D02*
X7542085Y-9069483D01*
X7542085Y-9069483D02*
X7542085Y-9021864D01*
X7542085Y-9021864D02*
X7551609Y-8983769D01*
X7551609Y-8983769D02*
X7561133Y-8964721D01*
X7561133Y-8964721D02*
X7570656Y-8955198D01*
X7570656Y-8955198D02*
X7589704Y-8945674D01*
X7742085Y-9126626D02*
X7751609Y-9136150D01*
X7751609Y-9136150D02*
X7742085Y-9145674D01*
X7742085Y-9145674D02*
X7732561Y-9136150D01*
X7732561Y-9136150D02*
X7742085Y-9126626D01*
X7742085Y-9126626D02*
X7742085Y-9145674D01*
X7875418Y-8945674D02*
X7894466Y-8945674D01*
X7894466Y-8945674D02*
X7913514Y-8955198D01*
X7913514Y-8955198D02*
X7923037Y-8964721D01*
X7923037Y-8964721D02*
X7932561Y-8983769D01*
X7932561Y-8983769D02*
X7942085Y-9021864D01*
X7942085Y-9021864D02*
X7942085Y-9069483D01*
X7942085Y-9069483D02*
X7932561Y-9107579D01*
X7932561Y-9107579D02*
X7923037Y-9126626D01*
X7923037Y-9126626D02*
X7913514Y-9136150D01*
X7913514Y-9136150D02*
X7894466Y-9145674D01*
X7894466Y-9145674D02*
X7875418Y-9145674D01*
X7875418Y-9145674D02*
X7856371Y-9136150D01*
X7856371Y-9136150D02*
X7846847Y-9126626D01*
X7846847Y-9126626D02*
X7837323Y-9107579D01*
X7837323Y-9107579D02*
X7827799Y-9069483D01*
X7827799Y-9069483D02*
X7827799Y-9021864D01*
X7827799Y-9021864D02*
X7837323Y-8983769D01*
X7837323Y-8983769D02*
X7846847Y-8964721D01*
X7846847Y-8964721D02*
X7856371Y-8955198D01*
X7856371Y-8955198D02*
X7875418Y-8945674D01*
X8018276Y-8964721D02*
X8027799Y-8955198D01*
X8027799Y-8955198D02*
X8046847Y-8945674D01*
X8046847Y-8945674D02*
X8094466Y-8945674D01*
X8094466Y-8945674D02*
X8113514Y-8955198D01*
X8113514Y-8955198D02*
X8123037Y-8964721D01*
X8123037Y-8964721D02*
X8132561Y-8983769D01*
X8132561Y-8983769D02*
X8132561Y-9002817D01*
X8132561Y-9002817D02*
X8123037Y-9031388D01*
X8123037Y-9031388D02*
X8008752Y-9145674D01*
X8008752Y-9145674D02*
X8132561Y-9145674D01*
X8227799Y-9145674D02*
X8265895Y-9145674D01*
X8265895Y-9145674D02*
X8284942Y-9136150D01*
X8284942Y-9136150D02*
X8294466Y-9126626D01*
X8294466Y-9126626D02*
X8313514Y-9098055D01*
X8313514Y-9098055D02*
X8323037Y-9059960D01*
X8323037Y-9059960D02*
X8323037Y-8983769D01*
X8323037Y-8983769D02*
X8313514Y-8964721D01*
X8313514Y-8964721D02*
X8303990Y-8955198D01*
X8303990Y-8955198D02*
X8284942Y-8945674D01*
X8284942Y-8945674D02*
X8246847Y-8945674D01*
X8246847Y-8945674D02*
X8227799Y-8955198D01*
X8227799Y-8955198D02*
X8218276Y-8964721D01*
X8218276Y-8964721D02*
X8208752Y-8983769D01*
X8208752Y-8983769D02*
X8208752Y-9031388D01*
X8208752Y-9031388D02*
X8218276Y-9050436D01*
X8218276Y-9050436D02*
X8227799Y-9059960D01*
X8227799Y-9059960D02*
X8246847Y-9069483D01*
X8246847Y-9069483D02*
X8284942Y-9069483D01*
X8284942Y-9069483D02*
X8303990Y-9059960D01*
X8303990Y-9059960D02*
X8313514Y-9050436D01*
X8313514Y-9050436D02*
X8323037Y-9031388D01*
X8503990Y-8945674D02*
X8408752Y-8945674D01*
X8408752Y-8945674D02*
X8399228Y-9040912D01*
X8399228Y-9040912D02*
X8408752Y-9031388D01*
X8408752Y-9031388D02*
X8427799Y-9021864D01*
X8427799Y-9021864D02*
X8475419Y-9021864D01*
X8475419Y-9021864D02*
X8494466Y-9031388D01*
X8494466Y-9031388D02*
X8503990Y-9040912D01*
X8503990Y-9040912D02*
X8513514Y-9059960D01*
X8513514Y-9059960D02*
X8513514Y-9107579D01*
X8513514Y-9107579D02*
X8503990Y-9126626D01*
X8503990Y-9126626D02*
X8494466Y-9136150D01*
X8494466Y-9136150D02*
X8475419Y-9145674D01*
X8475419Y-9145674D02*
X8427799Y-9145674D01*
X8427799Y-9145674D02*
X8408752Y-9136150D01*
X8408752Y-9136150D02*
X8399228Y-9126626D01*
X8589704Y-8945674D02*
X8589704Y-8983769D01*
X8665895Y-8945674D02*
X8665895Y-8983769D01*
X8961133Y-9221864D02*
X8951609Y-9212340D01*
X8951609Y-9212340D02*
X8932561Y-9183769D01*
X8932561Y-9183769D02*
X8923038Y-9164721D01*
X8923038Y-9164721D02*
X8913514Y-9136150D01*
X8913514Y-9136150D02*
X8903990Y-9088531D01*
X8903990Y-9088531D02*
X8903990Y-9050436D01*
X8903990Y-9050436D02*
X8913514Y-9002817D01*
X8913514Y-9002817D02*
X8923038Y-8974245D01*
X8923038Y-8974245D02*
X8932561Y-8955198D01*
X8932561Y-8955198D02*
X8951609Y-8926626D01*
X8951609Y-8926626D02*
X8961133Y-8917102D01*
X9142085Y-9145674D02*
X9027800Y-9145674D01*
X9084942Y-9145674D02*
X9084942Y-8945674D01*
X9084942Y-8945674D02*
X9065895Y-8974245D01*
X9065895Y-8974245D02*
X9046847Y-8993293D01*
X9046847Y-8993293D02*
X9027800Y-9002817D01*
X9265895Y-8945674D02*
X9284942Y-8945674D01*
X9284942Y-8945674D02*
X9303990Y-8955198D01*
X9303990Y-8955198D02*
X9313514Y-8964721D01*
X9313514Y-8964721D02*
X9323038Y-8983769D01*
X9323038Y-8983769D02*
X9332561Y-9021864D01*
X9332561Y-9021864D02*
X9332561Y-9069483D01*
X9332561Y-9069483D02*
X9323038Y-9107579D01*
X9323038Y-9107579D02*
X9313514Y-9126626D01*
X9313514Y-9126626D02*
X9303990Y-9136150D01*
X9303990Y-9136150D02*
X9284942Y-9145674D01*
X9284942Y-9145674D02*
X9265895Y-9145674D01*
X9265895Y-9145674D02*
X9246847Y-9136150D01*
X9246847Y-9136150D02*
X9237323Y-9126626D01*
X9237323Y-9126626D02*
X9227800Y-9107579D01*
X9227800Y-9107579D02*
X9218276Y-9069483D01*
X9218276Y-9069483D02*
X9218276Y-9021864D01*
X9218276Y-9021864D02*
X9227800Y-8983769D01*
X9227800Y-8983769D02*
X9237323Y-8964721D01*
X9237323Y-8964721D02*
X9246847Y-8955198D01*
X9246847Y-8955198D02*
X9265895Y-8945674D01*
X9570657Y-9145674D02*
X9570657Y-8945674D01*
X9656371Y-9145674D02*
X9656371Y-9040912D01*
X9656371Y-9040912D02*
X9646847Y-9021864D01*
X9646847Y-9021864D02*
X9627800Y-9012340D01*
X9627800Y-9012340D02*
X9599228Y-9012340D01*
X9599228Y-9012340D02*
X9580181Y-9021864D01*
X9580181Y-9021864D02*
X9570657Y-9031388D01*
X9780181Y-9145674D02*
X9761133Y-9136150D01*
X9761133Y-9136150D02*
X9751609Y-9126626D01*
X9751609Y-9126626D02*
X9742085Y-9107579D01*
X9742085Y-9107579D02*
X9742085Y-9050436D01*
X9742085Y-9050436D02*
X9751609Y-9031388D01*
X9751609Y-9031388D02*
X9761133Y-9021864D01*
X9761133Y-9021864D02*
X9780181Y-9012340D01*
X9780181Y-9012340D02*
X9808752Y-9012340D01*
X9808752Y-9012340D02*
X9827800Y-9021864D01*
X9827800Y-9021864D02*
X9837323Y-9031388D01*
X9837323Y-9031388D02*
X9846847Y-9050436D01*
X9846847Y-9050436D02*
X9846847Y-9107579D01*
X9846847Y-9107579D02*
X9837323Y-9126626D01*
X9837323Y-9126626D02*
X9827800Y-9136150D01*
X9827800Y-9136150D02*
X9808752Y-9145674D01*
X9808752Y-9145674D02*
X9780181Y-9145674D01*
X9961133Y-9145674D02*
X9942085Y-9136150D01*
X9942085Y-9136150D02*
X9932562Y-9117102D01*
X9932562Y-9117102D02*
X9932562Y-8945674D01*
X10113514Y-9136150D02*
X10094466Y-9145674D01*
X10094466Y-9145674D02*
X10056371Y-9145674D01*
X10056371Y-9145674D02*
X10037323Y-9136150D01*
X10037323Y-9136150D02*
X10027800Y-9117102D01*
X10027800Y-9117102D02*
X10027800Y-9040912D01*
X10027800Y-9040912D02*
X10037323Y-9021864D01*
X10037323Y-9021864D02*
X10056371Y-9012340D01*
X10056371Y-9012340D02*
X10094466Y-9012340D01*
X10094466Y-9012340D02*
X10113514Y-9021864D01*
X10113514Y-9021864D02*
X10123038Y-9040912D01*
X10123038Y-9040912D02*
X10123038Y-9059960D01*
X10123038Y-9059960D02*
X10027800Y-9079007D01*
X10199228Y-9136150D02*
X10218276Y-9145674D01*
X10218276Y-9145674D02*
X10256371Y-9145674D01*
X10256371Y-9145674D02*
X10275419Y-9136150D01*
X10275419Y-9136150D02*
X10284943Y-9117102D01*
X10284943Y-9117102D02*
X10284943Y-9107579D01*
X10284943Y-9107579D02*
X10275419Y-9088531D01*
X10275419Y-9088531D02*
X10256371Y-9079007D01*
X10256371Y-9079007D02*
X10227800Y-9079007D01*
X10227800Y-9079007D02*
X10208752Y-9069483D01*
X10208752Y-9069483D02*
X10199228Y-9050436D01*
X10199228Y-9050436D02*
X10199228Y-9040912D01*
X10199228Y-9040912D02*
X10208752Y-9021864D01*
X10208752Y-9021864D02*
X10227800Y-9012340D01*
X10227800Y-9012340D02*
X10256371Y-9012340D01*
X10256371Y-9012340D02*
X10275419Y-9021864D01*
X10351609Y-9221864D02*
X10361133Y-9212340D01*
X10361133Y-9212340D02*
X10380181Y-9183769D01*
X10380181Y-9183769D02*
X10389704Y-9164721D01*
X10389704Y-9164721D02*
X10399228Y-9136150D01*
X10399228Y-9136150D02*
X10408752Y-9088531D01*
X10408752Y-9088531D02*
X10408752Y-9050436D01*
X10408752Y-9050436D02*
X10399228Y-9002817D01*
X10399228Y-9002817D02*
X10389704Y-8974245D01*
X10389704Y-8974245D02*
X10380181Y-8955198D01*
X10380181Y-8955198D02*
X10361133Y-8926626D01*
X10361133Y-8926626D02*
X10351609Y-8917102D01*
D12*
X5336070Y-9268190D02*
X5336070Y-9368190D01*
X5286070Y-9318190D02*
X5386070Y-9318190D01*
D11*
X5751609Y-9409674D02*
X5637323Y-9409674D01*
X5694466Y-9409674D02*
X5694466Y-9209674D01*
X5694466Y-9209674D02*
X5675418Y-9238245D01*
X5675418Y-9238245D02*
X5656371Y-9257293D01*
X5656371Y-9257293D02*
X5637323Y-9266817D01*
X5837323Y-9390626D02*
X5846847Y-9400150D01*
X5846847Y-9400150D02*
X5837323Y-9409674D01*
X5837323Y-9409674D02*
X5827799Y-9400150D01*
X5827799Y-9400150D02*
X5837323Y-9390626D01*
X5837323Y-9390626D02*
X5837323Y-9409674D01*
X5970656Y-9209674D02*
X5989704Y-9209674D01*
X5989704Y-9209674D02*
X6008752Y-9219198D01*
X6008752Y-9219198D02*
X6018275Y-9228721D01*
X6018275Y-9228721D02*
X6027799Y-9247769D01*
X6027799Y-9247769D02*
X6037323Y-9285864D01*
X6037323Y-9285864D02*
X6037323Y-9333483D01*
X6037323Y-9333483D02*
X6027799Y-9371579D01*
X6027799Y-9371579D02*
X6018275Y-9390626D01*
X6018275Y-9390626D02*
X6008752Y-9400150D01*
X6008752Y-9400150D02*
X5989704Y-9409674D01*
X5989704Y-9409674D02*
X5970656Y-9409674D01*
X5970656Y-9409674D02*
X5951609Y-9400150D01*
X5951609Y-9400150D02*
X5942085Y-9390626D01*
X5942085Y-9390626D02*
X5932561Y-9371579D01*
X5932561Y-9371579D02*
X5923037Y-9333483D01*
X5923037Y-9333483D02*
X5923037Y-9285864D01*
X5923037Y-9285864D02*
X5932561Y-9247769D01*
X5932561Y-9247769D02*
X5942085Y-9228721D01*
X5942085Y-9228721D02*
X5951609Y-9219198D01*
X5951609Y-9219198D02*
X5970656Y-9209674D01*
X6161132Y-9209674D02*
X6180180Y-9209674D01*
X6180180Y-9209674D02*
X6199228Y-9219198D01*
X6199228Y-9219198D02*
X6208752Y-9228721D01*
X6208752Y-9228721D02*
X6218275Y-9247769D01*
X6218275Y-9247769D02*
X6227799Y-9285864D01*
X6227799Y-9285864D02*
X6227799Y-9333483D01*
X6227799Y-9333483D02*
X6218275Y-9371579D01*
X6218275Y-9371579D02*
X6208752Y-9390626D01*
X6208752Y-9390626D02*
X6199228Y-9400150D01*
X6199228Y-9400150D02*
X6180180Y-9409674D01*
X6180180Y-9409674D02*
X6161132Y-9409674D01*
X6161132Y-9409674D02*
X6142085Y-9400150D01*
X6142085Y-9400150D02*
X6132561Y-9390626D01*
X6132561Y-9390626D02*
X6123037Y-9371579D01*
X6123037Y-9371579D02*
X6113513Y-9333483D01*
X6113513Y-9333483D02*
X6113513Y-9285864D01*
X6113513Y-9285864D02*
X6123037Y-9247769D01*
X6123037Y-9247769D02*
X6132561Y-9228721D01*
X6132561Y-9228721D02*
X6142085Y-9219198D01*
X6142085Y-9219198D02*
X6161132Y-9209674D01*
X6351609Y-9209674D02*
X6370656Y-9209674D01*
X6370656Y-9209674D02*
X6389704Y-9219198D01*
X6389704Y-9219198D02*
X6399228Y-9228721D01*
X6399228Y-9228721D02*
X6408752Y-9247769D01*
X6408752Y-9247769D02*
X6418275Y-9285864D01*
X6418275Y-9285864D02*
X6418275Y-9333483D01*
X6418275Y-9333483D02*
X6408752Y-9371579D01*
X6408752Y-9371579D02*
X6399228Y-9390626D01*
X6399228Y-9390626D02*
X6389704Y-9400150D01*
X6389704Y-9400150D02*
X6370656Y-9409674D01*
X6370656Y-9409674D02*
X6351609Y-9409674D01*
X6351609Y-9409674D02*
X6332561Y-9400150D01*
X6332561Y-9400150D02*
X6323037Y-9390626D01*
X6323037Y-9390626D02*
X6313513Y-9371579D01*
X6313513Y-9371579D02*
X6303990Y-9333483D01*
X6303990Y-9333483D02*
X6303990Y-9285864D01*
X6303990Y-9285864D02*
X6313513Y-9247769D01*
X6313513Y-9247769D02*
X6323037Y-9228721D01*
X6323037Y-9228721D02*
X6332561Y-9219198D01*
X6332561Y-9219198D02*
X6351609Y-9209674D01*
X6503990Y-9409674D02*
X6503990Y-9276340D01*
X6503990Y-9295388D02*
X6513513Y-9285864D01*
X6513513Y-9285864D02*
X6532561Y-9276340D01*
X6532561Y-9276340D02*
X6561133Y-9276340D01*
X6561133Y-9276340D02*
X6580180Y-9285864D01*
X6580180Y-9285864D02*
X6589704Y-9304912D01*
X6589704Y-9304912D02*
X6589704Y-9409674D01*
X6589704Y-9304912D02*
X6599228Y-9285864D01*
X6599228Y-9285864D02*
X6618275Y-9276340D01*
X6618275Y-9276340D02*
X6646847Y-9276340D01*
X6646847Y-9276340D02*
X6665894Y-9285864D01*
X6665894Y-9285864D02*
X6675418Y-9304912D01*
X6675418Y-9304912D02*
X6675418Y-9409674D01*
X6770656Y-9409674D02*
X6770656Y-9276340D01*
X6770656Y-9295388D02*
X6780180Y-9285864D01*
X6780180Y-9285864D02*
X6799228Y-9276340D01*
X6799228Y-9276340D02*
X6827799Y-9276340D01*
X6827799Y-9276340D02*
X6846847Y-9285864D01*
X6846847Y-9285864D02*
X6856371Y-9304912D01*
X6856371Y-9304912D02*
X6856371Y-9409674D01*
X6856371Y-9304912D02*
X6865894Y-9285864D01*
X6865894Y-9285864D02*
X6884942Y-9276340D01*
X6884942Y-9276340D02*
X6913513Y-9276340D01*
X6913513Y-9276340D02*
X6932561Y-9285864D01*
X6932561Y-9285864D02*
X6942085Y-9304912D01*
X6942085Y-9304912D02*
X6942085Y-9409674D01*
X7332561Y-9200150D02*
X7161133Y-9457293D01*
X7589704Y-9209674D02*
X7608752Y-9209674D01*
X7608752Y-9209674D02*
X7627799Y-9219198D01*
X7627799Y-9219198D02*
X7637323Y-9228721D01*
X7637323Y-9228721D02*
X7646847Y-9247769D01*
X7646847Y-9247769D02*
X7656371Y-9285864D01*
X7656371Y-9285864D02*
X7656371Y-9333483D01*
X7656371Y-9333483D02*
X7646847Y-9371579D01*
X7646847Y-9371579D02*
X7637323Y-9390626D01*
X7637323Y-9390626D02*
X7627799Y-9400150D01*
X7627799Y-9400150D02*
X7608752Y-9409674D01*
X7608752Y-9409674D02*
X7589704Y-9409674D01*
X7589704Y-9409674D02*
X7570656Y-9400150D01*
X7570656Y-9400150D02*
X7561133Y-9390626D01*
X7561133Y-9390626D02*
X7551609Y-9371579D01*
X7551609Y-9371579D02*
X7542085Y-9333483D01*
X7542085Y-9333483D02*
X7542085Y-9285864D01*
X7542085Y-9285864D02*
X7551609Y-9247769D01*
X7551609Y-9247769D02*
X7561133Y-9228721D01*
X7561133Y-9228721D02*
X7570656Y-9219198D01*
X7570656Y-9219198D02*
X7589704Y-9209674D01*
X7742085Y-9390626D02*
X7751609Y-9400150D01*
X7751609Y-9400150D02*
X7742085Y-9409674D01*
X7742085Y-9409674D02*
X7732561Y-9400150D01*
X7732561Y-9400150D02*
X7742085Y-9390626D01*
X7742085Y-9390626D02*
X7742085Y-9409674D01*
X7875418Y-9209674D02*
X7894466Y-9209674D01*
X7894466Y-9209674D02*
X7913514Y-9219198D01*
X7913514Y-9219198D02*
X7923037Y-9228721D01*
X7923037Y-9228721D02*
X7932561Y-9247769D01*
X7932561Y-9247769D02*
X7942085Y-9285864D01*
X7942085Y-9285864D02*
X7942085Y-9333483D01*
X7942085Y-9333483D02*
X7932561Y-9371579D01*
X7932561Y-9371579D02*
X7923037Y-9390626D01*
X7923037Y-9390626D02*
X7913514Y-9400150D01*
X7913514Y-9400150D02*
X7894466Y-9409674D01*
X7894466Y-9409674D02*
X7875418Y-9409674D01*
X7875418Y-9409674D02*
X7856371Y-9400150D01*
X7856371Y-9400150D02*
X7846847Y-9390626D01*
X7846847Y-9390626D02*
X7837323Y-9371579D01*
X7837323Y-9371579D02*
X7827799Y-9333483D01*
X7827799Y-9333483D02*
X7827799Y-9285864D01*
X7827799Y-9285864D02*
X7837323Y-9247769D01*
X7837323Y-9247769D02*
X7846847Y-9228721D01*
X7846847Y-9228721D02*
X7856371Y-9219198D01*
X7856371Y-9219198D02*
X7875418Y-9209674D01*
X8008752Y-9209674D02*
X8132561Y-9209674D01*
X8132561Y-9209674D02*
X8065895Y-9285864D01*
X8065895Y-9285864D02*
X8094466Y-9285864D01*
X8094466Y-9285864D02*
X8113514Y-9295388D01*
X8113514Y-9295388D02*
X8123037Y-9304912D01*
X8123037Y-9304912D02*
X8132561Y-9323960D01*
X8132561Y-9323960D02*
X8132561Y-9371579D01*
X8132561Y-9371579D02*
X8123037Y-9390626D01*
X8123037Y-9390626D02*
X8113514Y-9400150D01*
X8113514Y-9400150D02*
X8094466Y-9409674D01*
X8094466Y-9409674D02*
X8037323Y-9409674D01*
X8037323Y-9409674D02*
X8018276Y-9400150D01*
X8018276Y-9400150D02*
X8008752Y-9390626D01*
X8227799Y-9409674D02*
X8265895Y-9409674D01*
X8265895Y-9409674D02*
X8284942Y-9400150D01*
X8284942Y-9400150D02*
X8294466Y-9390626D01*
X8294466Y-9390626D02*
X8313514Y-9362055D01*
X8313514Y-9362055D02*
X8323037Y-9323960D01*
X8323037Y-9323960D02*
X8323037Y-9247769D01*
X8323037Y-9247769D02*
X8313514Y-9228721D01*
X8313514Y-9228721D02*
X8303990Y-9219198D01*
X8303990Y-9219198D02*
X8284942Y-9209674D01*
X8284942Y-9209674D02*
X8246847Y-9209674D01*
X8246847Y-9209674D02*
X8227799Y-9219198D01*
X8227799Y-9219198D02*
X8218276Y-9228721D01*
X8218276Y-9228721D02*
X8208752Y-9247769D01*
X8208752Y-9247769D02*
X8208752Y-9295388D01*
X8208752Y-9295388D02*
X8218276Y-9314436D01*
X8218276Y-9314436D02*
X8227799Y-9323960D01*
X8227799Y-9323960D02*
X8246847Y-9333483D01*
X8246847Y-9333483D02*
X8284942Y-9333483D01*
X8284942Y-9333483D02*
X8303990Y-9323960D01*
X8303990Y-9323960D02*
X8313514Y-9314436D01*
X8313514Y-9314436D02*
X8323037Y-9295388D01*
X8494466Y-9276340D02*
X8494466Y-9409674D01*
X8446847Y-9200150D02*
X8399228Y-9343007D01*
X8399228Y-9343007D02*
X8523038Y-9343007D01*
X8589704Y-9209674D02*
X8589704Y-9247769D01*
X8665895Y-9209674D02*
X8665895Y-9247769D01*
X8961133Y-9485864D02*
X8951609Y-9476340D01*
X8951609Y-9476340D02*
X8932561Y-9447769D01*
X8932561Y-9447769D02*
X8923038Y-9428721D01*
X8923038Y-9428721D02*
X8913514Y-9400150D01*
X8913514Y-9400150D02*
X8903990Y-9352531D01*
X8903990Y-9352531D02*
X8903990Y-9314436D01*
X8903990Y-9314436D02*
X8913514Y-9266817D01*
X8913514Y-9266817D02*
X8923038Y-9238245D01*
X8923038Y-9238245D02*
X8932561Y-9219198D01*
X8932561Y-9219198D02*
X8951609Y-9190626D01*
X8951609Y-9190626D02*
X8961133Y-9181102D01*
X9123038Y-9276340D02*
X9123038Y-9409674D01*
X9075419Y-9200150D02*
X9027800Y-9343007D01*
X9027800Y-9343007D02*
X9151609Y-9343007D01*
X9265895Y-9209674D02*
X9284942Y-9209674D01*
X9284942Y-9209674D02*
X9303990Y-9219198D01*
X9303990Y-9219198D02*
X9313514Y-9228721D01*
X9313514Y-9228721D02*
X9323038Y-9247769D01*
X9323038Y-9247769D02*
X9332561Y-9285864D01*
X9332561Y-9285864D02*
X9332561Y-9333483D01*
X9332561Y-9333483D02*
X9323038Y-9371579D01*
X9323038Y-9371579D02*
X9313514Y-9390626D01*
X9313514Y-9390626D02*
X9303990Y-9400150D01*
X9303990Y-9400150D02*
X9284942Y-9409674D01*
X9284942Y-9409674D02*
X9265895Y-9409674D01*
X9265895Y-9409674D02*
X9246847Y-9400150D01*
X9246847Y-9400150D02*
X9237323Y-9390626D01*
X9237323Y-9390626D02*
X9227800Y-9371579D01*
X9227800Y-9371579D02*
X9218276Y-9333483D01*
X9218276Y-9333483D02*
X9218276Y-9285864D01*
X9218276Y-9285864D02*
X9227800Y-9247769D01*
X9227800Y-9247769D02*
X9237323Y-9228721D01*
X9237323Y-9228721D02*
X9246847Y-9219198D01*
X9246847Y-9219198D02*
X9265895Y-9209674D01*
X9570657Y-9409674D02*
X9570657Y-9209674D01*
X9656371Y-9409674D02*
X9656371Y-9304912D01*
X9656371Y-9304912D02*
X9646847Y-9285864D01*
X9646847Y-9285864D02*
X9627800Y-9276340D01*
X9627800Y-9276340D02*
X9599228Y-9276340D01*
X9599228Y-9276340D02*
X9580181Y-9285864D01*
X9580181Y-9285864D02*
X9570657Y-9295388D01*
X9780181Y-9409674D02*
X9761133Y-9400150D01*
X9761133Y-9400150D02*
X9751609Y-9390626D01*
X9751609Y-9390626D02*
X9742085Y-9371579D01*
X9742085Y-9371579D02*
X9742085Y-9314436D01*
X9742085Y-9314436D02*
X9751609Y-9295388D01*
X9751609Y-9295388D02*
X9761133Y-9285864D01*
X9761133Y-9285864D02*
X9780181Y-9276340D01*
X9780181Y-9276340D02*
X9808752Y-9276340D01*
X9808752Y-9276340D02*
X9827800Y-9285864D01*
X9827800Y-9285864D02*
X9837323Y-9295388D01*
X9837323Y-9295388D02*
X9846847Y-9314436D01*
X9846847Y-9314436D02*
X9846847Y-9371579D01*
X9846847Y-9371579D02*
X9837323Y-9390626D01*
X9837323Y-9390626D02*
X9827800Y-9400150D01*
X9827800Y-9400150D02*
X9808752Y-9409674D01*
X9808752Y-9409674D02*
X9780181Y-9409674D01*
X9961133Y-9409674D02*
X9942085Y-9400150D01*
X9942085Y-9400150D02*
X9932562Y-9381102D01*
X9932562Y-9381102D02*
X9932562Y-9209674D01*
X10113514Y-9400150D02*
X10094466Y-9409674D01*
X10094466Y-9409674D02*
X10056371Y-9409674D01*
X10056371Y-9409674D02*
X10037323Y-9400150D01*
X10037323Y-9400150D02*
X10027800Y-9381102D01*
X10027800Y-9381102D02*
X10027800Y-9304912D01*
X10027800Y-9304912D02*
X10037323Y-9285864D01*
X10037323Y-9285864D02*
X10056371Y-9276340D01*
X10056371Y-9276340D02*
X10094466Y-9276340D01*
X10094466Y-9276340D02*
X10113514Y-9285864D01*
X10113514Y-9285864D02*
X10123038Y-9304912D01*
X10123038Y-9304912D02*
X10123038Y-9323960D01*
X10123038Y-9323960D02*
X10027800Y-9343007D01*
X10199228Y-9400150D02*
X10218276Y-9409674D01*
X10218276Y-9409674D02*
X10256371Y-9409674D01*
X10256371Y-9409674D02*
X10275419Y-9400150D01*
X10275419Y-9400150D02*
X10284943Y-9381102D01*
X10284943Y-9381102D02*
X10284943Y-9371579D01*
X10284943Y-9371579D02*
X10275419Y-9352531D01*
X10275419Y-9352531D02*
X10256371Y-9343007D01*
X10256371Y-9343007D02*
X10227800Y-9343007D01*
X10227800Y-9343007D02*
X10208752Y-9333483D01*
X10208752Y-9333483D02*
X10199228Y-9314436D01*
X10199228Y-9314436D02*
X10199228Y-9304912D01*
X10199228Y-9304912D02*
X10208752Y-9285864D01*
X10208752Y-9285864D02*
X10227800Y-9276340D01*
X10227800Y-9276340D02*
X10256371Y-9276340D01*
X10256371Y-9276340D02*
X10275419Y-9285864D01*
X10351609Y-9485864D02*
X10361133Y-9476340D01*
X10361133Y-9476340D02*
X10380181Y-9447769D01*
X10380181Y-9447769D02*
X10389704Y-9428721D01*
X10389704Y-9428721D02*
X10399228Y-9400150D01*
X10399228Y-9400150D02*
X10408752Y-9352531D01*
X10408752Y-9352531D02*
X10408752Y-9314436D01*
X10408752Y-9314436D02*
X10399228Y-9266817D01*
X10399228Y-9266817D02*
X10389704Y-9238245D01*
X10389704Y-9238245D02*
X10380181Y-9219198D01*
X10380181Y-9219198D02*
X10361133Y-9190626D01*
X10361133Y-9190626D02*
X10351609Y-9181102D01*
D13*
X5369229Y-9622849D02*
X5369229Y-9541531D01*
X5287911Y-9541531D01*
X5287911Y-9622849D01*
X5369229Y-9622849D01*
D11*
X5751609Y-9673674D02*
X5637323Y-9673674D01*
X5694466Y-9673674D02*
X5694466Y-9473674D01*
X5694466Y-9473674D02*
X5675418Y-9502245D01*
X5675418Y-9502245D02*
X5656371Y-9521293D01*
X5656371Y-9521293D02*
X5637323Y-9530817D01*
X5837323Y-9654626D02*
X5846847Y-9664150D01*
X5846847Y-9664150D02*
X5837323Y-9673674D01*
X5837323Y-9673674D02*
X5827799Y-9664150D01*
X5827799Y-9664150D02*
X5837323Y-9654626D01*
X5837323Y-9654626D02*
X5837323Y-9673674D01*
X6037323Y-9673674D02*
X5923037Y-9673674D01*
X5980180Y-9673674D02*
X5980180Y-9473674D01*
X5980180Y-9473674D02*
X5961132Y-9502245D01*
X5961132Y-9502245D02*
X5942085Y-9521293D01*
X5942085Y-9521293D02*
X5923037Y-9530817D01*
X6218275Y-9473674D02*
X6123037Y-9473674D01*
X6123037Y-9473674D02*
X6113513Y-9568912D01*
X6113513Y-9568912D02*
X6123037Y-9559388D01*
X6123037Y-9559388D02*
X6142085Y-9549864D01*
X6142085Y-9549864D02*
X6189704Y-9549864D01*
X6189704Y-9549864D02*
X6208752Y-9559388D01*
X6208752Y-9559388D02*
X6218275Y-9568912D01*
X6218275Y-9568912D02*
X6227799Y-9587960D01*
X6227799Y-9587960D02*
X6227799Y-9635579D01*
X6227799Y-9635579D02*
X6218275Y-9654626D01*
X6218275Y-9654626D02*
X6208752Y-9664150D01*
X6208752Y-9664150D02*
X6189704Y-9673674D01*
X6189704Y-9673674D02*
X6142085Y-9673674D01*
X6142085Y-9673674D02*
X6123037Y-9664150D01*
X6123037Y-9664150D02*
X6113513Y-9654626D01*
X6351609Y-9473674D02*
X6370656Y-9473674D01*
X6370656Y-9473674D02*
X6389704Y-9483198D01*
X6389704Y-9483198D02*
X6399228Y-9492721D01*
X6399228Y-9492721D02*
X6408752Y-9511769D01*
X6408752Y-9511769D02*
X6418275Y-9549864D01*
X6418275Y-9549864D02*
X6418275Y-9597483D01*
X6418275Y-9597483D02*
X6408752Y-9635579D01*
X6408752Y-9635579D02*
X6399228Y-9654626D01*
X6399228Y-9654626D02*
X6389704Y-9664150D01*
X6389704Y-9664150D02*
X6370656Y-9673674D01*
X6370656Y-9673674D02*
X6351609Y-9673674D01*
X6351609Y-9673674D02*
X6332561Y-9664150D01*
X6332561Y-9664150D02*
X6323037Y-9654626D01*
X6323037Y-9654626D02*
X6313513Y-9635579D01*
X6313513Y-9635579D02*
X6303990Y-9597483D01*
X6303990Y-9597483D02*
X6303990Y-9549864D01*
X6303990Y-9549864D02*
X6313513Y-9511769D01*
X6313513Y-9511769D02*
X6323037Y-9492721D01*
X6323037Y-9492721D02*
X6332561Y-9483198D01*
X6332561Y-9483198D02*
X6351609Y-9473674D01*
X6503990Y-9673674D02*
X6503990Y-9540340D01*
X6503990Y-9559388D02*
X6513513Y-9549864D01*
X6513513Y-9549864D02*
X6532561Y-9540340D01*
X6532561Y-9540340D02*
X6561133Y-9540340D01*
X6561133Y-9540340D02*
X6580180Y-9549864D01*
X6580180Y-9549864D02*
X6589704Y-9568912D01*
X6589704Y-9568912D02*
X6589704Y-9673674D01*
X6589704Y-9568912D02*
X6599228Y-9549864D01*
X6599228Y-9549864D02*
X6618275Y-9540340D01*
X6618275Y-9540340D02*
X6646847Y-9540340D01*
X6646847Y-9540340D02*
X6665894Y-9549864D01*
X6665894Y-9549864D02*
X6675418Y-9568912D01*
X6675418Y-9568912D02*
X6675418Y-9673674D01*
X6770656Y-9673674D02*
X6770656Y-9540340D01*
X6770656Y-9559388D02*
X6780180Y-9549864D01*
X6780180Y-9549864D02*
X6799228Y-9540340D01*
X6799228Y-9540340D02*
X6827799Y-9540340D01*
X6827799Y-9540340D02*
X6846847Y-9549864D01*
X6846847Y-9549864D02*
X6856371Y-9568912D01*
X6856371Y-9568912D02*
X6856371Y-9673674D01*
X6856371Y-9568912D02*
X6865894Y-9549864D01*
X6865894Y-9549864D02*
X6884942Y-9540340D01*
X6884942Y-9540340D02*
X6913513Y-9540340D01*
X6913513Y-9540340D02*
X6932561Y-9549864D01*
X6932561Y-9549864D02*
X6942085Y-9568912D01*
X6942085Y-9568912D02*
X6942085Y-9673674D01*
X7332561Y-9464150D02*
X7161133Y-9721293D01*
X7589704Y-9473674D02*
X7608752Y-9473674D01*
X7608752Y-9473674D02*
X7627799Y-9483198D01*
X7627799Y-9483198D02*
X7637323Y-9492721D01*
X7637323Y-9492721D02*
X7646847Y-9511769D01*
X7646847Y-9511769D02*
X7656371Y-9549864D01*
X7656371Y-9549864D02*
X7656371Y-9597483D01*
X7656371Y-9597483D02*
X7646847Y-9635579D01*
X7646847Y-9635579D02*
X7637323Y-9654626D01*
X7637323Y-9654626D02*
X7627799Y-9664150D01*
X7627799Y-9664150D02*
X7608752Y-9673674D01*
X7608752Y-9673674D02*
X7589704Y-9673674D01*
X7589704Y-9673674D02*
X7570656Y-9664150D01*
X7570656Y-9664150D02*
X7561133Y-9654626D01*
X7561133Y-9654626D02*
X7551609Y-9635579D01*
X7551609Y-9635579D02*
X7542085Y-9597483D01*
X7542085Y-9597483D02*
X7542085Y-9549864D01*
X7542085Y-9549864D02*
X7551609Y-9511769D01*
X7551609Y-9511769D02*
X7561133Y-9492721D01*
X7561133Y-9492721D02*
X7570656Y-9483198D01*
X7570656Y-9483198D02*
X7589704Y-9473674D01*
X7742085Y-9654626D02*
X7751609Y-9664150D01*
X7751609Y-9664150D02*
X7742085Y-9673674D01*
X7742085Y-9673674D02*
X7732561Y-9664150D01*
X7732561Y-9664150D02*
X7742085Y-9654626D01*
X7742085Y-9654626D02*
X7742085Y-9673674D01*
X7875418Y-9473674D02*
X7894466Y-9473674D01*
X7894466Y-9473674D02*
X7913514Y-9483198D01*
X7913514Y-9483198D02*
X7923037Y-9492721D01*
X7923037Y-9492721D02*
X7932561Y-9511769D01*
X7932561Y-9511769D02*
X7942085Y-9549864D01*
X7942085Y-9549864D02*
X7942085Y-9597483D01*
X7942085Y-9597483D02*
X7932561Y-9635579D01*
X7932561Y-9635579D02*
X7923037Y-9654626D01*
X7923037Y-9654626D02*
X7913514Y-9664150D01*
X7913514Y-9664150D02*
X7894466Y-9673674D01*
X7894466Y-9673674D02*
X7875418Y-9673674D01*
X7875418Y-9673674D02*
X7856371Y-9664150D01*
X7856371Y-9664150D02*
X7846847Y-9654626D01*
X7846847Y-9654626D02*
X7837323Y-9635579D01*
X7837323Y-9635579D02*
X7827799Y-9597483D01*
X7827799Y-9597483D02*
X7827799Y-9549864D01*
X7827799Y-9549864D02*
X7837323Y-9511769D01*
X7837323Y-9511769D02*
X7846847Y-9492721D01*
X7846847Y-9492721D02*
X7856371Y-9483198D01*
X7856371Y-9483198D02*
X7875418Y-9473674D01*
X8113514Y-9540340D02*
X8113514Y-9673674D01*
X8065895Y-9464150D02*
X8018276Y-9607007D01*
X8018276Y-9607007D02*
X8142085Y-9607007D01*
X8313514Y-9473674D02*
X8218276Y-9473674D01*
X8218276Y-9473674D02*
X8208752Y-9568912D01*
X8208752Y-9568912D02*
X8218276Y-9559388D01*
X8218276Y-9559388D02*
X8237323Y-9549864D01*
X8237323Y-9549864D02*
X8284942Y-9549864D01*
X8284942Y-9549864D02*
X8303990Y-9559388D01*
X8303990Y-9559388D02*
X8313514Y-9568912D01*
X8313514Y-9568912D02*
X8323037Y-9587960D01*
X8323037Y-9587960D02*
X8323037Y-9635579D01*
X8323037Y-9635579D02*
X8313514Y-9654626D01*
X8313514Y-9654626D02*
X8303990Y-9664150D01*
X8303990Y-9664150D02*
X8284942Y-9673674D01*
X8284942Y-9673674D02*
X8237323Y-9673674D01*
X8237323Y-9673674D02*
X8218276Y-9664150D01*
X8218276Y-9664150D02*
X8208752Y-9654626D01*
X8389704Y-9473674D02*
X8513514Y-9473674D01*
X8513514Y-9473674D02*
X8446847Y-9549864D01*
X8446847Y-9549864D02*
X8475419Y-9549864D01*
X8475419Y-9549864D02*
X8494466Y-9559388D01*
X8494466Y-9559388D02*
X8503990Y-9568912D01*
X8503990Y-9568912D02*
X8513514Y-9587960D01*
X8513514Y-9587960D02*
X8513514Y-9635579D01*
X8513514Y-9635579D02*
X8503990Y-9654626D01*
X8503990Y-9654626D02*
X8494466Y-9664150D01*
X8494466Y-9664150D02*
X8475419Y-9673674D01*
X8475419Y-9673674D02*
X8418276Y-9673674D01*
X8418276Y-9673674D02*
X8399228Y-9664150D01*
X8399228Y-9664150D02*
X8389704Y-9654626D01*
X8589704Y-9473674D02*
X8589704Y-9511769D01*
X8665895Y-9473674D02*
X8665895Y-9511769D01*
X8961133Y-9749864D02*
X8951609Y-9740340D01*
X8951609Y-9740340D02*
X8932561Y-9711769D01*
X8932561Y-9711769D02*
X8923038Y-9692721D01*
X8923038Y-9692721D02*
X8913514Y-9664150D01*
X8913514Y-9664150D02*
X8903990Y-9616531D01*
X8903990Y-9616531D02*
X8903990Y-9578436D01*
X8903990Y-9578436D02*
X8913514Y-9530817D01*
X8913514Y-9530817D02*
X8923038Y-9502245D01*
X8923038Y-9502245D02*
X8932561Y-9483198D01*
X8932561Y-9483198D02*
X8951609Y-9454626D01*
X8951609Y-9454626D02*
X8961133Y-9445102D01*
X9018276Y-9473674D02*
X9142085Y-9473674D01*
X9142085Y-9473674D02*
X9075419Y-9549864D01*
X9075419Y-9549864D02*
X9103990Y-9549864D01*
X9103990Y-9549864D02*
X9123038Y-9559388D01*
X9123038Y-9559388D02*
X9132561Y-9568912D01*
X9132561Y-9568912D02*
X9142085Y-9587960D01*
X9142085Y-9587960D02*
X9142085Y-9635579D01*
X9142085Y-9635579D02*
X9132561Y-9654626D01*
X9132561Y-9654626D02*
X9123038Y-9664150D01*
X9123038Y-9664150D02*
X9103990Y-9673674D01*
X9103990Y-9673674D02*
X9046847Y-9673674D01*
X9046847Y-9673674D02*
X9027800Y-9664150D01*
X9027800Y-9664150D02*
X9018276Y-9654626D01*
X9265895Y-9473674D02*
X9284942Y-9473674D01*
X9284942Y-9473674D02*
X9303990Y-9483198D01*
X9303990Y-9483198D02*
X9313514Y-9492721D01*
X9313514Y-9492721D02*
X9323038Y-9511769D01*
X9323038Y-9511769D02*
X9332561Y-9549864D01*
X9332561Y-9549864D02*
X9332561Y-9597483D01*
X9332561Y-9597483D02*
X9323038Y-9635579D01*
X9323038Y-9635579D02*
X9313514Y-9654626D01*
X9313514Y-9654626D02*
X9303990Y-9664150D01*
X9303990Y-9664150D02*
X9284942Y-9673674D01*
X9284942Y-9673674D02*
X9265895Y-9673674D01*
X9265895Y-9673674D02*
X9246847Y-9664150D01*
X9246847Y-9664150D02*
X9237323Y-9654626D01*
X9237323Y-9654626D02*
X9227800Y-9635579D01*
X9227800Y-9635579D02*
X9218276Y-9597483D01*
X9218276Y-9597483D02*
X9218276Y-9549864D01*
X9218276Y-9549864D02*
X9227800Y-9511769D01*
X9227800Y-9511769D02*
X9237323Y-9492721D01*
X9237323Y-9492721D02*
X9246847Y-9483198D01*
X9246847Y-9483198D02*
X9265895Y-9473674D01*
X9570657Y-9673674D02*
X9570657Y-9473674D01*
X9656371Y-9673674D02*
X9656371Y-9568912D01*
X9656371Y-9568912D02*
X9646847Y-9549864D01*
X9646847Y-9549864D02*
X9627800Y-9540340D01*
X9627800Y-9540340D02*
X9599228Y-9540340D01*
X9599228Y-9540340D02*
X9580181Y-9549864D01*
X9580181Y-9549864D02*
X9570657Y-9559388D01*
X9780181Y-9673674D02*
X9761133Y-9664150D01*
X9761133Y-9664150D02*
X9751609Y-9654626D01*
X9751609Y-9654626D02*
X9742085Y-9635579D01*
X9742085Y-9635579D02*
X9742085Y-9578436D01*
X9742085Y-9578436D02*
X9751609Y-9559388D01*
X9751609Y-9559388D02*
X9761133Y-9549864D01*
X9761133Y-9549864D02*
X9780181Y-9540340D01*
X9780181Y-9540340D02*
X9808752Y-9540340D01*
X9808752Y-9540340D02*
X9827800Y-9549864D01*
X9827800Y-9549864D02*
X9837323Y-9559388D01*
X9837323Y-9559388D02*
X9846847Y-9578436D01*
X9846847Y-9578436D02*
X9846847Y-9635579D01*
X9846847Y-9635579D02*
X9837323Y-9654626D01*
X9837323Y-9654626D02*
X9827800Y-9664150D01*
X9827800Y-9664150D02*
X9808752Y-9673674D01*
X9808752Y-9673674D02*
X9780181Y-9673674D01*
X9961133Y-9673674D02*
X9942085Y-9664150D01*
X9942085Y-9664150D02*
X9932562Y-9645102D01*
X9932562Y-9645102D02*
X9932562Y-9473674D01*
X10113514Y-9664150D02*
X10094466Y-9673674D01*
X10094466Y-9673674D02*
X10056371Y-9673674D01*
X10056371Y-9673674D02*
X10037323Y-9664150D01*
X10037323Y-9664150D02*
X10027800Y-9645102D01*
X10027800Y-9645102D02*
X10027800Y-9568912D01*
X10027800Y-9568912D02*
X10037323Y-9549864D01*
X10037323Y-9549864D02*
X10056371Y-9540340D01*
X10056371Y-9540340D02*
X10094466Y-9540340D01*
X10094466Y-9540340D02*
X10113514Y-9549864D01*
X10113514Y-9549864D02*
X10123038Y-9568912D01*
X10123038Y-9568912D02*
X10123038Y-9587960D01*
X10123038Y-9587960D02*
X10027800Y-9607007D01*
X10199228Y-9664150D02*
X10218276Y-9673674D01*
X10218276Y-9673674D02*
X10256371Y-9673674D01*
X10256371Y-9673674D02*
X10275419Y-9664150D01*
X10275419Y-9664150D02*
X10284943Y-9645102D01*
X10284943Y-9645102D02*
X10284943Y-9635579D01*
X10284943Y-9635579D02*
X10275419Y-9616531D01*
X10275419Y-9616531D02*
X10256371Y-9607007D01*
X10256371Y-9607007D02*
X10227800Y-9607007D01*
X10227800Y-9607007D02*
X10208752Y-9597483D01*
X10208752Y-9597483D02*
X10199228Y-9578436D01*
X10199228Y-9578436D02*
X10199228Y-9568912D01*
X10199228Y-9568912D02*
X10208752Y-9549864D01*
X10208752Y-9549864D02*
X10227800Y-9540340D01*
X10227800Y-9540340D02*
X10256371Y-9540340D01*
X10256371Y-9540340D02*
X10275419Y-9549864D01*
X10351609Y-9749864D02*
X10361133Y-9740340D01*
X10361133Y-9740340D02*
X10380181Y-9711769D01*
X10380181Y-9711769D02*
X10389704Y-9692721D01*
X10389704Y-9692721D02*
X10399228Y-9664150D01*
X10399228Y-9664150D02*
X10408752Y-9616531D01*
X10408752Y-9616531D02*
X10408752Y-9578436D01*
X10408752Y-9578436D02*
X10399228Y-9530817D01*
X10399228Y-9530817D02*
X10389704Y-9502245D01*
X10389704Y-9502245D02*
X10380181Y-9483198D01*
X10380181Y-9483198D02*
X10361133Y-9454626D01*
X10361133Y-9454626D02*
X10351609Y-9445102D01*
X5286070Y-9946190D02*
X5386070Y-9846190D01*
X5286070Y-9746190D01*
X5186070Y-9846190D01*
X5286070Y-9946190D01*
X5627799Y-9737674D02*
X5751609Y-9737674D01*
X5751609Y-9737674D02*
X5684942Y-9813864D01*
X5684942Y-9813864D02*
X5713513Y-9813864D01*
X5713513Y-9813864D02*
X5732561Y-9823388D01*
X5732561Y-9823388D02*
X5742085Y-9832912D01*
X5742085Y-9832912D02*
X5751609Y-9851960D01*
X5751609Y-9851960D02*
X5751609Y-9899579D01*
X5751609Y-9899579D02*
X5742085Y-9918626D01*
X5742085Y-9918626D02*
X5732561Y-9928150D01*
X5732561Y-9928150D02*
X5713513Y-9937674D01*
X5713513Y-9937674D02*
X5656371Y-9937674D01*
X5656371Y-9937674D02*
X5637323Y-9928150D01*
X5637323Y-9928150D02*
X5627799Y-9918626D01*
X5837323Y-9918626D02*
X5846847Y-9928150D01*
X5846847Y-9928150D02*
X5837323Y-9937674D01*
X5837323Y-9937674D02*
X5827799Y-9928150D01*
X5827799Y-9928150D02*
X5837323Y-9918626D01*
X5837323Y-9918626D02*
X5837323Y-9937674D01*
X5923037Y-9756721D02*
X5932561Y-9747198D01*
X5932561Y-9747198D02*
X5951609Y-9737674D01*
X5951609Y-9737674D02*
X5999228Y-9737674D01*
X5999228Y-9737674D02*
X6018275Y-9747198D01*
X6018275Y-9747198D02*
X6027799Y-9756721D01*
X6027799Y-9756721D02*
X6037323Y-9775769D01*
X6037323Y-9775769D02*
X6037323Y-9794817D01*
X6037323Y-9794817D02*
X6027799Y-9823388D01*
X6027799Y-9823388D02*
X5913513Y-9937674D01*
X5913513Y-9937674D02*
X6037323Y-9937674D01*
X6218275Y-9737674D02*
X6123037Y-9737674D01*
X6123037Y-9737674D02*
X6113513Y-9832912D01*
X6113513Y-9832912D02*
X6123037Y-9823388D01*
X6123037Y-9823388D02*
X6142085Y-9813864D01*
X6142085Y-9813864D02*
X6189704Y-9813864D01*
X6189704Y-9813864D02*
X6208752Y-9823388D01*
X6208752Y-9823388D02*
X6218275Y-9832912D01*
X6218275Y-9832912D02*
X6227799Y-9851960D01*
X6227799Y-9851960D02*
X6227799Y-9899579D01*
X6227799Y-9899579D02*
X6218275Y-9918626D01*
X6218275Y-9918626D02*
X6208752Y-9928150D01*
X6208752Y-9928150D02*
X6189704Y-9937674D01*
X6189704Y-9937674D02*
X6142085Y-9937674D01*
X6142085Y-9937674D02*
X6123037Y-9928150D01*
X6123037Y-9928150D02*
X6113513Y-9918626D01*
X6351609Y-9737674D02*
X6370656Y-9737674D01*
X6370656Y-9737674D02*
X6389704Y-9747198D01*
X6389704Y-9747198D02*
X6399228Y-9756721D01*
X6399228Y-9756721D02*
X6408752Y-9775769D01*
X6408752Y-9775769D02*
X6418275Y-9813864D01*
X6418275Y-9813864D02*
X6418275Y-9861483D01*
X6418275Y-9861483D02*
X6408752Y-9899579D01*
X6408752Y-9899579D02*
X6399228Y-9918626D01*
X6399228Y-9918626D02*
X6389704Y-9928150D01*
X6389704Y-9928150D02*
X6370656Y-9937674D01*
X6370656Y-9937674D02*
X6351609Y-9937674D01*
X6351609Y-9937674D02*
X6332561Y-9928150D01*
X6332561Y-9928150D02*
X6323037Y-9918626D01*
X6323037Y-9918626D02*
X6313513Y-9899579D01*
X6313513Y-9899579D02*
X6303990Y-9861483D01*
X6303990Y-9861483D02*
X6303990Y-9813864D01*
X6303990Y-9813864D02*
X6313513Y-9775769D01*
X6313513Y-9775769D02*
X6323037Y-9756721D01*
X6323037Y-9756721D02*
X6332561Y-9747198D01*
X6332561Y-9747198D02*
X6351609Y-9737674D01*
X6503990Y-9937674D02*
X6503990Y-9804340D01*
X6503990Y-9823388D02*
X6513513Y-9813864D01*
X6513513Y-9813864D02*
X6532561Y-9804340D01*
X6532561Y-9804340D02*
X6561133Y-9804340D01*
X6561133Y-9804340D02*
X6580180Y-9813864D01*
X6580180Y-9813864D02*
X6589704Y-9832912D01*
X6589704Y-9832912D02*
X6589704Y-9937674D01*
X6589704Y-9832912D02*
X6599228Y-9813864D01*
X6599228Y-9813864D02*
X6618275Y-9804340D01*
X6618275Y-9804340D02*
X6646847Y-9804340D01*
X6646847Y-9804340D02*
X6665894Y-9813864D01*
X6665894Y-9813864D02*
X6675418Y-9832912D01*
X6675418Y-9832912D02*
X6675418Y-9937674D01*
X6770656Y-9937674D02*
X6770656Y-9804340D01*
X6770656Y-9823388D02*
X6780180Y-9813864D01*
X6780180Y-9813864D02*
X6799228Y-9804340D01*
X6799228Y-9804340D02*
X6827799Y-9804340D01*
X6827799Y-9804340D02*
X6846847Y-9813864D01*
X6846847Y-9813864D02*
X6856371Y-9832912D01*
X6856371Y-9832912D02*
X6856371Y-9937674D01*
X6856371Y-9832912D02*
X6865894Y-9813864D01*
X6865894Y-9813864D02*
X6884942Y-9804340D01*
X6884942Y-9804340D02*
X6913513Y-9804340D01*
X6913513Y-9804340D02*
X6932561Y-9813864D01*
X6932561Y-9813864D02*
X6942085Y-9832912D01*
X6942085Y-9832912D02*
X6942085Y-9937674D01*
X7332561Y-9728150D02*
X7161133Y-9985293D01*
X7589704Y-9737674D02*
X7608752Y-9737674D01*
X7608752Y-9737674D02*
X7627799Y-9747198D01*
X7627799Y-9747198D02*
X7637323Y-9756721D01*
X7637323Y-9756721D02*
X7646847Y-9775769D01*
X7646847Y-9775769D02*
X7656371Y-9813864D01*
X7656371Y-9813864D02*
X7656371Y-9861483D01*
X7656371Y-9861483D02*
X7646847Y-9899579D01*
X7646847Y-9899579D02*
X7637323Y-9918626D01*
X7637323Y-9918626D02*
X7627799Y-9928150D01*
X7627799Y-9928150D02*
X7608752Y-9937674D01*
X7608752Y-9937674D02*
X7589704Y-9937674D01*
X7589704Y-9937674D02*
X7570656Y-9928150D01*
X7570656Y-9928150D02*
X7561133Y-9918626D01*
X7561133Y-9918626D02*
X7551609Y-9899579D01*
X7551609Y-9899579D02*
X7542085Y-9861483D01*
X7542085Y-9861483D02*
X7542085Y-9813864D01*
X7542085Y-9813864D02*
X7551609Y-9775769D01*
X7551609Y-9775769D02*
X7561133Y-9756721D01*
X7561133Y-9756721D02*
X7570656Y-9747198D01*
X7570656Y-9747198D02*
X7589704Y-9737674D01*
X7742085Y-9918626D02*
X7751609Y-9928150D01*
X7751609Y-9928150D02*
X7742085Y-9937674D01*
X7742085Y-9937674D02*
X7732561Y-9928150D01*
X7732561Y-9928150D02*
X7742085Y-9918626D01*
X7742085Y-9918626D02*
X7742085Y-9937674D01*
X7942085Y-9937674D02*
X7827799Y-9937674D01*
X7884942Y-9937674D02*
X7884942Y-9737674D01*
X7884942Y-9737674D02*
X7865895Y-9766245D01*
X7865895Y-9766245D02*
X7846847Y-9785293D01*
X7846847Y-9785293D02*
X7827799Y-9794817D01*
X8018276Y-9756721D02*
X8027799Y-9747198D01*
X8027799Y-9747198D02*
X8046847Y-9737674D01*
X8046847Y-9737674D02*
X8094466Y-9737674D01*
X8094466Y-9737674D02*
X8113514Y-9747198D01*
X8113514Y-9747198D02*
X8123037Y-9756721D01*
X8123037Y-9756721D02*
X8132561Y-9775769D01*
X8132561Y-9775769D02*
X8132561Y-9794817D01*
X8132561Y-9794817D02*
X8123037Y-9823388D01*
X8123037Y-9823388D02*
X8008752Y-9937674D01*
X8008752Y-9937674D02*
X8132561Y-9937674D01*
X8246847Y-9823388D02*
X8227799Y-9813864D01*
X8227799Y-9813864D02*
X8218276Y-9804340D01*
X8218276Y-9804340D02*
X8208752Y-9785293D01*
X8208752Y-9785293D02*
X8208752Y-9775769D01*
X8208752Y-9775769D02*
X8218276Y-9756721D01*
X8218276Y-9756721D02*
X8227799Y-9747198D01*
X8227799Y-9747198D02*
X8246847Y-9737674D01*
X8246847Y-9737674D02*
X8284942Y-9737674D01*
X8284942Y-9737674D02*
X8303990Y-9747198D01*
X8303990Y-9747198D02*
X8313514Y-9756721D01*
X8313514Y-9756721D02*
X8323037Y-9775769D01*
X8323037Y-9775769D02*
X8323037Y-9785293D01*
X8323037Y-9785293D02*
X8313514Y-9804340D01*
X8313514Y-9804340D02*
X8303990Y-9813864D01*
X8303990Y-9813864D02*
X8284942Y-9823388D01*
X8284942Y-9823388D02*
X8246847Y-9823388D01*
X8246847Y-9823388D02*
X8227799Y-9832912D01*
X8227799Y-9832912D02*
X8218276Y-9842436D01*
X8218276Y-9842436D02*
X8208752Y-9861483D01*
X8208752Y-9861483D02*
X8208752Y-9899579D01*
X8208752Y-9899579D02*
X8218276Y-9918626D01*
X8218276Y-9918626D02*
X8227799Y-9928150D01*
X8227799Y-9928150D02*
X8246847Y-9937674D01*
X8246847Y-9937674D02*
X8284942Y-9937674D01*
X8284942Y-9937674D02*
X8303990Y-9928150D01*
X8303990Y-9928150D02*
X8313514Y-9918626D01*
X8313514Y-9918626D02*
X8323037Y-9899579D01*
X8323037Y-9899579D02*
X8323037Y-9861483D01*
X8323037Y-9861483D02*
X8313514Y-9842436D01*
X8313514Y-9842436D02*
X8303990Y-9832912D01*
X8303990Y-9832912D02*
X8284942Y-9823388D01*
X8446847Y-9737674D02*
X8465895Y-9737674D01*
X8465895Y-9737674D02*
X8484942Y-9747198D01*
X8484942Y-9747198D02*
X8494466Y-9756721D01*
X8494466Y-9756721D02*
X8503990Y-9775769D01*
X8503990Y-9775769D02*
X8513514Y-9813864D01*
X8513514Y-9813864D02*
X8513514Y-9861483D01*
X8513514Y-9861483D02*
X8503990Y-9899579D01*
X8503990Y-9899579D02*
X8494466Y-9918626D01*
X8494466Y-9918626D02*
X8484942Y-9928150D01*
X8484942Y-9928150D02*
X8465895Y-9937674D01*
X8465895Y-9937674D02*
X8446847Y-9937674D01*
X8446847Y-9937674D02*
X8427799Y-9928150D01*
X8427799Y-9928150D02*
X8418276Y-9918626D01*
X8418276Y-9918626D02*
X8408752Y-9899579D01*
X8408752Y-9899579D02*
X8399228Y-9861483D01*
X8399228Y-9861483D02*
X8399228Y-9813864D01*
X8399228Y-9813864D02*
X8408752Y-9775769D01*
X8408752Y-9775769D02*
X8418276Y-9756721D01*
X8418276Y-9756721D02*
X8427799Y-9747198D01*
X8427799Y-9747198D02*
X8446847Y-9737674D01*
X8589704Y-9737674D02*
X8589704Y-9775769D01*
X8665895Y-9737674D02*
X8665895Y-9775769D01*
X8961133Y-10013864D02*
X8951609Y-10004340D01*
X8951609Y-10004340D02*
X8932561Y-9975769D01*
X8932561Y-9975769D02*
X8923038Y-9956721D01*
X8923038Y-9956721D02*
X8913514Y-9928150D01*
X8913514Y-9928150D02*
X8903990Y-9880531D01*
X8903990Y-9880531D02*
X8903990Y-9842436D01*
X8903990Y-9842436D02*
X8913514Y-9794817D01*
X8913514Y-9794817D02*
X8923038Y-9766245D01*
X8923038Y-9766245D02*
X8932561Y-9747198D01*
X8932561Y-9747198D02*
X8951609Y-9718626D01*
X8951609Y-9718626D02*
X8961133Y-9709102D01*
X9123038Y-9804340D02*
X9123038Y-9937674D01*
X9075419Y-9728150D02*
X9027800Y-9871007D01*
X9027800Y-9871007D02*
X9151609Y-9871007D01*
X9380181Y-9937674D02*
X9380181Y-9737674D01*
X9465895Y-9937674D02*
X9465895Y-9832912D01*
X9465895Y-9832912D02*
X9456371Y-9813864D01*
X9456371Y-9813864D02*
X9437323Y-9804340D01*
X9437323Y-9804340D02*
X9408752Y-9804340D01*
X9408752Y-9804340D02*
X9389704Y-9813864D01*
X9389704Y-9813864D02*
X9380181Y-9823388D01*
X9589704Y-9937674D02*
X9570657Y-9928150D01*
X9570657Y-9928150D02*
X9561133Y-9918626D01*
X9561133Y-9918626D02*
X9551609Y-9899579D01*
X9551609Y-9899579D02*
X9551609Y-9842436D01*
X9551609Y-9842436D02*
X9561133Y-9823388D01*
X9561133Y-9823388D02*
X9570657Y-9813864D01*
X9570657Y-9813864D02*
X9589704Y-9804340D01*
X9589704Y-9804340D02*
X9618276Y-9804340D01*
X9618276Y-9804340D02*
X9637323Y-9813864D01*
X9637323Y-9813864D02*
X9646847Y-9823388D01*
X9646847Y-9823388D02*
X9656371Y-9842436D01*
X9656371Y-9842436D02*
X9656371Y-9899579D01*
X9656371Y-9899579D02*
X9646847Y-9918626D01*
X9646847Y-9918626D02*
X9637323Y-9928150D01*
X9637323Y-9928150D02*
X9618276Y-9937674D01*
X9618276Y-9937674D02*
X9589704Y-9937674D01*
X9770657Y-9937674D02*
X9751609Y-9928150D01*
X9751609Y-9928150D02*
X9742085Y-9909102D01*
X9742085Y-9909102D02*
X9742085Y-9737674D01*
X9923038Y-9928150D02*
X9903990Y-9937674D01*
X9903990Y-9937674D02*
X9865895Y-9937674D01*
X9865895Y-9937674D02*
X9846847Y-9928150D01*
X9846847Y-9928150D02*
X9837323Y-9909102D01*
X9837323Y-9909102D02*
X9837323Y-9832912D01*
X9837323Y-9832912D02*
X9846847Y-9813864D01*
X9846847Y-9813864D02*
X9865895Y-9804340D01*
X9865895Y-9804340D02*
X9903990Y-9804340D01*
X9903990Y-9804340D02*
X9923038Y-9813864D01*
X9923038Y-9813864D02*
X9932562Y-9832912D01*
X9932562Y-9832912D02*
X9932562Y-9851960D01*
X9932562Y-9851960D02*
X9837323Y-9871007D01*
X10008752Y-9928150D02*
X10027800Y-9937674D01*
X10027800Y-9937674D02*
X10065895Y-9937674D01*
X10065895Y-9937674D02*
X10084943Y-9928150D01*
X10084943Y-9928150D02*
X10094466Y-9909102D01*
X10094466Y-9909102D02*
X10094466Y-9899579D01*
X10094466Y-9899579D02*
X10084943Y-9880531D01*
X10084943Y-9880531D02*
X10065895Y-9871007D01*
X10065895Y-9871007D02*
X10037323Y-9871007D01*
X10037323Y-9871007D02*
X10018276Y-9861483D01*
X10018276Y-9861483D02*
X10008752Y-9842436D01*
X10008752Y-9842436D02*
X10008752Y-9832912D01*
X10008752Y-9832912D02*
X10018276Y-9813864D01*
X10018276Y-9813864D02*
X10037323Y-9804340D01*
X10037323Y-9804340D02*
X10065895Y-9804340D01*
X10065895Y-9804340D02*
X10084943Y-9813864D01*
X10161133Y-10013864D02*
X10170657Y-10004340D01*
X10170657Y-10004340D02*
X10189704Y-9975769D01*
X10189704Y-9975769D02*
X10199228Y-9956721D01*
X10199228Y-9956721D02*
X10208752Y-9928150D01*
X10208752Y-9928150D02*
X10218276Y-9880531D01*
X10218276Y-9880531D02*
X10218276Y-9842436D01*
X10218276Y-9842436D02*
X10208752Y-9794817D01*
X10208752Y-9794817D02*
X10199228Y-9766245D01*
X10199228Y-9766245D02*
X10189704Y-9747198D01*
X10189704Y-9747198D02*
X10170657Y-9718626D01*
X10170657Y-9718626D02*
X10161133Y-9709102D01*
M02*
