G04 #@! TF.GenerationSoftware,KiCad,Pcbnew,8.0.9-8.0.9-0~ubuntu20.04.1*
G04 #@! TF.CreationDate,2025-04-23T19:07:15+01:00*
G04 #@! TF.ProjectId,ggroohauga-amplifier,6767726f-6f68-4617-9567-612d616d706c,rev?*
G04 #@! TF.SameCoordinates,Original*
G04 #@! TF.FileFunction,Copper,L1,Top*
G04 #@! TF.FilePolarity,Positive*
%FSLAX46Y46*%
G04 Gerber Fmt 4.6, Leading zero omitted, Abs format (unit mm)*
G04 Created by KiCad (PCBNEW 8.0.9-8.0.9-0~ubuntu20.04.1) date 2025-04-23 19:07:15*
%MOMM*%
%LPD*%
G01*
G04 APERTURE LIST*
G04 Aperture macros list*
%AMRoundRect*
0 Rectangle with rounded corners*
0 $1 Rounding radius*
0 $2 $3 $4 $5 $6 $7 $8 $9 X,Y pos of 4 corners*
0 Add a 4 corners polygon primitive as box body*
4,1,4,$2,$3,$4,$5,$6,$7,$8,$9,$2,$3,0*
0 Add four circle primitives for the rounded corners*
1,1,$1+$1,$2,$3*
1,1,$1+$1,$4,$5*
1,1,$1+$1,$6,$7*
1,1,$1+$1,$8,$9*
0 Add four rect primitives between the rounded corners*
20,1,$1+$1,$2,$3,$4,$5,0*
20,1,$1+$1,$4,$5,$6,$7,0*
20,1,$1+$1,$6,$7,$8,$9,0*
20,1,$1+$1,$8,$9,$2,$3,0*%
G04 Aperture macros list end*
G04 #@! TA.AperFunction,ComponentPad*
%ADD10R,1.700000X1.700000*%
G04 #@! TD*
G04 #@! TA.AperFunction,ComponentPad*
%ADD11O,1.700000X1.700000*%
G04 #@! TD*
G04 #@! TA.AperFunction,SMDPad,CuDef*
%ADD12RoundRect,0.250000X0.350000X0.450000X-0.350000X0.450000X-0.350000X-0.450000X0.350000X-0.450000X0*%
G04 #@! TD*
G04 #@! TA.AperFunction,ComponentPad*
%ADD13C,4.266000*%
G04 #@! TD*
G04 #@! TA.AperFunction,ComponentPad*
%ADD14R,1.725000X1.725000*%
G04 #@! TD*
G04 #@! TA.AperFunction,ComponentPad*
%ADD15C,1.725000*%
G04 #@! TD*
G04 #@! TA.AperFunction,Conductor*
%ADD16C,0.200000*%
G04 #@! TD*
G04 APERTURE END LIST*
D10*
X81534000Y-54610000D03*
D11*
X84074000Y-54610000D03*
X86614000Y-54610000D03*
X89154000Y-54610000D03*
X91694000Y-54610000D03*
X94234000Y-54610000D03*
X96774000Y-54610000D03*
X99314000Y-54610000D03*
X101854000Y-54610000D03*
X104394000Y-54610000D03*
X106934000Y-54610000D03*
X109474000Y-54610000D03*
X112014000Y-54610000D03*
X114554000Y-54610000D03*
X117094000Y-54610000D03*
X119634000Y-54610000D03*
X122174000Y-54610000D03*
X124714000Y-54610000D03*
X127254000Y-54610000D03*
X129794000Y-54610000D03*
D10*
X81534000Y-77470000D03*
D11*
X84074000Y-77470000D03*
X86614000Y-77470000D03*
X89154000Y-77470000D03*
X91694000Y-77470000D03*
X94234000Y-77470000D03*
X96774000Y-77470000D03*
X99314000Y-77470000D03*
X101854000Y-77470000D03*
X104394000Y-77470000D03*
X106934000Y-77470000D03*
X109474000Y-77470000D03*
X112014000Y-77470000D03*
X114554000Y-77470000D03*
X117094000Y-77470000D03*
X119634000Y-77470000D03*
X122174000Y-77470000D03*
X124714000Y-77470000D03*
X127254000Y-77470000D03*
X129794000Y-77470000D03*
D12*
X75660000Y-65024000D03*
X73660000Y-65024000D03*
D13*
X65379600Y-53494200D03*
X65379600Y-78484200D03*
D14*
X67919600Y-70319200D03*
D15*
X67919600Y-68029200D03*
X67919600Y-65739200D03*
X67919600Y-63449200D03*
X67919600Y-61159200D03*
X65379600Y-71464200D03*
X65379600Y-69174200D03*
X65379600Y-66884200D03*
X65379600Y-64594200D03*
X65379600Y-62304200D03*
X62839600Y-70319200D03*
X62839600Y-68029200D03*
X62839600Y-65739200D03*
X62839600Y-63449200D03*
X62839600Y-61159200D03*
D16*
X119380000Y-58420000D02*
X67310000Y-58420000D01*
X119634000Y-58166000D02*
X119380000Y-58420000D01*
X65379600Y-66884200D02*
X66542100Y-65721700D01*
X119634000Y-54610000D02*
X119634000Y-58166000D01*
X66542100Y-65721700D02*
X66542100Y-59187900D01*
X66542100Y-59187900D02*
X67310000Y-58420000D01*
X62839600Y-57810400D02*
X62839600Y-61159200D01*
X112014000Y-54610000D02*
X112014000Y-56896000D01*
X112014000Y-54610000D02*
X111760000Y-54610000D01*
X111760000Y-57150000D02*
X63500000Y-57150000D01*
X63500000Y-57150000D02*
X62839600Y-57810400D01*
X112014000Y-56896000D02*
X111760000Y-57150000D01*
X73660000Y-65024000D02*
X73660000Y-68580000D01*
X68580000Y-73660000D02*
X63500000Y-73660000D01*
X62839600Y-72999600D02*
X62839600Y-70319200D01*
X63500000Y-73660000D02*
X62839600Y-72999600D01*
X73660000Y-68580000D02*
X68580000Y-73660000D01*
X62848250Y-68035000D02*
X62848250Y-67961750D01*
X65388250Y-71470000D02*
X65120000Y-71470000D01*
X65120000Y-71470000D02*
X64770000Y-71120000D01*
X75660000Y-65024000D02*
X109474000Y-65024000D01*
X109474000Y-77470000D02*
X109474000Y-65024000D01*
G04 #@! TA.AperFunction,Conductor*
G36*
X63934544Y-71249259D02*
G01*
X63992160Y-71288783D01*
X64019261Y-71353182D01*
X64019625Y-71377371D01*
X64012430Y-71464204D01*
X64012430Y-71464206D01*
X64031074Y-71689221D01*
X64031076Y-71689229D01*
X64086507Y-71908120D01*
X64177208Y-72114897D01*
X64255505Y-72234740D01*
X64835399Y-71654846D01*
X64843785Y-71686142D01*
X64919485Y-71817258D01*
X65026542Y-71924315D01*
X65157658Y-72000015D01*
X65188953Y-72008400D01*
X64607523Y-72589829D01*
X64631829Y-72608748D01*
X64830412Y-72716217D01*
X64830418Y-72716219D01*
X65043977Y-72789534D01*
X65185744Y-72813191D01*
X65248630Y-72843641D01*
X65285069Y-72903256D01*
X65283494Y-72973108D01*
X65244405Y-73031020D01*
X65180211Y-73058604D01*
X65165335Y-73059500D01*
X63800098Y-73059500D01*
X63733059Y-73039815D01*
X63712417Y-73023181D01*
X63476419Y-72787183D01*
X63442934Y-72725860D01*
X63440100Y-72699502D01*
X63440100Y-71617903D01*
X63459785Y-71550864D01*
X63505083Y-71508848D01*
X63587643Y-71464169D01*
X63587642Y-71464169D01*
X63587645Y-71464168D01*
X63765898Y-71325428D01*
X63804819Y-71283147D01*
X63864705Y-71247158D01*
X63934544Y-71249259D01*
G37*
G04 #@! TD.AperFunction*
G04 #@! TA.AperFunction,Conductor*
G36*
X64396888Y-70122631D02*
G01*
X64414929Y-70138744D01*
X64453302Y-70180428D01*
X64453306Y-70180431D01*
X64453308Y-70180433D01*
X64558124Y-70262015D01*
X64598937Y-70318725D01*
X64600754Y-70331800D01*
X65188953Y-70919999D01*
X65157658Y-70928385D01*
X65026542Y-71004085D01*
X64919485Y-71111142D01*
X64843785Y-71242258D01*
X64835399Y-71273552D01*
X64221776Y-70659929D01*
X64188291Y-70598606D01*
X64189126Y-70549597D01*
X64187774Y-70549372D01*
X64188618Y-70544309D01*
X64207271Y-70319205D01*
X64207271Y-70319194D01*
X64200126Y-70232970D01*
X64214207Y-70164534D01*
X64263052Y-70114575D01*
X64331153Y-70098954D01*
X64396888Y-70122631D01*
G37*
G04 #@! TD.AperFunction*
G04 #@! TA.AperFunction,Conductor*
G36*
X66471095Y-70108004D02*
G01*
X66528711Y-70147527D01*
X66555813Y-70211927D01*
X66556600Y-70225877D01*
X66556600Y-70589390D01*
X66536915Y-70656429D01*
X66520281Y-70677071D01*
X65923800Y-71273552D01*
X65915415Y-71242258D01*
X65839715Y-71111142D01*
X65732658Y-71004085D01*
X65601542Y-70928385D01*
X65570246Y-70919999D01*
X66162534Y-70327711D01*
X66168968Y-70299421D01*
X66201072Y-70262017D01*
X66305898Y-70180428D01*
X66341372Y-70141892D01*
X66401257Y-70105904D01*
X66471095Y-70108004D01*
G37*
G04 #@! TD.AperFunction*
G04 #@! TA.AperFunction,Conductor*
G36*
X64045335Y-51015385D02*
G01*
X64091090Y-51068189D01*
X64101034Y-51137347D01*
X64072009Y-51200903D01*
X64042445Y-51225817D01*
X63881157Y-51323317D01*
X63881153Y-51323320D01*
X63702354Y-51463399D01*
X63702354Y-51463400D01*
X64421003Y-52182049D01*
X64320983Y-52254719D01*
X64140119Y-52435583D01*
X64067449Y-52535603D01*
X63348800Y-51816954D01*
X63348799Y-51816954D01*
X63208720Y-51995753D01*
X63208717Y-51995757D01*
X63043936Y-52268341D01*
X63043931Y-52268351D01*
X62913199Y-52558826D01*
X62913195Y-52558837D01*
X62818436Y-52862930D01*
X62761019Y-53176251D01*
X62741787Y-53494200D01*
X62761019Y-53812148D01*
X62818436Y-54125469D01*
X62913195Y-54429562D01*
X62913199Y-54429573D01*
X63043931Y-54720048D01*
X63043936Y-54720058D01*
X63208716Y-54992640D01*
X63208726Y-54992655D01*
X63348799Y-55171444D01*
X63348800Y-55171444D01*
X64067449Y-54452795D01*
X64140119Y-54552817D01*
X64320983Y-54733681D01*
X64421003Y-54806349D01*
X63702354Y-55524998D01*
X63702354Y-55524999D01*
X63881153Y-55665079D01*
X63881160Y-55665084D01*
X64153741Y-55829863D01*
X64153751Y-55829868D01*
X64444226Y-55960600D01*
X64444237Y-55960604D01*
X64748330Y-56055363D01*
X65061651Y-56112780D01*
X65379600Y-56132012D01*
X65697548Y-56112780D01*
X66010869Y-56055363D01*
X66314962Y-55960604D01*
X66314973Y-55960600D01*
X66605448Y-55829868D01*
X66605458Y-55829863D01*
X66878039Y-55665084D01*
X66878046Y-55665079D01*
X67056844Y-55524999D01*
X67056844Y-55524998D01*
X66338196Y-54806350D01*
X66438217Y-54733681D01*
X66619081Y-54552817D01*
X66691750Y-54452796D01*
X67410398Y-55171444D01*
X67410399Y-55171444D01*
X67550479Y-54992646D01*
X67550484Y-54992639D01*
X67715263Y-54720058D01*
X67715268Y-54720048D01*
X67846000Y-54429573D01*
X67846004Y-54429562D01*
X67940763Y-54125469D01*
X67998180Y-53812148D01*
X68017412Y-53494200D01*
X67998180Y-53176251D01*
X67940763Y-52862930D01*
X67846004Y-52558837D01*
X67846000Y-52558826D01*
X67715268Y-52268351D01*
X67715263Y-52268341D01*
X67550484Y-51995760D01*
X67550479Y-51995753D01*
X67410398Y-51816954D01*
X66691749Y-52535602D01*
X66619081Y-52435583D01*
X66438217Y-52254719D01*
X66338195Y-52182049D01*
X67056844Y-51463400D01*
X67056844Y-51463399D01*
X66878055Y-51323326D01*
X66878040Y-51323316D01*
X66716755Y-51225817D01*
X66669567Y-51174290D01*
X66657728Y-51105430D01*
X66684996Y-51041102D01*
X66742715Y-51001727D01*
X66780904Y-50995700D01*
X138592900Y-50995700D01*
X138659939Y-51015385D01*
X138705694Y-51068189D01*
X138716900Y-51119700D01*
X138716900Y-80858700D01*
X138697215Y-80925739D01*
X138644411Y-80971494D01*
X138592900Y-80982700D01*
X66780904Y-80982700D01*
X66713865Y-80963015D01*
X66668110Y-80910211D01*
X66658166Y-80841053D01*
X66687191Y-80777497D01*
X66716755Y-80752583D01*
X66878039Y-80655084D01*
X66878046Y-80655079D01*
X67056844Y-80514999D01*
X67056844Y-80514998D01*
X66338196Y-79796350D01*
X66438217Y-79723681D01*
X66619081Y-79542817D01*
X66691750Y-79442796D01*
X67410398Y-80161444D01*
X67410399Y-80161444D01*
X67550479Y-79982646D01*
X67550484Y-79982639D01*
X67715263Y-79710058D01*
X67715268Y-79710048D01*
X67846000Y-79419573D01*
X67846004Y-79419562D01*
X67940763Y-79115469D01*
X67998180Y-78802148D01*
X68017412Y-78484200D01*
X67998180Y-78166251D01*
X67940763Y-77852930D01*
X67846004Y-77548837D01*
X67846000Y-77548826D01*
X67715268Y-77258351D01*
X67715263Y-77258341D01*
X67550484Y-76985760D01*
X67550479Y-76985753D01*
X67410398Y-76806954D01*
X66691749Y-77525602D01*
X66619081Y-77425583D01*
X66438217Y-77244719D01*
X66338195Y-77172049D01*
X67056844Y-76453400D01*
X67056844Y-76453399D01*
X66878055Y-76313326D01*
X66878040Y-76313316D01*
X66605458Y-76148536D01*
X66605448Y-76148531D01*
X66314973Y-76017799D01*
X66314962Y-76017795D01*
X66010869Y-75923036D01*
X65697548Y-75865619D01*
X65379600Y-75846387D01*
X65061651Y-75865619D01*
X64748330Y-75923036D01*
X64444237Y-76017795D01*
X64444226Y-76017799D01*
X64153751Y-76148531D01*
X64153741Y-76148536D01*
X63881157Y-76313317D01*
X63881153Y-76313320D01*
X63702354Y-76453399D01*
X63702354Y-76453400D01*
X64421003Y-77172049D01*
X64320983Y-77244719D01*
X64140119Y-77425583D01*
X64067449Y-77525603D01*
X63348800Y-76806954D01*
X63348799Y-76806954D01*
X63208720Y-76985753D01*
X63208717Y-76985757D01*
X63043936Y-77258341D01*
X63043931Y-77258351D01*
X62913199Y-77548826D01*
X62913195Y-77548837D01*
X62818436Y-77852930D01*
X62761019Y-78166251D01*
X62741787Y-78484200D01*
X62761019Y-78802148D01*
X62818436Y-79115469D01*
X62913195Y-79419562D01*
X62913199Y-79419573D01*
X63043931Y-79710048D01*
X63043936Y-79710058D01*
X63208716Y-79982640D01*
X63208726Y-79982655D01*
X63348799Y-80161444D01*
X63348800Y-80161444D01*
X64067449Y-79442795D01*
X64140119Y-79542817D01*
X64320983Y-79723681D01*
X64421003Y-79796349D01*
X63702354Y-80514998D01*
X63702354Y-80514999D01*
X63881153Y-80655079D01*
X63881160Y-80655084D01*
X64042445Y-80752583D01*
X64089633Y-80804110D01*
X64101472Y-80872970D01*
X64074204Y-80937298D01*
X64016485Y-80976673D01*
X63978296Y-80982700D01*
X54497900Y-80982700D01*
X54430861Y-80963015D01*
X54385106Y-80910211D01*
X54373900Y-80858700D01*
X54373900Y-61159194D01*
X61471929Y-61159194D01*
X61471929Y-61159205D01*
X61490581Y-61384307D01*
X61546033Y-61603282D01*
X61636768Y-61810138D01*
X61760315Y-61999242D01*
X61913298Y-62165424D01*
X61913303Y-62165429D01*
X61965874Y-62206347D01*
X62006687Y-62263058D01*
X62010360Y-62332831D01*
X61975729Y-62393514D01*
X61965874Y-62402053D01*
X61913303Y-62442970D01*
X61913298Y-62442975D01*
X61760315Y-62609157D01*
X61636768Y-62798261D01*
X61546033Y-63005117D01*
X61490581Y-63224092D01*
X61471929Y-63449194D01*
X61471929Y-63449205D01*
X61490581Y-63674307D01*
X61546033Y-63893282D01*
X61636768Y-64100138D01*
X61760315Y-64289242D01*
X61913298Y-64455424D01*
X61913303Y-64455429D01*
X61965874Y-64496347D01*
X62006687Y-64553058D01*
X62010360Y-64622831D01*
X61975729Y-64683514D01*
X61965874Y-64692053D01*
X61913303Y-64732970D01*
X61913298Y-64732975D01*
X61760315Y-64899157D01*
X61636768Y-65088261D01*
X61546033Y-65295117D01*
X61490581Y-65514092D01*
X61471929Y-65739194D01*
X61471929Y-65739205D01*
X61490581Y-65964307D01*
X61546033Y-66183282D01*
X61636768Y-66390138D01*
X61760315Y-66579242D01*
X61913298Y-66745424D01*
X61913303Y-66745429D01*
X61965874Y-66786347D01*
X62006687Y-66843058D01*
X62010360Y-66912831D01*
X61975729Y-66973514D01*
X61965874Y-66982053D01*
X61913303Y-67022970D01*
X61913298Y-67022975D01*
X61760315Y-67189157D01*
X61636768Y-67378261D01*
X61546033Y-67585117D01*
X61490581Y-67804092D01*
X61471929Y-68029194D01*
X61471929Y-68029205D01*
X61490581Y-68254307D01*
X61546033Y-68473282D01*
X61636768Y-68680138D01*
X61760315Y-68869242D01*
X61913298Y-69035424D01*
X61913303Y-69035429D01*
X61965874Y-69076347D01*
X62006687Y-69133058D01*
X62010360Y-69202831D01*
X61975729Y-69263514D01*
X61965874Y-69272053D01*
X61913303Y-69312970D01*
X61913298Y-69312975D01*
X61760315Y-69479157D01*
X61636768Y-69668261D01*
X61546033Y-69875117D01*
X61490581Y-70094092D01*
X61471929Y-70319194D01*
X61471929Y-70319205D01*
X61490581Y-70544307D01*
X61546033Y-70763282D01*
X61636768Y-70970138D01*
X61760315Y-71159242D01*
X61913298Y-71325424D01*
X61913302Y-71325428D01*
X61994337Y-71388500D01*
X62091552Y-71464166D01*
X62091556Y-71464169D01*
X62174117Y-71508848D01*
X62223708Y-71558067D01*
X62239100Y-71617903D01*
X62239100Y-72912930D01*
X62239099Y-72912948D01*
X62239099Y-73078654D01*
X62239098Y-73078654D01*
X62280023Y-73231385D01*
X62308958Y-73281500D01*
X62308959Y-73281504D01*
X62308960Y-73281504D01*
X62359079Y-73368314D01*
X62359081Y-73368317D01*
X62477949Y-73487185D01*
X62477954Y-73487189D01*
X63131284Y-74140520D01*
X63131286Y-74140521D01*
X63131290Y-74140524D01*
X63268209Y-74219573D01*
X63268216Y-74219577D01*
X63420943Y-74260501D01*
X63420945Y-74260501D01*
X63586654Y-74260501D01*
X63586670Y-74260500D01*
X68493331Y-74260500D01*
X68493347Y-74260501D01*
X68500943Y-74260501D01*
X68659054Y-74260501D01*
X68659057Y-74260501D01*
X68811785Y-74219577D01*
X68861904Y-74190639D01*
X68948716Y-74140520D01*
X69060520Y-74028716D01*
X69060520Y-74028714D01*
X69070728Y-74018507D01*
X69070730Y-74018504D01*
X74018506Y-69070728D01*
X74018511Y-69070724D01*
X74028714Y-69060520D01*
X74028716Y-69060520D01*
X74140520Y-68948716D01*
X74186404Y-68869242D01*
X74197766Y-68849563D01*
X74197769Y-68849554D01*
X74197775Y-68849546D01*
X74219577Y-68811785D01*
X74260501Y-68659057D01*
X74260501Y-68500943D01*
X74260501Y-68493348D01*
X74260500Y-68493330D01*
X74260500Y-66269908D01*
X74280185Y-66202869D01*
X74324271Y-66164363D01*
X74323187Y-66162605D01*
X74329332Y-66158814D01*
X74329334Y-66158814D01*
X74478656Y-66066712D01*
X74572319Y-65973049D01*
X74633642Y-65939564D01*
X74703334Y-65944548D01*
X74747681Y-65973049D01*
X74841344Y-66066712D01*
X74990666Y-66158814D01*
X75157203Y-66213999D01*
X75259991Y-66224500D01*
X76060008Y-66224499D01*
X76060016Y-66224498D01*
X76060019Y-66224498D01*
X76116302Y-66218748D01*
X76162797Y-66213999D01*
X76329334Y-66158814D01*
X76478656Y-66066712D01*
X76602712Y-65942656D01*
X76694814Y-65793334D01*
X76722595Y-65709495D01*
X76762368Y-65652051D01*
X76826884Y-65625228D01*
X76840301Y-65624500D01*
X108749500Y-65624500D01*
X108816539Y-65644185D01*
X108862294Y-65696989D01*
X108873500Y-65748500D01*
X108873500Y-76180908D01*
X108853815Y-76247947D01*
X108801914Y-76293286D01*
X108796173Y-76295963D01*
X108796169Y-76295965D01*
X108602597Y-76431505D01*
X108435505Y-76598597D01*
X108305575Y-76784158D01*
X108250998Y-76827783D01*
X108181500Y-76834977D01*
X108119145Y-76803454D01*
X108102425Y-76784158D01*
X107972494Y-76598597D01*
X107805402Y-76431506D01*
X107805395Y-76431501D01*
X107611834Y-76295967D01*
X107611830Y-76295965D01*
X107606085Y-76293286D01*
X107397663Y-76196097D01*
X107397659Y-76196096D01*
X107397655Y-76196094D01*
X107169413Y-76134938D01*
X107169403Y-76134936D01*
X106934001Y-76114341D01*
X106933999Y-76114341D01*
X106698596Y-76134936D01*
X106698586Y-76134938D01*
X106470344Y-76196094D01*
X106470335Y-76196098D01*
X106256171Y-76295964D01*
X106256169Y-76295965D01*
X106062597Y-76431505D01*
X105895505Y-76598597D01*
X105765575Y-76784158D01*
X105710998Y-76827783D01*
X105641500Y-76834977D01*
X105579145Y-76803454D01*
X105562425Y-76784158D01*
X105432494Y-76598597D01*
X105265402Y-76431506D01*
X105265395Y-76431501D01*
X105071834Y-76295967D01*
X105071830Y-76295965D01*
X105066085Y-76293286D01*
X104857663Y-76196097D01*
X104857659Y-76196096D01*
X104857655Y-76196094D01*
X104629413Y-76134938D01*
X104629403Y-76134936D01*
X104394001Y-76114341D01*
X104393999Y-76114341D01*
X104158596Y-76134936D01*
X104158586Y-76134938D01*
X103930344Y-76196094D01*
X103930335Y-76196098D01*
X103716171Y-76295964D01*
X103716169Y-76295965D01*
X103522597Y-76431505D01*
X103355505Y-76598597D01*
X103225575Y-76784158D01*
X103170998Y-76827783D01*
X103101500Y-76834977D01*
X103039145Y-76803454D01*
X103022425Y-76784158D01*
X102892494Y-76598597D01*
X102725402Y-76431506D01*
X102725395Y-76431501D01*
X102531834Y-76295967D01*
X102531830Y-76295965D01*
X102526085Y-76293286D01*
X102317663Y-76196097D01*
X102317659Y-76196096D01*
X102317655Y-76196094D01*
X102089413Y-76134938D01*
X102089403Y-76134936D01*
X101854001Y-76114341D01*
X101853999Y-76114341D01*
X101618596Y-76134936D01*
X101618586Y-76134938D01*
X101390344Y-76196094D01*
X101390335Y-76196098D01*
X101176171Y-76295964D01*
X101176169Y-76295965D01*
X100982597Y-76431505D01*
X100815505Y-76598597D01*
X100685575Y-76784158D01*
X100630998Y-76827783D01*
X100561500Y-76834977D01*
X100499145Y-76803454D01*
X100482425Y-76784158D01*
X100352494Y-76598597D01*
X100185402Y-76431506D01*
X100185395Y-76431501D01*
X99991834Y-76295967D01*
X99991830Y-76295965D01*
X99986085Y-76293286D01*
X99777663Y-76196097D01*
X99777659Y-76196096D01*
X99777655Y-76196094D01*
X99549413Y-76134938D01*
X99549403Y-76134936D01*
X99314001Y-76114341D01*
X99313999Y-76114341D01*
X99078596Y-76134936D01*
X99078586Y-76134938D01*
X98850344Y-76196094D01*
X98850335Y-76196098D01*
X98636171Y-76295964D01*
X98636169Y-76295965D01*
X98442597Y-76431505D01*
X98275505Y-76598597D01*
X98145575Y-76784158D01*
X98090998Y-76827783D01*
X98021500Y-76834977D01*
X97959145Y-76803454D01*
X97942425Y-76784158D01*
X97812494Y-76598597D01*
X97645402Y-76431506D01*
X97645395Y-76431501D01*
X97451834Y-76295967D01*
X97451830Y-76295965D01*
X97446085Y-76293286D01*
X97237663Y-76196097D01*
X97237659Y-76196096D01*
X97237655Y-76196094D01*
X97009413Y-76134938D01*
X97009403Y-76134936D01*
X96774001Y-76114341D01*
X96773999Y-76114341D01*
X96538596Y-76134936D01*
X96538586Y-76134938D01*
X96310344Y-76196094D01*
X96310335Y-76196098D01*
X96096171Y-76295964D01*
X96096169Y-76295965D01*
X95902597Y-76431505D01*
X95735505Y-76598597D01*
X95605575Y-76784158D01*
X95550998Y-76827783D01*
X95481500Y-76834977D01*
X95419145Y-76803454D01*
X95402425Y-76784158D01*
X95272494Y-76598597D01*
X95105402Y-76431506D01*
X95105395Y-76431501D01*
X94911834Y-76295967D01*
X94911830Y-76295965D01*
X94906085Y-76293286D01*
X94697663Y-76196097D01*
X94697659Y-76196096D01*
X94697655Y-76196094D01*
X94469413Y-76134938D01*
X94469403Y-76134936D01*
X94234001Y-76114341D01*
X94233999Y-76114341D01*
X93998596Y-76134936D01*
X93998586Y-76134938D01*
X93770344Y-76196094D01*
X93770335Y-76196098D01*
X93556171Y-76295964D01*
X93556169Y-76295965D01*
X93362597Y-76431505D01*
X93195505Y-76598597D01*
X93065575Y-76784158D01*
X93010998Y-76827783D01*
X92941500Y-76834977D01*
X92879145Y-76803454D01*
X92862425Y-76784158D01*
X92732494Y-76598597D01*
X92565402Y-76431506D01*
X92565395Y-76431501D01*
X92371834Y-76295967D01*
X92371830Y-76295965D01*
X92366085Y-76293286D01*
X92157663Y-76196097D01*
X92157659Y-76196096D01*
X92157655Y-76196094D01*
X91929413Y-76134938D01*
X91929403Y-76134936D01*
X91694001Y-76114341D01*
X91693999Y-76114341D01*
X91458596Y-76134936D01*
X91458586Y-76134938D01*
X91230344Y-76196094D01*
X91230335Y-76196098D01*
X91016171Y-76295964D01*
X91016169Y-76295965D01*
X90822597Y-76431505D01*
X90655505Y-76598597D01*
X90525575Y-76784158D01*
X90470998Y-76827783D01*
X90401500Y-76834977D01*
X90339145Y-76803454D01*
X90322425Y-76784158D01*
X90192494Y-76598597D01*
X90025402Y-76431506D01*
X90025395Y-76431501D01*
X89831834Y-76295967D01*
X89831830Y-76295965D01*
X89826085Y-76293286D01*
X89617663Y-76196097D01*
X89617659Y-76196096D01*
X89617655Y-76196094D01*
X89389413Y-76134938D01*
X89389403Y-76134936D01*
X89154001Y-76114341D01*
X89153999Y-76114341D01*
X88918596Y-76134936D01*
X88918586Y-76134938D01*
X88690344Y-76196094D01*
X88690335Y-76196098D01*
X88476171Y-76295964D01*
X88476169Y-76295965D01*
X88282597Y-76431505D01*
X88115505Y-76598597D01*
X87985575Y-76784158D01*
X87930998Y-76827783D01*
X87861500Y-76834977D01*
X87799145Y-76803454D01*
X87782425Y-76784158D01*
X87652494Y-76598597D01*
X87485402Y-76431506D01*
X87485395Y-76431501D01*
X87291834Y-76295967D01*
X87291830Y-76295965D01*
X87286085Y-76293286D01*
X87077663Y-76196097D01*
X87077659Y-76196096D01*
X87077655Y-76196094D01*
X86849413Y-76134938D01*
X86849403Y-76134936D01*
X86614001Y-76114341D01*
X86613999Y-76114341D01*
X86378596Y-76134936D01*
X86378586Y-76134938D01*
X86150344Y-76196094D01*
X86150335Y-76196098D01*
X85936171Y-76295964D01*
X85936169Y-76295965D01*
X85742597Y-76431505D01*
X85575505Y-76598597D01*
X85445575Y-76784158D01*
X85390998Y-76827783D01*
X85321500Y-76834977D01*
X85259145Y-76803454D01*
X85242425Y-76784158D01*
X85112494Y-76598597D01*
X84945402Y-76431506D01*
X84945395Y-76431501D01*
X84751834Y-76295967D01*
X84751830Y-76295965D01*
X84746085Y-76293286D01*
X84537663Y-76196097D01*
X84537659Y-76196096D01*
X84537655Y-76196094D01*
X84309413Y-76134938D01*
X84309403Y-76134936D01*
X84074001Y-76114341D01*
X84073999Y-76114341D01*
X83838596Y-76134936D01*
X83838586Y-76134938D01*
X83610344Y-76196094D01*
X83610335Y-76196098D01*
X83396171Y-76295964D01*
X83396169Y-76295965D01*
X83202600Y-76431503D01*
X83080673Y-76553430D01*
X83019350Y-76586914D01*
X82949658Y-76581930D01*
X82893725Y-76540058D01*
X82876810Y-76509081D01*
X82827797Y-76377671D01*
X82827793Y-76377664D01*
X82741547Y-76262455D01*
X82741544Y-76262452D01*
X82626335Y-76176206D01*
X82626328Y-76176202D01*
X82491482Y-76125908D01*
X82491483Y-76125908D01*
X82431883Y-76119501D01*
X82431881Y-76119500D01*
X82431873Y-76119500D01*
X82431864Y-76119500D01*
X80636129Y-76119500D01*
X80636123Y-76119501D01*
X80576516Y-76125908D01*
X80441671Y-76176202D01*
X80441664Y-76176206D01*
X80326455Y-76262452D01*
X80326452Y-76262455D01*
X80240206Y-76377664D01*
X80240202Y-76377671D01*
X80189908Y-76512517D01*
X80183501Y-76572116D01*
X80183500Y-76572135D01*
X80183500Y-78367870D01*
X80183501Y-78367876D01*
X80189908Y-78427483D01*
X80240202Y-78562328D01*
X80240206Y-78562335D01*
X80326452Y-78677544D01*
X80326455Y-78677547D01*
X80441664Y-78763793D01*
X80441671Y-78763797D01*
X80576517Y-78814091D01*
X80576516Y-78814091D01*
X80583444Y-78814835D01*
X80636127Y-78820500D01*
X82431872Y-78820499D01*
X82491483Y-78814091D01*
X82626331Y-78763796D01*
X82741546Y-78677546D01*
X82827796Y-78562331D01*
X82876810Y-78430916D01*
X82918681Y-78374984D01*
X82984145Y-78350566D01*
X83052418Y-78365417D01*
X83080673Y-78386569D01*
X83202599Y-78508495D01*
X83299384Y-78576265D01*
X83396165Y-78644032D01*
X83396167Y-78644033D01*
X83396170Y-78644035D01*
X83610337Y-78743903D01*
X83838592Y-78805063D01*
X84015034Y-78820500D01*
X84073999Y-78825659D01*
X84074000Y-78825659D01*
X84074001Y-78825659D01*
X84132966Y-78820500D01*
X84309408Y-78805063D01*
X84537663Y-78743903D01*
X84751830Y-78644035D01*
X84945401Y-78508495D01*
X85112495Y-78341401D01*
X85226891Y-78178026D01*
X85242425Y-78155842D01*
X85297002Y-78112217D01*
X85366500Y-78105023D01*
X85428855Y-78136546D01*
X85445575Y-78155842D01*
X85575500Y-78341395D01*
X85575505Y-78341401D01*
X85742599Y-78508495D01*
X85839384Y-78576265D01*
X85936165Y-78644032D01*
X85936167Y-78644033D01*
X85936170Y-78644035D01*
X86150337Y-78743903D01*
X86378592Y-78805063D01*
X86555034Y-78820500D01*
X86613999Y-78825659D01*
X86614000Y-78825659D01*
X86614001Y-78825659D01*
X86672966Y-78820500D01*
X86849408Y-78805063D01*
X87077663Y-78743903D01*
X87291830Y-78644035D01*
X87485401Y-78508495D01*
X87652495Y-78341401D01*
X87766891Y-78178026D01*
X87782425Y-78155842D01*
X87837002Y-78112217D01*
X87906500Y-78105023D01*
X87968855Y-78136546D01*
X87985575Y-78155842D01*
X88115500Y-78341395D01*
X88115505Y-78341401D01*
X88282599Y-78508495D01*
X88379384Y-78576265D01*
X88476165Y-78644032D01*
X88476167Y-78644033D01*
X88476170Y-78644035D01*
X88690337Y-78743903D01*
X88918592Y-78805063D01*
X89095034Y-78820500D01*
X89153999Y-78825659D01*
X89154000Y-78825659D01*
X89154001Y-78825659D01*
X89212966Y-78820500D01*
X89389408Y-78805063D01*
X89617663Y-78743903D01*
X89831830Y-78644035D01*
X90025401Y-78508495D01*
X90192495Y-78341401D01*
X90306891Y-78178026D01*
X90322425Y-78155842D01*
X90377002Y-78112217D01*
X90446500Y-78105023D01*
X90508855Y-78136546D01*
X90525575Y-78155842D01*
X90655500Y-78341395D01*
X90655505Y-78341401D01*
X90822599Y-78508495D01*
X90919384Y-78576265D01*
X91016165Y-78644032D01*
X91016167Y-78644033D01*
X91016170Y-78644035D01*
X91230337Y-78743903D01*
X91458592Y-78805063D01*
X91635034Y-78820500D01*
X91693999Y-78825659D01*
X91694000Y-78825659D01*
X91694001Y-78825659D01*
X91752966Y-78820500D01*
X91929408Y-78805063D01*
X92157663Y-78743903D01*
X92371830Y-78644035D01*
X92565401Y-78508495D01*
X92732495Y-78341401D01*
X92846891Y-78178026D01*
X92862425Y-78155842D01*
X92917002Y-78112217D01*
X92986500Y-78105023D01*
X93048855Y-78136546D01*
X93065575Y-78155842D01*
X93195500Y-78341395D01*
X93195505Y-78341401D01*
X93362599Y-78508495D01*
X93459384Y-78576265D01*
X93556165Y-78644032D01*
X93556167Y-78644033D01*
X93556170Y-78644035D01*
X93770337Y-78743903D01*
X93998592Y-78805063D01*
X94175034Y-78820500D01*
X94233999Y-78825659D01*
X94234000Y-78825659D01*
X94234001Y-78825659D01*
X94292966Y-78820500D01*
X94469408Y-78805063D01*
X94697663Y-78743903D01*
X94911830Y-78644035D01*
X95105401Y-78508495D01*
X95272495Y-78341401D01*
X95386891Y-78178026D01*
X95402425Y-78155842D01*
X95457002Y-78112217D01*
X95526500Y-78105023D01*
X95588855Y-78136546D01*
X95605575Y-78155842D01*
X95735500Y-78341395D01*
X95735505Y-78341401D01*
X95902599Y-78508495D01*
X95999384Y-78576265D01*
X96096165Y-78644032D01*
X96096167Y-78644033D01*
X96096170Y-78644035D01*
X96310337Y-78743903D01*
X96538592Y-78805063D01*
X96715034Y-78820500D01*
X96773999Y-78825659D01*
X96774000Y-78825659D01*
X96774001Y-78825659D01*
X96832966Y-78820500D01*
X97009408Y-78805063D01*
X97237663Y-78743903D01*
X97451830Y-78644035D01*
X97645401Y-78508495D01*
X97812495Y-78341401D01*
X97926891Y-78178026D01*
X97942425Y-78155842D01*
X97997002Y-78112217D01*
X98066500Y-78105023D01*
X98128855Y-78136546D01*
X98145575Y-78155842D01*
X98275500Y-78341395D01*
X98275505Y-78341401D01*
X98442599Y-78508495D01*
X98539384Y-78576265D01*
X98636165Y-78644032D01*
X98636167Y-78644033D01*
X98636170Y-78644035D01*
X98850337Y-78743903D01*
X99078592Y-78805063D01*
X99255034Y-78820500D01*
X99313999Y-78825659D01*
X99314000Y-78825659D01*
X99314001Y-78825659D01*
X99372966Y-78820500D01*
X99549408Y-78805063D01*
X99777663Y-78743903D01*
X99991830Y-78644035D01*
X100185401Y-78508495D01*
X100352495Y-78341401D01*
X100466891Y-78178026D01*
X100482425Y-78155842D01*
X100537002Y-78112217D01*
X100606500Y-78105023D01*
X100668855Y-78136546D01*
X100685575Y-78155842D01*
X100815500Y-78341395D01*
X100815505Y-78341401D01*
X100982599Y-78508495D01*
X101079384Y-78576265D01*
X101176165Y-78644032D01*
X101176167Y-78644033D01*
X101176170Y-78644035D01*
X101390337Y-78743903D01*
X101618592Y-78805063D01*
X101795034Y-78820500D01*
X101853999Y-78825659D01*
X101854000Y-78825659D01*
X101854001Y-78825659D01*
X101912966Y-78820500D01*
X102089408Y-78805063D01*
X102317663Y-78743903D01*
X102531830Y-78644035D01*
X102725401Y-78508495D01*
X102892495Y-78341401D01*
X103006891Y-78178026D01*
X103022425Y-78155842D01*
X103077002Y-78112217D01*
X103146500Y-78105023D01*
X103208855Y-78136546D01*
X103225575Y-78155842D01*
X103355500Y-78341395D01*
X103355505Y-78341401D01*
X103522599Y-78508495D01*
X103619384Y-78576265D01*
X103716165Y-78644032D01*
X103716167Y-78644033D01*
X103716170Y-78644035D01*
X103930337Y-78743903D01*
X104158592Y-78805063D01*
X104335034Y-78820500D01*
X104393999Y-78825659D01*
X104394000Y-78825659D01*
X104394001Y-78825659D01*
X104452966Y-78820500D01*
X104629408Y-78805063D01*
X104857663Y-78743903D01*
X105071830Y-78644035D01*
X105265401Y-78508495D01*
X105432495Y-78341401D01*
X105546891Y-78178026D01*
X105562425Y-78155842D01*
X105617002Y-78112217D01*
X105686500Y-78105023D01*
X105748855Y-78136546D01*
X105765575Y-78155842D01*
X105895500Y-78341395D01*
X105895505Y-78341401D01*
X106062599Y-78508495D01*
X106159384Y-78576265D01*
X106256165Y-78644032D01*
X106256167Y-78644033D01*
X106256170Y-78644035D01*
X106470337Y-78743903D01*
X106698592Y-78805063D01*
X106875034Y-78820500D01*
X106933999Y-78825659D01*
X106934000Y-78825659D01*
X106934001Y-78825659D01*
X106992966Y-78820500D01*
X107169408Y-78805063D01*
X107397663Y-78743903D01*
X107611830Y-78644035D01*
X107805401Y-78508495D01*
X107972495Y-78341401D01*
X108086891Y-78178026D01*
X108102425Y-78155842D01*
X108157002Y-78112217D01*
X108226500Y-78105023D01*
X108288855Y-78136546D01*
X108305575Y-78155842D01*
X108435500Y-78341395D01*
X108435505Y-78341401D01*
X108602599Y-78508495D01*
X108699384Y-78576265D01*
X108796165Y-78644032D01*
X108796167Y-78644033D01*
X108796170Y-78644035D01*
X109010337Y-78743903D01*
X109238592Y-78805063D01*
X109415034Y-78820500D01*
X109473999Y-78825659D01*
X109474000Y-78825659D01*
X109474001Y-78825659D01*
X109532966Y-78820500D01*
X109709408Y-78805063D01*
X109937663Y-78743903D01*
X110151830Y-78644035D01*
X110345401Y-78508495D01*
X110512495Y-78341401D01*
X110626891Y-78178026D01*
X110642425Y-78155842D01*
X110697002Y-78112217D01*
X110766500Y-78105023D01*
X110828855Y-78136546D01*
X110845575Y-78155842D01*
X110975500Y-78341395D01*
X110975505Y-78341401D01*
X111142599Y-78508495D01*
X111239384Y-78576265D01*
X111336165Y-78644032D01*
X111336167Y-78644033D01*
X111336170Y-78644035D01*
X111550337Y-78743903D01*
X111778592Y-78805063D01*
X111955034Y-78820500D01*
X112013999Y-78825659D01*
X112014000Y-78825659D01*
X112014001Y-78825659D01*
X112072966Y-78820500D01*
X112249408Y-78805063D01*
X112477663Y-78743903D01*
X112691830Y-78644035D01*
X112885401Y-78508495D01*
X113052495Y-78341401D01*
X113166891Y-78178026D01*
X113182425Y-78155842D01*
X113237002Y-78112217D01*
X113306500Y-78105023D01*
X113368855Y-78136546D01*
X113385575Y-78155842D01*
X113515500Y-78341395D01*
X113515505Y-78341401D01*
X113682599Y-78508495D01*
X113779384Y-78576265D01*
X113876165Y-78644032D01*
X113876167Y-78644033D01*
X113876170Y-78644035D01*
X114090337Y-78743903D01*
X114318592Y-78805063D01*
X114495034Y-78820500D01*
X114553999Y-78825659D01*
X114554000Y-78825659D01*
X114554001Y-78825659D01*
X114612966Y-78820500D01*
X114789408Y-78805063D01*
X115017663Y-78743903D01*
X115231830Y-78644035D01*
X115425401Y-78508495D01*
X115592495Y-78341401D01*
X115706891Y-78178026D01*
X115722425Y-78155842D01*
X115777002Y-78112217D01*
X115846500Y-78105023D01*
X115908855Y-78136546D01*
X115925575Y-78155842D01*
X116055500Y-78341395D01*
X116055505Y-78341401D01*
X116222599Y-78508495D01*
X116319384Y-78576265D01*
X116416165Y-78644032D01*
X116416167Y-78644033D01*
X116416170Y-78644035D01*
X116630337Y-78743903D01*
X116858592Y-78805063D01*
X117035034Y-78820500D01*
X117093999Y-78825659D01*
X117094000Y-78825659D01*
X117094001Y-78825659D01*
X117152966Y-78820500D01*
X117329408Y-78805063D01*
X117557663Y-78743903D01*
X117771830Y-78644035D01*
X117965401Y-78508495D01*
X118132495Y-78341401D01*
X118246891Y-78178026D01*
X118262425Y-78155842D01*
X118317002Y-78112217D01*
X118386500Y-78105023D01*
X118448855Y-78136546D01*
X118465575Y-78155842D01*
X118595500Y-78341395D01*
X118595505Y-78341401D01*
X118762599Y-78508495D01*
X118859384Y-78576265D01*
X118956165Y-78644032D01*
X118956167Y-78644033D01*
X118956170Y-78644035D01*
X119170337Y-78743903D01*
X119398592Y-78805063D01*
X119575034Y-78820500D01*
X119633999Y-78825659D01*
X119634000Y-78825659D01*
X119634001Y-78825659D01*
X119692966Y-78820500D01*
X119869408Y-78805063D01*
X120097663Y-78743903D01*
X120311830Y-78644035D01*
X120505401Y-78508495D01*
X120672495Y-78341401D01*
X120786891Y-78178026D01*
X120802425Y-78155842D01*
X120857002Y-78112217D01*
X120926500Y-78105023D01*
X120988855Y-78136546D01*
X121005575Y-78155842D01*
X121135500Y-78341395D01*
X121135505Y-78341401D01*
X121302599Y-78508495D01*
X121399384Y-78576265D01*
X121496165Y-78644032D01*
X121496167Y-78644033D01*
X121496170Y-78644035D01*
X121710337Y-78743903D01*
X121938592Y-78805063D01*
X122115034Y-78820500D01*
X122173999Y-78825659D01*
X122174000Y-78825659D01*
X122174001Y-78825659D01*
X122232966Y-78820500D01*
X122409408Y-78805063D01*
X122637663Y-78743903D01*
X122851830Y-78644035D01*
X123045401Y-78508495D01*
X123212495Y-78341401D01*
X123326891Y-78178026D01*
X123342425Y-78155842D01*
X123397002Y-78112217D01*
X123466500Y-78105023D01*
X123528855Y-78136546D01*
X123545575Y-78155842D01*
X123675500Y-78341395D01*
X123675505Y-78341401D01*
X123842599Y-78508495D01*
X123939384Y-78576265D01*
X124036165Y-78644032D01*
X124036167Y-78644033D01*
X124036170Y-78644035D01*
X124250337Y-78743903D01*
X124478592Y-78805063D01*
X124655034Y-78820500D01*
X124713999Y-78825659D01*
X124714000Y-78825659D01*
X124714001Y-78825659D01*
X124772966Y-78820500D01*
X124949408Y-78805063D01*
X125177663Y-78743903D01*
X125391830Y-78644035D01*
X125585401Y-78508495D01*
X125752495Y-78341401D01*
X125866891Y-78178026D01*
X125882425Y-78155842D01*
X125937002Y-78112217D01*
X126006500Y-78105023D01*
X126068855Y-78136546D01*
X126085575Y-78155842D01*
X126215500Y-78341395D01*
X126215505Y-78341401D01*
X126382599Y-78508495D01*
X126479384Y-78576265D01*
X126576165Y-78644032D01*
X126576167Y-78644033D01*
X126576170Y-78644035D01*
X126790337Y-78743903D01*
X127018592Y-78805063D01*
X127195034Y-78820500D01*
X127253999Y-78825659D01*
X127254000Y-78825659D01*
X127254001Y-78825659D01*
X127312966Y-78820500D01*
X127489408Y-78805063D01*
X127717663Y-78743903D01*
X127931830Y-78644035D01*
X128125401Y-78508495D01*
X128292495Y-78341401D01*
X128406891Y-78178026D01*
X128422425Y-78155842D01*
X128477002Y-78112217D01*
X128546500Y-78105023D01*
X128608855Y-78136546D01*
X128625575Y-78155842D01*
X128755500Y-78341395D01*
X128755505Y-78341401D01*
X128922599Y-78508495D01*
X129019384Y-78576265D01*
X129116165Y-78644032D01*
X129116167Y-78644033D01*
X129116170Y-78644035D01*
X129330337Y-78743903D01*
X129558592Y-78805063D01*
X129735034Y-78820500D01*
X129793999Y-78825659D01*
X129794000Y-78825659D01*
X129794001Y-78825659D01*
X129852966Y-78820500D01*
X130029408Y-78805063D01*
X130257663Y-78743903D01*
X130471830Y-78644035D01*
X130665401Y-78508495D01*
X130832495Y-78341401D01*
X130968035Y-78147830D01*
X131067903Y-77933663D01*
X131129063Y-77705408D01*
X131149659Y-77470000D01*
X131129063Y-77234592D01*
X131067903Y-77006337D01*
X130968035Y-76792171D01*
X130962425Y-76784158D01*
X130832494Y-76598597D01*
X130665402Y-76431506D01*
X130665395Y-76431501D01*
X130471834Y-76295967D01*
X130471830Y-76295965D01*
X130466085Y-76293286D01*
X130257663Y-76196097D01*
X130257659Y-76196096D01*
X130257655Y-76196094D01*
X130029413Y-76134938D01*
X130029403Y-76134936D01*
X129794001Y-76114341D01*
X129793999Y-76114341D01*
X129558596Y-76134936D01*
X129558586Y-76134938D01*
X129330344Y-76196094D01*
X129330335Y-76196098D01*
X129116171Y-76295964D01*
X129116169Y-76295965D01*
X128922597Y-76431505D01*
X128755505Y-76598597D01*
X128625575Y-76784158D01*
X128570998Y-76827783D01*
X128501500Y-76834977D01*
X128439145Y-76803454D01*
X128422425Y-76784158D01*
X128292494Y-76598597D01*
X128125402Y-76431506D01*
X128125395Y-76431501D01*
X127931834Y-76295967D01*
X127931830Y-76295965D01*
X127926085Y-76293286D01*
X127717663Y-76196097D01*
X127717659Y-76196096D01*
X127717655Y-76196094D01*
X127489413Y-76134938D01*
X127489403Y-76134936D01*
X127254001Y-76114341D01*
X127253999Y-76114341D01*
X127018596Y-76134936D01*
X127018586Y-76134938D01*
X126790344Y-76196094D01*
X126790335Y-76196098D01*
X126576171Y-76295964D01*
X126576169Y-76295965D01*
X126382597Y-76431505D01*
X126215505Y-76598597D01*
X126085575Y-76784158D01*
X126030998Y-76827783D01*
X125961500Y-76834977D01*
X125899145Y-76803454D01*
X125882425Y-76784158D01*
X125752494Y-76598597D01*
X125585402Y-76431506D01*
X125585395Y-76431501D01*
X125391834Y-76295967D01*
X125391830Y-76295965D01*
X125386085Y-76293286D01*
X125177663Y-76196097D01*
X125177659Y-76196096D01*
X125177655Y-76196094D01*
X124949413Y-76134938D01*
X124949403Y-76134936D01*
X124714001Y-76114341D01*
X124713999Y-76114341D01*
X124478596Y-76134936D01*
X124478586Y-76134938D01*
X124250344Y-76196094D01*
X124250335Y-76196098D01*
X124036171Y-76295964D01*
X124036169Y-76295965D01*
X123842597Y-76431505D01*
X123675505Y-76598597D01*
X123545575Y-76784158D01*
X123490998Y-76827783D01*
X123421500Y-76834977D01*
X123359145Y-76803454D01*
X123342425Y-76784158D01*
X123212494Y-76598597D01*
X123045402Y-76431506D01*
X123045395Y-76431501D01*
X122851834Y-76295967D01*
X122851830Y-76295965D01*
X122846085Y-76293286D01*
X122637663Y-76196097D01*
X122637659Y-76196096D01*
X122637655Y-76196094D01*
X122409413Y-76134938D01*
X122409403Y-76134936D01*
X122174001Y-76114341D01*
X122173999Y-76114341D01*
X121938596Y-76134936D01*
X121938586Y-76134938D01*
X121710344Y-76196094D01*
X121710335Y-76196098D01*
X121496171Y-76295964D01*
X121496169Y-76295965D01*
X121302597Y-76431505D01*
X121135505Y-76598597D01*
X121005575Y-76784158D01*
X120950998Y-76827783D01*
X120881500Y-76834977D01*
X120819145Y-76803454D01*
X120802425Y-76784158D01*
X120672494Y-76598597D01*
X120505402Y-76431506D01*
X120505395Y-76431501D01*
X120311834Y-76295967D01*
X120311830Y-76295965D01*
X120306085Y-76293286D01*
X120097663Y-76196097D01*
X120097659Y-76196096D01*
X120097655Y-76196094D01*
X119869413Y-76134938D01*
X119869403Y-76134936D01*
X119634001Y-76114341D01*
X119633999Y-76114341D01*
X119398596Y-76134936D01*
X119398586Y-76134938D01*
X119170344Y-76196094D01*
X119170335Y-76196098D01*
X118956171Y-76295964D01*
X118956169Y-76295965D01*
X118762597Y-76431505D01*
X118595505Y-76598597D01*
X118465575Y-76784158D01*
X118410998Y-76827783D01*
X118341500Y-76834977D01*
X118279145Y-76803454D01*
X118262425Y-76784158D01*
X118132494Y-76598597D01*
X117965402Y-76431506D01*
X117965395Y-76431501D01*
X117771834Y-76295967D01*
X117771830Y-76295965D01*
X117766085Y-76293286D01*
X117557663Y-76196097D01*
X117557659Y-76196096D01*
X117557655Y-76196094D01*
X117329413Y-76134938D01*
X117329403Y-76134936D01*
X117094001Y-76114341D01*
X117093999Y-76114341D01*
X116858596Y-76134936D01*
X116858586Y-76134938D01*
X116630344Y-76196094D01*
X116630335Y-76196098D01*
X116416171Y-76295964D01*
X116416169Y-76295965D01*
X116222597Y-76431505D01*
X116055505Y-76598597D01*
X115925575Y-76784158D01*
X115870998Y-76827783D01*
X115801500Y-76834977D01*
X115739145Y-76803454D01*
X115722425Y-76784158D01*
X115592494Y-76598597D01*
X115425402Y-76431506D01*
X115425395Y-76431501D01*
X115231834Y-76295967D01*
X115231830Y-76295965D01*
X115226085Y-76293286D01*
X115017663Y-76196097D01*
X115017659Y-76196096D01*
X115017655Y-76196094D01*
X114789413Y-76134938D01*
X114789403Y-76134936D01*
X114554001Y-76114341D01*
X114553999Y-76114341D01*
X114318596Y-76134936D01*
X114318586Y-76134938D01*
X114090344Y-76196094D01*
X114090335Y-76196098D01*
X113876171Y-76295964D01*
X113876169Y-76295965D01*
X113682597Y-76431505D01*
X113515505Y-76598597D01*
X113385575Y-76784158D01*
X113330998Y-76827783D01*
X113261500Y-76834977D01*
X113199145Y-76803454D01*
X113182425Y-76784158D01*
X113052494Y-76598597D01*
X112885402Y-76431506D01*
X112885395Y-76431501D01*
X112691834Y-76295967D01*
X112691830Y-76295965D01*
X112686085Y-76293286D01*
X112477663Y-76196097D01*
X112477659Y-76196096D01*
X112477655Y-76196094D01*
X112249413Y-76134938D01*
X112249403Y-76134936D01*
X112014001Y-76114341D01*
X112013999Y-76114341D01*
X111778596Y-76134936D01*
X111778586Y-76134938D01*
X111550344Y-76196094D01*
X111550335Y-76196098D01*
X111336171Y-76295964D01*
X111336169Y-76295965D01*
X111142597Y-76431505D01*
X110975505Y-76598597D01*
X110845575Y-76784158D01*
X110790998Y-76827783D01*
X110721500Y-76834977D01*
X110659145Y-76803454D01*
X110642425Y-76784158D01*
X110512494Y-76598597D01*
X110345402Y-76431506D01*
X110345395Y-76431501D01*
X110151831Y-76295965D01*
X110151826Y-76295962D01*
X110146091Y-76293288D01*
X110093653Y-76247113D01*
X110074500Y-76180908D01*
X110074500Y-64944945D01*
X110074500Y-64944943D01*
X110033577Y-64792216D01*
X109975749Y-64692054D01*
X109954524Y-64655290D01*
X109954518Y-64655282D01*
X109842717Y-64543481D01*
X109842709Y-64543475D01*
X109705790Y-64464426D01*
X109705786Y-64464424D01*
X109705784Y-64464423D01*
X109553057Y-64423500D01*
X109553056Y-64423500D01*
X76840301Y-64423500D01*
X76773262Y-64403815D01*
X76727507Y-64351011D01*
X76722595Y-64338504D01*
X76706271Y-64289241D01*
X76694814Y-64254666D01*
X76602712Y-64105344D01*
X76478656Y-63981288D01*
X76329334Y-63889186D01*
X76162797Y-63834001D01*
X76162795Y-63834000D01*
X76060010Y-63823500D01*
X75259998Y-63823500D01*
X75259980Y-63823501D01*
X75157203Y-63834000D01*
X75157200Y-63834001D01*
X74990668Y-63889185D01*
X74990663Y-63889187D01*
X74841342Y-63981289D01*
X74747681Y-64074951D01*
X74686358Y-64108436D01*
X74616666Y-64103452D01*
X74572319Y-64074951D01*
X74478657Y-63981289D01*
X74478656Y-63981288D01*
X74329334Y-63889186D01*
X74162797Y-63834001D01*
X74162795Y-63834000D01*
X74060010Y-63823500D01*
X73259998Y-63823500D01*
X73259980Y-63823501D01*
X73157203Y-63834000D01*
X73157200Y-63834001D01*
X72990668Y-63889185D01*
X72990663Y-63889187D01*
X72841342Y-63981289D01*
X72717289Y-64105342D01*
X72625187Y-64254663D01*
X72625185Y-64254668D01*
X72597405Y-64338504D01*
X72570001Y-64421203D01*
X72570001Y-64421204D01*
X72570000Y-64421204D01*
X72559500Y-64523983D01*
X72559500Y-65524001D01*
X72559501Y-65524019D01*
X72570000Y-65626796D01*
X72570001Y-65626799D01*
X72607237Y-65739168D01*
X72625186Y-65793334D01*
X72717288Y-65942656D01*
X72841344Y-66066712D01*
X72990666Y-66158814D01*
X72990667Y-66158814D01*
X72996813Y-66162605D01*
X72995706Y-66164399D01*
X73040337Y-66203687D01*
X73059500Y-66269908D01*
X73059500Y-68279903D01*
X73039815Y-68346942D01*
X73023181Y-68367584D01*
X68367584Y-73023181D01*
X68306261Y-73056666D01*
X68279903Y-73059500D01*
X65593865Y-73059500D01*
X65526826Y-73039815D01*
X65481071Y-72987011D01*
X65471127Y-72917853D01*
X65500152Y-72854297D01*
X65558930Y-72816523D01*
X65573456Y-72813191D01*
X65715222Y-72789534D01*
X65928781Y-72716219D01*
X65928787Y-72716217D01*
X66127372Y-72608747D01*
X66127375Y-72608745D01*
X66151676Y-72589830D01*
X65570246Y-72008400D01*
X65601542Y-72000015D01*
X65732658Y-71924315D01*
X65839715Y-71817258D01*
X65915415Y-71686142D01*
X65923800Y-71654846D01*
X66503693Y-72234740D01*
X66581987Y-72114904D01*
X66581992Y-72114896D01*
X66672692Y-71908119D01*
X66716395Y-71735543D01*
X66751935Y-71675387D01*
X66814355Y-71643995D01*
X66879934Y-71649801D01*
X66949617Y-71675791D01*
X66949616Y-71675791D01*
X66956544Y-71676535D01*
X67009227Y-71682200D01*
X68829972Y-71682199D01*
X68889583Y-71675791D01*
X69024431Y-71625496D01*
X69139646Y-71539246D01*
X69225896Y-71424031D01*
X69276191Y-71289183D01*
X69282600Y-71229573D01*
X69282599Y-69408828D01*
X69276191Y-69349217D01*
X69225896Y-69214369D01*
X69225895Y-69214368D01*
X69225893Y-69214364D01*
X69139647Y-69099155D01*
X69037361Y-69022583D01*
X68995491Y-68966649D01*
X68990507Y-68896958D01*
X69007863Y-68855497D01*
X69122431Y-68680139D01*
X69213167Y-68473282D01*
X69268618Y-68254311D01*
X69276908Y-68154261D01*
X69287271Y-68029205D01*
X69287271Y-68029194D01*
X69268618Y-67804092D01*
X69268618Y-67804089D01*
X69213167Y-67585118D01*
X69122431Y-67378261D01*
X68998885Y-67189159D01*
X68998884Y-67189157D01*
X68845901Y-67022975D01*
X68845898Y-67022972D01*
X68845895Y-67022970D01*
X68793325Y-66982052D01*
X68752513Y-66925343D01*
X68748838Y-66855570D01*
X68783470Y-66794887D01*
X68793325Y-66786347D01*
X68845898Y-66745428D01*
X68998885Y-66579241D01*
X69122431Y-66390139D01*
X69213167Y-66183282D01*
X69268618Y-65964311D01*
X69282785Y-65793336D01*
X69287271Y-65739205D01*
X69287271Y-65739194D01*
X69268618Y-65514092D01*
X69268618Y-65514089D01*
X69213167Y-65295118D01*
X69122431Y-65088261D01*
X69089778Y-65038282D01*
X68998884Y-64899157D01*
X68845901Y-64732975D01*
X68845898Y-64732972D01*
X68845895Y-64732970D01*
X68793325Y-64692052D01*
X68752513Y-64635343D01*
X68748838Y-64565570D01*
X68783470Y-64504887D01*
X68793325Y-64496347D01*
X68845898Y-64455428D01*
X68998885Y-64289241D01*
X69122431Y-64100139D01*
X69213167Y-63893282D01*
X69268618Y-63674311D01*
X69276908Y-63574261D01*
X69287271Y-63449205D01*
X69287271Y-63449194D01*
X69268618Y-63224092D01*
X69268618Y-63224089D01*
X69213167Y-63005118D01*
X69122431Y-62798261D01*
X68998885Y-62609159D01*
X68998884Y-62609157D01*
X68845901Y-62442975D01*
X68845898Y-62442972D01*
X68845895Y-62442970D01*
X68793325Y-62402052D01*
X68752513Y-62345343D01*
X68748838Y-62275570D01*
X68783470Y-62214887D01*
X68793325Y-62206347D01*
X68845898Y-62165428D01*
X68998885Y-61999241D01*
X69122431Y-61810139D01*
X69213167Y-61603282D01*
X69268618Y-61384311D01*
X69280126Y-61245429D01*
X69287271Y-61159205D01*
X69287271Y-61159194D01*
X69274051Y-60999661D01*
X69268618Y-60934089D01*
X69213167Y-60715118D01*
X69122431Y-60508261D01*
X68998885Y-60319159D01*
X68998884Y-60319157D01*
X68845901Y-60152975D01*
X68845898Y-60152972D01*
X68667642Y-60014230D01*
X68468987Y-59906723D01*
X68468979Y-59906720D01*
X68255346Y-59833379D01*
X68088241Y-59805494D01*
X68032541Y-59796200D01*
X67806659Y-59796200D01*
X67762098Y-59803635D01*
X67583853Y-59833379D01*
X67370220Y-59906720D01*
X67370212Y-59906723D01*
X67325618Y-59930857D01*
X67257290Y-59945452D01*
X67191917Y-59920789D01*
X67150256Y-59864699D01*
X67142600Y-59821802D01*
X67142600Y-59487997D01*
X67162285Y-59420958D01*
X67178919Y-59400316D01*
X67522417Y-59056819D01*
X67583740Y-59023334D01*
X67610098Y-59020500D01*
X119293331Y-59020500D01*
X119293347Y-59020501D01*
X119300943Y-59020501D01*
X119459054Y-59020501D01*
X119459057Y-59020501D01*
X119611785Y-58979577D01*
X119661904Y-58950639D01*
X119748716Y-58900520D01*
X119860520Y-58788716D01*
X119860520Y-58788714D01*
X119870728Y-58778507D01*
X119870730Y-58778504D01*
X119992506Y-58656728D01*
X119992511Y-58656724D01*
X120002714Y-58646520D01*
X120002716Y-58646520D01*
X120114520Y-58534716D01*
X120186004Y-58410901D01*
X120193577Y-58397785D01*
X120234500Y-58245058D01*
X120234500Y-58086943D01*
X120234500Y-55899090D01*
X120254185Y-55832051D01*
X120306101Y-55786706D01*
X120311830Y-55784035D01*
X120505401Y-55648495D01*
X120672495Y-55481401D01*
X120802425Y-55295842D01*
X120857002Y-55252217D01*
X120926500Y-55245023D01*
X120988855Y-55276546D01*
X121005575Y-55295842D01*
X121135500Y-55481395D01*
X121135505Y-55481401D01*
X121302599Y-55648495D01*
X121326291Y-55665084D01*
X121496165Y-55784032D01*
X121496167Y-55784033D01*
X121496170Y-55784035D01*
X121710337Y-55883903D01*
X121938592Y-55945063D01*
X122126918Y-55961539D01*
X122173999Y-55965659D01*
X122174000Y-55965659D01*
X122174001Y-55965659D01*
X122213234Y-55962226D01*
X122409408Y-55945063D01*
X122637663Y-55883903D01*
X122851830Y-55784035D01*
X123045401Y-55648495D01*
X123212495Y-55481401D01*
X123342425Y-55295842D01*
X123397002Y-55252217D01*
X123466500Y-55245023D01*
X123528855Y-55276546D01*
X123545575Y-55295842D01*
X123675500Y-55481395D01*
X123675505Y-55481401D01*
X123842599Y-55648495D01*
X123866291Y-55665084D01*
X124036165Y-55784032D01*
X124036167Y-55784033D01*
X124036170Y-55784035D01*
X124250337Y-55883903D01*
X124478592Y-55945063D01*
X124666918Y-55961539D01*
X124713999Y-55965659D01*
X124714000Y-55965659D01*
X124714001Y-55965659D01*
X124753234Y-55962226D01*
X124949408Y-55945063D01*
X125177663Y-55883903D01*
X125391830Y-55784035D01*
X125585401Y-55648495D01*
X125752495Y-55481401D01*
X125882425Y-55295842D01*
X125937002Y-55252217D01*
X126006500Y-55245023D01*
X126068855Y-55276546D01*
X126085575Y-55295842D01*
X126215500Y-55481395D01*
X126215505Y-55481401D01*
X126382599Y-55648495D01*
X126406291Y-55665084D01*
X126576165Y-55784032D01*
X126576167Y-55784033D01*
X126576170Y-55784035D01*
X126790337Y-55883903D01*
X127018592Y-55945063D01*
X127206918Y-55961539D01*
X127253999Y-55965659D01*
X127254000Y-55965659D01*
X127254001Y-55965659D01*
X127293234Y-55962226D01*
X127489408Y-55945063D01*
X127717663Y-55883903D01*
X127931830Y-55784035D01*
X128125401Y-55648495D01*
X128292495Y-55481401D01*
X128422425Y-55295842D01*
X128477002Y-55252217D01*
X128546500Y-55245023D01*
X128608855Y-55276546D01*
X128625575Y-55295842D01*
X128755500Y-55481395D01*
X128755505Y-55481401D01*
X128922599Y-55648495D01*
X128946291Y-55665084D01*
X129116165Y-55784032D01*
X129116167Y-55784033D01*
X129116170Y-55784035D01*
X129330337Y-55883903D01*
X129558592Y-55945063D01*
X129746918Y-55961539D01*
X129793999Y-55965659D01*
X129794000Y-55965659D01*
X129794001Y-55965659D01*
X129833234Y-55962226D01*
X130029408Y-55945063D01*
X130257663Y-55883903D01*
X130471830Y-55784035D01*
X130665401Y-55648495D01*
X130832495Y-55481401D01*
X130968035Y-55287830D01*
X131067903Y-55073663D01*
X131129063Y-54845408D01*
X131149659Y-54610000D01*
X131129063Y-54374592D01*
X131067903Y-54146337D01*
X130968035Y-53932171D01*
X130962425Y-53924158D01*
X130832494Y-53738597D01*
X130665402Y-53571506D01*
X130665395Y-53571501D01*
X130471834Y-53435967D01*
X130471830Y-53435965D01*
X130400727Y-53402809D01*
X130257663Y-53336097D01*
X130257659Y-53336096D01*
X130257655Y-53336094D01*
X130029413Y-53274938D01*
X130029403Y-53274936D01*
X129794001Y-53254341D01*
X129793999Y-53254341D01*
X129558596Y-53274936D01*
X129558586Y-53274938D01*
X129330344Y-53336094D01*
X129330335Y-53336098D01*
X129116171Y-53435964D01*
X129116169Y-53435965D01*
X128922597Y-53571505D01*
X128755505Y-53738597D01*
X128625575Y-53924158D01*
X128570998Y-53967783D01*
X128501500Y-53974977D01*
X128439145Y-53943454D01*
X128422425Y-53924158D01*
X128292494Y-53738597D01*
X128125402Y-53571506D01*
X128125395Y-53571501D01*
X127931834Y-53435967D01*
X127931830Y-53435965D01*
X127860727Y-53402809D01*
X127717663Y-53336097D01*
X127717659Y-53336096D01*
X127717655Y-53336094D01*
X127489413Y-53274938D01*
X127489403Y-53274936D01*
X127254001Y-53254341D01*
X127253999Y-53254341D01*
X127018596Y-53274936D01*
X127018586Y-53274938D01*
X126790344Y-53336094D01*
X126790335Y-53336098D01*
X126576171Y-53435964D01*
X126576169Y-53435965D01*
X126382597Y-53571505D01*
X126215505Y-53738597D01*
X126085575Y-53924158D01*
X126030998Y-53967783D01*
X125961500Y-53974977D01*
X125899145Y-53943454D01*
X125882425Y-53924158D01*
X125752494Y-53738597D01*
X125585402Y-53571506D01*
X125585395Y-53571501D01*
X125391834Y-53435967D01*
X125391830Y-53435965D01*
X125320727Y-53402809D01*
X125177663Y-53336097D01*
X125177659Y-53336096D01*
X125177655Y-53336094D01*
X124949413Y-53274938D01*
X124949403Y-53274936D01*
X124714001Y-53254341D01*
X124713999Y-53254341D01*
X124478596Y-53274936D01*
X124478586Y-53274938D01*
X124250344Y-53336094D01*
X124250335Y-53336098D01*
X124036171Y-53435964D01*
X124036169Y-53435965D01*
X123842597Y-53571505D01*
X123675505Y-53738597D01*
X123545575Y-53924158D01*
X123490998Y-53967783D01*
X123421500Y-53974977D01*
X123359145Y-53943454D01*
X123342425Y-53924158D01*
X123212494Y-53738597D01*
X123045402Y-53571506D01*
X123045395Y-53571501D01*
X122851834Y-53435967D01*
X122851830Y-53435965D01*
X122780727Y-53402809D01*
X122637663Y-53336097D01*
X122637659Y-53336096D01*
X122637655Y-53336094D01*
X122409413Y-53274938D01*
X122409403Y-53274936D01*
X122174001Y-53254341D01*
X122173999Y-53254341D01*
X121938596Y-53274936D01*
X121938586Y-53274938D01*
X121710344Y-53336094D01*
X121710335Y-53336098D01*
X121496171Y-53435964D01*
X121496169Y-53435965D01*
X121302597Y-53571505D01*
X121135505Y-53738597D01*
X121005575Y-53924158D01*
X120950998Y-53967783D01*
X120881500Y-53974977D01*
X120819145Y-53943454D01*
X120802425Y-53924158D01*
X120672494Y-53738597D01*
X120505402Y-53571506D01*
X120505395Y-53571501D01*
X120311834Y-53435967D01*
X120311830Y-53435965D01*
X120240727Y-53402809D01*
X120097663Y-53336097D01*
X120097659Y-53336096D01*
X120097655Y-53336094D01*
X119869413Y-53274938D01*
X119869403Y-53274936D01*
X119634001Y-53254341D01*
X119633999Y-53254341D01*
X119398596Y-53274936D01*
X119398586Y-53274938D01*
X119170344Y-53336094D01*
X119170335Y-53336098D01*
X118956171Y-53435964D01*
X118956169Y-53435965D01*
X118762597Y-53571505D01*
X118595505Y-53738597D01*
X118465575Y-53924158D01*
X118410998Y-53967783D01*
X118341500Y-53974977D01*
X118279145Y-53943454D01*
X118262425Y-53924158D01*
X118132494Y-53738597D01*
X117965402Y-53571506D01*
X117965395Y-53571501D01*
X117771834Y-53435967D01*
X117771830Y-53435965D01*
X117700727Y-53402809D01*
X117557663Y-53336097D01*
X117557659Y-53336096D01*
X117557655Y-53336094D01*
X117329413Y-53274938D01*
X117329403Y-53274936D01*
X117094001Y-53254341D01*
X117093999Y-53254341D01*
X116858596Y-53274936D01*
X116858586Y-53274938D01*
X116630344Y-53336094D01*
X116630335Y-53336098D01*
X116416171Y-53435964D01*
X116416169Y-53435965D01*
X116222597Y-53571505D01*
X116055505Y-53738597D01*
X115925575Y-53924158D01*
X115870998Y-53967783D01*
X115801500Y-53974977D01*
X115739145Y-53943454D01*
X115722425Y-53924158D01*
X115592494Y-53738597D01*
X115425402Y-53571506D01*
X115425395Y-53571501D01*
X115231834Y-53435967D01*
X115231830Y-53435965D01*
X115160727Y-53402809D01*
X115017663Y-53336097D01*
X115017659Y-53336096D01*
X115017655Y-53336094D01*
X114789413Y-53274938D01*
X114789403Y-53274936D01*
X114554001Y-53254341D01*
X114553999Y-53254341D01*
X114318596Y-53274936D01*
X114318586Y-53274938D01*
X114090344Y-53336094D01*
X114090335Y-53336098D01*
X113876171Y-53435964D01*
X113876169Y-53435965D01*
X113682597Y-53571505D01*
X113515505Y-53738597D01*
X113385575Y-53924158D01*
X113330998Y-53967783D01*
X113261500Y-53974977D01*
X113199145Y-53943454D01*
X113182425Y-53924158D01*
X113052494Y-53738597D01*
X112885402Y-53571506D01*
X112885395Y-53571501D01*
X112691834Y-53435967D01*
X112691830Y-53435965D01*
X112620727Y-53402809D01*
X112477663Y-53336097D01*
X112477659Y-53336096D01*
X112477655Y-53336094D01*
X112249413Y-53274938D01*
X112249403Y-53274936D01*
X112014001Y-53254341D01*
X112013999Y-53254341D01*
X111778596Y-53274936D01*
X111778586Y-53274938D01*
X111550344Y-53336094D01*
X111550335Y-53336098D01*
X111336171Y-53435964D01*
X111336169Y-53435965D01*
X111142597Y-53571505D01*
X110975505Y-53738597D01*
X110845575Y-53924158D01*
X110790998Y-53967783D01*
X110721500Y-53974977D01*
X110659145Y-53943454D01*
X110642425Y-53924158D01*
X110512494Y-53738597D01*
X110345402Y-53571506D01*
X110345395Y-53571501D01*
X110151834Y-53435967D01*
X110151830Y-53435965D01*
X110080727Y-53402809D01*
X109937663Y-53336097D01*
X109937659Y-53336096D01*
X109937655Y-53336094D01*
X109709413Y-53274938D01*
X109709403Y-53274936D01*
X109474001Y-53254341D01*
X109473999Y-53254341D01*
X109238596Y-53274936D01*
X109238586Y-53274938D01*
X109010344Y-53336094D01*
X109010335Y-53336098D01*
X108796171Y-53435964D01*
X108796169Y-53435965D01*
X108602597Y-53571505D01*
X108435505Y-53738597D01*
X108305575Y-53924158D01*
X108250998Y-53967783D01*
X108181500Y-53974977D01*
X108119145Y-53943454D01*
X108102425Y-53924158D01*
X107972494Y-53738597D01*
X107805402Y-53571506D01*
X107805395Y-53571501D01*
X107611834Y-53435967D01*
X107611830Y-53435965D01*
X107540727Y-53402809D01*
X107397663Y-53336097D01*
X107397659Y-53336096D01*
X107397655Y-53336094D01*
X107169413Y-53274938D01*
X107169403Y-53274936D01*
X106934001Y-53254341D01*
X106933999Y-53254341D01*
X106698596Y-53274936D01*
X106698586Y-53274938D01*
X106470344Y-53336094D01*
X106470335Y-53336098D01*
X106256171Y-53435964D01*
X106256169Y-53435965D01*
X106062597Y-53571505D01*
X105895505Y-53738597D01*
X105765575Y-53924158D01*
X105710998Y-53967783D01*
X105641500Y-53974977D01*
X105579145Y-53943454D01*
X105562425Y-53924158D01*
X105432494Y-53738597D01*
X105265402Y-53571506D01*
X105265395Y-53571501D01*
X105071834Y-53435967D01*
X105071830Y-53435965D01*
X105000727Y-53402809D01*
X104857663Y-53336097D01*
X104857659Y-53336096D01*
X104857655Y-53336094D01*
X104629413Y-53274938D01*
X104629403Y-53274936D01*
X104394001Y-53254341D01*
X104393999Y-53254341D01*
X104158596Y-53274936D01*
X104158586Y-53274938D01*
X103930344Y-53336094D01*
X103930335Y-53336098D01*
X103716171Y-53435964D01*
X103716169Y-53435965D01*
X103522597Y-53571505D01*
X103355505Y-53738597D01*
X103225575Y-53924158D01*
X103170998Y-53967783D01*
X103101500Y-53974977D01*
X103039145Y-53943454D01*
X103022425Y-53924158D01*
X102892494Y-53738597D01*
X102725402Y-53571506D01*
X102725395Y-53571501D01*
X102531834Y-53435967D01*
X102531830Y-53435965D01*
X102460727Y-53402809D01*
X102317663Y-53336097D01*
X102317659Y-53336096D01*
X102317655Y-53336094D01*
X102089413Y-53274938D01*
X102089403Y-53274936D01*
X101854001Y-53254341D01*
X101853999Y-53254341D01*
X101618596Y-53274936D01*
X101618586Y-53274938D01*
X101390344Y-53336094D01*
X101390335Y-53336098D01*
X101176171Y-53435964D01*
X101176169Y-53435965D01*
X100982597Y-53571505D01*
X100815505Y-53738597D01*
X100685575Y-53924158D01*
X100630998Y-53967783D01*
X100561500Y-53974977D01*
X100499145Y-53943454D01*
X100482425Y-53924158D01*
X100352494Y-53738597D01*
X100185402Y-53571506D01*
X100185395Y-53571501D01*
X99991834Y-53435967D01*
X99991830Y-53435965D01*
X99920727Y-53402809D01*
X99777663Y-53336097D01*
X99777659Y-53336096D01*
X99777655Y-53336094D01*
X99549413Y-53274938D01*
X99549403Y-53274936D01*
X99314001Y-53254341D01*
X99313999Y-53254341D01*
X99078596Y-53274936D01*
X99078586Y-53274938D01*
X98850344Y-53336094D01*
X98850335Y-53336098D01*
X98636171Y-53435964D01*
X98636169Y-53435965D01*
X98442597Y-53571505D01*
X98275505Y-53738597D01*
X98145575Y-53924158D01*
X98090998Y-53967783D01*
X98021500Y-53974977D01*
X97959145Y-53943454D01*
X97942425Y-53924158D01*
X97812494Y-53738597D01*
X97645402Y-53571506D01*
X97645395Y-53571501D01*
X97451834Y-53435967D01*
X97451830Y-53435965D01*
X97380727Y-53402809D01*
X97237663Y-53336097D01*
X97237659Y-53336096D01*
X97237655Y-53336094D01*
X97009413Y-53274938D01*
X97009403Y-53274936D01*
X96774001Y-53254341D01*
X96773999Y-53254341D01*
X96538596Y-53274936D01*
X96538586Y-53274938D01*
X96310344Y-53336094D01*
X96310335Y-53336098D01*
X96096171Y-53435964D01*
X96096169Y-53435965D01*
X95902597Y-53571505D01*
X95735505Y-53738597D01*
X95605575Y-53924158D01*
X95550998Y-53967783D01*
X95481500Y-53974977D01*
X95419145Y-53943454D01*
X95402425Y-53924158D01*
X95272494Y-53738597D01*
X95105402Y-53571506D01*
X95105395Y-53571501D01*
X94911834Y-53435967D01*
X94911830Y-53435965D01*
X94840727Y-53402809D01*
X94697663Y-53336097D01*
X94697659Y-53336096D01*
X94697655Y-53336094D01*
X94469413Y-53274938D01*
X94469403Y-53274936D01*
X94234001Y-53254341D01*
X94233999Y-53254341D01*
X93998596Y-53274936D01*
X93998586Y-53274938D01*
X93770344Y-53336094D01*
X93770335Y-53336098D01*
X93556171Y-53435964D01*
X93556169Y-53435965D01*
X93362597Y-53571505D01*
X93195505Y-53738597D01*
X93065575Y-53924158D01*
X93010998Y-53967783D01*
X92941500Y-53974977D01*
X92879145Y-53943454D01*
X92862425Y-53924158D01*
X92732494Y-53738597D01*
X92565402Y-53571506D01*
X92565395Y-53571501D01*
X92371834Y-53435967D01*
X92371830Y-53435965D01*
X92300727Y-53402809D01*
X92157663Y-53336097D01*
X92157659Y-53336096D01*
X92157655Y-53336094D01*
X91929413Y-53274938D01*
X91929403Y-53274936D01*
X91694001Y-53254341D01*
X91693999Y-53254341D01*
X91458596Y-53274936D01*
X91458586Y-53274938D01*
X91230344Y-53336094D01*
X91230335Y-53336098D01*
X91016171Y-53435964D01*
X91016169Y-53435965D01*
X90822597Y-53571505D01*
X90655505Y-53738597D01*
X90525575Y-53924158D01*
X90470998Y-53967783D01*
X90401500Y-53974977D01*
X90339145Y-53943454D01*
X90322425Y-53924158D01*
X90192494Y-53738597D01*
X90025402Y-53571506D01*
X90025395Y-53571501D01*
X89831834Y-53435967D01*
X89831830Y-53435965D01*
X89760727Y-53402809D01*
X89617663Y-53336097D01*
X89617659Y-53336096D01*
X89617655Y-53336094D01*
X89389413Y-53274938D01*
X89389403Y-53274936D01*
X89154001Y-53254341D01*
X89153999Y-53254341D01*
X88918596Y-53274936D01*
X88918586Y-53274938D01*
X88690344Y-53336094D01*
X88690335Y-53336098D01*
X88476171Y-53435964D01*
X88476169Y-53435965D01*
X88282597Y-53571505D01*
X88115505Y-53738597D01*
X87985575Y-53924158D01*
X87930998Y-53967783D01*
X87861500Y-53974977D01*
X87799145Y-53943454D01*
X87782425Y-53924158D01*
X87652494Y-53738597D01*
X87485402Y-53571506D01*
X87485395Y-53571501D01*
X87291834Y-53435967D01*
X87291830Y-53435965D01*
X87220727Y-53402809D01*
X87077663Y-53336097D01*
X87077659Y-53336096D01*
X87077655Y-53336094D01*
X86849413Y-53274938D01*
X86849403Y-53274936D01*
X86614001Y-53254341D01*
X86613999Y-53254341D01*
X86378596Y-53274936D01*
X86378586Y-53274938D01*
X86150344Y-53336094D01*
X86150335Y-53336098D01*
X85936171Y-53435964D01*
X85936169Y-53435965D01*
X85742597Y-53571505D01*
X85575505Y-53738597D01*
X85445575Y-53924158D01*
X85390998Y-53967783D01*
X85321500Y-53974977D01*
X85259145Y-53943454D01*
X85242425Y-53924158D01*
X85112494Y-53738597D01*
X84945402Y-53571506D01*
X84945395Y-53571501D01*
X84751834Y-53435967D01*
X84751830Y-53435965D01*
X84680727Y-53402809D01*
X84537663Y-53336097D01*
X84537659Y-53336096D01*
X84537655Y-53336094D01*
X84309413Y-53274938D01*
X84309403Y-53274936D01*
X84074001Y-53254341D01*
X84073999Y-53254341D01*
X83838596Y-53274936D01*
X83838586Y-53274938D01*
X83610344Y-53336094D01*
X83610335Y-53336098D01*
X83396171Y-53435964D01*
X83396169Y-53435965D01*
X83202600Y-53571503D01*
X83080284Y-53693819D01*
X83018961Y-53727303D01*
X82949269Y-53722319D01*
X82893336Y-53680447D01*
X82876421Y-53649470D01*
X82827354Y-53517913D01*
X82827350Y-53517906D01*
X82741190Y-53402812D01*
X82741187Y-53402809D01*
X82626093Y-53316649D01*
X82626086Y-53316645D01*
X82491379Y-53266403D01*
X82491372Y-53266401D01*
X82431844Y-53260000D01*
X81784000Y-53260000D01*
X81784000Y-54176988D01*
X81726993Y-54144075D01*
X81599826Y-54110000D01*
X81468174Y-54110000D01*
X81341007Y-54144075D01*
X81284000Y-54176988D01*
X81284000Y-53260000D01*
X80636155Y-53260000D01*
X80576627Y-53266401D01*
X80576620Y-53266403D01*
X80441913Y-53316645D01*
X80441906Y-53316649D01*
X80326812Y-53402809D01*
X80326809Y-53402812D01*
X80240649Y-53517906D01*
X80240645Y-53517913D01*
X80190403Y-53652620D01*
X80190401Y-53652627D01*
X80184000Y-53712155D01*
X80184000Y-54360000D01*
X81100988Y-54360000D01*
X81068075Y-54417007D01*
X81034000Y-54544174D01*
X81034000Y-54675826D01*
X81068075Y-54802993D01*
X81100988Y-54860000D01*
X80184000Y-54860000D01*
X80184000Y-55507844D01*
X80190401Y-55567372D01*
X80190403Y-55567379D01*
X80240645Y-55702086D01*
X80240649Y-55702093D01*
X80326809Y-55817187D01*
X80326812Y-55817190D01*
X80441906Y-55903350D01*
X80441913Y-55903354D01*
X80576620Y-55953596D01*
X80576627Y-55953598D01*
X80636155Y-55959999D01*
X80636172Y-55960000D01*
X81284000Y-55960000D01*
X81284000Y-55043012D01*
X81341007Y-55075925D01*
X81468174Y-55110000D01*
X81599826Y-55110000D01*
X81726993Y-55075925D01*
X81784000Y-55043012D01*
X81784000Y-55960000D01*
X82431828Y-55960000D01*
X82431844Y-55959999D01*
X82491372Y-55953598D01*
X82491379Y-55953596D01*
X82626086Y-55903354D01*
X82626093Y-55903350D01*
X82741187Y-55817190D01*
X82741190Y-55817187D01*
X82827350Y-55702093D01*
X82827354Y-55702086D01*
X82876422Y-55570529D01*
X82918293Y-55514595D01*
X82983757Y-55490178D01*
X83052030Y-55505030D01*
X83080285Y-55526181D01*
X83202599Y-55648495D01*
X83226291Y-55665084D01*
X83396165Y-55784032D01*
X83396167Y-55784033D01*
X83396170Y-55784035D01*
X83610337Y-55883903D01*
X83838592Y-55945063D01*
X84026918Y-55961539D01*
X84073999Y-55965659D01*
X84074000Y-55965659D01*
X84074001Y-55965659D01*
X84113234Y-55962226D01*
X84309408Y-55945063D01*
X84537663Y-55883903D01*
X84751830Y-55784035D01*
X84945401Y-55648495D01*
X85112495Y-55481401D01*
X85242425Y-55295842D01*
X85297002Y-55252217D01*
X85366500Y-55245023D01*
X85428855Y-55276546D01*
X85445575Y-55295842D01*
X85575500Y-55481395D01*
X85575505Y-55481401D01*
X85742599Y-55648495D01*
X85766291Y-55665084D01*
X85936165Y-55784032D01*
X85936167Y-55784033D01*
X85936170Y-55784035D01*
X86150337Y-55883903D01*
X86378592Y-55945063D01*
X86566918Y-55961539D01*
X86613999Y-55965659D01*
X86614000Y-55965659D01*
X86614001Y-55965659D01*
X86653234Y-55962226D01*
X86849408Y-55945063D01*
X87077663Y-55883903D01*
X87291830Y-55784035D01*
X87485401Y-55648495D01*
X87652495Y-55481401D01*
X87782425Y-55295842D01*
X87837002Y-55252217D01*
X87906500Y-55245023D01*
X87968855Y-55276546D01*
X87985575Y-55295842D01*
X88115500Y-55481395D01*
X88115505Y-55481401D01*
X88282599Y-55648495D01*
X88306291Y-55665084D01*
X88476165Y-55784032D01*
X88476167Y-55784033D01*
X88476170Y-55784035D01*
X88690337Y-55883903D01*
X88918592Y-55945063D01*
X89106918Y-55961539D01*
X89153999Y-55965659D01*
X89154000Y-55965659D01*
X89154001Y-55965659D01*
X89193234Y-55962226D01*
X89389408Y-55945063D01*
X89617663Y-55883903D01*
X89831830Y-55784035D01*
X90025401Y-55648495D01*
X90192495Y-55481401D01*
X90322425Y-55295842D01*
X90377002Y-55252217D01*
X90446500Y-55245023D01*
X90508855Y-55276546D01*
X90525575Y-55295842D01*
X90655500Y-55481395D01*
X90655505Y-55481401D01*
X90822599Y-55648495D01*
X90846291Y-55665084D01*
X91016165Y-55784032D01*
X91016167Y-55784033D01*
X91016170Y-55784035D01*
X91230337Y-55883903D01*
X91458592Y-55945063D01*
X91646918Y-55961539D01*
X91693999Y-55965659D01*
X91694000Y-55965659D01*
X91694001Y-55965659D01*
X91733234Y-55962226D01*
X91929408Y-55945063D01*
X92157663Y-55883903D01*
X92371830Y-55784035D01*
X92565401Y-55648495D01*
X92732495Y-55481401D01*
X92862425Y-55295842D01*
X92917002Y-55252217D01*
X92986500Y-55245023D01*
X93048855Y-55276546D01*
X93065575Y-55295842D01*
X93195500Y-55481395D01*
X93195505Y-55481401D01*
X93362599Y-55648495D01*
X93386291Y-55665084D01*
X93556165Y-55784032D01*
X93556167Y-55784033D01*
X93556170Y-55784035D01*
X93770337Y-55883903D01*
X93998592Y-55945063D01*
X94186918Y-55961539D01*
X94233999Y-55965659D01*
X94234000Y-55965659D01*
X94234001Y-55965659D01*
X94273234Y-55962226D01*
X94469408Y-55945063D01*
X94697663Y-55883903D01*
X94911830Y-55784035D01*
X95105401Y-55648495D01*
X95272495Y-55481401D01*
X95402425Y-55295842D01*
X95457002Y-55252217D01*
X95526500Y-55245023D01*
X95588855Y-55276546D01*
X95605575Y-55295842D01*
X95735500Y-55481395D01*
X95735505Y-55481401D01*
X95902599Y-55648495D01*
X95926291Y-55665084D01*
X96096165Y-55784032D01*
X96096167Y-55784033D01*
X96096170Y-55784035D01*
X96310337Y-55883903D01*
X96538592Y-55945063D01*
X96726918Y-55961539D01*
X96773999Y-55965659D01*
X96774000Y-55965659D01*
X96774001Y-55965659D01*
X96813234Y-55962226D01*
X97009408Y-55945063D01*
X97237663Y-55883903D01*
X97451830Y-55784035D01*
X97645401Y-55648495D01*
X97812495Y-55481401D01*
X97942425Y-55295842D01*
X97997002Y-55252217D01*
X98066500Y-55245023D01*
X98128855Y-55276546D01*
X98145575Y-55295842D01*
X98275500Y-55481395D01*
X98275505Y-55481401D01*
X98442599Y-55648495D01*
X98466291Y-55665084D01*
X98636165Y-55784032D01*
X98636167Y-55784033D01*
X98636170Y-55784035D01*
X98850337Y-55883903D01*
X99078592Y-55945063D01*
X99266918Y-55961539D01*
X99313999Y-55965659D01*
X99314000Y-55965659D01*
X99314001Y-55965659D01*
X99353234Y-55962226D01*
X99549408Y-55945063D01*
X99777663Y-55883903D01*
X99991830Y-55784035D01*
X100185401Y-55648495D01*
X100352495Y-55481401D01*
X100482425Y-55295842D01*
X100537002Y-55252217D01*
X100606500Y-55245023D01*
X100668855Y-55276546D01*
X100685575Y-55295842D01*
X100815500Y-55481395D01*
X100815505Y-55481401D01*
X100982599Y-55648495D01*
X101006291Y-55665084D01*
X101176165Y-55784032D01*
X101176167Y-55784033D01*
X101176170Y-55784035D01*
X101390337Y-55883903D01*
X101618592Y-55945063D01*
X101806918Y-55961539D01*
X101853999Y-55965659D01*
X101854000Y-55965659D01*
X101854001Y-55965659D01*
X101893234Y-55962226D01*
X102089408Y-55945063D01*
X102317663Y-55883903D01*
X102531830Y-55784035D01*
X102725401Y-55648495D01*
X102892495Y-55481401D01*
X103022425Y-55295842D01*
X103077002Y-55252217D01*
X103146500Y-55245023D01*
X103208855Y-55276546D01*
X103225575Y-55295842D01*
X103355500Y-55481395D01*
X103355505Y-55481401D01*
X103522599Y-55648495D01*
X103546291Y-55665084D01*
X103716165Y-55784032D01*
X103716167Y-55784033D01*
X103716170Y-55784035D01*
X103930337Y-55883903D01*
X104158592Y-55945063D01*
X104346918Y-55961539D01*
X104393999Y-55965659D01*
X104394000Y-55965659D01*
X104394001Y-55965659D01*
X104433234Y-55962226D01*
X104629408Y-55945063D01*
X104857663Y-55883903D01*
X105071830Y-55784035D01*
X105265401Y-55648495D01*
X105432495Y-55481401D01*
X105562425Y-55295842D01*
X105617002Y-55252217D01*
X105686500Y-55245023D01*
X105748855Y-55276546D01*
X105765575Y-55295842D01*
X105895500Y-55481395D01*
X105895505Y-55481401D01*
X106062599Y-55648495D01*
X106086291Y-55665084D01*
X106256165Y-55784032D01*
X106256167Y-55784033D01*
X106256170Y-55784035D01*
X106470337Y-55883903D01*
X106698592Y-55945063D01*
X106886918Y-55961539D01*
X106933999Y-55965659D01*
X106934000Y-55965659D01*
X106934001Y-55965659D01*
X106973234Y-55962226D01*
X107169408Y-55945063D01*
X107397663Y-55883903D01*
X107611830Y-55784035D01*
X107805401Y-55648495D01*
X107972495Y-55481401D01*
X108102425Y-55295842D01*
X108157002Y-55252217D01*
X108226500Y-55245023D01*
X108288855Y-55276546D01*
X108305575Y-55295842D01*
X108435500Y-55481395D01*
X108435505Y-55481401D01*
X108602599Y-55648495D01*
X108626291Y-55665084D01*
X108796165Y-55784032D01*
X108796167Y-55784033D01*
X108796170Y-55784035D01*
X109010337Y-55883903D01*
X109238592Y-55945063D01*
X109426918Y-55961539D01*
X109473999Y-55965659D01*
X109474000Y-55965659D01*
X109474001Y-55965659D01*
X109513234Y-55962226D01*
X109709408Y-55945063D01*
X109937663Y-55883903D01*
X110151830Y-55784035D01*
X110345401Y-55648495D01*
X110512495Y-55481401D01*
X110642425Y-55295842D01*
X110697002Y-55252217D01*
X110766500Y-55245023D01*
X110828855Y-55276546D01*
X110845575Y-55295842D01*
X110975500Y-55481395D01*
X110975505Y-55481401D01*
X111142599Y-55648495D01*
X111166291Y-55665084D01*
X111336165Y-55784032D01*
X111336167Y-55784033D01*
X111336170Y-55784035D01*
X111341898Y-55786706D01*
X111394339Y-55832872D01*
X111413500Y-55899090D01*
X111413500Y-56425500D01*
X111393815Y-56492539D01*
X111341011Y-56538294D01*
X111289500Y-56549500D01*
X63586670Y-56549500D01*
X63586654Y-56549499D01*
X63579058Y-56549499D01*
X63420943Y-56549499D01*
X63344579Y-56569961D01*
X63268214Y-56590423D01*
X63268209Y-56590426D01*
X63131290Y-56669475D01*
X63131282Y-56669481D01*
X62359081Y-57441682D01*
X62359080Y-57441684D01*
X62314606Y-57518716D01*
X62280023Y-57578615D01*
X62239099Y-57731343D01*
X62239099Y-57731345D01*
X62239099Y-57899446D01*
X62239100Y-57899459D01*
X62239100Y-59860495D01*
X62219415Y-59927534D01*
X62174119Y-59969549D01*
X62091560Y-60014228D01*
X62091558Y-60014229D01*
X61913301Y-60152972D01*
X61913298Y-60152975D01*
X61760315Y-60319157D01*
X61636768Y-60508261D01*
X61546033Y-60715117D01*
X61490581Y-60934092D01*
X61471929Y-61159194D01*
X54373900Y-61159194D01*
X54373900Y-51119700D01*
X54393585Y-51052661D01*
X54446389Y-51006906D01*
X54497900Y-50995700D01*
X63978296Y-50995700D01*
X64045335Y-51015385D01*
G37*
G04 #@! TD.AperFunction*
M02*
