<?xml version="1.0" standalone="no"?>
 <!DOCTYPE svg PUBLIC "-//W3C//DTD SVG 1.1//EN" 
 "http://www.w3.org/Graphics/SVG/1.1/DTD/svg11.dtd"> 
<svg
  xmlns:svg="http://www.w3.org/2000/svg"
  xmlns="http://www.w3.org/2000/svg"
  xmlns:xlink="http://www.w3.org/1999/xlink"
  version="1.1"
  width="50.8000mm" height="25.4000mm" viewBox="0.0000 0.0000 50.8000 25.4000">

  <desc>Image generated by Eeschema-SVG </desc>
<g style="fill:#000000; fill-opacity:1.0000;stroke:#000000; stroke-opacity:1.0000;
stroke-linecap:round; stroke-linejoin:round;"
 transform="translate(0 0) scale(1 1)">
</g>
<g style="fill:none; 
stroke:#840000; stroke-width:0.1524; stroke-opacity:1; 
stroke-linecap:round; stroke-linejoin:round;">
<rect x="1.270000" y="5.080000" width="33.020000" height="11.430000" rx="0.000000" />
</g>
<g style="fill:none; 
stroke:#840000; stroke-width:0.1524; stroke-opacity:1; 
stroke-linecap:round; stroke-linejoin:round;">
<rect x="1.270000" y="5.080000" width="33.020000" height="11.430000" rx="0.000000" />
</g>
<g style="fill:none; 
stroke:#006464; stroke-width:0.1524; stroke-opacity:1; 
stroke-linecap:round; stroke-linejoin:round;">
<text x="32.8295" y="8.2550"
textLength="27.5384" font-size="1.6933" lengthAdjust="spacingAndGlyphs"
text-anchor="end" opacity="0" stroke-opacity="0">GPIO_L7_C7_M5/BOARD_ID_2</text>
<g class="stroked-text"><desc>GPIO_L7_C7_M5/BOARD_ID_2</desc>
<path d="M6.3617 6.9900
L6.2407 6.9295
" />
<path d="M6.2407 6.9295
L6.0593 6.9295
" />
<path d="M6.0593 6.9295
L5.8779 6.9900
" />
<path d="M5.8779 6.9900
L5.7569 7.1110
" />
<path d="M5.7569 7.1110
L5.6964 7.2319
" />
<path d="M5.6964 7.2319
L5.6360 7.4738
" />
<path d="M5.6360 7.4738
L5.6360 7.6552
" />
<path d="M5.6360 7.6552
L5.6964 7.8971
" />
<path d="M5.6964 7.8971
L5.7569 8.0181
" />
<path d="M5.7569 8.0181
L5.8779 8.1391
" />
<path d="M5.8779 8.1391
L6.0593 8.1995
" />
<path d="M6.0593 8.1995
L6.1802 8.1995
" />
<path d="M6.1802 8.1995
L6.3617 8.1391
" />
<path d="M6.3617 8.1391
L6.4221 8.0786
" />
<path d="M6.4221 8.0786
L6.4221 7.6552
" />
<path d="M6.4221 7.6552
L6.1802 7.6552
" />
<path d="M6.9664 8.1995
L6.9664 6.9295
" />
<path d="M6.9664 6.9295
L7.4502 6.9295
" />
<path d="M7.4502 6.9295
L7.5712 6.9900
" />
<path d="M7.5712 6.9900
L7.6317 7.0505
" />
<path d="M7.6317 7.0505
L7.6921 7.1714
" />
<path d="M7.6921 7.1714
L7.6921 7.3529
" />
<path d="M7.6921 7.3529
L7.6317 7.4738
" />
<path d="M7.6317 7.4738
L7.5712 7.5343
" />
<path d="M7.5712 7.5343
L7.4502 7.5948
" />
<path d="M7.4502 7.5948
L6.9664 7.5948
" />
<path d="M8.2364 8.1995
L8.2364 6.9295
" />
<path d="M9.0831 6.9295
L9.3250 6.9295
" />
<path d="M9.3250 6.9295
L9.4460 6.9900
" />
<path d="M9.4460 6.9900
L9.5669 7.1110
" />
<path d="M9.5669 7.1110
L9.6274 7.3529
" />
<path d="M9.6274 7.3529
L9.6274 7.7762
" />
<path d="M9.6274 7.7762
L9.5669 8.0181
" />
<path d="M9.5669 8.0181
L9.4460 8.1391
" />
<path d="M9.4460 8.1391
L9.3250 8.1995
" />
<path d="M9.3250 8.1995
L9.0831 8.1995
" />
<path d="M9.0831 8.1995
L8.9622 8.1391
" />
<path d="M8.9622 8.1391
L8.8412 8.0181
" />
<path d="M8.8412 8.0181
L8.7808 7.7762
" />
<path d="M8.7808 7.7762
L8.7808 7.3529
" />
<path d="M8.7808 7.3529
L8.8412 7.1110
" />
<path d="M8.8412 7.1110
L8.9622 6.9900
" />
<path d="M8.9622 6.9900
L9.0831 6.9295
" />
<path d="M9.8694 8.3205
L10.8370 8.3205
" />
<path d="M11.7441 8.1995
L11.1393 8.1995
" />
<path d="M11.1393 8.1995
L11.1393 6.9295
" />
<path d="M12.0465 6.9295
L12.8931 6.9295
" />
<path d="M12.8931 6.9295
L12.3489 8.1995
" />
<path d="M13.0746 8.3205
L14.0422 8.3205
" />
<path d="M15.0702 8.0786
L15.0098 8.1391
" />
<path d="M15.0098 8.1391
L14.8283 8.1995
" />
<path d="M14.8283 8.1995
L14.7074 8.1995
" />
<path d="M14.7074 8.1995
L14.5260 8.1391
" />
<path d="M14.5260 8.1391
L14.4050 8.0181
" />
<path d="M14.4050 8.0181
L14.3445 7.8971
" />
<path d="M14.3445 7.8971
L14.2841 7.6552
" />
<path d="M14.2841 7.6552
L14.2841 7.4738
" />
<path d="M14.2841 7.4738
L14.3445 7.2319
" />
<path d="M14.3445 7.2319
L14.4050 7.1110
" />
<path d="M14.4050 7.1110
L14.5260 6.9900
" />
<path d="M14.5260 6.9900
L14.7074 6.9295
" />
<path d="M14.7074 6.9295
L14.8283 6.9295
" />
<path d="M14.8283 6.9295
L15.0098 6.9900
" />
<path d="M15.0098 6.9900
L15.0702 7.0505
" />
<path d="M15.4936 6.9295
L16.3402 6.9295
" />
<path d="M16.3402 6.9295
L15.7960 8.1995
" />
<path d="M16.5217 8.3205
L17.4893 8.3205
" />
<path d="M17.7916 8.1995
L17.7916 6.9295
" />
<path d="M17.7916 6.9295
L18.2150 7.8367
" />
<path d="M18.2150 7.8367
L18.6383 6.9295
" />
<path d="M18.6383 6.9295
L18.6383 8.1995
" />
<path d="M19.8478 6.9295
L19.2430 6.9295
" />
<path d="M19.2430 6.9295
L19.1826 7.5343
" />
<path d="M19.1826 7.5343
L19.2430 7.4738
" />
<path d="M19.2430 7.4738
L19.3640 7.4133
" />
<path d="M19.3640 7.4133
L19.6664 7.4133
" />
<path d="M19.6664 7.4133
L19.7873 7.4738
" />
<path d="M19.7873 7.4738
L19.8478 7.5343
" />
<path d="M19.8478 7.5343
L19.9083 7.6552
" />
<path d="M19.9083 7.6552
L19.9083 7.9576
" />
<path d="M19.9083 7.9576
L19.8478 8.0786
" />
<path d="M19.8478 8.0786
L19.7873 8.1391
" />
<path d="M19.7873 8.1391
L19.6664 8.1995
" />
<path d="M19.6664 8.1995
L19.3640 8.1995
" />
<path d="M19.3640 8.1995
L19.2430 8.1391
" />
<path d="M19.2430 8.1391
L19.1826 8.0786
" />
<path d="M21.3597 6.8691
L20.2711 8.5019
" />
<path d="M22.2064 7.5343
L22.3878 7.5948
" />
<path d="M22.3878 7.5948
L22.4483 7.6552
" />
<path d="M22.4483 7.6552
L22.5087 7.7762
" />
<path d="M22.5087 7.7762
L22.5087 7.9576
" />
<path d="M22.5087 7.9576
L22.4483 8.0786
" />
<path d="M22.4483 8.0786
L22.3878 8.1391
" />
<path d="M22.3878 8.1391
L22.2668 8.1995
" />
<path d="M22.2668 8.1995
L21.7830 8.1995
" />
<path d="M21.7830 8.1995
L21.7830 6.9295
" />
<path d="M21.7830 6.9295
L22.2064 6.9295
" />
<path d="M22.2064 6.9295
L22.3273 6.9900
" />
<path d="M22.3273 6.9900
L22.3878 7.0505
" />
<path d="M22.3878 7.0505
L22.4483 7.1714
" />
<path d="M22.4483 7.1714
L22.4483 7.2924
" />
<path d="M22.4483 7.2924
L22.3878 7.4133
" />
<path d="M22.3878 7.4133
L22.3273 7.4738
" />
<path d="M22.3273 7.4738
L22.2064 7.5343
" />
<path d="M22.2064 7.5343
L21.7830 7.5343
" />
<path d="M23.2949 6.9295
L23.5368 6.9295
" />
<path d="M23.5368 6.9295
L23.6578 6.9900
" />
<path d="M23.6578 6.9900
L23.7787 7.1110
" />
<path d="M23.7787 7.1110
L23.8392 7.3529
" />
<path d="M23.8392 7.3529
L23.8392 7.7762
" />
<path d="M23.8392 7.7762
L23.7787 8.0181
" />
<path d="M23.7787 8.0181
L23.6578 8.1391
" />
<path d="M23.6578 8.1391
L23.5368 8.1995
" />
<path d="M23.5368 8.1995
L23.2949 8.1995
" />
<path d="M23.2949 8.1995
L23.1740 8.1391
" />
<path d="M23.1740 8.1391
L23.0530 8.0181
" />
<path d="M23.0530 8.0181
L22.9926 7.7762
" />
<path d="M22.9926 7.7762
L22.9926 7.3529
" />
<path d="M22.9926 7.3529
L23.0530 7.1110
" />
<path d="M23.0530 7.1110
L23.1740 6.9900
" />
<path d="M23.1740 6.9900
L23.2949 6.9295
" />
<path d="M24.3231 7.8367
L24.9278 7.8367
" />
<path d="M24.2021 8.1995
L24.6254 6.9295
" />
<path d="M24.6254 6.9295
L25.0488 8.1995
" />
<path d="M26.1978 8.1995
L25.7745 7.5948
" />
<path d="M25.4721 8.1995
L25.4721 6.9295
" />
<path d="M25.4721 6.9295
L25.9559 6.9295
" />
<path d="M25.9559 6.9295
L26.0769 6.9900
" />
<path d="M26.0769 6.9900
L26.1374 7.0505
" />
<path d="M26.1374 7.0505
L26.1978 7.1714
" />
<path d="M26.1978 7.1714
L26.1978 7.3529
" />
<path d="M26.1978 7.3529
L26.1374 7.4738
" />
<path d="M26.1374 7.4738
L26.0769 7.5343
" />
<path d="M26.0769 7.5343
L25.9559 7.5948
" />
<path d="M25.9559 7.5948
L25.4721 7.5948
" />
<path d="M26.7421 8.1995
L26.7421 6.9295
" />
<path d="M26.7421 6.9295
L27.0445 6.9295
" />
<path d="M27.0445 6.9295
L27.2259 6.9900
" />
<path d="M27.2259 6.9900
L27.3469 7.1110
" />
<path d="M27.3469 7.1110
L27.4074 7.2319
" />
<path d="M27.4074 7.2319
L27.4678 7.4738
" />
<path d="M27.4678 7.4738
L27.4678 7.6552
" />
<path d="M27.4678 7.6552
L27.4074 7.8971
" />
<path d="M27.4074 7.8971
L27.3469 8.0181
" />
<path d="M27.3469 8.0181
L27.2259 8.1391
" />
<path d="M27.2259 8.1391
L27.0445 8.1995
" />
<path d="M27.0445 8.1995
L26.7421 8.1995
" />
<path d="M27.7098 8.3205
L28.6774 8.3205
" />
<path d="M28.9797 8.1995
L28.9797 6.9295
" />
<path d="M29.5845 8.1995
L29.5845 6.9295
" />
<path d="M29.5845 6.9295
L29.8869 6.9295
" />
<path d="M29.8869 6.9295
L30.0683 6.9900
" />
<path d="M30.0683 6.9900
L30.1893 7.1110
" />
<path d="M30.1893 7.1110
L30.2498 7.2319
" />
<path d="M30.2498 7.2319
L30.3102 7.4738
" />
<path d="M30.3102 7.4738
L30.3102 7.6552
" />
<path d="M30.3102 7.6552
L30.2498 7.8971
" />
<path d="M30.2498 7.8971
L30.1893 8.0181
" />
<path d="M30.1893 8.0181
L30.0683 8.1391
" />
<path d="M30.0683 8.1391
L29.8869 8.1995
" />
<path d="M29.8869 8.1995
L29.5845 8.1995
" />
<path d="M30.5522 8.3205
L31.5198 8.3205
" />
<path d="M31.7617 7.0505
L31.8221 6.9900
" />
<path d="M31.8221 6.9900
L31.9431 6.9295
" />
<path d="M31.9431 6.9295
L32.2455 6.9295
" />
<path d="M32.2455 6.9295
L32.3664 6.9900
" />
<path d="M32.3664 6.9900
L32.4269 7.0505
" />
<path d="M32.4269 7.0505
L32.4874 7.1714
" />
<path d="M32.4874 7.1714
L32.4874 7.2924
" />
<path d="M32.4874 7.2924
L32.4269 7.4738
" />
<path d="M32.4269 7.4738
L31.7012 8.1995
" />
<path d="M31.7012 8.1995
L32.4874 8.1995
" />
</g><path style="fill:none; 
stroke:#006464; stroke-width:0.1524; stroke-opacity:1; 
stroke-linecap:round; stroke-linejoin:round;fill:none"
d="M 34.2900,6.9850
33.0200,6.9850
33.0200,8.2550
34.2900,8.2550
Z" /> 
<text x="32.8295" y="10.7950"
textLength="29.9574" font-size="1.6933" lengthAdjust="spacingAndGlyphs"
text-anchor="end" opacity="0" stroke-opacity="0">GPIO_L15_C15_M6/BOARD_ID_1</text>
<g class="stroked-text"><desc>GPIO_L15_C15_M6/BOARD_ID_1</desc>
<path d="M3.9427 9.5300
L3.8217 9.4695
" />
<path d="M3.8217 9.4695
L3.6403 9.4695
" />
<path d="M3.6403 9.4695
L3.4589 9.5300
" />
<path d="M3.4589 9.5300
L3.3379 9.6510
" />
<path d="M3.3379 9.6510
L3.2774 9.7719
" />
<path d="M3.2774 9.7719
L3.2170 10.0138
" />
<path d="M3.2170 10.0138
L3.2170 10.1952
" />
<path d="M3.2170 10.1952
L3.2774 10.4371
" />
<path d="M3.2774 10.4371
L3.3379 10.5581
" />
<path d="M3.3379 10.5581
L3.4589 10.6791
" />
<path d="M3.4589 10.6791
L3.6403 10.7395
" />
<path d="M3.6403 10.7395
L3.7612 10.7395
" />
<path d="M3.7612 10.7395
L3.9427 10.6791
" />
<path d="M3.9427 10.6791
L4.0031 10.6186
" />
<path d="M4.0031 10.6186
L4.0031 10.1952
" />
<path d="M4.0031 10.1952
L3.7612 10.1952
" />
<path d="M4.5474 10.7395
L4.5474 9.4695
" />
<path d="M4.5474 9.4695
L5.0312 9.4695
" />
<path d="M5.0312 9.4695
L5.1522 9.5300
" />
<path d="M5.1522 9.5300
L5.2127 9.5905
" />
<path d="M5.2127 9.5905
L5.2731 9.7114
" />
<path d="M5.2731 9.7114
L5.2731 9.8929
" />
<path d="M5.2731 9.8929
L5.2127 10.0138
" />
<path d="M5.2127 10.0138
L5.1522 10.0743
" />
<path d="M5.1522 10.0743
L5.0312 10.1348
" />
<path d="M5.0312 10.1348
L4.5474 10.1348
" />
<path d="M5.8174 10.7395
L5.8174 9.4695
" />
<path d="M6.6641 9.4695
L6.9060 9.4695
" />
<path d="M6.9060 9.4695
L7.0270 9.5300
" />
<path d="M7.0270 9.5300
L7.1479 9.6510
" />
<path d="M7.1479 9.6510
L7.2084 9.8929
" />
<path d="M7.2084 9.8929
L7.2084 10.3162
" />
<path d="M7.2084 10.3162
L7.1479 10.5581
" />
<path d="M7.1479 10.5581
L7.0270 10.6791
" />
<path d="M7.0270 10.6791
L6.9060 10.7395
" />
<path d="M6.9060 10.7395
L6.6641 10.7395
" />
<path d="M6.6641 10.7395
L6.5432 10.6791
" />
<path d="M6.5432 10.6791
L6.4222 10.5581
" />
<path d="M6.4222 10.5581
L6.3618 10.3162
" />
<path d="M6.3618 10.3162
L6.3618 9.8929
" />
<path d="M6.3618 9.8929
L6.4222 9.6510
" />
<path d="M6.4222 9.6510
L6.5432 9.5300
" />
<path d="M6.5432 9.5300
L6.6641 9.4695
" />
<path d="M7.4504 10.8605
L8.4180 10.8605
" />
<path d="M9.3251 10.7395
L8.7203 10.7395
" />
<path d="M8.7203 10.7395
L8.7203 9.4695
" />
<path d="M10.4137 10.7395
L9.6880 10.7395
" />
<path d="M10.0508 10.7395
L10.0508 9.4695
" />
<path d="M10.0508 9.4695
L9.9299 9.6510
" />
<path d="M9.9299 9.6510
L9.8089 9.7719
" />
<path d="M9.8089 9.7719
L9.6880 9.8324
" />
<path d="M11.5627 9.4695
L10.9579 9.4695
" />
<path d="M10.9579 9.4695
L10.8975 10.0743
" />
<path d="M10.8975 10.0743
L10.9579 10.0138
" />
<path d="M10.9579 10.0138
L11.0789 9.9533
" />
<path d="M11.0789 9.9533
L11.3813 9.9533
" />
<path d="M11.3813 9.9533
L11.5022 10.0138
" />
<path d="M11.5022 10.0138
L11.5627 10.0743
" />
<path d="M11.5627 10.0743
L11.6232 10.1952
" />
<path d="M11.6232 10.1952
L11.6232 10.4976
" />
<path d="M11.6232 10.4976
L11.5627 10.6186
" />
<path d="M11.5627 10.6186
L11.5022 10.6791
" />
<path d="M11.5022 10.6791
L11.3813 10.7395
" />
<path d="M11.3813 10.7395
L11.0789 10.7395
" />
<path d="M11.0789 10.7395
L10.9579 10.6791
" />
<path d="M10.9579 10.6791
L10.8975 10.6186
" />
<path d="M11.8651 10.8605
L12.8327 10.8605
" />
<path d="M13.8607 10.6186
L13.8003 10.6791
" />
<path d="M13.8003 10.6791
L13.6188 10.7395
" />
<path d="M13.6188 10.7395
L13.4979 10.7395
" />
<path d="M13.4979 10.7395
L13.3165 10.6791
" />
<path d="M13.3165 10.6791
L13.1955 10.5581
" />
<path d="M13.1955 10.5581
L13.1350 10.4371
" />
<path d="M13.1350 10.4371
L13.0746 10.1952
" />
<path d="M13.0746 10.1952
L13.0746 10.0138
" />
<path d="M13.0746 10.0138
L13.1350 9.7719
" />
<path d="M13.1350 9.7719
L13.1955 9.6510
" />
<path d="M13.1955 9.6510
L13.3165 9.5300
" />
<path d="M13.3165 9.5300
L13.4979 9.4695
" />
<path d="M13.4979 9.4695
L13.6188 9.4695
" />
<path d="M13.6188 9.4695
L13.8003 9.5300
" />
<path d="M13.8003 9.5300
L13.8607 9.5905
" />
<path d="M15.0703 10.7395
L14.3446 10.7395
" />
<path d="M14.7074 10.7395
L14.7074 9.4695
" />
<path d="M14.7074 9.4695
L14.5865 9.6510
" />
<path d="M14.5865 9.6510
L14.4655 9.7719
" />
<path d="M14.4655 9.7719
L14.3446 9.8324
" />
<path d="M16.2193 9.4695
L15.6145 9.4695
" />
<path d="M15.6145 9.4695
L15.5541 10.0743
" />
<path d="M15.5541 10.0743
L15.6145 10.0138
" />
<path d="M15.6145 10.0138
L15.7355 9.9533
" />
<path d="M15.7355 9.9533
L16.0379 9.9533
" />
<path d="M16.0379 9.9533
L16.1588 10.0138
" />
<path d="M16.1588 10.0138
L16.2193 10.0743
" />
<path d="M16.2193 10.0743
L16.2798 10.1952
" />
<path d="M16.2798 10.1952
L16.2798 10.4976
" />
<path d="M16.2798 10.4976
L16.2193 10.6186
" />
<path d="M16.2193 10.6186
L16.1588 10.6791
" />
<path d="M16.1588 10.6791
L16.0379 10.7395
" />
<path d="M16.0379 10.7395
L15.7355 10.7395
" />
<path d="M15.7355 10.7395
L15.6145 10.6791
" />
<path d="M15.6145 10.6791
L15.5541 10.6186
" />
<path d="M16.5217 10.8605
L17.4893 10.8605
" />
<path d="M17.7916 10.7395
L17.7916 9.4695
" />
<path d="M17.7916 9.4695
L18.2150 10.3767
" />
<path d="M18.2150 10.3767
L18.6383 9.4695
" />
<path d="M18.6383 9.4695
L18.6383 10.7395
" />
<path d="M19.7873 9.4695
L19.5454 9.4695
" />
<path d="M19.5454 9.4695
L19.4245 9.5300
" />
<path d="M19.4245 9.5300
L19.3640 9.5905
" />
<path d="M19.3640 9.5905
L19.2430 9.7719
" />
<path d="M19.2430 9.7719
L19.1826 10.0138
" />
<path d="M19.1826 10.0138
L19.1826 10.4976
" />
<path d="M19.1826 10.4976
L19.2430 10.6186
" />
<path d="M19.2430 10.6186
L19.3035 10.6791
" />
<path d="M19.3035 10.6791
L19.4245 10.7395
" />
<path d="M19.4245 10.7395
L19.6664 10.7395
" />
<path d="M19.6664 10.7395
L19.7873 10.6791
" />
<path d="M19.7873 10.6791
L19.8478 10.6186
" />
<path d="M19.8478 10.6186
L19.9083 10.4976
" />
<path d="M19.9083 10.4976
L19.9083 10.1952
" />
<path d="M19.9083 10.1952
L19.8478 10.0743
" />
<path d="M19.8478 10.0743
L19.7873 10.0138
" />
<path d="M19.7873 10.0138
L19.6664 9.9533
" />
<path d="M19.6664 9.9533
L19.4245 9.9533
" />
<path d="M19.4245 9.9533
L19.3035 10.0138
" />
<path d="M19.3035 10.0138
L19.2430 10.0743
" />
<path d="M19.2430 10.0743
L19.1826 10.1952
" />
<path d="M21.3597 9.4091
L20.2711 11.0419
" />
<path d="M22.2064 10.0743
L22.3878 10.1348
" />
<path d="M22.3878 10.1348
L22.4483 10.1952
" />
<path d="M22.4483 10.1952
L22.5087 10.3162
" />
<path d="M22.5087 10.3162
L22.5087 10.4976
" />
<path d="M22.5087 10.4976
L22.4483 10.6186
" />
<path d="M22.4483 10.6186
L22.3878 10.6791
" />
<path d="M22.3878 10.6791
L22.2668 10.7395
" />
<path d="M22.2668 10.7395
L21.7830 10.7395
" />
<path d="M21.7830 10.7395
L21.7830 9.4695
" />
<path d="M21.7830 9.4695
L22.2064 9.4695
" />
<path d="M22.2064 9.4695
L22.3273 9.5300
" />
<path d="M22.3273 9.5300
L22.3878 9.5905
" />
<path d="M22.3878 9.5905
L22.4483 9.7114
" />
<path d="M22.4483 9.7114
L22.4483 9.8324
" />
<path d="M22.4483 9.8324
L22.3878 9.9533
" />
<path d="M22.3878 9.9533
L22.3273 10.0138
" />
<path d="M22.3273 10.0138
L22.2064 10.0743
" />
<path d="M22.2064 10.0743
L21.7830 10.0743
" />
<path d="M23.2949 9.4695
L23.5368 9.4695
" />
<path d="M23.5368 9.4695
L23.6578 9.5300
" />
<path d="M23.6578 9.5300
L23.7787 9.6510
" />
<path d="M23.7787 9.6510
L23.8392 9.8929
" />
<path d="M23.8392 9.8929
L23.8392 10.3162
" />
<path d="M23.8392 10.3162
L23.7787 10.5581
" />
<path d="M23.7787 10.5581
L23.6578 10.6791
" />
<path d="M23.6578 10.6791
L23.5368 10.7395
" />
<path d="M23.5368 10.7395
L23.2949 10.7395
" />
<path d="M23.2949 10.7395
L23.1740 10.6791
" />
<path d="M23.1740 10.6791
L23.0530 10.5581
" />
<path d="M23.0530 10.5581
L22.9926 10.3162
" />
<path d="M22.9926 10.3162
L22.9926 9.8929
" />
<path d="M22.9926 9.8929
L23.0530 9.6510
" />
<path d="M23.0530 9.6510
L23.1740 9.5300
" />
<path d="M23.1740 9.5300
L23.2949 9.4695
" />
<path d="M24.3231 10.3767
L24.9278 10.3767
" />
<path d="M24.2021 10.7395
L24.6254 9.4695
" />
<path d="M24.6254 9.4695
L25.0488 10.7395
" />
<path d="M26.1978 10.7395
L25.7745 10.1348
" />
<path d="M25.4721 10.7395
L25.4721 9.4695
" />
<path d="M25.4721 9.4695
L25.9559 9.4695
" />
<path d="M25.9559 9.4695
L26.0769 9.5300
" />
<path d="M26.0769 9.5300
L26.1374 9.5905
" />
<path d="M26.1374 9.5905
L26.1978 9.7114
" />
<path d="M26.1978 9.7114
L26.1978 9.8929
" />
<path d="M26.1978 9.8929
L26.1374 10.0138
" />
<path d="M26.1374 10.0138
L26.0769 10.0743
" />
<path d="M26.0769 10.0743
L25.9559 10.1348
" />
<path d="M25.9559 10.1348
L25.4721 10.1348
" />
<path d="M26.7421 10.7395
L26.7421 9.4695
" />
<path d="M26.7421 9.4695
L27.0445 9.4695
" />
<path d="M27.0445 9.4695
L27.2259 9.5300
" />
<path d="M27.2259 9.5300
L27.3469 9.6510
" />
<path d="M27.3469 9.6510
L27.4074 9.7719
" />
<path d="M27.4074 9.7719
L27.4678 10.0138
" />
<path d="M27.4678 10.0138
L27.4678 10.1952
" />
<path d="M27.4678 10.1952
L27.4074 10.4371
" />
<path d="M27.4074 10.4371
L27.3469 10.5581
" />
<path d="M27.3469 10.5581
L27.2259 10.6791
" />
<path d="M27.2259 10.6791
L27.0445 10.7395
" />
<path d="M27.0445 10.7395
L26.7421 10.7395
" />
<path d="M27.7098 10.8605
L28.6774 10.8605
" />
<path d="M28.9797 10.7395
L28.9797 9.4695
" />
<path d="M29.5845 10.7395
L29.5845 9.4695
" />
<path d="M29.5845 9.4695
L29.8869 9.4695
" />
<path d="M29.8869 9.4695
L30.0683 9.5300
" />
<path d="M30.0683 9.5300
L30.1893 9.6510
" />
<path d="M30.1893 9.6510
L30.2498 9.7719
" />
<path d="M30.2498 9.7719
L30.3102 10.0138
" />
<path d="M30.3102 10.0138
L30.3102 10.1952
" />
<path d="M30.3102 10.1952
L30.2498 10.4371
" />
<path d="M30.2498 10.4371
L30.1893 10.5581
" />
<path d="M30.1893 10.5581
L30.0683 10.6791
" />
<path d="M30.0683 10.6791
L29.8869 10.7395
" />
<path d="M29.8869 10.7395
L29.5845 10.7395
" />
<path d="M30.5522 10.8605
L31.5198 10.8605
" />
<path d="M32.4874 10.7395
L31.7617 10.7395
" />
<path d="M32.1245 10.7395
L32.1245 9.4695
" />
<path d="M32.1245 9.4695
L32.0036 9.6510
" />
<path d="M32.0036 9.6510
L31.8826 9.7719
" />
<path d="M31.8826 9.7719
L31.7617 9.8324
" />
</g><path style="fill:none; 
stroke:#006464; stroke-width:0.1524; stroke-opacity:1; 
stroke-linecap:round; stroke-linejoin:round;fill:none"
d="M 34.2900,9.5250
33.0200,9.5250
33.0200,10.7950
34.2900,10.7950
Z" /> 
<text x="32.8295" y="13.3350"
textLength="29.9574" font-size="1.6933" lengthAdjust="spacingAndGlyphs"
text-anchor="end" opacity="0" stroke-opacity="0">GPIO_L16_C16_M7/BOARD_ID_0</text>
<g class="stroked-text"><desc>GPIO_L16_C16_M7/BOARD_ID_0</desc>
<path d="M3.9427 12.0700
L3.8217 12.0095
" />
<path d="M3.8217 12.0095
L3.6403 12.0095
" />
<path d="M3.6403 12.0095
L3.4589 12.0700
" />
<path d="M3.4589 12.0700
L3.3379 12.1910
" />
<path d="M3.3379 12.1910
L3.2774 12.3119
" />
<path d="M3.2774 12.3119
L3.2170 12.5538
" />
<path d="M3.2170 12.5538
L3.2170 12.7352
" />
<path d="M3.2170 12.7352
L3.2774 12.9771
" />
<path d="M3.2774 12.9771
L3.3379 13.0981
" />
<path d="M3.3379 13.0981
L3.4589 13.2191
" />
<path d="M3.4589 13.2191
L3.6403 13.2795
" />
<path d="M3.6403 13.2795
L3.7612 13.2795
" />
<path d="M3.7612 13.2795
L3.9427 13.2191
" />
<path d="M3.9427 13.2191
L4.0031 13.1586
" />
<path d="M4.0031 13.1586
L4.0031 12.7352
" />
<path d="M4.0031 12.7352
L3.7612 12.7352
" />
<path d="M4.5474 13.2795
L4.5474 12.0095
" />
<path d="M4.5474 12.0095
L5.0312 12.0095
" />
<path d="M5.0312 12.0095
L5.1522 12.0700
" />
<path d="M5.1522 12.0700
L5.2127 12.1305
" />
<path d="M5.2127 12.1305
L5.2731 12.2514
" />
<path d="M5.2731 12.2514
L5.2731 12.4329
" />
<path d="M5.2731 12.4329
L5.2127 12.5538
" />
<path d="M5.2127 12.5538
L5.1522 12.6143
" />
<path d="M5.1522 12.6143
L5.0312 12.6748
" />
<path d="M5.0312 12.6748
L4.5474 12.6748
" />
<path d="M5.8174 13.2795
L5.8174 12.0095
" />
<path d="M6.6641 12.0095
L6.9060 12.0095
" />
<path d="M6.9060 12.0095
L7.0270 12.0700
" />
<path d="M7.0270 12.0700
L7.1479 12.1910
" />
<path d="M7.1479 12.1910
L7.2084 12.4329
" />
<path d="M7.2084 12.4329
L7.2084 12.8562
" />
<path d="M7.2084 12.8562
L7.1479 13.0981
" />
<path d="M7.1479 13.0981
L7.0270 13.2191
" />
<path d="M7.0270 13.2191
L6.9060 13.2795
" />
<path d="M6.9060 13.2795
L6.6641 13.2795
" />
<path d="M6.6641 13.2795
L6.5432 13.2191
" />
<path d="M6.5432 13.2191
L6.4222 13.0981
" />
<path d="M6.4222 13.0981
L6.3618 12.8562
" />
<path d="M6.3618 12.8562
L6.3618 12.4329
" />
<path d="M6.3618 12.4329
L6.4222 12.1910
" />
<path d="M6.4222 12.1910
L6.5432 12.0700
" />
<path d="M6.5432 12.0700
L6.6641 12.0095
" />
<path d="M7.4504 13.4005
L8.4180 13.4005
" />
<path d="M9.3251 13.2795
L8.7203 13.2795
" />
<path d="M8.7203 13.2795
L8.7203 12.0095
" />
<path d="M10.4137 13.2795
L9.6880 13.2795
" />
<path d="M10.0508 13.2795
L10.0508 12.0095
" />
<path d="M10.0508 12.0095
L9.9299 12.1910
" />
<path d="M9.9299 12.1910
L9.8089 12.3119
" />
<path d="M9.8089 12.3119
L9.6880 12.3724
" />
<path d="M11.5022 12.0095
L11.2603 12.0095
" />
<path d="M11.2603 12.0095
L11.1394 12.0700
" />
<path d="M11.1394 12.0700
L11.0789 12.1305
" />
<path d="M11.0789 12.1305
L10.9579 12.3119
" />
<path d="M10.9579 12.3119
L10.8975 12.5538
" />
<path d="M10.8975 12.5538
L10.8975 13.0376
" />
<path d="M10.8975 13.0376
L10.9579 13.1586
" />
<path d="M10.9579 13.1586
L11.0184 13.2191
" />
<path d="M11.0184 13.2191
L11.1394 13.2795
" />
<path d="M11.1394 13.2795
L11.3813 13.2795
" />
<path d="M11.3813 13.2795
L11.5022 13.2191
" />
<path d="M11.5022 13.2191
L11.5627 13.1586
" />
<path d="M11.5627 13.1586
L11.6232 13.0376
" />
<path d="M11.6232 13.0376
L11.6232 12.7352
" />
<path d="M11.6232 12.7352
L11.5627 12.6143
" />
<path d="M11.5627 12.6143
L11.5022 12.5538
" />
<path d="M11.5022 12.5538
L11.3813 12.4933
" />
<path d="M11.3813 12.4933
L11.1394 12.4933
" />
<path d="M11.1394 12.4933
L11.0184 12.5538
" />
<path d="M11.0184 12.5538
L10.9579 12.6143
" />
<path d="M10.9579 12.6143
L10.8975 12.7352
" />
<path d="M11.8651 13.4005
L12.8327 13.4005
" />
<path d="M13.8607 13.1586
L13.8003 13.2191
" />
<path d="M13.8003 13.2191
L13.6188 13.2795
" />
<path d="M13.6188 13.2795
L13.4979 13.2795
" />
<path d="M13.4979 13.2795
L13.3165 13.2191
" />
<path d="M13.3165 13.2191
L13.1955 13.0981
" />
<path d="M13.1955 13.0981
L13.1350 12.9771
" />
<path d="M13.1350 12.9771
L13.0746 12.7352
" />
<path d="M13.0746 12.7352
L13.0746 12.5538
" />
<path d="M13.0746 12.5538
L13.1350 12.3119
" />
<path d="M13.1350 12.3119
L13.1955 12.1910
" />
<path d="M13.1955 12.1910
L13.3165 12.0700
" />
<path d="M13.3165 12.0700
L13.4979 12.0095
" />
<path d="M13.4979 12.0095
L13.6188 12.0095
" />
<path d="M13.6188 12.0095
L13.8003 12.0700
" />
<path d="M13.8003 12.0700
L13.8607 12.1305
" />
<path d="M15.0703 13.2795
L14.3446 13.2795
" />
<path d="M14.7074 13.2795
L14.7074 12.0095
" />
<path d="M14.7074 12.0095
L14.5865 12.1910
" />
<path d="M14.5865 12.1910
L14.4655 12.3119
" />
<path d="M14.4655 12.3119
L14.3446 12.3724
" />
<path d="M16.1588 12.0095
L15.9169 12.0095
" />
<path d="M15.9169 12.0095
L15.7960 12.0700
" />
<path d="M15.7960 12.0700
L15.7355 12.1305
" />
<path d="M15.7355 12.1305
L15.6145 12.3119
" />
<path d="M15.6145 12.3119
L15.5541 12.5538
" />
<path d="M15.5541 12.5538
L15.5541 13.0376
" />
<path d="M15.5541 13.0376
L15.6145 13.1586
" />
<path d="M15.6145 13.1586
L15.6750 13.2191
" />
<path d="M15.6750 13.2191
L15.7960 13.2795
" />
<path d="M15.7960 13.2795
L16.0379 13.2795
" />
<path d="M16.0379 13.2795
L16.1588 13.2191
" />
<path d="M16.1588 13.2191
L16.2193 13.1586
" />
<path d="M16.2193 13.1586
L16.2798 13.0376
" />
<path d="M16.2798 13.0376
L16.2798 12.7352
" />
<path d="M16.2798 12.7352
L16.2193 12.6143
" />
<path d="M16.2193 12.6143
L16.1588 12.5538
" />
<path d="M16.1588 12.5538
L16.0379 12.4933
" />
<path d="M16.0379 12.4933
L15.7960 12.4933
" />
<path d="M15.7960 12.4933
L15.6750 12.5538
" />
<path d="M15.6750 12.5538
L15.6145 12.6143
" />
<path d="M15.6145 12.6143
L15.5541 12.7352
" />
<path d="M16.5217 13.4005
L17.4893 13.4005
" />
<path d="M17.7916 13.2795
L17.7916 12.0095
" />
<path d="M17.7916 12.0095
L18.2150 12.9167
" />
<path d="M18.2150 12.9167
L18.6383 12.0095
" />
<path d="M18.6383 12.0095
L18.6383 13.2795
" />
<path d="M19.1221 12.0095
L19.9687 12.0095
" />
<path d="M19.9687 12.0095
L19.4245 13.2795
" />
<path d="M21.3597 11.9491
L20.2711 13.5819
" />
<path d="M22.2064 12.6143
L22.3878 12.6748
" />
<path d="M22.3878 12.6748
L22.4483 12.7352
" />
<path d="M22.4483 12.7352
L22.5087 12.8562
" />
<path d="M22.5087 12.8562
L22.5087 13.0376
" />
<path d="M22.5087 13.0376
L22.4483 13.1586
" />
<path d="M22.4483 13.1586
L22.3878 13.2191
" />
<path d="M22.3878 13.2191
L22.2668 13.2795
" />
<path d="M22.2668 13.2795
L21.7830 13.2795
" />
<path d="M21.7830 13.2795
L21.7830 12.0095
" />
<path d="M21.7830 12.0095
L22.2064 12.0095
" />
<path d="M22.2064 12.0095
L22.3273 12.0700
" />
<path d="M22.3273 12.0700
L22.3878 12.1305
" />
<path d="M22.3878 12.1305
L22.4483 12.2514
" />
<path d="M22.4483 12.2514
L22.4483 12.3724
" />
<path d="M22.4483 12.3724
L22.3878 12.4933
" />
<path d="M22.3878 12.4933
L22.3273 12.5538
" />
<path d="M22.3273 12.5538
L22.2064 12.6143
" />
<path d="M22.2064 12.6143
L21.7830 12.6143
" />
<path d="M23.2949 12.0095
L23.5368 12.0095
" />
<path d="M23.5368 12.0095
L23.6578 12.0700
" />
<path d="M23.6578 12.0700
L23.7787 12.1910
" />
<path d="M23.7787 12.1910
L23.8392 12.4329
" />
<path d="M23.8392 12.4329
L23.8392 12.8562
" />
<path d="M23.8392 12.8562
L23.7787 13.0981
" />
<path d="M23.7787 13.0981
L23.6578 13.2191
" />
<path d="M23.6578 13.2191
L23.5368 13.2795
" />
<path d="M23.5368 13.2795
L23.2949 13.2795
" />
<path d="M23.2949 13.2795
L23.1740 13.2191
" />
<path d="M23.1740 13.2191
L23.0530 13.0981
" />
<path d="M23.0530 13.0981
L22.9926 12.8562
" />
<path d="M22.9926 12.8562
L22.9926 12.4329
" />
<path d="M22.9926 12.4329
L23.0530 12.1910
" />
<path d="M23.0530 12.1910
L23.1740 12.0700
" />
<path d="M23.1740 12.0700
L23.2949 12.0095
" />
<path d="M24.3231 12.9167
L24.9278 12.9167
" />
<path d="M24.2021 13.2795
L24.6254 12.0095
" />
<path d="M24.6254 12.0095
L25.0488 13.2795
" />
<path d="M26.1978 13.2795
L25.7745 12.6748
" />
<path d="M25.4721 13.2795
L25.4721 12.0095
" />
<path d="M25.4721 12.0095
L25.9559 12.0095
" />
<path d="M25.9559 12.0095
L26.0769 12.0700
" />
<path d="M26.0769 12.0700
L26.1374 12.1305
" />
<path d="M26.1374 12.1305
L26.1978 12.2514
" />
<path d="M26.1978 12.2514
L26.1978 12.4329
" />
<path d="M26.1978 12.4329
L26.1374 12.5538
" />
<path d="M26.1374 12.5538
L26.0769 12.6143
" />
<path d="M26.0769 12.6143
L25.9559 12.6748
" />
<path d="M25.9559 12.6748
L25.4721 12.6748
" />
<path d="M26.7421 13.2795
L26.7421 12.0095
" />
<path d="M26.7421 12.0095
L27.0445 12.0095
" />
<path d="M27.0445 12.0095
L27.2259 12.0700
" />
<path d="M27.2259 12.0700
L27.3469 12.1910
" />
<path d="M27.3469 12.1910
L27.4074 12.3119
" />
<path d="M27.4074 12.3119
L27.4678 12.5538
" />
<path d="M27.4678 12.5538
L27.4678 12.7352
" />
<path d="M27.4678 12.7352
L27.4074 12.9771
" />
<path d="M27.4074 12.9771
L27.3469 13.0981
" />
<path d="M27.3469 13.0981
L27.2259 13.2191
" />
<path d="M27.2259 13.2191
L27.0445 13.2795
" />
<path d="M27.0445 13.2795
L26.7421 13.2795
" />
<path d="M27.7098 13.4005
L28.6774 13.4005
" />
<path d="M28.9797 13.2795
L28.9797 12.0095
" />
<path d="M29.5845 13.2795
L29.5845 12.0095
" />
<path d="M29.5845 12.0095
L29.8869 12.0095
" />
<path d="M29.8869 12.0095
L30.0683 12.0700
" />
<path d="M30.0683 12.0700
L30.1893 12.1910
" />
<path d="M30.1893 12.1910
L30.2498 12.3119
" />
<path d="M30.2498 12.3119
L30.3102 12.5538
" />
<path d="M30.3102 12.5538
L30.3102 12.7352
" />
<path d="M30.3102 12.7352
L30.2498 12.9771
" />
<path d="M30.2498 12.9771
L30.1893 13.0981
" />
<path d="M30.1893 13.0981
L30.0683 13.2191
" />
<path d="M30.0683 13.2191
L29.8869 13.2795
" />
<path d="M29.8869 13.2795
L29.5845 13.2795
" />
<path d="M30.5522 13.4005
L31.5198 13.4005
" />
<path d="M32.0640 12.0095
L32.1850 12.0095
" />
<path d="M32.1850 12.0095
L32.3059 12.0700
" />
<path d="M32.3059 12.0700
L32.3664 12.1305
" />
<path d="M32.3664 12.1305
L32.4269 12.2514
" />
<path d="M32.4269 12.2514
L32.4874 12.4933
" />
<path d="M32.4874 12.4933
L32.4874 12.7957
" />
<path d="M32.4874 12.7957
L32.4269 13.0376
" />
<path d="M32.4269 13.0376
L32.3664 13.1586
" />
<path d="M32.3664 13.1586
L32.3059 13.2191
" />
<path d="M32.3059 13.2191
L32.1850 13.2795
" />
<path d="M32.1850 13.2795
L32.0640 13.2795
" />
<path d="M32.0640 13.2795
L31.9431 13.2191
" />
<path d="M31.9431 13.2191
L31.8826 13.1586
" />
<path d="M31.8826 13.1586
L31.8221 13.0376
" />
<path d="M31.8221 13.0376
L31.7617 12.7957
" />
<path d="M31.7617 12.7957
L31.7617 12.4933
" />
<path d="M31.7617 12.4933
L31.8221 12.2514
" />
<path d="M31.8221 12.2514
L31.8826 12.1305
" />
<path d="M31.8826 12.1305
L31.9431 12.0700
" />
<path d="M31.9431 12.0700
L32.0640 12.0095
" />
</g><path style="fill:none; 
stroke:#006464; stroke-width:0.1524; stroke-opacity:1; 
stroke-linecap:round; stroke-linejoin:round;fill:none"
d="M 34.2900,12.0650
33.0200,12.0650
33.0200,13.3350
34.2900,13.3350
Z" /> 
<text x="1.2700" y="4.3684"
textLength="8.3068" font-size="1.6933" lengthAdjust="spacingAndGlyphs"
text-anchor="start" opacity="0" stroke-opacity="0">Common</text>
<g class="stroked-text"><desc>Common</desc>
<path d="M2.3982 4.0840
L2.3378 4.1445
" />
<path d="M2.3378 4.1445
L2.1563 4.2049
" />
<path d="M2.1563 4.2049
L2.0354 4.2049
" />
<path d="M2.0354 4.2049
L1.8540 4.1445
" />
<path d="M1.8540 4.1445
L1.7330 4.0235
" />
<path d="M1.7330 4.0235
L1.6725 3.9025
" />
<path d="M1.6725 3.9025
L1.6121 3.6606
" />
<path d="M1.6121 3.6606
L1.6121 3.4792
" />
<path d="M1.6121 3.4792
L1.6725 3.2373
" />
<path d="M1.6725 3.2373
L1.7330 3.1164
" />
<path d="M1.7330 3.1164
L1.8540 2.9954
" />
<path d="M1.8540 2.9954
L2.0354 2.9349
" />
<path d="M2.0354 2.9349
L2.1563 2.9349
" />
<path d="M2.1563 2.9349
L2.3378 2.9954
" />
<path d="M2.3378 2.9954
L2.3982 3.0559
" />
<path d="M3.1240 4.2049
L3.0030 4.1445
" />
<path d="M3.0030 4.1445
L2.9425 4.0840
" />
<path d="M2.9425 4.0840
L2.8821 3.9630
" />
<path d="M2.8821 3.9630
L2.8821 3.6002
" />
<path d="M2.8821 3.6002
L2.9425 3.4792
" />
<path d="M2.9425 3.4792
L3.0030 3.4187
" />
<path d="M3.0030 3.4187
L3.1240 3.3583
" />
<path d="M3.1240 3.3583
L3.3054 3.3583
" />
<path d="M3.3054 3.3583
L3.4263 3.4187
" />
<path d="M3.4263 3.4187
L3.4868 3.4792
" />
<path d="M3.4868 3.4792
L3.5473 3.6002
" />
<path d="M3.5473 3.6002
L3.5473 3.9630
" />
<path d="M3.5473 3.9630
L3.4868 4.0840
" />
<path d="M3.4868 4.0840
L3.4263 4.1445
" />
<path d="M3.4263 4.1445
L3.3054 4.2049
" />
<path d="M3.3054 4.2049
L3.1240 4.2049
" />
<path d="M4.0915 4.2049
L4.0915 3.3583
" />
<path d="M4.0915 3.4792
L4.1520 3.4187
" />
<path d="M4.1520 3.4187
L4.2730 3.3583
" />
<path d="M4.2730 3.3583
L4.4544 3.3583
" />
<path d="M4.4544 3.3583
L4.5753 3.4187
" />
<path d="M4.5753 3.4187
L4.6358 3.5397
" />
<path d="M4.6358 3.5397
L4.6358 4.2049
" />
<path d="M4.6358 3.5397
L4.6963 3.4187
" />
<path d="M4.6963 3.4187
L4.8172 3.3583
" />
<path d="M4.8172 3.3583
L4.9987 3.3583
" />
<path d="M4.9987 3.3583
L5.1196 3.4187
" />
<path d="M5.1196 3.4187
L5.1801 3.5397
" />
<path d="M5.1801 3.5397
L5.1801 4.2049
" />
<path d="M5.7848 4.2049
L5.7848 3.3583
" />
<path d="M5.7848 3.4792
L5.8453 3.4187
" />
<path d="M5.8453 3.4187
L5.9663 3.3583
" />
<path d="M5.9663 3.3583
L6.1477 3.3583
" />
<path d="M6.1477 3.3583
L6.2686 3.4187
" />
<path d="M6.2686 3.4187
L6.3291 3.5397
" />
<path d="M6.3291 3.5397
L6.3291 4.2049
" />
<path d="M6.3291 3.5397
L6.3896 3.4187
" />
<path d="M6.3896 3.4187
L6.5105 3.3583
" />
<path d="M6.5105 3.3583
L6.6920 3.3583
" />
<path d="M6.6920 3.3583
L6.8129 3.4187
" />
<path d="M6.8129 3.4187
L6.8734 3.5397
" />
<path d="M6.8734 3.5397
L6.8734 4.2049
" />
<path d="M7.6596 4.2049
L7.5386 4.1445
" />
<path d="M7.5386 4.1445
L7.4781 4.0840
" />
<path d="M7.4781 4.0840
L7.4177 3.9630
" />
<path d="M7.4177 3.9630
L7.4177 3.6002
" />
<path d="M7.4177 3.6002
L7.4781 3.4792
" />
<path d="M7.4781 3.4792
L7.5386 3.4187
" />
<path d="M7.5386 3.4187
L7.6596 3.3583
" />
<path d="M7.6596 3.3583
L7.8410 3.3583
" />
<path d="M7.8410 3.3583
L7.9619 3.4187
" />
<path d="M7.9619 3.4187
L8.0224 3.4792
" />
<path d="M8.0224 3.4792
L8.0829 3.6002
" />
<path d="M8.0829 3.6002
L8.0829 3.9630
" />
<path d="M8.0829 3.9630
L8.0224 4.0840
" />
<path d="M8.0224 4.0840
L7.9619 4.1445
" />
<path d="M7.9619 4.1445
L7.8410 4.2049
" />
<path d="M7.8410 4.2049
L7.6596 4.2049
" />
<path d="M8.6271 3.3583
L8.6271 4.2049
" />
<path d="M8.6271 3.4792
L8.6876 3.4187
" />
<path d="M8.6876 3.4187
L8.8086 3.3583
" />
<path d="M8.8086 3.3583
L8.9900 3.3583
" />
<path d="M8.9900 3.3583
L9.1109 3.4187
" />
<path d="M9.1109 3.4187
L9.1714 3.5397
" />
<path d="M9.1714 3.5397
L9.1714 4.2049
" />
</g><path style="fill:none; 
stroke:#840000; stroke-width:0.1524; stroke-opacity:1; 
stroke-linecap:round; stroke-linejoin:round;fill:none"
d="M 46.2280,6.3500
46.9900,5.0800
" /> 
<path style="fill:none; 
stroke:#840000; stroke-width:0.1524; stroke-opacity:1; 
stroke-linecap:round; stroke-linejoin:round;fill:none"
d="M 46.9900,5.0800
47.7520,6.3500
" /> 
<path style="fill:none; 
stroke:#840000; stroke-width:0.1524; stroke-opacity:1; 
stroke-linecap:round; stroke-linejoin:round;fill:none"
d="M 46.9900,7.6200
46.9900,5.0800
" /> 
</g>
<g style="fill:none; 
stroke:#840000; stroke-width:0.1524; stroke-opacity:1; 
stroke-linecap:round; stroke-linejoin:round;">
<path d="M46.9900 7.6200
L46.9900 7.6200
" />
</g>
<g style="fill:none; 
stroke:#006464; stroke-width:0.1524; stroke-opacity:1; 
stroke-linecap:round; stroke-linejoin:round;">
<text x="46.9900" y="3.1750"
textLength="5.8880" font-size="1.6933" lengthAdjust="spacingAndGlyphs"
text-anchor="middle" opacity="0" stroke-opacity="0">+3.3V</text>
<g class="stroked-text"><desc>+3.3V</desc>
<path d="M44.4499 2.6357
L45.4176 2.6357
" />
<path d="M44.9337 3.1195
L44.9337 2.1519
" />
<path d="M45.9014 1.8495
L46.6876 1.8495
" />
<path d="M46.6876 1.8495
L46.2642 2.3333
" />
<path d="M46.2642 2.3333
L46.4457 2.3333
" />
<path d="M46.4457 2.3333
L46.5666 2.3938
" />
<path d="M46.5666 2.3938
L46.6271 2.4543
" />
<path d="M46.6271 2.4543
L46.6876 2.5752
" />
<path d="M46.6876 2.5752
L46.6876 2.8776
" />
<path d="M46.6876 2.8776
L46.6271 2.9986
" />
<path d="M46.6271 2.9986
L46.5666 3.0591
" />
<path d="M46.5666 3.0591
L46.4457 3.1195
" />
<path d="M46.4457 3.1195
L46.0828 3.1195
" />
<path d="M46.0828 3.1195
L45.9619 3.0591
" />
<path d="M45.9619 3.0591
L45.9014 2.9986
" />
<path d="M47.2318 2.9986
L47.2923 3.0591
" />
<path d="M47.2923 3.0591
L47.2318 3.1195
" />
<path d="M47.2318 3.1195
L47.1714 3.0591
" />
<path d="M47.1714 3.0591
L47.2318 2.9986
" />
<path d="M47.2318 2.9986
L47.2318 3.1195
" />
<path d="M47.7157 1.8495
L48.5019 1.8495
" />
<path d="M48.5019 1.8495
L48.0785 2.3333
" />
<path d="M48.0785 2.3333
L48.2600 2.3333
" />
<path d="M48.2600 2.3333
L48.3809 2.3938
" />
<path d="M48.3809 2.3938
L48.4414 2.4543
" />
<path d="M48.4414 2.4543
L48.5019 2.5752
" />
<path d="M48.5019 2.5752
L48.5019 2.8776
" />
<path d="M48.5019 2.8776
L48.4414 2.9986
" />
<path d="M48.4414 2.9986
L48.3809 3.0591
" />
<path d="M48.3809 3.0591
L48.2600 3.1195
" />
<path d="M48.2600 3.1195
L47.8971 3.1195
" />
<path d="M47.8971 3.1195
L47.7762 3.0591
" />
<path d="M47.7762 3.0591
L47.7157 2.9986
" />
<path d="M48.8647 1.8495
L49.2880 3.1195
" />
<path d="M49.2880 3.1195
L49.7114 1.8495
" />
</g><path style="fill:none; 
stroke:#840000; stroke-width:0.1524; stroke-opacity:1; 
stroke-linecap:round; stroke-linejoin:round;fill:none"
d="M 41.9100,17.7800
41.9100,19.0500
43.1800,19.0500
41.9100,20.3200
40.6400,19.0500
41.9100,19.0500
" /> 
</g>
<g style="fill:none; 
stroke:#840000; stroke-width:0.1524; stroke-opacity:1; 
stroke-linecap:round; stroke-linejoin:round;">
<path d="M41.9100 17.7800
L41.9100 17.7800
" />
</g>
<g style="fill:none; 
stroke:#006464; stroke-width:0.1524; stroke-opacity:1; 
stroke-linecap:round; stroke-linejoin:round;">
<text x="41.9100" y="23.4950"
textLength="4.0737" font-size="1.6933" lengthAdjust="spacingAndGlyphs"
text-anchor="middle" opacity="0" stroke-opacity="0">GND</text>
<g class="stroked-text"><desc>GND</desc>
<path d="M40.9424 22.2300
L40.8214 22.1695
" />
<path d="M40.8214 22.1695
L40.6400 22.1695
" />
<path d="M40.6400 22.1695
L40.4586 22.2300
" />
<path d="M40.4586 22.2300
L40.3376 22.3510
" />
<path d="M40.3376 22.3510
L40.2771 22.4719
" />
<path d="M40.2771 22.4719
L40.2167 22.7138
" />
<path d="M40.2167 22.7138
L40.2167 22.8952
" />
<path d="M40.2167 22.8952
L40.2771 23.1371
" />
<path d="M40.2771 23.1371
L40.3376 23.2581
" />
<path d="M40.3376 23.2581
L40.4586 23.3791
" />
<path d="M40.4586 23.3791
L40.6400 23.4395
" />
<path d="M40.6400 23.4395
L40.7609 23.4395
" />
<path d="M40.7609 23.4395
L40.9424 23.3791
" />
<path d="M40.9424 23.3791
L41.0028 23.3186
" />
<path d="M41.0028 23.3186
L41.0028 22.8952
" />
<path d="M41.0028 22.8952
L40.7609 22.8952
" />
<path d="M41.5471 23.4395
L41.5471 22.1695
" />
<path d="M41.5471 22.1695
L42.2728 23.4395
" />
<path d="M42.2728 23.4395
L42.2728 22.1695
" />
<path d="M42.8776 23.4395
L42.8776 22.1695
" />
<path d="M42.8776 22.1695
L43.1800 22.1695
" />
<path d="M43.1800 22.1695
L43.3614 22.2300
" />
<path d="M43.3614 22.2300
L43.4824 22.3510
" />
<path d="M43.4824 22.3510
L43.5429 22.4719
" />
<path d="M43.5429 22.4719
L43.6033 22.7138
" />
<path d="M43.6033 22.7138
L43.6033 22.8952
" />
<path d="M43.6033 22.8952
L43.5429 23.1371
" />
<path d="M43.5429 23.1371
L43.4824 23.2581
" />
<path d="M43.4824 23.2581
L43.3614 23.3791
" />
<path d="M43.3614 23.3791
L43.1800 23.4395
" />
<path d="M43.1800 23.4395
L42.8776 23.4395
" />
</g></g>
<g style="fill:none; 
stroke:#009600; stroke-width:0.1524; stroke-opacity:1; 
stroke-linecap:round; stroke-linejoin:round;">
<path d="M46.9900 7.6200
L46.9900 10.1600
" />
<path d="M41.9100 7.6200
L41.9100 12.7000
" />
<path d="M34.2900 10.1600
L46.9900 10.1600
" />
<path d="M34.2900 7.6200
L41.9100 7.6200
" />
<path d="M34.2900 12.7000
L41.9100 12.7000
" />
<path d="M41.9100 12.7000
L41.9100 17.7800
" />
</g>
<g style="fill:none; 
stroke:#0000C2; stroke-width:0.1524; stroke-opacity:1; 
stroke-linecap:round; stroke-linejoin:round;">
<text x="41.9100" y="5.4650"
textLength="3.8317" font-size="1.6933" lengthAdjust="spacingAndGlyphs"
text-anchor="middle" opacity="0" stroke-opacity="0">010</text>
<g class="stroked-text"><desc>010</desc>
<path d="M40.6400 4.1395
L40.7610 4.1395
" />
<path d="M40.7610 4.1395
L40.8819 4.2000
" />
<path d="M40.8819 4.2000
L40.9424 4.2605
" />
<path d="M40.9424 4.2605
L41.0029 4.3814
" />
<path d="M41.0029 4.3814
L41.0634 4.6233
" />
<path d="M41.0634 4.6233
L41.0634 4.9257
" />
<path d="M41.0634 4.9257
L41.0029 5.1676
" />
<path d="M41.0029 5.1676
L40.9424 5.2886
" />
<path d="M40.9424 5.2886
L40.8819 5.3491
" />
<path d="M40.8819 5.3491
L40.7610 5.4095
" />
<path d="M40.7610 5.4095
L40.6400 5.4095
" />
<path d="M40.6400 5.4095
L40.5191 5.3491
" />
<path d="M40.5191 5.3491
L40.4586 5.2886
" />
<path d="M40.4586 5.2886
L40.3981 5.1676
" />
<path d="M40.3981 5.1676
L40.3377 4.9257
" />
<path d="M40.3377 4.9257
L40.3377 4.6233
" />
<path d="M40.3377 4.6233
L40.3981 4.3814
" />
<path d="M40.3981 4.3814
L40.4586 4.2605
" />
<path d="M40.4586 4.2605
L40.5191 4.2000
" />
<path d="M40.5191 4.2000
L40.6400 4.1395
" />
<path d="M42.2729 5.4095
L41.5472 5.4095
" />
<path d="M41.9100 5.4095
L41.9100 4.1395
" />
<path d="M41.9100 4.1395
L41.7891 4.3210
" />
<path d="M41.7891 4.3210
L41.6681 4.4419
" />
<path d="M41.6681 4.4419
L41.5472 4.5024
" />
<path d="M43.0590 4.1395
L43.1800 4.1395
" />
<path d="M43.1800 4.1395
L43.3009 4.2000
" />
<path d="M43.3009 4.2000
L43.3614 4.2605
" />
<path d="M43.3614 4.2605
L43.4219 4.3814
" />
<path d="M43.4219 4.3814
L43.4824 4.6233
" />
<path d="M43.4824 4.6233
L43.4824 4.9257
" />
<path d="M43.4824 4.9257
L43.4219 5.1676
" />
<path d="M43.4219 5.1676
L43.3614 5.2886
" />
<path d="M43.3614 5.2886
L43.3009 5.3491
" />
<path d="M43.3009 5.3491
L43.1800 5.4095
" />
<path d="M43.1800 5.4095
L43.0590 5.4095
" />
<path d="M43.0590 5.4095
L42.9381 5.3491
" />
<path d="M42.9381 5.3491
L42.8776 5.2886
" />
<path d="M42.8776 5.2886
L42.8171 5.1676
" />
<path d="M42.8171 5.1676
L42.7567 4.9257
" />
<path d="M42.7567 4.9257
L42.7567 4.6233
" />
<path d="M42.7567 4.6233
L42.8171 4.3814
" />
<path d="M42.8171 4.3814
L42.8776 4.2605
" />
<path d="M42.8776 4.2605
L42.9381 4.2000
" />
<path d="M42.9381 4.2000
L43.0590 4.1395
" />
</g></g>
<g style="fill:#009600; fill-opacity:1.0000; 
stroke:#009600; stroke-width:0.1524; stroke-opacity:1; 
stroke-linecap:round; stroke-linejoin:round;">
<circle cx="41.9100" cy="12.7000" r="0.4572" /> 
</g> 
</svg>
